<?xml version="1.0" encoding="utf-8" ?>
<svg baseProfile="full" height="484.0px" version="1.1" viewBox="0 0 356.0 484.0" width="356.0px" xmlns="http://www.w3.org/2000/svg" xmlns:ev="http://www.w3.org/2001/xml-events" xmlns:xlink="http://www.w3.org/1999/xlink"><defs /><rect fill="white" height="484.0" width="356.0" x="0" y="0" /><g><path d="M 181.26730008351933,100.0 L 180.71773271110837,110.0 L 183.49816734119963,120.0" fill="none" stroke="black" stroke-linecap="round" stroke-linejoin="round" stroke-width="2" /><path d="M 178.52279913851376,113.73536024597564 L 182.55558535794793,115.64056216407958 L 183.49816734119963,120.0" fill="none" stroke="black" stroke-linecap="round" stroke-linejoin="round" stroke-width="2" /><path d="M 184.5257724177565,112.06627276706374 L 186.1193655380914,116.30609389940345 L 183.49816734119963,120.0" fill="none" stroke="black" stroke-linecap="round" stroke-linejoin="round" stroke-width="2" /><path d="M 181.71977341388714,180.0 L 180.05282652626047,190.0 L 183.03887261927193,200.0" fill="none" stroke="black" stroke-linecap="round" stroke-linejoin="round" stroke-width="2" /><path d="M 177.94548853398652,193.83092887382864 L 180.60159890464354,196.82512513636996 L 183.03887261927193,200.0" fill="none" stroke="black" stroke-linecap="round" stroke-linejoin="round" stroke-width="2" /><path d="M 183.9156985013229,192.04819665908636 L 183.0657355143353,195.9787177137774 L 183.03887261927193,200.0" fill="none" stroke="black" stroke-linecap="round" stroke-linejoin="round" stroke-width="2" /><path d="M 182.35801650725207,285.3246610768326 L 157.28428688176658,290.48519479586963 L 132.63364121708608,297.21113916988503 L 108.35250746165072,305.3042776081076" fill="none" stroke="black" stroke-linecap="round" stroke-linejoin="round" stroke-width="2" /><path d="M 116.99401507334606,297.69860892567374 L 113.2686710683786,302.17794372217185 L 108.35250746165072,305.3042776081076" fill="none" stroke="black" stroke-linecap="round" stroke-linejoin="round" stroke-width="2" /><path d="M 119.82907654830116,306.2043953277886 L 114.01732225814824,306.691081303441 L 108.35250746165072,305.3042776081076" fill="none" stroke="black" stroke-linecap="round" stroke-linejoin="round" stroke-width="2" /><text fill="black" font-family="Virgil, Comic Sans MS, cursive" font-size="14px" text-anchor="middle" x="157.28428688176658" y="280.48519479586963">Yes</text><path d="M 181.66393913011353,285.2434252185799 L 206.39654591284133,291.6661134558203 L 231.41316371490507,297.0379609215179 L 255.9059665206179,304.34792387371374" fill="none" stroke="black" stroke-linecap="round" stroke-linejoin="round" stroke-width="2" /><path d="M 244.47042625136837,305.6104987299943 L 250.16494095819937,304.76857952846547 L 255.9059665206179,304.34792387371374" fill="none" stroke="black" stroke-linecap="round" stroke-linejoin="round" stroke-width="2" /><path d="M 247.03303312665264,297.0242137822645 L 251.06286585503415,301.1787202401926 L 255.9059665206179,304.34792387371374" fill="none" stroke="black" stroke-linecap="round" stroke-linejoin="round" stroke-width="2" /><text fill="black" font-family="Virgil, Comic Sans MS, cursive" font-size="14px" text-anchor="middle" x="206.39654591284133" y="281.6661134558203">No</text><path d="M 108.35335195157054,362.692597779189 L 132.5531082070614,371.0868329672062 L 157.14364166216677,378.03519251664954 L 182.14691978900453,383.45639678068324" fill="none" stroke="black" stroke-linecap="round" stroke-linejoin="round" stroke-width="2" /><path d="M 170.83374690966554,385.59093721198565 L 176.3463331308369,383.7604585123715 L 182.14691978900453,383.45639678068324" fill="none" stroke="black" stroke-linecap="round" stroke-linejoin="round" stroke-width="2" /><path d="M 172.73373076029856,376.8279719481513 L 176.78794088655977,381.0686514692934 L 182.14691978900453,383.45639678068324" fill="none" stroke="black" stroke-linecap="round" stroke-linejoin="round" stroke-width="2" /><path d="M 255.8428237452893,363.4184478575704 L 231.2801174602778,370.46976793636117 L 206.27904850144782,375.8991461220235 L 181.92431311569183,383.71995852805975" fill="none" stroke="black" stroke-linecap="round" stroke-linejoin="round" stroke-width="2" /><path d="M 190.64594540888265,376.2125503368814 L 186.61283123854605,380.34695787444406 L 181.92431311569183,383.71995852805975" fill="none" stroke="black" stroke-linecap="round" stroke-linejoin="round" stroke-width="2" /><path d="M 193.38621784362752,384.74601291956435 L 187.63062765031583,384.5082113404854 L 181.92431311569183,383.71995852805975" fill="none" stroke="black" stroke-linecap="round" stroke-linejoin="round" stroke-width="2" /><path d="M 132.0,41.56282957476218 L 156.9387516328153,39.445789692600236 L 181.87750326563062,37.80455690855856 L 206.81625489844595,39.82041527893745 L 231.75500653126124,40.698745964326925" fill="none" stroke="black" stroke-linecap="round" stroke-linejoin="round" stroke-width="2" /><path d="M 232.61832564090264,40.0 L 231.38456291461006,60.061376786420084 L 230.91135385386468,80.12275357284017 L 230.99328622583783,100.18413035926025" fill="none" stroke="black" stroke-linecap="round" stroke-linejoin="round" stroke-width="2" /><path d="M 231.75500653126124,99.21106752630594 L 206.81625489844595,99.60599851856746 L 181.87750326563062,100.68891470217125 L 156.9387516328153,99.08620904209384 L 132.0,99.07174508501316" fill="none" stroke="black" stroke-linecap="round" stroke-linejoin="round" stroke-width="2" /><path d="M 131.73485403090572,100.18413035926025 L 132.78318647794717,80.12275357284017 L 132.6172564734485,60.061376786420084 L 133.5873401318678,40.0" fill="none" stroke="black" stroke-linecap="round" stroke-linejoin="round" stroke-width="2" /><path d="M 131.82893793175398,40.481071649766996 L 156.7676895645693,40.34818628955284 L 181.7064411973846,37.55734668615973 L 206.6451928301999,39.506226760173256 L 231.58394446301523,38.52134505347641" fill="none" stroke="black" stroke-linecap="round" stroke-linejoin="round" stroke-width="2" /><path d="M 232.40140308263565,40.16504435796646 L 232.91840257135024,60.226421144386535 L 231.30852007891923,80.28779793080662 L 230.7825515532781,100.3491747172267" fill="none" stroke="black" stroke-linecap="round" stroke-linejoin="round" stroke-width="2" /><path d="M 231.58394446301523,99.48618462639372 L 206.6451928301999,98.35685652769446 L 181.7064411973846,98.77826672252299 L 156.7676895645693,101.68778175319613 L 131.82893793175398,100.44668034889997" fill="none" stroke="black" stroke-linecap="round" stroke-linejoin="round" stroke-width="2" /><path d="M 131.03018389411108,100.3491747172267 L 134.1628918126669,80.28779793080662 L 132.30419061972742,60.22642114438654 L 131.83713807267588,40.16504435796646" fill="none" stroke="black" stroke-linecap="round" stroke-linejoin="round" stroke-width="2" /><path d="M 132.00661894630082,39.031749305946704 L 156.94537057911612,39.783688705754294 L 181.88412221193144,39.13841663175229 L 206.82287384474677,40.0185307000306 L 231.76162547756206,38.53171312745597" fill="none" stroke="black" stroke-linecap="round" stroke-linejoin="round" stroke-width="2" /><path d="M 231.47050265950043,39.78138229825262 L 231.62207546948449,59.84275908467271 L 231.02748242657844,79.90413587109279 L 231.88648187892193,99.96551265751287" fill="none" stroke="black" stroke-linecap="round" stroke-linejoin="round" stroke-width="2" /><path d="M 231.76162547756206,100.84342543041367 L 206.82287384474677,98.57819068121357 L 181.88412221193144,100.19116609202122 L 156.94537057911612,99.00287637304709 L 132.00661894630082,101.91991091110337" fill="none" stroke="black" stroke-linecap="round" stroke-linejoin="round" stroke-width="2" /><path d="M 133.09257054317558,99.96551265751287 L 131.38713754008214,79.90413587109279 L 131.92957801835985,59.84275908467271 L 133.52713333923523,39.78138229825262" fill="none" stroke="black" stroke-linecap="round" stroke-linejoin="round" stroke-width="2" /><text dominant-baseline="middle" fill="black" font-family="Virgil, Comic Sans MS, cursive" font-size="16px" text-anchor="middle" x="182.0" y="70.0">Start</text><path d="M 114.0,120.95535619069022 L 136.72456737239224,121.72264423691364 L 159.4491347447845,118.55867686870998 L 182.17370211717673,121.20824043073415 L 204.89826948956897,119.02698276499076 L 227.62283686196125,120.76819678071242 L 250.3474042343535,119.70457077084735" fill="none" stroke="black" stroke-linecap="round" stroke-linejoin="round" stroke-width="2" /><path d="M 250.3764617809936,120.0 L 251.6748811322954,149.93582467616096 L 249.46450191015666,179.87164935232192" fill="none" stroke="black" stroke-linecap="round" stroke-linejoin="round" stroke-width="2" /><path d="M 250.3474042343535,180.68084119867234 L 227.62283686196125,179.18612149777567 L 204.898269489569,179.56548957039388 L 182.17370211717673,179.60834128461136 L 159.4491347447845,179.0117982880237 L 136.72456737239224,179.65396997371056 L 114.0,181.3606680632962" fill="none" stroke="black" stroke-linecap="round" stroke-linejoin="round" stroke-width="2" /><path d="M 113.93314322095199,179.87164935232192 L 112.87469694465541,149.93582467616096 L 114.96700422864025,120.0" fill="none" stroke="black" stroke-linecap="round" stroke-linejoin="round" stroke-width="2" /><path d="M 113.78508661705334,118.61632223429405 L 136.50965398944558,122.03943522235768 L 159.23422136183783,119.66714079202762 L 181.9587887342301,119.4249459142164 L 204.68335610662234,119.05859292283799 L 227.40792347901458,118.46952761865457 L 250.13249085140683,120.28050263520726" fill="none" stroke="black" stroke-linecap="round" stroke-linejoin="round" stroke-width="2" /><path d="M 251.36902045017544,120.16599390624604 L 249.05323551581841,150.101818582407 L 250.15532183312743,180.03764325856795" fill="none" stroke="black" stroke-linecap="round" stroke-linejoin="round" stroke-width="2" /><path d="M 250.13249085140683,181.24652681219595 L 227.40792347901458,181.30049481893113 L 204.68335610662234,179.65542655090053 L 181.9587887342301,180.66915289098293 L 159.23422136183785,178.43675419675813 L 136.50965398944558,180.07919017304036 L 113.78508661705334,179.11080081698094" fill="none" stroke="black" stroke-linecap="round" stroke-linejoin="round" stroke-width="2" /><path d="M 114.72597062305861,180.03764325856795 L 113.37616079976709,150.101818582407 L 114.12289415334884,120.16599390624604" fill="none" stroke="black" stroke-linecap="round" stroke-linejoin="round" stroke-width="2" /><path d="M 113.93622238122049,120.02235455908323 L 136.66078975361273,121.74353838337116 L 159.38535712600498,120.31327805789867 L 182.10992449839722,118.96830126068498 L 204.83449187078946,121.6660431340422 L 227.55905924318174,119.81642097964463 L 250.28362661557398,120.14945230293087" fill="none" stroke="black" stroke-linecap="round" stroke-linejoin="round" stroke-width="2" /><path d="M 248.79172585254943,120.26369430519954 L 250.50493415442372,150.19951898136048 L 250.86082564264618,180.13534365752145" fill="none" stroke="black" stroke-linecap="round" stroke-linejoin="round" stroke-width="2" /><path d="M 250.28362661557398,182.1777416290895 L 227.55905924318174,177.89618967165822 L 204.8344918707895,179.17707611757936 L 182.10992449839722,179.61158421545045 L 159.38535712600498,180.11714651787125 L 136.66078975361273,180.533959387574 L 113.93622238122049,180.07717767630285" fill="none" stroke="black" stroke-linecap="round" stroke-linejoin="round" stroke-width="2" /><path d="M 114.61786764085564,180.13534365752145 L 114.99563302414495,150.19951898136048 L 111.18692154651558,120.26369430519954" fill="none" stroke="black" stroke-linecap="round" stroke-linejoin="round" stroke-width="2" /><text dominant-baseline="middle" fill="black" font-family="Virgil, Comic Sans MS, cursive" font-size="16px" text-anchor="middle" x="182.0" y="150.0">Process Data</text><path d="M 181.3225190528898,201.12913491185034 L 199.21456060828427,210.9757323195262 L 217.3121486372465,220.47975227125585 L 233.7357117122027,232.77381381299554 L 250.77624086311604,244.03959856147327" fill="none" stroke="black" stroke-linecap="round" stroke-linejoin="round" stroke-width="2" /><path d="M 251.7629474159338,241.60491235988968 L 233.42227078303364,250.70378463838938 L 216.61179463376817,262.3529910562803 L 199.59020181400422,273.6503363566737 L 181.27943381030573,282.79905635050955" fill="none" stroke="black" stroke-linecap="round" stroke-linejoin="round" stroke-width="2" /><path d="M 181.36195129967962,285.06341450053395 L 165.57663021331476,271.7056163111421 L 147.60992273711426,261.9834621048096 L 128.05075953010282,254.91540078316197 L 110.90161185774893,243.83064690375178" fill="none" stroke="black" stroke-linecap="round" stroke-linejoin="round" stroke-width="2" /><path d="M 112.74012688057405,243.23354480095676 L 129.29032737422978,231.1505456237163 L 147.12831839284107,221.21386398806845 L 165.54986374682224,212.24977291137043 L 181.73939888798998,199.56566481331663" fill="none" stroke="black" stroke-linecap="round" stroke-linejoin="round" stroke-width="2" /><path d="M 182.29699676759537,199.25746678511612 L 199.59709871264533,210.19094980720712 L 216.32151431447588,222.07235303780686 L 235.0636532650681,230.63139026129411 L 251.48884641818228,243.00549061649727" fill="none" stroke="black" stroke-linecap="round" stroke-linejoin="round" stroke-width="2" /><path d="M 253.15931134082507,243.75498404074798 L 234.55244146104394,252.5367541591845 L 216.66969832006453,262.510865171784 L 199.77388786502317,274.11005110314346 L 182.1821630043807,284.5633503268688" fill="none" stroke="black" stroke-linecap="round" stroke-linejoin="round" stroke-width="2" /><path d="M 181.89518429740377,284.89216296793046 L 164.79973090825982,273.62170738418286 L 146.86402145423634,263.73481024958477 L 128.86628090145177,253.95005299161264 L 112.04796459088715,242.22326586481793" fill="none" stroke="black" stroke-linecap="round" stroke-linejoin="round" stroke-width="2" /><path d="M 111.88843128174516,241.5239493571886 L 129.49513400988772,231.0953125619731 L 146.86571012513375,220.2778717057135 L 164.41319063095958,209.75172010579917 L 183.282065782704,201.4013656270683" fill="none" stroke="black" stroke-linecap="round" stroke-linejoin="round" stroke-width="2" /><path d="M 182.7031465803903,198.70840692790037 L 200.06817751253175,209.44774953692107 L 216.59720698039695,221.57391394726568 L 234.28043478302092,231.7854077713801 L 251.1000225157869,243.42957238442992" fill="none" stroke="black" stroke-linecap="round" stroke-linejoin="round" stroke-width="2" /><path d="M 252.10794751320094,242.4770176069738 L 234.49953841533386,252.81262629851062 L 216.86800636616204,263.10987690773476 L 199.36435280314885,273.6192619211475 L 181.27775985145888,283.1616234452327" fill="none" stroke="black" stroke-linecap="round" stroke-linejoin="round" stroke-width="2" /><path d="M 181.71629414910078,284.6677969463483 L 164.8811559747822,273.0494285696532 L 146.95059730796262,263.248225695093 L 130.04847389113374,251.74097745233288 L 111.4727298034601,243.01005644421826" fill="none" stroke="black" stroke-linecap="round" stroke-linejoin="round" stroke-width="2" /><path d="M 111.2930334946692,240.92641843430405 L 130.22333737018172,232.78366774006963 L 147.4108456178326,221.7498372149371 L 163.9934757957259,209.7125896742511 L 182.75325341696978,201.2869572660204" fill="none" stroke="black" stroke-linecap="round" stroke-linejoin="round" stroke-width="2" /><text dominant-baseline="middle" fill="black" font-family="Virgil, Comic Sans MS, cursive" font-size="16px" text-anchor="middle" x="182.0" y="242.0">Valid?</text><path d="M 40.0,303.49359787005443 L 62.6682560973681,304.56008108821817 L 85.3365121947362,303.33807034646645 L 108.00476829210432,304.3973659491651 L 130.6730243894724,303.96480256227284 L 153.34128048684053,303.0421671771942 L 176.00953658420863,304.2280250334562" fill="none" stroke="black" stroke-linecap="round" stroke-linejoin="round" stroke-width="2" /><path d="M 176.4104065796926,304.0 L 177.1177915122405,324.0605269966168 L 176.259531240879,344.1210539932336 L 175.42281371772782,364.1815809898504" fill="none" stroke="black" stroke-linecap="round" stroke-linejoin="round" stroke-width="2" /><path d="M 176.00953658420863,363.92350988641954 L 153.34128048684053,364.52143528190726 L 130.67302438947243,363.4769277187008 L 108.00476829210432,364.683433557091 L 85.33651219473622,362.74800882112726 L 62.6682560973681,365.89174169502553 L 40.0,363.98368962776675" fill="none" stroke="black" stroke-linecap="round" stroke-linejoin="round" stroke-width="2" /><path d="M 38.373177376853604,364.1815809898504 L 39.306303946712255,344.1210539932336 L 40.126674281616424,324.0605269966168 L 39.237876036270414,304.0" fill="none" stroke="black" stroke-linecap="round" stroke-linejoin="round" stroke-width="2" /><path d="M 39.789322989754474,303.8641014345199 L 62.45757908712258,303.6527065409273 L 85.12583518449068,306.105258130184 L 107.79409128185878,305.55183259169996 L 130.46234737922688,304.3432587575413 L 153.130603476595,304.28634016619253 L 175.7988595739631,303.7867093848394" fill="none" stroke="black" stroke-linecap="round" stroke-linejoin="round" stroke-width="2" /><path d="M 176.39628241409588,303.9418808763429 L 175.75300458185808,324.0024078729597 L 175.67082924232304,344.0629348695765 L 174.84984836291457,364.1234618661933" fill="none" stroke="black" stroke-linecap="round" stroke-linejoin="round" stroke-width="2" /><path d="M 175.7988595739631,363.36333755422874 L 153.130603476595,363.9121415942823 L 130.4623473792269,364.8868762507879 L 107.7940912818588,364.1349678751001 L 85.1258351844907,365.40775041825276 L 62.45757908712258,364.3109481294556 L 39.78932298975448,363.94273408374" fill="none" stroke="black" stroke-linecap="round" stroke-linejoin="round" stroke-width="2" /><path d="M 39.135395341207634,364.1234618661933 L 40.803215066993246,344.0629348695765 L 38.965995617880566,324.0024078729597 L 40.24993957723085,303.9418808763429" fill="none" stroke="black" stroke-linecap="round" stroke-linejoin="round" stroke-width="2" /><path d="M 39.96512971648503,305.47613942795715 L 62.63338581385314,304.9196128969885 L 85.30164191122124,303.5069839502039 L 107.96989800858935,302.6199485597054 L 130.63815410595745,303.56940906166403 L 153.30641020332556,302.6378837109776 L 175.97466630069366,305.3465707061753" fill="none" stroke="black" stroke-linecap="round" stroke-linejoin="round" stroke-width="2" /><path d="M 176.77566263019366,304.1220409843117 L 176.9429352479206,324.18256798092847 L 175.67372445361954,344.2430949775453 L 175.25091655818207,364.30362197416207" fill="none" stroke="black" stroke-linecap="round" stroke-linejoin="round" stroke-width="2" /><path d="M 175.97466630069366,364.06791229538396 L 153.30641020332556,362.23942319693407 L 130.63815410595745,365.6646211270334 L 107.96989800858934,363.6678709069602 L 85.30164191122124,365.4840702372826 L 62.633385813853124,365.1242736204961 L 39.96512971648502,363.33870957115903" fill="none" stroke="black" stroke-linecap="round" stroke-linejoin="round" stroke-width="2" /><path d="M 39.53840917881741,364.30362197416207 L 40.637690695647244,344.2430949775453 L 40.03736481353006,324.18256798092847 L 40.79776599007465,304.1220409843117" fill="none" stroke="black" stroke-linecap="round" stroke-linejoin="round" stroke-width="2" /><text dominant-baseline="middle" fill="black" font-family="Virgil, Comic Sans MS, cursive" font-size="16px" text-anchor="middle" x="108.0" y="334.0">Save Results</text><path d="M 196.0,303.7642469141173 L 219.99849223070467,304.61111300700196 L 243.99698446140934,302.8647182558127 L 267.995476692114,303.31285952004373 L 291.9939689228187,306.8656599621469 L 315.9924611535233,304.2280278513088" fill="none" stroke="black" stroke-linecap="round" stroke-linejoin="round" stroke-width="2" /><path d="M 313.39157182745646,304.0 L 315.9274561114416,324.0950646793983 L 315.80731676278765,344.19012935879664 L 314.9284278355784,364.28519403819496" fill="none" stroke="black" stroke-linecap="round" stroke-linejoin="round" stroke-width="2" /><path d="M 315.9924611535233,364.2592210455463 L 291.9939689228187,364.41100104295737 L 267.995476692114,366.064368973492 L 243.99698446140934,363.9511729254413 L 219.99849223070464,365.76642327597426 L 196.0,364.66146211555326" fill="none" stroke="black" stroke-linecap="round" stroke-linejoin="round" stroke-width="2" /><path d="M 197.46803260008485,364.28519403819496 L 195.3268286334567,344.19012935879664 L 196.32033832516615,324.0950646793983 L 195.42277231573925,304.0" fill="none" stroke="black" stroke-linecap="round" stroke-linejoin="round" stroke-width="2" /><path d="M 196.0706441711195,301.7042288777432 L 220.06913640182418,303.76103270005945 L 244.06762863252885,304.30972878115136 L 268.0661208632335,305.5511997064729 L 292.0646130939382,305.4266830358912 L 316.06310532464283,305.24465834353197" fill="none" stroke="black" stroke-linecap="round" stroke-linejoin="round" stroke-width="2" /><path d="M 314.3501220528021,303.91329614329004 L 317.34021673747526,324.00836082268836 L 316.73383266170805,344.1034255020867 L 315.56950173887344,364.198490181485" fill="none" stroke="black" stroke-linecap="round" stroke-linejoin="round" stroke-width="2" /><path d="M 316.06310532464283,364.1085589886638 L 292.0646130939382,364.3735797181763 L 268.0661208632335,365.73648851164796 L 244.06762863252885,363.2358847112227 L 220.06913640182415,364.7755988778991 L 196.0706441711195,364.67979069997597" fill="none" stroke="black" stroke-linecap="round" stroke-linejoin="round" stroke-width="2" /><path d="M 195.26666819839497,364.198490181485 L 195.43967180320905,344.1034255020867 L 195.61285458050497,324.00836082268836 L 195.27995289739775,303.91329614329004" fill="none" stroke="black" stroke-linecap="round" stroke-linejoin="round" stroke-width="2" /><path d="M 196.11632507919728,302.932797385352 L 220.11481730990195,303.882022507268 L 244.11330954060662,305.8153143241932 L 268.11180177131126,304.395489586079 L 292.11029400201596,304.33744435360387 L 316.1087862327206,303.1592289527852" fill="none" stroke="black" stroke-linecap="round" stroke-linejoin="round" stroke-width="2" /><path d="M 316.8190938149922,304.0915790117069 L 315.69216313034156,324.18664369110525 L 315.81650976351773,344.28170837050357 L 316.9903622776817,364.3767730499019" fill="none" stroke="black" stroke-linecap="round" stroke-linejoin="round" stroke-width="2" /><path d="M 316.1087862327206,365.38549716254823 L 292.11029400201596,364.54294978442425 L 268.11180177131126,364.226488427797 L 244.11330954060662,363.59447010512076 L 220.11481730990192,362.34817929329716 L 196.11632507919728,364.60631844254084" fill="none" stroke="black" stroke-linecap="round" stroke-linejoin="round" stroke-width="2" /><path d="M 195.2917393555183,364.3767730499019 L 196.5102453586791,344.28170837050357 L 195.15266510998057,324.18664369110525 L 195.54109666846813,304.0915790117069" fill="none" stroke="black" stroke-linecap="round" stroke-linejoin="round" stroke-width="2" /><text dominant-baseline="middle" fill="black" font-family="Virgil, Comic Sans MS, cursive" font-size="16px" text-anchor="middle" x="256.0" y="334.0">Show Error</text><path d="M 132.0,385.5970651493311 L 156.93328317954044,383.83021005739124 L 181.86656635908088,385.08718955220786 L 206.7998495386213,384.35990583662556 L 231.73313271816173,385.45144721156504" fill="none" stroke="black" stroke-linecap="round" stroke-linejoin="round" stroke-width="2" /><path d="M 234.28529336388223,384.0 L 232.146472814421,413.98670157775695 L 231.4869451668287,443.9734031555139" fill="none" stroke="black" stroke-linecap="round" stroke-linejoin="round" stroke-width="2" /><path d="M 231.73313271816173,444.53035449015766 L 206.7998495386213,445.51149659144494 L 181.86656635908088,443.5868148846313 L 156.93328317954044,443.47359672632285 L 132.0,443.5769654041747" fill="none" stroke="black" stroke-linecap="round" stroke-linejoin="round" stroke-width="2" /><path d="M 132.15941884158198,443.9734031555139 L 133.94277667708374,413.98670157775695 L 132.2087500169161,384.0" fill="none" stroke="black" stroke-linecap="round" stroke-linejoin="round" stroke-width="2" /><path d="M 131.9461811570791,383.70106043057064 L 156.87946433661955,382.35073664284585 L 181.81274751615996,384.0535910668 L 206.7460306957004,384.6437806963315 L 231.67931387524084,383.3688305421661" fill="none" stroke="black" stroke-linecap="round" stroke-linejoin="round" stroke-width="2" /><path d="M 230.2152130937963,383.75808340659165 L 233.33267981462788,413.7447849843486 L 231.61446911247637,443.73148656210554" fill="none" stroke="black" stroke-linecap="round" stroke-linejoin="round" stroke-width="2" /><path d="M 231.67931387524084,442.28352339794736 L 206.7460306957004,444.13392724850763 L 181.81274751615996,444.90946452625025 L 156.87946433661955,442.8193679317549 L 131.9461811570791,443.1093458069665" fill="none" stroke="black" stroke-linecap="round" stroke-linejoin="round" stroke-width="2" /><path d="M 131.59818061920086,443.73148656210554 L 132.34507910039906,413.7447849843486 L 130.63874082811535,383.75808340659165" fill="none" stroke="black" stroke-linecap="round" stroke-linejoin="round" stroke-width="2" /><path d="M 132.09371302634196,385.2159606744482 L 157.0269962058824,383.3259719031584 L 181.96027938542284,383.5206802786024 L 206.89356256496325,384.82076260336765 L 231.8268457445037,385.8250288424892" fill="none" stroke="black" stroke-linecap="round" stroke-linejoin="round" stroke-width="2" /><path d="M 232.70128302640023,384.1548858170834 L 231.4533755797496,414.14158739484037 L 233.21953852175014,444.1282889725973" fill="none" stroke="black" stroke-linecap="round" stroke-linejoin="round" stroke-width="2" /><path d="M 231.8268457445037,445.36636878549035 L 206.89356256496325,444.7707609459888 L 181.96027938542284,445.0410741405722 L 157.0269962058824,441.3716463818475 L 132.09371302634196,444.4749233617187" fill="none" stroke="black" stroke-linecap="round" stroke-linejoin="round" stroke-width="2" /><path d="M 131.41114462027284,444.1282889725973 L 132.00483362451973,414.14158739484037 L 129.43843824754404,384.1548858170834" fill="none" stroke="black" stroke-linecap="round" stroke-linejoin="round" stroke-width="2" /><text dominant-baseline="middle" fill="black" font-family="Virgil, Comic Sans MS, cursive" font-size="16px" text-anchor="middle" x="182.0" y="414.0">End</text></g></svg>