<?xml version="1.0" encoding="utf-8" ?>
<svg baseProfile="full" height="620.0px" version="1.1" viewBox="0 0 444.0 620.0" width="444.0px" xmlns="http://www.w3.org/2000/svg" xmlns:ev="http://www.w3.org/2001/xml-events" xmlns:xlink="http://www.w3.org/1999/xlink"><defs /><rect fill="white" height="620.0" width="444.0" x="0" y="0" /><g><path d="M 221.44042382484088,100.0 L 221.63489553011058,110.0 L 221.35114869300327,120.0" fill="none" stroke="black" stroke-linecap="round" stroke-linejoin="round" stroke-width="2" /><path d="M 218.44604971483116,112.54611511176734 L 218.4166486556755,116.85063731301075 L 221.35114869300327,120.0" fill="none" stroke="black" stroke-linecap="round" stroke-linejoin="round" stroke-width="2" /><path d="M 224.67423646903077,112.72283794100912 L 221.91985832576555,115.86238045447158 L 221.35114869300327,120.0" fill="none" stroke="black" stroke-linecap="round" stroke-linejoin="round" stroke-width="2" /><path d="M 222.0902788444799,180.0 L 223.87192400157585,190.0 L 222.5652427550786,200.0" fill="none" stroke="black" stroke-linecap="round" stroke-linejoin="round" stroke-width="2" /><path d="M 220.43086673485425,192.28997801531725 L 222.14571924383418,195.96569515113265 L 222.5652427550786,200.0" fill="none" stroke="black" stroke-linecap="round" stroke-linejoin="round" stroke-width="2" /><path d="M 226.6090398932,193.09726831567957 L 224.31739820606873,196.390611725741 L 222.5652427550786,200.0" fill="none" stroke="black" stroke-linecap="round" stroke-linejoin="round" stroke-width="2" /><path d="M 223.07127793269044,260.0 L 221.97840308892395,270.0 L 221.4653339426373,280.0" fill="none" stroke="black" stroke-linecap="round" stroke-linejoin="round" stroke-width="2" /><path d="M 218.73163731247908,272.4815624805242 L 220.38556935826242,276.1363978726852 L 221.4653339426373,280.0" fill="none" stroke="black" stroke-linecap="round" stroke-linejoin="round" stroke-width="2" /><path d="M 224.9541461077298,272.8008202080582 L 223.7276989061412,276.6514194269141 L 221.4653339426373,280.0" fill="none" stroke="black" stroke-linecap="round" stroke-linejoin="round" stroke-width="2" /><path d="M 221.12344558563032,340.0 L 221.2345709298644,350.0 L 222.05495909610153,360.0" fill="none" stroke="black" stroke-linecap="round" stroke-linejoin="round" stroke-width="2" /><path d="M 218.34756546464996,352.91090750085226 L 218.04330175778847,357.5840056912177 L 222.05495909610153,360.0" fill="none" stroke="black" stroke-linecap="round" stroke-linejoin="round" stroke-width="2" /><path d="M 224.557396762092,352.4014602897772 L 225.3096767214147,356.8605451926297 L 222.05495909610153,360.0" fill="none" stroke="black" stroke-linecap="round" stroke-linejoin="round" stroke-width="2" /><path d="M 222.59102840625152,420.0 L 222.037311961386,430.0 L 222.82985756495373,440.0" fill="none" stroke="black" stroke-linecap="round" stroke-linejoin="round" stroke-width="2" /><path d="M 219.14208838807167,432.9006790114801 L 220.042155067335,436.9406092934681 L 222.82985756495373,440.0" fill="none" stroke="black" stroke-linecap="round" stroke-linejoin="round" stroke-width="2" /><path d="M 225.35330518926187,432.4084117546212 L 224.66830792222,436.39591006134947 L 222.82985756495373,440.0" fill="none" stroke="black" stroke-linecap="round" stroke-linejoin="round" stroke-width="2" /><path d="M 146.9261301541257,470.9261301541257 L 128.76060575518326,486.0939390885166 L 113.48384164936263,504.1505083160293 L 94.76979575023243,518.7697957502324" fill="none" stroke="black" stroke-linecap="round" stroke-linejoin="round" stroke-width="2" /><path d="M 99.9515512839626,509.45426990082956 L 98.13038517379273,514.5401844619428 L 94.76979575023243,518.7697957502324" fill="none" stroke="black" stroke-linecap="round" stroke-linejoin="round" stroke-width="2" /><path d="M 105.06250880478014,515.9967702835302 L 99.24512398828007,514.892609304929 L 94.76979575023243,518.7697957502324" fill="none" stroke="black" stroke-linecap="round" stroke-linejoin="round" stroke-width="2" /><path d="M 222.714620779815,500.0 L 222.9055995083875,510.0 L 222.4075019774113,520.0" fill="none" stroke="black" stroke-linecap="round" stroke-linejoin="round" stroke-width="2" /><path d="M 219.66258078566054,512.48565321195 L 222.15933896236265,515.8321311267148 L 222.4075019774113,520.0" fill="none" stroke="black" stroke-linecap="round" stroke-linejoin="round" stroke-width="2" /><path d="M 225.88555940402827,512.7956182404627 L 225.5387372412335,517.0699242987461 L 222.4075019774113,520.0" fill="none" stroke="black" stroke-linecap="round" stroke-linejoin="round" stroke-width="2" /><path d="M 298.75581595226686,469.24418404773314 L 313.9404587527615,487.39287458057186 L 329.9311717178782,504.7354949487884 L 349.0487538671698,518.9512461328302" fill="none" stroke="black" stroke-linecap="round" stroke-linejoin="round" stroke-width="2" /><path d="M 338.6913065426168,516.4233042800308 L 343.67409032357654,518.4900772951219 L 349.0487538671698,518.9512461328302" fill="none" stroke="black" stroke-linecap="round" stroke-linejoin="round" stroke-width="2" /><path d="M 343.6460853099893,509.76003415870633 L 346.86826757365407,514.049481497708 L 349.0487538671698,518.9512461328302" fill="none" stroke="black" stroke-linecap="round" stroke-linejoin="round" stroke-width="2" /><path d="M 170.0,39.47534387717353 L 190.7502709205055,40.30966362521573 L 211.50054184101097,40.2707126477496 L 232.25081276151647,40.922771562850215 L 253.00108368202194,37.958805339277056 L 273.75135460252744,38.336172206514966" fill="none" stroke="black" stroke-linecap="round" stroke-linejoin="round" stroke-width="2" /><path d="M 272.83971467728173,40.0 L 273.35864502511265,60.04698764591107 L 273.6897712827329,80.09397529182213 L 275.6202579066731,100.1409629377332" fill="none" stroke="black" stroke-linecap="round" stroke-linejoin="round" stroke-width="2" /><path d="M 273.75135460252744,98.12766043528205 L 253.00108368202194,100.47281038793251 L 232.25081276151647,99.10274454962281 L 211.50054184101097,99.35540812811259 L 190.7502709205055,100.42523958219502 L 170.0,99.3505458829996" fill="none" stroke="black" stroke-linecap="round" stroke-linejoin="round" stroke-width="2" /><path d="M 169.11982766785266,100.1409629377332 L 170.06607961954484,80.09397529182215 L 169.09877492996506,60.046987645911074 L 170.20334710333393,40.0" fill="none" stroke="black" stroke-linecap="round" stroke-linejoin="round" stroke-width="2" /><path d="M 170.06339797697356,41.44435662977529 L 190.81366889747906,40.86624984760224 L 211.56393981798456,39.51469565493611 L 232.31421073849003,38.90522182629392 L 253.06448165899553,39.66933092342502 L 273.81475257950103,39.842981639765824" fill="none" stroke="black" stroke-linecap="round" stroke-linejoin="round" stroke-width="2" /><path d="M 273.9863888824542,40.167075956201344 L 275.3465038343328,60.21406360211241 L 272.71148408604097,80.26105124802348 L 274.1475871484538,100.30803889393455" fill="none" stroke="black" stroke-linecap="round" stroke-linejoin="round" stroke-width="2" /><path d="M 273.81475257950103,98.4645092944929 L 253.06448165899553,98.12625887433639 L 232.31421073849003,99.70846620744277 L 211.56393981798456,101.69136364391261 L 190.81366889747903,101.83632744992771 L 170.06339797697356,99.77953793686132" fill="none" stroke="black" stroke-linecap="round" stroke-linejoin="round" stroke-width="2" /><path d="M 169.93940104140026,100.30803889393455 L 172.38431765964853,80.26105124802348 L 170.86545163407757,60.21406360211242 L 170.21418074202748,40.167075956201344" fill="none" stroke="black" stroke-linecap="round" stroke-linejoin="round" stroke-width="2" /><path d="M 170.04435123054742,39.67772864557485 L 190.79462215105292,40.01870514313591 L 211.5448930715584,38.66503849700137 L 232.2951639920639,40.41947970427874 L 253.04543491256936,40.3369263494566 L 273.79570583307486,40.918590153973554" fill="none" stroke="black" stroke-linecap="round" stroke-linejoin="round" stroke-width="2" /><path d="M 273.2266637255546,40.10727802023745 L 272.390251363063,60.15426566614852 L 273.37813642551083,80.20125331205958 L 274.63147196469487,100.24824095797065" fill="none" stroke="black" stroke-linecap="round" stroke-linejoin="round" stroke-width="2" /><path d="M 273.79570583307486,100.28281256028421 L 253.04543491256936,99.43615337962706 L 232.2951639920639,101.4119165856844 L 211.5448930715584,100.93728234672639 L 190.79462215105292,102.00221595670924 L 170.04435123054742,100.70401749000786" fill="none" stroke="black" stroke-linecap="round" stroke-linejoin="round" stroke-width="2" /><path d="M 170.5056062307327,100.24824095797065 L 169.46816960125884,80.20125331205958 L 170.53707594141335,60.15426566614852 L 170.66638117353216,40.10727802023745" fill="none" stroke="black" stroke-linecap="round" stroke-linejoin="round" stroke-width="2" /><text dominant-baseline="middle" fill="black" font-family="Virgil, Comic Sans MS, cursive" font-size="16px" text-anchor="middle" x="222.0" y="70.0">Raw Data</text><path d="M 172.0,120.56713110424285 L 192.00300622719396,119.94125319193282 L 212.0060124543879,120.35853763573326 L 232.00901868158186,119.25269035877479 L 252.0120249087758,121.30562918577257 L 272.01503113596976,121.02451710413227" fill="none" stroke="black" stroke-linecap="round" stroke-linejoin="round" stroke-width="2" /><path d="M 274.72052418539323,120.0 L 269.5426455215116,149.96948492396461 L 272.03186177093465,179.9389698479292" fill="none" stroke="black" stroke-linecap="round" stroke-linejoin="round" stroke-width="2" /><path d="M 272.01503113596976,179.03758681323123 L 252.0120249087758,180.0161565508488 L 232.00901868158186,180.00215841010362 L 212.0060124543879,178.55715091874117 L 192.00300622719396,178.26805051470632 L 172.0,178.51078490663966" fill="none" stroke="black" stroke-linecap="round" stroke-linejoin="round" stroke-width="2" /><path d="M 171.44149373443443,179.9389698479292 L 170.67804022648593,149.96948492396461 L 171.94588804917498,120.0" fill="none" stroke="black" stroke-linecap="round" stroke-linejoin="round" stroke-width="2" /><path d="M 171.88605167844185,122.76729835504314 L 191.8890579056358,119.76826277450358 L 211.89206413282974,121.29940578446632 L 231.8950703600237,120.08923242854434 L 251.89807658721764,119.13213272643353 L 271.9010828144116,121.23174520208227" fill="none" stroke="black" stroke-linecap="round" stroke-linejoin="round" stroke-width="2" /><path d="M 270.49554937172377,120.28308015281372 L 273.5810373878059,150.25256507677832 L 271.48302088911356,180.2220500007429" fill="none" stroke="black" stroke-linecap="round" stroke-linejoin="round" stroke-width="2" /><path d="M 271.9010828144116,180.55270158278088 L 251.89807658721764,182.28412040212203 L 231.8950703600237,180.56608577115264 L 211.89206413282974,182.28880612946733 L 191.8890579056358,179.0316997973046 L 171.88605167844185,180.69554144265334" fill="none" stroke="black" stroke-linecap="round" stroke-linejoin="round" stroke-width="2" /><path d="M 173.41702017985477,180.2220500007429 L 170.70108638137978,150.25256507677832 L 172.3847113614458,120.28308015281372" fill="none" stroke="black" stroke-linecap="round" stroke-linejoin="round" stroke-width="2" /><path d="M 171.96370272380898,121.0964091294988 L 191.96670895100294,120.93073558303635 L 211.96971517819688,120.1866798064155 L 231.97272140539084,119.80806796615195 L 251.97572763258478,121.1252410577964 L 271.97873385977874,119.48430959364968" fill="none" stroke="black" stroke-linecap="round" stroke-linejoin="round" stroke-width="2" /><path d="M 271.1061158455962,119.89330400022979 L 273.413828421209,149.86278892419438 L 271.6725330850769,179.832273848159" fill="none" stroke="black" stroke-linecap="round" stroke-linejoin="round" stroke-width="2" /><path d="M 271.97873385977874,179.9967965799783 L 251.97572763258478,180.4551746691064 L 231.97272140539084,179.28016705147246 L 211.96971517819688,180.54335320598767 L 191.96670895100294,182.00172328521356 L 171.96370272380898,178.89215729265996" fill="none" stroke="black" stroke-linecap="round" stroke-linejoin="round" stroke-width="2" /><path d="M 170.18365520642945,179.832273848159 L 173.6715073673451,149.86278892419438 L 173.46211578473643,119.89330400022979" fill="none" stroke="black" stroke-linecap="round" stroke-linejoin="round" stroke-width="2" /><text dominant-baseline="middle" fill="black" font-family="Virgil, Comic Sans MS, cursive" font-size="16px" text-anchor="middle" x="222.0" y="150.0">Extract</text><path d="M 166.0,200.11179663495778 L 188.52004665771793,198.73159330250212 L 211.04009331543585,201.19226338293382 L 233.5601399731538,199.4203159003853 L 256.0801866308717,199.65161244680206 L 278.60023328858966,199.2958733235853" fill="none" stroke="black" stroke-linecap="round" stroke-linejoin="round" stroke-width="2" /><path d="M 277.8493292813712,200.0 L 277.615213302197,229.65248622478072 L 278.56488948389625,259.30497244956143" fill="none" stroke="black" stroke-linecap="round" stroke-linejoin="round" stroke-width="2" /><path d="M 278.60023328858966,257.98885029858843 L 256.0801866308717,259.19068267734116 L 233.5601399731538,258.9028412715143 L 211.04009331543585,258.1981697153272 L 188.52004665771793,259.3282621334419 L 166.0,261.3717016716821" fill="none" stroke="black" stroke-linecap="round" stroke-linejoin="round" stroke-width="2" /><path d="M 167.60131483244606,259.30497244956143 L 165.88348451421024,229.65248622478072 L 164.77769697626496,200.0" fill="none" stroke="black" stroke-linecap="round" stroke-linejoin="round" stroke-width="2" /><path d="M 166.00542288238378,198.11818751378306 L 188.5254695401017,200.29380008352365 L 211.04551619781964,198.1661718936856 L 233.56556285553756,200.0536069733383 L 256.08560951325546,199.33644551720784 L 278.6056561709734,200.21100059961088" fill="none" stroke="black" stroke-linecap="round" stroke-linejoin="round" stroke-width="2" /><path d="M 278.36251131073476,199.9581598269946 L 278.65802568754987,229.6106460517753 L 278.2483816084512,259.263132276556" fill="none" stroke="black" stroke-linecap="round" stroke-linejoin="round" stroke-width="2" /><path d="M 278.6056561709734,258.7009454492031 L 256.08560951325546,257.6254446744295 L 233.56556285553756,259.1026069454428 L 211.04551619781964,256.6151917713935 L 188.5254695401017,259.0366945357045 L 166.00542288238378,258.44439481544964" fill="none" stroke="black" stroke-linecap="round" stroke-linejoin="round" stroke-width="2" /><path d="M 167.06235485054768,259.263132276556 L 166.11556644096729,229.6106460517753 L 166.07885677010339,199.9581598269946" fill="none" stroke="black" stroke-linecap="round" stroke-linejoin="round" stroke-width="2" /><path d="M 166.106216408876,200.55617908353315 L 188.62626306659394,197.63694791029326 L 211.1463097243119,200.37897830182206 L 233.66635638202982,199.04204106575932 L 256.1864030397478,199.07932579859929 L 278.7064496974657,201.91609849998193" fill="none" stroke="black" stroke-linecap="round" stroke-linejoin="round" stroke-width="2" /><path d="M 279.78448661413654,199.85738935677793 L 278.1731419613168,229.50987558155862 L 279.15563550083453,259.16236180633933" fill="none" stroke="black" stroke-linecap="round" stroke-linejoin="round" stroke-width="2" /><path d="M 278.7064496974657,259.7290816795477 L 256.18640303974774,259.95737817388215 L 233.66635638202982,258.5814397719457 L 211.1463097243119,259.0237431906314 L 188.62626306659394,259.4154390099137 L 166.106216408876,259.36437240427364" fill="none" stroke="black" stroke-linecap="round" stroke-linejoin="round" stroke-width="2" /><path d="M 168.0530041630079,259.16236180633933 L 167.0808403884302,229.50987558155862 L 166.7749530307533,199.85738935677793" fill="none" stroke="black" stroke-linecap="round" stroke-linejoin="round" stroke-width="2" /><text dominant-baseline="middle" fill="black" font-family="Virgil, Comic Sans MS, cursive" font-size="16px" text-anchor="middle" x="222.0" y="230.0">Transform</text><path d="M 170.0,281.9768558766533 L 190.78197307385102,281.08942153937426 L 211.563946147702,280.97942755221123 L 232.34591922155303,279.7525814662373 L 253.12789229540402,277.03041654160614 L 273.90986536925504,278.7653103757791" fill="none" stroke="black" stroke-linecap="round" stroke-linejoin="round" stroke-width="2" /><path d="M 272.95060100034993,280.0 L 273.0697681371269,309.9161839918777 L 274.4324409263177,339.8323679837554" fill="none" stroke="black" stroke-linecap="round" stroke-linejoin="round" stroke-width="2" /><path d="M 273.90986536925504,338.3227608188288 L 253.12789229540402,339.2818061918055 L 232.34591922155303,340.80660129340316 L 211.563946147702,339.67698951508737 L 190.78197307385102,340.04427611574056 L 170.0,338.78534453991284" fill="none" stroke="black" stroke-linecap="round" stroke-linejoin="round" stroke-width="2" /><path d="M 170.1819419269518,339.8323679837554 L 169.94340992538042,309.9161839918777 L 169.45065403627387,280.0" fill="none" stroke="black" stroke-linecap="round" stroke-linejoin="round" stroke-width="2" /><path d="M 170.17651072500553,280.2939877541497 L 190.95848379885655,281.4683542330423 L 211.74045687270754,280.0301132658385 L 232.52242994655856,280.31047627593404 L 253.30440302040955,278.52639796687174 L 274.0863760942606,278.44334392413674" fill="none" stroke="black" stroke-linecap="round" stroke-linejoin="round" stroke-width="2" /><path d="M 272.54460193212094,280.0682827563959 L 274.8774487013137,309.9844667482736 L 274.29733789600624,339.90065074015126" fill="none" stroke="black" stroke-linecap="round" stroke-linejoin="round" stroke-width="2" /><path d="M 274.0863760942606,339.97706434907644 L 253.30440302040955,340.2097852529299 L 232.52242994655856,339.99330939193464 L 211.74045687270754,339.8608168598937 L 190.95848379885655,340.2232834112112 L 170.17651072500553,340.41262215785423" fill="none" stroke="black" stroke-linecap="round" stroke-linejoin="round" stroke-width="2" /><path d="M 169.73266755812165,339.90065074015126 L 170.94357737199522,309.9844667482736 L 172.27729643394508,280.0682827563959" fill="none" stroke="black" stroke-linecap="round" stroke-linejoin="round" stroke-width="2" /><path d="M 170.00856265981756,280.8548728780356 L 190.79053573366858,280.1384546617919 L 211.5725088075196,280.8857484317359 L 232.3544818813706,281.1833910290014 L 253.1364549552216,279.76366260433014 L 273.91842802907263,278.96362261568424" fill="none" stroke="black" stroke-linecap="round" stroke-linejoin="round" stroke-width="2" /><path d="M 273.8979271854613,280.1324625976902 L 272.69007241258686,310.0486465895679 L 276.02904871240924,339.9648305814456" fill="none" stroke="black" stroke-linecap="round" stroke-linejoin="round" stroke-width="2" /><path d="M 273.91842802907263,340.79681930594705 L 253.1364549552216,340.52783689148083 L 232.3544818813706,340.5866929266043 L 211.5725088075196,339.19901897919095 L 190.79053573366855,341.6499129803194 L 170.00856265981756,338.26634968783225" fill="none" stroke="black" stroke-linecap="round" stroke-linejoin="round" stroke-width="2" /><path d="M 171.43321719732967,339.9648305814456 L 169.8627126095,310.0486465895679 L 168.90123782329061,280.1324625976902" fill="none" stroke="black" stroke-linecap="round" stroke-linejoin="round" stroke-width="2" /><text dominant-baseline="middle" fill="black" font-family="Virgil, Comic Sans MS, cursive" font-size="16px" text-anchor="middle" x="222.0" y="310.0">Validate</text><path d="M 172.0,361.15970409465916 L 196.90030320526546,360.2643313402629 L 221.80060641053095,361.01482893015225 L 246.70090961579643,358.9763329007793 L 271.6012128210619,362.33842412157213" fill="none" stroke="black" stroke-linecap="round" stroke-linejoin="round" stroke-width="2" /><path d="M 269.9182774439334,360.0 L 272.0624884089973,380.04672357695364 L 271.8375677973851,400.0934471539072 L 271.500132938336,420.14017073086086" fill="none" stroke="black" stroke-linecap="round" stroke-linejoin="round" stroke-width="2" /><path d="M 271.6012128210619,417.5093282167986 L 246.70090961579643,420.1708598484936 L 221.80060641053095,420.6933923404547 L 196.90030320526546,418.3532882784054 L 172.0,419.55565886734587" fill="none" stroke="black" stroke-linecap="round" stroke-linejoin="round" stroke-width="2" /><path d="M 170.82939341051676,420.14017073086086 L 173.62601124343638,400.0934471539072 L 171.86336072129805,380.04672357695364 L 170.64994730068207,360.0" fill="none" stroke="black" stroke-linecap="round" stroke-linejoin="round" stroke-width="2" /><path d="M 171.82241887889788,359.21115486443745 L 196.72272208416334,359.47780787309387 L 221.62302528942882,359.48738951681787 L 246.52332849469428,360.58666045090473 L 271.42363169995974,360.30191313964997" fill="none" stroke="black" stroke-linecap="round" stroke-linejoin="round" stroke-width="2" /><path d="M 271.84723996316944,359.7096319878407 L 273.22940434392746,379.7563555647943 L 271.2481016165794,399.8030791417479 L 270.9149105044985,419.84980271870154" fill="none" stroke="black" stroke-linecap="round" stroke-linejoin="round" stroke-width="2" /><path d="M 271.42363169995974,419.7179534224848 L 246.52332849469428,419.44332993681127 L 221.62302528942882,421.0032659578906 L 196.72272208416334,420.7318456502462 L 171.82241887889788,418.6658858281464" fill="none" stroke="black" stroke-linecap="round" stroke-linejoin="round" stroke-width="2" /><path d="M 173.13370837985707,419.84980271870154 L 172.74298292351517,399.8030791417479 L 169.46482113996908,379.7563555647943 L 171.06706448874965,359.7096319878407" fill="none" stroke="black" stroke-linecap="round" stroke-linejoin="round" stroke-width="2" /><path d="M 171.98147415959045,360.61527290869503 L 196.8817773648559,361.88892841721207 L 221.7820805701214,360.8056070588402 L 246.68238377538688,362.1282363546349 L 271.58268698065234,360.9895143838499" fill="none" stroke="black" stroke-linecap="round" stroke-linejoin="round" stroke-width="2" /><path d="M 272.86558461901143,359.8644030534068 L 270.14272172785365,379.91112663036046 L 270.9981126679914,399.95785020731404 L 272.9864892679164,420.0045737842677" fill="none" stroke="black" stroke-linecap="round" stroke-linejoin="round" stroke-width="2" /><path d="M 271.58268698065234,420.61622102158526 L 246.68238377538688,419.2724451307553 L 221.7820805701214,420.5908825758049 L 196.8817773648559,420.1956166530483 L 171.98147415959045,421.35283609279224" fill="none" stroke="black" stroke-linecap="round" stroke-linejoin="round" stroke-width="2" /><path d="M 171.23274080758532,420.0045737842677 L 171.45267434921135,399.95785020731404 L 173.30937494745586,379.91112663036046 L 171.59648920878297,359.8644030534068" fill="none" stroke="black" stroke-linecap="round" stroke-linejoin="round" stroke-width="2" /><text dominant-baseline="middle" fill="black" font-family="Virgil, Comic Sans MS, cursive" font-size="16px" text-anchor="middle" x="222.0" y="390.0">Load</text><path d="M 146.0,440.73439295436674 L 167.74182799220898,439.22276728014646 L 189.48365598441796,439.6351727751103 L 211.22548397662695,439.03571845755283 L 232.96731196883593,440.47069908542704 L 254.7091399610449,440.7358821420327 L 276.4509679532539,438.4753767885171 L 298.1927959454629,438.91283331152135" fill="none" stroke="black" stroke-linecap="round" stroke-linejoin="round" stroke-width="2" /><path d="M 298.0984307395123,440.0 L 298.7716469156838,469.79894236602365 L 297.29183864665276,499.59788473204736" fill="none" stroke="black" stroke-linecap="round" stroke-linejoin="round" stroke-width="2" /><path d="M 298.1927959454629,499.8683022754422 L 276.4509679532539,499.01263628556814 L 254.7091399610449,499.7508902580256 L 232.96731196883593,500.62858814035377 L 211.22548397662695,498.51528511052766 L 189.48365598441796,500.1131284963025 L 167.74182799220898,499.0187923479253 L 146.0,500.1302019429087" fill="none" stroke="black" stroke-linecap="round" stroke-linejoin="round" stroke-width="2" /><path d="M 146.26505431170924,499.59788473204736 L 145.1688317994527,469.79894236602365 L 146.48273251664529,440.0" fill="none" stroke="black" stroke-linecap="round" stroke-linejoin="round" stroke-width="2" /><path d="M 146.07688578622182,440.7124637497691 L 167.8187137784308,439.3951026177031 L 189.5605417706398,439.0642769154778 L 211.30236976284874,440.3417455072077 L 233.04419775505772,439.32949071619225 L 254.7860257472667,437.4763575489543 L 276.5278537394757,439.6470463657664 L 298.26968173168467,438.525843310488" fill="none" stroke="black" stroke-linecap="round" stroke-linejoin="round" stroke-width="2" /><path d="M 299.244189901903,440.11088757957043 L 298.1862747488036,469.9098299455941 L 298.0180698980184,499.7087723116178" fill="none" stroke="black" stroke-linecap="round" stroke-linejoin="round" stroke-width="2" /><path d="M 298.26968173168467,499.4753611239582 L 276.5278537394757,501.133177479048 L 254.7860257472667,499.75486574202387 L 233.04419775505772,500.8889993767151 L 211.30236976284874,499.13153539312617 L 189.56054177063976,498.92913533832393 L 167.8187137784308,501.7050092975169 L 146.07688578622182,498.7855898727813" fill="none" stroke="black" stroke-linecap="round" stroke-linejoin="round" stroke-width="2" /><path d="M 146.70566594839227,499.7087723116178 L 145.8926403955199,469.9098299455941 L 146.6843073839776,440.11088757957043" fill="none" stroke="black" stroke-linecap="round" stroke-linejoin="round" stroke-width="2" /><path d="M 146.25130157308314,439.0942828275051 L 167.99312956529212,438.4917922330177 L 189.7349575575011,440.42969343038374 L 211.4767855497101,440.8885994917337 L 233.21861354191907,439.88096008677184 L 254.96044153412805,439.706871549385 L 276.70226952633703,439.13584394976743 L 298.444097518546,438.9427141410018" fill="none" stroke="black" stroke-linecap="round" stroke-linejoin="round" stroke-width="2" /><path d="M 299.04392286137477,440.20168871025845 L 299.81251474952376,470.00063107628216 L 298.00478145998693,499.7995734423058" fill="none" stroke="black" stroke-linecap="round" stroke-linejoin="round" stroke-width="2" /><path d="M 298.444097518546,497.9039249231138 L 276.70226952633703,499.1766256365807 L 254.96044153412805,501.12817036011944 L 233.21861354191907,500.0822428423595 L 211.4767855497101,500.22968992241056 L 189.7349575575011,500.19596036494994 L 167.99312956529212,499.49237605819616 L 146.25130157308314,498.21705305419397" fill="none" stroke="black" stroke-linecap="round" stroke-linejoin="round" stroke-width="2" /><path d="M 146.7767459382949,499.7995734423058 L 147.56093191011496,470.00063107628216 L 145.35946321327037,440.20168871025845" fill="none" stroke="black" stroke-linecap="round" stroke-linejoin="round" stroke-width="2" /><text dominant-baseline="middle" fill="black" font-family="Virgil, Comic Sans MS, cursive" font-size="16px" text-anchor="middle" x="222.0" y="470.0">Data Warehouse</text><path d="M 40.0,518.9603944721327 L 62.381387655886584,520.1545169760675 L 84.76277531177317,520.3350992996168 L 107.14416296765975,520.7221278467756 L 129.52555062354634,519.223507254571 L 151.90693827943292,520.090054642435" fill="none" stroke="black" stroke-linecap="round" stroke-linejoin="round" stroke-width="2" /><path d="M 153.19906807153916,520.0 L 152.0203447716176,540.0877163847232 L 151.37432763977205,560.1754327694465 L 150.6304099171849,580.2631491541697" fill="none" stroke="black" stroke-linecap="round" stroke-linejoin="round" stroke-width="2" /><path d="M 151.90693827943292,580.8234865662209 L 129.52555062354634,581.5143867257981 L 107.14416296765975,579.2201649927639 L 84.76277531177317,580.7293922489072 L 62.381387655886584,581.8287332281151 L 40.0,580.4589790449674" fill="none" stroke="black" stroke-linecap="round" stroke-linejoin="round" stroke-width="2" /><path d="M 39.1389997633588,580.2631491541697 L 41.272416822387065,560.1754327694465 L 39.26710700452587,540.0877163847232 L 37.031761598949124,520.0" fill="none" stroke="black" stroke-linecap="round" stroke-linejoin="round" stroke-width="2" /><path d="M 40.00118025012947,518.5907720008943 L 62.38256790601606,519.3866664217577 L 84.76395556190263,518.7778982823827 L 107.14534321778922,518.8935484697337 L 129.5267308736758,520.684514031228 L 151.9081185295624,519.8795402039734" fill="none" stroke="black" stroke-linecap="round" stroke-linejoin="round" stroke-width="2" /><path d="M 152.16593817363628,520.0025096239979 L 151.28065503148179,540.0902260087211 L 151.22837876472977,560.1779423934444 L 152.09711548462482,580.2656587781676" fill="none" stroke="black" stroke-linecap="round" stroke-linejoin="round" stroke-width="2" /><path d="M 151.9081185295624,581.3115113046966 L 129.5267308736758,580.9530650968204 L 107.14534321778922,579.1637096010833 L 84.76395556190263,579.0163213088242 L 62.38256790601605,582.4653655210701 L 40.001180250129465,581.1352418906614" fill="none" stroke="black" stroke-linecap="round" stroke-linejoin="round" stroke-width="2" /><path d="M 39.68719615698946,580.2656587781676 L 41.44186730841076,560.1779423934444 L 40.22920330003918,540.0902260087211 L 37.973425026303076,520.0025096239979" fill="none" stroke="black" stroke-linecap="round" stroke-linejoin="round" stroke-width="2" /><path d="M 39.86664095634184,520.1004512744535 L 62.248028612228424,519.5815594534367 L 84.62941626811501,519.4467679223316 L 107.01080392400158,520.9828541373461 L 129.39219157988816,519.2579408907321 L 151.77357923577475,520.4158434895639" fill="none" stroke="black" stroke-linecap="round" stroke-linejoin="round" stroke-width="2" /><path d="M 151.05255679880588,519.9839807270727 L 151.13747016500707,540.0716971117959 L 150.90224648139534,560.1594134965192 L 152.7781549565036,580.2471298812424" fill="none" stroke="black" stroke-linecap="round" stroke-linejoin="round" stroke-width="2" /><path d="M 151.77357923577475,580.3329548746713 L 129.39219157988816,579.6804797039299 L 107.01080392400158,579.6010074125667 L 84.62941626811501,581.0876845523832 L 62.24802861222841,580.6916670707883 L 39.86664095634184,580.2385553690464" fill="none" stroke="black" stroke-linecap="round" stroke-linejoin="round" stroke-width="2" /><path d="M 40.77232223045739,580.2471298812424 L 40.94704899337352,560.1594134965192 L 39.4992117858903,540.0716971117959 L 39.27847808334224,519.9839807270727" fill="none" stroke="black" stroke-linecap="round" stroke-linejoin="round" stroke-width="2" /><text dominant-baseline="middle" fill="black" font-family="Virgil, Comic Sans MS, cursive" font-size="16px" text-anchor="middle" x="96.0" y="550.0">Analytics</text><path d="M 172.0,520.0256447235134 L 192.1060230914459,520.5706308044564 L 212.2120461828918,518.4869589585122 L 232.31806927433774,520.1317485735196 L 252.42409236578365,519.9319764505316 L 272.53011545722956,521.3563296725853" fill="none" stroke="black" stroke-linecap="round" stroke-linejoin="round" stroke-width="2" /><path d="M 274.04264160125166,520.0 L 271.99433886669635,549.9320534703512 L 272.7957192065937,579.8641069407024" fill="none" stroke="black" stroke-linecap="round" stroke-linejoin="round" stroke-width="2" /><path d="M 272.53011545722956,581.5772893572405 L 252.42409236578365,579.4354760453506 L 232.31806927433774,580.9108733907093 L 212.2120461828918,579.8934162691282 L 192.1060230914459,579.739780705008 L 172.0,580.2808632804291" fill="none" stroke="black" stroke-linecap="round" stroke-linejoin="round" stroke-width="2" /><path d="M 172.13792295532468,579.8641069407024 L 171.2110869392444,549.9320534703512 L 170.52199111746538,520.0" fill="none" stroke="black" stroke-linecap="round" stroke-linejoin="round" stroke-width="2" /><path d="M 171.95362974317337,519.743616787144 L 192.05965283461927,519.8175338390006 L 212.1656759260652,520.9022738554406 L 232.2716990175111,520.7441334861085 L 252.37772210895704,520.2840170919012 L 272.48374520040295,518.6758953369431" fill="none" stroke="black" stroke-linecap="round" stroke-linejoin="round" stroke-width="2" /><path d="M 273.28353059286997,520.0380323704767 L 273.2103964500407,549.9700858408279 L 271.1943298010805,579.9021393111791" fill="none" stroke="black" stroke-linecap="round" stroke-linejoin="round" stroke-width="2" /><path d="M 272.48374520040295,579.7022611935054 L 252.37772210895702,579.3818268883945 L 232.2716990175111,581.1470782539303 L 212.1656759260652,580.7035551886157 L 192.05965283461927,581.2375707019958 L 171.95362974317337,577.895172359483" fill="none" stroke="black" stroke-linecap="round" stroke-linejoin="round" stroke-width="2" /><path d="M 171.44890118295316,579.9021393111791 L 171.56116790985587,549.9700858408279 L 172.45152365373795,520.0380323704767" fill="none" stroke="black" stroke-linecap="round" stroke-linejoin="round" stroke-width="2" /><path d="M 171.9518123962616,520.6965549429405 L 192.0578354877075,518.7278473016067 L 212.16385857915344,520.459699146142 L 232.26988167059935,522.0195337611422 L 252.37590476204528,519.9322202638608 L 272.4819278534912,519.1560614788631" fill="none" stroke="black" stroke-linecap="round" stroke-linejoin="round" stroke-width="2" /><path d="M 273.7582909721254,519.7277459003724 L 274.2181028667376,549.6597993707236 L 273.34301179854134,579.5918528410748" fill="none" stroke="black" stroke-linecap="round" stroke-linejoin="round" stroke-width="2" /><path d="M 272.4819278534912,578.9995992077585 L 252.37590476204525,580.2384973896479 L 232.26988167059935,581.803456735421 L 212.16385857915344,579.6589512878127 L 192.0578354877075,579.0663394572471 L 171.9518123962616,579.183663774786" fill="none" stroke="black" stroke-linecap="round" stroke-linejoin="round" stroke-width="2" /><path d="M 172.88571990937797,579.5918528410748 L 171.79136084708225,549.6597993707236 L 172.4344066171174,519.7277459003724" fill="none" stroke="black" stroke-linecap="round" stroke-linejoin="round" stroke-width="2" /><text dominant-baseline="middle" fill="black" font-family="Virgil, Comic Sans MS, cursive" font-size="16px" text-anchor="middle" x="222.0" y="550.0">Reports</text><path d="M 292.0,519.6357001534302 L 314.37783526309073,520.5039391071591 L 336.7556705261814,520.2802248579046 L 359.13350578927214,519.8640320390197 L 381.5113410523628,520.1094551913646 L 403.88917631545354,519.5780442522007" fill="none" stroke="black" stroke-linecap="round" stroke-linejoin="round" stroke-width="2" /><path d="M 403.64327869955486,520.0 L 402.843662152002,549.8788089018653 L 403.0898345503854,579.7576178037306" fill="none" stroke="black" stroke-linecap="round" stroke-linejoin="round" stroke-width="2" /><path d="M 403.88917631545354,578.7118207265895 L 381.5113410523628,580.5066126002089 L 359.13350578927214,578.9201156188143 L 336.7556705261814,580.7249440042386 L 314.3778352630907,578.7692026125762 L 292.0,580.0779220182226" fill="none" stroke="black" stroke-linecap="round" stroke-linejoin="round" stroke-width="2" /><path d="M 293.0568782295235,579.7576178037306 L 291.45462849182644,549.8788089018653 L 292.90501434249705,520.0" fill="none" stroke="black" stroke-linecap="round" stroke-linejoin="round" stroke-width="2" /><path d="M 292.0456219813772,519.667498584113 L 314.42345724446795,521.1196248045974 L 336.8012925075586,519.390804305225 L 359.17912777064936,520.1909004291994 L 381.5569630337401,520.2885609531353 L 403.93479829683076,518.8279600678435" fill="none" stroke="black" stroke-linecap="round" stroke-linejoin="round" stroke-width="2" /><path d="M 403.3227129126716,520.1111380145435 L 402.93076703006005,549.9899469164088 L 403.77672223906154,579.868755818274" fill="none" stroke="black" stroke-linecap="round" stroke-linejoin="round" stroke-width="2" /><path d="M 403.93479829683076,580.8068713169129 L 381.55696303374003,580.5278574072802 L 359.17912777064936,579.895613220492 L 336.8012925075586,579.125769761754 L 314.42345724446795,579.775212141155 L 292.0456219813772,579.5830545962189" fill="none" stroke="black" stroke-linecap="round" stroke-linejoin="round" stroke-width="2" /><path d="M 290.5577645374778,579.868755818274 L 292.1716000891211,549.9899469164088 L 292.7784372834607,520.1111380145435" fill="none" stroke="black" stroke-linecap="round" stroke-linejoin="round" stroke-width="2" /><path d="M 292.0548006549157,519.1958003994403 L 314.43263591800644,518.6715729143941 L 336.8104711810971,521.7324416104192 L 359.18830644418784,519.6998275784271 L 381.5661417072786,520.4953067186485 L 403.94397697036925,518.5266565459294" fill="none" stroke="black" stroke-linecap="round" stroke-linejoin="round" stroke-width="2" /><path d="M 403.5604453148505,519.677889268111 L 405.5188480879364,549.5566981699762 L 406.9029531107058,579.4355070718416" fill="none" stroke="black" stroke-linecap="round" stroke-linejoin="round" stroke-width="2" /><path d="M 403.94397697036925,579.8696024280326 L 381.5661417072785,579.14749802209 L 359.18830644418784,578.9966527775724 L 336.8104711810971,577.6235051283552 L 314.43263591800644,578.6824188096275 L 292.0548006549157,578.2464624275796" fill="none" stroke="black" stroke-linecap="round" stroke-linejoin="round" stroke-width="2" /><path d="M 292.4660960160755,579.4355070718416 L 291.4676156613933,549.5566981699762 L 292.38567829971475,519.677889268111" fill="none" stroke="black" stroke-linecap="round" stroke-linejoin="round" stroke-width="2" /><text dominant-baseline="middle" fill="black" font-family="Virgil, Comic Sans MS, cursive" font-size="16px" text-anchor="middle" x="348.0" y="550.0">Dashboard</text></g></svg>