<?xml version="1.0" encoding="utf-8" ?>
<svg baseProfile="full" height="692.0px" version="1.1" viewBox="0 0 536.0 692.0" width="536.0px" xmlns="http://www.w3.org/2000/svg" xmlns:ev="http://www.w3.org/2001/xml-events" xmlns:xlink="http://www.w3.org/1999/xlink"><defs /><rect fill="white" height="692.0" width="536.0" x="0" y="0" /><g><path d="M 281.9786649658419,68.72004088420236 L 266.8054939641973,87.79029100781207 L 248.89346310085145,103.990215996359 L 231.1957679946092,120.41476485835048" fill="none" stroke="black" stroke-linecap="round" stroke-linejoin="round" stroke-width="2" /><path d="M 235.66709865443138,110.47417859639454 L 233.64557491809813,115.54079380010299 L 231.1957679946092,120.41476485835048" fill="none" stroke="black" stroke-linecap="round" stroke-linejoin="round" stroke-width="2" /><path d="M 241.44191416714324,116.69662799805074 L 236.03903530224346,117.78462989259177 L 231.1957679946092,120.41476485835048" fill="none" stroke="black" stroke-linecap="round" stroke-linejoin="round" stroke-width="2" /><path d="M 230.21913128354308,204.38699435265244 L 240.5816021008315,222.18934243873895 L 254.5440000565366,237.59329750923098 L 265.89952911084504,254.73403666597812 L 276.64069756470644,272.28408359938675 L 287.5060238334656,289.7514124041687 L 296.8937548551922,308.20316505535027 L 310.71296846767666,323.7025143700919 L 322.5626775274969,340.5140141205695 L 332.2706259904687,358.75242709985656 L 344.4003064356425,375.37740045983236 L 356.2534222902116,392.18663048861373 L 368.33351787465415,408.8446389571027 L 378.94788536934647,426.47916497110066 L 391.30602178852655,442.9519332470956 L 401.4634674624329,460.8908760066302 L 413.22537865347743,477.76086966188956 L 423.48376880243416,495.6325598036308 L 435.57107755932014,512.2857626130763" fill="none" stroke="black" stroke-linecap="round" stroke-linejoin="round" stroke-width="2" /><path d="M 418.4472884765522,501.95252268317637 L 426.99322536948824,507.1455869587329 L 435.57107755932014,512.2857626130763" fill="none" stroke="black" stroke-linecap="round" stroke-linejoin="round" stroke-width="2" /><path d="M 431.0534314183498,492.8026706268186 L 433.79350431621486,502.4326267128095 L 435.57107755932014,512.2857626130763" fill="none" stroke="black" stroke-linecap="round" stroke-linejoin="round" stroke-width="2" /><text fill="black" font-family="Virgil, Comic Sans MS, cursive" font-size="14px" text-anchor="middle" x="276.64069756470644" y="262.28408359938675">No</text><path d="M 435.31850080331424,512.0505727910663 L 434.3492916846139,491.9209493130793 L 432.9365313237405,471.824240949896 L 430.19199011136084,451.82636157297844 L 430.60102469269185,431.5944611869347 L 427.9032778884257,411.5931092838042 L 426.11758478093685,391.52407556788114 L 425.8087916091374,371.34544384768066 L 424.27786873432035,351.2575041054416 L 422.1641557705483,331.21281213450965 L 420.79043886141244,311.1132064292066 L 418.69857812444576,291.06689284506376 L 417.44791363944944,270.9581556476526 L 417.4587195084049,250.75580707555892 L 413.7119335098212,230.83230242485737 L 413.553749845752,210.64249425249957 L 413.08395675311084,190.4758100377371 L 410.1192945845835,170.49426542860596 L 408.8232351496745,150.38889690621087 L 404.8570178067435,130.48167584848352 L 407.39408246361796,110.09185829846291 L 404.81872964940516,90.08142376439623 L 404.27986572828553,69.91986516767474" fill="none" stroke="black" stroke-linecap="round" stroke-linejoin="round" stroke-width="2" /><path d="M 412.557625875491,88.12642132048236 L 409.5551977667852,78.50644603317923 L 404.27986572828553,69.91986516767474" fill="none" stroke="black" stroke-linecap="round" stroke-linejoin="round" stroke-width="2" /><path d="M 396.98645281068946,88.5425966540449 L 401.373879391714,79.52132679242932 L 404.27986572828553,69.91986516767474" fill="none" stroke="black" stroke-linecap="round" stroke-linejoin="round" stroke-width="2" /><path d="M 100.98228661619221,162.1231627661933 L 102.94901988438085,188.4350443027395 L 108.72122969896361,214.28639046105963 L 121.54900842370304,219.77160647297248 L 135.8650629691402,222.1515836099068" fill="none" stroke="black" stroke-linecap="round" stroke-linejoin="round" stroke-width="2" /><path d="M 124.0005846788213,224.9954991135976 L 130.12611672290953,224.37993641815837 L 135.8650629691402,222.1515836099068" fill="none" stroke="black" stroke-linecap="round" stroke-linejoin="round" stroke-width="2" /><path d="M 125.55890123279507,215.62190285523917 L 131.34051435562134,217.89469548684818 L 135.8650629691402,222.1515836099068" fill="none" stroke="black" stroke-linecap="round" stroke-linejoin="round" stroke-width="2" /><text fill="black" font-family="Virgil, Comic Sans MS, cursive" font-size="14px" text-anchor="middle" x="102.94901988438085" y="178.4350443027395">Yes</text><path d="M 133.2644810594367,309.11485890976445 L 149.9043068071094,332.824719279105 L 163.42967088531591,358.32850957005803" fill="none" stroke="black" stroke-linecap="round" stroke-linejoin="round" stroke-width="2" /><path d="M 156.7014819814253,352.8521821838798 L 160.41286861046032,355.16366441555726 L 163.42967088531591,358.32850957005803" fill="none" stroke="black" stroke-linecap="round" stroke-linejoin="round" stroke-width="2" /><path d="M 162.67057334045504,349.68660824659753 L 163.26445995264166,353.9887316477702 L 163.42967088531591,358.32850957005803" fill="none" stroke="black" stroke-linecap="round" stroke-linejoin="round" stroke-width="2" /><text fill="black" font-family="Virgil, Comic Sans MS, cursive" font-size="14px" text-anchor="middle" x="149.9043068071094" y="322.824719279105">Yes</text><path d="M 136.64393659193792,308.0 L 134.39760166783546,328.4 L 137.04940507582407,348.8 L 136.7663435081056,369.2 L 137.0683714947851,389.6 L 135.61300964068286,410.0 L 135.7752454014924,430.4 L 135.38991802349022,450.79999999999995 L 133.75526500472594,471.20000000000005 L 134.51493168376578,491.6 L 135.89451836224978,512.0" fill="none" stroke="black" stroke-linecap="round" stroke-linejoin="round" stroke-width="2" /><path d="M 126.88097109451758,494.1462618577409 L 133.13799537587218,502.189508305092 L 135.89451836224978,512.0" fill="none" stroke="black" stroke-linecap="round" stroke-linejoin="round" stroke-width="2" /><path d="M 142.42220730747763,493.0952578162422 L 137.30553483134764,501.9078590155514 L 135.89451836224978,512.0" fill="none" stroke="black" stroke-linecap="round" stroke-linejoin="round" stroke-width="2" /><text fill="black" font-family="Virgil, Comic Sans MS, cursive" font-size="14px" text-anchor="middle" x="137.04940507582407" y="338.8">No</text><path d="M 228.47713945181428,388.0 L 229.1071955040272,398.0 L 228.48221613322372,408.0" fill="none" stroke="black" stroke-linecap="round" stroke-linejoin="round" stroke-width="2" /><path d="M 225.83255442673936,400.4515370543938 L 227.0058507621356,404.2789601785358 L 228.48221613322372,408.0" fill="none" stroke="black" stroke-linecap="round" stroke-linejoin="round" stroke-width="2" /><path d="M 232.0511149157758,400.8401842565679 L 231.26462448301598,404.9175371240372 L 228.48221613322372,408.0" fill="none" stroke="black" stroke-linecap="round" stroke-linejoin="round" stroke-width="2" /><path d="M 316.849611458775,450.47633359573416 L 329.34153838244094,468.36093650505916 L 340.1988368458925,487.2831731326074 L 352.96828466317123,504.99161060511733 L 363.8147726030699,523.9207095650078 L 375.3803512899513,542.3933422246396" fill="none" stroke="black" stroke-linecap="round" stroke-linejoin="round" stroke-width="2" /><path d="M 361.9832067682094,533.0016459160648 L 368.69418799266845,537.6797928294802 L 375.3803512899513,542.3933422246396" fill="none" stroke="black" stroke-linecap="round" stroke-linejoin="round" stroke-width="2" /><path d="M 372.78366136639477,526.2395611709718 L 374.0091665920705,534.3281605483926 L 375.3803512899513,542.3933422246396" fill="none" stroke="black" stroke-linecap="round" stroke-linejoin="round" stroke-width="2" /><text fill="black" font-family="Virgil, Comic Sans MS, cursive" font-size="14px" text-anchor="middle" x="329.34153838244094" y="458.36093650505916">No</text><path d="M 227.03761975802783,491.67664023869736 L 220.1549850552182,517.1864749785533 L 209.04970990844504,541.2775025292375" fill="none" stroke="black" stroke-linecap="round" stroke-linejoin="round" stroke-width="2" /><path d="M 209.30518814524305,533.281582890414 L 209.30302232637217,537.283554911874 L 209.04970990844504,541.2775025292375" fill="none" stroke="black" stroke-linecap="round" stroke-linejoin="round" stroke-width="2" /><path d="M 214.9636249653675,535.8899605387278 L 212.67107645463625,539.3130545723609 L 209.04970990844504,541.2775025292375" fill="none" stroke="black" stroke-linecap="round" stroke-linejoin="round" stroke-width="2" /><text fill="black" font-family="Virgil, Comic Sans MS, cursive" font-size="14px" text-anchor="middle" x="220.1549850552182" y="507.1864749785533">Yes</text><path d="M 135.73996212363681,572.0 L 135.57761315009108,582.0 L 134.82391330395544,592.0" fill="none" stroke="black" stroke-linecap="round" stroke-linejoin="round" stroke-width="2" /><path d="M 132.271169722925,584.4182125979748 L 133.52213306144395,588.2176611765246 L 134.82391330395544,592.0" fill="none" stroke="black" stroke-linecap="round" stroke-linejoin="round" stroke-width="2" /><path d="M 138.48424109655667,584.8864916918084 L 137.32519978879063,588.7885787753993 L 134.82391330395544,592.0" fill="none" stroke="black" stroke-linecap="round" stroke-linejoin="round" stroke-width="2" /><path d="M 283.2,38.66956529648911 L 307.1637206862489,39.82718698162021 L 331.12744137249786,41.2562749002185 L 355.0911620587467,40.22067845802609 L 379.05488274499567,42.219561764882975 L 403.01860343124457,39.57219501316348" fill="none" stroke="black" stroke-linecap="round" stroke-linejoin="round" stroke-width="2" /><path d="M 401.02276851667307,40.0 L 403.56762134924566,69.7957992605289 L 402.74088491192634,99.5915985210578" fill="none" stroke="black" stroke-linecap="round" stroke-linejoin="round" stroke-width="2" /><path d="M 403.01860343124457,99.36605347018262 L 379.05488274499567,98.00946918522655 L 355.0911620587467,100.60898049116933 L 331.12744137249786,99.23875171028793 L 307.1637206862489,100.41214905133837 L 283.2,100.39628548479537" fill="none" stroke="black" stroke-linecap="round" stroke-linejoin="round" stroke-width="2" /><path d="M 283.81726509077623,99.5915985210578 L 283.68356460837384,69.7957992605289 L 283.781369020856,40.0" fill="none" stroke="black" stroke-linecap="round" stroke-linejoin="round" stroke-width="2" /><path d="M 283.2422945860992,39.38599963517693 L 307.2060152723481,40.596151003931546 L 331.169735958597,40.75997570108939 L 355.133456644846,40.36340284178572 L 379.0971773310949,40.09586315157 L 403.0608980173438,38.46470699033857" fill="none" stroke="black" stroke-linecap="round" stroke-linejoin="round" stroke-width="2" /><path d="M 401.1362641560451,39.808014034111 L 403.4537122123937,69.6038132946399 L 402.1186118151661,99.3996125551688" fill="none" stroke="black" stroke-linecap="round" stroke-linejoin="round" stroke-width="2" /><path d="M 403.0608980173438,99.33379582864714 L 379.0971773310949,96.04395739338355 L 355.133456644846,100.22284636981807 L 331.169735958597,100.2599781046604 L 307.2060152723481,98.62703946822712 L 283.2422945860992,100.50823713765593" fill="none" stroke="black" stroke-linecap="round" stroke-linejoin="round" stroke-width="2" /><path d="M 284.2735720001385,99.3996125551688 L 281.7534334852489,69.6038132946399 L 283.2388699806322,39.808014034111" fill="none" stroke="black" stroke-linecap="round" stroke-linejoin="round" stroke-width="2" /><path d="M 283.3846770697328,40.08578965513205 L 307.3483977559817,38.51954424540236 L 331.3121184422306,40.757279317474605 L 355.27583912847956,39.12312068449505 L 379.23955981472847,40.05082341629636 L 403.20328050097737,40.15422796644527" fill="none" stroke="black" stroke-linecap="round" stroke-linejoin="round" stroke-width="2" /><path d="M 403.68056666276135,39.92279753548571 L 401.7755265102974,69.71859679601461 L 403.5581770095578,99.51439605654352" fill="none" stroke="black" stroke-linecap="round" stroke-linejoin="round" stroke-width="2" /><path d="M 403.20328050097737,100.68089074362692 L 379.23955981472847,100.46384045436567 L 355.27583912847956,101.40550354261885 L 331.3121184422306,99.55498642911827 L 307.3483977559817,101.90299485606477 L 283.3846770697328,100.22709289924009" fill="none" stroke="black" stroke-linecap="round" stroke-linejoin="round" stroke-width="2" /><path d="M 283.3145422218935,99.51439605654352 L 284.04133446502436,69.71859679601461 L 283.7160723430923,39.92279753548571" fill="none" stroke="black" stroke-linecap="round" stroke-linejoin="round" stroke-width="2" /><text dominant-baseline="middle" fill="black" font-family="Virgil, Comic Sans MS, cursive" font-size="16px" text-anchor="middle" x="343.2" y="70.0">User Login</text><path d="M 230.4440604090647,121.09154807886823 L 252.26431041198413,127.00722584769306 L 273.73090584968025,134.00744428320263 L 295.4389583571973,140.26719437126167 L 317.1582496842672,146.4924787460249 L 338.42843279514636,154.09502831710665 L 359.43356360768416,162.51040493643504" fill="none" stroke="black" stroke-linecap="round" stroke-linejoin="round" stroke-width="2" /><path d="M 359.87135138940295,162.83214426083575 L 338.0548678631472,168.75937255809586 L 316.91445971077616,176.7598986686025 L 295.4823576233218,183.86589671152018 L 273.79090546858725,190.176554548112 L 252.0173789424352,196.23551764569015 L 231.39805528479536,205.8340362067058" fill="none" stroke="black" stroke-linecap="round" stroke-linejoin="round" stroke-width="2" /><path d="M 230.97838643874894,203.45294825450318 L 209.17261728079623,197.49286256111367 L 187.869874689418,189.99016206356262 L 166.1902802586925,183.64314054000965 L 144.82245907880372,176.34001438055748 L 123.21583225513317,169.7692255287027 L 101.94969451031268,162.15427016837447" fill="none" stroke="black" stroke-linecap="round" stroke-linejoin="round" stroke-width="2" /><path d="M 101.83449564765559,161.4924533194771 L 123.65618443781585,155.58118783152418 L 145.30957721252975,149.15381456286903 L 166.3426042751107,140.82398644367282 L 187.77746232887182,133.72644003076257 L 209.4771004810978,127.44088591981114 L 230.37853343464283,118.70750253290473" fill="none" stroke="black" stroke-linecap="round" stroke-linejoin="round" stroke-width="2" /><path d="M 231.34886590377275,119.21085343427761 L 252.21718270238196,128.08487911700496 L 274.04141804234547,134.00928808093664 L 295.5779407297073,140.8214735798024 L 316.78066339213655,148.6636444714412 L 338.6404802756947,154.47826174149193 L 359.66717916681836,162.86357792876728" fill="none" stroke="black" stroke-linecap="round" stroke-linejoin="round" stroke-width="2" /><path d="M 359.5179295046526,160.61909668092864 L 338.56353440019535,169.22751603940247 L 316.762187239159,175.22254959351162 L 295.34284245756953,182.39630346351709 L 273.8783390324959,189.43071419490087 L 252.60450258703344,197.05345383345983 L 230.9650318487031,203.54797911425524" fill="none" stroke="black" stroke-linecap="round" stroke-linejoin="round" stroke-width="2" /><path d="M 230.35847669367612,205.8311486079033 L 210.25059024666277,194.61071161342394 L 188.4052645660897,188.7513797649326 L 166.83679811132194,182.0377611065722 L 145.0557733002562,175.98002017662992 L 123.58546422536847,168.96352356764706 L 102.2222249216515,161.61664861212068" fill="none" stroke="black" stroke-linecap="round" stroke-linejoin="round" stroke-width="2" /><path d="M 102.04206931937858,161.7706615144039 L 123.52062559271825,154.77961275833388 L 144.96372008549983,147.6791418535271 L 166.59063588591036,141.14587660359226 L 187.7231492516385,133.08706537451323 L 209.2571228386172,126.26701427959208 L 231.13315659994527,120.50243639232085" fill="none" stroke="black" stroke-linecap="round" stroke-linejoin="round" stroke-width="2" /><path d="M 229.98889302100235,121.32711902847026 L 252.24076283539017,125.9431209220158 L 273.29530078028097,134.1774026600002 L 294.3102205125567,142.53140874829205 L 316.08493504675147,148.58935115722332 L 337.94253733730255,154.39681071689995 L 358.8891473037342,162.95724566190938" fill="none" stroke="black" stroke-linecap="round" stroke-linejoin="round" stroke-width="2" /><path d="M 359.35600847643303,162.5302039384275 L 337.6401611083935,168.76604011785375 L 316.5543512332117,176.90581957292795 L 294.7329733911143,182.82274768936392 L 273.7296545338093,191.21181106891632 L 251.61048532558954,196.2288278697528 L 230.38784785298574,203.95512084666035" fill="none" stroke="black" stroke-linecap="round" stroke-linejoin="round" stroke-width="2" /><path d="M 231.04799768023528,203.23358514423012 L 208.8778113020355,198.3707397995803 L 187.65922509925124,190.6322040783628 L 166.4028711035883,183.00780082720073 L 144.61359610798905,176.99385943867813 L 123.03581127933678,170.3408048453238 L 101.34950286161288,164.01570336587864" fill="none" stroke="black" stroke-linecap="round" stroke-linejoin="round" stroke-width="2" /><path d="M 102.5342173559888,163.64106475947074 L 123.00581368998414,153.64516125652503 L 144.75279993057399,147.50342526585823 L 166.30396723348554,140.76993377831442 L 187.640197228785,133.3869119911409 L 209.22640753486604,126.75931878901567 L 230.64555097678624,119.62685748585122" fill="none" stroke="black" stroke-linecap="round" stroke-linejoin="round" stroke-width="2" /><text dominant-baseline="middle" fill="black" font-family="Virgil, Comic Sans MS, cursive" font-size="16px" text-anchor="middle" x="230.79999999999998" y="162.0">Credentials Valid?</text><path d="M 376.0,511.5364777792787 L 399.9367775675756,512.7203842506287 L 423.8735551351512,510.37294690345095 L 447.8103327027268,515.8463541628577 L 471.7471102703024,511.5138268176233 L 495.683887837878,512.8083933735276" fill="none" stroke="black" stroke-linecap="round" stroke-linejoin="round" stroke-width="2" /><path d="M 495.4094040659981,512.0 L 495.52174705774826,541.7738987096933 L 494.34677770587575,571.5477974193866" fill="none" stroke="black" stroke-linecap="round" stroke-linejoin="round" stroke-width="2" /><path d="M 495.683887837878,571.6350192411899 L 471.7471102703024,572.7843070438242 L 447.8103327027268,569.2365776398977 L 423.8735551351512,571.1307490402888 L 399.9367775675756,571.0756366310206 L 376.0,570.9853426430772" fill="none" stroke="black" stroke-linecap="round" stroke-linejoin="round" stroke-width="2" /><path d="M 375.1762210835598,571.5477974193866 L 376.5444125929671,541.7738987096933 L 375.83299633184026,512.0" fill="none" stroke="black" stroke-linecap="round" stroke-linejoin="round" stroke-width="2" /><path d="M 376.0530462108695,513.2703531217182 L 399.9898237784451,512.1143851210657 L 423.92660134602073,511.81015068342936 L 447.8633789135963,511.3330394042814 L 471.80015648117194,511.43417783095174 L 495.7369340487475,510.94036139743787" fill="none" stroke="black" stroke-linecap="round" stroke-linejoin="round" stroke-width="2" /><path d="M 495.0287422778288,512.0099731803134 L 496.8107066417196,541.7838718900067 L 495.6407861040408,571.5577705997" fill="none" stroke="black" stroke-linecap="round" stroke-linejoin="round" stroke-width="2" /><path d="M 495.7369340487475,573.0433729925015 L 471.80015648117194,571.5819560640413 L 447.8633789135963,572.2082394360316 L 423.92660134602073,573.4874940751937 L 399.9898237784451,571.161015573479 L 376.0530462108695,571.8967358428647" fill="none" stroke="black" stroke-linecap="round" stroke-linejoin="round" stroke-width="2" /><path d="M 376.8413386887951,571.5577705997 L 375.46752861873415,541.7838718900067 L 374.3287647381609,512.0099731803134" fill="none" stroke="black" stroke-linecap="round" stroke-linejoin="round" stroke-width="2" /><path d="M 376.14071113144564,509.3276000359109 L 400.0774886990212,513.1625522373338 L 424.01426626659685,511.6400514611943 L 447.9510438341724,511.6292598511189 L 471.88782140174806,512.5505871837127 L 495.82459896932363,510.0939055150394" fill="none" stroke="black" stroke-linecap="round" stroke-linejoin="round" stroke-width="2" /><path d="M 496.0364649463102,512.0315478685156 L 494.7494592958881,541.805446578209 L 494.26715713043114,571.5793452879022" fill="none" stroke="black" stroke-linecap="round" stroke-linejoin="round" stroke-width="2" /><path d="M 495.82459896932363,571.7733156262384 L 471.88782140174806,570.9339592759263 L 447.9510438341724,572.7137865922684 L 424.01426626659685,569.9789163719905 L 400.0774886990212,570.9503690834578 L 376.14071113144564,571.9128910967353" fill="none" stroke="black" stroke-linecap="round" stroke-linejoin="round" stroke-width="2" /><path d="M 375.4545683179569,571.5793452879022 L 375.46079591308387,541.805446578209 L 375.9153512317466,512.0315478685156" fill="none" stroke="black" stroke-linecap="round" stroke-linejoin="round" stroke-width="2" /><text dominant-baseline="middle" fill="black" font-family="Virgil, Comic Sans MS, cursive" font-size="16px" text-anchor="middle" x="436.0" y="542.0">Show Error</text><path d="M 135.64513104384946,222.99103630060785 L 154.014295566856,232.9115967151264 L 172.8830281544287,241.69980284996157 L 192.24813453945526,249.36289504390137 L 211.50483544412725,257.2717063266449 L 230.46797381658297,265.84592601574525" fill="none" stroke="black" stroke-linecap="round" stroke-linejoin="round" stroke-width="2" /><path d="M 230.74558062961802,266.78331609380086 L 211.39136422017856,274.47109223240477 L 191.87153518932223,281.78347976246374 L 173.79363904169128,292.3642484945003 L 154.36313055201794,299.87909591790736 L 135.04771194351406,307.6548137386319" fill="none" stroke="black" stroke-linecap="round" stroke-linejoin="round" stroke-width="2" /><path d="M 134.85598488271418,308.7797675991812 L 116.10586119241827,299.7227146305186 L 97.03787143457212,291.3861580816365 L 78.45874862251974,281.9415031222886 L 58.91535751596065,274.68252296382246 L 39.880932421554355,266.26988651114345" fill="none" stroke="black" stroke-linecap="round" stroke-linejoin="round" stroke-width="2" /><path d="M 40.062672178147736,266.1420569371349 L 59.39321091687299,258.4006114115788 L 77.00344029575889,246.75979800372016 L 96.88715716088886,240.27222289801477 L 116.50096848970564,233.17286190999948 L 135.82120729502734,225.40806986872863" fill="none" stroke="black" stroke-linecap="round" stroke-linejoin="round" stroke-width="2" /><path d="M 134.88484959442198,224.47594025524154 L 154.2508288995796,232.0224750815692 L 172.67421366061794,241.7205748297784 L 192.133672608125,249.05373316178628 L 211.2117137098388,257.2575153083584 L 229.5800873804878,267.08118329068736" fill="none" stroke="black" stroke-linecap="round" stroke-linejoin="round" stroke-width="2" /><path d="M 230.013012358282,265.64871995241185 L 211.93652778981618,276.1386535706444 L 192.4933000855652,283.5088613146676 L 173.34315181009302,291.54805173233285 L 153.59691263337706,298.22660593438434 L 135.45807064525334,308.5742025980992" fill="none" stroke="black" stroke-linecap="round" stroke-linejoin="round" stroke-width="2" /><path d="M 134.76782010061095,308.0750474360176 L 115.908442921389,299.3721433411492 L 96.6839587260331,291.5026319850224 L 77.9415902605057,282.5326439721424 L 58.4460193262745,275.281914807988 L 39.982768748120556,265.6748127153703" fill="none" stroke="black" stroke-linecap="round" stroke-linejoin="round" stroke-width="2" /><path d="M 39.99971067845143,266.10556823460377 L 59.18090183471723,258.13723625104075 L 77.78092329859066,248.84232718127103 L 96.02402282163563,238.7327086136293 L 115.96611568913809,232.50120975848844 L 134.48749844983882,223.02680010036482" fill="none" stroke="black" stroke-linecap="round" stroke-linejoin="round" stroke-width="2" /><path d="M 135.47963777924537,222.90885497267647 L 154.7695001741157,230.77079885498244 L 172.6936068023722,241.7504972017506 L 192.19168919322613,249.13711537946315 L 211.41818522330658,257.14371233338693 L 229.90969170449097,266.8281473044879" fill="none" stroke="black" stroke-linecap="round" stroke-linejoin="round" stroke-width="2" /><path d="M 230.1632653490699,265.60036369206716 L 211.10000160958927,273.97958817955345 L 192.08989842107113,282.4801678530458 L 172.5721181046186,289.82181950235207 L 153.89111375357822,299.0736677370892 L 135.2855982438763,308.4978422968204" fill="none" stroke="black" stroke-linecap="round" stroke-linejoin="round" stroke-width="2" /><path d="M 135.20969682682784,307.07889039851904 L 115.68792457665899,299.74635155654636 L 97.06709100763815,290.35714514338713 L 77.6991110263148,282.6735284992818 L 59.00982957068844,273.44057528253154 L 39.50831489644469,266.06179233943664" fill="none" stroke="black" stroke-linecap="round" stroke-linejoin="round" stroke-width="2" /><path d="M 39.70428249086757,266.2352152621159 L 59.8338093182427,260.2900617731483 L 77.60798180517058,248.96809297808366 L 96.86749621755882,241.03687056136917 L 116.571961517329,234.12138437620717 L 134.9289694893344,224.12991549925937" fill="none" stroke="black" stroke-linecap="round" stroke-linejoin="round" stroke-width="2" /><text dominant-baseline="middle" fill="black" font-family="Virgil, Comic Sans MS, cursive" font-size="16px" text-anchor="middle" x="135.2" y="266.0">MFA Enabled?</text><path d="M 164.0,329.02771624241757 L 185.316730105636,328.19221104945996 L 206.633460211272,328.5514766666518 L 227.95019031690802,327.54770648722257 L 249.26692042254402,328.2764320417739 L 270.58365052818004,328.06071407102877 L 291.90038063381604,327.62997137389726" fill="none" stroke="black" stroke-linecap="round" stroke-linejoin="round" stroke-width="2" /><path d="M 291.4178386448289,328.0 L 292.3151826403958,357.93835409495284 L 290.2239118439619,387.87670818990574" fill="none" stroke="black" stroke-linecap="round" stroke-linejoin="round" stroke-width="2" /><path d="M 291.90038063381604,388.51722900740407 L 270.58365052818004,387.8130947866216 L 249.26692042254405,388.5114320749828 L 227.95019031690802,388.7402418563733 L 206.63346021127202,387.4391303420386 L 185.316730105636,388.2334488676505 L 164.0,387.7507602694498" fill="none" stroke="black" stroke-linecap="round" stroke-linejoin="round" stroke-width="2" /><path d="M 162.72938521367342,387.87670818990574 L 164.93682025520513,357.93835409495284 L 164.723773448651,328.0" fill="none" stroke="black" stroke-linecap="round" stroke-linejoin="round" stroke-width="2" /><path d="M 164.09456129018906,326.8344530735892 L 185.41129139582506,328.01296312341395 L 206.72802150146106,327.8620161249533 L 228.04475160709708,328.0321287891533 L 249.36148171273308,328.305437682052 L 270.6782118183691,328.69280499823685 L 291.9949419240051,327.5454156591992" fill="none" stroke="black" stroke-linecap="round" stroke-linejoin="round" stroke-width="2" /><path d="M 291.1545256717801,328.23612580066083 L 291.56724511610105,358.1744798956137 L 291.99621122906825,388.11283399056657" fill="none" stroke="black" stroke-linecap="round" stroke-linejoin="round" stroke-width="2" /><path d="M 291.9949419240051,386.767653997667 L 270.6782118183691,388.21173858461356 L 249.3614817127331,387.68782110462183 L 228.04475160709708,388.6307971591645 L 206.7280215014611,389.4776879071172 L 185.41129139582506,388.9257444364048 L 164.09456129018906,388.83582731248316" fill="none" stroke="black" stroke-linecap="round" stroke-linejoin="round" stroke-width="2" /><path d="M 163.56009164977974,388.11283399056657 L 164.39099656973946,358.1744798956137 L 163.59515648656173,328.23612580066083" fill="none" stroke="black" stroke-linecap="round" stroke-linejoin="round" stroke-width="2" /><path d="M 164.15233322280721,328.0758656116191 L 185.4690633284432,328.12963718361306 L 206.7857934340792,330.0460508444284 L 228.10252353971524,326.4486335764158 L 249.41925364535123,328.65929862977634 L 270.73598375098726,328.6469303630619 L 292.05271385662326,327.3905489560259" fill="none" stroke="black" stroke-linecap="round" stroke-linejoin="round" stroke-width="2" /><path d="M 290.312302259052,328.0698078231423 L 291.92694186082593,358.0081619180952 L 292.5613268183385,387.94651601304804" fill="none" stroke="black" stroke-linecap="round" stroke-linejoin="round" stroke-width="2" /><path d="M 292.05271385662326,388.6177332423033 L 270.73598375098726,388.983218687577 L 249.41925364535126,390.29772684121406 L 228.10252353971524,388.40321435268635 L 206.78579343407924,387.106541619741 L 185.4690633284432,389.77528799971225 L 164.15233322280721,388.0061974342788" fill="none" stroke="black" stroke-linecap="round" stroke-linejoin="round" stroke-width="2" /><path d="M 163.86504456582492,387.94651601304804 L 162.55070438835327,358.0081619180952 L 163.96256588349496,328.0698078231423" fill="none" stroke="black" stroke-linecap="round" stroke-linejoin="round" stroke-width="2" /><text dominant-baseline="middle" fill="black" font-family="Virgil, Comic Sans MS, cursive" font-size="16px" text-anchor="middle" x="228.0" y="358.0">Verify Code</text><path d="M 59.19999999999999,509.6691761429225 L 80.94622017252324,513.288491697576 L 102.69244034504649,511.22314683892057 L 124.43866051756976,511.3103165030139 L 146.184880690093,513.0893633421861 L 167.9311008626163,512.3273207596735 L 189.67732103513953,512.6739851421312 L 211.4235412076628,512.1125489921271" fill="none" stroke="black" stroke-linecap="round" stroke-linejoin="round" stroke-width="2" /><path d="M 212.12355727372267,512.0 L 211.9879282406897,532.0668807896599 L 211.86381166188949,552.1337615793198 L 210.88973179604446,572.2006423689796" fill="none" stroke="black" stroke-linecap="round" stroke-linejoin="round" stroke-width="2" /><path d="M 211.4235412076628,571.3820264336812 L 189.67732103513953,571.6614599541225 L 167.9311008626163,571.805822582048 L 146.18488069009302,571.8455419440512 L 124.43866051756977,572.269362078186 L 102.6924403450465,571.7288013343008 L 80.94622017252325,574.8085903449845 L 59.19999999999999,571.7681240728458" fill="none" stroke="black" stroke-linecap="round" stroke-linejoin="round" stroke-width="2" /><path d="M 58.850785971198036,572.2006423689796 L 58.82902394798568,552.1337615793198 L 57.20917578038021,532.0668807896599 L 60.39433548264242,512.0" fill="none" stroke="black" stroke-linecap="round" stroke-linejoin="round" stroke-width="2" /><path d="M 59.280618908776866,513.2727573288809 L 81.02683908130012,510.91853068467316 L 102.77305925382338,510.8776026716421 L 124.51927942634663,511.2891445064062 L 146.2654995988699,512.9266384651676 L 168.01171977139316,511.55419549334556 L 189.7579399439164,511.9984499095141 L 211.50416011643966,512.4313808911024" fill="none" stroke="black" stroke-linecap="round" stroke-linejoin="round" stroke-width="2" /><path d="M 211.67686124495035,512.0097082897607 L 211.07754968896495,532.0765890794206 L 210.95828122089594,552.1434698690805 L 212.09835757145936,572.2103506587404" fill="none" stroke="black" stroke-linecap="round" stroke-linejoin="round" stroke-width="2" /><path d="M 211.50416011643966,572.9584037438451 L 189.7579399439164,573.1865443115101 L 168.01171977139316,571.898875120615 L 146.2654995988699,569.9344338377587 L 124.51927942634664,571.9361271948684 L 102.77305925382338,573.2138515059971 L 81.02683908130012,573.1548229879331 L 59.28061890877686,572.0129677413075" fill="none" stroke="black" stroke-linecap="round" stroke-linejoin="round" stroke-width="2" /><path d="M 59.86174626492374,572.2103506587404 L 58.78008823827793,552.1434698690805 L 59.11604589996069,532.0765890794206 L 60.10574657587918,512.0097082897607" fill="none" stroke="black" stroke-linecap="round" stroke-linejoin="round" stroke-width="2" /><path d="M 59.27946784330145,510.4773246606813 L 81.0256880158247,511.54288703887414 L 102.77190818834795,513.7840866971933 L 124.5181283608712,512.6702517268252 L 146.26434853339447,513.0858598885426 L 168.0105687059177,511.971789127918 L 189.75678887844094,511.40100858593365 L 211.50300905096424,513.7166212424755" fill="none" stroke="black" stroke-linecap="round" stroke-linejoin="round" stroke-width="2" /><path d="M 212.17389685389884,511.9600132423322 L 211.0593076869928,532.026894031992 L 210.5701801100849,552.0937748216519 L 211.9017658877558,572.1606556113118" fill="none" stroke="black" stroke-linecap="round" stroke-linejoin="round" stroke-width="2" /><path d="M 211.50300905096424,572.063404881963 L 189.756788878441,570.7580938788785 L 168.01056870591773,573.5956031790088 L 146.26434853339447,572.1040534045986 L 124.51812836087123,572.3962289257178 L 102.77190818834796,571.7347717633814 L 81.02568801582473,571.6469629442437 L 59.27946784330146,571.9801026587592" fill="none" stroke="black" stroke-linecap="round" stroke-linejoin="round" stroke-width="2" /><path d="M 58.68219070075585,572.1606556113118 L 58.83610512910555,552.0937748216519 L 58.53058831626125,532.026894031992 L 58.110749486817554,511.9600132423322" fill="none" stroke="black" stroke-linecap="round" stroke-linejoin="round" stroke-width="2" /><text dominant-baseline="middle" fill="black" font-family="Virgil, Comic Sans MS, cursive" font-size="16px" text-anchor="middle" x="135.2" y="542.0">Generate Token</text><path d="M 228.19639518335396,407.5810236088448 L 251.07776381715738,417.05410385673093 L 273.14177585396584,428.27087817820615 L 294.89990120003404,440.1402107732606 L 318.3556350327935,448.3879785967072" fill="none" stroke="black" stroke-linecap="round" stroke-linejoin="round" stroke-width="2" /><path d="M 317.5056900696863,449.7988054819975 L 295.34220802761456,460.8033771255778 L 273.02846918485864,471.48740092769845 L 250.22901064642255,481.1352227123682 L 227.7220859259366,491.40711664199813" fill="none" stroke="black" stroke-linecap="round" stroke-linejoin="round" stroke-width="2" /><path d="M 227.09167003843785,493.9377705846659 L 205.9794897136236,480.6904219442696 L 182.76306849813818,471.9321205373052 L 160.69924598666327,460.71494189511833 L 138.52315604991722,449.7372670935099" fill="none" stroke="black" stroke-linecap="round" stroke-linejoin="round" stroke-width="2" /><path d="M 138.34762595572866,449.88826870555454 L 160.45470876685397,438.7633787026218 L 183.08656001289262,428.757994694171 L 205.5136491907061,418.3157849401731 L 227.84438218856735,407.6680153356104" fill="none" stroke="black" stroke-linecap="round" stroke-linejoin="round" stroke-width="2" /><path d="M 228.61563676520166,406.9447987446629 L 250.65583378463214,418.43094160587816 L 273.21656182433674,428.8006248392648 L 295.31331995515035,440.1654527453577 L 317.90336872628984,450.47224748289983" fill="none" stroke="black" stroke-linecap="round" stroke-linejoin="round" stroke-width="2" /><path d="M 318.81505023615097,451.07582960801955 L 295.99616124766806,460.8917969905408 L 273.5828146488866,471.5775909306348 L 251.14401490574292,482.2087917591275 L 227.7756917189663,490.84630660635094" fill="none" stroke="black" stroke-linecap="round" stroke-linejoin="round" stroke-width="2" /><path d="M 228.21730695965883,491.7350343204983 L 205.88590406924297,480.8734836270478 L 183.01557299935163,471.16785166129705 L 160.13142929376409,461.4918456919002 L 138.40167459432595,449.3398514144555" fill="none" stroke="black" stroke-linecap="round" stroke-linejoin="round" stroke-width="2" /><path d="M 137.75250585518023,448.86044001100134 L 159.9552297492198,437.72289250120747 L 182.9743118171833,428.3363087333131 L 205.02559349040592,416.8739407634403 L 227.81402924145814,406.9926558324851" fill="none" stroke="black" stroke-linecap="round" stroke-linejoin="round" stroke-width="2" /><path d="M 227.71360284498715,409.05546062814204 L 250.34120288877696,418.96633424815246 L 273.50551968951567,427.72607951023747 L 295.2000022290824,439.6382657527451 L 317.6626305623141,449.9029640145618" fill="none" stroke="black" stroke-linecap="round" stroke-linejoin="round" stroke-width="2" /><path d="M 318.13222843623277,450.61088159891574 L 296.18202266856156,461.9746030211248 L 272.86058820717767,470.39736868948955 L 250.87768300193525,481.69095768264896 L 228.1395947464525,491.3648606620942" fill="none" stroke="black" stroke-linecap="round" stroke-linejoin="round" stroke-width="2" /><path d="M 228.23901670374588,491.41672253141263 L 205.04099859739594,482.7292584643636 L 183.31419737566173,470.8863880221401 L 161.50996254547874,459.2095940464844 L 138.6909586983992,449.70923555000786" fill="none" stroke="black" stroke-linecap="round" stroke-linejoin="round" stroke-width="2" /><path d="M 138.06683106574496,448.45883190375764 L 160.2340422072759,437.5605348165222 L 183.12038347613108,428.2045988944333 L 205.9035441942633,418.6273655069946 L 228.05081819286113,407.6863080432492" fill="none" stroke="black" stroke-linecap="round" stroke-linejoin="round" stroke-width="2" /><text dominant-baseline="middle" fill="black" font-family="Virgil, Comic Sans MS, cursive" font-size="16px" text-anchor="middle" x="227.99999999999997" y="450.0">Code Valid?</text><path d="M 63.19999999999999,593.0862581117573 L 83.74793942723643,592.055194750669 L 104.29587885447287,593.5620568043499 L 124.8438182817093,593.8790658927285 L 145.39175770894576,592.4475321081503 L 165.9396971361822,593.5301083204292 L 186.48763656341862,590.5762122319418 L 207.03557599065508,591.7106905799237" fill="none" stroke="black" stroke-linecap="round" stroke-linejoin="round" stroke-width="2" /><path d="M 207.18288831169113,592.0 L 205.8038899420282,621.8887727533456 L 207.4158194950593,651.7775455066914" fill="none" stroke="black" stroke-linecap="round" stroke-linejoin="round" stroke-width="2" /><path d="M 207.03557599065508,653.4030944467078 L 186.48763656341865,653.6657598778319 L 165.9396971361822,652.2881585426321 L 145.39175770894576,649.8413478387477 L 124.84381828170932,651.5575451772494 L 104.29587885447287,650.4598051566046 L 83.74793942723643,653.0426556403606 L 63.19999999999999,653.380888447514" fill="none" stroke="black" stroke-linecap="round" stroke-linejoin="round" stroke-width="2" /><path d="M 62.59532579519502,651.7775455066914 L 62.32604698905106,621.8887727533456 L 62.658269391342294,592.0" fill="none" stroke="black" stroke-linecap="round" stroke-linejoin="round" stroke-width="2" /><path d="M 63.45492293077455,592.543980964891 L 84.00286235801099,590.1096267410218 L 104.55080178524743,591.2599865411368 L 125.09874121248387,594.0313665355657 L 145.6466806397203,591.8081901190891 L 166.19462006695676,591.7400974377739 L 186.7425594941932,591.9642338821074 L 207.29049892142964,590.8080334123734" fill="none" stroke="black" stroke-linecap="round" stroke-linejoin="round" stroke-width="2" /><path d="M 207.54966062877517,591.9959176368006 L 207.14988938577844,621.8846903901463 L 206.55994825647826,651.773463143492" fill="none" stroke="black" stroke-linecap="round" stroke-linejoin="round" stroke-width="2" /><path d="M 207.29049892142964,652.9621863788967 L 186.74255949419322,652.0664154098844 L 166.19462006695676,652.5884463516126 L 145.64668063972033,652.7618975685556 L 125.09874121248389,653.2972375274963 L 104.55080178524744,652.0523410310085 L 84.002862358011,652.0413159260828 L 63.45492293077456,651.9650968375319" fill="none" stroke="black" stroke-linecap="round" stroke-linejoin="round" stroke-width="2" /><path d="M 63.94655992870659,651.773463143492 L 65.03690460219326,621.8846903901463 L 62.530323220262545,591.9959176368006" fill="none" stroke="black" stroke-linecap="round" stroke-linejoin="round" stroke-width="2" /><path d="M 63.51861599220307,592.7993916194029 L 84.06655541943951,592.9016764965277 L 104.61449484667594,591.961412763237 L 125.16243427391237,592.2007302117447 L 145.7103737011488,593.6473966582034 L 166.25831312838525,592.7560330739185 L 186.80625255562168,591.3377200342751 L 207.35419198285814,593.9871793206216" fill="none" stroke="black" stroke-linecap="round" stroke-linejoin="round" stroke-width="2" /><path d="M 208.07620013212258,592.0835460421235 L 207.05316929240408,621.9723187954692 L 207.7647019447598,651.8610915488149" fill="none" stroke="black" stroke-linecap="round" stroke-linejoin="round" stroke-width="2" /><path d="M 207.35419198285814,653.0311008187041 L 186.8062525556217,650.8363500718783 L 166.25831312838528,650.7016925746965 L 145.71037370114882,649.0798843537785 L 125.1624342739124,653.3527700451293 L 104.61449484667595,650.7184330966969 L 84.06655541943952,652.3780782560966 L 63.51861599220308,653.4548593799086" fill="none" stroke="black" stroke-linecap="round" stroke-linejoin="round" stroke-width="2" /><path d="M 61.48047960617642,651.8610915488149 L 62.711247497289854,621.9723187954692 L 62.12317461078237,592.0835460421235" fill="none" stroke="black" stroke-linecap="round" stroke-linejoin="round" stroke-width="2" /><text dominant-baseline="middle" fill="black" font-family="Virgil, Comic Sans MS, cursive" font-size="16px" text-anchor="middle" x="135.2" y="622.0">Login Success</text></g></svg>