<?xml version="1.0" encoding="utf-8" ?>
<svg baseProfile="full" height="460.0px" version="1.1" viewBox="0 0 831.0 460.0" width="831.0px" xmlns="http://www.w3.org/2000/svg" xmlns:ev="http://www.w3.org/2001/xml-events" xmlns:xlink="http://www.w3.org/1999/xlink"><defs /><rect fill="white" height="460.0" width="831.0" x="0" y="0" /><g><path d="M 406.1977309959307,100.0 L 406.05767099154485,110.0 L 405.70594129008856,120.0" fill="none" stroke="black" stroke-linecap="round" stroke-linejoin="round" stroke-width="2" /><path d="M 402.8515312619364,112.52655746050159 L 403.23182810093164,116.66313531277102 L 405.70594129008856,120.0" fill="none" stroke="black" stroke-linecap="round" stroke-linejoin="round" stroke-width="2" /><path d="M 409.0783741979439,112.74557402119132 L 407.2764898523212,116.31901539510548 L 405.70594129008856,120.0" fill="none" stroke="black" stroke-linecap="round" stroke-linejoin="round" stroke-width="2" /><path d="M 341.09588404750656,150.44681966138054 L 319.58785689173857,153.47214038822895 L 298.510283188377,158.50337420329134 L 277.7041066944519,164.79931901432778 L 256.1699996175558,167.70310730871915 L 235.2301932841363,173.37633706771146 L 213.9318394178368,177.37873532348303 L 192.81500926915547,182.22703410335538 L 171.49472027867057,186.1272146804231 L 150.0711485468764,189.54609768298957 L 129.20359258559614,195.55601417615074 L 107.54276096700224,197.8692661062304" fill="none" stroke="black" stroke-linecap="round" stroke-linejoin="round" stroke-width="2" /><path d="M 125.03277406286489,188.1687794222257 L 116.33555821970604,193.10518958034353 L 107.54276096700224,197.8692661062304" fill="none" stroke="black" stroke-linecap="round" stroke-linejoin="round" stroke-width="2" /><path d="M 126.68687364492004,203.657439373781 L 116.92414604708972,201.39398902118594 L 107.54276096700224,197.8692661062304" fill="none" stroke="black" stroke-linecap="round" stroke-linejoin="round" stroke-width="2" /><path d="M 404.9577906988653,179.93837442034337 L 385.17184176863594,190.1958889822085 L 368.8982305682616,205.58141662966196 L 350.1897676768298,217.41206080817145 L 332.00210169473576,230.00306847431423" fill="none" stroke="black" stroke-linecap="round" stroke-linejoin="round" stroke-width="2" /><path d="M 339.147943878469,218.7375912721545 L 334.9924083976526,224.0007698090935 L 332.00210169473576,230.00306847431423" fill="none" stroke="black" stroke-linecap="round" stroke-linejoin="round" stroke-width="2" /><path d="M 345.0620165759377,227.28044833867983 L 338.40985347120437,228.05556000493507 L 332.00210169473576,230.00306847431423" fill="none" stroke="black" stroke-linecap="round" stroke-linejoin="round" stroke-width="2" /><path d="M 468.8236327183438,150.028218765065 L 472.4974554203937,175.080407132737 L 477.1560191440332,199.9750369369547" fill="none" stroke="black" stroke-linecap="round" stroke-linejoin="round" stroke-width="2" /><path d="M 472.7384793081387,193.30530367405092 L 475.0707481226849,196.5583737367481 L 477.1560191440332,199.9750369369547" fill="none" stroke="black" stroke-linecap="round" stroke-linejoin="round" stroke-width="2" /><path d="M 478.86286328237634,192.15923991506347 L 475.9533614467424,195.6181237333907 L 477.1560191440332,199.9750369369547" fill="none" stroke="black" stroke-linecap="round" stroke-linejoin="round" stroke-width="2" /><path d="M 468.2090741742936,151.6016247970554 L 487.30428905381046,158.2727035549227 L 504.69477541088116,168.39585757074343 L 522.0907538630897,178.50789009391005 L 541.0358465474956,185.48296629687707 L 558.9985443501484,194.44739213539384 L 577.2872897725699,202.7515715438793 L 594.7013255021861,212.8270380802953 L 612.4638968547481,222.1967199802462 L 631.1012384367008,229.7949921656808" fill="none" stroke="black" stroke-linecap="round" stroke-linejoin="round" stroke-width="2" /><path d="M 611.1028976872864,230.05261062447036 L 621.1073339577017,230.33258101908172 L 631.1012384367008,229.7949921656808" fill="none" stroke="black" stroke-linecap="round" stroke-linejoin="round" stroke-width="2" /><path d="M 616.983456090232,215.62854512989458 L 624.0169562599183,222.73707242796237 L 631.1012384367008,229.7949921656808" fill="none" stroke="black" stroke-linecap="round" stroke-linejoin="round" stroke-width="2" /><path d="M 264.4013090193607,260.0 L 264.8455992710249,270.0 L 264.7361622870619,280.0" fill="none" stroke="black" stroke-linecap="round" stroke-linejoin="round" stroke-width="2" /><path d="M 261.7016357672642,272.5978618764141 L 262.59991577955407,276.5526847926771 L 264.7361622870619,280.0" fill="none" stroke="black" stroke-linecap="round" stroke-linejoin="round" stroke-width="2" /><path d="M 267.93195616966085,272.6660446238102 L 265.73263406560034,276.0709494252561 L 264.7361622870619,280.0" fill="none" stroke="black" stroke-linecap="round" stroke-linejoin="round" stroke-width="2" /><path d="M 404.83996674843706,229.78044699231387 L 398.2618856787308,233.7576171065893 L 393.27688752114585,239.92037141311008 L 394.2481491431194,244.8759254284403 L 397.60904538626295,249.8621439735352 L 401.7852146929581,264.7729946628373 L 405.17020543643866,279.9604434579538" fill="none" stroke="black" stroke-linecap="round" stroke-linejoin="round" stroke-width="2" /><path d="M 400.1444586655141,272.91020138740157 L 402.6854180964225,276.4153013580396 L 405.17020543643866,279.9604434579538" fill="none" stroke="black" stroke-linecap="round" stroke-linejoin="round" stroke-width="2" /><path d="M 406.7262680332824,271.44324244743706 L 405.2233412225868,275.56940709825494 L 405.17020543643866,279.9604434579538" fill="none" stroke="black" stroke-linecap="round" stroke-linejoin="round" stroke-width="2" /><path d="M 713.8810002824947,260.0 L 712.1818987172263,270.0 L 710.8595507044356,280.0" fill="none" stroke="black" stroke-linecap="round" stroke-linejoin="round" stroke-width="2" /><path d="M 708.7370511441835,272.2867000825373 L 710.6062188457257,275.92103203843266 L 710.8595507044356,280.0" fill="none" stroke="black" stroke-linecap="round" stroke-linejoin="round" stroke-width="2" /><path d="M 714.9139736969481,273.1035042088184 L 714.4918041759628,277.49535002508173 L 710.8595507044356,280.0" fill="none" stroke="black" stroke-linecap="round" stroke-linejoin="round" stroke-width="2" /><path d="M 548.6111412785865,230.20651823287503 L 552.966563703792,237.05772115712065 L 557.5951432533781,243.76385358784808 L 552.0014699141926,261.97912386564684 L 549.2848954862375,280.06058462103596" fill="none" stroke="black" stroke-linecap="round" stroke-linejoin="round" stroke-width="2" /><path d="M 547.2887335466119,272.2714027974932 L 549.1971899636545,275.93268848418467 L 549.2848954862375,280.06058462103596" fill="none" stroke="black" stroke-linecap="round" stroke-linejoin="round" stroke-width="2" /><path d="M 553.4817730941992,273.20185045843647 L 551.682842906452,276.8144876556298 L 549.2848954862375,280.06058462103596" fill="none" stroke="black" stroke-linecap="round" stroke-linejoin="round" stroke-width="2" /><path d="M 548.218682782011,340.0 L 547.7330843529747,350.0 L 548.7415688368075,360.0" fill="none" stroke="black" stroke-linecap="round" stroke-linejoin="round" stroke-width="2" /><path d="M 544.9025941082551,352.9812912132262 L 547.917734995535,355.8913635571873 L 548.7415688368075,360.0" fill="none" stroke="black" stroke-linecap="round" stroke-linejoin="round" stroke-width="2" /><path d="M 551.101842884853,352.35610659296435 L 549.1993422593389,355.9550025589767 L 548.7415688368075,360.0" fill="none" stroke="black" stroke-linecap="round" stroke-linejoin="round" stroke-width="2" /><path d="M 345.0,41.23367711222354 L 368.97408723856546,39.133585106769715 L 392.94817447713086,40.108293334362756 L 416.9222617156963,39.150276205301765 L 440.8963489542617,38.37759410937147 L 464.8704361928272,41.08364455026116" fill="none" stroke="black" stroke-linecap="round" stroke-linejoin="round" stroke-width="2" /><path d="M 465.1560633471244,40.0 L 464.09708490568806,60.14352041936738 L 463.84973625985884,80.28704083873475 L 463.94002451312855,100.43056125810213" fill="none" stroke="black" stroke-linecap="round" stroke-linejoin="round" stroke-width="2" /><path d="M 464.8704361928272,101.21856087645652 L 440.8963489542617,100.93116832057021 L 416.9222617156963,101.92733685519492 L 392.94817447713086,99.7458891530282 L 368.9740872385654,101.84576521719534 L 345.0,99.8301556098871" fill="none" stroke="black" stroke-linecap="round" stroke-linejoin="round" stroke-width="2" /><path d="M 345.3481441304613,100.43056125810213 L 345.7508192047255,80.28704083873475 L 345.02086178149307,60.14352041936738 L 344.60911627507966,40.0" fill="none" stroke="black" stroke-linecap="round" stroke-linejoin="round" stroke-width="2" /><path d="M 345.0494181079731,39.78482505128323 L 369.02350534653857,40.141726690514176 L 392.997592585104,38.71795853147583 L 416.97167982366943,39.18070299274395 L 440.94576706223484,41.968241930380835 L 464.9198543008003,39.40435292369617" fill="none" stroke="black" stroke-linecap="round" stroke-linejoin="round" stroke-width="2" /><path d="M 466.53184004313493,39.8442294936634 L 464.9190915379323,59.98774991303077 L 463.84942890147175,80.13127033239815 L 462.5885788167623,100.27479075176552" fill="none" stroke="black" stroke-linecap="round" stroke-linejoin="round" stroke-width="2" /><path d="M 464.9198543008003,101.35887774391136 L 440.94576706223484,101.03232383771025 L 416.97167982366943,100.04206134698198 L 392.997592585104,99.31717266476342 L 369.0235053465385,101.72394191987294 L 345.0494181079731,100.83471953745816" fill="none" stroke="black" stroke-linecap="round" stroke-linejoin="round" stroke-width="2" /><path d="M 343.89078723222013,100.27479075176552 L 343.8193502554189,80.13127033239815 L 345.61847641723557,59.987749913030775 L 344.1197492983246,39.8442294936634" fill="none" stroke="black" stroke-linecap="round" stroke-linejoin="round" stroke-width="2" /><path d="M 344.9149807510544,39.84364285092587 L 368.88906798961983,38.25933691886513 L 392.86315522818524,39.896477210973735 L 416.8372424667507,39.61879615228075 L 440.8113297053161,42.65758241507304 L 464.78541694388156,39.59071385966843" fill="none" stroke="black" stroke-linecap="round" stroke-linejoin="round" stroke-width="2" /><path d="M 464.60466374407935,40.03871878093321 L 464.49009041821256,60.182239200300586 L 464.48644301079406,80.32575961966796 L 463.7733959947425,100.46928003903534" fill="none" stroke="black" stroke-linecap="round" stroke-linejoin="round" stroke-width="2" /><path d="M 464.78541694388156,102.2878963474 L 440.8113297053161,100.4654906075699 L 416.8372424667507,100.57602413813167 L 392.86315522818524,98.66003931837388 L 368.8890679896198,100.35107544057772 L 344.9149807510544,100.09494813022339" fill="none" stroke="black" stroke-linecap="round" stroke-linejoin="round" stroke-width="2" /><path d="M 343.97873122263616,100.46928003903534 L 344.8968351578426,80.32575961966796 L 343.7651036860303,60.182239200300586 L 345.58113556476576,40.03871878093321" fill="none" stroke="black" stroke-linecap="round" stroke-linejoin="round" stroke-width="2" /><text dominant-baseline="middle" fill="black" font-family="Virgil, Comic Sans MS, cursive" font-size="16px" text-anchor="middle" x="405.0" y="70.0">Client App</text><path d="M 341.0,118.93146341334925 L 362.384921115318,121.14576670727845 L 383.76984223063596,119.61686150804391 L 405.15476334595394,119.59897427038926 L 426.53968446127186,119.1325233723504 L 447.92460557658984,119.30613716875656 L 469.3095266919078,119.4835593101447" fill="none" stroke="black" stroke-linecap="round" stroke-linejoin="round" stroke-width="2" /><path d="M 471.00389852631355,120.0 L 471.1954691927906,149.98240557245236 L 468.1021658959446,179.9648111449047" fill="none" stroke="black" stroke-linecap="round" stroke-linejoin="round" stroke-width="2" /><path d="M 469.3095266919078,178.85217617481462 L 447.92460557658984,178.2874054523206 L 426.53968446127186,182.46584682312366 L 405.15476334595394,179.3599644828146 L 383.76984223063596,180.40022277724293 L 362.384921115318,178.98703150564006 L 341.0,180.08740728484165" fill="none" stroke="black" stroke-linecap="round" stroke-linejoin="round" stroke-width="2" /><path d="M 340.6889360574852,179.9648111449047 L 340.54196034740386,149.98240557245236 L 340.9499507313421,120.0" fill="none" stroke="black" stroke-linecap="round" stroke-linejoin="round" stroke-width="2" /><path d="M 340.729209141016,121.37696657366101 L 362.11413025633397,121.12335650453103 L 383.49905137165194,121.95925629416108 L 404.8839724869699,119.15860554388185 L 426.26889360228785,119.88143678680967 L 447.6538147176058,119.90568625843102 L 469.0387358329238,119.58297680249245" fill="none" stroke="black" stroke-linecap="round" stroke-linejoin="round" stroke-width="2" /><path d="M 466.42459994422273,120.13265819518458 L 469.8762365019961,150.1150637676369 L 467.2496760947464,180.09746934008928" fill="none" stroke="black" stroke-linecap="round" stroke-linejoin="round" stroke-width="2" /><path d="M 469.0387358329238,180.6939267823165 L 447.6538147176058,181.11448476157216 L 426.26889360228785,180.23044201721262 L 404.8839724869699,179.1392131705066 L 383.49905137165194,181.3934607859604 L 362.11413025633397,178.672924248745 L 340.729209141016,181.51082398935097" fill="none" stroke="black" stroke-linecap="round" stroke-linejoin="round" stroke-width="2" /><path d="M 341.32057789675133,180.09746934008928 L 339.6966940724176,150.1150637676369 L 340.594874257286,120.13265819518458" fill="none" stroke="black" stroke-linecap="round" stroke-linejoin="round" stroke-width="2" /><path d="M 340.9526976138347,121.08916843964748 L 362.33761872915267,120.79199314872803 L 383.72253984447065,120.30858579931854 L 405.10746095978857,119.13740447232414 L 426.49238207510655,119.21670967634897 L 447.8773031904245,118.87949341438367 L 469.2622243057425,119.68746866431216" fill="none" stroke="black" stroke-linecap="round" stroke-linejoin="round" stroke-width="2" /><path d="M 469.68195917319406,120.18207133997738 L 468.8823001328035,150.16447691242973 L 469.2659844664903,180.1468824848821" fill="none" stroke="black" stroke-linecap="round" stroke-linejoin="round" stroke-width="2" /><path d="M 469.2622243057425,179.4964094103923 L 447.8773031904245,179.37097780983257 L 426.49238207510655,181.01435319307214 L 405.10746095978857,179.0965877490373 L 383.72253984447065,180.04658661932453 L 362.33761872915267,180.39251999962005 L 340.9526976138347,181.39526264980145" fill="none" stroke="black" stroke-linecap="round" stroke-linejoin="round" stroke-width="2" /><path d="M 339.4079557621183,180.1468824848821 L 340.15119027089867,150.16447691242973 L 342.61258840885756,120.18207133997738" fill="none" stroke="black" stroke-linecap="round" stroke-linejoin="round" stroke-width="2" /><text dominant-baseline="middle" fill="black" font-family="Virgil, Comic Sans MS, cursive" font-size="16px" text-anchor="middle" x="405.0" y="150.0">API Gateway</text><path d="M 40.0,200.60178627601482 L 62.60324164344412,200.56049388211173 L 85.20648328688824,201.1846762104941 L 107.80972493033238,199.42946246422486 L 130.4129665737765,199.58956053884398 L 153.01620821722065,199.93350082487552 L 175.61944986066476,199.42822561421428" fill="none" stroke="black" stroke-linecap="round" stroke-linejoin="round" stroke-width="2" /><path d="M 174.7746080720405,200.0 L 174.270460710586,220.0310722391751 L 176.24238066060516,240.0621444783502 L 173.93220405005047,260.0932167175253" fill="none" stroke="black" stroke-linecap="round" stroke-linejoin="round" stroke-width="2" /><path d="M 175.61944986066476,260.43076839175785 L 153.01620821722062,260.5045068282712 L 130.41296657377652,259.2488200597844 L 107.80972493033238,261.894040416019 L 85.20648328688826,257.0389240565636 L 62.60324164344412,259.2751750659676 L 40.0,258.7677171200814" fill="none" stroke="black" stroke-linecap="round" stroke-linejoin="round" stroke-width="2" /><path d="M 37.97892370784238,260.0932167175253 L 40.35561022091622,240.0621444783502 L 41.37259999059268,220.0310722391751 L 39.191299687452926,200.0" fill="none" stroke="black" stroke-linecap="round" stroke-linejoin="round" stroke-width="2" /><path d="M 39.843455503781435,201.4599617560504 L 62.446697147225564,201.19461571650143 L 85.04993879066969,200.5544423161237 L 107.6531804341138,199.1540744310472 L 130.25642207755794,201.83892878794714 L 152.85966372100208,202.4488126849969 L 175.4629053644462,199.81409918520575" fill="none" stroke="black" stroke-linecap="round" stroke-linejoin="round" stroke-width="2" /><path d="M 173.9212231334971,200.19606494632365 L 176.81420357009284,220.22713718549875 L 176.06595327285058,240.25820942467385 L 172.48425607369362,260.28928166384895" fill="none" stroke="black" stroke-linecap="round" stroke-linejoin="round" stroke-width="2" /><path d="M 175.4629053644462,261.3508226465246 L 152.85966372100205,260.6505370664063 L 130.25642207755794,260.47469861566327 L 107.6531804341138,260.48769200831157 L 85.04993879066969,259.49073147631026 L 62.44669714722555,260.8943249417227 L 39.84345550378143,261.34621796162105" fill="none" stroke="black" stroke-linecap="round" stroke-linejoin="round" stroke-width="2" /><path d="M 40.000731749253006,260.28928166384895 L 39.9293563396239,240.25820942467385 L 40.4524094726759,220.22713718549875 L 38.87681798642555,200.19606494632365" fill="none" stroke="black" stroke-linecap="round" stroke-linejoin="round" stroke-width="2" /><path d="M 40.168656194040345,199.25945257396071 L 62.771897837484474,200.05416254535373 L 85.3751394809286,198.9663456557083 L 107.97838112437273,201.22834170272262 L 130.58162276781684,197.95965699136843 L 153.18486441126097,200.16039173330626 L 175.7881060547051,199.84503785986078" fill="none" stroke="black" stroke-linecap="round" stroke-linejoin="round" stroke-width="2" /><path d="M 176.0135094128304,199.9587130092442 L 177.0659187779458,219.9897852484193 L 175.54438789262764,240.0208574875944 L 176.10831378652455,260.0519297267695" fill="none" stroke="black" stroke-linecap="round" stroke-linejoin="round" stroke-width="2" /><path d="M 175.7881060547051,261.44405810700016 L 153.18486441126097,260.1991826206201 L 130.58162276781687,259.24180162693744 L 107.97838112437273,260.8378288687867 L 85.37513948092861,259.7448161832653 L 62.771897837484474,260.22513675000425 L 40.16865619404035,259.5652784839799" fill="none" stroke="black" stroke-linecap="round" stroke-linejoin="round" stroke-width="2" /><path d="M 41.02587078644274,260.0519297267695 L 38.52842615981604,240.0208574875944 L 40.12062279988774,219.9897852484193 L 41.732291713099286,199.9587130092442" fill="none" stroke="black" stroke-linecap="round" stroke-linejoin="round" stroke-width="2" /><text dominant-baseline="middle" fill="black" font-family="Virgil, Comic Sans MS, cursive" font-size="16px" text-anchor="middle" x="108.0" y="230.0">Auth Service</text><path d="M 196.0,199.13070248157328 L 218.7272095900434,201.705841755451 L 241.4544191800868,199.69338710824155 L 264.1816287701302,199.8562226829738 L 286.9088383601736,200.2258770750477 L 309.636047950217,201.9678113247451 L 332.3632575402604,200.13379505829425" fill="none" stroke="black" stroke-linecap="round" stroke-linejoin="round" stroke-width="2" /><path d="M 332.7018448405235,200.0 L 331.49193134821826,229.97653133912306 L 332.02616830063545,259.9530626782461" fill="none" stroke="black" stroke-linecap="round" stroke-linejoin="round" stroke-width="2" /><path d="M 332.3632575402604,258.9006159053852 L 309.636047950217,260.555776957205 L 286.9088383601736,260.4804010495859 L 264.1816287701302,261.5625475752233 L 241.4544191800868,259.84379712987004 L 218.7272095900434,261.8787642841571 L 196.0,259.74747095996037" fill="none" stroke="black" stroke-linecap="round" stroke-linejoin="round" stroke-width="2" /><path d="M 196.0244697991851,259.9530626782461 L 195.57991773758724,229.97653133912306 L 196.1651941825376,200.0" fill="none" stroke="black" stroke-linecap="round" stroke-linejoin="round" stroke-width="2" /><path d="M 196.08097188553384,200.8090864923536 L 218.80818147557724,200.0133881757412 L 241.53539106562062,199.3827051095177 L 264.262600655664,201.17464950534045 L 286.9898102457074,198.38929138187513 L 309.7170198357508,202.35015291268408 L 332.4442294257942,198.92228757919574" fill="none" stroke="black" stroke-linecap="round" stroke-linejoin="round" stroke-width="2" /><path d="M 332.9228667178348,199.8942297396795 L 334.14167511761826,229.87076107880256 L 334.0960459747641,259.8472924179256" fill="none" stroke="black" stroke-linecap="round" stroke-linejoin="round" stroke-width="2" /><path d="M 332.4442294257942,260.9459483657645 L 309.7170198357508,256.5991551444179 L 286.9898102457074,260.15185253078533 L 264.262600655664,258.3556039382685 L 241.53539106562064,258.95450232608823 L 218.80818147557721,259.38689167631037 L 196.08097188553384,259.240208095462" fill="none" stroke="black" stroke-linecap="round" stroke-linejoin="round" stroke-width="2" /><path d="M 194.7663796519284,259.8472924179256 L 196.38157504046833,229.87076107880256 L 195.6570717914382,199.8942297396795" fill="none" stroke="black" stroke-linecap="round" stroke-linejoin="round" stroke-width="2" /><path d="M 196.06085521809047,199.67634059553583 L 218.78806480813387,200.97449721150136 L 241.51527439817727,200.0653471671751 L 264.24248398822067,199.5123791422613 L 286.96969357826407,197.7343424778081 L 309.6969031683075,200.93497328240815 L 332.4241127583509,201.63783704828754" fill="none" stroke="black" stroke-linecap="round" stroke-linejoin="round" stroke-width="2" /><path d="M 332.03429052141007,199.81533826362696 L 332.3566803444383,229.79186960275 L 332.75037663373865,259.7684009418731" fill="none" stroke="black" stroke-linecap="round" stroke-linejoin="round" stroke-width="2" /><path d="M 332.4241127583509,259.66727358983366 L 309.6969031683075,259.58267314134696 L 286.96969357826407,256.8418320367695 L 264.24248398822067,258.64627567377636 L 241.51527439817727,259.8025351180473 L 218.78806480813387,259.17648120995557 L 196.06085521809047,261.3653770077747" fill="none" stroke="black" stroke-linecap="round" stroke-linejoin="round" stroke-width="2" /><path d="M 195.776706565014,259.7684009418731 L 195.6260233853814,229.79186960275 L 197.85135253428683,199.81533826362696" fill="none" stroke="black" stroke-linecap="round" stroke-linejoin="round" stroke-width="2" /><text dominant-baseline="middle" fill="black" font-family="Virgil, Comic Sans MS, cursive" font-size="16px" text-anchor="middle" x="264.0" y="230.0">User Service</text><path d="M 405.0,200.4394310286815 L 425.5720894660551,200.60502407544962 L 446.1441789321102,200.02916512019522 L 466.7162683981653,199.44761840424732 L 487.2883578642204,197.87892264263377 L 507.8604473302755,200.18551866606688 L 528.4325367963306,201.2510855703612 L 549.0046262623857,200.16895086816223" fill="none" stroke="black" stroke-linecap="round" stroke-linejoin="round" stroke-width="2" /><path d="M 548.5285161157396,200.0 L 548.9018559145701,229.96180104716825 L 550.6280155055707,259.9236020943365" fill="none" stroke="black" stroke-linecap="round" stroke-linejoin="round" stroke-width="2" /><path d="M 549.0046262623857,259.4066119770281 L 528.4325367963306,259.66686663343734 L 507.8604473302755,259.94146877673677 L 487.2883578642204,258.5521171566723 L 466.7162683981653,259.62645668697877 L 446.1441789321102,259.1872343970511 L 425.5720894660551,260.55019401334 L 405.0,260.2877694433083" fill="none" stroke="black" stroke-linecap="round" stroke-linejoin="round" stroke-width="2" /><path d="M 405.62232439178166,259.9236020943365 L 405.3417027769566,229.96180104716825 L 404.96240579731,200.0" fill="none" stroke="black" stroke-linecap="round" stroke-linejoin="round" stroke-width="2" /><path d="M 404.8019147317804,200.97613305659863 L 425.3740041978355,199.93336858059163 L 445.9460936638906,199.47468738647243 L 466.5181831299457,200.21152732217212 L 487.0902725960009,198.37511185263946 L 507.662362062056,200.09883795252128 L 528.2344515281111,198.78755986675333 L 548.8065409941662,199.7177473707035" fill="none" stroke="black" stroke-linecap="round" stroke-linejoin="round" stroke-width="2" /><path d="M 549.0980492290239,199.91061863867532 L 548.3374100977306,229.87241968584357 L 549.0419543880325,259.8342207330118" fill="none" stroke="black" stroke-linecap="round" stroke-linejoin="round" stroke-width="2" /><path d="M 548.8065409941662,259.29569229653424 L 528.2344515281111,262.27223343040174 L 507.662362062056,259.6718278592409 L 487.0902725960009,259.3548124974392 L 466.5181831299458,258.83537692695734 L 445.9460936638906,256.77555094467647 L 425.3740041978355,259.68532499696454 L 404.8019147317804,258.8193030663092" fill="none" stroke="black" stroke-linecap="round" stroke-linejoin="round" stroke-width="2" /><path d="M 404.05604609003876,259.8342207330118 L 403.1842487898426,229.87241968584357 L 404.5738273404804,199.91061863867532" fill="none" stroke="black" stroke-linecap="round" stroke-linejoin="round" stroke-width="2" /><path d="M 404.76931128604474,199.64333162046205 L 425.34140075209984,199.1434360164199 L 445.91349021815495,199.02439794121474 L 466.48557968421005,198.12976264326895 L 487.05766915026516,198.89376439543275 L 507.62975861632026,199.68524926454867 L 528.2018480823754,199.2187532636761 L 548.7739375484305,200.16754552645588" fill="none" stroke="black" stroke-linecap="round" stroke-linejoin="round" stroke-width="2" /><path d="M 549.7264503538755,199.86722719988757 L 549.1713507522671,229.82902824705582 L 548.9482165131327,259.79082929422407" fill="none" stroke="black" stroke-linecap="round" stroke-linejoin="round" stroke-width="2" /><path d="M 548.7739375484305,258.527559453848 L 528.2018480823754,258.5259850557699 L 507.62975861632026,260.42307404741695 L 487.05766915026516,260.0185124422831 L 466.48557968421005,261.1221643008317 L 445.91349021815495,261.3693048445168 L 425.34140075209984,259.20542183391206 L 404.76931128604474,259.14666327185773" fill="none" stroke="black" stroke-linecap="round" stroke-linejoin="round" stroke-width="2" /><path d="M 405.976714227069,259.79082929422407 L 404.47124492419357,229.82902824705582 L 403.7929409684987,199.86722719988757" fill="none" stroke="black" stroke-linecap="round" stroke-linejoin="round" stroke-width="2" /><text dominant-baseline="middle" fill="black" font-family="Virgil, Comic Sans MS, cursive" font-size="16px" text-anchor="middle" x="477.0" y="230.0">Order Service</text><path d="M 631.0,199.5966628120493 L 653.847965076898,199.74351726365538 L 676.6959301537961,200.56096546966853 L 699.5438952306941,200.098716986038 L 722.3918603075922,201.49212208092484 L 745.2398253844904,200.35982327115795 L 768.0877904613884,200.26354029022082 L 790.9357555382865,200.08230537035914" fill="none" stroke="black" stroke-linecap="round" stroke-linejoin="round" stroke-width="2" /><path d="M 791.3063774503706,200.0 L 790.9963014082459,229.9104783444441 L 791.7359424022029,259.8209566888882" fill="none" stroke="black" stroke-linecap="round" stroke-linejoin="round" stroke-width="2" /><path d="M 790.9357555382865,259.57574716379344 L 768.0877904613884,260.249870223254 L 745.2398253844904,259.27309039796415 L 722.3918603075923,259.2643149341833 L 699.5438952306943,259.6300506792937 L 676.6959301537961,258.8643084988298 L 653.847965076898,260.6676054441954 L 631.0,259.30322812089975" fill="none" stroke="black" stroke-linecap="round" stroke-linejoin="round" stroke-width="2" /><path d="M 632.0847642362448,259.8209566888882 L 631.7962184180968,229.9104783444441 L 631.602134836838,200.0" fill="none" stroke="black" stroke-linecap="round" stroke-linejoin="round" stroke-width="2" /><path d="M 630.9396245862066,198.62286435466294 L 653.7875896631047,200.5360183371478 L 676.6355547400027,199.0196998309463 L 699.4835198169008,201.73806639800355 L 722.3314848937989,199.99727010700312 L 745.179449970697,198.7588496482296 L 768.027415047595,199.62294366395528 L 790.8753801244931,199.29473929164945" fill="none" stroke="black" stroke-linecap="round" stroke-linejoin="round" stroke-width="2" /><path d="M 789.4684148871315,199.89461084668517 L 792.3857164412574,229.80508919112927 L 791.0018072918838,259.71556753557337" fill="none" stroke="black" stroke-linecap="round" stroke-linejoin="round" stroke-width="2" /><path d="M 790.8753801244931,260.0373402424279 L 768.027415047595,259.2287002162661 L 745.179449970697,261.01461163426336 L 722.3314848937989,260.73002447489705 L 699.4835198169008,260.7553330448258 L 676.6355547400027,259.39964954177367 L 653.7875896631047,259.8592443031368 L 630.9396245862066,259.6261052746189" fill="none" stroke="black" stroke-linecap="round" stroke-linejoin="round" stroke-width="2" /><path d="M 630.628007487968,259.71556753557337 L 630.4053964262306,229.80508919112927 L 631.8881678291353,199.89461084668517" fill="none" stroke="black" stroke-linecap="round" stroke-linejoin="round" stroke-width="2" /><path d="M 630.8062149999713,198.76433087832768 L 653.6541800768694,199.95484860383573 L 676.5021451537674,199.8823357833954 L 699.3501102306655,198.28187399930496 L 722.1980753075636,201.37679490254598 L 745.0460403844617,200.56865353801257 L 767.8940054613597,198.60788611360812 L 790.7419705382578,200.987154406034" fill="none" stroke="black" stroke-linecap="round" stroke-linejoin="round" stroke-width="2" /><path d="M 791.860574051087,199.85094265342897 L 791.2574397636706,229.76142099787307 L 789.8823567531098,259.67189934231715" fill="none" stroke="black" stroke-linecap="round" stroke-linejoin="round" stroke-width="2" /><path d="M 790.7419705382578,259.4761091871302 L 767.8940054613597,260.63281122619054 L 745.0460403844617,258.34451742741857 L 722.1980753075636,260.00269361821705 L 699.3501102306655,260.0264353199596 L 676.5021451537674,259.681655495424 L 653.6541800768694,259.2440067700957 L 630.8062149999713,261.5290415240987" fill="none" stroke="black" stroke-linecap="round" stroke-linejoin="round" stroke-width="2" /><path d="M 629.2547699819163,259.67189934231715 L 630.3519401185254,229.76142099787307 L 631.5323494328868,199.85094265342897" fill="none" stroke="black" stroke-linecap="round" stroke-linejoin="round" stroke-width="2" /><text dominant-baseline="middle" fill="black" font-family="Virgil, Comic Sans MS, cursive" font-size="16px" text-anchor="middle" x="711.0" y="230.0">Payment Service</text><text dominant-baseline="middle" fill="black" font-family="Virgil, Comic Sans MS, cursive" font-size="16px" text-anchor="middle" x="264.0" y="310.0">User DB</text><text dominant-baseline="middle" fill="black" font-family="Virgil, Comic Sans MS, cursive" font-size="16px" text-anchor="middle" x="405.0" y="310.0">Order DB</text><text dominant-baseline="middle" fill="black" font-family="Virgil, Comic Sans MS, cursive" font-size="16px" text-anchor="middle" x="711.0" y="310.0">Payment DB</text><path d="M 477.0,279.4475515991073 L 497.54206058496976,281.5131496539103 L 518.0841211699395,279.6843059058716 L 538.6261817549092,279.81017908998746 L 559.1682423398789,280.67053286268174 L 579.7103029248487,281.00906716951124 L 600.2523635098185,278.96263594293794 L 620.7944240947882,280.11162701232877" fill="none" stroke="black" stroke-linecap="round" stroke-linejoin="round" stroke-width="2" /><path d="M 620.2013187834078,280.0 L 620.6166166032308,300.1581912199087 L 619.8610903621208,320.31638243981735 L 618.9995513697472,340.47457365972605" fill="none" stroke="black" stroke-linecap="round" stroke-linejoin="round" stroke-width="2" /><path d="M 620.7944240947882,340.7049711237785 L 600.2523635098185,340.7651020845808 L 579.7103029248486,340.3873520222954 L 559.1682423398789,340.97693758287323 L 538.6261817549092,342.3703569291617 L 518.0841211699394,342.58544409288146 L 497.54206058496976,339.2232407828452 L 477.0,341.4041641829232" fill="none" stroke="black" stroke-linecap="round" stroke-linejoin="round" stroke-width="2" /><path d="M 477.0079887960111,340.47457365972605 L 475.8756764580401,320.31638243981735 L 477.4226871610343,300.1581912199087 L 477.5441905393025,280.0" fill="none" stroke="black" stroke-linecap="round" stroke-linejoin="round" stroke-width="2" /><path d="M 477.1145911702133,279.05809956773817 L 497.6566517551831,277.7514829123412 L 518.1987123401528,280.38065517339555 L 538.7407729251225,279.8417167461826 L 559.2828335100922,280.7165899442477 L 579.8248940950621,282.2644857356752 L 600.3669546800318,279.7341092415756 L 620.9090152650015,279.274130178741" fill="none" stroke="black" stroke-linecap="round" stroke-linejoin="round" stroke-width="2" /><path d="M 621.4923742278721,280.1004932439652 L 621.8644231230484,300.2586844638739 L 623.2702649593574,320.41687568378256 L 621.4844470420976,340.57506690369127" fill="none" stroke="black" stroke-linecap="round" stroke-linejoin="round" stroke-width="2" /><path d="M 620.9090152650015,341.15576046930823 L 600.3669546800318,342.6092160527486 L 579.824894095062,340.39921067353526 L 559.2828335100922,341.5263449119893 L 538.7407729251225,339.9040132056069 L 518.1987123401527,339.683637285717 L 497.6566517551831,340.77106703160484 L 477.1145911702133,339.56800342683255" fill="none" stroke="black" stroke-linecap="round" stroke-linejoin="round" stroke-width="2" /><path d="M 476.74330276839197,340.57506690369127 L 477.31394175897526,320.41687568378256 L 476.2350836394329,300.2586844638739 L 474.6504404821406,280.1004932439652" fill="none" stroke="black" stroke-linecap="round" stroke-linejoin="round" stroke-width="2" /><path d="M 477.0316205918776,280.399005659264 L 497.5736811768473,280.65524979571387 L 518.115741761817,280.1171785780671 L 538.6578023467868,279.6190341986664 L 559.1998629317565,279.46996565863066 L 579.7419235167263,279.9596570008682 L 600.283984101696,278.4151416455656 L 620.8260446866657,279.98879004289347" fill="none" stroke="black" stroke-linecap="round" stroke-linejoin="round" stroke-width="2" /><path d="M 621.5756974134434,279.7833469433636 L 620.6174127701693,299.9415381632723 L 621.2664295844287,320.09972938318094 L 621.5469583416608,340.25792060308964" fill="none" stroke="black" stroke-linecap="round" stroke-linejoin="round" stroke-width="2" /><path d="M 620.8260446866657,340.34592769411495 L 600.283984101696,340.46730196205795 L 579.7419235167263,341.2812922969732 L 559.1998629317565,340.67721161417177 L 538.6578023467868,339.8820845146482 L 518.115741761817,341.33256762786476 L 497.57368117684734,340.88245988229596 L 477.0316205918776,339.56514946183137" fill="none" stroke="black" stroke-linecap="round" stroke-linejoin="round" stroke-width="2" /><path d="M 477.1366695683991,340.25792060308964 L 477.07450132703224,320.09972938318094 L 478.55570370658523,299.9415381632723 L 477.0390858862853,279.7833469433636" fill="none" stroke="black" stroke-linecap="round" stroke-linejoin="round" stroke-width="2" /><text dominant-baseline="middle" fill="black" font-family="Virgil, Comic Sans MS, cursive" font-size="16px" text-anchor="middle" x="549.0" y="310.0">Message Queue</text><path d="M 449.0,361.2231791433207 L 469.00938722893443,359.23347064177455 L 489.01877445786886,359.47300659009437 L 509.0281616868033,358.4632162421677 L 529.0375489157377,361.56126507807517 L 549.0469361446721,359.34587770238335 L 569.0563233736066,359.66723332594285 L 589.065710602541,360.80502051558256 L 609.0750978314755,359.4642940198187 L 629.08448506041,360.82637587058053 L 649.0938722893444,359.230363791981" fill="none" stroke="black" stroke-linecap="round" stroke-linejoin="round" stroke-width="2" /><path d="M 647.9672201154989,360.0 L 648.4899798667186,389.91628531831213 L 648.5035724066626,419.8325706366243" fill="none" stroke="black" stroke-linecap="round" stroke-linejoin="round" stroke-width="2" /><path d="M 649.0938722893444,420.3188277125648 L 629.08448506041,418.52441477150415 L 609.0750978314755,420.09920013469366 L 589.0657106025411,419.1157247258559 L 569.0563233736066,419.1909908691165 L 549.0469361446721,418.66157879842365 L 529.0375489157377,420.2940208024924 L 509.02816168680334,419.20535408706587 L 489.01877445786886,418.76438215876686 L 469.00938722893443,418.8613106940942 L 449.0,420.8950510209882" fill="none" stroke="black" stroke-linecap="round" stroke-linejoin="round" stroke-width="2" /><path d="M 449.86559413648337,419.8325706366243 L 449.61440570114485,389.91628531831213 L 448.64879469504143,360.0" fill="none" stroke="black" stroke-linecap="round" stroke-linejoin="round" stroke-width="2" /><path d="M 448.85367456072674,359.7329976602065 L 468.8630617896612,359.4479605938326 L 488.8724490185956,360.78173988931445 L 508.88183624753003,359.11086629246245 L 528.8912234764646,360.6446248973535 L 548.900610705399,359.2305409646668 L 568.9099979343334,360.262476163704 L 588.9193851632679,361.0388023745621 L 608.9287723922023,360.20122789601936 L 628.9381596211367,360.3651581726784 L 648.9475468500711,358.38344865016023" fill="none" stroke="black" stroke-linecap="round" stroke-linejoin="round" stroke-width="2" /><path d="M 648.2608190857884,359.9686885457284 L 648.7392664567795,389.8849738640406 L 649.4302001897026,419.80125918235274" fill="none" stroke="black" stroke-linecap="round" stroke-linejoin="round" stroke-width="2" /><path d="M 648.9475468500711,419.48522485666865 L 628.9381596211367,420.27424838523234 L 608.9287723922023,420.43718852413735 L 588.9193851632679,420.3951850554687 L 568.9099979343334,419.4406339299291 L 548.900610705399,420.0541913755848 L 528.8912234764646,419.7789664546992 L 508.8818362475301,418.851412324307 L 488.8724490185956,419.78712430599506 L 468.8630617896612,420.5067739552748 L 448.85367456072674,418.48655746604504" fill="none" stroke="black" stroke-linecap="round" stroke-linejoin="round" stroke-width="2" /><path d="M 447.6529685086226,419.80125918235274 L 448.6625028579529,389.8849738640406 L 450.14912372865047,359.9686885457284" fill="none" stroke="black" stroke-linecap="round" stroke-linejoin="round" stroke-width="2" /><path d="M 448.9627245507683,359.59311584763276 L 468.97211177970274,361.32840932139004 L 488.98149900863723,360.3984089180535 L 508.99088623757166,359.79457159673063 L 529.0002734665061,359.9210044334097 L 549.0096606954405,360.717984953628 L 569.019047924375,359.64855868753045 L 589.0284351533094,357.76321255053097 L 609.0378223822439,359.5626225855353 L 629.0472096111783,360.6783648463962 L 649.0565968401128,361.7482836898883" fill="none" stroke="black" stroke-linecap="round" stroke-linejoin="round" stroke-width="2" /><path d="M 650.2531936010129,360.1055073353068 L 647.9947644735012,390.02179265361895 L 648.8941525541723,419.93807797193114" fill="none" stroke="black" stroke-linecap="round" stroke-linejoin="round" stroke-width="2" /><path d="M 649.0565968401128,418.90386156549033 L 629.0472096111783,419.56337501915675 L 609.0378223822439,422.0356246932634 L 589.0284351533095,420.73597312223393 L 569.019047924375,422.3730002955081 L 549.0096606954405,419.47671649185867 L 529.0002734665061,419.01182208981146 L 508.99088623757166,420.8142013913325 L 488.98149900863723,420.8616063126254 L 468.97211177970274,417.8874328289192 L 448.9627245507683,421.5395799945373" fill="none" stroke="black" stroke-linecap="round" stroke-linejoin="round" stroke-width="2" /><path d="M 449.1294373530013,419.93807797193114 L 449.83176603909135,390.02179265361895 L 448.80891571222674,360.1055073353068" fill="none" stroke="black" stroke-linecap="round" stroke-linejoin="round" stroke-width="2" /><text dominant-baseline="middle" fill="black" font-family="Virgil, Comic Sans MS, cursive" font-size="16px" text-anchor="middle" x="549.0" y="390.0">Notification Service</text></g></svg>