<?xml version="1.0" encoding="utf-8" ?>
<svg baseProfile="full" height="668.0px" version="1.1" viewBox="0 0 521.6 668.0" width="521.6px" xmlns="http://www.w3.org/2000/svg" xmlns:ev="http://www.w3.org/2001/xml-events" xmlns:xlink="http://www.w3.org/1999/xlink"><defs /><rect fill="white" height="668.0" width="521.6" x="0" y="0" /><g><path d="M 260.8736330912558,70.04241266056331 L 247.02911117871687,95.36236803894091 L 231.73328823342325,119.84637402245178" fill="none" stroke="black" stroke-linecap="round" stroke-linejoin="round" stroke-width="2" /><path d="M 233.09917806334118,111.29574086066917 L 233.09167720286163,115.67895379815023 L 231.73328823342325,119.84637402245178" fill="none" stroke="black" stroke-linecap="round" stroke-linejoin="round" stroke-width="2" /><path d="M 238.81876162180833,114.8689199184608 L 235.94869507280077,118.3152020404363 L 231.73328823342325,119.84637402245178" fill="none" stroke="black" stroke-linecap="round" stroke-linejoin="round" stroke-width="2" /><path d="M 232.49910848058465,180.0 L 230.60004041056808,190.0 L 230.57208505175868,200.0" fill="none" stroke="black" stroke-linecap="round" stroke-linejoin="round" stroke-width="2" /><path d="M 227.47734927843632,192.6228318106933 L 228.15824153082838,196.67490404514152 L 230.57208505175868,200.0" fill="none" stroke="black" stroke-linecap="round" stroke-linejoin="round" stroke-width="2" /><path d="M 233.70801840901768,192.6402498698101 L 234.24346894717723,197.21637495666923 L 230.57208505175868,200.0" fill="none" stroke="black" stroke-linecap="round" stroke-linejoin="round" stroke-width="2" /><path d="M 320.10082747584545,242.52145131274943 L 330.408810686755,264.7186745437374 L 336.7659814524945,288.290093407828 L 345.2215634741329,311.13163009595377 L 353.72129227736775,333.9578113817851" fill="none" stroke="black" stroke-linecap="round" stroke-linejoin="round" stroke-width="2" /><path d="M 343.67297608877226,323.31044873862623 L 349.8562948217097,327.5401866114109 L 353.72129227736775,333.9578113817851" fill="none" stroke="black" stroke-linecap="round" stroke-linejoin="round" stroke-width="2" /><path d="M 354.3585134152176,319.33150157027075 L 354.0992275231135,326.64724106083116 L 353.72129227736775,333.9578113817851" fill="none" stroke="black" stroke-linecap="round" stroke-linejoin="round" stroke-width="2" /><text fill="black" font-family="Virgil, Comic Sans MS, cursive" font-size="14px" text-anchor="middle" x="330.408810686755" y="254.7186745437374">No</text><path d="M 232.2917328788218,284.0 L 232.28731341874285,294.0 L 232.76759554295157,304.0" fill="none" stroke="black" stroke-linecap="round" stroke-linejoin="round" stroke-width="2" /><path d="M 229.30234785711207,296.7894481157276 L 230.6719405302087,300.5691896107518 L 232.76759554295157,304.0" fill="none" stroke="black" stroke-linecap="round" stroke-linejoin="round" stroke-width="2" /><path d="M 235.5258675436073,296.49054359021915 L 233.62054873339235,300.05200143936884 L 232.76759554295157,304.0" fill="none" stroke="black" stroke-linecap="round" stroke-linejoin="round" stroke-width="2" /><text fill="black" font-family="Virgil, Comic Sans MS, cursive" font-size="14px" text-anchor="middle" x="232.28731341874285" y="284.0">Yes</text><path d="M 229.1950159796073,364.0 L 231.4023709586432,374.0 L 232.54040454558893,384.0" fill="none" stroke="black" stroke-linecap="round" stroke-linejoin="round" stroke-width="2" /><path d="M 228.61185700128132,377.0310320568886 L 230.06391296502693,380.8042635201531 L 232.54040454558893,384.0" fill="none" stroke="black" stroke-linecap="round" stroke-linejoin="round" stroke-width="2" /><path d="M 234.80259071475498,376.32650576751155 L 235.0449714455593,380.56816013653327 L 232.54040454558893,384.0" fill="none" stroke="black" stroke-linecap="round" stroke-linejoin="round" stroke-width="2" /><path d="M 231.2545323712506,467.7614503588002 L 222.9376539614566,492.6600492676661 L 217.95926840004933,518.6269658880158" fill="none" stroke="black" stroke-linecap="round" stroke-linejoin="round" stroke-width="2" /><path d="M 216.28706551247876,510.8036841276034 L 217.21944177648982,514.6947465552737 L 217.95926840004933,518.6269658880158" fill="none" stroke="black" stroke-linecap="round" stroke-linejoin="round" stroke-width="2" /><path d="M 222.40631225054418,511.97686806980465 L 222.10954657588024,516.5903746482238 L 217.95926840004933,518.6269658880158" fill="none" stroke="black" stroke-linecap="round" stroke-linejoin="round" stroke-width="2" /><text fill="black" font-family="Virgil, Comic Sans MS, cursive" font-size="14px" text-anchor="middle" x="222.9376539614566" y="482.6600492676661">Staging</text><path d="M 230.7700903648654,468.0983927708108 L 233.65626465112996,493.0274988279096 L 236.61146384793395,517.9510828921652" fill="none" stroke="black" stroke-linecap="round" stroke-linejoin="round" stroke-width="2" /><path d="M 232.65018111236083,511.0006700203388 L 234.37814251381678,514.6198875828871 L 236.61146384793395,517.9510828921652" fill="none" stroke="black" stroke-linecap="round" stroke-linejoin="round" stroke-width="2" /><path d="M 238.83753259631018,510.2670333134924 L 237.78784198727362,514.1274087881758 L 236.61146384793395,517.9510828921652" fill="none" stroke="black" stroke-linecap="round" stroke-linejoin="round" stroke-width="2" /><text fill="black" font-family="Virgil, Comic Sans MS, cursive" font-size="14px" text-anchor="middle" x="233.65626465112996" y="483.0274988279096">Production</text><path d="M 128.4905028120318,548.0 L 127.58617294392072,558.0 L 128.28050906529728,568.0" fill="none" stroke="black" stroke-linecap="round" stroke-linejoin="round" stroke-width="2" /><path d="M 124.6622529597913,560.8650001573252 L 127.02154793228549,564.1535029013263 L 128.28050906529728,568.0" fill="none" stroke="black" stroke-linecap="round" stroke-linejoin="round" stroke-width="2" /><path d="M 130.87798135616478,560.4334196826984 L 129.7971303830927,564.2915059413135 L 128.28050906529728,568.0" fill="none" stroke="black" stroke-linecap="round" stroke-linejoin="round" stroke-width="2" /><path d="M 336.34488125648215,548.0 L 337.2537733271258,558.0 L 336.9330218819527,568.0" fill="none" stroke="black" stroke-linecap="round" stroke-linejoin="round" stroke-width="2" /><path d="M 334.0555002974313,560.5354256966245 L 335.2752018738229,564.3521580686736 L 336.9330218819527,568.0" fill="none" stroke="black" stroke-linecap="round" stroke-linejoin="round" stroke-width="2" /><path d="M 340.2829911302238,560.7351733650665 L 337.6124150947898,563.9084978729456 L 336.9330218819527,568.0" fill="none" stroke="black" stroke-linecap="round" stroke-linejoin="round" stroke-width="2" /><path d="M 417.04938784747276,304.25047454781634 L 407.8196673130398,286.06591961089526 L 400.9476473433801,266.80884206411656 L 393.6701732674553,247.73620638528595 L 384.0993013787726,229.7068418683373 L 376.49839087842133,210.78133805316733 L 367.02724461519267,192.70660815365926 L 359.62457291979905,173.6909251174105 L 350.3747613177353,155.51550964654894 L 341.8160256195264,137.02572239197303 L 334.01395484066853,118.19172678192763 L 323.85859356941273,100.42824763116913" fill="none" stroke="black" stroke-linecap="round" stroke-linejoin="round" stroke-width="2" /><path d="M 339.76274533875744,112.55499313429769 L 331.742107892661,106.58153844674737 L 323.85859356941273,100.42824763116913" fill="none" stroke="black" stroke-linecap="round" stroke-linejoin="round" stroke-width="2" /><path d="M 326.2399280641331,120.28597272807423 L 323.483355595123,110.54489322634937 L 323.85859356941273,100.42824763116913" fill="none" stroke="black" stroke-linecap="round" stroke-linejoin="round" stroke-width="2" /><path d="M 260.8,40.36631341109976 L 282.12169389335963,39.093830217023516 L 303.44338778671926,38.39117587948626 L 324.7650816800789,40.49356697658972 L 346.0867755734385,39.738739355032884 L 367.4084694667981,41.06287311909458 L 388.73016336015775,40.10519553985588" fill="none" stroke="black" stroke-linecap="round" stroke-linejoin="round" stroke-width="2" /><path d="M 388.67048649401136,40.0 L 387.9345870860958,69.98211053012196 L 389.49376361623354,99.96422106024391" fill="none" stroke="black" stroke-linecap="round" stroke-linejoin="round" stroke-width="2" /><path d="M 388.73016336015775,100.66387650882525 L 367.4084694667981,100.3412724959912 L 346.0867755734385,100.01409656391957 L 324.7650816800789,100.37646962756776 L 303.44338778671926,98.70379482759695 L 282.12169389335963,99.49372570579224 L 260.8,100.11363316377007" fill="none" stroke="black" stroke-linecap="round" stroke-linejoin="round" stroke-width="2" /><path d="M 260.07354815528254,99.96422106024391 L 261.70567944061213,69.98211053012196 L 260.4851748233613,40.0" fill="none" stroke="black" stroke-linecap="round" stroke-linejoin="round" stroke-width="2" /><path d="M 260.63279403303153,39.18647655397821 L 281.95448792639115,39.60553269370597 L 303.2761818197508,39.65594964282854 L 324.5978757131104,40.13522359892938 L 345.91956960647,40.030658903164586 L 367.24126349982964,40.48706829532121 L 388.56295739318927,42.17173030789306" fill="none" stroke="black" stroke-linecap="round" stroke-linejoin="round" stroke-width="2" /><path d="M 388.54022021180896,40.18954996424282 L 388.33476659497234,70.17166049436477 L 389.3649146586485,100.15377102448673" fill="none" stroke="black" stroke-linecap="round" stroke-linejoin="round" stroke-width="2" /><path d="M 388.56295739318927,99.99638263480207 L 367.24126349982964,101.15856235911 L 345.91956960647,101.39742774251778 L 324.5978757131104,98.88841353627843 L 303.2761818197508,97.76237902274404 L 281.95448792639115,100.35662645015482 L 260.63279403303153,100.98618574844184" fill="none" stroke="black" stroke-linecap="round" stroke-linejoin="round" stroke-width="2" /><path d="M 260.38905235053136,100.15377102448673 L 260.3417213392196,70.17166049436477 L 261.7314250764939,40.18954996424282" fill="none" stroke="black" stroke-linecap="round" stroke-linejoin="round" stroke-width="2" /><path d="M 261.1473832560371,38.62043191297808 L 282.4690771493967,41.66429473547948 L 303.7907710427563,40.26676605893114 L 325.11246493611594,39.766096136070665 L 346.43415882947556,37.953079976666956 L 367.7558527228352,39.794724716090876 L 389.0775466161948,39.5643256877835" fill="none" stroke="black" stroke-linecap="round" stroke-linejoin="round" stroke-width="2" /><path d="M 387.4083482417171,40.137920157469715 L 387.6333936983295,70.12003068759167 L 390.35759134509067,100.10214121771362" fill="none" stroke="black" stroke-linecap="round" stroke-linejoin="round" stroke-width="2" /><path d="M 389.0775466161948,100.66468931546717 L 367.7558527228352,101.2591803021423 L 346.43415882947556,99.2885436742844 L 325.11246493611594,99.25232772425461 L 303.7907710427563,100.58898884704912 L 282.4690771493967,100.5284401776088 L 261.1473832560371,99.79593913848119" fill="none" stroke="black" stroke-linecap="round" stroke-linejoin="round" stroke-width="2" /><path d="M 261.3393877006531,100.10214121771362 L 261.4137223136114,70.12003068759167 L 260.65194411884835,40.137920157469715" fill="none" stroke="black" stroke-linecap="round" stroke-linejoin="round" stroke-width="2" /><text dominant-baseline="middle" fill="black" font-family="Virgil, Comic Sans MS, cursive" font-size="16px" text-anchor="middle" x="324.8" y="70.0">Code Commit</text><path d="M 182.0,119.90731900797223 L 202.02663765398646,120.30261666894435 L 222.0532753079729,120.0000875509164 L 242.0799129619594,120.85048713020143 L 262.1065506159458,119.91971730891966 L 282.1331882699323,122.64453983571829" fill="none" stroke="black" stroke-linecap="round" stroke-linejoin="round" stroke-width="2" /><path d="M 281.9615202445494,120.0 L 281.7621446810334,140.0048334126323 L 281.8974182874081,160.00966682526462 L 283.59369861176924,180.01450023789695" fill="none" stroke="black" stroke-linecap="round" stroke-linejoin="round" stroke-width="2" /><path d="M 282.1331882699323,180.11137088798043 L 262.1065506159458,179.8493779822747 L 242.0799129619594,182.0481703473007 L 222.0532753079729,181.83327227747398 L 202.02663765398646,179.67160040411758 L 182.0,178.97579325070373" fill="none" stroke="black" stroke-linecap="round" stroke-linejoin="round" stroke-width="2" /><path d="M 183.0120593542576,180.01450023789695 L 183.03682835637824,160.00966682526465 L 181.07997095588078,140.0048334126323 L 183.84995251392493,120.0" fill="none" stroke="black" stroke-linecap="round" stroke-linejoin="round" stroke-width="2" /><path d="M 182.03135923325135,120.00229619252701 L 202.0579968872378,119.48603420619546 L 222.08463454122426,120.01776405204926 L 242.11127219521074,120.24088257102157 L 262.1379098491972,119.32833081185875 L 282.16454750318366,121.19367523885879" fill="none" stroke="black" stroke-linecap="round" stroke-linejoin="round" stroke-width="2" /><path d="M 281.435067373104,120.21748981522244 L 283.8698921110267,140.22232322785476 L 281.1578774322041,160.22715664048707 L 281.74572195296616,180.23199005311938" fill="none" stroke="black" stroke-linecap="round" stroke-linejoin="round" stroke-width="2" /><path d="M 282.16454750318366,179.96137271582617 L 262.1379098491972,179.36700959828053 L 242.11127219521074,181.29734508544098 L 222.08463454122426,177.5440510300032 L 202.0579968872378,181.3157389009043 L 182.03135923325135,178.2241632950879" fill="none" stroke="black" stroke-linecap="round" stroke-linejoin="round" stroke-width="2" /><path d="M 182.06418615169227,180.23199005311938 L 182.9406910291803,160.22715664048707 L 181.91968490368637,140.22232322785476 L 182.42234932911722,120.21748981522244" fill="none" stroke="black" stroke-linecap="round" stroke-linejoin="round" stroke-width="2" /><path d="M 181.92378736970124,119.30279850435123 L 201.9504250236877,120.41972409904756 L 221.97706267767416,120.94747387893524 L 242.00370033166064,121.16714487788278 L 262.03033798564707,120.06958185185661 L 282.05697563963355,119.70864737069762" fill="none" stroke="black" stroke-linecap="round" stroke-linejoin="round" stroke-width="2" /><path d="M 282.8685433737527,120.03335253990686 L 281.12992779362867,140.03818595253918 L 281.7927932967479,160.0430193651715 L 282.76752858027373,180.0478527778038" fill="none" stroke="black" stroke-linecap="round" stroke-linejoin="round" stroke-width="2" /><path d="M 282.05697563963355,182.31589689687803 L 262.03033798564707,180.7638785712667 L 242.00370033166064,180.79805631864826 L 221.97706267767416,182.55473460159658 L 201.9504250236877,178.63016163895554 L 181.92378736970124,180.1190933823032" fill="none" stroke="black" stroke-linecap="round" stroke-linejoin="round" stroke-width="2" /><path d="M 180.71142353505888,180.0478527778038 L 182.51343090442776,160.0430193651715 L 182.7758477916139,140.03818595253918 L 181.71513326774567,120.03335253990686" fill="none" stroke="black" stroke-linecap="round" stroke-linejoin="round" stroke-width="2" /><text dominant-baseline="middle" fill="black" font-family="Virgil, Comic Sans MS, cursive" font-size="16px" text-anchor="middle" x="232.0" y="150.0">Build</text><path d="M 231.61812301251985,200.8146709066244 L 254.3466378106932,210.6138393371879 L 276.0528576829456,222.5939036097161 L 299.3288820368698,231.22505165467783 L 321.3071931710713,242.62465456838132" fill="none" stroke="black" stroke-linecap="round" stroke-linejoin="round" stroke-width="2" /><path d="M 322.06359227676245,242.98899685709313 L 298.2897470560275,250.55812705285862 L 276.9080744604971,263.23055884906057 L 254.07249608938938,272.80132499069725 L 232.17819616383454,284.38015181618033" fill="none" stroke="black" stroke-linecap="round" stroke-linejoin="round" stroke-width="2" /><path d="M 232.25689641967313,283.4519543046974 L 209.97725144416117,272.6951969191229 L 186.48755667177423,264.51987910021506 L 164.73505926320493,252.63854023849626 L 142.65200509553992,241.4623891295149" fill="none" stroke="black" stroke-linecap="round" stroke-linejoin="round" stroke-width="2" /><path d="M 142.58244613879748,242.38921842943455 L 165.13372562111593,232.21194799171388 L 187.42439855919707,221.478716926287 L 209.4650739811634,210.21215782648193 L 231.97722770784085,199.9514191100604" fill="none" stroke="black" stroke-linecap="round" stroke-linejoin="round" stroke-width="2" /><path d="M 231.7766437929775,200.21142862149756 L 254.4651414285483,210.28493634833984 L 276.5092651111565,221.7257619750862 L 299.1014772786363,232.00358094606895 L 321.2035864363566,243.32136532061884" fill="none" stroke="black" stroke-linecap="round" stroke-linejoin="round" stroke-width="2" /><path d="M 320.8935275961172,240.44145283065336 L 299.9159738218978,254.14546758932215 L 277.4132230232479,264.6131175278487 L 254.24754419826775,273.6740790790161 L 231.77153434650745,284.19847149630755" fill="none" stroke="black" stroke-linecap="round" stroke-linejoin="round" stroke-width="2" /><path d="M 231.87513286431522,284.6417013299054 L 209.7078078309523,273.4623006279327 L 187.42010954264038,262.538323822914 L 163.9223955237986,254.18191847219182 L 142.66633998146497,241.06886560909106" fill="none" stroke="black" stroke-linecap="round" stroke-linejoin="round" stroke-width="2" /><path d="M 142.42760223002023,242.84529106370445 L 165.34964760797098,233.26735583350037 L 186.72633318331955,220.41027173302413 L 209.45733452285785,210.42695398822522 L 232.44522473580565,200.98873703976383" fill="none" stroke="black" stroke-linecap="round" stroke-linejoin="round" stroke-width="2" /><path d="M 232.4556828354396,198.88296148268822 L 254.33367339433286,210.55347516465002 L 276.22957535904334,222.18578051191855 L 299.1882884437498,231.55091356668777 L 321.97423873725825,241.28458154361743" fill="none" stroke="black" stroke-linecap="round" stroke-linejoin="round" stroke-width="2" /><path d="M 321.73192642502823,242.2724296802279 L 299.4306402340628,253.0399756471232 L 276.84994610274094,263.21149290415457 L 254.7626263941092,274.43546887177496 L 232.254114779596,284.7609647605992" fill="none" stroke="black" stroke-linecap="round" stroke-linejoin="round" stroke-width="2" /><path d="M 233.14815446859615,281.4927075074722 L 209.50931812227267,273.57840290680133 L 186.78808633890782,263.70667840200065 L 164.71742759782984,252.4471615153086 L 142.17344109752156,242.19734010583528" fill="none" stroke="black" stroke-linecap="round" stroke-linejoin="round" stroke-width="2" /><path d="M 142.4568639865571,242.4811613424493 L 165.3692006806043,233.0170988862553 L 186.839410809573,220.4767142792021 L 210.34087960896196,212.26937934563472 L 231.85770257118915,199.82842851571294" fill="none" stroke="black" stroke-linecap="round" stroke-linejoin="round" stroke-width="2" /><text dominant-baseline="middle" fill="black" font-family="Virgil, Comic Sans MS, cursive" font-size="16px" text-anchor="middle" x="232.00000000000003" y="242.0">Tests Pass?</text><path d="M 353.6,303.8624519159844 L 374.925281812187,303.98001481101653 L 396.25056362437397,303.74542270898854 L 417.57584543656094,303.0235391689167 L 438.9011272487479,304.6283140336717 L 460.2264090609349,305.9665283433148 L 481.55169087312186,303.3624407641415" fill="none" stroke="black" stroke-linecap="round" stroke-linejoin="round" stroke-width="2" /><path d="M 481.2501643043394,304.0 L 480.8986474657652,333.94354620779325 L 482.0086736377107,363.8870924155865" fill="none" stroke="black" stroke-linecap="round" stroke-linejoin="round" stroke-width="2" /><path d="M 481.55169087312186,365.1304570467229 L 460.2264090609349,364.5986302409093 L 438.9011272487479,363.60035085210893 L 417.57584543656094,363.9222582152934 L 396.25056362437397,363.15107486226816 L 374.925281812187,366.11133354532916 L 353.6,364.64033277300706" fill="none" stroke="black" stroke-linecap="round" stroke-linejoin="round" stroke-width="2" /><path d="M 354.2572470852599,363.8870924155865 L 355.1085116092537,333.94354620779325 L 355.0144159223264,304.0" fill="none" stroke="black" stroke-linecap="round" stroke-linejoin="round" stroke-width="2" /><path d="M 353.5193516070372,302.82445856202963 L 374.8446334192242,304.23444289305627 L 396.16991523141115,304.3080131483062 L 417.4951970435981,304.85850944775837 L 438.8204788557851,304.4290356390148 L 460.14576066797207,302.26011471078704 L 481.47104248015904,304.9103758994489" fill="none" stroke="black" stroke-linecap="round" stroke-linejoin="round" stroke-width="2" /><path d="M 481.2658040885218,304.2860656407266 L 481.8891219678166,334.2296118485198 L 481.02304016564733,364.17315805631307" fill="none" stroke="black" stroke-linecap="round" stroke-linejoin="round" stroke-width="2" /><path d="M 481.47104248015904,363.2504250245742 L 460.14576066797207,364.28261211902554 L 438.8204788557851,364.17482781586585 L 417.4951970435981,364.00997716810775 L 396.16991523141115,363.7083232395568 L 374.8446334192242,364.29392069373716 L 353.5193516070372,363.4467904661631" fill="none" stroke="black" stroke-linecap="round" stroke-linejoin="round" stroke-width="2" /><path d="M 352.4798332806522,364.17315805631307 L 353.5601783016143,334.2296118485198 L 354.3837745107611,304.2860656407266" fill="none" stroke="black" stroke-linecap="round" stroke-linejoin="round" stroke-width="2" /><path d="M 353.6790363157554,302.7066185668796 L 375.0043181279424,304.52293243659824 L 396.32959994012936,303.9315367291938 L 417.6548817523163,301.50077671288494 L 438.9801635645033,302.79258092140515 L 460.3054453766903,303.70304472940063 L 481.63072718887724,303.9295611124083" fill="none" stroke="black" stroke-linecap="round" stroke-linejoin="round" stroke-width="2" /><path d="M 481.45738307094445,303.80386586335004 L 481.5001037466409,333.7474120711433 L 479.8290706523247,363.69095827893653" fill="none" stroke="black" stroke-linecap="round" stroke-linejoin="round" stroke-width="2" /><path d="M 481.63072718887724,362.199124647562 L 460.3054453766903,362.8418731289719 L 438.9801635645033,362.87109665917586 L 417.6548817523163,363.75388842202466 L 396.32959994012936,363.36500804134033 L 375.0043181279424,361.8783525337876 L 353.6790363157554,363.01650747825937" fill="none" stroke="black" stroke-linecap="round" stroke-linejoin="round" stroke-width="2" /><path d="M 353.68560694548535,363.69095827893653 L 354.02983353789756,333.7474120711433 L 354.21834134095496,303.80386586335004" fill="none" stroke="black" stroke-linecap="round" stroke-linejoin="round" stroke-width="2" /><text dominant-baseline="middle" fill="black" font-family="Virgil, Comic Sans MS, cursive" font-size="16px" text-anchor="middle" x="417.6" y="334.0">Notify Team</text><path d="M 160.0,304.17759282718197 L 180.57175073534907,304.423036210817 L 201.14350147069817,304.4531052013785 L 221.71525220604724,303.8861855575359 L 242.28700294139634,304.2597210156274 L 262.85875367674544,303.5020159135087 L 283.4305044120945,304.0994142195669 L 304.0022551474436,304.8514928416312" fill="none" stroke="black" stroke-linecap="round" stroke-linejoin="round" stroke-width="2" /><path d="M 303.4753945967723,304.0 L 302.9867888629551,324.06045536963 L 303.46275146325024,344.12091073925995 L 303.9778097016554,364.18136610888996" fill="none" stroke="black" stroke-linecap="round" stroke-linejoin="round" stroke-width="2" /><path d="M 304.0022551474436,364.22902689183826 L 283.4305044120945,362.13598678302895 L 262.85875367674544,363.367497033523 L 242.28700294139634,363.3678441226659 L 221.71525220604724,364.49467799852624 L 201.14350147069817,365.09392601164933 L 180.5717507353491,363.4111646152243 L 160.0,363.53144823063707" fill="none" stroke="black" stroke-linecap="round" stroke-linejoin="round" stroke-width="2" /><path d="M 160.45966108239102,364.18136610888996 L 160.16894578249835,344.12091073925995 L 159.7520394553689,324.06045536963 L 160.40563462141986,304.0" fill="none" stroke="black" stroke-linecap="round" stroke-linejoin="round" stroke-width="2" /><path d="M 159.934318706334,305.2225686951238 L 180.50606944168308,304.19609938978874 L 201.07782017703218,304.0731892476672 L 221.64957091238125,304.5035663086533 L 242.22132164773035,303.0571403946695 L 262.79307238307945,305.86323500260954 L 283.3648231184285,303.11146997270436 L 303.9365738537776,302.66042761796854" fill="none" stroke="black" stroke-linecap="round" stroke-linejoin="round" stroke-width="2" /><path d="M 303.74213316323784,304.0244263731583 L 304.6851041335284,324.0848817427883 L 303.6557893994288,344.14533711241825 L 302.52335564230805,364.20579248204825" fill="none" stroke="black" stroke-linecap="round" stroke-linejoin="round" stroke-width="2" /><path d="M 303.9365738537776,363.18329297158175 L 283.3648231184285,364.84951523716575 L 262.79307238307945,365.1117808043643 L 242.22132164773035,364.26035595965675 L 221.64957091238125,364.3747207097554 L 201.07782017703218,363.6163140700677 L 180.5060694416831,364.4673227006175 L 159.934318706334,363.7113551051306" fill="none" stroke="black" stroke-linecap="round" stroke-linejoin="round" stroke-width="2" /><path d="M 161.47613990965405,364.20579248204825 L 159.51603636478717,344.14533711241825 L 158.80324057296,324.0848817427883 L 159.7925944487534,304.0244263731583" fill="none" stroke="black" stroke-linecap="round" stroke-linejoin="round" stroke-width="2" /><path d="M 159.94923738326355,304.0476676208903 L 180.52098811861262,305.0997776790689 L 201.09273885396172,305.299008369383 L 221.6644895893108,303.8206202655763 L 242.2362403246599,304.4682459851622 L 262.80799106000893,305.75619112567296 L 283.37974179535803,306.2099086481523 L 303.9514925307071,306.37838552899257" fill="none" stroke="black" stroke-linecap="round" stroke-linejoin="round" stroke-width="2" /><path d="M 304.2917554003697,304.13205883241636 L 302.4715766755339,324.19251420204637 L 303.5996263783688,344.2529695716763 L 302.0149772581537,364.3134249413063" fill="none" stroke="black" stroke-linecap="round" stroke-linejoin="round" stroke-width="2" /><path d="M 303.9514925307071,366.5042323926369 L 283.37974179535803,363.6676147125743 L 262.807991060009,364.53302855990097 L 242.2362403246599,364.9501314045737 L 221.6644895893108,363.40820868227513 L 201.09273885396172,362.99066217055764 L 180.52098811861265,365.7566907297416 L 159.94923738326355,364.2823817925882" fill="none" stroke="black" stroke-linecap="round" stroke-linejoin="round" stroke-width="2" /><path d="M 160.45953636377786,364.3134249413063 L 160.02728559123233,344.2529695716763 L 160.12216344733807,324.19251420204637 L 159.36782123740403,304.13205883241636" fill="none" stroke="black" stroke-linecap="round" stroke-linejoin="round" stroke-width="2" /><text dominant-baseline="middle" fill="black" font-family="Virgil, Comic Sans MS, cursive" font-size="16px" text-anchor="middle" x="232.0" y="334.0">Security Scan</text><path d="M 231.5052461961719,384.8245896730469 L 249.42283863064227,394.6286022822629 L 267.13270960761616,404.77881732063975 L 284.62607841728925,415.2898693045179 L 301.4116281669987,426.98061972166886" fill="none" stroke="black" stroke-linecap="round" stroke-linejoin="round" stroke-width="2" /><path d="M 302.13241424703756,426.22069041172927 L 284.03496634754345,435.7249439125724 L 266.8517452814062,446.75290880234365 L 249.52559917042836,457.54266528404725 L 231.37048575660245,466.9508095943374" fill="none" stroke="black" stroke-linecap="round" stroke-linejoin="round" stroke-width="2" /><path d="M 231.82100205327515,468.2983299112081 L 213.75297569334927,458.74504051108454 L 197.4401703730807,446.26638271153223 L 179.74610236233605,436.0898293961066 L 162.84229253753787,424.59617910410356" fill="none" stroke="black" stroke-linecap="round" stroke-linejoin="round" stroke-width="2" /><path d="M 162.73403610862215,427.2233935143703 L 179.9867728074654,416.31128801244233 L 196.91667642222373,404.8611273703729 L 214.65613899955494,394.7602316659249 L 231.3357114884492,382.8928524807487" fill="none" stroke="black" stroke-linecap="round" stroke-linejoin="round" stroke-width="2" /><path d="M 232.39249936549493,383.3665444221209 L 249.9233939543582,393.9562120275832 L 267.277881339802,404.84113348302117 L 284.7295983912847,415.56332103262434 L 301.27218186364826,427.8071311927214" fill="none" stroke="black" stroke-linecap="round" stroke-linejoin="round" stroke-width="2" /><path d="M 301.7951237566044,425.00695840653026 L 284.9733064361036,436.78341311226984 L 266.4073181268644,445.64063782366355 L 249.41219534897922,457.1270300913469 L 231.98444796655627,467.8893358273696" fill="none" stroke="black" stroke-linecap="round" stroke-linejoin="round" stroke-width="2" /><path d="M 231.23153823999965,469.3468227368545 L 213.76972019969986,458.6415412759994 L 196.83598954083456,447.05239663116004 L 179.4467987848487,436.22555842607164 L 161.14849768663552,426.9203039397445" fill="none" stroke="black" stroke-linecap="round" stroke-linejoin="round" stroke-width="2" /><path d="M 162.42276458622777,427.1512830660318 L 178.37619080505894,413.9213966915023 L 197.70619653240513,406.34291275583604 L 214.20423262967816,394.0245433728341 L 232.30651730387277,384.39121496022676" fill="none" stroke="black" stroke-linecap="round" stroke-linejoin="round" stroke-width="2" /><path d="M 231.55520541506797,385.01167247088006 L 249.13916848616165,395.2793873003077 L 266.39287588484535,406.0963739031655 L 284.0011193064871,416.32370634912735 L 301.9713623753447,425.9489713521396" fill="none" stroke="black" stroke-linecap="round" stroke-linejoin="round" stroke-width="2" /><path d="M 302.23260613296407,426.55597664694886 L 285.4412174800696,438.1418785436355 L 267.2800687665664,447.4496347473981 L 249.67634064488362,457.68447691090057 L 232.34022935637168,468.3644117248423" fill="none" stroke="black" stroke-linecap="round" stroke-linejoin="round" stroke-width="2" /><path d="M 232.26240725039258,467.76834916318865 L 214.93666654347365,457.07116629503025 L 196.30725233078965,448.54221585497913 L 180.49946267437454,435.3204202847697 L 161.49730164733583,427.41141166817624" fill="none" stroke="black" stroke-linecap="round" stroke-linejoin="round" stroke-width="2" /><path d="M 162.45391460120086,426.25005445768204 L 179.83526082053555,415.64535308482766 L 196.5680471255678,403.9619854419735 L 214.3198457382807,393.97340987733764 L 232.73828931030326,385.0935791114704" fill="none" stroke="black" stroke-linecap="round" stroke-linejoin="round" stroke-width="2" /><text dominant-baseline="middle" fill="black" font-family="Virgil, Comic Sans MS, cursive" font-size="16px" text-anchor="middle" x="232.0" y="426.0">Deploy?</text><path d="M 40.0,486.9176549148802 L 61.989428020999256,486.4446550617892 L 83.97885604199851,486.9573622748666 L 105.96828406299777,487.4205829704968 L 127.95771208399702,488.8349294476258 L 149.94714010499627,490.72823032620903 L 171.93656812599554,486.93760488734137 L 193.9259961469948,487.785341817855 L 215.91542416799405,488.5902765066608" fill="none" stroke="black" stroke-linecap="round" stroke-linejoin="round" stroke-width="2" /><path d="M 216.83174529126595,488.0 L 216.0064642746462,517.7068829324774 L 215.652861777339,547.4137658649546" fill="none" stroke="black" stroke-linecap="round" stroke-linejoin="round" stroke-width="2" /><path d="M 215.91542416799405,548.1229907706673 L 193.9259961469948,548.4745996909217 L 171.93656812599554,545.9973775113598 L 149.94714010499627,548.1242636413109 L 127.95771208399702,546.3281877474666 L 105.96828406299777,546.832403304948 L 83.97885604199851,546.9554648711353 L 61.98942802099924,547.6115734378357 L 40.0,548.7012916639052" fill="none" stroke="black" stroke-linecap="round" stroke-linejoin="round" stroke-width="2" /><path d="M 40.52425440706763,547.4137658649546 L 40.988406747793704,517.7068829324774 L 40.19905932608347,488.0" fill="none" stroke="black" stroke-linecap="round" stroke-linejoin="round" stroke-width="2" /><path d="M 39.811186406553425,486.806717931724 L 61.80061442755268,487.61646001481205 L 83.79004244855193,489.9286865350525 L 105.7794704695512,488.35569415291144 L 127.76889849055044,489.3575105673166 L 149.7583265115497,489.9982245481186 L 171.74775453254895,488.4992578172446 L 193.73718255354822,488.8508055540587 L 215.72661057454746,487.4139690397136" fill="none" stroke="black" stroke-linecap="round" stroke-linejoin="round" stroke-width="2" /><path d="M 215.1360826121569,488.13382595075205 L 215.2368660274474,517.8407088832294 L 216.51580630419272,547.5475918157066" fill="none" stroke="black" stroke-linecap="round" stroke-linejoin="round" stroke-width="2" /><path d="M 215.72661057454746,546.7155198657672 L 193.73718255354822,548.5683599049595 L 171.74775453254895,548.4635641838718 L 149.75832651154968,545.3118531647092 L 127.76889849055044,544.9060325675299 L 105.77947046955119,546.752108854854 L 83.79004244855193,547.8992493751149 L 61.80061442755266,548.6626698575662 L 39.81118640655342,546.8508582100646" fill="none" stroke="black" stroke-linecap="round" stroke-linejoin="round" stroke-width="2" /><path d="M 41.30729006255408,547.5475918157066 L 38.710780025283604,517.8407088832294 L 40.77347096112139,488.13382595075205" fill="none" stroke="black" stroke-linecap="round" stroke-linejoin="round" stroke-width="2" /><path d="M 40.00622907144504,487.61501492330325 L 61.9956570924443,487.0136416699099 L 83.98508511344355,489.1799184864412 L 105.97451313444282,487.5478384602376 L 127.96394115544206,486.00954467869343 L 149.95336917644133,488.7478712538573 L 171.94279719744057,487.0116173738512 L 193.93222521843984,486.998289599089 L 215.92165323943908,487.58737288355746" fill="none" stroke="black" stroke-linecap="round" stroke-linejoin="round" stroke-width="2" /><path d="M 215.7144001851713,487.8570573291623 L 217.04223314523088,517.5639402616396 L 215.1875528840139,547.2708231941169" fill="none" stroke="black" stroke-linecap="round" stroke-linejoin="round" stroke-width="2" /><path d="M 215.92165323943908,548.3161890177312 L 193.93222521843984,546.3620770525924 L 171.94279719744057,548.259641715307 L 149.9533691764413,548.4792881255167 L 127.96394115544206,546.7542733869773 L 105.9745131344428,546.7817388873962 L 83.98508511344355,547.5085451380911 L 61.995657092444276,546.6404149898166 L 40.006229071445034,548.1898683241511" fill="none" stroke="black" stroke-linecap="round" stroke-linejoin="round" stroke-width="2" /><path d="M 40.34460547739154,547.2708231941169 L 39.917922691253324,517.5639402616396 L 40.44683216538013,487.8570573291623" fill="none" stroke="black" stroke-linecap="round" stroke-linejoin="round" stroke-width="2" /><text dominant-baseline="middle" fill="black" font-family="Virgil, Comic Sans MS, cursive" font-size="16px" text-anchor="middle" x="128.0" y="518.0">Deploy to Staging</text><path d="M 236.0,488.4370017272875 L 258.1937172714217,488.18912376852774 L 280.3874345428433,486.4680395601644 L 302.581151814265,489.031199039511 L 324.77486908568665,487.0502310292185 L 346.9685863571084,487.920325101148 L 369.16230362853,487.77990458504047 L 391.35602089995166,486.3726831741749 L 413.54973817137335,487.37122757394917 L 435.74345544279504,487.244100313778" fill="none" stroke="black" stroke-linecap="round" stroke-linejoin="round" stroke-width="2" /><path d="M 435.95953863110304,488.0 L 435.66235605061706,517.8730352746511 L 436.5758547660433,547.7460705493021" fill="none" stroke="black" stroke-linecap="round" stroke-linejoin="round" stroke-width="2" /><path d="M 435.74345544279504,549.0090285796545 L 413.54973817137335,547.6691331513152 L 391.3560208999517,545.9496393088218 L 369.16230362853,548.564751381634 L 346.9685863571084,546.7960648339194 L 324.77486908568665,546.5319404297285 L 302.581151814265,548.1475432427503 L 280.3874345428434,549.4587287500444 L 258.1937172714217,548.8617749514166 L 236.0,546.5256913599553" fill="none" stroke="black" stroke-linecap="round" stroke-linejoin="round" stroke-width="2" /><path d="M 235.79687688597912,547.7460705493021 L 236.89440757965792,517.8730352746511 L 235.94244643989637,488.0" fill="none" stroke="black" stroke-linecap="round" stroke-linejoin="round" stroke-width="2" /><path d="M 236.09362424187094,487.56019221208214 L 258.28734151329263,486.51773854784284 L 280.48105878471426,487.5293754836241 L 302.67477605613595,489.39710157053804 L 324.86849332755764,489.709467644704 L 347.0622105989793,485.23605551823357 L 369.25592787040097,489.4303996698415 L 391.44964514182266,488.58661814146467 L 413.6433624132443,486.17513171040486 L 435.837079684666,488.235406677889" fill="none" stroke="black" stroke-linecap="round" stroke-linejoin="round" stroke-width="2" /><path d="M 436.81795489700517,487.80219001855744 L 435.5480066790878,517.6752252932085 L 435.92253910504854,547.5482605678595" fill="none" stroke="black" stroke-linecap="round" stroke-linejoin="round" stroke-width="2" /><path d="M 435.837079684666,548.4674518271524 L 413.6433624132443,547.4127851257255 L 391.44964514182266,547.6756674946986 L 369.25592787040097,547.40007226259 L 347.0622105989793,549.1195203931098 L 324.86849332755764,547.7812373010457 L 302.67477605613595,548.832200677834 L 280.48105878471426,547.7142412205635 L 258.28734151329263,548.5737626034307 L 236.09362424187094,547.7696842170319" fill="none" stroke="black" stroke-linecap="round" stroke-linejoin="round" stroke-width="2" /><path d="M 235.3550253509111,547.5482605678595 L 235.10226081873952,517.6752252932085 L 234.48739860984418,487.80219001855744" fill="none" stroke="black" stroke-linecap="round" stroke-linejoin="round" stroke-width="2" /><path d="M 235.98674086161296,487.70096865976694 L 258.1804581330346,489.3467484812892 L 280.3741754044563,488.7357568741019 L 302.56789267587794,488.02270437229606 L 324.76160994729963,488.4786889002828 L 346.9553272187213,484.9771814014393 L 369.14904449014296,487.85378742598596 L 391.34276176156465,488.3785658968376 L 413.5364790329863,487.99384400198517 L 435.73019630440797,489.17184524126304" fill="none" stroke="black" stroke-linecap="round" stroke-linejoin="round" stroke-width="2" /><path d="M 435.19291570249413,488.0055627295756 L 435.50936022527003,517.8785980042267 L 437.8254702293593,547.7516332788778" fill="none" stroke="black" stroke-linecap="round" stroke-linejoin="round" stroke-width="2" /><path d="M 435.73019630440797,548.548549931278 L 413.5364790329863,546.9323757057241 L 391.34276176156465,547.7745491988651 L 369.14904449014296,547.2309051709208 L 346.9553272187213,547.305710917934 L 324.76160994729963,547.1742854584406 L 302.56789267587794,545.2029325141882 L 280.3741754044563,548.0429383991315 L 258.1804581330347,550.906824050272 L 235.98674086161296,549.0140586168704" fill="none" stroke="black" stroke-linecap="round" stroke-linejoin="round" stroke-width="2" /><path d="M 236.86816562993212,547.7516332788778 L 237.73316216263595,517.8785980042267 L 237.6138185527077,488.0055627295756" fill="none" stroke="black" stroke-linecap="round" stroke-linejoin="round" stroke-width="2" /><text dominant-baseline="middle" fill="black" font-family="Virgil, Comic Sans MS, cursive" font-size="16px" text-anchor="middle" x="336.0" y="518.0">Deploy to Production</text><path d="M 40.0,568.243778933925 L 62.00977610338701,567.0264646149959 L 84.01955220677402,567.9007109531359 L 106.02932831016105,568.0552739708357 L 128.03910441354805,566.8076812806981 L 150.04888051693507,567.762881132631 L 172.0586566203221,568.2180358494968 L 194.0684327237091,570.0858503301008 L 216.07820882709612,568.7672076521163" fill="none" stroke="black" stroke-linecap="round" stroke-linejoin="round" stroke-width="2" /><path d="M 215.28174237860208,568.0 L 214.84900952584636,588.1351099866841 L 217.48240741650886,608.2702199733682 L 217.94624449451308,628.4053299600523" fill="none" stroke="black" stroke-linecap="round" stroke-linejoin="round" stroke-width="2" /><path d="M 216.07820882709612,627.1132063610818 L 194.0684327237091,628.9191041334141 L 172.0586566203221,628.9151100396331 L 150.04888051693507,627.8669247458046 L 128.03910441354805,628.8443368395453 L 106.02932831016105,628.8506322678209 L 84.01955220677402,627.6794572773255 L 62.009776103387026,626.1359787688245 L 40.0,629.4640634544924" fill="none" stroke="black" stroke-linecap="round" stroke-linejoin="round" stroke-width="2" /><path d="M 40.5637772008901,628.4053299600523 L 40.834220963569535,608.2702199733682 L 41.64351829013283,588.1351099866841 L 40.54883449587543,568.0" fill="none" stroke="black" stroke-linecap="round" stroke-linejoin="round" stroke-width="2" /><path d="M 40.12267869123404,568.6696446035132 L 62.132454794621054,568.2006132399098 L 84.14223089800807,567.5422721141153 L 106.15200700139508,568.8162521746628 L 128.1617831047821,569.1618181575238 L 150.1715592081691,567.251807474696 L 172.1813353115561,568.019052063855 L 194.19111141494312,568.2823336006127 L 216.20088751833015,566.6867502194677" fill="none" stroke="black" stroke-linecap="round" stroke-linejoin="round" stroke-width="2" /><path d="M 215.3634481076705,568.0943320826974 L 217.2502762703214,588.2294420693815 L 217.1831949538424,608.3645520560656 L 215.75116346884298,628.4996620427497" fill="none" stroke="black" stroke-linecap="round" stroke-linejoin="round" stroke-width="2" /><path d="M 216.20088751833015,628.4507741563096 L 194.19111141494312,628.2195432175375 L 172.18133531155613,628.727929863985 L 150.17155920816913,630.5825989616391 L 128.1617831047821,628.0924757131183 L 106.15200700139509,626.9525843673662 L 84.14223089800808,627.9220004934692 L 62.13245479462108,627.7742822187588 L 40.12267869123406,629.3180524294836" fill="none" stroke="black" stroke-linecap="round" stroke-linejoin="round" stroke-width="2" /><path d="M 40.76473870669853,628.4996620427497 L 40.11679084201457,608.3645520560656 L 40.16498342301609,588.2294420693815 L 38.94302284787423,568.0943320826974" fill="none" stroke="black" stroke-linecap="round" stroke-linejoin="round" stroke-width="2" /><path d="M 39.88290258917174,570.3855530973723 L 61.89267869255876,570.1703005596082 L 83.90245479594577,567.0211397352211 L 105.9122308993328,569.950686085119 L 127.9220070027198,570.3058255690933 L 149.93178310610682,567.6737086946314 L 171.94155920949385,567.2884329396546 L 193.95133531288084,567.7938577155047 L 215.96111141626787,569.1570769042494" fill="none" stroke="black" stroke-linecap="round" stroke-linejoin="round" stroke-width="2" /><path d="M 216.48852439576697,567.7633241718728 L 215.8807305947066,587.8984341585569 L 214.37257126217563,608.033544145241 L 217.50333974371884,628.1686541319251" fill="none" stroke="black" stroke-linecap="round" stroke-linejoin="round" stroke-width="2" /><path d="M 215.96111141626787,629.1110969090639 L 193.95133531288084,627.4419139612309 L 171.94155920949385,629.0013188982759 L 149.93178310610682,628.0634090332507 L 127.92200700271981,628.3151413835727 L 105.9122308993328,628.178767386416 L 83.90245479594577,629.1656821421053 L 61.892678692558775,628.1963449049716 L 39.88290258917175,627.4769701837728" fill="none" stroke="black" stroke-linecap="round" stroke-linejoin="round" stroke-width="2" /><path d="M 40.09383267580602,628.1686541319251 L 41.038676943996386,608.033544145241 L 40.68274306265262,587.8984341585569 L 38.904409928605105,567.7633241718728" fill="none" stroke="black" stroke-linecap="round" stroke-linejoin="round" stroke-width="2" /><text dominant-baseline="middle" fill="black" font-family="Virgil, Comic Sans MS, cursive" font-size="16px" text-anchor="middle" x="128.0" y="598.0">Verify Deployment</text><path d="M 260.0,566.351612451801 L 281.7129707292969,567.5178477297558 L 303.42594145859374,566.8707094063798 L 325.13891218789064,568.3565903500499 L 346.8518829171875,569.1120673010615 L 368.5648536464844,567.5110068028293 L 390.2778243757813,569.3594711587964 L 411.9907951050781,566.5648420225675" fill="none" stroke="black" stroke-linecap="round" stroke-linejoin="round" stroke-width="2" /><path d="M 411.50482040362425,568.0 L 413.93367078542775,597.89094726646 L 410.8630024557626,627.78189453292" fill="none" stroke="black" stroke-linecap="round" stroke-linejoin="round" stroke-width="2" /><path d="M 411.9907951050781,627.6591992604357 L 390.2778243757812,627.2681725730077 L 368.5648536464844,627.1687398892153 L 346.8518829171875,628.0529481185223 L 325.13891218789064,629.1493082437676 L 303.42594145859374,626.6408722383737 L 281.7129707292969,628.3285121359503 L 260.0,629.3195293426176" fill="none" stroke="black" stroke-linecap="round" stroke-linejoin="round" stroke-width="2" /><path d="M 260.191936469479,627.78189453292 L 259.77967411676735,597.89094726646 L 261.216565474519,568.0" fill="none" stroke="black" stroke-linecap="round" stroke-linejoin="round" stroke-width="2" /><path d="M 260.0608691294494,569.7815186976112 L 281.77383985874627,570.4637914184449 L 303.4868105880431,568.001296874994 L 325.19978131734,567.31100105868 L 346.91275204663685,568.8233921722039 L 368.62572277593375,566.6778135300999 L 390.3386935052306,568.782748371174 L 412.0516642345275,568.1798563605099" fill="none" stroke="black" stroke-linecap="round" stroke-linejoin="round" stroke-width="2" /><path d="M 411.92669078814083,568.248600971382 L 412.1434503433827,598.139548237842 L 410.8536489769831,628.0304955043019" fill="none" stroke="black" stroke-linecap="round" stroke-linejoin="round" stroke-width="2" /><path d="M 412.0516642345275,628.5134813414269 L 390.3386935052306,626.2515905047261 L 368.62572277593375,627.6320425918768 L 346.91275204663685,626.1972902074558 L 325.19978131734,628.6130209412603 L 303.4868105880431,629.1374726634571 L 281.7738398587462,626.9819211208656 L 260.0608691294494,629.4809528193193" fill="none" stroke="black" stroke-linecap="round" stroke-linejoin="round" stroke-width="2" /><path d="M 261.0028566843155,628.0304955043019 L 258.91904183199756,598.139548237842 L 258.3433666151568,568.248600971382" fill="none" stroke="black" stroke-linecap="round" stroke-linejoin="round" stroke-width="2" /><path d="M 259.94862912050627,567.7380353277994 L 281.66159984980317,567.3377030555438 L 303.3745705791,570.679065573537 L 325.0875413083969,568.5005805526004 L 346.80051203769375,568.789205357967 L 368.51348276699065,568.5622674565359 L 390.2264534962875,568.5138314889565 L 411.9394242255844,567.621470578213" fill="none" stroke="black" stroke-linecap="round" stroke-linejoin="round" stroke-width="2" /><path d="M 410.98491073048746,568.1395622934808 L 414.48083342878215,598.0305095599408 L 413.5173104871877,627.9214568264008" fill="none" stroke="black" stroke-linecap="round" stroke-linejoin="round" stroke-width="2" /><path d="M 411.9394242255844,628.9604776044423 L 390.2264534962875,628.3695672161166 L 368.51348276699065,628.8739572641373 L 346.80051203769375,628.3536133971012 L 325.0875413083969,626.0549677872051 L 303.3745705791,628.7714568113757 L 281.6615998498031,629.896065034876 L 259.94862912050627,628.7624888988591" fill="none" stroke="black" stroke-linecap="round" stroke-linejoin="round" stroke-width="2" /><path d="M 259.056605593572,627.9214568264008 L 260.4790135821504,598.0305095599408 L 260.6345980794706,568.1395622934808" fill="none" stroke="black" stroke-linecap="round" stroke-linejoin="round" stroke-width="2" /><text dominant-baseline="middle" fill="black" font-family="Virgil, Comic Sans MS, cursive" font-size="16px" text-anchor="middle" x="336.0" y="598.0">Monitor Health</text></g></svg>