<?xml version="1.0" encoding="utf-8" ?>
<svg baseProfile="full" height="724.0px" version="1.1" viewBox="0 0 385.2 724.0" width="385.2px" xmlns="http://www.w3.org/2000/svg" xmlns:ev="http://www.w3.org/2001/xml-events" xmlns:xlink="http://www.w3.org/1999/xlink"><defs /><rect fill="white" height="724.0" width="385.2" x="0" y="0" /><g><path d="M 281.20127122228166,100.00028475379109 L 275.72168486702566,125.02725741021374 L 269.7292327121466,149.93934812752084" fill="none" stroke="black" stroke-linecap="round" stroke-linejoin="round" stroke-width="2" /><path d="M 268.4235734820564,142.04661387538235 L 269.1322563762342,145.98374144680542 L 269.7292327121466,149.93934812752084" fill="none" stroke="black" stroke-linecap="round" stroke-linejoin="round" stroke-width="2" /><path d="M 274.48147215604456,143.5038046176174 L 272.34547233901674,146.8988896455934 L 269.7292327121466,149.93934812752084" fill="none" stroke="black" stroke-linecap="round" stroke-linejoin="round" stroke-width="2" /><path d="M 197.7437087222926,179.00046401694118 L 178.17099488943342,183.71688006879035 L 159.00669625023244,190.0261153759065 L 139.86454614288056,196.42172995723413 L 119.73896355037425,198.98195784645958" fill="none" stroke="black" stroke-linecap="round" stroke-linejoin="round" stroke-width="2" /><path d="M 130.21466566708526,192.89275511326014 L 125.12987814244488,196.20068290441597 L 119.73896355037425,198.98195784645958" fill="none" stroke="black" stroke-linecap="round" stroke-linejoin="round" stroke-width="2" /><path d="M 131.40558216959175,202.2543781675361 L 125.60766101925219,200.4920044591276 L 119.73896355037425,198.98195784645958" fill="none" stroke="black" stroke-linecap="round" stroke-linejoin="round" stroke-width="2" /><path d="M 197.64860347281416,181.37044645602478 L 217.09531068911676,186.5782883124446 L 237.3286522703712,188.71825614555226 L 256.56577408124656,194.74348108313842 L 275.945035426823,200.21436183539026" fill="none" stroke="black" stroke-linecap="round" stroke-linejoin="round" stroke-width="2" /><path d="M 263.92332741099824,201.72317169987866 L 269.76005359509315,199.5813726998774 L 275.945035426823,200.21436183539026" fill="none" stroke="black" stroke-linecap="round" stroke-linejoin="round" stroke-width="2" /><path d="M 266.4870768480853,192.64171432294103 L 272.1160185476316,195.3040180869653 L 275.945035426823,200.21436183539026" fill="none" stroke="black" stroke-linecap="round" stroke-linejoin="round" stroke-width="2" /><path d="M 119.70072885364644,261.16715747077893 L 139.74991517483133,264.0253308181578 L 159.4515534286647,268.23894162820756 L 178.47087472618222,275.1135885678894 L 197.55751337388403,281.7256978418522" fill="none" stroke="black" stroke-linecap="round" stroke-linejoin="round" stroke-width="2" /><path d="M 185.46098879152882,282.53145795720593 L 191.60221629057136,283.52422394953027 L 197.55751337388403,281.7256978418522" fill="none" stroke="black" stroke-linecap="round" stroke-linejoin="round" stroke-width="2" /><path d="M 188.55176661102132,273.6095607324752 L 193.11648098500424,277.5990099044477 L 197.55751337388403,281.7256978418522" fill="none" stroke="black" stroke-linecap="round" stroke-linejoin="round" stroke-width="2" /><path d="M 275.9579833479635,259.8361350570575 L 256.81634131444656,266.2337311263416 L 236.76978597058664,269.1021652852879 L 217.32090032376186,274.3015112626712 L 198.12522339350815,280.4883712346817" fill="none" stroke="black" stroke-linecap="round" stroke-linejoin="round" stroke-width="2" /><path d="M 207.29480158741728,272.57823528405777 L 203.14200177126898,277.0340733490382 L 198.12522339350815,280.4883712346817" fill="none" stroke="black" stroke-linecap="round" stroke-linejoin="round" stroke-width="2" /><path d="M 210.18811424711149,281.55517921441395 L 204.28493833758748,279.57137251275583 L 198.12522339350815,280.4883712346817" fill="none" stroke="black" stroke-linecap="round" stroke-linejoin="round" stroke-width="2" /><path d="M 198.89183912535262,340.0 L 199.03003115399358,350.0 L 199.61924815227147,360.0" fill="none" stroke="black" stroke-linecap="round" stroke-linejoin="round" stroke-width="2" /><path d="M 196.07588311754608,352.8275133858134 L 197.49681204871104,356.58703662495697 L 199.61924815227147,360.0" fill="none" stroke="black" stroke-linecap="round" stroke-linejoin="round" stroke-width="2" /><path d="M 202.2957889184942,352.46102596325284 L 200.37755672199765,356.0246107688304 L 199.61924815227147,360.0" fill="none" stroke="black" stroke-linecap="round" stroke-linejoin="round" stroke-width="2" /><path d="M 198.37794009942493,443.82530768737695 L 207.66037794435664,463.8077462933739 L 215.6851329011794,484.3715138787635 L 225.07372595314575,504.30488518906446 L 234.48724044271762,524.2267372570944 L 245.79287046669734,543.2740114781093 L 252.8659797401861,564.2776508460177 L 262.934892678275,583.8965631867331 L 271.1535864668248,604.3706879343466 L 282.17522425691175,623.5492296768052" fill="none" stroke="black" stroke-linecap="round" stroke-linejoin="round" stroke-width="2" /><path d="M 266.24384770460733,611.4582726779286 L 273.48643245552284,618.4565322142951 L 282.17522425691175,623.5492296768052" fill="none" stroke="black" stroke-linecap="round" stroke-linejoin="round" stroke-width="2" /><path d="M 279.7492489717336,603.6969088070504 L 282.1625613272144,613.4763882514901 L 282.17522425691175,623.5492296768052" fill="none" stroke="black" stroke-linecap="round" stroke-linejoin="round" stroke-width="2" /><text fill="black" font-family="Virgil, Comic Sans MS, cursive" font-size="14px" text-anchor="middle" x="215.6851329011794" y="474.3715138787635">Yes</text><path d="M 198.31090571421163,445.2747134282677 L 177.65311080888839,449.62775431644235 L 157.60545398075465,456.482361321094 L 136.2829733326719,458.1101906639548 L 116.00464542710104,464.0190462511143" fill="none" stroke="black" stroke-linecap="round" stroke-linejoin="round" stroke-width="2" /><path d="M 125.86757450743679,455.98541285640255 L 120.48348574479948,459.44654069083407 L 116.00464542710104,464.0190462511143" fill="none" stroke="black" stroke-linecap="round" stroke-linejoin="round" stroke-width="2" /><path d="M 128.6391901389365,465.497192214472 L 122.28395343343458,465.08262187608256 L 116.00464542710104,464.0190462511143" fill="none" stroke="black" stroke-linecap="round" stroke-linejoin="round" stroke-width="2" /><text fill="black" font-family="Virgil, Comic Sans MS, cursive" font-size="14px" text-anchor="middle" x="177.65311080888839" y="439.62775431644235">No</text><path d="M 115.51520206889207,524.0 L 115.57772928445274,534.0 L 116.52677072234316,544.0" fill="none" stroke="black" stroke-linecap="round" stroke-linejoin="round" stroke-width="2" /><path d="M 112.72918763663128,536.9588095674726 L 114.15816383654399,540.7327941526031 L 116.52677072234316,544.0" fill="none" stroke="black" stroke-linecap="round" stroke-linejoin="round" stroke-width="2" /><path d="M 118.93200995118134,536.3701360266347 L 116.60996468957173,539.8321801388034 L 116.52677072234316,544.0" fill="none" stroke="black" stroke-linecap="round" stroke-linejoin="round" stroke-width="2" /><path d="M 192.08421165307686,573.9734733292808 L 198.260888292903,594.0123201877356 L 205.39636947945868,613.7491436139705 L 210.32039169435095,634.1825766162794 L 217.0553397522952,654.0455679780271" fill="none" stroke="black" stroke-linecap="round" stroke-linejoin="round" stroke-width="2" /><path d="M 208.6870319744181,644.6361963430146 L 213.35951858070973,648.9065791448324 L 217.0553397522952,654.0455679780271" fill="none" stroke="black" stroke-linecap="round" stroke-linejoin="round" stroke-width="2" /><path d="M 217.97495363147954,641.486939074191 L 217.51747822541452,647.7664242541883 L 217.0553397522952,654.0455679780271" fill="none" stroke="black" stroke-linecap="round" stroke-linejoin="round" stroke-width="2" /><path d="M 281.0714952122364,623.9777427981172 L 284.6919883518189,604.0520739475254 L 287.58930774365126,584.0011504322622 L 291.40129226208506,564.10864814575 L 295.47387865081083,544.2612824532825 L 298.37905770739405,524.2117202425135 L 301.93681696251133,504.2751857988512 L 305.6686868156061,484.3688075446708 L 308.4323351891257,464.294732029453 L 312.09734476139664,444.37677348480923 L 316.62958871134873,424.6090210994816 L 319.33708560174983,404.52522007195006 L 320.5235397401171,384.1779723962935 L 326.2588850951935,364.61859879066196 L 329.0665971474366,344.55215516379735 L 330.2295118691304,324.20083042954855 L 337.0010162697509,304.82092096265205 L 340.87982243003023,284.9399922742802 L 344.776495259242,265.06215811697075 L 347.5560126512199,244.99083113706953 L 349.8507854389495,224.8355457404735 L 353.00039915136637,204.82831994048496 L 342.97989829633485,186.5713314304202 L 329.0813021838688,170.32372400167174 L 315.78214020235004,153.66163134956244 L 306.32869897127614,134.34037342484498 L 293.9832577973646,117.01882018890122 L 280.3387829656287,100.59549784776077" fill="none" stroke="black" stroke-linecap="round" stroke-linejoin="round" stroke-width="2" /><path d="M 298.1012023316153,109.78769335627908 L 289.12727982512956,105.37074801995442 L 280.3387829656287,100.59549784776077" fill="none" stroke="black" stroke-linecap="round" stroke-linejoin="round" stroke-width="2" /><path d="M 286.1199022753747,119.74174185347849 L 283.92626171854107,109.95818837101437 L 280.3387829656287,100.59549784776077" fill="none" stroke="black" stroke-linecap="round" stroke-linejoin="round" stroke-width="2" /><path d="M 231.2,39.53589818528324 L 251.21641241696705,41.39816174378699 L 271.2328248339341,39.80810629390331 L 291.2492372509011,38.85208827567042 L 311.26564966786816,39.08420277139112 L 331.2820620848352,39.911034986543854" fill="none" stroke="black" stroke-linecap="round" stroke-linejoin="round" stroke-width="2" /><path d="M 331.5303236673199,40.0 L 330.1177481062288,60.122073960968855 L 331.1895456780148,80.24414792193771 L 330.89863912591466,100.36622188290657" fill="none" stroke="black" stroke-linecap="round" stroke-linejoin="round" stroke-width="2" /><path d="M 331.2820620848352,100.60139757926102 L 311.26564966786816,101.79766392837567 L 291.2492372509011,98.81711469854737 L 271.2328248339341,99.93248741624697 L 251.21641241696705,99.87890804566524 L 231.2,100.74827159079477" fill="none" stroke="black" stroke-linecap="round" stroke-linejoin="round" stroke-width="2" /><path d="M 231.11113990776423,100.36622188290657 L 230.92426299210868,80.24414792193772 L 231.9487388795622,60.12207396096886 L 230.49092254998288,40.0" fill="none" stroke="black" stroke-linecap="round" stroke-linejoin="round" stroke-width="2" /><path d="M 231.1089195986668,39.452070709151016 L 251.12533201563386,40.730963425434474 L 271.1417444326009,40.882679782408864 L 291.15815684956794,39.09853723718027 L 311.174569266535,40.34106701697699 L 331.19098168350206,40.65958611908414" fill="none" stroke="black" stroke-linecap="round" stroke-linejoin="round" stroke-width="2" /><path d="M 330.5313602319698,39.932794864617854 L 331.84582150029746,60.05486882558671 L 331.29545591336654,80.17694278655557 L 330.30050565866765,100.29901674752442" fill="none" stroke="black" stroke-linecap="round" stroke-linejoin="round" stroke-width="2" /><path d="M 331.19098168350206,102.12283567301294 L 311.174569266535,100.88750952582227 L 291.15815684956794,98.89610902842765 L 271.1417444326009,101.0123265195221 L 251.12533201563383,101.12137328021916 L 231.1089195986668,100.59704425601429" fill="none" stroke="black" stroke-linecap="round" stroke-linejoin="round" stroke-width="2" /><path d="M 230.6131674790382,100.29901674752442 L 230.34001500810206,80.17694278655557 L 232.5399142220261,60.05486882558671 L 230.6338477853546,39.932794864617854" fill="none" stroke="black" stroke-linecap="round" stroke-linejoin="round" stroke-width="2" /><path d="M 231.12137657777586,40.33598849858132 L 251.13778899474292,40.001637738657 L 271.15420141170995,41.02967495429507 L 291.170613828677,39.27030296175155 L 311.18702624564406,39.34564839415595 L 331.2034386626111,38.07600105956965" fill="none" stroke="black" stroke-linecap="round" stroke-linejoin="round" stroke-width="2" /><path d="M 332.19260467968644,40.03869521560508 L 330.89198944008433,60.160769176573936 L 330.2446621695762,80.2828431375428 L 331.3369413130611,100.40491709851166" fill="none" stroke="black" stroke-linecap="round" stroke-linejoin="round" stroke-width="2" /><path d="M 331.2034386626111,99.72831118291279 L 311.18702624564406,101.50401321588355 L 291.170613828677,100.07581980424108 L 271.15420141170995,98.61929206701716 L 251.1377889947429,99.92664215267091 L 231.12137657777586,100.43420714512766" fill="none" stroke="black" stroke-linecap="round" stroke-linejoin="round" stroke-width="2" /><path d="M 229.36568677959218,100.40491709851166 L 231.4235291311455,80.2828431375428 L 230.60326059957583,60.16076917657394 L 232.274159595333,40.03869521560508" fill="none" stroke="black" stroke-linecap="round" stroke-linejoin="round" stroke-width="2" /><text dominant-baseline="middle" fill="black" font-family="Virgil, Comic Sans MS, cursive" font-size="16px" text-anchor="middle" x="281.2" y="70.0">Browser</text><path d="M 126.0,119.43143651673729 L 146.55164587134016,119.36974336532222 L 167.1032917426803,120.47824245723308 L 187.6549376140205,120.66684878990742 L 208.20658348536065,120.1440326253875 L 228.75822935670084,119.46288682338515 L 249.309875228041,120.65939145266107 L 269.86152109938115,121.99654913855811" fill="none" stroke="black" stroke-linecap="round" stroke-linejoin="round" stroke-width="2" /><path d="M 270.7325118336771,120.0 L 271.3703659011612,149.9402306630106 L 271.1318699377528,179.8804613260212" fill="none" stroke="black" stroke-linecap="round" stroke-linejoin="round" stroke-width="2" /><path d="M 269.86152109938115,178.63791683206057 L 249.309875228041,180.13261576818044 L 228.75822935670084,180.81170638783158 L 208.20658348536065,177.45105190167263 L 187.6549376140205,181.35183641733377 L 167.1032917426803,179.5961987265033 L 146.55164587134016,179.05869223400478 L 126.0,178.56753101181528" fill="none" stroke="black" stroke-linecap="round" stroke-linejoin="round" stroke-width="2" /><path d="M 125.81817505832652,179.8804613260212 L 126.60546134339637,149.9402306630106 L 129.00383283506483,120.0" fill="none" stroke="black" stroke-linecap="round" stroke-linejoin="round" stroke-width="2" /><path d="M 125.78464650758215,121.0922991866168 L 146.3362923789223,118.99638267793495 L 166.8879382502625,117.99619862039405 L 187.43958412160265,119.02302107104407 L 207.9912299929428,120.64702240039253 L 228.542875864283,118.50852841692613 L 249.09452173562318,120.58879386301435 L 269.64616760696333,119.20951472341513" fill="none" stroke="black" stroke-linecap="round" stroke-linejoin="round" stroke-width="2" /><path d="M 269.2044582023287,119.79838881140171 L 269.97208061374573,149.7386194744123 L 270.21530077114664,179.6788501374229" fill="none" stroke="black" stroke-linecap="round" stroke-linejoin="round" stroke-width="2" /><path d="M 269.64616760696333,179.8692233267309 L 249.09452173562318,178.35225114658775 L 228.542875864283,180.58667646624974 L 207.99122999294283,179.4530785459936 L 187.43958412160265,180.0278779781958 L 166.8879382502625,179.8469457208179 L 146.33629237892234,179.83846477356423 L 125.78464650758215,180.89171846790484" fill="none" stroke="black" stroke-linecap="round" stroke-linejoin="round" stroke-width="2" /><path d="M 125.31802256596188,179.6788501374229 L 125.46760704060715,149.7386194744123 L 125.86358041415764,119.79838881140171" fill="none" stroke="black" stroke-linecap="round" stroke-linejoin="round" stroke-width="2" /><path d="M 126.09674719420184,120.20806074709023 L 146.648393065542,120.09612468083019 L 167.20003893688215,120.39163292495739 L 187.75168480822234,121.89665244803288 L 208.3033306795625,119.50259122699953 L 228.85497655090268,119.03768370635778 L 249.40662242224283,119.63003106375378 L 269.958268293583,118.64628050331392" fill="none" stroke="black" stroke-linecap="round" stroke-linejoin="round" stroke-width="2" /><path d="M 269.9701283567131,119.99882558743101 L 271.94649452384584,149.9390562504416 L 270.8832553155348,179.8792869134522" fill="none" stroke="black" stroke-linecap="round" stroke-linejoin="round" stroke-width="2" /><path d="M 269.958268293583,179.95619154080595 L 249.40662242224283,180.12046957934274 L 228.85497655090268,179.84953967100444 L 208.3033306795625,180.18287235395644 L 187.75168480822234,181.06941541633114 L 167.20003893688215,182.68966450287283 L 146.648393065542,180.06406440146205 L 126.09674719420184,179.19372287784103" fill="none" stroke="black" stroke-linecap="round" stroke-linejoin="round" stroke-width="2" /><path d="M 126.36487703736337,179.8792869134522 L 125.97210455931267,149.9390562504416 L 125.46710121703968,119.99882558743101" fill="none" stroke="black" stroke-linecap="round" stroke-linejoin="round" stroke-width="2" /><text dominant-baseline="middle" fill="black" font-family="Virgil, Comic Sans MS, cursive" font-size="16px" text-anchor="middle" x="198.0" y="150.0">Load Balancer</text><path d="M 52.0,201.2974309905222 L 74.71193983386745,200.45641396443196 L 97.4238796677349,200.79599113550304 L 120.13581950160236,198.30509275296393 L 142.8477593354698,199.20816862374772 L 165.55969916933725,198.8231005510662 L 188.2716390032047,198.2214296028735" fill="none" stroke="black" stroke-linecap="round" stroke-linejoin="round" stroke-width="2" /><path d="M 187.44648585477333,200.0 L 187.57645248894383,229.79282731765588 L 187.85593101148487,259.58565463531176" fill="none" stroke="black" stroke-linecap="round" stroke-linejoin="round" stroke-width="2" /><path d="M 188.2716390032047,258.7376367154273 L 165.55969916933725,258.82254451142194 L 142.84775933546982,260.6600271145525 L 120.13581950160236,258.7000475149357 L 97.42387966773491,260.0639796614992 L 74.71193983386745,259.76455171735336 L 52.0,260.294746408604" fill="none" stroke="black" stroke-linecap="round" stroke-linejoin="round" stroke-width="2" /><path d="M 52.51407767089531,259.58565463531176 L 51.39514148879977,229.79282731765588 L 51.38480680697494,200.0" fill="none" stroke="black" stroke-linecap="round" stroke-linejoin="round" stroke-width="2" /><path d="M 52.09506086111895,200.9906420929607 L 74.8070006949864,200.759632256315 L 97.51894052885385,198.70376788271923 L 120.23088036272131,199.77571702518176 L 142.94282019658874,200.61197396110876 L 165.6547600304562,200.27315578696934 L 188.36669986432366,198.83686549413312" fill="none" stroke="black" stroke-linecap="round" stroke-linejoin="round" stroke-width="2" /><path d="M 185.79370582705974,199.96139821257117 L 187.73282149064633,229.75422553022705 L 187.5258591922211,259.5470528478829" fill="none" stroke="black" stroke-linecap="round" stroke-linejoin="round" stroke-width="2" /><path d="M 188.36669986432366,258.4615374838337 L 165.6547600304562,257.7825440776602 L 142.94282019658877,257.8597732141365 L 120.23088036272131,261.2880516004641 L 97.51894052885386,257.51741217110214 L 74.8070006949864,259.41063637891824 L 52.09506086111895,260.7138454708837" fill="none" stroke="black" stroke-linecap="round" stroke-linejoin="round" stroke-width="2" /><path d="M 50.77508697868194,259.5470528478829 L 53.168087895359385,229.75422553022705 L 53.081079673783876,199.96139821257117" fill="none" stroke="black" stroke-linecap="round" stroke-linejoin="round" stroke-width="2" /><path d="M 52.049170650617135,199.57957410875184 L 74.76111048448459,199.8443349025304 L 97.47305031835204,201.26105766792153 L 120.18499015221948,199.77598609710859 L 142.89692998608695,202.44447352407235 L 165.6088698199544,199.41991123443842 L 188.32080965382184,198.86305145158263" fill="none" stroke="black" stroke-linecap="round" stroke-linejoin="round" stroke-width="2" /><path d="M 186.35683886263635,200.19790531130505 L 189.5405353497052,229.99073262896093 L 189.43084962835496,259.7835599466168" fill="none" stroke="black" stroke-linecap="round" stroke-linejoin="round" stroke-width="2" /><path d="M 188.32080965382184,260.6597091830013 L 165.60886981995438,263.00343517143244 L 142.89692998608695,257.88560749924125 L 120.18499015221948,260.42229132403213 L 97.47305031835204,259.63867651678186 L 74.76111048448458,257.5286194973448 L 52.04917065061713,260.05823066818283" fill="none" stroke="black" stroke-linecap="round" stroke-linejoin="round" stroke-width="2" /><path d="M 51.6148146638407,259.7835599466168 L 51.226729641502374,229.99073262896093 L 52.61023022580158,200.19790531130505" fill="none" stroke="black" stroke-linecap="round" stroke-linejoin="round" stroke-width="2" /><text dominant-baseline="middle" fill="black" font-family="Virgil, Comic Sans MS, cursive" font-size="16px" text-anchor="middle" x="120.0" y="230.0">Web Server 1</text><path d="M 208.0,199.85277001930487 L 230.65834934392743,200.6968458614379 L 253.31669868785485,198.7588284164483 L 275.9750480317823,198.69271786955173 L 298.6333973757097,199.5233247508305 L 321.2917467196371,201.24108256363434 L 343.95009606356456,201.0880428065597" fill="none" stroke="black" stroke-linecap="round" stroke-linejoin="round" stroke-width="2" /><path d="M 343.25208425115227,200.0 L 345.82007133466567,229.8584345443076 L 343.6085392220548,259.7168690886152" fill="none" stroke="black" stroke-linecap="round" stroke-linejoin="round" stroke-width="2" /><path d="M 343.95009606356456,260.2129732889438 L 321.2917467196371,260.7184529861412 L 298.6333973757097,259.09803962595817 L 275.9750480317823,260.71756729498605 L 253.31669868785485,259.32569196370247 L 230.65834934392743,258.38486767464883 L 208.0,259.60798284105374" fill="none" stroke="black" stroke-linecap="round" stroke-linejoin="round" stroke-width="2" /><path d="M 206.30517995596634,259.7168690886152 L 208.32261374722614,229.8584345443076 L 207.8186186015224,200.0" fill="none" stroke="black" stroke-linecap="round" stroke-linejoin="round" stroke-width="2" /><path d="M 208.15921063218764,199.2936085020025 L 230.81755997611506,198.52839985452562 L 253.4759093200425,201.10128419558757 L 276.13425866396994,199.5051517339647 L 298.79260800789734,198.8987288815691 L 321.45095735182474,200.10645114986306 L 344.1093066957522,200.15431540151584" fill="none" stroke="black" stroke-linecap="round" stroke-linejoin="round" stroke-width="2" /><path d="M 342.93808948749927,200.0147989648776 L 345.717216082329,229.87323350918524 L 343.25190737084716,259.73166805349285" fill="none" stroke="black" stroke-linecap="round" stroke-linejoin="round" stroke-width="2" /><path d="M 344.1093066957522,258.79775930513784 L 321.45095735182474,257.86998065265215 L 298.79260800789734,260.94513595371205 L 276.13425866396994,260.74802228602965 L 253.4759093200425,260.28294895856914 L 230.81755997611506,259.382011873627 L 208.15921063218764,260.28001782637716" fill="none" stroke="black" stroke-linecap="round" stroke-linejoin="round" stroke-width="2" /><path d="M 209.25548767172776,259.73166805349285 L 207.45899281482414,229.87323350918524 L 207.7488850058765,200.0147989648776" fill="none" stroke="black" stroke-linecap="round" stroke-linejoin="round" stroke-width="2" /><path d="M 207.9572536101273,199.99605876277693 L 230.61560295405474,200.37283940552905 L 253.27395229798213,199.53075456616696 L 275.9323016419096,198.8386519485013 L 298.590650985837,199.55577171380952 L 321.24900032976444,199.73003626667324 L 343.90734967369184,197.9420819979863" fill="none" stroke="black" stroke-linecap="round" stroke-linejoin="round" stroke-width="2" /><path d="M 342.321444880926,199.82491335781876 L 344.342215055584,229.6833479021264 L 344.24150518615244,259.541782446434" fill="none" stroke="black" stroke-linecap="round" stroke-linejoin="round" stroke-width="2" /><path d="M 343.90734967369184,258.87228185991194 L 321.24900032976444,259.2466885935741 L 298.590650985837,259.33817397384547 L 275.9323016419096,259.68866358359486 L 253.27395229798216,260.23369607780967 L 230.61560295405474,258.7646366377948 L 207.9572536101273,259.25422049121016" fill="none" stroke="black" stroke-linecap="round" stroke-linejoin="round" stroke-width="2" /><path d="M 206.994990747226,259.541782446434 L 208.2944717583497,229.6833479021264 L 207.65186389134806,199.82491335781876" fill="none" stroke="black" stroke-linecap="round" stroke-linejoin="round" stroke-width="2" /><text dominant-baseline="middle" fill="black" font-family="Virgil, Comic Sans MS, cursive" font-size="16px" text-anchor="middle" x="276.0" y="230.0">Web Server 2</text><path d="M 138.0,280.41059691961453 L 161.9346440383818,280.46663445264966 L 185.86928807676358,279.65194531866723 L 209.80393211514536,278.99934095458644 L 233.73857615352716,280.0546277018534 L 257.67322019190897,278.7666581673102" fill="none" stroke="black" stroke-linecap="round" stroke-linejoin="round" stroke-width="2" /><path d="M 257.6611220212048,280.0 L 256.02914287177276,300.066581802669 L 259.71140360756243,320.13316360533804 L 260.2137245364477,340.19974540800706" fill="none" stroke="black" stroke-linecap="round" stroke-linejoin="round" stroke-width="2" /><path d="M 257.67322019190897,339.9816672698605 L 233.73857615352716,341.12538976457137 L 209.8039321151454,341.37129246629854 L 185.8692880767636,340.9055935374918 L 161.9346440383818,340.0590141913612 L 138.0,339.7177391147303" fill="none" stroke="black" stroke-linecap="round" stroke-linejoin="round" stroke-width="2" /><path d="M 137.24949168433184,340.19974540800706 L 140.01452221086845,320.13316360533804 L 138.3089177731335,300.066581802669 L 139.63329009803377,280.0" fill="none" stroke="black" stroke-linecap="round" stroke-linejoin="round" stroke-width="2" /><path d="M 137.8631844004993,278.08107124982183 L 161.7978284388811,280.0171802715546 L 185.73247247726292,280.4305413956654 L 209.6671165156447,279.96911638702596 L 233.6017605540265,279.43138202634503 L 257.5364045924083,279.3467091024941" fill="none" stroke="black" stroke-linecap="round" stroke-linejoin="round" stroke-width="2" /><path d="M 257.8896042130845,279.9890049991981 L 257.4624194413752,300.0555868018671 L 257.90996477655335,320.1221686045361 L 256.2412668436149,340.18875040720513" fill="none" stroke="black" stroke-linecap="round" stroke-linejoin="round" stroke-width="2" /><path d="M 257.5364045924083,339.110305625147 L 233.6017605540265,340.6521150960527 L 209.6671165156447,340.0761916433439 L 185.7324724772629,339.6285746074513 L 161.79782843888108,341.0531253630015 L 137.8631844004993,340.2622225477508" fill="none" stroke="black" stroke-linecap="round" stroke-linejoin="round" stroke-width="2" /><path d="M 137.06990846932848,340.18875040720513 L 137.4044045034349,320.1221686045361 L 137.76209009521403,300.0555868018671 L 138.93548770046854,279.9890049991981" fill="none" stroke="black" stroke-linecap="round" stroke-linejoin="round" stroke-width="2" /><path d="M 137.94447030785352,280.4913387203426 L 161.87911434623533,279.50539292248885 L 185.8137583846171,279.98584326970087 L 209.74840242299888,280.6956029562695 L 233.68304646138068,279.12944779563173 L 257.6176904997625,280.9323408527971" fill="none" stroke="black" stroke-linecap="round" stroke-linejoin="round" stroke-width="2" /><path d="M 257.15077002790844,279.94253125707587 L 256.61125290568094,300.0091130597449 L 257.33440535732865,320.0756948624139 L 256.7421200817803,340.14227666508293" fill="none" stroke="black" stroke-linecap="round" stroke-linejoin="round" stroke-width="2" /><path d="M 257.6176904997625,339.44328779266993 L 233.68304646138068,337.6824179668042 L 209.7484024229989,341.1510942033149 L 185.81375838461713,340.91192989652956 L 161.87911434623533,339.6073121711303 L 137.94447030785352,339.95125898733744" fill="none" stroke="black" stroke-linecap="round" stroke-linejoin="round" stroke-width="2" /><path d="M 137.78746735906898,340.14227666508293 L 138.71461593997915,320.0756948624139 L 137.70604722638456,300.0091130597449 L 136.35610554837945,279.94253125707587" fill="none" stroke="black" stroke-linecap="round" stroke-linejoin="round" stroke-width="2" /><text dominant-baseline="middle" fill="black" font-family="Virgil, Comic Sans MS, cursive" font-size="16px" text-anchor="middle" x="198.0" y="310.0">App Server</text><path d="M 198.3111961666413,359.41910048893624 L 217.5265476680941,370.63711101955766 L 237.24713482053755,380.91201500166324 L 256.82755395812376,391.44856594483554 L 276.07935882839257,402.59853018700045" fill="none" stroke="black" stroke-linecap="round" stroke-linejoin="round" stroke-width="2" /><path d="M 276.91582264669154,402.962868940491 L 257.2782344852409,413.3927043724497 L 236.99004385203986,422.6080818571411 L 217.19575218834476,432.7454040849102 L 198.10704891430845,444.19982464004244" fill="none" stroke="black" stroke-linecap="round" stroke-linejoin="round" stroke-width="2" /><path d="M 197.73609252990047,444.49262727751915 L 177.56983661400082,435.0496383205318 L 158.76021467860372,423.07426593327307 L 138.9970499306535,412.87884012944676 L 120.30624994517106,400.68166676901404" fill="none" stroke="black" stroke-linecap="round" stroke-linejoin="round" stroke-width="2" /><path d="M 119.22317272504674,401.2965890867539 L 139.16215639107645,391.429358596676 L 158.98717175407077,381.34938727426544 L 179.24016186336917,372.06830214495574 L 197.96981989855112,359.9436638106288" fill="none" stroke="black" stroke-linecap="round" stroke-linejoin="round" stroke-width="2" /><path d="M 198.1335980515302,360.07598402393756 L 217.70744418663415,370.4933519533744 L 236.7445073703223,381.9128320440988 L 256.6659381153484,391.68129940066757 L 276.2426231258656,402.09336747553834" fill="none" stroke="black" stroke-linecap="round" stroke-linejoin="round" stroke-width="2" /><path d="M 276.3077807149802,402.4894699075196 L 256.1424433780015,411.80259165117474 L 236.6904213305358,422.44739116993105 L 218.15446360938282,434.8023776450698 L 197.56557641068366,443.32478040962496" fill="none" stroke="black" stroke-linecap="round" stroke-linejoin="round" stroke-width="2" /><path d="M 197.73877195202564,444.57096584655613 L 178.0043235732396,434.4534238730285 L 159.24615939555832,422.5132713485886 L 139.41405368279078,412.5780444090308 L 120.19094284349055,401.5058939378037" fill="none" stroke="black" stroke-linecap="round" stroke-linejoin="round" stroke-width="2" /><path d="M 120.20494515485538,402.9814424130178 L 138.86324414910308,390.854853053086 L 159.88113050422015,383.13334247539086 L 177.26663928110077,368.6305998635208 L 198.674767073949,361.63762526029603" fill="none" stroke="black" stroke-linecap="round" stroke-linejoin="round" stroke-width="2" /><path d="M 197.72923932910115,360.0199336031005 L 217.6734884624508,369.905778845762 L 236.62476417100876,381.63884111399335 L 256.78162923871037,391.1291593827836 L 276.66181436011414,401.1341821690107" fill="none" stroke="black" stroke-linecap="round" stroke-linejoin="round" stroke-width="2" /><path d="M 275.86934332559173,400.86369128080844 L 257.2620365600464,413.2366350120643 L 237.45204141454215,423.37223140204446 L 218.09687400270812,434.35393858649354 L 198.65323685531604,445.1710665408339" fill="none" stroke="black" stroke-linecap="round" stroke-linejoin="round" stroke-width="2" /><path d="M 198.20760812512796,443.40054162776187 L 178.80844947208826,432.5006708426587 L 158.88781386514322,422.57089762879554 L 138.90284200015748,412.7608084147727 L 118.99355040113652,402.8099320736229" fill="none" stroke="black" stroke-linecap="round" stroke-linejoin="round" stroke-width="2" /><path d="M 119.48797015525768,401.581929488547 L 138.99647301431995,390.8854704705359 L 158.9570298854622,381.0299623246657 L 177.92067797071434,369.31991624629967 L 197.56151926023375,358.86964488626023" fill="none" stroke="black" stroke-linecap="round" stroke-linejoin="round" stroke-width="2" /><text dominant-baseline="middle" fill="black" font-family="Virgil, Comic Sans MS, cursive" font-size="16px" text-anchor="middle" x="198.0" y="402.0">In Cache?</text><path d="M 217.2,624.2520747710649 L 238.54007944691816,624.5892579989589 L 259.8801588938363,625.6300413296105 L 281.2202383407545,625.3828368547278 L 302.5603177876727,623.6458252621601 L 323.90039723459086,623.5724333020418 L 345.24047668150905,624.8924763631438" fill="none" stroke="black" stroke-linecap="round" stroke-linejoin="round" stroke-width="2" /><path d="M 345.97211291858315,624.0 L 343.9785003212806,653.8736124144953 L 343.16969379103006,683.7472248289906" fill="none" stroke="black" stroke-linecap="round" stroke-linejoin="round" stroke-width="2" /><path d="M 345.24047668150905,685.4743617124848 L 323.90039723459086,681.851612818643 L 302.5603177876727,682.9682833850976 L 281.2202383407545,683.7708200333867 L 259.8801588938363,683.8837425516928 L 238.54007944691816,684.1965169802202 L 217.2,683.5380689675887" fill="none" stroke="black" stroke-linecap="round" stroke-linejoin="round" stroke-width="2" /><path d="M 216.8380019556069,683.7472248289906 L 218.65047631859557,653.8736124144953 L 215.72583228601073,624.0" fill="none" stroke="black" stroke-linecap="round" stroke-linejoin="round" stroke-width="2" /><path d="M 217.2786743238141,625.6521297630792 L 238.61875377073227,625.1015237495408 L 259.95883321765047,623.3907982363842 L 281.29891266456866,625.3452437968834 L 302.6389921114868,622.9696765261268 L 323.979071558405,624.4219537208646 L 345.3191510053232,623.8320757140053" fill="none" stroke="black" stroke-linecap="round" stroke-linejoin="round" stroke-width="2" /><path d="M 343.6555802644699,623.9997523357176 L 344.10782018692396,653.8733647502129 L 345.2482281925295,683.7469771647083" fill="none" stroke="black" stroke-linecap="round" stroke-linejoin="round" stroke-width="2" /><path d="M 345.3191510053232,682.6940194018417 L 323.979071558405,683.7718288011621 L 302.6389921114868,682.0127463998955 L 281.29891266456866,682.7304625596307 L 259.95883321765047,682.8952427578952 L 238.61875377073227,684.0194084345625 L 217.2786743238141,684.8317133780591" fill="none" stroke="black" stroke-linecap="round" stroke-linejoin="round" stroke-width="2" /><path d="M 215.98934779059,683.7469771647083 L 217.6281961295326,653.8733647502129 L 217.55757702206878,623.9997523357176" fill="none" stroke="black" stroke-linecap="round" stroke-linejoin="round" stroke-width="2" /><path d="M 216.89624743787607,623.3051516449761 L 238.23632688479424,625.4401521667442 L 259.5764063317124,623.7233428788643 L 280.9164857786306,622.9978905306575 L 302.2565652255488,624.5166536478462 L 323.59664467246694,623.5945062669053 L 344.93672411938513,624.2497708023513" fill="none" stroke="black" stroke-linecap="round" stroke-linejoin="round" stroke-width="2" /><path d="M 346.36673444243337,624.1803348217906 L 342.5023361491885,654.0539472362859 L 343.04013371861106,683.9275596507812" fill="none" stroke="black" stroke-linecap="round" stroke-linejoin="round" stroke-width="2" /><path d="M 344.93672411938513,682.6694109405788 L 323.59664467246694,685.2609354134067 L 302.2565652255488,682.6965108395967 L 280.9164857786306,684.7193310339455 L 259.5764063317124,683.8193976736693 L 238.23632688479424,685.6575796435219 L 216.89624743787607,685.5352468362822" fill="none" stroke="black" stroke-linecap="round" stroke-linejoin="round" stroke-width="2" /><path d="M 219.30615277425622,683.9275596507812 L 216.93673467559162,654.0539472362859 L 216.0536687387404,624.1803348217906" fill="none" stroke="black" stroke-linecap="round" stroke-linejoin="round" stroke-width="2" /><text dominant-baseline="middle" fill="black" font-family="Virgil, Comic Sans MS, cursive" font-size="16px" text-anchor="middle" x="281.2" y="654.0">Return Data</text><text dominant-baseline="middle" fill="black" font-family="Virgil, Comic Sans MS, cursive" font-size="16px" text-anchor="middle" x="116.0" y="494.0">Database</text><path d="M 40.0,544.0649748788435 L 61.69474153745362,544.5232884118527 L 83.38948307490725,544.3504814655834 L 105.08422461236086,545.0488045077657 L 126.77896614981448,542.7597533795738 L 148.4737076872681,544.2923012847971 L 170.1684492247217,542.9365050164989 L 191.86319076217535,544.6474323251389" fill="none" stroke="black" stroke-linecap="round" stroke-linejoin="round" stroke-width="2" /><path d="M 192.92380076469908,544.0 L 192.13182819854183,564.0867025668293 L 193.02274925278678,584.1734051336585 L 192.73778686130623,604.2601077004879" fill="none" stroke="black" stroke-linecap="round" stroke-linejoin="round" stroke-width="2" /><path d="M 191.86319076217535,604.7069576773614 L 170.16844922472174,603.5355464904569 L 148.4737076872681,603.4604315911372 L 126.7789661498145,604.3577580079317 L 105.08422461236087,604.1808017257107 L 83.38948307490725,604.3056417736967 L 61.69474153745364,605.4644945159168 L 40.0,604.440767826096" fill="none" stroke="black" stroke-linecap="round" stroke-linejoin="round" stroke-width="2" /><path d="M 39.88860153332997,604.2601077004879 L 41.25057909575578,584.1734051336585 L 38.73288587672288,564.0867025668293 L 40.84896604778662,544.0" fill="none" stroke="black" stroke-linecap="round" stroke-linejoin="round" stroke-width="2" /><path d="M 39.880908204581104,544.5832636107211 L 61.57564974203473,544.7184189204686 L 83.27039127948834,542.1632168749148 L 104.96513281694196,545.0227244197929 L 126.65987435439558,544.1155053408659 L 148.35461589184922,542.0988320530051 L 170.0493574293028,543.8893148249304 L 191.74409896675644,543.3661599491652" fill="none" stroke="black" stroke-linecap="round" stroke-linejoin="round" stroke-width="2" /><path d="M 193.7242169222612,544.0040302713036 L 192.70373904634198,564.0907328381329 L 192.3806657565163,584.1774354049621 L 192.35069486985154,604.2641379717915" fill="none" stroke="black" stroke-linecap="round" stroke-linejoin="round" stroke-width="2" /><path d="M 191.74409896675647,603.2503742661672 L 170.04935742930286,604.0719918602225 L 148.35461589184922,605.0844471688325 L 126.65987435439561,603.6782396221338 L 104.96513281694199,601.4712593510658 L 83.27039127948836,603.7000378934354 L 61.575649742034756,603.2177429993664 L 39.88090820458112,604.9558224876307" fill="none" stroke="black" stroke-linecap="round" stroke-linejoin="round" stroke-width="2" /><path d="M 37.78955729453162,604.2641379717915 L 41.23871879949067,584.1774354049621 L 41.03181171098521,564.0907328381329 L 38.648193619860365,544.0040302713036" fill="none" stroke="black" stroke-linecap="round" stroke-linejoin="round" stroke-width="2" /><path d="M 39.867711574733974,543.4412704511664 L 61.5624531121876,545.1947847415357 L 83.2571946496412,544.4341728438733 L 104.95193618709483,542.4229521064677 L 126.64667772454845,543.8744870802534 L 148.3414192620021,544.2655169835269 L 170.03616079945567,544.2945539087973 L 191.7309023369093,542.9179913381722" fill="none" stroke="black" stroke-linecap="round" stroke-linejoin="round" stroke-width="2" /><path d="M 193.22728071885768,544.0568239709372 L 192.58766114565432,564.1435265377665 L 192.33920178660156,584.2302291045958 L 191.21738492763808,604.3169316714251" fill="none" stroke="black" stroke-linecap="round" stroke-linejoin="round" stroke-width="2" /><path d="M 191.73090233690934,605.0711270562921 L 170.03616079945573,603.3140274657214 L 148.3414192620021,603.6226394971412 L 126.64667772454848,602.5946120626598 L 104.95193618709486,605.0848367306905 L 83.25719464964124,603.2075628117669 L 61.562453112187626,602.6842693787385 L 39.86771157473399,603.9907233135955" fill="none" stroke="black" stroke-linecap="round" stroke-linejoin="round" stroke-width="2" /><path d="M 39.87869036182473,604.3169316714251 L 40.0347289901489,584.2302291045958 L 41.169609585972765,564.1435265377665 L 39.54469514668015,544.0568239709372" fill="none" stroke="black" stroke-linecap="round" stroke-linejoin="round" stroke-width="2" /><text dominant-baseline="middle" fill="black" font-family="Virgil, Comic Sans MS, cursive" font-size="16px" text-anchor="middle" x="116.0" y="574.0">Store in Cache</text></g></svg>