<?xml version="1.0" encoding="utf-8" ?>
<svg baseProfile="full" height="564.0px" version="1.1" viewBox="0 0 680.0 564.0" width="680.0px" xmlns="http://www.w3.org/2000/svg" xmlns:ev="http://www.w3.org/2001/xml-events" xmlns:xlink="http://www.w3.org/1999/xlink"><defs /><rect fill="white" height="564.0" width="680.0" x="0" y="0" /><g><path d="M 339.7300634505421,100.0 L 340.49983838647296,110.0 L 340.25685087300315,120.0" fill="none" stroke="black" stroke-linecap="round" stroke-linejoin="round" stroke-width="2" /><path d="M 337.32141564671497,112.55800967265702 L 339.4314178130031,116.02566068783202 L 340.25685087300315,120.0" fill="none" stroke="black" stroke-linecap="round" stroke-linejoin="round" stroke-width="2" /><path d="M 343.55027054572895,112.70936306902459 L 341.5653441888581,116.201898046207 L 340.25685087300315,120.0" fill="none" stroke="black" stroke-linecap="round" stroke-linejoin="round" stroke-width="2" /><path d="M 255.71386056467824,161.9004732398881 L 249.43145327558668,185.4978967915084 L 239.59832664071843,207.86028752720642 L 230.47352717320118,230.4690529298091 L 223.8274250854368,253.93997394276062" fill="none" stroke="black" stroke-linecap="round" stroke-linejoin="round" stroke-width="2" /><path d="M 222.015415210005,239.4091200596884 L 222.63588473655946,246.71015351058546 L 223.8274250854368,253.93997394276062" fill="none" stroke="black" stroke-linecap="round" stroke-linejoin="round" stroke-width="2" /><path d="M 232.98878218681298,242.5163742289698 L 228.183376610289,248.04795028727327 L 223.8274250854368,253.93997394276062" fill="none" stroke="black" stroke-linecap="round" stroke-linejoin="round" stroke-width="2" /><text fill="black" font-family="Virgil, Comic Sans MS, cursive" font-size="14px" text-anchor="middle" x="249.43145327558668" y="175.4978967915084">Express</text><path d="M 338.84452172200594,204.0 L 341.3121927028611,214.0 L 339.9372898568149,224.0" fill="none" stroke="black" stroke-linecap="round" stroke-linejoin="round" stroke-width="2" /><path d="M 337.854631313966,216.27584739962379 L 338.8057734543958,220.1622408007987 L 339.9372898568149,224.0" fill="none" stroke="black" stroke-linecap="round" stroke-linejoin="round" stroke-width="2" /><path d="M 344.0272555916502,217.12452326831996 L 341.0535907002116,220.00982319170234 L 339.9372898568149,224.0" fill="none" stroke="black" stroke-linecap="round" stroke-linejoin="round" stroke-width="2" /><text fill="black" font-family="Virgil, Comic Sans MS, cursive" font-size="14px" text-anchor="middle" x="341.3121927028611" y="204.0">Standard</text><path d="M 424.40388414221144,161.19223171557712 L 445.28091383648393,171.10483899369888 L 465.42620805867693,182.4809172159794 L 486.64883349894103,191.70233300211788 L 507.22881593074453,202.20903480517748 L 527.0527998200682,214.22773369319694 L 548.6937813179319,222.6124373641361" fill="none" stroke="black" stroke-linecap="round" stroke-linejoin="round" stroke-width="2" /><path d="M 528.7029997185649,223.21960377164862 L 538.7314187420776,224.00346546111334 L 548.6937813179319,222.6124373641361" fill="none" stroke="black" stroke-linecap="round" stroke-linejoin="round" stroke-width="2" /><path d="M 534.3305151319404,208.6949453317923 L 540.9586876442957,216.22487914708185 L 548.6937813179319,222.6124373641361" fill="none" stroke="black" stroke-linecap="round" stroke-linejoin="round" stroke-width="2" /><text fill="black" font-family="Virgil, Comic Sans MS, cursive" font-size="14px" text-anchor="middle" x="445.28091383648393" y="161.10483899369888">Economy</text><path d="M 131.84575376814985,284.0 L 132.70127910724543,294.0 L 131.836648762171,304.0" fill="none" stroke="black" stroke-linecap="round" stroke-linejoin="round" stroke-width="2" /><path d="M 129.36761573524288,296.3905403666267 L 132.62898955992512,299.53761801306985 L 131.836648762171,304.0" fill="none" stroke="black" stroke-linecap="round" stroke-linejoin="round" stroke-width="2" /><path d="M 135.57514910316485,296.9272625384234 L 133.4017525287937,300.3028658738082 L 131.836648762171,304.0" fill="none" stroke="black" stroke-linecap="round" stroke-linejoin="round" stroke-width="2" /><path d="M 339.45601458164214,284.0 L 338.7010241736332,294.0 L 340.07135513248346,304.0" fill="none" stroke="black" stroke-linecap="round" stroke-linejoin="round" stroke-width="2" /><path d="M 335.9844750709711,297.12268865305543 L 337.2155733682662,301.0440828657814 L 340.07135513248346,304.0" fill="none" stroke="black" stroke-linecap="round" stroke-linejoin="round" stroke-width="2" /><path d="M 342.1574795570737,296.2767827374126 L 342.30831662319366,300.4608764627444 L 340.07135513248346,304.0" fill="none" stroke="black" stroke-linecap="round" stroke-linejoin="round" stroke-width="2" /><path d="M 547.5071159769242,284.0 L 546.6429708135832,294.0 L 547.8502325181695,304.0" fill="none" stroke="black" stroke-linecap="round" stroke-linejoin="round" stroke-width="2" /><path d="M 543.8741866859297,297.05802192887876 L 547.1634916597311,299.78369643751273 L 547.8502325181695,304.0" fill="none" stroke="black" stroke-linecap="round" stroke-linejoin="round" stroke-width="2" /><path d="M 550.059964962386,296.31123660625605 L 548.9150692696553,300.144113927791 L 547.8502325181695,304.0" fill="none" stroke="black" stroke-linecap="round" stroke-linejoin="round" stroke-width="2" /><path d="M 132.4266635541715,364.0 L 131.94680972555994,374.0 L 133.2072330434,384.0" fill="none" stroke="black" stroke-linecap="round" stroke-linejoin="round" stroke-width="2" /><path d="M 129.19489069305934,377.07893730243234 L 132.11206503802197,380.01133348481505 L 133.2072330434,384.0" fill="none" stroke="black" stroke-linecap="round" stroke-linejoin="round" stroke-width="2" /><path d="M 135.37667368931753,376.29977095900125 L 133.79267942058,380.00922145695625 L 133.2072330434,384.0" fill="none" stroke="black" stroke-linecap="round" stroke-linejoin="round" stroke-width="2" /><path d="M 338.61264117083766,364.0 L 340.20462531182375,374.0 L 340.8554335340516,384.0" fill="none" stroke="black" stroke-linecap="round" stroke-linejoin="round" stroke-width="2" /><path d="M 337.2681285529733,376.8493886294436 L 337.47529268154966,381.2206007496214 L 340.8554335340516,384.0" fill="none" stroke="black" stroke-linecap="round" stroke-linejoin="round" stroke-width="2" /><path d="M 343.48566870558386,376.4447460041085 L 342.1140741507717,380.20271149094594 L 340.8554335340516,384.0" fill="none" stroke="black" stroke-linecap="round" stroke-linejoin="round" stroke-width="2" /><path d="M 548.3457376879923,364.0 L 548.6382923037128,374.0 L 546.8529043733329,384.0" fill="none" stroke="black" stroke-linecap="round" stroke-linejoin="round" stroke-width="2" /><path d="M 545.0811356031949,376.1986645101519 L 545.5935958913568,380.18414095914693 L 546.8529043733329,384.0" fill="none" stroke="black" stroke-linecap="round" stroke-linejoin="round" stroke-width="2" /><path d="M 551.2148367145592,377.29376810343064 L 548.8053790012075,380.49826636814294 L 546.8529043733329,384.0" fill="none" stroke="black" stroke-linecap="round" stroke-linejoin="round" stroke-width="2" /><path d="M 220.8950752062176,413.28393983502593 L 232.4252117712705,430.2998305829836 L 244.56572843963824,446.8274172482894 L 257.8793038106089,462.4165569515128 L 271.06583749513356,478.10733000389314 L 284.30700509959564,493.7543959203235" fill="none" stroke="black" stroke-linecap="round" stroke-linejoin="round" stroke-width="2" /><path d="M 270.58112657417774,486.80818222209547 L 277.18652649978134,490.79019274307984 L 284.30700509959564,493.7543959203235" fill="none" stroke="black" stroke-linecap="round" stroke-linejoin="round" stroke-width="2" /><path d="M 279.72700214436634,479.06857966905335 L 282.76089517121943,486.1794935060776 L 284.30700509959564,493.7543959203235" fill="none" stroke="black" stroke-linecap="round" stroke-linejoin="round" stroke-width="2" /><path d="M 339.6737694815277,444.0 L 339.8379538084956,454.0 L 340.2450677236699,464.0" fill="none" stroke="black" stroke-linecap="round" stroke-linejoin="round" stroke-width="2" /><path d="M 336.83256638602904,456.7643359240081 L 337.19279588599477,461.01698171109035 L 340.2450677236699,464.0" fill="none" stroke="black" stroke-linecap="round" stroke-linejoin="round" stroke-width="2" /><path d="M 343.058102842695,456.51088567191476 L 342.02119457103834,460.39427419324585 L 340.2450677236699,464.0" fill="none" stroke="black" stroke-linecap="round" stroke-linejoin="round" stroke-width="2" /><path d="M 459.4509118716359,413.5607294973088 L 447.598467904079,430.31877432326314 L 434.1379305970256,445.7903444776205 L 422.3384216654641,462.59073733237125 L 408.98401014512234,478.1472081160979 L 396.14090375150494,494.1127230012039" fill="none" stroke="black" stroke-linecap="round" stroke-linejoin="round" stroke-width="2" /><path d="M 400.3542478615905,479.31760571486785 L 399.0988578718586,486.9575919242716 L 396.14090375150494,494.1127230012039" fill="none" stroke="black" stroke-linecap="round" stroke-linejoin="round" stroke-width="2" /><path d="M 409.68973636271596,486.82733358266086 L 403.1044491670217,490.82175673153694 L 396.14090375150494,494.1127230012039" fill="none" stroke="black" stroke-linecap="round" stroke-linejoin="round" stroke-width="2" /><path d="M 264.0,41.447454577085594 L 285.65411428260694,39.28415138577466 L 307.3082285652139,39.78322645912498 L 328.9623428478208,42.058891595881775 L 350.61645713042776,41.612396850093745 L 372.27057141303476,39.63821178822613 L 393.92468569564164,39.33249817426141 L 415.57879997824864,40.609018538639674" fill="none" stroke="black" stroke-linecap="round" stroke-linejoin="round" stroke-width="2" /><path d="M 417.28932303976006,40.0 L 416.38808138469125,69.64822264310803 L 415.6685779460325,99.29644528621606" fill="none" stroke="black" stroke-linecap="round" stroke-linejoin="round" stroke-width="2" /><path d="M 415.57879997824864,97.86629876787032 L 393.9246856956417,100.0736502384384 L 372.27057141303476,100.54207755366362 L 350.6164571304278,98.49025054790921 L 328.9623428478209,100.17888740670176 L 307.3082285652139,98.47525862824621 L 285.654114282607,100.68857687350301 L 264.0,99.56147421241285" fill="none" stroke="black" stroke-linecap="round" stroke-linejoin="round" stroke-width="2" /><path d="M 263.9684791396995,99.29644528621606 L 261.81297688170514,69.64822264310803 L 263.52352976501226,40.0" fill="none" stroke="black" stroke-linecap="round" stroke-linejoin="round" stroke-width="2" /><path d="M 264.02914947350706,40.72737834183501 L 285.683263756114,40.271467951413946 L 307.33737803872094,42.16514550863643 L 328.9914923213279,39.97270040646113 L 350.6456066039349,41.17883837223791 L 372.2997208865418,40.83238999926138 L 393.95383516914876,38.708207168722794 L 415.6079494517557,40.92682267786363" fill="none" stroke="black" stroke-linecap="round" stroke-linejoin="round" stroke-width="2" /><path d="M 416.3088499091251,39.88092557354618 L 416.1738185895921,69.5291482166542 L 416.42337291479106,99.17737085976223" fill="none" stroke="black" stroke-linecap="round" stroke-linejoin="round" stroke-width="2" /><path d="M 415.6079494517557,99.15850323924566 L 393.95383516914876,97.88572275385737 L 372.2997208865418,99.52476720228027 L 350.6456066039349,97.16097726846236 L 328.9914923213279,97.88435090198988 L 307.33737803872094,98.56375289213759 L 285.683263756114,97.41133522034117 L 264.02914947350706,99.8984590868983" fill="none" stroke="black" stroke-linecap="round" stroke-linejoin="round" stroke-width="2" /><path d="M 262.90423361528866,99.17737085976223 L 263.8245614219103,69.5291482166542 L 263.71177679586225,39.88092557354618" fill="none" stroke="black" stroke-linecap="round" stroke-linejoin="round" stroke-width="2" /><path d="M 264.10545057343603,40.358411282320894 L 285.75956485604297,40.31992506621744 L 307.4136791386499,40.8370949224388 L 329.06779342125685,39.879995612563285 L 350.72190770386385,42.21678624320124 L 372.3760219864708,39.37598451696952 L 394.03013626907773,40.579516966331006 L 415.68425055168467,41.164724417967896" fill="none" stroke="black" stroke-linecap="round" stroke-linejoin="round" stroke-width="2" /><path d="M 417.28096375880494,39.98813951691872 L 415.8497714975685,69.63636216002675 L 417.16001890632964,99.28458480313478" fill="none" stroke="black" stroke-linecap="round" stroke-linejoin="round" stroke-width="2" /><path d="M 415.68425055168467,99.59368285795044 L 394.03013626907773,100.7651482070607 L 372.3760219864708,100.12461910476108 L 350.72190770386385,98.98739139400925 L 329.06779342125685,98.83394525646432 L 307.4136791386499,97.5678439824748 L 285.75956485604297,98.63567175193006 L 264.10545057343603,101.00517518341164" fill="none" stroke="black" stroke-linecap="round" stroke-linejoin="round" stroke-width="2" /><path d="M 263.87771381059065,99.28458480313478 L 265.6325641802346,69.63636216002675 L 262.8505950506435,39.98813951691872" fill="none" stroke="black" stroke-linecap="round" stroke-linejoin="round" stroke-width="2" /><text dominant-baseline="middle" fill="black" font-family="Virgil, Comic Sans MS, cursive" font-size="16px" text-anchor="middle" x="340.0" y="70.0">Customer Order</text><path d="M 339.9644416880711,120.0711166238579 L 361.75720071893625,128.98559856212754 L 382.55783261203453,139.88433477593088 L 403.1801142951758,151.13977140964835 L 424.2687410280691,161.46251794386177" fill="none" stroke="black" stroke-linecap="round" stroke-linejoin="round" stroke-width="2" /><path d="M 424.3897523293489,162.7795046586978 L 403.0782983965889,172.6565967931777 L 381.77358971568594,182.54717943137186 L 360.5819368931888,192.66387378637756 L 339.79019971459934,203.5803994291987" fill="none" stroke="black" stroke-linecap="round" stroke-linejoin="round" stroke-width="2" /><path d="M 340.14956618152684,203.70086763694638 L 319.2876263807561,192.9247472384879 L 297.6852786152543,183.62944276949145 L 276.29608881343484,173.9078223731303 L 256.04928512275234,161.90142975449538" fill="none" stroke="black" stroke-linecap="round" stroke-linejoin="round" stroke-width="2" /><path d="M 255.3809760077278,160.76195201545562 L 276.68289814141843,150.86579628283684 L 298.0094544761531,141.01890895230622 L 319.0782105621471,130.65642112429416 L 339.7651258257399,119.53025165147982" fill="none" stroke="black" stroke-linecap="round" stroke-linejoin="round" stroke-width="2" /><path d="M 339.8106372535514,120.14019915192178 L 361.19244415899726,129.68077124290468 L 381.3077387001384,141.73774357710485 L 402.2715855379633,152.10874957892756 L 423.6394524622732,161.67701865330326" fill="none" stroke="black" stroke-linecap="round" stroke-linejoin="round" stroke-width="2" /><path d="M 423.92469266183946,163.0295804854073 L 402.7556414069673,172.99287120586317 L 381.3767545875355,182.53924513926256 L 360.98030898333974,194.037605790394 L 340.12182197750434,204.61794848273465" fill="none" stroke="black" stroke-linecap="round" stroke-linejoin="round" stroke-width="2" /><path d="M 339.2786339219795,205.3152825671028 L 318.7980262973928,193.98414122985275 L 298.80905698126264,181.67617661488126 L 277.2644586981991,172.4590504481358 L 257.1110586186174,160.4777890101751" fill="none" stroke="black" stroke-linecap="round" stroke-linejoin="round" stroke-width="2" /><path d="M 255.60045197392643,160.66068907181716 L 277.0367717817623,151.22842723875112 L 297.54672725188624,139.95559636709856 L 318.6841976227889,129.92955841547337 L 340.24147804735264,120.73763006349486" fill="none" stroke="black" stroke-linecap="round" stroke-linejoin="round" stroke-width="2" /><path d="M 339.80685993934344,120.53030110457655 L 360.60510633290056,131.24195199917057 L 381.52653849492697,141.7064198141988 L 403.127505293391,150.80734161093727 L 423.0393151570709,163.2977053716144" fill="none" stroke="black" stroke-linecap="round" stroke-linejoin="round" stroke-width="2" /><path d="M 423.89221826890605,162.3357520811905 L 402.84692726282293,172.55168623128446 L 381.8401501098012,182.8449018151348 L 360.8043079216743,193.07979584955402 L 340.1419975233403,204.06421427517552" fill="none" stroke="black" stroke-linecap="round" stroke-linejoin="round" stroke-width="2" /><path d="M 339.8909563544323,203.83316239848057 L 319.18220917752427,192.94192345353846 L 297.61910899518335,183.76501896089005 L 277.3348646620654,172.0219777216052 L 255.9177620524428,162.5521162576925" fill="none" stroke="black" stroke-linecap="round" stroke-linejoin="round" stroke-width="2" /><path d="M 256.46099485967073,162.459960491042 L 277.8387783263725,152.91120170843874 L 297.7957461539471,140.51145137430504 L 318.1127728322742,128.83419079414074 L 339.69103731404977,119.68771480212452" fill="none" stroke="black" stroke-linecap="round" stroke-linejoin="round" stroke-width="2" /><text dominant-baseline="middle" fill="black" font-family="Virgil, Comic Sans MS, cursive" font-size="16px" text-anchor="middle" x="340.0" y="162.0">Order Type</text><path d="M 40.0,223.72117631336377 L 60.43246075844116,224.7299798436548 L 80.86492151688232,223.4641780387935 L 101.29738227532349,224.4044762185059 L 121.72984303376464,222.5712954401131 L 142.16230379220582,224.51786349955404 L 162.59476455064697,224.6630084498027 L 183.02722530908812,225.11514489990708 L 203.45968606752928,224.62766387244332 L 223.89214682597046,225.15880391971064" fill="none" stroke="black" stroke-linecap="round" stroke-linejoin="round" stroke-width="2" /><path d="M 224.59919094552305,224.0 L 223.59986942380166,253.7211804394438 L 224.71639319485465,283.4423608788876" fill="none" stroke="black" stroke-linecap="round" stroke-linejoin="round" stroke-width="2" /><path d="M 223.89214682597046,282.4636585349523 L 203.4596860675293,283.5318822929157 L 183.02722530908812,283.19837321391003 L 162.59476455064697,283.53141565591187 L 142.16230379220582,283.81545490509166 L 121.72984303376464,281.5998582866829 L 101.29738227532349,282.3652608292434 L 80.86492151688233,281.7892140531725 L 60.43246075844118,283.6867275921794 L 40.0,282.2024772341154" fill="none" stroke="black" stroke-linecap="round" stroke-linejoin="round" stroke-width="2" /><path d="M 38.78080510654297,283.4423608788876 L 38.45989051113341,253.7211804394438 L 38.57392352104769,224.0" fill="none" stroke="black" stroke-linecap="round" stroke-linejoin="round" stroke-width="2" /><path d="M 40.004350842035365,222.0830537478776 L 60.436811600476524,223.85971029342335 L 80.86927235891768,224.4009792087546 L 101.30173311735885,223.14771770532218 L 121.7341938758,225.60250744643744 L 142.16665463424118,223.9791997667354 L 162.59911539268234,223.65896152747348 L 183.0315761511235,223.74424927893727 L 203.46403690956464,223.0159932250146 L 223.89649766800582,223.73001005530213" fill="none" stroke="black" stroke-linecap="round" stroke-linejoin="round" stroke-width="2" /><path d="M 224.78045450249874,224.05168711805706 L 223.3334109937826,253.77286755750083 L 225.17650844902826,283.49404799694463" fill="none" stroke="black" stroke-linecap="round" stroke-linejoin="round" stroke-width="2" /><path d="M 223.89649766800582,284.4211850404118 L 203.46403690956467,284.33809477413564 L 183.0315761511235,283.7578793698185 L 162.59911539268234,282.8334527521064 L 142.16665463424118,283.03172844621554 L 121.7341938758,283.77046752039234 L 101.30173311735885,282.17725668516425 L 80.8692723589177,285.4244809821459 L 60.436811600476545,284.37002915410545 L 40.004350842035365,284.25959233551595" fill="none" stroke="black" stroke-linecap="round" stroke-linejoin="round" stroke-width="2" /><path d="M 39.88145895585567,283.49404799694463 L 40.38725127805109,253.77286755750083 L 40.360984641626565,224.05168711805706" fill="none" stroke="black" stroke-linecap="round" stroke-linejoin="round" stroke-width="2" /><path d="M 40.0834187361233,222.46798224588886 L 60.51587949456446,224.4518429281017 L 80.94834025300563,225.31927282716387 L 101.38080101144678,222.6107824485225 L 121.81326176988793,223.5767247124707 L 142.2457225283291,226.17018973755003 L 162.67818328677026,223.9616039526907 L 183.11064404521142,224.86086309791324 L 203.54310480365257,224.2685655030623 L 223.97556556209375,222.8200618121906" fill="none" stroke="black" stroke-linecap="round" stroke-linejoin="round" stroke-width="2" /><path d="M 222.79220816299997,224.23370114209538 L 223.96284795991042,253.9548815815392 L 224.0302852059495,283.676062020983" fill="none" stroke="black" stroke-linecap="round" stroke-linejoin="round" stroke-width="2" /><path d="M 223.97556556209375,281.8515905989438 L 203.5431048036526,283.65597226760264 L 183.11064404521142,284.69724826038583 L 162.67818328677026,283.25128336511875 L 142.2457225283291,283.6596469044089 L 121.81326176988793,283.5522034943194 L 101.38080101144678,282.9304364428113 L 80.94834025300563,283.39975068291466 L 60.51587949456447,282.56343348547915 L 40.08341873612329,283.2438691237015" fill="none" stroke="black" stroke-linecap="round" stroke-linejoin="round" stroke-width="2" /><path d="M 41.49901084443945,283.676062020983 L 40.5480443512528,253.9548815815392 L 41.84688763976459,224.23370114209538" fill="none" stroke="black" stroke-linecap="round" stroke-linejoin="round" stroke-width="2" /><text dominant-baseline="middle" fill="black" font-family="Virgil, Comic Sans MS, cursive" font-size="16px" text-anchor="middle" x="132.0" y="254.0">Express Processing</text><path d="M 244.0,222.74740021838852 L 265.3163338136511,222.57671529908305 L 286.6326676273022,224.96119737344299 L 307.94900144095334,225.17371638431285 L 329.26533525460445,224.05060928873135 L 350.58166906825556,223.4456984732516 L 371.8980028819067,224.7238506929827 L 393.2143366955578,223.56563150134912 L 414.5306705092089,224.9306922245428 L 435.84700432286,225.1869867077341" fill="none" stroke="black" stroke-linecap="round" stroke-linejoin="round" stroke-width="2" /><path d="M 436.2891190217579,224.0 L 435.71720119994694,244.07433653185151 L 436.34466164092964,264.14867306370303 L 435.25314986687675,284.2230095955545" fill="none" stroke="black" stroke-linecap="round" stroke-linejoin="round" stroke-width="2" /><path d="M 435.84700432286,283.066366615069 L 414.5306705092089,284.15057343886076 L 393.2143366955578,284.5873562626152 L 371.8980028819067,285.009215310416 L 350.58166906825556,284.91847202289495 L 329.26533525460445,284.8448306536455 L 307.94900144095334,283.9032157395255 L 286.6326676273022,283.54060456549905 L 265.3163338136511,282.58836359956473 L 244.0,284.6287127544733" fill="none" stroke="black" stroke-linecap="round" stroke-linejoin="round" stroke-width="2" /><path d="M 244.56359139902958,284.2230095955545 L 243.89684976540397,264.14867306370303 L 242.73712216500934,244.07433653185151 L 244.45589900875385,224.0" fill="none" stroke="black" stroke-linecap="round" stroke-linejoin="round" stroke-width="2" /><path d="M 243.97054478696424,223.13310447516398 L 265.28687860061535,224.88408308620245 L 286.60321241426647,222.9036978671852 L 307.9195462279176,223.07125041426485 L 329.2358800415687,223.05048990682525 L 350.5522138552198,224.0223100895633 L 371.8685476688709,223.61265421470645 L 393.18488148252203,222.02946371357052 L 414.50121529617314,224.343468974604 L 435.81754910982426,224.5162950083967" fill="none" stroke="black" stroke-linecap="round" stroke-linejoin="round" stroke-width="2" /><path d="M 435.93028684371933,223.92639477766195 L 435.1138847019249,244.00073130951344 L 436.51765194038535,264.07506784136496 L 435.6635135622701,284.14940437321644" fill="none" stroke="black" stroke-linecap="round" stroke-linejoin="round" stroke-width="2" /><path d="M 435.81754910982426,284.12715820029285 L 414.50121529617314,283.12164078466407 L 393.18488148252203,284.4229075653793 L 371.8685476688709,283.73409763323076 L 350.5522138552198,285.2866960775522 L 329.2358800415687,283.0757728478937 L 307.9195462279176,285.32065437099305 L 286.60321241426647,282.78348858767777 L 265.28687860061535,285.07077050852536 L 243.97054478696424,282.57323883622655" fill="none" stroke="black" stroke-linecap="round" stroke-linejoin="round" stroke-width="2" /><path d="M 244.6885246020983,284.14940437321644 L 243.06742506943874,264.07506784136496 L 244.02043775078883,244.00073130951347 L 243.87680026668744,223.92639477766195" fill="none" stroke="black" stroke-linecap="round" stroke-linejoin="round" stroke-width="2" /><path d="M 243.89351690864163,224.49777775036716 L 265.20985072229274,222.21871164955434 L 286.52618453594386,225.28757088371728 L 307.84251834959497,223.1881296061523 L 329.1588521632461,223.12934334182938 L 350.4751859768972,223.57633112809876 L 371.7915197905483,223.7510911455608 L 393.1078536041994,223.29950365981654 L 414.42418741785053,224.5356151601287 L 435.74052123150165,224.87792693469012" fill="none" stroke="black" stroke-linecap="round" stroke-linejoin="round" stroke-width="2" /><path d="M 434.3808796755906,223.95481805039657 L 436.9849372682002,244.02915458224808 L 435.94591269486153,264.1034911140996 L 436.0079747548407,284.1778276459511" fill="none" stroke="black" stroke-linecap="round" stroke-linejoin="round" stroke-width="2" /><path d="M 435.74052123150165,283.1432626176966 L 414.42418741785053,283.57821974607674 L 393.1078536041994,284.2359602580627 L 371.7915197905483,282.86654519629724 L 350.4751859768972,283.4901585476092 L 329.1588521632461,284.4262978559761 L 307.84251834959497,286.83823856342246 L 286.52618453594386,283.7307627400884 L 265.20985072229274,284.38254005322307 L 243.89351690864163,283.56268321656904" fill="none" stroke="black" stroke-linecap="round" stroke-linejoin="round" stroke-width="2" /><path d="M 245.40033344819375,284.1778276459511 L 243.78975796347484,264.1034911140996 L 241.96199696930037,244.02915458224808 L 244.0969261076103,223.95481805039657" fill="none" stroke="black" stroke-linecap="round" stroke-linejoin="round" stroke-width="2" /><text dominant-baseline="middle" fill="black" font-family="Virgil, Comic Sans MS, cursive" font-size="16px" text-anchor="middle" x="340.0" y="254.0">Standard Processing</text><path d="M 456.0,224.23844141552172 L 476.444290915343,224.89601046275138 L 496.88858183068595,223.86173798625035 L 517.3328727460289,225.4424369221236 L 537.7771636613719,223.51017241539265 L 558.2214545767149,225.05529360026108 L 578.6657454920579,224.6699486568498 L 599.1100364074009,222.67839885578266 L 619.5543273227438,224.3872589985029 L 639.9986182380868,224.4078535517084" fill="none" stroke="black" stroke-linecap="round" stroke-linejoin="round" stroke-width="2" /><path d="M 640.7212809304888,224.0 L 641.5100144845477,253.9433044077658 L 640.4504485263834,283.8866088155316" fill="none" stroke="black" stroke-linecap="round" stroke-linejoin="round" stroke-width="2" /><path d="M 639.9986182380868,283.26453876197894 L 619.5543273227438,282.82770732081156 L 599.1100364074008,286.4689827849906 L 578.6657454920579,284.35398550835305 L 558.2214545767149,283.8457609321529 L 537.7771636613719,284.44487702986055 L 517.3328727460289,283.40768506830034 L 496.88858183068595,284.3906714653205 L 476.444290915343,283.58364776374026 L 456.0,282.79812603174054" fill="none" stroke="black" stroke-linecap="round" stroke-linejoin="round" stroke-width="2" /><path d="M 456.3485462054314,283.8866088155316 L 454.71741993205393,253.9433044077658 L 457.10153511261007,224.0" fill="none" stroke="black" stroke-linecap="round" stroke-linejoin="round" stroke-width="2" /><path d="M 455.93061989513564,223.6461842262449 L 476.3749108104786,224.66659299120673 L 496.8192017258216,223.75463595581422 L 517.2634926411646,222.6930633392072 L 537.7077835565075,222.19531235656143 L 558.1520744718505,224.125721870369 L 578.5963653871935,226.47226529369405 L 599.0406563025365,224.2135645795501 L 619.4849472178794,224.41068789457807 L 639.9292381332224,223.2054043413477" fill="none" stroke="black" stroke-linecap="round" stroke-linejoin="round" stroke-width="2" /><path d="M 642.0947856918016,223.9726420507077 L 641.3685861728892,253.91594645847348 L 640.8053926722841,283.8592508662393" fill="none" stroke="black" stroke-linecap="round" stroke-linejoin="round" stroke-width="2" /><path d="M 639.9292381332224,285.3465117521793 L 619.4849472178794,284.92966269730897 L 599.0406563025365,285.4169273432036 L 578.5963653871935,283.2531127461009 L 558.1520744718505,285.1883109130669 L 537.7077835565075,284.227174877285 L 517.2634926411646,284.84237100738534 L 496.8192017258216,282.88503021651593 L 476.3749108104786,283.5255903017489 L 455.93061989513564,283.6463202167759" fill="none" stroke="black" stroke-linecap="round" stroke-linejoin="round" stroke-width="2" /><path d="M 456.6741032948598,283.8592508662393 L 454.0395374511116,253.91594645847348 L 455.6119497716344,223.9726420507077" fill="none" stroke="black" stroke-linecap="round" stroke-linejoin="round" stroke-width="2" /><path d="M 455.94914579751827,221.788444861263 L 476.3934367128612,224.0587916164325 L 496.8377276282042,223.53953712366322 L 517.2820185435472,224.1778013197143 L 537.7263094588901,224.2683069318842 L 558.1706003742331,224.95773941742274 L 578.6148912895761,224.03297846577505 L 599.0591822049191,224.0198879035588 L 619.503473120262,223.480580271788 L 639.947764035605,223.63530646457346" fill="none" stroke="black" stroke-linecap="round" stroke-linejoin="round" stroke-width="2" /><path d="M 640.0296857427321,223.7306337799857 L 640.1729019542845,253.6739381877515 L 640.1069534277285,283.61724259551727" fill="none" stroke="black" stroke-linecap="round" stroke-linejoin="round" stroke-width="2" /><path d="M 639.947764035605,282.22756174140073 L 619.503473120262,282.74863887869776 L 599.0591822049191,282.4066229661124 L 578.6148912895761,282.72474669134425 L 558.1706003742331,285.3920375003273 L 537.7263094588901,283.0218893241154 L 517.2820185435472,283.35631476360584 L 496.8377276282042,283.22885813074015 L 476.3934367128612,282.87508622930613 L 455.94914579751827,284.72649631903147" fill="none" stroke="black" stroke-linecap="round" stroke-linejoin="round" stroke-width="2" /><path d="M 455.5801744357224,283.61724259551727 L 455.8377576034446,253.6739381877515 L 454.17802296696624,223.7306337799857" fill="none" stroke="black" stroke-linecap="round" stroke-linejoin="round" stroke-width="2" /><text dominant-baseline="middle" fill="black" font-family="Virgil, Comic Sans MS, cursive" font-size="16px" text-anchor="middle" x="548.0" y="254.0">Economy Processing</text><path d="M 48.0,304.76323785202806 L 68.98696899235343,304.19433816625207 L 89.97393798470685,304.6938229755283 L 110.96090697706029,303.79294946630495 L 131.9478759694137,302.56174956049256 L 152.93484496176714,303.3691854338138 L 173.92181395412058,301.6072428729082 L 194.908782946474,304.25158233819303 L 215.89575193882743,303.60378574678714" fill="none" stroke="black" stroke-linecap="round" stroke-linejoin="round" stroke-width="2" /><path d="M 215.26840808171352,304.0 L 215.26147047133554,333.94157882254746 L 214.47681029040274,363.8831576450949" fill="none" stroke="black" stroke-linecap="round" stroke-linejoin="round" stroke-width="2" /><path d="M 215.89575193882743,363.6389902827314 L 194.908782946474,363.98905762232357 L 173.92181395412058,363.95200564900654 L 152.93484496176714,364.6997225319162 L 131.9478759694137,365.18735084911316 L 110.96090697706029,362.6833921035008 L 89.97393798470685,364.6720575811508 L 68.98696899235344,363.4134834427559 L 48.0,362.13231058456296" fill="none" stroke="black" stroke-linecap="round" stroke-linejoin="round" stroke-width="2" /><path d="M 47.04419768592467,363.8831576450949 L 45.942837656217705,333.94157882254746 L 47.33647001207002,304.0" fill="none" stroke="black" stroke-linecap="round" stroke-linejoin="round" stroke-width="2" /><path d="M 47.55460649884347,303.97190567466345 L 68.5415754911969,303.21151145316185 L 89.52854448355032,302.6919226858081 L 110.51551347590376,303.8911630427408 L 131.5024824682572,304.18595743840814 L 152.4894514606106,302.4669935384232 L 173.47642045296405,302.8989308114184 L 194.46338944531746,303.0844720058406 L 215.4503584376709,304.9198376072782" fill="none" stroke="black" stroke-linecap="round" stroke-linejoin="round" stroke-width="2" /><path d="M 214.35442270999786,304.00225179838344 L 214.4645874029835,333.9438306209309 L 215.77953306282492,363.88540944347835" fill="none" stroke="black" stroke-linecap="round" stroke-linejoin="round" stroke-width="2" /><path d="M 215.4503584376709,364.0550910902211 L 194.46338944531746,362.4179962157734 L 173.47642045296405,364.6522535135917 L 152.4894514606106,364.37009382638996 L 131.5024824682572,365.60607522616925 L 110.51551347590376,364.09822527825014 L 89.52854448355032,363.5982342298523 L 68.54157549119691,362.9373522075754 L 47.55460649884347,363.59628013516107" fill="none" stroke="black" stroke-linecap="round" stroke-linejoin="round" stroke-width="2" /><path d="M 48.7284770007407,363.88540944347835 L 48.1123734810074,333.9438306209309 L 46.95684089593578,304.00225179838344" fill="none" stroke="black" stroke-linecap="round" stroke-linejoin="round" stroke-width="2" /><path d="M 47.82977540657267,304.83034025908836 L 68.8167443989261,304.51772493299666 L 89.80371339127953,303.208389478471 L 110.79068238363297,306.6709646785369 L 131.77765137598638,302.8659783074009 L 152.76462036833982,305.0491216098331 L 173.75158936069326,302.91953729294676 L 194.73855835304667,305.0007333235303 L 215.7255273454001,304.1983484427649" fill="none" stroke="black" stroke-linecap="round" stroke-linejoin="round" stroke-width="2" /><path d="M 216.2679264709555,303.9368754356479 L 216.79426053439397,333.87845425819535 L 216.67943628547326,363.8200330807428" fill="none" stroke="black" stroke-linecap="round" stroke-linejoin="round" stroke-width="2" /><path d="M 215.7255273454001,363.8343105770743 L 194.73855835304667,364.8751329192507 L 173.75158936069326,364.4461678767833 L 152.76462036833982,363.3764518703167 L 131.7776513759864,363.6786582119028 L 110.79068238363297,364.17781468958464 L 89.80371339127953,364.2777380934301 L 68.81674439892612,364.9298891399864 L 47.82977540657268,364.40862205181185" fill="none" stroke="black" stroke-linecap="round" stroke-linejoin="round" stroke-width="2" /><path d="M 47.84487677400505,363.8200330807428 L 49.32168071520772,333.87845425819535 L 46.12688932824038,303.9368754356479" fill="none" stroke="black" stroke-linecap="round" stroke-linejoin="round" stroke-width="2" /><text dominant-baseline="middle" fill="black" font-family="Virgil, Comic Sans MS, cursive" font-size="16px" text-anchor="middle" x="132.0" y="334.0">Priority Packing</text><path d="M 256.0,303.90030813950136 L 276.9741200729133,303.31473026485423 L 297.9482401458267,305.5694885591608 L 318.92236021874,303.5305973415144 L 339.89648029165335,305.0269245268016 L 360.87060036456666,304.826972779675 L 381.84472043747996,303.3070882165677 L 402.81884051039333,306.1518714729256 L 423.79296058330664,303.82416927856815" fill="none" stroke="black" stroke-linecap="round" stroke-linejoin="round" stroke-width="2" /><path d="M 423.17506834420385,304.0 L 424.93583326603357,333.87122410582987 L 421.0463641526793,363.74244821165973" fill="none" stroke="black" stroke-linecap="round" stroke-linejoin="round" stroke-width="2" /><path d="M 423.79296058330664,362.6848831667675 L 402.81884051039333,363.56279293310564 L 381.84472043747996,363.89167000417405 L 360.87060036456666,363.76919124151664 L 339.89648029165335,363.43129742343154 L 318.92236021874,363.0562088713633 L 297.9482401458267,364.21196099624785 L 276.97412007291337,363.01422754046735 L 256.0,363.74876276780805" fill="none" stroke="black" stroke-linecap="round" stroke-linejoin="round" stroke-width="2" /><path d="M 256.13235517320686,363.74244821165973 L 258.3792901304621,333.87122410582987 L 255.7427631490159,304.0" fill="none" stroke="black" stroke-linecap="round" stroke-linejoin="round" stroke-width="2" /><path d="M 256.0507327676132,303.6113740186443 L 277.02485284052653,303.3202428711088 L 297.9989729134399,304.4972134461889 L 318.9730929863532,305.59654263586015 L 339.9472130592666,304.9606860089852 L 360.9213331321799,303.25082691483465 L 381.8954532050932,303.91195551533843 L 402.86957327800656,303.5115820819524 L 423.84369335091986,302.29309486136975" fill="none" stroke="black" stroke-linecap="round" stroke-linejoin="round" stroke-width="2" /><path d="M 424.0891019856573,303.860276031778 L 424.8399380942289,333.7315001376079 L 423.663780693872,363.60272424343776" fill="none" stroke="black" stroke-linecap="round" stroke-linejoin="round" stroke-width="2" /><path d="M 423.84369335091986,363.9699743063327 L 402.86957327800656,363.0132855009148 L 381.8954532050932,361.8638767282683 L 360.9213331321799,363.0136575334478 L 339.9472130592666,362.9769306163919 L 318.9730929863532,363.1999017039276 L 297.9989729134399,363.7901520786718 L 277.0248528405266,363.781194101652 L 256.0507327676132,363.7035574770653" fill="none" stroke="black" stroke-linecap="round" stroke-linejoin="round" stroke-width="2" /><path d="M 253.87340769166005,363.60272424343776 L 253.78256617399094,333.7315001376079 L 255.88443576172114,303.860276031778" fill="none" stroke="black" stroke-linecap="round" stroke-linejoin="round" stroke-width="2" /><path d="M 255.9296772917973,303.1595225757458 L 276.9037973647106,304.4254473613459 L 297.877917437624,303.33761419081696 L 318.8520375105373,303.12517192003315 L 339.8261575834506,303.3004699618179 L 360.80027765636396,304.5275748899481 L 381.77439772927727,304.16780388722754 L 402.7485178021906,304.15852406391394 L 423.72263787510394,303.31510955249325" fill="none" stroke="black" stroke-linecap="round" stroke-linejoin="round" stroke-width="2" /><path d="M 425.4070350659046,303.92815809679695 L 424.33069233417837,333.7993822026268 L 422.7961905689448,363.6706063084567" fill="none" stroke="black" stroke-linecap="round" stroke-linejoin="round" stroke-width="2" /><path d="M 423.72263787510394,365.1177990087031 L 402.74851780219063,363.7164359120868 L 381.77439772927727,363.52651032594713 L 360.80027765636396,362.2596672586581 L 339.8261575834506,363.64309498389895 L 318.8520375105373,363.7295354886352 L 297.877917437624,363.7067621831193 L 276.9037973647106,364.0515561553137 L 255.9296772917973,364.5291985209378" fill="none" stroke="black" stroke-linecap="round" stroke-linejoin="round" stroke-width="2" /><path d="M 256.1067550449399,363.6706063084567 L 257.4810880897327,333.7993822026268 L 256.5588540377561,303.92815809679695" fill="none" stroke="black" stroke-linecap="round" stroke-linejoin="round" stroke-width="2" /><text dominant-baseline="middle" fill="black" font-family="Virgil, Comic Sans MS, cursive" font-size="16px" text-anchor="middle" x="340.0" y="334.0">Standard Packing</text><path d="M 480.0,303.75295191478233 L 502.66256855063625,305.74504857364883 L 525.3251371012725,305.49072868175574 L 547.9877056519088,305.3087759255272 L 570.650274202545,304.0432875800247 L 593.3128427531813,303.35406367126785 L 615.9754113038175,301.87263358552144" fill="none" stroke="black" stroke-linecap="round" stroke-linejoin="round" stroke-width="2" /><path d="M 616.5348603586167,304.0 L 615.3687450461031,333.9618396192626 L 617.5538138628018,363.92367923852527" fill="none" stroke="black" stroke-linecap="round" stroke-linejoin="round" stroke-width="2" /><path d="M 615.9754113038175,362.28909569823156 L 593.3128427531813,364.6630372152742 L 570.650274202545,363.53664326817864 L 547.9877056519088,364.6130097778523 L 525.3251371012725,364.2781361976159 L 502.66256855063625,363.0399648989953 L 480.0,363.22115844456175" fill="none" stroke="black" stroke-linecap="round" stroke-linejoin="round" stroke-width="2" /><path d="M 482.07239264403995,363.92367923852527 L 479.33702113528807,333.9618396192626 L 480.2949598625231,304.0" fill="none" stroke="black" stroke-linecap="round" stroke-linejoin="round" stroke-width="2" /><path d="M 480.10010549700615,305.0854276856463 L 502.7626740476424,302.3475758765675 L 525.4252425982786,304.1789853216492 L 548.0878111489149,304.65631895510967 L 570.7503796995511,303.57058819475145 L 593.4129482501874,307.7327033213168 L 616.0755168008236,304.02250448561523" fill="none" stroke="black" stroke-linecap="round" stroke-linejoin="round" stroke-width="2" /><path d="M 614.7499956318294,303.7077277051657 L 615.2289739555218,333.6695673244284 L 615.5621997815786,363.631406943691" fill="none" stroke="black" stroke-linecap="round" stroke-linejoin="round" stroke-width="2" /><path d="M 616.0755168008236,362.74587888789165 L 593.4129482501874,361.5307905419822 L 570.7503796995511,362.20252247949253 L 548.0878111489149,363.4540305031244 L 525.4252425982786,363.55665211493783 L 502.7626740476424,364.65553032370167 L 480.10010549700615,365.152844268692" fill="none" stroke="black" stroke-linecap="round" stroke-linejoin="round" stroke-width="2" /><path d="M 480.1803768268492,363.631406943691 L 481.99857300711767,333.6695673244284 L 479.9319694475657,303.7077277051657" fill="none" stroke="black" stroke-linecap="round" stroke-linejoin="round" stroke-width="2" /><path d="M 480.13834053095366,304.87659339629636 L 502.8009090815899,304.53855055636285 L 525.4634776322262,304.4432331726435 L 548.1260461828624,304.33168085857926 L 570.7886147334987,306.6880033891027 L 593.4511832841349,303.3998714145788 L 616.1137518347712,303.73615852299685" fill="none" stroke="black" stroke-linecap="round" stroke-linejoin="round" stroke-width="2" /><path d="M 616.7740391148159,304.0540729037103 L 618.2684421099418,334.01591252297294 L 617.2110168591798,363.97775214223554" fill="none" stroke="black" stroke-linecap="round" stroke-linejoin="round" stroke-width="2" /><path d="M 616.1137518347712,364.3802451946719 L 593.4511832841349,364.0481371676628 L 570.7886147334987,362.01277066028797 L 548.1260461828624,364.0573621225798 L 525.4634776322262,363.35406792278536 L 502.8009090815899,364.41693078390176 L 480.13834053095366,362.05223744737617" fill="none" stroke="black" stroke-linecap="round" stroke-linejoin="round" stroke-width="2" /><path d="M 481.93920680222055,363.97775214223554 L 479.12369730226345,334.01591252297294 L 480.4269626105373,304.0540729037103" fill="none" stroke="black" stroke-linecap="round" stroke-linejoin="round" stroke-width="2" /><text dominant-baseline="middle" fill="black" font-family="Virgil, Comic Sans MS, cursive" font-size="16px" text-anchor="middle" x="548.0" y="334.0">Bulk Packing</text><path d="M 44.0,384.5641383837912 L 65.96650037564075,382.6393888576431 L 87.93300075128148,383.710229726328 L 109.89950112692222,384.7977972465372 L 131.86600150256297,382.5887473435496 L 153.83250187820371,384.43657340091164 L 175.79900225384444,384.1179007570437 L 197.76550262948518,386.0328281557425 L 219.73200300512593,385.35377981343015" fill="none" stroke="black" stroke-linecap="round" stroke-linejoin="round" stroke-width="2" /><path d="M 219.64006717464807,384.0 L 219.1264486315619,413.8298937317877 L 218.9268597779601,443.6597874635754" fill="none" stroke="black" stroke-linecap="round" stroke-linejoin="round" stroke-width="2" /><path d="M 219.73200300512593,443.175935395396 L 197.76550262948518,443.9672572847694 L 175.79900225384444,443.87063554391113 L 153.83250187820371,443.5941345580074 L 131.86600150256297,442.5173458626778 L 109.89950112692222,443.995891096214 L 87.9330007512815,444.7972833318575 L 65.96650037564075,444.0198754027715 L 44.0,443.73795593841214" fill="none" stroke="black" stroke-linecap="round" stroke-linejoin="round" stroke-width="2" /><path d="M 44.750117498825226,443.6597874635754 L 42.142153938409905,413.8298937317877 L 42.71869545297249,384.0" fill="none" stroke="black" stroke-linecap="round" stroke-linejoin="round" stroke-width="2" /><path d="M 43.726564226301996,384.9575466114209 L 65.69306460194274,384.04098747328226 L 87.65956497758347,382.40970116230767 L 109.62606535322422,382.2657174338922 L 131.59256572886497,384.38366943729204 L 153.55906610450572,385.61405195612457 L 175.52556648014644,383.794453742274 L 197.4920668557872,382.4043728034541 L 219.45856723142793,384.9575199784158" fill="none" stroke="black" stroke-linecap="round" stroke-linejoin="round" stroke-width="2" /><path d="M 218.40582425370062,384.0270899062095 L 219.77898421122316,413.8569836379972 L 218.18826071160288,443.6868773697849" fill="none" stroke="black" stroke-linecap="round" stroke-linejoin="round" stroke-width="2" /><path d="M 219.45856723142793,443.8817050234215 L 197.4920668557872,441.8805202568157 L 175.52556648014644,444.410682881445 L 153.55906610450572,442.55218613425353 L 131.59256572886497,443.76676106908906 L 109.62606535322422,443.109179900374 L 87.6595649775835,442.0219541594586 L 65.69306460194275,442.7840840489302 L 43.726564226302,444.38658955839384" fill="none" stroke="black" stroke-linecap="round" stroke-linejoin="round" stroke-width="2" /><path d="M 44.309469442970936,443.6868773697849 L 44.98370107468964,413.8569836379972 L 43.602694923483426,384.0270899062095" fill="none" stroke="black" stroke-linecap="round" stroke-linejoin="round" stroke-width="2" /><path d="M 43.748996796855494,385.26260460997923 L 65.71549717249624,385.56169735465596 L 87.68199754813698,383.22869269909745 L 109.64849792377771,382.7631170369291 L 131.61499829941846,384.9266216471366 L 153.5814986750592,382.5598062228183 L 175.54799905069993,384.073209391658 L 197.51449942634068,382.9867305059811 L 219.48099980198143,384.6476850161326" fill="none" stroke="black" stroke-linecap="round" stroke-linejoin="round" stroke-width="2" /><path d="M 218.61183629973132,384.00973888584446 L 219.7424982351507,413.83963261763216 L 220.99279008198351,443.66952634941987" fill="none" stroke="black" stroke-linecap="round" stroke-linejoin="round" stroke-width="2" /><path d="M 219.48099980198143,445.191254929426 L 197.51449942634068,444.1205267216893 L 175.54799905069996,444.4573419562679 L 153.5814986750592,443.1815802280037 L 131.61499829941846,442.15938975812844 L 109.64849792377771,444.28250671485563 L 87.68199754813699,442.56459167596233 L 65.71549717249624,443.47719086493083 L 43.748996796855494,444.3451126808299" fill="none" stroke="black" stroke-linecap="round" stroke-linejoin="round" stroke-width="2" /><path d="M 43.57221121746909,443.66952634941987 L 44.42506883879525,413.83963261763216 L 44.88747486963746,384.00973888584446" fill="none" stroke="black" stroke-linecap="round" stroke-linejoin="round" stroke-width="2" /><text dominant-baseline="middle" fill="black" font-family="Virgil, Comic Sans MS, cursive" font-size="16px" text-anchor="middle" x="132.0" y="414.0">Next Day Shipping</text><path d="M 256.0,385.0220110901817 L 277.0074247918146,385.4149667005541 L 298.0148495836292,384.011771236142 L 319.02227437544377,382.7117172884295 L 340.0296991672584,383.64581112508637 L 361.037123959073,382.9586229918097 L 382.0445487508876,384.94693321360114 L 403.05197354270217,385.6359813169596 L 424.0593983345168,383.6647486895095" fill="none" stroke="black" stroke-linecap="round" stroke-linejoin="round" stroke-width="2" /><path d="M 423.73664910261,384.0 L 424.3254493750595,404.15858115394195 L 421.72018655741687,424.31716230788385 L 424.12515695029487,444.4757434618258" fill="none" stroke="black" stroke-linecap="round" stroke-linejoin="round" stroke-width="2" /><path d="M 424.0593983345168,444.6967248238497 L 403.05197354270217,443.9239763899963 L 382.0445487508876,443.91058294382424 L 361.037123959073,444.4453790683916 L 340.0296991672584,444.3078161764937 L 319.02227437544377,445.91118629470054 L 298.0148495836292,443.9380869161304 L 277.0074247918146,444.5059302645258 L 256.0,444.0460683998381" fill="none" stroke="black" stroke-linecap="round" stroke-linejoin="round" stroke-width="2" /><path d="M 256.2043137748311,444.4757434618258 L 254.52978979892072,424.31716230788385 L 254.9930165128205,404.15858115394195 L 254.96497370050184,384.0" fill="none" stroke="black" stroke-linecap="round" stroke-linejoin="round" stroke-width="2" /><path d="M 256.1098005695902,383.173437390658 L 277.11722536140485,384.0513539232082 L 298.1246501532194,383.3258996590416 L 319.132074945034,383.5203586473589 L 340.1394997368486,385.52754342693356 L 361.14692452866325,384.3770458828135 L 382.1543493204778,384.02129251145124 L 403.1617741122924,384.48266732629054 L 424.169198904107,385.66985299872755" fill="none" stroke="black" stroke-linecap="round" stroke-linejoin="round" stroke-width="2" /><path d="M 424.3099756240249,384.17532251500745 L 424.0260216996295,404.3339036689494 L 423.3176572650993,424.4924848228913 L 424.446182449016,444.65106597683325" fill="none" stroke="black" stroke-linecap="round" stroke-linejoin="round" stroke-width="2" /><path d="M 424.169198904107,444.2753658284956 L 403.1617741122924,445.37340543510555 L 382.1543493204778,443.7914731717374 L 361.14692452866325,444.8972304925688 L 340.1394997368486,445.5307667411239 L 319.132074945034,446.0660226498586 L 298.1246501532194,444.5409784767645 L 277.11722536140485,443.8886363706701 L 256.1098005695902,443.4645887296547" fill="none" stroke="black" stroke-linecap="round" stroke-linejoin="round" stroke-width="2" /><path d="M 256.33655098577515,444.65106597683325 L 254.2796542790765,424.4924848228913 L 257.96171347361746,404.3339036689494 L 257.44764619894136,384.17532251500745" fill="none" stroke="black" stroke-linecap="round" stroke-linejoin="round" stroke-width="2" /><path d="M 256.1001742989707,383.3351458332894 L 277.10759909078536,383.90549792506647 L 298.1150238825999,382.9638160449879 L 319.1224486744145,384.544042371614 L 340.1298734662291,383.97263533227516 L 361.13729825804376,383.0206678774441 L 382.1447230498583,384.8127604075462 L 403.1521478416729,383.90961557391296 L 424.1595726334875,384.41112530046854" fill="none" stroke="black" stroke-linecap="round" stroke-linejoin="round" stroke-width="2" /><path d="M 425.0514819694778,384.09260942845424 L 423.3901746724831,404.2511905823962 L 423.24124571091147,424.4097717363381 L 424.355970914381,444.56835289028004" fill="none" stroke="black" stroke-linecap="round" stroke-linejoin="round" stroke-width="2" /><path d="M 424.1595726334875,443.9931934535523 L 403.1521478416729,446.501303926966 L 382.1447230498583,443.82304312478175 L 361.13729825804376,444.7101856202301 L 340.1298734662291,445.6165702235819 L 319.1224486744145,443.88624044959454 L 298.1150238825999,444.88121292516735 L 277.10759909078536,444.245959118917 L 256.1001742989707,444.10490912420147" fill="none" stroke="black" stroke-linecap="round" stroke-linejoin="round" stroke-width="2" /><path d="M 256.8029579339411,444.56835289028004 L 255.54361581191017,424.4097717363381 L 256.2320316106385,404.2511905823962 L 256.4854178155115,384.09260942845424" fill="none" stroke="black" stroke-linecap="round" stroke-linejoin="round" stroke-width="2" /><text dominant-baseline="middle" fill="black" font-family="Virgil, Comic Sans MS, cursive" font-size="16px" text-anchor="middle" x="340.0" y="414.0">3-5 Day Shipping</text><path d="M 460.0,382.75007917228186 L 481.9755336865885,384.52814630717717 L 503.951067373177,382.86639640270806 L 525.9266010597655,385.8212314410984 L 547.902134746354,385.48520453852274 L 569.8776684329426,385.5426234901276 L 591.8532021195311,384.2663251256463 L 613.8287358061197,383.75095296424325 L 635.8042694927082,382.8187593171307" fill="none" stroke="black" stroke-linecap="round" stroke-linejoin="round" stroke-width="2" /><path d="M 636.2518564421114,384.0 L 634.9579649940262,404.0278864074182 L 635.4999997544003,424.0557728148364 L 636.6268170383278,444.0836592222546" fill="none" stroke="black" stroke-linecap="round" stroke-linejoin="round" stroke-width="2" /><path d="M 635.8042694927082,441.6168619830266 L 613.8287358061197,443.9968952280174 L 591.8532021195311,443.1501124268865 L 569.8776684329426,443.82471252402837 L 547.902134746354,444.4438282373483 L 525.9266010597655,444.5797199537307 L 503.951067373177,444.0123842940822 L 481.9755336865885,443.99938808010177 L 460.0,443.3316860816795" fill="none" stroke="black" stroke-linecap="round" stroke-linejoin="round" stroke-width="2" /><path d="M 460.33072399672113,444.0836592222546 L 460.55241564406253,424.0557728148364 L 458.76772551969987,404.0278864074182 L 459.6636078135027,384.0" fill="none" stroke="black" stroke-linecap="round" stroke-linejoin="round" stroke-width="2" /><path d="M 459.93050878603134,383.2957062392516 L 481.90604247261984,383.5281026866602 L 503.88157615920835,381.8447758733323 L 525.8571098457969,383.65159157900223 L 547.8326435323854,383.18635400177914 L 569.8081772189739,384.26795204678194 L 591.7837109055624,382.808311370831 L 613.7592445921509,384.7528474379128 L 635.7347782787394,384.5250817827665" fill="none" stroke="black" stroke-linecap="round" stroke-linejoin="round" stroke-width="2" /><path d="M 636.4092825889998,383.76489510485345 L 636.509424275274,403.79278151227163 L 635.181286501972,423.82066791968987 L 636.7415039785876,443.84855432710805" fill="none" stroke="black" stroke-linecap="round" stroke-linejoin="round" stroke-width="2" /><path d="M 635.7347782787394,444.046140527534 L 613.7592445921509,444.5763549458824 L 591.7837109055624,444.4510566299664 L 569.8081772189739,443.38068191585234 L 547.8326435323854,444.1599226522481 L 525.8571098457969,444.0737953700253 L 503.88157615920835,443.1706672286459 L 481.90604247261984,442.8000633358511 L 459.93050878603134,443.0019663266648" fill="none" stroke="black" stroke-linecap="round" stroke-linejoin="round" stroke-width="2" /><path d="M 458.7759431573027,443.84855432710805 L 458.92830655040075,423.82066791968987 L 459.9514460522786,403.79278151227163 L 459.9268100989119,383.76489510485345" fill="none" stroke="black" stroke-linecap="round" stroke-linejoin="round" stroke-width="2" /><path d="M 460.2354380325354,382.9420746715325 L 482.2109717191239,384.4225744311793 L 504.1865054057124,383.18813246621073 L 526.1620390923009,383.45782873892966 L 548.1375727788895,385.156046157159 L 570.113106465478,384.00709318556676 L 592.0886401520665,384.0670220881249 L 614.064173838655,383.31434967709066 L 636.0397075252436,384.0782685415797" fill="none" stroke="black" stroke-linecap="round" stroke-linejoin="round" stroke-width="2" /><path d="M 636.8772386886462,384.03578283837777 L 635.3961219854076,404.06366924579595 L 636.7849663509376,424.0915556532142 L 633.7749443482056,444.11944206063237" fill="none" stroke="black" stroke-linecap="round" stroke-linejoin="round" stroke-width="2" /><path d="M 636.0397075252436,444.5260868587331 L 614.064173838655,445.2315404466858 L 592.0886401520665,444.8544540632066 L 570.113106465478,445.0189127761909 L 548.1375727788895,446.6539803975578 L 526.1620390923009,443.09357619099063 L 504.1865054057124,445.1259448786155 L 482.2109717191239,443.7474189275571 L 460.2354380325354,443.71032577132775" fill="none" stroke="black" stroke-linecap="round" stroke-linejoin="round" stroke-width="2" /><path d="M 459.331073250005,444.11944206063237 L 460.1137534188178,424.0915556532142 L 460.66227358866223,404.06366924579595 L 460.56441061782743,384.03578283837777" fill="none" stroke="black" stroke-linecap="round" stroke-linejoin="round" stroke-width="2" /><text dominant-baseline="middle" fill="black" font-family="Virgil, Comic Sans MS, cursive" font-size="16px" text-anchor="middle" x="548.0" y="414.0">7-10 Day Shipping</text><path d="M 284.0,461.96095750707985 L 306.36589500457444,466.30835149108003 L 328.7317900091488,464.1817922522917 L 351.09768501372326,463.4543376801136 L 373.46358001829765,463.6924785523235 L 395.8294750228721,463.5779207159107" fill="none" stroke="black" stroke-linecap="round" stroke-linejoin="round" stroke-width="2" /><path d="M 397.4081754400001,464.0 L 395.8257496419466,493.9749995794385 L 396.6155057826123,523.949999158877" fill="none" stroke="black" stroke-linecap="round" stroke-linejoin="round" stroke-width="2" /><path d="M 395.8294750228721,524.7363777015194 L 373.46358001829765,522.7397194084823 L 351.09768501372326,523.0097461732619 L 328.7317900091488,524.435036073787 L 306.36589500457444,522.9914380289047 L 284.0,523.1406317722934" fill="none" stroke="black" stroke-linecap="round" stroke-linejoin="round" stroke-width="2" /><path d="M 284.16168759934294,523.949999158877 L 284.0342560708091,493.9749995794385 L 284.2369330817005,464.0" fill="none" stroke="black" stroke-linecap="round" stroke-linejoin="round" stroke-width="2" /><path d="M 284.06741315279595,463.3461222602066 L 306.4333081573704,464.4043451982738 L 328.7992031619448,463.8579468566666 L 351.1650981665192,464.79187903736334 L 373.53099317109366,463.58134867268325 L 395.89688817566804,463.8429932995479" fill="none" stroke="black" stroke-linecap="round" stroke-linejoin="round" stroke-width="2" /><path d="M 395.2849731072163,464.03048898486975 L 395.5682457251486,494.0054885643082 L 397.4550597750776,523.9804881437467" fill="none" stroke="black" stroke-linecap="round" stroke-linejoin="round" stroke-width="2" /><path d="M 395.89688817566804,523.790789898987 L 373.5309931710936,523.3874364853955 L 351.1650981665192,523.5395624287431 L 328.7992031619448,525.5453037462744 L 306.43330815737033,524.3586773967713 L 284.06741315279595,524.3655031972162" fill="none" stroke="black" stroke-linecap="round" stroke-linejoin="round" stroke-width="2" /><path d="M 283.90953622147305,523.9804881437467 L 285.3696203997073,494.0054885643082 L 284.36643771412827,464.03048898486975" fill="none" stroke="black" stroke-linecap="round" stroke-linejoin="round" stroke-width="2" /><path d="M 283.9206368737315,465.68226001478234 L 306.28653187830594,462.9971763682895 L 328.6524268828803,463.2055630138873 L 351.01832188745476,463.28777748157853 L 373.38421689202914,462.8162208306371 L 395.7501118966036,462.63650108327056" fill="none" stroke="black" stroke-linecap="round" stroke-linejoin="round" stroke-width="2" /><path d="M 396.92111272664306,464.08406245143516 L 395.10978173868534,494.05906203087363 L 397.22091827243275,524.034061610312" fill="none" stroke="black" stroke-linecap="round" stroke-linejoin="round" stroke-width="2" /><path d="M 395.7501118966036,523.4460559811447 L 373.38421689202914,524.1432575100612 L 351.01832188745476,526.1565577612955 L 328.6524268828803,523.57979920357 L 306.28653187830594,523.9994860835244 L 283.9206368737315,523.5446371361334" fill="none" stroke="black" stroke-linecap="round" stroke-linejoin="round" stroke-width="2" /><path d="M 283.2742811831874,524.034061610312 L 283.75259178444145,494.05906203087363 L 283.61635526375636,464.08406245143516" fill="none" stroke="black" stroke-linecap="round" stroke-linejoin="round" stroke-width="2" /><text dominant-baseline="middle" fill="black" font-family="Virgil, Comic Sans MS, cursive" font-size="16px" text-anchor="middle" x="340.0" y="494.0">Delivered</text></g></svg>