<?xml version="1.0" encoding="utf-8" ?>
<svg baseProfile="full" height="540.0px" version="1.1" viewBox="0 0 780.0 540.0" width="780.0px" xmlns="http://www.w3.org/2000/svg" xmlns:ev="http://www.w3.org/2001/xml-events" xmlns:xlink="http://www.w3.org/1999/xlink"><defs /><rect fill="white" height="540.0" width="780.0" x="0" y="0" /><g><path d="M 389.247275932741,100.0 L 390.887159102888,110.0 L 391.86399246790455,120.0" fill="none" stroke="black" stroke-linecap="round" stroke-linejoin="round" stroke-width="2" /><path d="M 388.0470347758712,112.96929349373568 L 388.9441926897041,117.0336910296542 L 391.86399246790455,120.0" fill="none" stroke="black" stroke-linecap="round" stroke-linejoin="round" stroke-width="2" /><path d="M 394.24821257016623,112.36354175654897 L 393.7326486403895,116.392999017186 L 391.86399246790455,120.0" fill="none" stroke="black" stroke-linecap="round" stroke-linejoin="round" stroke-width="2" /><path d="M 297.9951939476912,149.9924304676136 L 280.4162198284154,162.0841176583257 L 262.5617398315525,173.74188309183796 L 243.48360396344472,183.47239052813973 L 226.1549759508814,195.95837283692393 L 207.7804201290415,206.79701884609747 L 189.94732551076274,218.48846625087987 L 171.80651664793035,229.69526372049032" fill="none" stroke="black" stroke-linecap="round" stroke-linejoin="round" stroke-width="2" /><path d="M 183.38510373052225,213.38770960680313 L 177.0813560068129,221.17621713827515 L 171.80651664793035,229.69526372049032" fill="none" stroke="black" stroke-linecap="round" stroke-linejoin="round" stroke-width="2" /><path d="M 191.57171922425962,226.63965132415032 L 181.71376523475595,228.3268883622975 L 171.80651664793035,229.69526372049032" fill="none" stroke="black" stroke-linecap="round" stroke-linejoin="round" stroke-width="2" /><path d="M 390.72630475901553,180.55199161685178 L 377.0655901641166,196.46318185806197 L 363.75407329301885,212.63976236936097 L 352.1689526337613,230.1284040016586" fill="none" stroke="black" stroke-linecap="round" stroke-linejoin="round" stroke-width="2" /><path d="M 353.90507332363654,220.85478960174953 L 353.07082294423867,225.49792639210608 L 352.1689526337613,230.1284040016586" fill="none" stroke="black" stroke-linecap="round" stroke-linejoin="round" stroke-width="2" /><path d="M 360.0310033410621,224.91283138076213 L 355.24659113240114,226.23420655005285 L 352.1689526337613,230.1284040016586" fill="none" stroke="black" stroke-linecap="round" stroke-linejoin="round" stroke-width="2" /><path d="M 391.09671537928773,179.16649631174133 L 402.9161327562708,196.47707243856752 L 414.1890549000408,214.20298494263562 L 427.03697158110214,230.73190159836236" fill="none" stroke="black" stroke-linecap="round" stroke-linejoin="round" stroke-width="2" /><path d="M 418.8025216774613,226.1253356068191 L 423.252345945258,227.83408193245074 L 427.03697158110214,230.73190159836236" fill="none" stroke="black" stroke-linecap="round" stroke-linejoin="round" stroke-width="2" /><path d="M 424.6045232576166,221.61544337141999 L 425.26916807002516,226.32084458069392 L 427.03697158110214,230.73190159836236" fill="none" stroke="black" stroke-linecap="round" stroke-linejoin="round" stroke-width="2" /><path d="M 482.18456841892845,149.70930474018766 L 499.7300714678651,161.85370886668383 L 517.8122518294517,173.15284622575638 L 536.3106049727812,183.79651145358378 L 553.943053746727,195.8039760631908 L 571.5991893040515,207.7741339889761 L 589.7889303758038,218.9038632295375 L 607.70507349652,230.46450924298114" fill="none" stroke="black" stroke-linecap="round" stroke-linejoin="round" stroke-width="2" /><path d="M 588.0037514287156,227.02097780263583 L 597.7332901287978,229.4357153017895 L 607.70507349652,230.46450924298114" fill="none" stroke="black" stroke-linecap="round" stroke-linejoin="round" stroke-width="2" /><path d="M 596.449268481807,213.93251440053206 L 601.4817535107603,222.60390167961273 L 607.70507349652,230.46450924298114" fill="none" stroke="black" stroke-linecap="round" stroke-linejoin="round" stroke-width="2" /><path d="M 119.59936075622429,260.0 L 120.72278752137592,270.0 L 121.63859843500333,280.0" fill="none" stroke="black" stroke-linecap="round" stroke-linejoin="round" stroke-width="2" /><path d="M 117.86423246435868,272.94633701403023 L 119.0684248010471,276.83863204951774 L 121.63859843500333,280.0" fill="none" stroke="black" stroke-linecap="round" stroke-linejoin="round" stroke-width="2" /><path d="M 124.06896044586149,272.3781012538753 L 121.74719306396331,275.83619819728926 L 121.63859843500333,280.0" fill="none" stroke="black" stroke-linecap="round" stroke-linejoin="round" stroke-width="2" /><path d="M 299.9467479347667,260.0 L 300.1622236091568,270.0 L 300.32577237355576,280.0" fill="none" stroke="black" stroke-linecap="round" stroke-linejoin="round" stroke-width="2" /><path d="M 297.0903476050678,272.6834416173002 L 297.7464390307911,276.76695520224854 L 300.32577237355576,280.0" fill="none" stroke="black" stroke-linecap="round" stroke-linejoin="round" stroke-width="2" /><path d="M 303.32020795001387,272.5815530211208 L 301.4136525870003,276.125548532224 L 300.32577237355576,280.0" fill="none" stroke="black" stroke-linecap="round" stroke-linejoin="round" stroke-width="2" /><path d="M 479.85599700425456,260.0 L 479.834903353254,270.0 L 480.9051015799249,280.0" fill="none" stroke="black" stroke-linecap="round" stroke-linejoin="round" stroke-width="2" /><path d="M 477.0233466202379,273.00486037073273 L 478.8692504982656,276.55513310045126 L 480.9051015799249,280.0" fill="none" stroke="black" stroke-linecap="round" stroke-linejoin="round" stroke-width="2" /><path d="M 483.2186628752168,272.34183872375837 L 482.3607029793965,276.2611943117942 L 480.9051015799249,280.0" fill="none" stroke="black" stroke-linecap="round" stroke-linejoin="round" stroke-width="2" /><path d="M 660.8238499070166,260.0 L 660.5744835957187,270.0 L 659.2839239094524,280.0" fill="none" stroke="black" stroke-linecap="round" stroke-linejoin="round" stroke-width="2" /><path d="M 657.1373269617645,272.2933715838781 L 658.0442419002972,276.1930301035835 L 659.2839239094524,280.0" fill="none" stroke="black" stroke-linecap="round" stroke-linejoin="round" stroke-width="2" /><path d="M 663.3167722483385,273.0908658809122 L 660.6523353651532,276.1671891618366 L 659.2839239094524,280.0" fill="none" stroke="black" stroke-linecap="round" stroke-linejoin="round" stroke-width="2" /><path d="M 120.02077187057033,339.91774339254147 L 139.8233209942462,344.9076488627851 L 159.87986609959648,348.8917302455979 L 179.22593642896067,355.68929174131574 L 199.32115948847525,359.520208425638 L 218.8559867855003,365.5702923294188 L 239.25065887628224,368.21539084992236 L 258.43574902800265,375.65043384910956 L 278.2755712311541,380.4927379246296 L 298.10859924226764,385.3619470006203 L 317.86532089713666,390.5333292473387" fill="none" stroke="black" stroke-linecap="round" stroke-linejoin="round" stroke-width="2" /><path d="M 298.0722958247365,393.4032000603439 L 308.09519061758954,392.8399022074562 L 317.86532089713666,390.5333292473387" fill="none" stroke="black" stroke-linecap="round" stroke-linejoin="round" stroke-width="2" /><path d="M 302.0166682231148,378.3341404047058 L 310.1872551449266,384.1138038432203 L 317.86532089713666,390.5333292473387" fill="none" stroke="black" stroke-linecap="round" stroke-linejoin="round" stroke-width="2" /><path d="M 380.73756270304114,309.8524874593918 L 386.88256821857414,334.6234863562852 L 389.10221775381683,360.17955644923666" fill="none" stroke="black" stroke-linecap="round" stroke-linejoin="round" stroke-width="2" /><path d="M 385.36097238867825,353.1082706313794 L 386.3300827239874,357.1208818000671 L 389.10221775381683,360.17955644923666" fill="none" stroke="black" stroke-linecap="round" stroke-linejoin="round" stroke-width="2" /><path d="M 391.5682969585421,352.5691390259923 L 388.78241406276885,355.8711644900858 L 389.10221775381683,360.17955644923666" fill="none" stroke="black" stroke-linecap="round" stroke-linejoin="round" stroke-width="2" /><path d="M 480.2285617458094,340.08228222849135 L 471.8033489523787,365.28920562285634 L 460.8918437976447,389.6010637671521" fill="none" stroke="black" stroke-linecap="round" stroke-linejoin="round" stroke-width="2" /><path d="M 461.06676831704124,381.602976407507 L 459.6641100172289,385.57325570593633 L 460.8918437976447,389.6010637671521" fill="none" stroke="black" stroke-linecap="round" stroke-linejoin="round" stroke-width="2" /><path d="M 466.75119156692546,384.1542258111794 L 463.74490161447284,386.7952262943151 L 460.8918437976447,389.6010637671521" fill="none" stroke="black" stroke-linecap="round" stroke-linejoin="round" stroke-width="2" /><path d="M 659.6504441162118,338.6157587001989 L 640.3917091261773,345.7591681396618 L 620.284684874882,349.54335210453297 L 600.8088310823848,355.8269710862437 L 580.6612012731736,359.4503570417673 L 560.7991954290039,364.2048138988554 L 541.3918384708601,370.7596803446059 L 521.3924518196127,374.9701092056661 L 501.5556922905194,379.82454147045667 L 481.9909674811006,385.7562312251585 L 462.2372943508026,390.93968562917826" fill="none" stroke="black" stroke-linecap="round" stroke-linejoin="round" stroke-width="2" /><path d="M 478.0785067719608,378.73083682891286 L 469.7111266860892,384.25556366881546 L 462.2372943508026,390.93968562917826" fill="none" stroke="black" stroke-linecap="round" stroke-linejoin="round" stroke-width="2" /><path d="M 482.0320653785589,393.79748897417926 L 472.0652030909672,392.84982294366665 L 462.2372943508026,390.93968562917826" fill="none" stroke="black" stroke-linecap="round" stroke-linejoin="round" stroke-width="2" /><path d="M 388.8101045881483,420.0 L 391.00214812247265,430.0 L 391.4312093506527,440.0" fill="none" stroke="black" stroke-linecap="round" stroke-linejoin="round" stroke-width="2" /><path d="M 388.0028635936063,432.77182973567017 L 389.11833618553624,436.66988045140937 L 391.4312093506527,440.0" fill="none" stroke="black" stroke-linecap="round" stroke-linejoin="round" stroke-width="2" /><path d="M 394.22782982493237,432.50474057001094 L 392.5889781796713,436.1626198189745 L 391.4312093506527,440.0" fill="none" stroke="black" stroke-linecap="round" stroke-linejoin="round" stroke-width="2" /><path d="M 330.0,39.398519609934674 L 353.9581537035782,39.475658606213244 L 377.9163074071564,40.84693745155389 L 401.8744611107346,39.57403013561176 L 425.8326148143128,40.41914847464466 L 449.790768517891,38.66563849429259" fill="none" stroke="black" stroke-linecap="round" stroke-linejoin="round" stroke-width="2" /><path d="M 451.0350783191334,40.0 L 448.2897079921295,60.01872442979879 L 448.9096307106495,80.03744885959757 L 448.6262506517534,100.05617328939637" fill="none" stroke="black" stroke-linecap="round" stroke-linejoin="round" stroke-width="2" /><path d="M 449.790768517891,99.66469260171115 L 425.8326148143128,98.19964995957162 L 401.8744611107346,100.10103674788338 L 377.9163074071564,101.06515641377126 L 353.9581537035782,97.71770184881755 L 330.0,100.19964120222107" fill="none" stroke="black" stroke-linecap="round" stroke-linejoin="round" stroke-width="2" /><path d="M 329.8124566162051,100.05617328939637 L 328.53246162994833,80.03744885959759 L 329.7306523533601,60.018724429798795 L 333.5453046603862,40.0" fill="none" stroke="black" stroke-linecap="round" stroke-linejoin="round" stroke-width="2" /><path d="M 329.99017441101756,40.59059759031476 L 353.94832811459577,41.71283721936748 L 377.906481818174,38.43972687863906 L 401.8646355217522,39.36628576937981 L 425.8227892253304,41.44881014080282 L 449.7809429289086,41.54618940506716" fill="none" stroke="black" stroke-linecap="round" stroke-linejoin="round" stroke-width="2" /><path d="M 449.6645093862993,40.082603222461174 L 449.59159082937884,60.10132765225996 L 450.4295928069313,80.12005208205875 L 449.7146914675915,100.13877651185754" fill="none" stroke="black" stroke-linecap="round" stroke-linejoin="round" stroke-width="2" /><path d="M 449.7809429289086,100.50613571550885 L 425.8227892253304,98.26402582571122 L 401.8646355217522,101.81380041403831 L 377.906481818174,98.62633551901433 L 353.94832811459577,98.80303396081545 L 329.99017441101756,100.7622510196237" fill="none" stroke="black" stroke-linecap="round" stroke-linejoin="round" stroke-width="2" /><path d="M 329.5991228529159,100.13877651185754 L 331.33698652612094,80.12005208205875 L 328.5394683565315,60.10132765225997 L 330.22073862212636,40.082603222461174" fill="none" stroke="black" stroke-linecap="round" stroke-linejoin="round" stroke-width="2" /><path d="M 329.9808544393207,38.07071253497348 L 353.9390081428989,39.37264945151742 L 377.8971618464771,42.23217462337101 L 401.8553155500553,40.4329982103083 L 425.8134692536335,38.47827765663689 L 449.7716229572117,41.30708864578512" fill="none" stroke="black" stroke-linecap="round" stroke-linejoin="round" stroke-width="2" /><path d="M 450.066607192182,40.06315655086997 L 449.91235281721384,60.08188098066876 L 451.30240493161057,80.10060541046755 L 449.1303990860742,100.11932984026633" fill="none" stroke="black" stroke-linecap="round" stroke-linejoin="round" stroke-width="2" /><path d="M 449.7716229572117,101.15146215403873 L 425.8134692536335,98.6724809213138 L 401.8553155500553,99.11918050970111 L 377.8971618464771,100.90440969409059 L 353.9390081428989,102.64378516995667 L 329.9808544393207,100.38205385593956" fill="none" stroke="black" stroke-linecap="round" stroke-linejoin="round" stroke-width="2" /><path d="M 329.99276211569713,100.11932984026633 L 330.35468964307347,80.10060541046755 L 327.9381259179613,60.08188098066876 L 329.5571105222129,40.06315655086997" fill="none" stroke="black" stroke-linecap="round" stroke-linejoin="round" stroke-width="2" /><text dominant-baseline="middle" fill="black" font-family="Virgil, Comic Sans MS, cursive" font-size="16px" text-anchor="middle" x="390.0" y="70.0">Input Data</text><path d="M 298.0,119.95099665923902 L 318.425338954237,120.77187146506266 L 338.85067790847404,121.48346284262557 L 359.276016862711,118.56442009378212 L 379.701355816948,118.94758144687181 L 400.12669477118504,119.14305144665146 L 420.552033725422,119.18724401551472 L 440.9773726796591,119.79445218952513 L 461.40271163389605,120.51478919059359 L 481.82805058813307,121.41630074588201" fill="none" stroke="black" stroke-linecap="round" stroke-linejoin="round" stroke-width="2" /><path d="M 481.68050631621287,120.0 L 478.97215441089605,149.9918995701236 L 482.2624989988972,179.98379914024719" fill="none" stroke="black" stroke-linecap="round" stroke-linejoin="round" stroke-width="2" /><path d="M 481.82805058813307,180.35339823455564 L 461.40271163389605,180.25741288672717 L 440.9773726796591,178.7349612607591 L 420.55203372542206,180.95949715016883 L 400.12669477118504,181.16004671228953 L 379.701355816948,179.23349034843895 L 359.276016862711,180.24037764857673 L 338.85067790847404,179.0484613011105 L 318.425338954237,180.17884193984577 L 298.0,180.93519904252284" fill="none" stroke="black" stroke-linecap="round" stroke-linejoin="round" stroke-width="2" /><path d="M 299.85463780650355,179.98379914024719 L 297.84325607152795,149.9918995701236 L 297.81600653994,120.0" fill="none" stroke="black" stroke-linecap="round" stroke-linejoin="round" stroke-width="2" /><path d="M 297.8156331187946,120.55525932160994 L 318.2409720730316,119.6309439955136 L 338.66631102726865,121.94902680718083 L 359.0916499815056,120.35901045085573 L 379.51698893574263,122.0305651547067 L 399.94232788997965,118.78530347302275 L 420.3676668442166,120.53953999704466 L 440.7930057984537,117.67836221747594 L 461.21834475269065,120.58398749617268 L 481.6436837069277,120.00664483494748" fill="none" stroke="black" stroke-linecap="round" stroke-linejoin="round" stroke-width="2" /><path d="M 483.4203556549408,120.14801926815386 L 483.257499066422,150.13991883827745 L 481.7210980093498,180.13181840840105" fill="none" stroke="black" stroke-linecap="round" stroke-linejoin="round" stroke-width="2" /><path d="M 481.6436837069277,181.1865503381918 L 461.21834475269065,179.43301359004965 L 440.7930057984537,180.88903290796296 L 420.36766684421667,181.9266444907755 L 399.94232788997965,178.68875664496858 L 379.51698893574263,179.83534725539897 L 359.0916499815056,180.6023158513367 L 338.66631102726865,179.20180017260896 L 318.2409720730316,181.38437338097614 L 297.8156331187946,181.5929790827161" fill="none" stroke="black" stroke-linecap="round" stroke-linejoin="round" stroke-width="2" /><path d="M 298.07476807813873,180.13181840840105 L 297.07959539661584,150.13991883827745 L 297.15827169138754,120.14801926815386" fill="none" stroke="black" stroke-linecap="round" stroke-linejoin="round" stroke-width="2" /><path d="M 298.1263691243224,118.98520421617366 L 318.55170807855944,119.10672071943642 L 338.97704703279646,118.67144299849534 L 359.4023859870334,119.38572514989968 L 379.82772494127045,119.42115189415473 L 400.25306389550747,121.47507951438847 L 420.67840284974443,119.58466031626618 L 441.1037418039815,119.09050114229059 L 461.52908075821847,120.31454526824159 L 481.9544197124555,120.1176137376775" fill="none" stroke="black" stroke-linecap="round" stroke-linejoin="round" stroke-width="2" /><path d="M 480.98088080837323,119.63243223776868 L 481.709770040262,149.62433180789228 L 481.20070882511646,179.61623137801587" fill="none" stroke="black" stroke-linecap="round" stroke-linejoin="round" stroke-width="2" /><path d="M 481.9544197124555,178.9589781918437 L 461.52908075821847,179.33097761422152 L 441.1037418039815,178.43867773879947 L 420.6784028497445,180.75475843366945 L 400.25306389550747,178.04952014805806 L 379.82772494127045,178.67545711248363 L 359.4023859870334,178.09529573023337 L 338.97704703279646,179.55063262635616 L 318.55170807855944,180.28281007508826 L 298.1263691243224,178.77289699264512" fill="none" stroke="black" stroke-linecap="round" stroke-linejoin="round" stroke-width="2" /><path d="M 297.85261266560315,179.61623137801587 L 299.2195060449705,149.62433180789228 L 296.32614648279497,119.63243223776868" fill="none" stroke="black" stroke-linecap="round" stroke-linejoin="round" stroke-width="2" /><text dominant-baseline="middle" fill="black" font-family="Virgil, Comic Sans MS, cursive" font-size="16px" text-anchor="middle" x="390.0" y="150.0">Split into Batches</text><path d="M 68.0,200.04377669763798 L 88.8008593941184,202.36325532879863 L 109.60171878823681,200.313973545878 L 130.40257818235523,199.44103470701776 L 151.20343757647362,198.9567324083604 L 172.00429697059204,200.81297269682833" fill="none" stroke="black" stroke-linecap="round" stroke-linejoin="round" stroke-width="2" /><path d="M 171.85273590877276,200.0 L 171.80804244445605,229.94578730300628 L 171.9292784884329,259.89157460601257" fill="none" stroke="black" stroke-linecap="round" stroke-linejoin="round" stroke-width="2" /><path d="M 172.00429697059204,259.50045025462487 L 151.20343757647362,259.3634485923119 L 130.40257818235523,259.71956870450236 L 109.60171878823681,259.2057754557416 L 88.8008593941184,258.9432833898372 L 68.0,258.7645618398797" fill="none" stroke="black" stroke-linecap="round" stroke-linejoin="round" stroke-width="2" /><path d="M 68.34893061634622,259.89157460601257 L 68.32046729544986,229.94578730300628 L 68.24105155837816,200.0" fill="none" stroke="black" stroke-linecap="round" stroke-linejoin="round" stroke-width="2" /><path d="M 67.82540863588018,200.75453815024525 L 88.62626802999858,200.66224006436025 L 109.427127424117,200.317845433319 L 130.22798681823542,199.06650533912497 L 151.0288462123538,200.71531346288253 L 171.82970560647223,201.28450049914682" fill="none" stroke="black" stroke-linecap="round" stroke-linejoin="round" stroke-width="2" /><path d="M 171.6271935816975,199.82403861465878 L 171.54323582032077,229.76982591766506 L 172.04157773290405,259.71561322067134" fill="none" stroke="black" stroke-linecap="round" stroke-linejoin="round" stroke-width="2" /><path d="M 171.82970560647223,259.67188076198886 L 151.0288462123538,259.2611927374214 L 130.22798681823542,259.8855968880185 L 109.427127424117,259.80041898762767 L 88.62626802999858,258.53828414180157 L 67.82540863588018,260.06084056647126" fill="none" stroke="black" stroke-linecap="round" stroke-linejoin="round" stroke-width="2" /><path d="M 68.36103113667772,259.71561322067134 L 68.49033016651452,229.76982591766506 L 71.35179597608519,199.82403861465878" fill="none" stroke="black" stroke-linecap="round" stroke-linejoin="round" stroke-width="2" /><path d="M 67.82418264726257,199.5112955800819 L 88.62504204138098,199.37373027880056 L 109.42590143549938,200.24751081838795 L 130.2267608296178,200.6700594115172 L 151.02762022373622,199.30090194337782 L 171.8284796178546,201.74789878993698" fill="none" stroke="black" stroke-linecap="round" stroke-linejoin="round" stroke-width="2" /><path d="M 171.0946572868749,200.03369786472857 L 173.36005150885833,229.97948516773488 L 171.64263051176042,259.92527247074116" fill="none" stroke="black" stroke-linecap="round" stroke-linejoin="round" stroke-width="2" /><path d="M 171.8284796178546,261.48745700842426 L 151.0276202237362,257.5627013999562 L 130.2267608296178,258.7223686506626 L 109.42590143549938,260.65502286467654 L 88.62504204138098,260.37910132685107 L 67.82418264726257,259.5689615952776" fill="none" stroke="black" stroke-linecap="round" stroke-linejoin="round" stroke-width="2" /><path d="M 68.31449806386465,259.92527247074116 L 66.76133591777247,229.97948516773488 L 67.92342236904189,200.03369786472857" fill="none" stroke="black" stroke-linecap="round" stroke-linejoin="round" stroke-width="2" /><text dominant-baseline="middle" fill="black" font-family="Virgil, Comic Sans MS, cursive" font-size="16px" text-anchor="middle" x="120.0" y="230.0">Worker 1</text><path d="M 248.0,199.53470210487922 L 268.8417022701559,199.12177200701385 L 289.6834045403118,199.65046739208995 L 310.52510681046766,198.52259379159568 L 331.36680908062357,200.19446231940293 L 352.2085113507795,199.68441324662552" fill="none" stroke="black" stroke-linecap="round" stroke-linejoin="round" stroke-width="2" /><path d="M 351.18058552717974,200.0 L 352.5821753311386,220.12469419819948 L 352.38710137249376,240.24938839639893 L 352.33910923920126,260.3740825945984" fill="none" stroke="black" stroke-linecap="round" stroke-linejoin="round" stroke-width="2" /><path d="M 352.2085113507795,261.5366461851728 L 331.36680908062357,260.3409226993473 L 310.52510681046766,261.7014826535868 L 289.6834045403118,261.535282948432 L 268.8417022701559,259.8721424048653 L 248.0,261.22944670952137" fill="none" stroke="black" stroke-linecap="round" stroke-linejoin="round" stroke-width="2" /><path d="M 248.34467745853573,260.3740825945984 L 247.66328894505574,240.24938839639893 L 247.88115930575813,220.12469419819948 L 248.91201833210332,200.0" fill="none" stroke="black" stroke-linecap="round" stroke-linejoin="round" stroke-width="2" /><path d="M 248.10068837847913,199.54392131673296 L 268.942390648635,200.03700384134038 L 289.7840929187909,199.27540177339773 L 310.6257951889468,201.5544776255852 L 331.46749745910273,199.95536124419667 L 352.30919972925864,198.03525381955708" fill="none" stroke="black" stroke-linecap="round" stroke-linejoin="round" stroke-width="2" /><path d="M 352.2432305568457,199.97117454741576 L 352.84514194455835,220.09586874561523 L 351.0936870771524,240.2205629438147 L 351.93394318798164,260.3452571420142" fill="none" stroke="black" stroke-linecap="round" stroke-linejoin="round" stroke-width="2" /><path d="M 352.30919972925864,258.947638503453 L 331.46749745910273,260.21592961272387 L 310.6257951889468,261.6026004549799 L 289.7840929187909,260.23040214148057 L 268.942390648635,257.85260250877735 L 248.10068837847913,258.9117584397169" fill="none" stroke="black" stroke-linecap="round" stroke-linejoin="round" stroke-width="2" /><path d="M 248.15761476195803,260.3452571420142 L 248.40162896760063,240.2205629438147 L 249.19472449521697,220.09586874561523 L 248.05158796348746,199.97117454741576" fill="none" stroke="black" stroke-linecap="round" stroke-linejoin="round" stroke-width="2" /><path d="M 247.79314316808717,197.82723500904223 L 268.6348454382431,198.14567591965175 L 289.476547708399,199.4707720286302 L 310.31824997855483,200.76041992526982 L 331.15995224871074,198.9376510771745 L 352.00165451886664,197.84921965115592" fill="none" stroke="black" stroke-linecap="round" stroke-linejoin="round" stroke-width="2" /><path d="M 351.5184505800744,199.81767095706795 L 351.0085903432446,219.94236515526742 L 354.14373980176595,240.06705935346687 L 350.93316932828776,260.19175355166635" fill="none" stroke="black" stroke-linecap="round" stroke-linejoin="round" stroke-width="2" /><path d="M 352.00165451886664,260.1005285651181 L 331.15995224871074,259.78582022525705 L 310.31824997855483,258.63428347550683 L 289.476547708399,259.54773254787506 L 268.6348454382431,260.57884384043587 L 247.79314316808717,259.9878054266521" fill="none" stroke="black" stroke-linecap="round" stroke-linejoin="round" stroke-width="2" /><path d="M 248.1774002947202,260.19175355166635 L 248.59120448490708,240.06705935346687 L 245.99299053308388,219.94236515526742 L 247.1479645946771,199.81767095706795" fill="none" stroke="black" stroke-linecap="round" stroke-linejoin="round" stroke-width="2" /><text dominant-baseline="middle" fill="black" font-family="Virgil, Comic Sans MS, cursive" font-size="16px" text-anchor="middle" x="300.0" y="230.0">Worker 2</text><path d="M 428.0,198.59890285547615 L 448.87209798247045,198.67097065974207 L 469.7441959649409,201.4920503611213 L 490.61629394741135,198.5076008826572 L 511.4883919298818,200.23599555153643 L 532.3604899123523,200.69417522596112" fill="none" stroke="black" stroke-linecap="round" stroke-linejoin="round" stroke-width="2" /><path d="M 532.6904559199382,200.0 L 531.240348774249,229.98183799664216 L 532.2867380611192,259.9636759932843" fill="none" stroke="black" stroke-linecap="round" stroke-linejoin="round" stroke-width="2" /><path d="M 532.3604899123523,260.90777007653395 L 511.4883919298818,259.0835776118303 L 490.61629394741135,260.47792618908096 L 469.7441959649409,260.0166208305362 L 448.87209798247045,259.7944141948776 L 428.0,261.4128171365551" fill="none" stroke="black" stroke-linecap="round" stroke-linejoin="round" stroke-width="2" /><path d="M 427.72143025985923,259.9636759932843 L 427.46230344444666,229.98183799664216 L 428.42613733940453,200.0" fill="none" stroke="black" stroke-linecap="round" stroke-linejoin="round" stroke-width="2" /><path d="M 427.92414930537325,201.09549541063248 L 448.7962472878437,198.96556450909964 L 469.66834527031415,199.06237577810714 L 490.5404432527846,201.64400321361055 L 511.41254123525505,199.5006717491709 L 532.2846392177255,201.43586565703959" fill="none" stroke="black" stroke-linecap="round" stroke-linejoin="round" stroke-width="2" /><path d="M 531.924996626755,199.94586888756433 L 529.8138831351,229.9277068842065 L 533.1668352737387,259.9095448808486" fill="none" stroke="black" stroke-linecap="round" stroke-linejoin="round" stroke-width="2" /><path d="M 532.2846392177255,261.36228641352267 L 511.41254123525505,259.482730142483 L 490.5404432527846,260.5247365681022 L 469.66834527031415,262.3348360415661 L 448.7962472878437,262.9222745297231 L 427.92414930537325,260.5318856529515" fill="none" stroke="black" stroke-linecap="round" stroke-linejoin="round" stroke-width="2" /><path d="M 427.46754499216894,259.9095448808486 L 425.531058298578,229.9277068842065 L 428.3367442434035,199.94586888756433" fill="none" stroke="black" stroke-linecap="round" stroke-linejoin="round" stroke-width="2" /><path d="M 428.0814091728169,199.39050636499297 L 448.95350715528735,199.3793178312352 L 469.8256051377578,201.02198952611388 L 490.6977031202282,200.8929578778561 L 511.56980110269865,198.34367978775765 L 532.4418990851691,200.91043804017335" fill="none" stroke="black" stroke-linecap="round" stroke-linejoin="round" stroke-width="2" /><path d="M 533.0827335830355,199.9781570832403 L 532.093549353779,229.95999507988245 L 532.0184404694066,259.9418330765246" fill="none" stroke="black" stroke-linecap="round" stroke-linejoin="round" stroke-width="2" /><path d="M 532.4418990851691,259.6266906916156 L 511.56980110269865,258.49380706753277 L 490.6977031202282,261.23803379627594 L 469.8256051377578,261.45045699955796 L 448.95350715528735,260.0780644699225 L 428.0814091728169,261.6361123800613" fill="none" stroke="black" stroke-linecap="round" stroke-linejoin="round" stroke-width="2" /><path d="M 429.1157462268951,259.9418330765246 L 428.8559631860277,229.95999507988245 L 429.3069453359654,199.9781570832403" fill="none" stroke="black" stroke-linecap="round" stroke-linejoin="round" stroke-width="2" /><text dominant-baseline="middle" fill="black" font-family="Virgil, Comic Sans MS, cursive" font-size="16px" text-anchor="middle" x="480.0" y="230.0">Worker 3</text><path d="M 608.0,199.26525291784785 L 628.7806269725238,198.00496631768033 L 649.5612539450477,200.0307315886356 L 670.3418809175715,201.38401705129124 L 691.1225078900954,200.71399597531902 L 711.9031348626193,198.66330867546606" fill="none" stroke="black" stroke-linecap="round" stroke-linejoin="round" stroke-width="2" /><path d="M 711.369617770756,200.0 L 712.5606672625257,229.92259312296176 L 711.5973422214536,259.8451862459235" fill="none" stroke="black" stroke-linecap="round" stroke-linejoin="round" stroke-width="2" /><path d="M 711.9031348626193,261.87601889109 L 691.1225078900954,259.6406977917568 L 670.3418809175715,260.1409223047008 L 649.5612539450477,261.05430216915306 L 628.7806269725238,258.9141966208309 L 608.0,260.6153909188915" fill="none" stroke="black" stroke-linecap="round" stroke-linejoin="round" stroke-width="2" /><path d="M 608.2783279622142,259.8451862459235 L 607.9048682778935,229.92259312296176 L 607.3725090051261,200.0" fill="none" stroke="black" stroke-linecap="round" stroke-linejoin="round" stroke-width="2" /><path d="M 607.9222701180361,199.38987279390426 L 628.7028970905599,198.40358979742157 L 649.4835240630838,201.1816998909426 L 670.2641510356076,199.9386318131221 L 691.0447780081315,201.2333555351858 L 711.8254049806553,199.39719173734346" fill="none" stroke="black" stroke-linecap="round" stroke-linejoin="round" stroke-width="2" /><path d="M 712.1016547531677,200.15833822803563 L 712.2093628054255,230.0809313509974 L 709.7678669581334,260.00352447395915" fill="none" stroke="black" stroke-linecap="round" stroke-linejoin="round" stroke-width="2" /><path d="M 711.8254049806553,260.03557713438687 L 691.0447780081315,258.21529883447414 L 670.2641510356076,259.49363542971133 L 649.4835240630838,261.5591395020934 L 628.7028970905599,259.09961753864116 L 607.9222701180361,260.01679332929774" fill="none" stroke="black" stroke-linecap="round" stroke-linejoin="round" stroke-width="2" /><path d="M 608.0480857903185,260.00352447395915 L 608.3774521327653,230.0809313509974 L 607.3243946584524,200.15833822803563" fill="none" stroke="black" stroke-linecap="round" stroke-linejoin="round" stroke-width="2" /><path d="M 607.9822821559593,199.5009681229909 L 628.7629091284831,199.74768144906304 L 649.543536101007,198.9643287863752 L 670.3241630735308,200.1504852166727 L 691.1047900460547,200.03477501761938 L 711.8854170185786,200.1545141713787" fill="none" stroke="black" stroke-linecap="round" stroke-linejoin="round" stroke-width="2" /><path d="M 711.7744206659742,199.5684783802978 L 711.6307889451386,229.49107150325955 L 711.2846709423667,259.4136646262213" fill="none" stroke="black" stroke-linecap="round" stroke-linejoin="round" stroke-width="2" /><path d="M 711.8854170185786,258.4734774629916 L 691.1047900460547,258.57797535174245 L 670.3241630735308,259.7183049259468 L 649.543536101007,258.45039074866804 L 628.7629091284831,259.6359309318085 L 607.9822821559593,260.2056995371936" fill="none" stroke="black" stroke-linecap="round" stroke-linejoin="round" stroke-width="2" /><path d="M 607.157809048081,259.4136646262213 L 607.9905132682381,229.49107150325955 L 608.0519404822295,199.5684783802978" fill="none" stroke="black" stroke-linecap="round" stroke-linejoin="round" stroke-width="2" /><text dominant-baseline="middle" fill="black" font-family="Virgil, Comic Sans MS, cursive" font-size="16px" text-anchor="middle" x="660.0" y="230.0">Worker 4</text><path d="M 40.0,280.39356937502936 L 62.81833054907774,278.28005502750926 L 85.63666109815549,280.9413274618956 L 108.45499164723321,278.32980399253177 L 131.27332219631097,280.26487425874666 L 154.0916527453887,279.2756180509158 L 176.90998329446643,280.0259587416399 L 199.72831384354419,279.6152295874554" fill="none" stroke="black" stroke-linecap="round" stroke-linejoin="round" stroke-width="2" /><path d="M 198.7530266353879,280.0 L 198.55657487718804,309.9341568875967 L 200.42723106310603,339.8683137751935" fill="none" stroke="black" stroke-linecap="round" stroke-linejoin="round" stroke-width="2" /><path d="M 199.72831384354419,338.4301225316772 L 176.90998329446646,338.14011910006593 L 154.0916527453887,337.3514778294499 L 131.27332219631097,339.6209576492346 L 108.45499164723323,339.9730397379841 L 85.63666109815549,339.36186610000414 L 62.81833054907776,339.4751248320765 L 40.0,339.17312673129845" fill="none" stroke="black" stroke-linecap="round" stroke-linejoin="round" stroke-width="2" /><path d="M 39.615221314272766,339.8683137751935 L 40.859708041155194,309.9341568875967 L 41.621534250750734,280.0" fill="none" stroke="black" stroke-linecap="round" stroke-linejoin="round" stroke-width="2" /><path d="M 40.166208231329904,280.54844555789083 L 62.98453878040765,280.1764631120679 L 85.80286932948539,278.51006503481074 L 108.62119987856312,280.0775367907218 L 131.43953042764088,280.51026294745725 L 154.2578609767186,277.2733791825377 L 177.07619152579633,280.00001960725854 L 199.8945220748741,281.64104126539263" fill="none" stroke="black" stroke-linecap="round" stroke-linejoin="round" stroke-width="2" /><path d="M 201.94606556414055,279.8906436032323 L 199.78026244566172,309.82480049082903 L 199.9687942373036,339.7589573784258" fill="none" stroke="black" stroke-linecap="round" stroke-linejoin="round" stroke-width="2" /><path d="M 199.8945220748741,340.66442596896803 L 177.07619152579636,339.663247061345 L 154.2578609767186,341.29606379583845 L 131.43953042764088,338.73478983195355 L 108.62119987856313,338.82177343362264 L 85.80286932948539,341.4596377208422 L 62.98453878040766,339.633725855412 L 40.166208231329904,340.0057387208491" fill="none" stroke="black" stroke-linecap="round" stroke-linejoin="round" stroke-width="2" /><path d="M 40.008181577038144,339.7589573784258 L 41.62653386800969,309.82480049082903 L 40.86465565116713,279.8906436032323" fill="none" stroke="black" stroke-linecap="round" stroke-linejoin="round" stroke-width="2" /><path d="M 40.1013221734487,280.4775345229397 L 62.919652722526436,279.661155591453 L 85.73798327160418,279.06725692813956 L 108.55631382068191,279.69859972527416 L 131.37464436975966,280.38754528782096 L 154.1929749188374,280.73794114350756 L 177.01130546791512,279.39507515251233 L 199.82963601699288,279.08453472200347" fill="none" stroke="black" stroke-linecap="round" stroke-linejoin="round" stroke-width="2" /><path d="M 199.26504324354875,279.96214613620225 L 200.69863248505982,309.89630302379896 L 199.36242628007705,339.83045991139574" fill="none" stroke="black" stroke-linecap="round" stroke-linejoin="round" stroke-width="2" /><path d="M 199.82963601699288,340.4139949479276 L 177.01130546791515,341.33899640832726 L 154.1929749188374,337.79345795815243 L 131.37464436975966,340.1104110789985 L 108.55631382068192,341.1561419917613 L 85.73798327160418,339.34254181825014 L 62.91965272252645,339.90301065265675 L 40.10132217344869,338.90527761846687" fill="none" stroke="black" stroke-linecap="round" stroke-linejoin="round" stroke-width="2" /><path d="M 38.85991651849692,339.83045991139574 L 41.00889983978224,309.89630302379896 L 40.3949999699205,279.96214613620225" fill="none" stroke="black" stroke-linecap="round" stroke-linejoin="round" stroke-width="2" /><text dominant-baseline="middle" fill="black" font-family="Virgil, Comic Sans MS, cursive" font-size="16px" text-anchor="middle" x="120.0" y="310.0">Process Batch 1</text><path d="M 220.0,279.09793009630994 L 242.85010732969155,279.7926644807111 L 265.7002146593831,279.85590967293325 L 288.5503219890747,280.63643088974226 L 311.4004293187662,281.0378498058843 L 334.2505366484578,281.018331585406 L 357.1006439781494,279.46464382591455 L 379.9507513078409,278.30453898509336" fill="none" stroke="black" stroke-linecap="round" stroke-linejoin="round" stroke-width="2" /><path d="M 381.90701792907953,280.0 L 380.2542652102067,300.01584035442124 L 378.89088754501756,320.03168070884243 L 380.48274390796144,340.0475210632637" fill="none" stroke="black" stroke-linecap="round" stroke-linejoin="round" stroke-width="2" /><path d="M 379.9507513078409,340.13934569775125 L 357.1006439781493,339.4592695727265 L 334.2505366484578,340.0489468940407 L 311.4004293187662,340.4966239848075 L 288.5503219890747,340.5326632765304 L 265.7002146593831,340.3755740519548 L 242.85010732969155,342.19475495053723 L 220.0,341.3848866436551" fill="none" stroke="black" stroke-linecap="round" stroke-linejoin="round" stroke-width="2" /><path d="M 220.5658789357477,340.0475210632637 L 218.23061968989956,320.03168070884243 L 218.07555682715613,300.01584035442124 L 219.6993066852073,280.0" fill="none" stroke="black" stroke-linecap="round" stroke-linejoin="round" stroke-width="2" /><path d="M 219.82738534217896,281.1220422464302 L 242.6774926718705,279.4430406410606 L 265.52760000156206,280.7025031211307 L 288.37770733125365,281.19117527351966 L 311.22781466094517,281.3128755577596 L 334.07792199063675,280.70221934171917 L 356.9280293203283,279.5077912392788 L 379.77813665001986,280.25007814135284" fill="none" stroke="black" stroke-linecap="round" stroke-linejoin="round" stroke-width="2" /><path d="M 380.4028839721743,280.11470805610395 L 379.37987374216823,300.1305484105252 L 379.3937263770731,320.1463887649464 L 379.14038767427274,340.1622291193676" fill="none" stroke="black" stroke-linecap="round" stroke-linejoin="round" stroke-width="2" /><path d="M 379.77813665001986,339.08482812303754 L 356.9280293203283,339.23878600540326 L 334.07792199063675,340.19536307189315 L 311.22781466094517,337.9324405512861 L 288.37770733125365,338.9815968352798 L 265.52760000156206,341.47256800800335 L 242.6774926718705,340.15316494751124 L 219.82738534217896,338.90382829615095" fill="none" stroke="black" stroke-linecap="round" stroke-linejoin="round" stroke-width="2" /><path d="M 218.2324676772878,340.1622291193676 L 219.39482799915933,320.1463887649464 L 221.53743464108132,300.1305484105252 L 220.6354550000445,280.11470805610395" fill="none" stroke="black" stroke-linecap="round" stroke-linejoin="round" stroke-width="2" /><path d="M 219.99832833744918,278.74631360717234 L 242.84843566714073,279.69533510126115 L 265.6985429968323,278.01779455126973 L 288.54865032652384,278.8762371474162 L 311.39875765621537,279.2336893928661 L 334.24886498590695,280.76761938663753 L 357.09897231559853,278.4161484457207 L 379.94907964529006,279.9873851194408" fill="none" stroke="black" stroke-linecap="round" stroke-linejoin="round" stroke-width="2" /><path d="M 378.52644371978533,279.79002028073575 L 381.01742219001585,299.805860635157 L 381.2187322809613,319.8217009895782 L 379.7247343738499,339.8375413439994" fill="none" stroke="black" stroke-linecap="round" stroke-linejoin="round" stroke-width="2" /><path d="M 379.94907964529006,339.10906753846376 L 357.09897231559853,339.376154388367 L 334.24886498590695,340.60354510904534 L 311.39875765621537,340.2010798345676 L 288.54865032652384,339.5869728220206 L 265.6985429968323,338.3045032406233 L 242.84843566714073,339.640710187595 L 219.99832833744918,339.6488707688095" fill="none" stroke="black" stroke-linecap="round" stroke-linejoin="round" stroke-width="2" /><path d="M 221.220787580572,339.8375413439994 L 219.42691655811007,319.8217009895782 L 218.66738508428867,299.805860635157 L 221.20276288898987,279.79002028073575" fill="none" stroke="black" stroke-linecap="round" stroke-linejoin="round" stroke-width="2" /><text dominant-baseline="middle" fill="black" font-family="Virgil, Comic Sans MS, cursive" font-size="16px" text-anchor="middle" x="300.0" y="310.0">Process Batch 2</text><path d="M 400.0,279.9327976150136 L 422.838547764275,279.25599675576984 L 445.67709552854996,279.89482627985706 L 468.51564329282496,279.11300516571083 L 491.3541910570999,280.9761055920144 L 514.1927388213749,280.57337635897096 L 537.0312865856499,279.84685603043687 L 559.8698343499249,281.5276629331802" fill="none" stroke="black" stroke-linecap="round" stroke-linejoin="round" stroke-width="2" /><path d="M 560.63807994156,280.0 L 559.6030026724583,300.0143900204527 L 558.2881040629596,320.02878004090536 L 558.5639646357695,340.04317006135807" fill="none" stroke="black" stroke-linecap="round" stroke-linejoin="round" stroke-width="2" /><path d="M 559.8698343499249,341.0172436499704 L 537.0312865856499,339.88453540220706 L 514.1927388213749,338.04066182982393 L 491.3541910570999,339.2421969100303 L 468.51564329282496,337.7394304894868 L 445.67709552854996,340.84310365358505 L 422.83854776427495,343.047195585652 L 400.0,340.9096377005621" fill="none" stroke="black" stroke-linecap="round" stroke-linejoin="round" stroke-width="2" /><path d="M 401.2828628074871,340.04317006135807 L 400.8438032447116,320.02878004090536 L 401.44992059896146,300.0143900204527 L 401.7458228234558,280.0" fill="none" stroke="black" stroke-linecap="round" stroke-linejoin="round" stroke-width="2" /><path d="M 399.9077534831072,277.54618441551605 L 422.7463012473822,277.2584134808449 L 445.5848490116571,279.0646368642982 L 468.42339677593213,280.0704735927635 L 491.2619445402071,279.5117881585236 L 514.100492304482,280.22360886015673 L 536.9390400687571,281.4523734878942 L 559.777587833032,279.02099112054594" fill="none" stroke="black" stroke-linecap="round" stroke-linejoin="round" stroke-width="2" /><path d="M 559.3652350410711,279.8233217079025 L 561.3924752100567,299.8377117283552 L 561.4663413535133,319.85210174880785 L 561.0914945425901,339.86649176926056" fill="none" stroke="black" stroke-linecap="round" stroke-linejoin="round" stroke-width="2" /><path d="M 559.777587833032,338.6855909990633 L 536.9390400687571,341.3629569432947 L 514.100492304482,339.3499339232578 L 491.2619445402071,342.9338884652752 L 468.42339677593213,340.08778579385944 L 445.5848490116571,339.98348085665157 L 422.7463012473821,340.9541187366947 L 399.9077534831072,339.41975867955904" fill="none" stroke="black" stroke-linecap="round" stroke-linejoin="round" stroke-width="2" /><path d="M 402.07845940994235,339.86649176926056 L 399.4225616417993,319.85210174880785 L 398.84594914323645,299.8377117283552 L 398.61879022064016,279.8233217079025" fill="none" stroke="black" stroke-linecap="round" stroke-linejoin="round" stroke-width="2" /><path d="M 400.0090280281359,280.5458665590311 L 422.8475757924109,280.9506654585027 L 445.68612355668586,278.7386870772884 L 468.52467132096086,281.21284349798043 L 491.36321908523587,281.0037666215264 L 514.2017668495108,280.5622258643658 L 537.0403146137858,281.36154198363056 L 559.8788623780608,281.10200160392606" fill="none" stroke="black" stroke-linecap="round" stroke-linejoin="round" stroke-width="2" /><path d="M 560.2610465559319,279.98293884101645 L 560.423145179444,299.99732886146916 L 559.2915453641242,320.0117188819218 L 559.7680841624691,340.0261089023745" fill="none" stroke="black" stroke-linecap="round" stroke-linejoin="round" stroke-width="2" /><path d="M 559.8788623780608,339.50898880977763 L 537.0403146137859,337.9572263270599 L 514.2017668495108,341.01441184323517 L 491.36321908523587,339.94162744126965 L 468.52467132096086,341.49731657203483 L 445.68612355668586,337.9742601378685 L 422.8475757924109,340.10655653707875 L 400.0090280281359,341.94533170904543" fill="none" stroke="black" stroke-linecap="round" stroke-linejoin="round" stroke-width="2" /><path d="M 401.90452702089357,340.0261089023745 L 401.2919838927669,320.0117188819218 L 401.4084944820881,299.99732886146916 L 399.698609872681,279.98293884101645" fill="none" stroke="black" stroke-linecap="round" stroke-linejoin="round" stroke-width="2" /><text dominant-baseline="middle" fill="black" font-family="Virgil, Comic Sans MS, cursive" font-size="16px" text-anchor="middle" x="480.0" y="310.0">Process Batch 3</text><path d="M 580.0,280.63254364644575 L 600.0180661371855,280.3101631920579 L 620.0361322743711,280.52538900694407 L 640.0541984115566,280.8574262199904 L 660.0722645487422,280.376140804225 L 680.0903306859278,280.89591870452966 L 700.1083968231134,280.20764064174966 L 720.1264629602989,281.177764579351 L 740.1445290974845,278.97599380723045" fill="none" stroke="black" stroke-linecap="round" stroke-linejoin="round" stroke-width="2" /><path d="M 740.2997161496432,280.0 L 739.2912498565981,309.9930779722454 L 741.3365185296585,339.9861559444907" fill="none" stroke="black" stroke-linecap="round" stroke-linejoin="round" stroke-width="2" /><path d="M 740.1445290974845,341.0361236941622 L 720.1264629602989,341.43782445304583 L 700.1083968231134,341.69479158225107 L 680.0903306859278,339.95608872383133 L 660.0722645487422,340.2617587997976 L 640.0541984115566,341.03931287515786 L 620.0361322743711,339.3150044926501 L 600.0180661371855,339.5445744208949 L 580.0,340.7138867335128" fill="none" stroke="black" stroke-linecap="round" stroke-linejoin="round" stroke-width="2" /><path d="M 579.6690438918869,339.9861559444907 L 582.5809548320333,309.9930779722454 L 579.774295077696,280.0" fill="none" stroke="black" stroke-linecap="round" stroke-linejoin="round" stroke-width="2" /><path d="M 579.9269043001299,280.0601895570044 L 599.9449704373154,280.31167298816524 L 619.963036574501,279.26060286613193 L 639.9811027116865,279.9983420434445 L 659.9991688488722,279.9980201316676 L 680.0172349860577,279.94443830112624 L 700.0353011232432,280.3826667481681 L 720.0533672604288,280.20581414257504 L 740.0714333976143,280.36705467275937" fill="none" stroke="black" stroke-linecap="round" stroke-linejoin="round" stroke-width="2" /><path d="M 738.7320397173162,280.34933753613683 L 739.3985097469559,310.34241550838215 L 740.0510904883969,340.3354934806275" fill="none" stroke="black" stroke-linecap="round" stroke-linejoin="round" stroke-width="2" /><path d="M 740.0714333976143,339.148604366115 L 720.0533672604288,341.7338872065854 L 700.0353011232432,339.90118206097287 L 680.0172349860577,341.5415132212728 L 659.9991688488722,338.2728871805 L 639.9811027116865,340.0708201914075 L 619.963036574501,340.415139662548 L 599.9449704373154,338.9529253395704 L 579.9269043001299,341.00165812507765" fill="none" stroke="black" stroke-linecap="round" stroke-linejoin="round" stroke-width="2" /><path d="M 578.647943553056,340.3354934806275 L 579.2989388298729,310.34241550838215 L 579.0355203090421,280.34933753613683" fill="none" stroke="black" stroke-linecap="round" stroke-linejoin="round" stroke-width="2" /><path d="M 579.9366390343067,281.0504188777172 L 599.9547051714923,280.95063991271303 L 619.9727713086778,280.2304527639831 L 639.9908374458633,279.64453502640646 L 660.008903583049,280.07610199999567 L 680.0269697202345,280.5989893674883 L 700.0450358574201,281.3475118292382 L 720.0631019946056,279.4372589222752 L 740.0811681317912,281.6058439500931" fill="none" stroke="black" stroke-linecap="round" stroke-linejoin="round" stroke-width="2" /><path d="M 739.6557419957684,279.97475849163214 L 741.0079901228562,309.96783646387746 L 740.188055610017,339.96091443612283" fill="none" stroke="black" stroke-linecap="round" stroke-linejoin="round" stroke-width="2" /><path d="M 740.0811681317912,339.60074545125207 L 720.0631019946056,339.2441569752924 L 700.0450358574201,339.9859711033152 L 680.0269697202345,338.8689763391753 L 660.008903583049,340.0385086434016 L 639.9908374458633,340.19577057275654 L 619.9727713086778,339.412791354105 L 599.9547051714923,337.9656114888437 L 579.9366390343067,341.68791715237853" fill="none" stroke="black" stroke-linecap="round" stroke-linejoin="round" stroke-width="2" /><path d="M 581.6173738045015,339.96091443612283 L 580.3882887364435,309.96783646387746 L 579.9618641770761,279.97475849163214" fill="none" stroke="black" stroke-linecap="round" stroke-linejoin="round" stroke-width="2" /><text dominant-baseline="middle" fill="black" font-family="Virgil, Comic Sans MS, cursive" font-size="16px" text-anchor="middle" x="660.0" y="310.0">Process Batch 4</text><path d="M 318.0,360.3375423529822 L 338.55444341344975,361.4685262517309 L 359.1088868268995,363.2178522694577 L 379.66333024034924,358.8569482874402 L 400.217773653799,358.9871948814648 L 420.77221706724873,359.7317804948148 L 441.3266604806985,360.83006676239654 L 461.8811038941482,359.8366223572939" fill="none" stroke="black" stroke-linecap="round" stroke-linejoin="round" stroke-width="2" /><path d="M 462.2154465919728,360.0 L 461.9896275639689,389.925805446896 L 461.5217057134171,419.851610893792" fill="none" stroke="black" stroke-linecap="round" stroke-linejoin="round" stroke-width="2" /><path d="M 461.8811038941482,419.6861307519268 L 441.3266604806985,420.52917567151155 L 420.77221706724873,420.71637456112484 L 400.217773653799,419.47749391927033 L 379.66333024034924,418.8274027651826 L 359.1088868268995,418.6673951090147 L 338.55444341344975,418.27524805190143 L 318.0,420.16303037335007" fill="none" stroke="black" stroke-linecap="round" stroke-linejoin="round" stroke-width="2" /><path d="M 319.5039056253626,419.851610893792 L 318.01032473948874,389.925805446896 L 318.9951079728336,360.0" fill="none" stroke="black" stroke-linecap="round" stroke-linejoin="round" stroke-width="2" /><path d="M 317.9861317197599,360.628240522404 L 338.54057513320964,359.2835856800301 L 359.0950185466594,359.1991195260023 L 379.64946196010914,360.0167991856751 L 400.2039053735589,359.90381713204073 L 420.75834878700863,359.49086056910323 L 441.3127922004584,357.8989386100862 L 461.8672356139081,359.183681533405" fill="none" stroke="black" stroke-linecap="round" stroke-linejoin="round" stroke-width="2" /><path d="M 463.1085130929947,359.8517078219128 L 461.84252152108115,389.7775132688088 L 461.00738211672433,419.70331871570477" fill="none" stroke="black" stroke-linecap="round" stroke-linejoin="round" stroke-width="2" /><path d="M 461.8672356139081,418.87900438106044 L 441.3127922004584,420.5920598285604 L 420.75834878700863,419.7348532436608 L 400.2039053735589,418.8334438175865 L 379.64946196010914,421.06709390008194 L 359.0950185466594,420.0306467740847 L 338.54057513320964,420.96198450831497 L 317.9861317197599,419.7205932310682" fill="none" stroke="black" stroke-linecap="round" stroke-linejoin="round" stroke-width="2" /><path d="M 319.3594015205338,419.70331871570477 L 316.9786150116621,389.7775132688088 L 317.91635468956366,359.8517078219128" fill="none" stroke="black" stroke-linecap="round" stroke-linejoin="round" stroke-width="2" /><path d="M 317.9259396424087,360.0245619436431 L 338.48038305585845,360.5799748142463 L 359.0348264693082,359.32935605146946 L 379.58926988275795,359.8931887460955 L 400.1437132962077,361.05400736153956 L 420.69815670965744,359.53149636462035 L 441.2526001231072,359.4176149285748 L 461.80704353655693,358.4267274028084" fill="none" stroke="black" stroke-linecap="round" stroke-linejoin="round" stroke-width="2" /><path d="M 462.0437276389024,360.09337379694654 L 462.8164183072268,390.01917924384253 L 462.0372830995265,419.9449846907385" fill="none" stroke="black" stroke-linecap="round" stroke-linejoin="round" stroke-width="2" /><path d="M 461.80704353655693,420.5017790944536 L 441.2526001231072,419.01613376672987 L 420.69815670965744,420.03516755535924 L 400.1437132962077,417.5241314534502 L 379.58926988275795,418.5533323531342 L 359.0348264693082,421.5416986217871 L 338.48038305585845,419.8375194727066 L 317.9259396424087,420.6146019970135" fill="none" stroke="black" stroke-linecap="round" stroke-linejoin="round" stroke-width="2" /><path d="M 317.35501027601197,419.9449846907385 L 316.97941035815,390.01917924384253 L 318.4672738000582,360.09337379694654" fill="none" stroke="black" stroke-linecap="round" stroke-linejoin="round" stroke-width="2" /><text dominant-baseline="middle" fill="black" font-family="Virgil, Comic Sans MS, cursive" font-size="16px" text-anchor="middle" x="390.0" y="390.0">Merge Results</text><path d="M 322.0,440.8724074883787 L 344.68764430471987,438.74877313886645 L 367.3752886094397,438.0646845117434 L 390.06293291415955,440.63097296967067 L 412.75057721887936,441.3192366472999 L 435.4382215235993,438.9925871991856 L 458.1258658283191,441.2025775400034" fill="none" stroke="black" stroke-linecap="round" stroke-linejoin="round" stroke-width="2" /><path d="M 459.0294648842037,440.0 L 458.4175392416067,460.0045515110511 L 460.1700588274232,480.00910302210224 L 457.1480379176729,500.01365453315333" fill="none" stroke="black" stroke-linecap="round" stroke-linejoin="round" stroke-width="2" /><path d="M 458.1258658283191,499.18941163592166 L 435.4382215235992,500.7992129290247 L 412.7505772188794,499.35732247987113 L 390.06293291415955,498.3056802712033 L 367.37528860943974,499.89353431513484 L 344.6876443047198,501.2200154346124 L 322.0,499.82600919214025" fill="none" stroke="black" stroke-linecap="round" stroke-linejoin="round" stroke-width="2" /><path d="M 322.9709154722759,500.01365453315333 L 322.9094681792301,480.00910302210224 L 321.9569688370685,460.0045515110511 L 321.5866623836389,440.0" fill="none" stroke="black" stroke-linecap="round" stroke-linejoin="round" stroke-width="2" /><path d="M 321.9946419659201,437.9213599105555 L 344.68228627063996,441.6463527651853 L 367.3699305753598,439.0123693551105 L 390.05757488007964,439.10055797936604 L 412.74521918479945,438.76287337990004 L 435.4328634895194,440.8807430338568 L 458.1205077942392,440.1141010808707" fill="none" stroke="black" stroke-linecap="round" stroke-linejoin="round" stroke-width="2" /><path d="M 457.7004477402275,439.92018900191727 L 456.619387275164,459.92474051296836 L 458.0256354304804,479.9292920240195 L 458.0264236547799,499.9338435350706" fill="none" stroke="black" stroke-linecap="round" stroke-linejoin="round" stroke-width="2" /><path d="M 458.1205077942392,500.335370669678 L 435.4328634895193,500.3094518923885 L 412.7452191847995,500.92160228409875 L 390.05757488007964,499.8075159734402 L 367.36993057535983,500.48111430087766 L 344.6822862706399,499.3066990009519 L 321.9946419659201,500.7274346837324" fill="none" stroke="black" stroke-linecap="round" stroke-linejoin="round" stroke-width="2" /><path d="M 321.9481791380935,499.9338435350706 L 321.2622565893837,479.9292920240195 L 319.83276244099847,459.92474051296836 L 321.9706230447645,439.92018900191727" fill="none" stroke="black" stroke-linecap="round" stroke-linejoin="round" stroke-width="2" /><path d="M 321.8188966615365,440.90375491662803 L 344.50654096625635,438.94909147643017 L 367.19418527097616,440.87253259718955 L 389.88182957569603,438.697587880261 L 412.5694738804159,440.6601660016514 L 435.2571181851357,438.6857556730509 L 457.9447624898556,440.08023650060716" fill="none" stroke="black" stroke-linecap="round" stroke-linejoin="round" stroke-width="2" /><path d="M 457.7720854850876,439.8123456730102 L 459.0557392697879,459.8168971840613 L 458.7293767590413,479.82144869511245 L 457.898224194562,499.82600020616354" fill="none" stroke="black" stroke-linecap="round" stroke-linejoin="round" stroke-width="2" /><path d="M 457.9447624898556,500.1458555785323 L 435.2571181851357,498.15671157667185 L 412.5694738804159,500.10851050024297 L 389.88182957569603,500.5953173882495 L 367.19418527097616,499.79879481697344 L 344.50654096625635,500.679078290967 L 321.8188966615365,500.30251771988253" fill="none" stroke="black" stroke-linecap="round" stroke-linejoin="round" stroke-width="2" /><path d="M 321.0120838330028,499.82600020616354 L 319.60657073548646,479.82144869511245 L 321.0486408529759,459.8168971840613 L 321.295035101961,439.8123456730102" fill="none" stroke="black" stroke-linecap="round" stroke-linejoin="round" stroke-width="2" /><text dominant-baseline="middle" fill="black" font-family="Virgil, Comic Sans MS, cursive" font-size="16px" text-anchor="middle" x="390.0" y="470.0">Final Output</text></g></svg>