<?xml version="1.0" encoding="utf-8" ?>
<svg baseProfile="full" height="692.0px" version="1.1" viewBox="0 0 666.4 692.0" width="666.4px" xmlns="http://www.w3.org/2000/svg" xmlns:ev="http://www.w3.org/2001/xml-events" xmlns:xlink="http://www.w3.org/1999/xlink"><defs /><rect fill="white" height="692.0" width="666.4" x="0" y="0" /><g><path d="M 476.1700322622702,100.0 L 476.5572125080715,110.0 L 475.75113222427456,120.0" fill="none" stroke="black" stroke-linecap="round" stroke-linejoin="round" stroke-width="2" /><path d="M 473.2378966192185,112.40502489842933 L 473.34223749606133,116.58380973561627 L 475.75113222427456,120.0" fill="none" stroke="black" stroke-linecap="round" stroke-linejoin="round" stroke-width="2" /><path d="M 479.44844576540373,112.9056450202585 L 477.01248550954364,116.14674181144188 L 475.75113222427456,120.0" fill="none" stroke="black" stroke-linecap="round" stroke-linejoin="round" stroke-width="2" /><path d="M 402.5909012341246,149.25953166792078 L 396.49698753965987,163.4998522642949 L 391.5333907357993,178.20281419263722 L 397.33384793529444,189.42434854618855 L 402.6131660357954,199.90274299616834" fill="none" stroke="black" stroke-linecap="round" stroke-linejoin="round" stroke-width="2" /><path d="M 396.2823812295421,194.52597757725238 L 398.5887703884426,198.22577965567473 L 402.6131660357954,199.90274299616834" fill="none" stroke="black" stroke-linecap="round" stroke-linejoin="round" stroke-width="2" /><path d="M 402.05952120844296,191.61528741328382 L 403.0198170282234,195.71335565190702 L 402.6131660357954,199.90274299616834" fill="none" stroke="black" stroke-linecap="round" stroke-linejoin="round" stroke-width="2" /><path d="M 402.45241899358916,283.9651927495764 L 413.80211014195675,302.80149375120055 L 425.83319202645725,321.1853378023002 L 438.8145025940335,338.9382111790912 L 451.7910074000975,356.69427567675217 L 464.59950330057484,374.5619014168131 L 475.4477985612339,393.73113922301684 L 487.69711444565974,417.47552992955167 L 500.0481825497211,441.147949488695 L 500.4918679221357,450.5 L 500.48431345417544,459.3333333333333 L 484.52690105071093,480.80536966717517 L 471.1007550065703,502.9599964164527 L 457.6109357662013,520.994119418871 L 442.74368798033345,537.9310860497786 L 429.30046677484756,555.9576342398886 L 415.5831804836454,573.7744839120555 L 404.26080476025436,593.4237785867068" fill="none" stroke="black" stroke-linecap="round" stroke-linejoin="round" stroke-width="2" /><path d="M 406.7097021915443,573.574272261082 L 406.0299217285027,583.566222897868 L 404.26080476025436,593.4237785867068" fill="none" stroke="black" stroke-linecap="round" stroke-linejoin="round" stroke-width="2" /><path d="M 420.2061322951727,581.3512258407391 L 413.37100448747395,588.8899502744435 L 404.26080476025436,593.4237785867068" fill="none" stroke="black" stroke-linecap="round" stroke-linejoin="round" stroke-width="2" /><text fill="black" font-family="Virgil, Comic Sans MS, cursive" font-size="14px" text-anchor="middle" x="451.7910074000975" y="346.69427567675217">Yes</text><path d="M 330.7896948021332,242.62171147724385 L 319.3986785979567,262.9795245146312 L 308.74068404536956,283.7204004796232 L 296.66482848915507,303.7203297265907" fill="none" stroke="black" stroke-linecap="round" stroke-linejoin="round" stroke-width="2" /><path d="M 298.16356075727145,293.3263429039205 L 296.0120407062178,298.32115659768243 L 296.66482848915507,303.7203297265907" fill="none" stroke="black" stroke-linecap="round" stroke-linejoin="round" stroke-width="2" /><path d="M 305.1651950718387,297.5538940915313 L 301.17227040670684,300.9917402160377 L 296.66482848915507,303.7203297265907" fill="none" stroke="black" stroke-linecap="round" stroke-linejoin="round" stroke-width="2" /><text fill="black" font-family="Virgil, Comic Sans MS, cursive" font-size="14px" text-anchor="middle" x="319.3986785979567" y="252.97952451463118">No</text><path d="M 413.96713907427306,345.97298829430076 L 416.077292813515,370.73403832548337 L 414.728726072556,395.3829136383892 L 411.69934067151246,419.97727591367067" fill="none" stroke="black" stroke-linecap="round" stroke-linejoin="round" stroke-width="2" /><path d="M 408.64606228315193,409.2560541539506 L 409.72996551194365,414.74275105135285 L 411.69934067151246,419.97727591367067" fill="none" stroke="black" stroke-linecap="round" stroke-linejoin="round" stroke-width="2" /><path d="M 417.2630348640567,410.3174409321726 L 414.75603917087216,415.3056622819523 L 411.69934067151246,419.97727591367067" fill="none" stroke="black" stroke-linecap="round" stroke-linejoin="round" stroke-width="2" /><text fill="black" font-family="Virgil, Comic Sans MS, cursive" font-size="14px" text-anchor="middle" x="416.077292813515" y="360.73403832548337">Yes</text><path d="M 412.85287745098253,420.22305293190476 L 421.02505912591965,400.4253088112128 L 431.5417068252413,381.78227005144254 L 441.3327287636004,362.7818433203852 L 450.0399183095195,343.24760331974994 L 460.71650702005763,324.683339317712 L 468.79617462344055,304.84002981314455 L 476.59461771550775,277.0870376643471 L 483.61244790167075,249.04964821324012 L 481.7707753303609,220.96064312058706 L 476.8453015284526,192.40426818869392 L 477.0130702105535,186.15558747956175 L 476.346898777779,180.0040184708708" fill="none" stroke="black" stroke-linecap="round" stroke-linejoin="round" stroke-width="2" /><path d="M 486.0732873140215,197.47964052108836 L 481.4828984458944,188.5899944821813 L 476.346898777779,180.0040184708708" fill="none" stroke="black" stroke-linecap="round" stroke-linejoin="round" stroke-width="2" /><path d="M 470.587095008715,199.15668566220148 L 473.8320888671022,189.69014659833994 L 476.346898777779,180.0040184708708" fill="none" stroke="black" stroke-linecap="round" stroke-linejoin="round" stroke-width="2" /><path d="M 297.3460517664273,388.8412581746211 L 274.3898170735915,393.32374634388685 L 250.91961701039315,394.8457939798643 L 228.23781826313783,400.9090331956736 L 204.94093406817208,403.4293802326711 L 181.96537567015758,407.8005638601078" fill="none" stroke="black" stroke-linecap="round" stroke-linejoin="round" stroke-width="2" /><path d="M 196.5937767972335,398.0482090765959 L 188.87223656471335,402.31338243854395 L 181.96537567015758,407.8005638601078" fill="none" stroke="black" stroke-linecap="round" stroke-linejoin="round" stroke-width="2" /><path d="M 199.15299198697835,411.4998054991305 L 190.2078055768451,411.2827772923807 L 181.96537567015758,407.8005638601078" fill="none" stroke="black" stroke-linecap="round" stroke-linejoin="round" stroke-width="2" /><text fill="black" font-family="Virgil, Comic Sans MS, cursive" font-size="14px" text-anchor="middle" x="274.3898170735915" y="383.32374634388685">No</text><path d="M 47.076253771071116,449.95673400717544 L 45.36616248755368,472.97242211853705 L 43.22216583921922,495.9522658736746 L 40.29960963840328,518.8677938396942 L 40.36944140346148,542.0305190724598" fill="none" stroke="black" stroke-linecap="round" stroke-linejoin="round" stroke-width="2" /><path d="M 34.93230259774593,529.2778049831129 L 38.45021874995123,535.3133593406368 L 40.36944140346148,542.0305190724598" fill="none" stroke="black" stroke-linecap="round" stroke-linejoin="round" stroke-width="2" /><path d="M 45.72958744536079,529.2452529646795 L 42.41091508818918,535.3701570815608 L 40.36944140346148,542.0305190724598" fill="none" stroke="black" stroke-linecap="round" stroke-linejoin="round" stroke-width="2" /><text fill="black" font-family="Virgil, Comic Sans MS, cursive" font-size="14px" text-anchor="middle" x="45.36616248755368" y="462.97242211853705">Yes</text><path d="M 318.0089547545399,450.0069954554545 L 318.31941503757355,473.00878006538073 L 316.1537769880327,495.99979903038275 L 315.23294244580194,518.996230184547 L 316.880561515816,542.0038285283297" fill="none" stroke="black" stroke-linecap="round" stroke-linejoin="round" stroke-width="2" /><path d="M 310.60027563059253,529.6857183966985 L 313.7895894988826,535.8197040754732 L 316.880561515816,542.0038285283297" fill="none" stroke="black" stroke-linecap="round" stroke-linejoin="round" stroke-width="2" /><path d="M 321.34151553425926,528.9165172207896 L 320.07912676038063,535.7901563984615 L 316.880561515816,542.0038285283297" fill="none" stroke="black" stroke-linecap="round" stroke-linejoin="round" stroke-width="2" /><text fill="black" font-family="Virgil, Comic Sans MS, cursive" font-size="14px" text-anchor="middle" x="318.31941503757355" y="463.00878006538073">No</text><path d="M 107.4988819964006,574.4294200814498 L 128.49533157420365,574.7348991949273 L 148.40560543777661,580.3061581709921 L 168.6429068857291,584.2919874179853 L 189.2200968619575,586.6300370798965 L 208.57696846357763,594.884190221909 L 229.1036098033277,597.4672996734672 L 249.73108221023665,599.5615801114394 L 269.6620691544868,605.0324220723812 L 290.02795335597006,608.3948821302569 L 309.88645396734523,614.2171378329768 L 329.89527893139774,619.3106210739168 L 350.8162787610765,619.981880566301" fill="none" stroke="black" stroke-linecap="round" stroke-linejoin="round" stroke-width="2" /><path d="M 332.1547690134709,627.1754925894797 L 341.3347010656296,623.1874253384457 L 350.8162787610765,619.981880566301" fill="none" stroke="black" stroke-linecap="round" stroke-linejoin="round" stroke-width="2" /><path d="M 332.65429831297683,611.6067706444644 L 341.94211230164717,615.3458145763578 L 350.8162787610765,619.981880566301" fill="none" stroke="black" stroke-linecap="round" stroke-linejoin="round" stroke-width="2" /><path d="M 316.0518864913568,541.8215838034163 L 340.1621533749886,548.2326495908274 L 364.08308481143035,555.2947617196413 L 387.426468068841,564.3428233075916 L 411.6638353107604,570.316843499567 L 434.214527356384,576.1759035525681 L 457.06084189483505,580.7531337983761 L 459.3586219008151,590.8657150422758 L 463.74133437483107,600.1032640445927 L 468.7326547135368,611.1494852635443 L 475.09773677660155,621.6328831113881" fill="none" stroke="black" stroke-linecap="round" stroke-linejoin="round" stroke-width="2" /><path d="M 458.8799956070668,609.928829482069 L 467.9157085678286,614.4965756333881 L 475.09773677660155,621.6328831113881" fill="none" stroke="black" stroke-linecap="round" stroke-linejoin="round" stroke-width="2" /><path d="M 472.19470185253766,601.8446950126847 L 474.13383437419685,611.6672532781366 L 475.09773677660155,621.6328831113881" fill="none" stroke="black" stroke-linecap="round" stroke-linejoin="round" stroke-width="2" /><path d="M 404.4,40.30665510806432 L 424.9331725911734,39.22475377780479 L 445.46634518234674,41.38577144564204 L 465.99951777352015,40.450070932308336 L 486.53269036469356,40.93067999483477 L 507.0658629558669,39.369571789936835 L 527.5990355470403,40.58574622539395 L 548.1322081382137,39.939977101029235" fill="none" stroke="black" stroke-linecap="round" stroke-linejoin="round" stroke-width="2" /><path d="M 546.9032693815873,40.0 L 548.8271810532665,69.94257741135694 L 547.6117699104668,99.88515482271387" fill="none" stroke="black" stroke-linecap="round" stroke-linejoin="round" stroke-width="2" /><path d="M 548.1322081382137,99.07857506413585 L 527.5990355470403,100.73040982134036 L 507.065862955867,100.86113859695753 L 486.53269036469356,100.65419392081098 L 465.99951777352015,99.92596784561341 L 445.4663451823468,100.32377134765626 L 424.9331725911734,100.86162751932773 L 404.4,100.99432465544756" fill="none" stroke="black" stroke-linecap="round" stroke-linejoin="round" stroke-width="2" /><path d="M 404.067655563262,99.88515482271387 L 404.15012328251316,69.94257741135694 L 404.56772105188736,40.0" fill="none" stroke="black" stroke-linecap="round" stroke-linejoin="round" stroke-width="2" /><path d="M 404.28636027591614,39.516064505624264 L 424.81953286708955,40.10601171547883 L 445.35270545826296,39.29661090638032 L 465.8858780494363,42.09893785462175 L 486.4190506406097,38.92598804122786 L 506.95222323178314,40.21277891645026 L 527.4853958229565,39.6190823792881 L 548.01856841413,40.12823297274187" fill="none" stroke="black" stroke-linecap="round" stroke-linejoin="round" stroke-width="2" /><path d="M 548.8020629779467,39.858116625898504 L 547.802057659366,69.80069403725544 L 547.242726342306,99.74327144861238" fill="none" stroke="black" stroke-linecap="round" stroke-linejoin="round" stroke-width="2" /><path d="M 548.01856841413,101.48104730167763 L 527.4853958229565,99.79485212877964 L 506.95222323178314,100.72855378978207 L 486.4190506406097,100.05941560674843 L 465.88587804943637,100.51079355171841 L 445.35270545826296,100.05432243961418 L 424.81953286708955,99.13654571723298 L 404.28636027591614,99.53100255987493" fill="none" stroke="black" stroke-linecap="round" stroke-linejoin="round" stroke-width="2" /><path d="M 404.3335615714987,99.74327144861238 L 404.64641391880394,69.80069403725544 L 404.33350645793314,39.858116625898504" fill="none" stroke="black" stroke-linecap="round" stroke-linejoin="round" stroke-width="2" /><path d="M 404.73579730638096,40.7119279752144 L 425.26896989755437,42.53404942841303 L 445.8021424887277,40.91673798719366 L 466.33531507990114,41.03065903540203 L 486.86848767107455,40.27467310340364 L 507.4016602622479,39.782232650812134 L 527.9348328534213,39.11246365442093 L 548.4680054445947,40.89181227465804" fill="none" stroke="black" stroke-linecap="round" stroke-linejoin="round" stroke-width="2" /><path d="M 547.9816998209682,39.97930987012821 L 548.8286710105435,69.92188728148514 L 548.0524092625571,99.86446469284208" fill="none" stroke="black" stroke-linecap="round" stroke-linejoin="round" stroke-width="2" /><path d="M 548.4680054445947,100.50116949839745 L 527.9348328534213,100.64094007663753 L 507.40166026224796,101.3409229517389 L 486.86848767107455,98.33767069507564 L 466.33531507990114,98.33439844890877 L 445.8021424887278,99.44994947283463 L 425.26896989755437,99.31603363851876 L 404.73579730638096,100.23917279735193" fill="none" stroke="black" stroke-linecap="round" stroke-linejoin="round" stroke-width="2" /><path d="M 403.31628039112894,99.86446469284208 L 403.4870830450332,69.92188728148514 L 404.487486703377,39.97930987012821" fill="none" stroke="black" stroke-linecap="round" stroke-linejoin="round" stroke-width="2" /><text dominant-baseline="middle" fill="black" font-family="Virgil, Comic Sans MS, cursive" font-size="16px" text-anchor="middle" x="476.4" y="70.0">Start Process</text><path d="M 404.4,121.74511073847295 L 424.93937875700414,119.13025432791034 L 445.4787575140083,119.88106884556701 L 466.0181362710124,118.60355816417147 L 486.55751502801655,119.31800101119423 L 507.0968937850207,121.54002301561468 L 527.6362725420249,120.39622884126469 L 548.175651299029,119.98410952109434" fill="none" stroke="black" stroke-linecap="round" stroke-linejoin="round" stroke-width="2" /><path d="M 547.9614926982015,120.0 L 547.8437869863043,140.1387338314999 L 549.6025199081912,160.2774676629998 L 548.9637516423647,180.41620149449972" fill="none" stroke="black" stroke-linecap="round" stroke-linejoin="round" stroke-width="2" /><path d="M 548.175651299029,181.09220537113788 L 527.6362725420249,180.95752375919236 L 507.0968937850207,180.63849270476172 L 486.5575150280166,179.8911344486735 L 466.01813627101245,180.76838591351662 L 445.4787575140083,179.587651517317 L 424.93937875700414,179.25202648740478 L 404.4,180.31309704119482" fill="none" stroke="black" stroke-linecap="round" stroke-linejoin="round" stroke-width="2" /><path d="M 404.9750623191449,180.41620149449972 L 404.4808981184373,160.2774676629998 L 405.3278636149842,140.1387338314999 L 406.3309052605058,120.0" fill="none" stroke="black" stroke-linecap="round" stroke-linejoin="round" stroke-width="2" /><path d="M 404.657059072668,121.31541219472335 L 425.19643782967216,120.02672766941257 L 445.73581658667626,118.64588175037068 L 466.2751953436804,119.1927238008381 L 486.8145741006846,118.50075060736629 L 507.3539528576887,120.03319566703622 L 527.8933316146929,120.46553376391464 L 548.432710371697,119.92372207761785" fill="none" stroke="black" stroke-linecap="round" stroke-linejoin="round" stroke-width="2" /><path d="M 547.8687498353978,119.95417046867847 L 549.0793720175412,140.0929043001784 L 548.8780194420345,160.2316381316783 L 549.1817198266849,180.3703719631782" fill="none" stroke="black" stroke-linecap="round" stroke-linejoin="round" stroke-width="2" /><path d="M 548.432710371697,180.58074332376967 L 527.8933316146929,181.26611224551243 L 507.35395285768874,182.28802346885115 L 486.8145741006846,182.91772061941387 L 466.2751953436804,182.03305080963332 L 445.73581658667626,181.10671629032854 L 425.19643782967216,179.4890820814084 L 404.657059072668,180.76120617465628" fill="none" stroke="black" stroke-linecap="round" stroke-linejoin="round" stroke-width="2" /><path d="M 403.7778775655194,180.3703719631782 L 404.30418345157597,160.2316381316783 L 406.1177806505518,140.0929043001784 L 402.40113772346797,119.95417046867847" fill="none" stroke="black" stroke-linecap="round" stroke-linejoin="round" stroke-width="2" /><path d="M 404.3235066734498,120.40359657160133 L 424.86288543045396,120.86591602386083 L 445.4022641874581,120.67719610940763 L 465.9416429444623,119.54762592956826 L 486.48102170146643,120.8319868641725 L 507.0204004584706,120.89522142941854 L 527.5597792154747,119.13831154798635 L 548.0991579724789,121.39830748243243" fill="none" stroke="black" stroke-linecap="round" stroke-linejoin="round" stroke-width="2" /><path d="M 546.8857173147087,119.94153408110436 L 547.1302285318542,140.08026791260426 L 548.3042409460223,160.21900174410416 L 548.850287273159,180.35773557560407" fill="none" stroke="black" stroke-linecap="round" stroke-linejoin="round" stroke-width="2" /><path d="M 548.0991579724789,178.470900003571 L 527.5597792154747,179.59332330201275 L 507.0204004584706,181.12232406469704 L 486.48102170146643,180.15026615785803 L 465.9416429444623,180.0927471938857 L 445.4022641874581,180.7085599577284 L 424.86288543045396,181.88146956848854 L 404.3235066734498,180.92063390366587" fill="none" stroke="black" stroke-linecap="round" stroke-linejoin="round" stroke-width="2" /><path d="M 403.6293170518556,180.35773557560407 L 402.0648052716272,160.21900174410416 L 404.6951651210049,140.08026791260426 L 405.1055120048316,119.94153408110436" fill="none" stroke="black" stroke-linecap="round" stroke-linejoin="round" stroke-width="2" /><text dominant-baseline="middle" fill="black" font-family="Virgil, Comic Sans MS, cursive" font-size="16px" text-anchor="middle" x="476.4" y="150.0">Try Operation</text><path d="M 401.82202614680773,201.00182134553322 L 420.03140415339624,211.48556613411313 L 438.5308147790151,221.46658771637377 L 455.86976009298627,233.45908250549044 L 474.813749419301,242.66950100654486" fill="none" stroke="black" stroke-linecap="round" stroke-linejoin="round" stroke-width="2" /><path d="M 475.1637290797313,241.9371304048676 L 456.15176923354414,251.02973333814316 L 439.7317294396879,264.6149976954591 L 420.3334621753129,273.0380011038757 L 402.3465043387705,283.9072741872023" fill="none" stroke="black" stroke-linecap="round" stroke-linejoin="round" stroke-width="2" /><path d="M 403.1939736963518,282.62377892632344 L 384.2575728606531,273.4002070415346 L 366.4934786030797,262.14463708799514 L 348.35867894537375,251.53162316135206 L 330.334614715026,240.72666782728817" fill="none" stroke="black" stroke-linecap="round" stroke-linejoin="round" stroke-width="2" /><path d="M 329.4218196907547,241.6911541306416 L 347.342948433636,230.70777728496918 L 365.2128051803099,219.6355289792038 L 383.67720078996,209.59381470259734 L 402.89349408548543,200.8553897481748" fill="none" stroke="black" stroke-linecap="round" stroke-linejoin="round" stroke-width="2" /><path d="M 402.45668941890386,199.51429342694652 L 421.03683500636333,209.5172054396433 L 438.47230270324997,221.48746393869982 L 456.8908687245377,231.76808114199525 L 475.0158748826919,242.55323675738748" fill="none" stroke="black" stroke-linecap="round" stroke-linejoin="round" stroke-width="2" /><path d="M 476.0614074470426,243.21841873899692 L 456.7916539351741,252.03610848242013 L 438.28271679578205,262.1614057453767 L 421.2265050476564,274.7834876651273 L 402.51403828557875,284.5589805932939" fill="none" stroke="black" stroke-linecap="round" stroke-linejoin="round" stroke-width="2" /><path d="M 402.55126297925887,284.20259971685994 L 384.35249927331967,273.544210464016 L 365.8569094740977,263.3959732604856 L 347.8464104281863,252.41401541209018 L 328.70427247941234,243.37699407178135" fill="none" stroke="black" stroke-linecap="round" stroke-linejoin="round" stroke-width="2" /><path d="M 330.758290701185,244.12793567669885 L 347.258972906106,230.5510706656581 L 366.18344490988846,221.13994903424907 L 383.3342099430305,208.68037490344315 L 401.89011927674517,198.63580828289548" fill="none" stroke="black" stroke-linecap="round" stroke-linejoin="round" stroke-width="2" /><path d="M 402.1230912783282,200.27004408654074 L 420.2875647244791,211.00568647170633 L 438.0276932811326,222.4767046066884 L 456.84225825644785,232.0857597333749 L 474.50067752090683,243.6983773868186" fill="none" stroke="black" stroke-linecap="round" stroke-linejoin="round" stroke-width="2" /><path d="M 475.2027326446783,241.81280828611253 L 456.96293076229654,252.4179089665309 L 438.267691219959,262.23375114761586 L 419.96028833089395,272.7217015047749 L 402.5212968972718,284.7145803788105" fill="none" stroke="black" stroke-linecap="round" stroke-linejoin="round" stroke-width="2" /><path d="M 401.97805906749284,284.8825721019724 L 384.70327461947323,272.6051279176167 L 365.5273203229288,263.6223486096147 L 347.66975783388676,252.35483962066328 L 328.45311294124645,243.44257577863027" fill="none" stroke="black" stroke-linecap="round" stroke-linejoin="round" stroke-width="2" /><path d="M 329.11034005330447,241.99092442301927 L 346.8750084039475,230.56243294466032 L 365.80053087879645,221.1456635186781 L 383.2563581772436,209.18196064516928 L 401.7329409033797,198.98719338652072" fill="none" stroke="black" stroke-linecap="round" stroke-linejoin="round" stroke-width="2" /><text dominant-baseline="middle" fill="black" font-family="Virgil, Comic Sans MS, cursive" font-size="16px" text-anchor="middle" x="402.4" y="242.0">Success?</text><path d="M 350.4,590.9895964886961 L 371.16402463963436,590.8104181079851 L 391.92804927926875,592.6759629163397 L 412.6920739189031,592.3508375049873 L 433.45609855853746,591.1963139785469 L 454.22012319817185,591.9074235670464" fill="none" stroke="black" stroke-linecap="round" stroke-linejoin="round" stroke-width="2" /><path d="M 452.6037314504605,592.0 L 453.7060406931013,612.0805011358295 L 453.953500667394,632.161002271659 L 453.42109775074204,652.2415034074885" fill="none" stroke="black" stroke-linecap="round" stroke-linejoin="round" stroke-width="2" /><path d="M 454.22012319817185,652.0502039333325 L 433.45609855853746,651.800761158366 L 412.6920739189031,652.1608723746764 L 391.92804927926875,651.593938445461 L 371.16402463963436,652.2744699135283 L 350.4,652.9003497118837" fill="none" stroke="black" stroke-linecap="round" stroke-linejoin="round" stroke-width="2" /><path d="M 350.68904013487344,652.2415034074885 L 347.52567335863705,632.161002271659 L 349.295431638648,612.0805011358295 L 349.8088085752307,592.0" fill="none" stroke="black" stroke-linecap="round" stroke-linejoin="round" stroke-width="2" /><path d="M 350.39412405460445,591.8467283565076 L 371.15814869423883,593.6473584488318 L 391.9221733338732,591.7591436309858 L 412.68619797350755,592.564735756996 L 433.45022261314193,592.3291009819013 L 454.2142472527763,591.3164226462577" fill="none" stroke="black" stroke-linecap="round" stroke-linejoin="round" stroke-width="2" /><path d="M 452.9303344842648,592.0710961133701 L 454.2573465286407,612.1515972491997 L 455.56036935856764,632.2320983850291 L 453.6122682856649,652.3125995208586" fill="none" stroke="black" stroke-linecap="round" stroke-linejoin="round" stroke-width="2" /><path d="M 454.2142472527763,650.5631874137301 L 433.45022261314193,653.7145408417715 L 412.68619797350755,652.930069408357 L 391.9221733338732,652.0511431024137 L 371.15814869423883,652.1511384424808 L 350.39412405460445,651.4709792088452" fill="none" stroke="black" stroke-linecap="round" stroke-linejoin="round" stroke-width="2" /><path d="M 350.6058726312644,652.3125995208586 L 349.84484823163586,632.2320983850291 L 349.3815295375593,612.1515972491997 L 350.7609964214269,592.0710961133701" fill="none" stroke="black" stroke-linecap="round" stroke-linejoin="round" stroke-width="2" /><path d="M 350.4311733203081,589.3037124868233 L 371.1951979599425,591.8631774815389 L 391.9592225995769,592.1805834577102 L 412.7232472392112,592.5992437333231 L 433.4872718788456,593.263602873062 L 454.25129651848,593.0856955112946" fill="none" stroke="black" stroke-linecap="round" stroke-linejoin="round" stroke-width="2" /><path d="M 455.39564863238337,592.083506150148 L 454.89476746177354,612.1640072859775 L 455.11095961353817,632.2445084218069 L 454.4881009173762,652.3250095576365" fill="none" stroke="black" stroke-linecap="round" stroke-linejoin="round" stroke-width="2" /><path d="M 454.25129651848,652.7387106503803 L 433.4872718788456,651.4553048520482 L 412.7232472392112,651.4084442522196 L 391.9592225995769,652.8813610052264 L 371.1951979599425,651.779270606946 L 350.4311733203081,654.1891810958948" fill="none" stroke="black" stroke-linecap="round" stroke-linejoin="round" stroke-width="2" /><path d="M 350.1166059173043,652.3250095576365 L 349.2726181133758,632.2445084218069 L 350.8083185051946,612.1640072859775 L 350.1045245365663,592.083506150148" fill="none" stroke="black" stroke-linecap="round" stroke-linejoin="round" stroke-width="2" /><text dominant-baseline="middle" fill="black" font-family="Virgil, Comic Sans MS, cursive" font-size="16px" text-anchor="middle" x="402.4" y="622.0">Complete</text><path d="M 297.0184939084473,304.5082170563478 L 316.5711340374104,311.6408246952511 L 335.8296038745107,319.59710915137003 L 356.11511413602057,324.67768041914263 L 375.1455170737762,333.2725521934267 L 395.62236453594915,337.81737929934246 L 414.7333837555699,346.1865254844045" fill="none" stroke="black" stroke-linecap="round" stroke-linejoin="round" stroke-width="2" /><path d="M 414.7053136863606,345.7348783218095 L 395.0357307215967,352.5400460204706 L 376.25666654939175,361.8386663382967 L 355.55327759993287,365.7491772798119 L 335.90756531449364,372.6211828805819 L 317.35885626274165,382.5647975356764 L 297.40946336426396,388.5864974199389" fill="none" stroke="black" stroke-linecap="round" stroke-linejoin="round" stroke-width="2" /><path d="M 297.54208862863766,387.0421518398147 L 277.512705127692,381.24442564246243 L 257.5563913763896,375.2421041461092 L 238.3512114787118,367.13660785960707 L 219.17501791770908,358.94994983041477 L 199.60885616784375,351.8552027300376 L 179.94083988792508,345.0456483138099" fill="none" stroke="black" stroke-linecap="round" stroke-linejoin="round" stroke-width="2" /><path d="M 179.72889316356068,346.3609008579698 L 198.82387328093398,337.946845186615 L 218.4538014455537,331.0306440475502 L 238.4513569914895,325.14379957617047 L 257.8079019369796,317.46212542354266 L 278.0086190722811,312.144133402387 L 297.41083163684385,304.5903285831627" fill="none" stroke="black" stroke-linecap="round" stroke-linejoin="round" stroke-width="2" /><path d="M 297.0519011378236,304.33383715810305 L 316.6415963197441,311.29088084959625 L 336.18750481627995,318.371045572453 L 356.2213858095671,324.079111070415 L 375.8404443204283,330.9535898609189 L 395.1730818297953,338.633437881779 L 414.7839738144355,345.53087961460534" fill="none" stroke="black" stroke-linecap="round" stroke-linejoin="round" stroke-width="2" /><path d="M 414.0169674678635,344.61673931547466 L 394.7490857423316,352.4786700590275 L 375.23001709734996,359.63430407525425 L 356.1303679719166,367.96927750406894 L 336.1391010235169,373.7971667592078 L 316.3632493860232,380.23076880162944 L 297.0463837074852,387.95496464331904" fill="none" stroke="black" stroke-linecap="round" stroke-linejoin="round" stroke-width="2" /><path d="M 296.97988389682564,388.12550390968966 L 277.3798691696932,381.1974770994364 L 257.7281023408046,374.41496877471036 L 238.48331012182842,366.48811409741296 L 218.74106501375223,359.96001596500236 L 198.98056251560493,353.4832546413912 L 179.72259694982554,345.59344127084427" fill="none" stroke="black" stroke-linecap="round" stroke-linejoin="round" stroke-width="2" /><path d="M 179.72514930035535,346.71805144071743 L 198.7719015532776,338.234340617367 L 218.59665900511808,331.9382537636186 L 238.32205817683783,325.36278760048657 L 257.84084426936494,318.20635909275404 L 277.3545208745353,311.03556353833625 L 297.15068052446674,304.6590643209929" fill="none" stroke="black" stroke-linecap="round" stroke-linejoin="round" stroke-width="2" /><path d="M 296.5256229322412,305.31492571020993 L 316.8763870792445,310.15333100934384 L 336.22665735173285,317.77884176222574 L 356.00059522046143,324.22412912930264 L 375.2070469746603,332.2502793932149 L 394.75827052296165,339.31598864682377 L 414.4008435541621,346.12722293714654" fill="none" stroke="black" stroke-linecap="round" stroke-linejoin="round" stroke-width="2" /><path d="M 413.9451715329914,344.38886039462824 L 395.596503972429,354.804565522514 L 375.7552778413135,361.0624059817695 L 355.53974250999966,366.27752220269167 L 336.21284100036826,373.96813201121523 L 316.8512294433877,381.5620490115855 L 297.0282071317764,387.8706003906293" fill="none" stroke="black" stroke-linecap="round" stroke-linejoin="round" stroke-width="2" /><path d="M 296.73957930318943,389.00396640184687 L 277.84349534309115,380.11321537061366 L 257.81573056286686,374.37502115758616 L 238.70833405504575,366.0729297565672 L 218.5409497984801,360.72367765890164 L 198.77271492098166,354.2625033000452 L 179.6886286136497,345.8954759823094" fill="none" stroke="black" stroke-linecap="round" stroke-linejoin="round" stroke-width="2" /><path d="M 179.6586087286711,345.80635912706185 L 199.12333244191018,338.49968471795194 L 218.75015364190384,331.64457008434937 L 237.62387350629507,322.6915187285454 L 257.68348077225386,317.0420290722494 L 277.13590346522284,309.7010873462126 L 297.4496656120989,304.7596044781088" fill="none" stroke="black" stroke-linecap="round" stroke-linejoin="round" stroke-width="2" /><text dominant-baseline="middle" fill="black" font-family="Virgil, Comic Sans MS, cursive" font-size="16px" text-anchor="middle" x="297.20000000000005" y="346.0">Retry Count &lt; 3?</text><path d="M 336.4,419.3652457904446 L 358.14547939818857,421.050585474931 L 379.8909587963772,421.0604904893221 L 401.6364381945658,419.3309216262864 L 423.38191759275446,418.72305418245037 L 445.12739699094305,420.08943075627377 L 466.87287638913165,420.73083564761527 L 488.6183557873203,418.81060742764396" fill="none" stroke="black" stroke-linecap="round" stroke-linejoin="round" stroke-width="2" /><path d="M 488.06936948036144,420.0 L 488.2616010521593,449.88002879100884 L 490.9065061737977,479.7600575820176" fill="none" stroke="black" stroke-linecap="round" stroke-linejoin="round" stroke-width="2" /><path d="M 488.6183557873203,479.8954331570734 L 466.8728763891317,478.8780463140014 L 445.12739699094305,479.37766326621244 L 423.38191759275446,481.268356657662 L 401.6364381945658,480.2547929379501 L 379.8909587963772,477.65984938980495 L 358.1454793981886,480.2038670593554 L 336.4,480.2405148985331" fill="none" stroke="black" stroke-linecap="round" stroke-linejoin="round" stroke-width="2" /><path d="M 335.2960698955191,479.7600575820176 L 337.0109728034047,449.88002879100884 L 336.9110309567319,420.0" fill="none" stroke="black" stroke-linecap="round" stroke-linejoin="round" stroke-width="2" /><path d="M 336.2953939035038,419.8342000767519 L 358.0408733016924,419.3077198308321 L 379.78635269988104,420.9859746178936 L 401.53183209806963,420.93010064893446 L 423.2773114962583,418.88903726084175 L 445.02279089444687,419.5337536940843 L 466.7682702926355,419.899043683947 L 488.5137496908241,420.5827707669318" fill="none" stroke="black" stroke-linecap="round" stroke-linejoin="round" stroke-width="2" /><path d="M 489.5185204261495,419.8691091714735 L 489.607155978349,449.74913796248234 L 486.7707806803125,479.6291667534911" fill="none" stroke="black" stroke-linecap="round" stroke-linejoin="round" stroke-width="2" /><path d="M 488.5137496908241,479.07368604095063 L 466.7682702926355,479.7313122890716 L 445.02279089444687,478.28622506598026 L 423.2773114962583,481.06360248241634 L 401.53183209806963,478.8790205011653 L 379.78635269988104,479.956913622538 L 358.0408733016924,479.916108038734 L 336.2953939035038,479.19882635574095" fill="none" stroke="black" stroke-linecap="round" stroke-linejoin="round" stroke-width="2" /><path d="M 337.0211435624083,479.6291667534911 L 337.1991907995698,449.74913796248234 L 336.8065781252563,419.8691091714735" fill="none" stroke="black" stroke-linecap="round" stroke-linejoin="round" stroke-width="2" /><path d="M 336.6911968156385,419.7902430706349 L 358.43667621382707,419.76201721168167 L 380.1821556120157,421.3718310863105 L 401.9276350102043,419.1790512709763 L 423.67311440839296,420.3618047354697 L 445.41859380658155,419.3354777542263 L 467.16407320477015,418.4055318900602 L 488.9095526029588,421.70297148244305" fill="none" stroke="black" stroke-linecap="round" stroke-linejoin="round" stroke-width="2" /><path d="M 489.4006745069954,420.0046621666729 L 489.49532785554436,449.88469095768176 L 489.8688430787408,479.76471974869054" fill="none" stroke="black" stroke-linecap="round" stroke-linejoin="round" stroke-width="2" /><path d="M 488.9095526029588,480.724713782946 L 467.1640732047702,481.16483045498 L 445.41859380658155,477.06120120095244 L 423.67311440839296,478.7586953401785 L 401.9276350102043,479.4520583405347 L 380.1821556120157,478.7874779138843 L 358.4366762138271,479.1816350876681 L 336.6911968156385,481.83695806528806" fill="none" stroke="black" stroke-linecap="round" stroke-linejoin="round" stroke-width="2" /><path d="M 338.54282138390175,479.76471974869054 L 337.89572670876225,449.88469095768176 L 334.74414778658036,420.0046621666729" fill="none" stroke="black" stroke-linecap="round" stroke-linejoin="round" stroke-width="2" /><text dominant-baseline="middle" fill="black" font-family="Virgil, Comic Sans MS, cursive" font-size="16px" text-anchor="middle" x="412.4" y="450.0">Wait &amp; Backoff</text><path d="M 182.3029277049557,407.03063134414174 L 201.11211091303494,414.2812450782881 L 220.32548999270975,420.2384320233287 L 240.1365454874018,424.28305444031423 L 258.96473822206474,431.47283768939263 L 277.8315299655614,438.53910411020354 L 296.6844709288974,445.6496930275283 L 316.23155867989004,450.5390122243517" fill="none" stroke="black" stroke-linecap="round" stroke-linejoin="round" stroke-width="2" /><path d="M 316.33769817029383,449.8006341449404 L 296.8770016757722,454.9664053624711 L 278.3266774425009,463.04536781600285 L 258.92911684638807,468.4131739084419 L 239.21506429100552,472.7682057312176 L 220.2221916807943,479.4310133785419 L 200.8954617948732,485.02547774359425 L 181.89382744398878,491.6602478207641" fill="none" stroke="black" stroke-linecap="round" stroke-linejoin="round" stroke-width="2" /><path d="M 182.38995723698497,490.75213684164805 L 162.56946001252808,486.73772795991016 L 143.5486003044713,480.1644790256919 L 124.57197241729224,473.4496882646648 L 105.72522738383026,466.31927237174324 L 85.75836719372313,462.773224980086 L 66.57867010814326,456.70825565394165 L 47.651130420120346,449.83638265561495" fill="none" stroke="black" stroke-linecap="round" stroke-linejoin="round" stroke-width="2" /><path d="M 47.57467869789852,449.9189718332752 L 66.86218862963474,444.19900361483116 L 86.02115008174677,438.0676802615896 L 104.63110409427152,430.1795331016688 L 124.62342199423404,426.7149503815489 L 143.89161465185524,420.9331668859367 L 162.7418769187356,413.81400613995396 L 181.69274312377706,407.0167779960866" fill="none" stroke="black" stroke-linecap="round" stroke-linejoin="round" stroke-width="2" /><path d="M 181.7500054196219,408.93371386343574 L 201.07389068168337,414.5247109346244 L 220.3428978419596,420.293107281787 L 239.54369679983606,426.2819938669057 L 259.0740932887834,431.2054215262837 L 277.5767770066365,439.45103955978976 L 297.22494090764224,443.9937715873428 L 316.44038949874,449.93530168158077" fill="none" stroke="black" stroke-linecap="round" stroke-linejoin="round" stroke-width="2" /><path d="M 317.35325959902286,452.9705175028981 L 296.64054811437103,454.0719867236992 L 277.8872263773681,461.50739081608305 L 258.6279808622018,467.30734271488603 L 239.32731474259995,472.9733981231358 L 220.71773781826136,480.87347254598143 L 201.36378082124025,486.3672595491179 L 181.84936290434698,491.3423396348968" fill="none" stroke="black" stroke-linecap="round" stroke-linejoin="round" stroke-width="2" /><path d="M 182.41403633712827,490.0034601307958 L 163.06688540582928,484.48767179940546 L 143.5634164532352,479.4771980269618 L 124.4517230871731,473.20026817943284 L 105.41958017926179,466.6661830510128 L 86.02882511006533,461.291349713342 L 66.65292813039765,455.8684860276998 L 47.07023317438909,451.11411870185003" fill="none" stroke="black" stroke-linecap="round" stroke-linejoin="round" stroke-width="2" /><path d="M 46.96973911559101,448.5158935164464 L 66.25666496414406,442.805421226846 L 85.79648545358319,437.9124576471216 L 105.05716740772063,432.1171491894211 L 124.43369675057437,426.6963296847492 L 143.17556052332583,419.2238865094485 L 163.23448350666925,416.0089767176503 L 182.01413877467348,408.658698553123" fill="none" stroke="black" stroke-linecap="round" stroke-linejoin="round" stroke-width="2" /><path d="M 181.89713313827585,408.16500634589727 L 200.71004017793618,415.16981803775616 L 220.68603007571522,418.48993316544136 L 239.51960918181535,425.4292548609056 L 258.4934976983007,431.92407030407753 L 278.52125910069356,435.08017107643013 L 297.31440890437244,442.1475745424092 L 316.34784466834964,448.45374174207257" fill="none" stroke="black" stroke-linecap="round" stroke-linejoin="round" stroke-width="2" /><path d="M 315.56606007312246,448.9538016284807 L 296.971446810102,456.65017740208236 L 277.2393474393776,460.74294821874054 L 258.3732216744552,467.57916069795215 L 239.34324323543964,473.89628085192845 L 220.13882911189145,479.6607812480087 L 200.85969145924926,485.1885542871394 L 181.90324662077703,491.7386320531914" fill="none" stroke="black" stroke-linecap="round" stroke-linejoin="round" stroke-width="2" /><path d="M 182.01818929077794,492.27105521992416 L 162.36858019591415,487.9169516582083 L 143.4604133663285,481.2139270816795 L 124.91571337960079,473.35942390006153 L 105.77012646475953,467.4085563743402 L 86.50954123223356,461.82200846961643 L 67.20948808497792,456.360496617814 L 47.820799206625615,451.17978657781293" fill="none" stroke="black" stroke-linecap="round" stroke-linejoin="round" stroke-width="2" /><path d="M 47.62745723641655,448.09196836071476 L 67.72223292854912,445.14817174316147 L 86.0250367624224,436.5273311358924 L 105.99095732475514,433.1753159200377 L 125.32725086182235,427.8286151832739 L 143.29152446790255,418.13529624093945 L 162.92910659210563,413.7430907184204 L 182.71780154552647,409.82961714413227" fill="none" stroke="black" stroke-linecap="round" stroke-linejoin="round" stroke-width="2" /><text dominant-baseline="middle" fill="black" font-family="Virgil, Comic Sans MS, cursive" font-size="16px" text-anchor="middle" x="182.0" y="450.0">Fallback Available?</text><path d="M 40.0,512.1794451978889 L 62.681296309707946,512.9525416042463 L 85.36259261941589,514.2417512992666 L 108.04388892912385,512.6677962370545 L 130.72518523883178,511.7520750006203 L 153.40648154853977,512.2270958171983 L 176.0877778582477,510.71473219661533" fill="none" stroke="black" stroke-linecap="round" stroke-linejoin="round" stroke-width="2" /><path d="M 175.5703652649305,512.0 L 176.28588106233948,541.9756817458442 L 175.0665170224346,571.9513634916885" fill="none" stroke="black" stroke-linecap="round" stroke-linejoin="round" stroke-width="2" /><path d="M 176.0877778582477,571.174443797316 L 153.40648154853974,569.5813393828694 L 130.7251852388318,572.7821988265065 L 108.04388892912385,571.7249049342633 L 85.3625926194159,570.1768899695467 L 62.681296309707946,571.4452132815272 L 40.0,572.0548539299512" fill="none" stroke="black" stroke-linecap="round" stroke-linejoin="round" stroke-width="2" /><path d="M 40.12219430693901,571.9513634916885 L 39.117385466279295,541.9756817458442 L 40.459624392500565,512.0" fill="none" stroke="black" stroke-linecap="round" stroke-linejoin="round" stroke-width="2" /><path d="M 39.92891759836457,512.2208984132411 L 62.610213908072524,511.85884556940294 L 85.29151021778047,511.74939175668595 L 107.97280652748842,511.5213114690776 L 130.65410283719638,510.2278812062038 L 153.33539914690434,510.3720173420713 L 176.01669545661227,510.69922220375264" fill="none" stroke="black" stroke-linecap="round" stroke-linejoin="round" stroke-width="2" /><path d="M 175.90554635845405,511.96783002126836 L 176.14152558667806,541.9435117671126 L 175.93968952172344,571.9191935129569" fill="none" stroke="black" stroke-linecap="round" stroke-linejoin="round" stroke-width="2" /><path d="M 176.01669545661227,571.8551728531802 L 153.3353991469043,572.05814341655 L 130.65410283719638,571.8446352465143 L 107.97280652748842,572.2408273129125 L 85.29151021778047,571.0893711404883 L 62.61021390807251,570.0788002600979 L 39.92891759836456,570.2480158060649" fill="none" stroke="black" stroke-linecap="round" stroke-linejoin="round" stroke-width="2" /><path d="M 41.16434398907141,571.9191935129569 L 40.76070510807554,541.9435117671126 L 40.39046372555899,511.96783002126836" fill="none" stroke="black" stroke-linecap="round" stroke-linejoin="round" stroke-width="2" /><path d="M 40.01589389463883,512.4599287691381 L 62.69719020434678,514.3365915049478 L 85.37848651405473,511.01967617390403 L 108.05978282376267,512.3230894005397 L 130.74107913347063,511.82831623871886 L 153.4223754431786,512.1960033110215 L 176.10367175288653,512.8310529287475" fill="none" stroke="black" stroke-linecap="round" stroke-linejoin="round" stroke-width="2" /><path d="M 175.6906269240654,512.0709404479541 L 175.85328924507843,542.0466221937984 L 176.30252352946601,572.0223039396426" fill="none" stroke="black" stroke-linecap="round" stroke-linejoin="round" stroke-width="2" /><path d="M 176.10367175288653,570.5150081897741 L 153.42237544317857,571.3424275609161 L 130.74107913347063,571.7450106906767 L 108.05978282376267,571.315638333429 L 85.37848651405473,572.5337375075111 L 62.69719020434677,571.0424705146005 L 40.01589389463882,574.07957721952" fill="none" stroke="black" stroke-linecap="round" stroke-linejoin="round" stroke-width="2" /><path d="M 42.57693508436032,572.0223039396426 L 40.72176546755462,542.0466221937984 L 39.488751905213334,512.0709404479541" fill="none" stroke="black" stroke-linecap="round" stroke-linejoin="round" stroke-width="2" /><text dominant-baseline="middle" fill="black" font-family="Virgil, Comic Sans MS, cursive" font-size="16px" text-anchor="middle" x="108.0" y="542.0">Use Fallback</text><path d="M 196.0,511.27416724611413 L 219.92848058423544,511.43604990717955 L 243.85696116847086,510.8599814992149 L 267.7854417527063,512.1003281945389 L 291.7139223369417,513.237908125678 L 315.64240292117717,510.6476943346912" fill="none" stroke="black" stroke-linecap="round" stroke-linejoin="round" stroke-width="2" /><path d="M 315.67879454206223,512.0 L 314.8272492819228,532.0217042998319 L 314.89576835976686,552.0434085996637 L 315.4875871657339,572.0651128994956" fill="none" stroke="black" stroke-linecap="round" stroke-linejoin="round" stroke-width="2" /><path d="M 315.64240292117717,571.8904128261636 L 291.7139223369417,572.5369148532294 L 267.7854417527063,571.7001905470056 L 243.8569611684709,573.4332042605224 L 219.92848058423544,571.2019994937004 L 196.0,571.8063011873801" fill="none" stroke="black" stroke-linecap="round" stroke-linejoin="round" stroke-width="2" /><path d="M 195.55637646314958,572.0651128994956 L 196.65406085992336,552.0434085996637 L 196.38642620804788,532.0217042998319 L 198.04904228103268,512.0" fill="none" stroke="black" stroke-linecap="round" stroke-linejoin="round" stroke-width="2" /><path d="M 196.0124197382663,511.62174397975514 L 219.94090032250173,511.2142831222285 L 243.86938090673718,511.29530456130146 L 267.7978614909726,511.3414761381591 L 291.72634207520804,511.2168394493152 L 315.6548226594435,511.27543807092735" fill="none" stroke="black" stroke-linecap="round" stroke-linejoin="round" stroke-width="2" /><path d="M 315.9518663779758,511.9783906806911 L 314.98330676410967,532.0000949805229 L 316.23745285080037,552.0217992803548 L 316.05813358333546,572.0435035801867" fill="none" stroke="black" stroke-linecap="round" stroke-linejoin="round" stroke-width="2" /><path d="M 315.6548226594435,571.8440690080229 L 291.72634207520804,573.3258927548181 L 267.7978614909726,571.7165968510126 L 243.86938090673715,569.9668913116969 L 219.9409003225017,572.1249625753121 L 196.0124197382663,574.6322822891442" fill="none" stroke="black" stroke-linecap="round" stroke-linejoin="round" stroke-width="2" /><path d="M 197.00383234405595,572.0435035801867 L 195.17466304479603,552.0217992803548 L 196.85404731216212,532.0000949805229 L 197.69041617478274,511.9783906806911" fill="none" stroke="black" stroke-linecap="round" stroke-linejoin="round" stroke-width="2" /><path d="M 196.0959385402705,512.1560035681078 L 220.02441912450595,511.99454304631934 L 243.9528997087414,512.3987858590613 L 267.8813802929768,511.5921266788653 L 291.80986087721226,512.8596250328069 L 315.7383414614477,512.7706252785271" fill="none" stroke="black" stroke-linecap="round" stroke-linejoin="round" stroke-width="2" /><path d="M 315.95301696967806,512.4222095339305 L 315.3864144258246,532.4439138337624 L 317.2363247675284,552.4656181335943 L 314.9978272987849,572.4873224334261" fill="none" stroke="black" stroke-linecap="round" stroke-linejoin="round" stroke-width="2" /><path d="M 315.7383414614477,573.1070229563056 L 291.80986087721226,573.9422010135229 L 267.8813802929768,573.4887963415003 L 243.95289970874137,575.1163577232086 L 220.02441912450593,572.2277360844822 L 196.0959385402705,571.3489621972702" fill="none" stroke="black" stroke-linecap="round" stroke-linejoin="round" stroke-width="2" /><path d="M 194.85868014795267,572.4873224334261 L 194.06953783633992,552.4656181335943 L 193.2087894570615,532.4439138337624 L 197.42617217328853,512.4222095339305" fill="none" stroke="black" stroke-linecap="round" stroke-linejoin="round" stroke-width="2" /><text dominant-baseline="middle" fill="black" font-family="Virgil, Comic Sans MS, cursive" font-size="16px" text-anchor="middle" x="256.0" y="542.0">Alert Team</text><path d="M 474.4,591.7501737580172 L 496.0819874314265,591.4811636724138 L 517.763974862853,591.4286942791358 L 539.4459622942796,593.5933099281892 L 561.1279497257061,592.9221641897946 L 582.8099371571327,591.7420592550043 L 604.4919245885592,593.6298734232216 L 626.1739120199858,590.1033562457687" fill="none" stroke="black" stroke-linecap="round" stroke-linejoin="round" stroke-width="2" /><path d="M 626.6892104911932,592.0 L 625.4381941498083,621.889828536797 L 625.5400470179051,651.7796570735941" fill="none" stroke="black" stroke-linecap="round" stroke-linejoin="round" stroke-width="2" /><path d="M 626.1739120199858,650.757862451708 L 604.4919245885592,652.299803744705 L 582.8099371571327,652.0488042579689 L 561.1279497257061,651.1056898811812 L 539.4459622942796,651.4490598801325 L 517.763974862853,649.8374697649264 L 496.08198743142657,652.4104847530252 L 474.4,652.1523174261005" fill="none" stroke="black" stroke-linecap="round" stroke-linejoin="round" stroke-width="2" /><path d="M 474.2973330871278,651.7796570735941 L 472.39816735009964,621.889828536797 L 473.9014410394306,592.0" fill="none" stroke="black" stroke-linecap="round" stroke-linejoin="round" stroke-width="2" /><path d="M 474.4878772954557,591.618935611251 L 496.1698647268822,590.8630897180785 L 517.8518521583088,591.5105075678962 L 539.5338395897353,593.007437608503 L 561.2158270211619,592.6579383495366 L 582.8978144525885,591.5837150085753 L 604.579801884015,592.6615876971921 L 626.2617893154415,590.8527895926634" fill="none" stroke="black" stroke-linecap="round" stroke-linejoin="round" stroke-width="2" /><path d="M 625.0126360133966,591.8044675231234 L 625.9262309156919,621.6942960599205 L 627.3499402342323,651.5841245967175" fill="none" stroke="black" stroke-linecap="round" stroke-linejoin="round" stroke-width="2" /><path d="M 626.2617893154415,651.3068217537685 L 604.579801884015,651.7233818184454 L 582.8978144525885,652.518508792092 L 561.2158270211619,651.8180473155429 L 539.5338395897354,651.3854574658095 L 517.8518521583088,650.8674143342183 L 496.1698647268822,650.7951031008237 L 474.4878772954557,650.9810916863194" fill="none" stroke="black" stroke-linecap="round" stroke-linejoin="round" stroke-width="2" /><path d="M 475.28470716937943,651.5841245967175 L 474.5928306794419,621.6942960599205 L 473.4386323325706,591.8044675231234" fill="none" stroke="black" stroke-linecap="round" stroke-linejoin="round" stroke-width="2" /><path d="M 474.2709949400769,592.1740967203033 L 495.9529823715034,592.5295532413656 L 517.63496980293,591.2617641862261 L 539.3169572343566,593.603845100906 L 560.998944665783,593.0288006083924 L 582.6809320972096,591.5551867177691 L 604.3629195286361,591.805800762537 L 626.0449069600627,591.9612316026353" fill="none" stroke="black" stroke-linecap="round" stroke-linejoin="round" stroke-width="2" /><path d="M 625.4016681973508,592.1053977251776 L 624.2197047648446,621.9952262619746 L 624.7064016875272,651.8850547987716" fill="none" stroke="black" stroke-linecap="round" stroke-linejoin="round" stroke-width="2" /><path d="M 626.0449069600627,652.6109914125361 L 604.3629195286361,653.4136209017978 L 582.6809320972096,652.6060870522939 L 560.998944665783,653.4508198970705 L 539.3169572343566,652.9440710630593 L 517.63496980293,653.5295747511124 L 495.9529823715035,650.560853378011 L 474.2709949400769,653.1109606600779" fill="none" stroke="black" stroke-linecap="round" stroke-linejoin="round" stroke-width="2" /><path d="M 474.99663625623754,651.8850547987716 L 472.768805377811,621.9952262619746 L 474.78864386618636,592.1053977251776" fill="none" stroke="black" stroke-linecap="round" stroke-linejoin="round" stroke-width="2" /><text dominant-baseline="middle" fill="black" font-family="Virgil, Comic Sans MS, cursive" font-size="16px" text-anchor="middle" x="550.4" y="622.0">Mark as Failed</text></g></svg>