<?xml version="1.0" encoding="utf-8" ?>
<svg baseProfile="full" height="988.0px" version="1.1" viewBox="0 0 534.4 988.0" width="534.4px" xmlns="http://www.w3.org/2000/svg" xmlns:ev="http://www.w3.org/2001/xml-events" xmlns:xlink="http://www.w3.org/1999/xlink"><defs /><rect fill="white" height="988.0" width="534.4" x="0" y="0" /><g><path d="M 379.5629717874554,100.0 L 379.8454109726613,110.0 L 380.76412036763685,120.0" fill="none" stroke="black" stroke-linecap="round" stroke-linejoin="round" stroke-width="2" /><path d="M 376.9877271200201,112.94742217062765 L 378.32420917500644,116.76913372689519 L 380.76412036763685,120.0" fill="none" stroke="black" stroke-linecap="round" stroke-linejoin="round" stroke-width="2" /><path d="M 383.19229151733214,112.3774030102735 L 382.8978688976237,116.48165928030475 L 380.76412036763685,120.0" fill="none" stroke="black" stroke-linecap="round" stroke-linejoin="round" stroke-width="2" /><path d="M 380.4692296131491,180.0 L 381.6301260110518,190.0 L 380.7251080897103,200.0" fill="none" stroke="black" stroke-linecap="round" stroke-linejoin="round" stroke-width="2" /><path d="M 378.28658878773086,192.38070714476248 L 378.4026755929174,196.54341891965447 L 380.7251080897103,200.0" fill="none" stroke="black" stroke-linecap="round" stroke-linejoin="round" stroke-width="2" /><path d="M 384.4919214692005,192.94230087322407 L 382.7999704728642,196.57333357796696 L 380.7251080897103,200.0" fill="none" stroke="black" stroke-linecap="round" stroke-linejoin="round" stroke-width="2" /><path d="M 380.0282655123285,260.0 L 380.8848152131789,270.0 L 381.87233121401607,280.0" fill="none" stroke="black" stroke-linecap="round" stroke-linejoin="round" stroke-width="2" /><path d="M 378.0479367733375,272.9733359862516 L 379.7658817482391,276.5923934420853 L 381.87233121401607,280.0" fill="none" stroke="black" stroke-linecap="round" stroke-linejoin="round" stroke-width="2" /><path d="M 384.2484701769722,272.3610233912701 L 383.7177474188024,276.3849824305813 L 381.87233121401607,280.0" fill="none" stroke="black" stroke-linecap="round" stroke-linejoin="round" stroke-width="2" /><path d="M 380.4398541697372,340.0 L 379.0649664813842,350.0 L 381.46566627557905,360.0" fill="none" stroke="black" stroke-linecap="round" stroke-linejoin="round" stroke-width="2" /><path d="M 376.7163109047878,353.56232778390074 L 379.74645988105436,356.2975937455996 L 381.46566627557905,360.0" fill="none" stroke="black" stroke-linecap="round" stroke-linejoin="round" stroke-width="2" /><path d="M 382.7748618991082,352.10785157138235 L 381.93972678594207,356.02397720489387 L 381.46566627557905,360.0" fill="none" stroke="black" stroke-linecap="round" stroke-linejoin="round" stroke-width="2" /><path d="M 316.12444389567514,389.1420437475075 L 300.449280167524,404.07325247942225 L 282.9237233927387,416.6544620421115 L 265.8888763334163,429.8588729434388 L 249.33555002277018,443.67481519558487 L 232.06303254052935,456.5773846598057 L 214.3444109504038,468.91340190701294" fill="none" stroke="black" stroke-linecap="round" stroke-linejoin="round" stroke-width="2" /><path d="M 224.70459213712078,452.4842149924449 L 219.65567078631324,460.78152326245936 L 214.3444109504038,468.91340190701294" fill="none" stroke="black" stroke-linecap="round" stroke-linejoin="round" stroke-width="2" /><path d="M 233.34799599493394,464.8990162316288 L 224.0937885305174,468.0782448633478 L 214.3444109504038,468.91340190701294" fill="none" stroke="black" stroke-linecap="round" stroke-linejoin="round" stroke-width="2" /><path d="M 163.58224457544893,500.0 L 164.65328059835647,510.0 L 162.56965990525748,520.0" fill="none" stroke="black" stroke-linecap="round" stroke-linejoin="round" stroke-width="2" /><path d="M 161.0228470774177,512.1509637486103 L 162.33959330212633,515.9684056725541 L 162.56965990525748,520.0" fill="none" stroke="black" stroke-linecap="round" stroke-linejoin="round" stroke-width="2" /><path d="M 167.12253899262282,513.4219081782153 L 165.37174965626286,517.0747711200988 L 162.56965990525748,520.0" fill="none" stroke="black" stroke-linecap="round" stroke-linejoin="round" stroke-width="2" /><path d="M 286.44469303447636,561.9250310389428 L 302.609828235355,574.2179225299421 L 321.3511113784756,582.1895336016968 L 337.5314381439079,594.4569424682835 L 355.1641000475526,604.2881762643203 L 373.58586215213523,612.7957581103967 L 390.05410741070443,624.5802069239796" fill="none" stroke="black" stroke-linecap="round" stroke-linejoin="round" stroke-width="2" /><path d="M 372.24215448466794,620.57634172051 L 381.18436071541464,622.4170993364482 L 390.05410741070443,624.5802069239796" fill="none" stroke="black" stroke-linecap="round" stroke-linejoin="round" stroke-width="2" /><path d="M 380.5165973914086,609.0131742510928 L 384.0360945739729,617.5620778834237 L 390.05410741070443,624.5802069239796" fill="none" stroke="black" stroke-linecap="round" stroke-linejoin="round" stroke-width="2" /><text fill="black" font-family="Virgil, Comic Sans MS, cursive" font-size="14px" text-anchor="middle" x="302.609828235355" y="564.2179225299421">No</text><path d="M 390.49340784868184,623.9956043365327 L 389.77064336518356,603.5844403122267 L 388.7342996361136,583.1880329583006 L 387.18405800261684,562.8158090351709 L 386.7560387335971,542.3907746478307 L 386.2121524840185,521.9711928242815 L 383.64028579757127,501.64704537423194 L 384.3678303955951,481.16763151079556 L 383.421179068117,460.7670033379709 L 381.0669847169574,440.43261248390786 L 382.4214323923974,419.9236972991813" fill="none" stroke="black" stroke-linecap="round" stroke-linejoin="round" stroke-width="2" /><path d="M 388.9789420866026,438.8181162267484 L 385.69714382886855,429.371963011098 L 382.4214323923974,419.9236972991813" fill="none" stroke="black" stroke-linecap="round" stroke-linejoin="round" stroke-width="2" /><path d="M 373.4360668912618,437.79163525550416 L 377.0399272704267,428.41069842396405 L 382.4214323923974,419.9236972991813" fill="none" stroke="black" stroke-linecap="round" stroke-linejoin="round" stroke-width="2" /><path d="M 163.4449548462317,604.0 L 164.02828515182145,614.0 L 162.43666265343563,624.0" fill="none" stroke="black" stroke-linecap="round" stroke-linejoin="round" stroke-width="2" /><path d="M 160.51824829606562,616.233425056472 L 160.11464793492718,620.4533383343011 L 162.43666265343563,624.0" fill="none" stroke="black" stroke-linecap="round" stroke-linejoin="round" stroke-width="2" /><path d="M 166.67149034051542,617.212788904068 L 164.25971600426828,620.4227305071706 L 162.43666265343563,624.0" fill="none" stroke="black" stroke-linecap="round" stroke-linejoin="round" stroke-width="2" /><text fill="black" font-family="Virgil, Comic Sans MS, cursive" font-size="14px" text-anchor="middle" x="164.02828515182145" y="604.0">Yes</text><path d="M 162.6064683330196,684.0 L 160.8018449718269,694.0 L 163.0906782915208,704.0" fill="none" stroke="black" stroke-linecap="round" stroke-linejoin="round" stroke-width="2" /><path d="M 158.40985102578645,697.5123304562919 L 160.62657888492032,700.8454040123002 L 163.0906782915208,704.0" fill="none" stroke="black" stroke-linecap="round" stroke-linejoin="round" stroke-width="2" /><path d="M 164.48348379311088,696.1221771513482 L 163.49484763379846,700.0094214708215 L 163.0906782915208,704.0" fill="none" stroke="black" stroke-linecap="round" stroke-linejoin="round" stroke-width="2" /><path d="M 163.7747158017423,764.0 L 162.31053867635228,774.0 L 164.0488114314592,784.0" fill="none" stroke="black" stroke-linecap="round" stroke-linejoin="round" stroke-width="2" /><path d="M 159.71756976305292,777.2739056199113 L 162.81539207670795,780.0366653826628 L 164.0488114314592,784.0" fill="none" stroke="black" stroke-linecap="round" stroke-linejoin="round" stroke-width="2" /><path d="M 165.85621107279823,776.2068423257009 L 163.18408302169706,779.6932849019153 L 164.0488114314592,784.0" fill="none" stroke="black" stroke-linecap="round" stroke-linejoin="round" stroke-width="2" /><path d="M 276.0489385215378,825.6899528877861 L 282.53788798618683,849.3879017789578 L 292.1444588747748,871.947241106604 L 299.88405186143746,895.1884332332141 L 310.17197005145556,917.4989326768597" fill="none" stroke="black" stroke-linecap="round" stroke-linejoin="round" stroke-width="2" /><path d="M 299.28680664468243,907.5851271458348 L 304.50185845597343,912.7918532559383 L 310.17197005145556,917.4989326768597" fill="none" stroke="black" stroke-linecap="round" stroke-linejoin="round" stroke-width="2" /><path d="M 309.6999324552906,902.7833795779462 L 310.5940428543497,910.1200462190432 L 310.17197005145556,917.4989326768597" fill="none" stroke="black" stroke-linecap="round" stroke-linejoin="round" stroke-width="2" /><text fill="black" font-family="Virgil, Comic Sans MS, cursive" font-size="14px" text-anchor="middle" x="282.53788798618683" y="839.3879017789578">Yes</text><path d="M 379.9305412466375,888.4433120167358 L 372.4486085786675,869.6756186566873 L 361.4056497195672,852.723590152889 L 352.0250917757769,834.9239512253187 L 343.78036538387084,816.5451844506932 L 334.8994585644808,798.4907877824417 L 326.100533902469,780.3945907695697 L 317.22030417791456,762.3398488701316 L 307.71872781144805,744.6019137563551 L 299.5060878352543,726.2067870410146 L 289.53905262204205,708.7061760087547 L 279.5163966555251,691.23392439921 L 273.02255095386784,671.9624339078397 L 266.94420877520054,661.5120963907495 Q 262.891980656089,654.5452047126894 265.12817362381594,646.8019771301996 L 270.5523411559716,628.0198039218984 L 284.88131528213694,603.3301756495183 L 291.7467193072603,583.715882724624 L 303.3989365912484,566.3464356723133 L 311.5753426720342,547.1554513892864 L 320.5181434625148,528.3661047141501 L 330.1407975549654,509.9330426668504 L 340.9090596659773,492.10034914810996 L 350.7599960490855,473.7869209552506 L 358.0197922660808,454.1155771545958 L 369.4661221610798,436.6382325432827 L 378.7416929881192,418.0232776792724 L 379.4835990363801,419.67976618131877 L 380.4161598783609,420.3377793070424" fill="none" stroke="black" stroke-linecap="round" stroke-linejoin="round" stroke-width="2" /><path d="M 360.87438680241854,416.0811250988202 L 370.54964531201574,418.64846865547156 L 380.4161598783609,420.3377793070424" fill="none" stroke="black" stroke-linecap="round" stroke-linejoin="round" stroke-width="2" /><path d="M 369.85481228693334,403.35372981779966 L 375.50759168291205,411.6143647170485 L 380.4161598783609,420.3377793070424" fill="none" stroke="black" stroke-linecap="round" stroke-linejoin="round" stroke-width="2" /><path d="M 328.79999999999995,40.140039538714355 L 349.5908018205692,39.31151008351506 L 370.38160364113844,40.49880136585525 L 391.1724054617076,40.314218728964164 L 411.96320728227687,39.55015060508136 L 432.7540091028461,40.091910283674714" fill="none" stroke="black" stroke-linecap="round" stroke-linejoin="round" stroke-width="2" /><path d="M 434.5663962213335,40.0 L 432.6348356702027,60.01488317537538 L 433.8055476824537,80.02976635075076 L 431.87039975277673,100.04464952612615" fill="none" stroke="black" stroke-linecap="round" stroke-linejoin="round" stroke-width="2" /><path d="M 432.7540091028461,98.90759339448695 L 411.96320728227687,100.78977646795147 L 391.1724054617076,100.46247884008929 L 370.38160364113844,100.280755761663 L 349.5908018205692,99.72695356062393 L 328.79999999999995,99.57736884305679" fill="none" stroke="black" stroke-linecap="round" stroke-linejoin="round" stroke-width="2" /><path d="M 329.1275957991007,100.04464952612615 L 327.8009496783086,80.02976635075078 L 328.7790116219191,60.01488317537539 L 330.6525280562509,40.0" fill="none" stroke="black" stroke-linecap="round" stroke-linejoin="round" stroke-width="2" /><path d="M 328.7472292246787,39.10955187589191 L 349.5380310452479,39.74203361056675 L 370.32883286581716,41.210877676410426 L 391.11963468638635,40.233278897010955 L 411.9104365069556,42.39028159947562 L 432.70123832752483,41.17966397845984" fill="none" stroke="black" stroke-linecap="round" stroke-linejoin="round" stroke-width="2" /><path d="M 434.12354776238885,40.23081033732136 L 433.7010298726941,60.24569351269674 L 435.07419847862764,80.26057668807212 L 431.92133157582055,100.27545986344751" fill="none" stroke="black" stroke-linecap="round" stroke-linejoin="round" stroke-width="2" /><path d="M 432.70123832752483,100.0791128946529 L 411.9104365069556,100.16164739906696 L 391.11963468638635,100.52646326726494 L 370.32883286581716,98.70584553704829 L 349.5380310452479,99.39869498783361 L 328.7472292246787,99.42586748978238" fill="none" stroke="black" stroke-linecap="round" stroke-linejoin="round" stroke-width="2" /><path d="M 327.3790785737588,100.27545986344751 L 328.2652932444125,80.26057668807212 L 329.36863229521236,60.24569351269675 L 329.3896493761413,40.23081033732136" fill="none" stroke="black" stroke-linecap="round" stroke-linejoin="round" stroke-width="2" /><path d="M 328.8640487486608,40.029325052641276 L 349.65485056923006,40.816294954662666 L 370.4456523897993,39.75209539726067 L 391.2364542103685,39.97521274468165 L 412.02725603093774,40.75425855683886 L 432.818057851507,40.708785829180364" fill="none" stroke="black" stroke-linecap="round" stroke-linejoin="round" stroke-width="2" /><path d="M 432.6917147179953,40.1122999283973 L 432.02782109109336,60.12718310377268 L 433.3778920295246,80.14206627914805 L 434.0791225331923,100.15694945452344" fill="none" stroke="black" stroke-linecap="round" stroke-linejoin="round" stroke-width="2" /><path d="M 432.818057851507,99.07295056953153 L 412.02725603093774,99.70889573948573 L 391.2364542103685,100.2988042058105 L 370.4456523897993,101.81621568052714 L 349.65485056923006,101.89685762898007 L 328.8640487486608,98.7281506095101" fill="none" stroke="black" stroke-linecap="round" stroke-linejoin="round" stroke-width="2" /><path d="M 328.3596612429078,100.15694945452344 L 329.2036992609186,80.14206627914805 L 329.097871892118,60.12718310377268 L 328.27404828716345,40.1122999283973" fill="none" stroke="black" stroke-linecap="round" stroke-linejoin="round" stroke-width="2" /><text dominant-baseline="middle" fill="black" font-family="Virgil, Comic Sans MS, cursive" font-size="16px" text-anchor="middle" x="380.79999999999995" y="70.0">Raw Data</text><path d="M 308.79999999999995,119.23270331129488 L 329.3451654717411,119.06071376037406 L 349.89033094348224,122.05787018630285 L 370.4354964152234,120.59106017738755 L 390.9806618869645,120.48398603979922 L 411.52582735870567,119.86324444752678 L 432.0709928304468,121.12274584976055 L 452.61615830218796,119.97055770154009" fill="none" stroke="black" stroke-linecap="round" stroke-linejoin="round" stroke-width="2" /><path d="M 453.2938552773675,120.0 L 451.36385488962355,149.95948904452518 L 453.99214150267875,179.91897808905037" fill="none" stroke="black" stroke-linecap="round" stroke-linejoin="round" stroke-width="2" /><path d="M 452.61615830218796,181.39873746876387 L 432.0709928304468,179.65312758580302 L 411.52582735870567,179.44970600113723 L 390.9806618869645,179.73970656679901 L 370.4354964152234,180.8421795682307 L 349.89033094348224,181.47841246268817 L 329.3451654717411,181.42446007786072 L 308.79999999999995,180.78859979144258" fill="none" stroke="black" stroke-linecap="round" stroke-linejoin="round" stroke-width="2" /><path d="M 310.02182314989057,179.91897808905037 L 309.0626022273387,149.95948904452518 L 307.9460461175478,120.0" fill="none" stroke="black" stroke-linecap="round" stroke-linejoin="round" stroke-width="2" /><path d="M 308.8919080152216,119.23694580652096 L 329.43707348696273,119.61770167802682 L 349.9822389587039,122.14971979085801 L 370.527404430445,119.23832009522779 L 391.07256990218616,119.92399146068144 L 411.6177353739273,118.63726283861918 L 432.16290084566845,121.87302826997333 L 452.7080663174096,121.57375071100518" fill="none" stroke="black" stroke-linecap="round" stroke-linejoin="round" stroke-width="2" /><path d="M 454.06398332739656,120.0325757865095 L 452.9429817144451,149.9920648310347 L 452.1887222884509,179.95155387555988" fill="none" stroke="black" stroke-linecap="round" stroke-linejoin="round" stroke-width="2" /><path d="M 452.7080663174096,180.2167716305521 L 432.16290084566845,179.08100416633107 L 411.6177353739273,178.5457241026 L 391.07256990218616,180.05266935368766 L 370.527404430445,178.84574126893347 L 349.9822389587039,181.291965410864 L 329.43707348696273,182.2793405591498 L 308.8919080152216,179.48608308107663" fill="none" stroke="black" stroke-linecap="round" stroke-linejoin="round" stroke-width="2" /><path d="M 308.2952736480608,179.95155387555988 L 308.4701621993654,149.9920648310347 L 307.4267701888855,120.0325757865095" fill="none" stroke="black" stroke-linecap="round" stroke-linejoin="round" stroke-width="2" /><path d="M 308.84403112881074,119.04860519706405 L 329.3891966005519,118.17549822067107 L 349.934362072293,121.08824366475802 L 370.47952754403417,120.17957734873266 L 391.0246930157753,120.04430864044632 L 411.56985848751646,121.75399338592645 L 432.1150239592576,119.80006292930784 L 452.66018943099874,118.89571818115617" fill="none" stroke="black" stroke-linecap="round" stroke-linejoin="round" stroke-width="2" /><path d="M 452.9402342046682,120.01727406954902 L 453.6858704362747,149.9767631140742 L 453.378633565395,179.9362521585994" fill="none" stroke="black" stroke-linecap="round" stroke-linejoin="round" stroke-width="2" /><path d="M 452.66018943099874,179.69189325229476 L 432.1150239592576,179.03760553727906 L 411.56985848751646,181.66835617525857 L 391.0246930157753,182.50169260985237 L 370.47952754403417,178.2411412471702 L 349.934362072293,179.61289119453411 L 329.3891966005519,176.82950105626304 L 308.84403112881074,179.5456657246745" fill="none" stroke="black" stroke-linecap="round" stroke-linejoin="round" stroke-width="2" /><path d="M 308.77276432475594,179.9362521585994 L 308.0117645018033,149.9767631140742 L 308.9825411980466,120.01727406954902" fill="none" stroke="black" stroke-linecap="round" stroke-linejoin="round" stroke-width="2" /><text dominant-baseline="middle" fill="black" font-family="Virgil, Comic Sans MS, cursive" font-size="16px" text-anchor="middle" x="380.79999999999995" y="150.0">Data Cleaning</text><path d="M 284.79999999999995,199.7053775150192 L 306.13607184181086,200.83924572047795 L 327.4721436836217,200.3261120561797 L 348.8082155254326,199.73815910708115 L 370.14428736724346,199.8206570292448 L 391.4803592090544,200.78709059052383 L 412.8164310508653,200.02787048247598 L 434.1525028926761,201.34899503907783 L 455.48857473448703,200.50229563593345 L 476.82464657629794,200.3832760467859" fill="none" stroke="black" stroke-linecap="round" stroke-linejoin="round" stroke-width="2" /><path d="M 476.8060152621896,200.0 L 477.19595850538735,229.958725452175 L 477.7875713141057,259.91745090435" fill="none" stroke="black" stroke-linecap="round" stroke-linejoin="round" stroke-width="2" /><path d="M 476.82464657629794,260.03767318946035 L 455.48857473448703,259.97023173591504 L 434.1525028926762,259.08391138184305 L 412.8164310508653,259.41170566723287 L 391.4803592090544,259.51536144956754 L 370.14428736724346,258.5205160706366 L 348.8082155254326,261.08984595751843 L 327.47214368362177,259.71263098578015 L 306.13607184181086,260.1150132383275 L 284.79999999999995,259.1010370333776" fill="none" stroke="black" stroke-linecap="round" stroke-linejoin="round" stroke-width="2" /><path d="M 285.07834599054246,259.91745090435 L 285.4657056271939,229.958725452175 L 286.4835234766257,200.0" fill="none" stroke="black" stroke-linecap="round" stroke-linejoin="round" stroke-width="2" /><path d="M 284.88148624980875,199.47028383850903 L 306.21755809161965,200.59158339623508 L 327.5536299334305,197.72325800288993 L 348.8897017752414,199.08775172872544 L 370.22577361705225,199.86329822488153 L 391.5618454588632,199.89379012081477 L 412.89791730067407,201.26157838822695 L 434.2339891424849,199.9173917899552 L 455.5700609842958,199.17165252789198 L 476.9061328261067,199.78655542034426" fill="none" stroke="black" stroke-linecap="round" stroke-linejoin="round" stroke-width="2" /><path d="M 479.2835981771922,200.19748850646184 L 477.36244815204134,230.15621395863684 L 476.1928313891457,260.11493941081187" fill="none" stroke="black" stroke-linecap="round" stroke-linejoin="round" stroke-width="2" /><path d="M 476.9061328261067,260.35121175169814 L 455.5700609842958,259.38385342204083 L 434.233989142485,262.24374707536055 L 412.89791730067407,259.5046910770726 L 391.5618454588632,259.21527837799516 L 370.22577361705225,260.26194493123927 L 348.8897017752414,261.5315269363612 L 327.55362993343056,261.4106622036092 L 306.21755809161965,259.7887886563419 L 284.88148624980875,259.55765184348394" fill="none" stroke="black" stroke-linecap="round" stroke-linejoin="round" stroke-width="2" /><path d="M 284.93580210981094,260.11493941081187 L 285.76782584080684,230.15621395863684 L 285.3429032611343,200.19748850646184" fill="none" stroke="black" stroke-linecap="round" stroke-linejoin="round" stroke-width="2" /><path d="M 284.8500942371014,200.15231105992865 L 306.1861660789123,198.698507148572 L 327.52223792072317,201.49300816017762 L 348.8583097625341,200.50021785724465 L 370.1943816043449,200.9134201563406 L 391.5304534461559,201.9057248280172 L 412.86652528796674,200.9025190672507 L 434.2025971297776,200.98160854422954 L 455.5386689715885,199.64599115935104 L 476.8747408133994,199.48725705522534" fill="none" stroke="black" stroke-linecap="round" stroke-linejoin="round" stroke-width="2" /><path d="M 479.4081925416291,200.14376728548487 L 477.1974562572239,230.10249273765987 L 478.23396973051024,260.0612181898349" fill="none" stroke="black" stroke-linecap="round" stroke-linejoin="round" stroke-width="2" /><path d="M 476.8747408133994,261.06090741261784 L 455.5386689715885,259.17889698515336 L 434.20259712977764,261.38210656777363 L 412.86652528796674,258.3173590573865 L 391.5304534461559,259.7426140174521 L 370.1943816043449,259.426621563632 L 348.8583097625341,259.7123858069372 L 327.5222379207232,259.00188045986135 L 306.1861660789123,261.5714987833044 L 284.8500942371014,260.51871601539926" fill="none" stroke="black" stroke-linecap="round" stroke-linejoin="round" stroke-width="2" /><path d="M 282.95270189530567,260.0612181898349 L 283.89643722198986,230.10249273765987 L 283.69335186858035,200.14376728548487" fill="none" stroke="black" stroke-linecap="round" stroke-linejoin="round" stroke-width="2" /><text dominant-baseline="middle" fill="black" font-family="Virgil, Comic Sans MS, cursive" font-size="16px" text-anchor="middle" x="380.79999999999995" y="230.0">Feature Engineering</text><path d="M 296.79999999999995,279.22398947468525 L 317.7681192717396,281.4113463440994 L 338.73623854347926,280.9736759360277 L 359.7043578152189,278.6871125573222 L 380.67247708695857,280.4758246516008 L 401.6405963586982,278.62861347947415 L 422.6087156304378,277.34757176886467 L 443.57683490217744,280.05421237352687 L 464.5449541739171,280.73136144385563" fill="none" stroke="black" stroke-linecap="round" stroke-linejoin="round" stroke-width="2" /><path d="M 466.16841190201956,280.0 L 464.912736508799,300.06344258717144 L 465.1227365187773,320.1268851743429 L 463.8570492719004,340.1903277615143" fill="none" stroke="black" stroke-linecap="round" stroke-linejoin="round" stroke-width="2" /><path d="M 464.5449541739171,339.121163143721 L 443.5768349021775,340.0477455117319 L 422.6087156304378,337.04541086873854 L 401.6405963586982,340.3747836320264 L 380.67247708695857,339.3442078736891 L 359.7043578152189,339.7421625151943 L 338.73623854347926,340.281515043221 L 317.7681192717396,338.15248445266104 L 296.79999999999995,340.90317965976146" fill="none" stroke="black" stroke-linecap="round" stroke-linejoin="round" stroke-width="2" /><path d="M 297.28544041008433,340.1903277615143 L 297.2825404502071,320.1268851743429 L 296.57853513096944,300.06344258717144 L 297.2581486466103,280.0" fill="none" stroke="black" stroke-linecap="round" stroke-linejoin="round" stroke-width="2" /><path d="M 296.94662642817013,280.3226998130079 L 317.91474569990976,281.35564993857935 L 338.88286497164944,278.56108562086183 L 359.85098424338906,280.6005691558394 L 380.81910351512875,280.6570213813095 L 401.78722278686837,281.9746256024646 L 422.755342058608,281.43133382480255 L 443.7234613303476,281.0859374933731 L 464.6915806020873,280.1270844347681" fill="none" stroke="black" stroke-linecap="round" stroke-linejoin="round" stroke-width="2" /><path d="M 465.13768421450783,280.29652875291765 L 464.35669777188906,300.3599713400891 L 464.2725534544506,320.4234139272605 L 463.22515728514907,340.48685651443196" fill="none" stroke="black" stroke-linecap="round" stroke-linejoin="round" stroke-width="2" /><path d="M 464.6915806020873,341.1558384345936 L 443.7234613303477,339.88374117660726 L 422.755342058608,340.4296244685437 L 401.78722278686837,339.8656742489283 L 380.81910351512875,341.2535259298156 L 359.85098424338906,339.77893243864514 L 338.88286497164944,341.12227003037276 L 317.91474569990976,340.5300821783154 L 296.94662642817013,339.96151725708904" fill="none" stroke="black" stroke-linecap="round" stroke-linejoin="round" stroke-width="2" /><path d="M 297.56042351377175,340.48685651443196 L 298.20363404447056,320.4234139272605 L 295.0538084619509,300.3599713400891 L 297.1429398347968,280.29652875291765" fill="none" stroke="black" stroke-linecap="round" stroke-linejoin="round" stroke-width="2" /><path d="M 296.65751881354356,280.5391290215744 L 317.6256380852832,278.69503896161103 L 338.59375735702287,279.38597638363535 L 359.5618766287625,279.2218488729045 L 380.5299959005022,279.7882765404948 L 401.4981151722418,280.5249706090478 L 422.4662344439814,277.35921631069385 L 443.43435371572104,279.555636997096 L 464.4024729874607,279.8449596315542" fill="none" stroke="black" stroke-linecap="round" stroke-linejoin="round" stroke-width="2" /><path d="M 464.1968276817965,279.8953062684709 L 463.277583263283,299.95874885564234 L 463.708099764232,320.0221914428138 L 464.5353030060396,340.0856340299852" fill="none" stroke="black" stroke-linecap="round" stroke-linejoin="round" stroke-width="2" /><path d="M 464.4024729874607,340.1716393879338 L 443.4343537157211,338.54162242392607 L 422.4662344439814,338.4606777979224 L 401.4981151722418,338.52461115453696 L 380.5299959005022,339.87110308456295 L 359.5618766287625,339.66068640910703 L 338.59375735702287,340.7335178974963 L 317.6256380852832,339.4727736882235 L 296.65751881354356,339.8009325388508" fill="none" stroke="black" stroke-linecap="round" stroke-linejoin="round" stroke-width="2" /><path d="M 298.3425840997807,340.0856340299852 L 297.27539489585723,320.0221914428138 L 295.63010451145107,299.95874885564234 L 297.68779714367633,279.8953062684709" fill="none" stroke="black" stroke-linecap="round" stroke-linejoin="round" stroke-width="2" /><text dominant-baseline="middle" fill="black" font-family="Virgil, Comic Sans MS, cursive" font-size="16px" text-anchor="middle" x="380.79999999999995" y="310.0">Train/Test Split</text><path d="M 316.79999999999995,359.5723599239875 L 338.0179830298882,361.23759266050473 L 359.23596605977644,360.85760504431346 L 380.45394908966466,359.698251731087 L 401.67193211955293,359.01328091118876 L 422.8899151494412,361.07924370185737 L 444.1078981793294,360.4426185970395" fill="none" stroke="black" stroke-linecap="round" stroke-linejoin="round" stroke-width="2" /><path d="M 443.58812114536187,360.0 L 443.55567847938954,380.13328685121627 L 443.644070643574,400.2665737024325 L 443.0279936606909,420.39986055364875" fill="none" stroke="black" stroke-linecap="round" stroke-linejoin="round" stroke-width="2" /><path d="M 444.1078981793294,420.4721627644688 L 422.8899151494412,422.4403496294726 L 401.67193211955293,420.83024940270406 L 380.45394908966466,420.9947863546539 L 359.23596605977644,420.6214885013376 L 338.0179830298882,420.1924351291322 L 316.79999999999995,419.7116595219212" fill="none" stroke="black" stroke-linecap="round" stroke-linejoin="round" stroke-width="2" /><path d="M 316.65201962850466,420.39986055364875 L 316.5016380954229,400.2665737024325 L 317.5947084620543,380.13328685121627 L 314.6712389263313,360.0" fill="none" stroke="black" stroke-linecap="round" stroke-linejoin="round" stroke-width="2" /><path d="M 316.8091890129828,359.3680404166496 L 338.02717204287103,359.4992599648592 L 359.2451550727593,359.10205997834 L 380.4631381026476,360.9258678254115 L 401.6811211325358,360.86390336124254 L 422.899104162424,361.19440046250946 L 444.1170871923123,360.87024051834" fill="none" stroke="black" stroke-linecap="round" stroke-linejoin="round" stroke-width="2" /><path d="M 444.3244742067733,359.9276161388822 L 445.0009839164134,380.06090299009844 L 443.3569634625837,400.19418984131465 L 443.2802623344927,420.3274766925309" fill="none" stroke="black" stroke-linecap="round" stroke-linejoin="round" stroke-width="2" /><path d="M 444.1170871923123,420.90757288297505 L 422.899104162424,420.26382718850624 L 401.6811211325358,422.52011457088065 L 380.4631381026476,418.49491348114606 L 359.2451550727593,421.8815130749776 L 338.02717204287103,420.0894284378854 L 316.8091890129828,419.62268303013514" fill="none" stroke="black" stroke-linecap="round" stroke-linejoin="round" stroke-width="2" /><path d="M 316.88331348758317,420.3274766925309 L 315.64447822849553,400.19418984131465 L 317.5318860903291,380.06090299009844 L 317.33981287601097,359.9276161388822" fill="none" stroke="black" stroke-linecap="round" stroke-linejoin="round" stroke-width="2" /><path d="M 316.74169625101536,360.96698381528216 L 337.95967928090363,359.24199247590605 L 359.17766231079185,360.4378303320518 L 380.39564534068006,360.56713244892853 L 401.61362837056834,357.9392686430812 L 422.8316114004566,359.72174578747155 L 444.0495944303448,357.9552024673985" fill="none" stroke="black" stroke-linecap="round" stroke-linejoin="round" stroke-width="2" /><path d="M 445.30369258626985,359.74229213425684 L 442.83682652978655,379.8755789854731 L 445.7255276989656,400.0088658366893 L 443.8643327989695,420.1421526879056" fill="none" stroke="black" stroke-linecap="round" stroke-linejoin="round" stroke-width="2" /><path d="M 444.0495944303448,420.88598638769713 L 422.8316114004566,419.4859916906491 L 401.61362837056834,420.57933237231595 L 380.39564534068006,419.2631616356813 L 359.17766231079185,420.61057824325627 L 337.95967928090363,418.69879282780386 L 316.74169625101536,419.2754066347244" fill="none" stroke="black" stroke-linecap="round" stroke-linejoin="round" stroke-width="2" /><path d="M 316.93052766218426,420.1421526879056 L 317.4895377699201,400.0088658366893 L 317.9226228544991,379.8755789854731 L 316.99826701099556,359.74229213425684" fill="none" stroke="black" stroke-linecap="round" stroke-linejoin="round" stroke-width="2" /><text dominant-baseline="middle" fill="black" font-family="Virgil, Comic Sans MS, cursive" font-size="16px" text-anchor="middle" x="380.79999999999995" y="390.0">Train Model</text><path d="M 111.19999999999993,439.9719472122471 L 132.01773534881278,439.1557850604586 L 152.83547069762562,441.0394412583416 L 173.65320604643847,439.82897634542695 L 194.47094139525132,439.2720867673266 L 215.28867674406416,439.58098383940114" fill="none" stroke="black" stroke-linecap="round" stroke-linejoin="round" stroke-width="2" /><path d="M 215.15180150600804,440.0 L 216.71501980393273,460.07577756679746 L 215.41366607921694,480.15155513359497 L 215.67849223431608,500.2273327003924" fill="none" stroke="black" stroke-linecap="round" stroke-linejoin="round" stroke-width="2" /><path d="M 215.28867674406416,500.67864021614355 L 194.47094139525132,499.39287750364497 L 173.65320604643847,499.8438173128447 L 152.83547069762562,499.36514693675997 L 132.01773534881278,499.2310513063418 L 111.19999999999993,500.8009150271248" fill="none" stroke="black" stroke-linecap="round" stroke-linejoin="round" stroke-width="2" /><path d="M 112.287697522138,500.2273327003924 L 111.52285353707566,480.15155513359497 L 111.44046831153365,460.07577756679746 L 114.90087387050339,440.0" fill="none" stroke="black" stroke-linecap="round" stroke-linejoin="round" stroke-width="2" /><path d="M 111.2304883619377,440.1948449398265 L 132.04822371075056,442.25766766079266 L 152.8659590595634,438.92498324785606 L 173.68369440837623,439.9501277738184 L 194.5014297571891,440.0979242856206 L 215.31916510600192,440.68688172489624" fill="none" stroke="black" stroke-linecap="round" stroke-linejoin="round" stroke-width="2" /><path d="M 215.80305439115295,440.24178271128875 L 215.8949242761314,460.3175602780862 L 217.1311855051538,480.3933378448837 L 215.17271176876454,500.4691154116812" fill="none" stroke="black" stroke-linecap="round" stroke-linejoin="round" stroke-width="2" /><path d="M 215.31916510600192,499.1701790244287 L 194.50142975718907,498.88136611108143 L 173.68369440837623,500.63873792438716 L 152.8659590595634,499.86565685653244 L 132.04822371075053,500.9727845469089 L 111.2304883619377,499.38525949458574" fill="none" stroke="black" stroke-linecap="round" stroke-linejoin="round" stroke-width="2" /><path d="M 109.18640727296226,500.4691154116812 L 111.84467144727866,480.3933378448837 L 112.63335178964152,460.3175602780862 L 111.50764325309007,440.24178271128875" fill="none" stroke="black" stroke-linecap="round" stroke-linejoin="round" stroke-width="2" /><path d="M 111.615753280259,441.6733342410704 L 132.43348862907186,438.27612909829867 L 153.2512239778847,440.49862635081263 L 174.06895932669752,437.54465811470925 L 194.8866946755104,439.85393984195474 L 215.70443002432322,439.32126162693265" fill="none" stroke="black" stroke-linecap="round" stroke-linejoin="round" stroke-width="2" /><path d="M 216.23085846538783,440.02604933094875 L 215.37460670313084,460.1018268977462 L 215.8079209887956,480.1776044645437 L 215.51669941390983,500.2533820313412" fill="none" stroke="black" stroke-linecap="round" stroke-linejoin="round" stroke-width="2" /><path d="M 215.70443002432322,500.71720973527795 L 194.88669467551037,497.25385820045506 L 174.06895932669752,500.0994006479041 L 153.2512239778847,499.84054530590146 L 132.43348862907183,500.5513991319493 L 111.615753280259,501.23663984337645" fill="none" stroke="black" stroke-linecap="round" stroke-linejoin="round" stroke-width="2" /><path d="M 111.14778351386467,500.2533820313412 L 113.02948979371908,480.1776044645437 L 110.71803734818684,460.1018268977462 L 111.89528389729293,440.02604933094875" fill="none" stroke="black" stroke-linecap="round" stroke-linejoin="round" stroke-width="2" /><text dominant-baseline="middle" fill="black" font-family="Virgil, Comic Sans MS, cursive" font-size="16px" text-anchor="middle" x="163.19999999999993" y="470.0">Evaluate</text><path d="M 163.44923105654286,519.268922234141 L 183.60025839961742,527.3903531389 L 204.3417776209679,533.7796745340497 L 224.65213203824618,541.4337460211444 L 244.78481031827175,549.6090008441806 L 266.0358811096457,554.5036376339283 L 286.3903142519857,562.0284115275084" fill="none" stroke="black" stroke-linecap="round" stroke-linejoin="round" stroke-width="2" /><path d="M 286.4136486713026,562.0400361024876 L 265.77638150321087,568.7351635205297 L 244.95953137199626,574.9035142467446 L 224.42453629488756,581.898639798337 L 204.23339492051815,589.9024028779644 L 183.92180464692638,597.5528491865397 L 163.15566403606326,603.8699478391189" fill="none" stroke="black" stroke-linecap="round" stroke-linejoin="round" stroke-width="2" /><path d="M 163.6606609940415,602.6487277508115 L 142.6195123076602,597.1383194530856 L 122.1275815757642,590.0168718222028 L 102.19358759914442,581.2588097091764 L 80.84951275526853,576.6369848067678 L 60.226102826363615,569.9012094871111 L 40.07835363076094,561.7701626831013" fill="none" stroke="black" stroke-linecap="round" stroke-linejoin="round" stroke-width="2" /><path d="M 39.61879542944488,560.8817999263716 L 60.43570737139582,554.71363051165 L 81.71114402521228,549.8904669184004 L 101.46870690672179,540.6148735930507 L 122.18894896144594,534.163139175797 L 143.21121548268783,528.5973431936621 L 163.3033818800237,520.3032535147362" fill="none" stroke="black" stroke-linecap="round" stroke-linejoin="round" stroke-width="2" /><path d="M 163.4093696577055,519.1425866697214 L 184.21722748618632,525.4336308162272 L 203.60666557775173,535.9161142059879 L 224.9505684833288,540.6231417784005 L 245.69797716846318,547.0928135236693 L 265.920115857609,555.1146614105918 L 286.25242262332637,562.8109619383808" fill="none" stroke="black" stroke-linecap="round" stroke-linejoin="round" stroke-width="2" /><path d="M 286.5158547480514,562.0637230871885 L 265.5759074077653,567.9644418955775 L 245.54673835237946,576.5565162638777 L 224.76361165856713,582.920641068867 L 203.36171514133773,587.4562971541156 L 183.4873980035268,596.5059599127386 L 163.70297330820875,605.821255404276" fill="none" stroke="black" stroke-linecap="round" stroke-linejoin="round" stroke-width="2" /><path d="M 162.91439533431222,604.1785581700902 L 142.83220595299412,595.7431591983731 L 121.83489262783796,590.0119572360591 L 100.75446863157589,584.5263478295594 L 80.5708011472812,576.3908172903502 L 60.674730683691294,567.4054357462143 L 39.3964075087312,562.5046196573871" fill="none" stroke="black" stroke-linecap="round" stroke-linejoin="round" stroke-width="2" /><path d="M 39.89709715398771,563.0711628335033 L 60.61864900795012,556.5250839895035 L 81.43181995007647,550.2497401272354 L 101.47244374113212,541.69151457488 L 122.025918453999,534.6487667218787 L 142.20224925528152,526.4915562382268 L 162.3249262429422,518.1757983978852" fill="none" stroke="black" stroke-linecap="round" stroke-linejoin="round" stroke-width="2" /><path d="M 162.66081916134033,521.4918475466013 L 183.62832813628322,527.3471917002557 L 204.4775835670591,533.5495094780708 L 225.04125419816918,540.5897758657417 L 245.25918919417072,548.6444824307464 L 265.6471027682624,556.2004463687534 L 286.688105378943,561.84014917885" fill="none" stroke="black" stroke-linecap="round" stroke-linejoin="round" stroke-width="2" /><path d="M 286.85399198638805,563.1806105028264 L 265.5616816394411,568.0829387450298 L 245.47208138604134,576.5141986815207 L 224.9075433757515,583.5519200486627 L 203.96941747940244,589.4934785592778 L 184.1053541497448,598.5864976368085 L 163.88242711642232,606.6265568160337" fill="none" stroke="black" stroke-linecap="round" stroke-linejoin="round" stroke-width="2" /><path d="M 162.93774138073536,604.8198175443713 L 141.8997341928024,599.1713257149353 L 121.89544920732274,590.489737994064 L 101.13262523485542,584.0338173619575 L 80.86857331546723,576.1144247628499 L 60.1916955505969,569.4063250747763 L 39.884488840044185,561.6135551016181" fill="none" stroke="black" stroke-linecap="round" stroke-linejoin="round" stroke-width="2" /><path d="M 39.27626691164294,561.1358541011499 L 59.841381678677145,554.0998250247486 L 81.02033798741638,548.8648990432788 L 101.22861676511715,540.7818596863642 L 121.68309527957088,533.4212072611085 L 142.6273743225308,527.4977030049733 L 163.4144718704417,521.1130046816977" fill="none" stroke="black" stroke-linecap="round" stroke-linejoin="round" stroke-width="2" /><text dominant-baseline="middle" fill="black" font-family="Virgil, Comic Sans MS, cursive" font-size="16px" text-anchor="middle" x="163.2" y="562.0">Performance Good?</text><path d="M 286.4,622.4698619999884 L 307.21433328388827,622.740816950858 L 328.02866656777655,622.9644450139067 L 348.84299985166484,624.0172001724178 L 369.65733313555313,624.7677939436137 L 390.47166641944136,624.4402496756165 L 411.28599970332965,623.3218971816173 L 432.10033298721794,624.4295567195909 L 452.9146662711063,622.5721480425966 L 473.7289995549945,623.3638446947969 L 494.5433328388828,625.9005876690316" fill="none" stroke="black" stroke-linecap="round" stroke-linejoin="round" stroke-width="2" /><path d="M 493.42298671147984,624.0 L 493.78067875667915,653.9856527159889 L 494.5006953332081,683.9713054319777" fill="none" stroke="black" stroke-linecap="round" stroke-linejoin="round" stroke-width="2" /><path d="M 494.5433328388828,685.1985520427659 L 473.7289995549945,684.1107477194413 L 452.9146662711062,683.1992365998275 L 432.10033298721794,685.4223870992118 L 411.28599970332965,684.18588235024 L 390.47166641944136,683.9787994928348 L 369.65733313555313,682.5103608995754 L 348.84299985166484,684.1890213502728 L 328.02866656777655,684.144746369862 L 307.21433328388827,684.2078939501184 L 286.4,682.5854675661244" fill="none" stroke="black" stroke-linecap="round" stroke-linejoin="round" stroke-width="2" /><path d="M 288.0116123003876,683.9713054319777 L 287.17052344755865,653.9856527159889 L 286.8527539414369,624.0" fill="none" stroke="black" stroke-linecap="round" stroke-linejoin="round" stroke-width="2" /><path d="M 286.4100846093007,623.3078093892624 L 307.224417893189,623.3586857945722 L 328.0387511770773,624.2768683625527 L 348.8530844609656,622.7582317603043 L 369.6674177448539,624.6718411008859 L 390.4817510287421,624.4725359809878 L 411.2960843126304,623.8356153229965 L 432.1104175965187,622.8389076290865 L 452.92475088040703,624.29807475231 L 473.73908416429526,623.2162791115697 L 494.55341744818355,624.0896189638222" fill="none" stroke="black" stroke-linecap="round" stroke-linejoin="round" stroke-width="2" /><path d="M 494.98837121214626,624.0649677321888 L 495.4544284232169,654.0506204481777 L 494.3210036385797,684.0362731641666" fill="none" stroke="black" stroke-linecap="round" stroke-linejoin="round" stroke-width="2" /><path d="M 494.55341744818355,687.0149647429643 L 473.73908416429526,682.679322878325 L 452.924750880407,684.8990598047561 L 432.1104175965187,685.694829477426 L 411.2960843126304,682.9903533752705 L 390.4817510287421,682.1236088371996 L 369.6674177448539,683.8393466314787 L 348.8530844609656,684.7126200531935 L 328.0387511770773,685.1883251583756 L 307.224417893189,685.1505077847698 L 286.4100846093007,684.4656876569169" fill="none" stroke="black" stroke-linecap="round" stroke-linejoin="round" stroke-width="2" /><path d="M 287.94138664614866,684.0362731641666 L 286.9923571041482,654.0506204481777 L 285.8731750584238,624.0649677321888" fill="none" stroke="black" stroke-linecap="round" stroke-linejoin="round" stroke-width="2" /><path d="M 286.1927269095055,622.4807068256523 L 307.0070601933938,622.2476888722128 L 327.8213934772821,623.7093075214879 L 348.63572676117036,624.8230321807002 L 369.45006004505865,624.8121475392288 L 390.2643933289469,623.1448679045034 L 411.07872661283517,624.7198678597634 L 431.89305989672346,624.459558350919 L 452.7073931806118,623.3050716591115 L 473.52172646450003,623.2947817561629 L 494.3360597483883,624.2470429041947" fill="none" stroke="black" stroke-linecap="round" stroke-linejoin="round" stroke-width="2" /><path d="M 494.48947103455765,623.9992872704152 L 493.56066576062886,653.984939986404 L 493.2809532082379,683.9705927023929" fill="none" stroke="black" stroke-linecap="round" stroke-linejoin="round" stroke-width="2" /><path d="M 494.3360597483883,683.292943284479 L 473.52172646450003,683.599516275115 L 452.70739318061175,683.2123610254863 L 431.89305989672346,685.9988607043783 L 411.07872661283517,684.8662708589666 L 390.2643933289469,685.245232178547 L 369.45006004505865,682.208558771729 L 348.63572676117036,684.7188495356178 L 327.8213934772821,681.5798449697937 L 307.0070601933938,683.7385731852455 L 286.1927269095055,683.6499439316435" fill="none" stroke="black" stroke-linecap="round" stroke-linejoin="round" stroke-width="2" /><path d="M 285.1084782708817,683.9705927023929 L 286.64063246802783,653.984939986404 L 285.84271158054986,623.9992872704152" fill="none" stroke="black" stroke-linecap="round" stroke-linejoin="round" stroke-width="2" /><text dominant-baseline="middle" fill="black" font-family="Virgil, Comic Sans MS, cursive" font-size="16px" text-anchor="middle" x="390.4" y="654.0">Hyperparameter Tuning</text><path d="M 95.19999999999993,623.3043465896673 L 117.85786425921788,623.5376629936379 L 140.51572851843582,623.9730806096364 L 163.17359277765377,624.7372793085447 L 185.8314570368717,623.7446607113844 L 208.48932129608968,623.8148718642783 L 231.14718555530763,625.8146038354063" fill="none" stroke="black" stroke-linecap="round" stroke-linejoin="round" stroke-width="2" /><path d="M 230.04793807551363,624.0 L 231.32694321198932,653.8075702039681 L 232.0533573879534,683.6151404079362" fill="none" stroke="black" stroke-linecap="round" stroke-linejoin="round" stroke-width="2" /><path d="M 231.14718555530763,683.8823554951128 L 208.48932129608968,684.7062155047056 L 185.83145703687174,683.4118504147243 L 163.17359277765377,683.3414627328841 L 140.51572851843582,684.2860262172018 L 117.85786425921788,683.7594636353655 L 95.19999999999993,683.24784322718" fill="none" stroke="black" stroke-linecap="round" stroke-linejoin="round" stroke-width="2" /><path d="M 96.49308966657946,683.6151404079362 L 97.19395675815544,653.8075702039681 L 95.5228485377077,624.0" fill="none" stroke="black" stroke-linecap="round" stroke-linejoin="round" stroke-width="2" /><path d="M 95.25616982233178,624.3526712270275 L 117.91403408154974,623.740882845412 L 140.5718983407677,622.3478178320934 L 163.22976259998563,624.8166186303577 L 185.88762685920358,622.7295157555648 L 208.54549111842158,623.3296834354137 L 231.20335537763953,622.6618523942741" fill="none" stroke="black" stroke-linecap="round" stroke-linejoin="round" stroke-width="2" /><path d="M 231.092745606981,624.024216624151 L 231.76511603287048,653.8317868281191 L 232.26280103367597,683.6393570320872" fill="none" stroke="black" stroke-linecap="round" stroke-linejoin="round" stroke-width="2" /><path d="M 231.2033553776395,682.3229364873127 L 208.54549111842155,683.5882657278728 L 185.88762685920358,684.8007739142431 L 163.22976259998563,682.9050879384761 L 140.5718983407677,684.6975255260901 L 117.91403408154972,683.3723835507678 L 95.25616982233177,682.9699482730225" fill="none" stroke="black" stroke-linecap="round" stroke-linejoin="round" stroke-width="2" /><path d="M 95.74548969391505,683.6393570320872 L 91.95992210887975,653.8317868281191 L 96.13568166945541,624.024216624151" fill="none" stroke="black" stroke-linecap="round" stroke-linejoin="round" stroke-width="2" /><path d="M 95.13480772969673,624.3037983740562 L 117.79267198891468,623.8297164687366 L 140.4505362481326,623.6089225815783 L 163.10840050735055,623.3737556954657 L 185.7662647665685,623.8678183376124 L 208.42412902578644,624.8262245176455 L 231.0819932850044,623.7305236727667" fill="none" stroke="black" stroke-linecap="round" stroke-linejoin="round" stroke-width="2" /><path d="M 229.47974677711633,623.9702688030529 L 230.00673861125185,653.777839007021 L 230.34004841389142,683.5854092109892" fill="none" stroke="black" stroke-linecap="round" stroke-linejoin="round" stroke-width="2" /><path d="M 231.08199328500442,685.572455846915 L 208.42412902578647,683.0627094661428 L 185.76626476656853,681.9834249843217 L 163.10840050735058,683.3690148181445 L 140.45053624813264,681.4670160670182 L 117.79267198891469,684.4947032485944 L 95.13480772969675,682.9842292228009" fill="none" stroke="black" stroke-linecap="round" stroke-linejoin="round" stroke-width="2" /><path d="M 94.13390977683072,683.5854092109892 L 95.62303184183267,653.777839007021 L 94.9404040726381,623.9702688030529" fill="none" stroke="black" stroke-linecap="round" stroke-linejoin="round" stroke-width="2" /><text dominant-baseline="middle" fill="black" font-family="Virgil, Comic Sans MS, cursive" font-size="16px" text-anchor="middle" x="163.19999999999993" y="654.0">Deploy Model</text><path d="M 67.19999999999993,702.9569169588721 L 88.54396925205,702.9208310897044 L 109.88793850410009,704.7188155866507 L 131.23190775615018,703.0638029770959 L 152.57587700820025,703.2779577130179 L 173.91984626025035,702.7099796967183 L 195.26381551230043,704.9922805050223 L 216.6077847643505,705.0010158286061 L 237.95175401640057,702.8162911960877 L 259.2957232684507,704.1434484340264" fill="none" stroke="black" stroke-linecap="round" stroke-linejoin="round" stroke-width="2" /><path d="M 257.70524296963487,704.0 L 260.4469336551726,724.0302340118457 L 257.6755984494809,744.0604680236914 L 258.7523233423258,764.0907020355371" fill="none" stroke="black" stroke-linecap="round" stroke-linejoin="round" stroke-width="2" /><path d="M 259.2957232684507,764.0401386279713 L 237.9517540164006,764.5445200270647 L 216.60778476435053,763.166887448034 L 195.26381551230043,765.3569290889117 L 173.91984626025035,766.4847140064396 L 152.57587700820025,763.2069166422497 L 131.23190775615018,763.0794806545937 L 109.8879385041001,764.3034407566207 L 88.54396925205003,763.1433799178183 L 67.19999999999993,764.1624127308595" fill="none" stroke="black" stroke-linecap="round" stroke-linejoin="round" stroke-width="2" /><path d="M 65.59338007740294,764.0907020355371 L 68.73333373509088,744.0604680236914 L 66.16310733920666,724.0302340118457 L 66.5936545856856,704.0" fill="none" stroke="black" stroke-linecap="round" stroke-linejoin="round" stroke-width="2" /><path d="M 67.35898082243182,704.3154378956181 L 88.70295007448189,703.9219828768887 L 110.04691932653198,702.597001968291 L 131.39088857858206,705.8323240778918 L 152.73485783063214,704.3736654984293 L 174.07882708268224,704.2784354854324 L 195.4227963347323,703.084997651629 L 216.76676558678238,704.8440088769153 L 238.11073483883246,704.0353049218671 L 259.45470409088256,702.9947403271912" fill="none" stroke="black" stroke-linecap="round" stroke-linejoin="round" stroke-width="2" /><path d="M 261.4245550440966,703.9746750189696 L 260.2742572821578,724.0049090308153 L 259.96138306417384,744.035143042661 L 259.7940428279982,764.0653770545067" fill="none" stroke="black" stroke-linecap="round" stroke-linejoin="round" stroke-width="2" /><path d="M 259.45470409088256,763.9951721844386 L 238.11073483883249,762.6069766715873 L 216.7667655867824,765.056822249359 L 195.4227963347323,764.2558156606547 L 174.07882708268224,762.6472452743509 L 152.73485783063214,764.7243955810156 L 131.39088857858206,764.3554608663784 L 110.04691932653199,762.8779982104376 L 88.70295007448192,763.266912345048 L 67.35898082243182,763.0042059621902" fill="none" stroke="black" stroke-linecap="round" stroke-linejoin="round" stroke-width="2" /><path d="M 67.78285411205447,764.0653770545067 L 66.23152376974524,744.035143042661 L 67.85515167901947,724.0049090308153 L 67.40932359223409,703.9746750189696" fill="none" stroke="black" stroke-linecap="round" stroke-linejoin="round" stroke-width="2" /><path d="M 67.11394406178535,704.5127670406472 L 88.45791331383543,703.0600521731546 L 109.8018825658855,702.8607607366847 L 131.14585181793558,704.2358458123798 L 152.48982106998568,703.3186253052805 L 173.83379032203578,703.9084084521373 L 195.17775957408583,701.7596665434594 L 216.52172882613593,702.1188739683334 L 237.86569807818597,702.7071419364885 L 259.2096673302361,702.7895330376157" fill="none" stroke="black" stroke-linecap="round" stroke-linejoin="round" stroke-width="2" /><path d="M 257.53573485516733,703.9066818834256 L 258.92177855835735,723.9369158952712 L 259.9090450237333,743.967149907117 L 259.07551277789327,763.9973839189627" fill="none" stroke="black" stroke-linecap="round" stroke-linejoin="round" stroke-width="2" /><path d="M 259.2096673302361,766.5172798601144 L 237.865698078186,763.7514610121912 L 216.52172882613593,762.7283341017786 L 195.17775957408583,764.172055731015 L 173.83379032203575,763.1558127824168 L 152.48982106998565,764.4872881303816 L 131.14585181793558,766.1083971737887 L 109.8018825658855,764.1153413424446 L 88.45791331383543,764.1995502764557 L 67.11394406178533,765.8148114905539" fill="none" stroke="black" stroke-linecap="round" stroke-linejoin="round" stroke-width="2" /><path d="M 67.800299413835,763.9973839189627 L 65.15231066037951,743.967149907117 L 67.87879179267775,723.9369158952712 L 67.3162843515245,703.9066818834256" fill="none" stroke="black" stroke-linecap="round" stroke-linejoin="round" stroke-width="2" /><text dominant-baseline="middle" fill="black" font-family="Virgil, Comic Sans MS, cursive" font-size="16px" text-anchor="middle" x="163.19999999999993" y="734.0">Monitor Performance</text><path d="M 162.85752489395293,784.9132669494587 L 185.8916792850405,791.6221885732251 L 208.2768720717469,800.0616744753413 L 230.5153186274148,808.892483660227 L 253.05851811964078,816.9106183476246 L 274.5930923682636,827.6184203512968" fill="none" stroke="black" stroke-linecap="round" stroke-linejoin="round" stroke-width="2" /><path d="M 274.48353293488066,824.0894211596819 L 253.30169003472176,835.7378400925915 L 230.5954212032859,843.3211232087625 L 207.77820299159674,850.6085413109248 L 185.52106017664897,859.3894938043976 L 163.48858938473637,868.7695716926305" fill="none" stroke="black" stroke-linecap="round" stroke-linejoin="round" stroke-width="2" /><path d="M 163.17909013322236,868.0557596447402 L 140.55736343381895,860.2470308431492 L 117.7959151756388,852.8108928649631 L 95.96197289147482,842.9014056227336 L 73.69747871056232,834.1400567718335 L 51.23401626441985,825.9092899615468" fill="none" stroke="black" stroke-linecap="round" stroke-linejoin="round" stroke-width="2" /><path d="M 51.55290227207408,826.9410727255311 L 73.61561413178651,817.6416376847642 L 96.54599533842708,810.655987569139 L 118.75794090749582,801.7545090866556 L 141.03696767597677,793.0319138026049 L 162.9283470585923,783.2755921562463" fill="none" stroke="black" stroke-linecap="round" stroke-linejoin="round" stroke-width="2" /><path d="M 163.32461373698504,783.7923364431698 L 185.45986924001394,793.1211065837144 L 207.4725178097869,802.7786921585239 L 230.5856976959868,809.4847995981003 L 253.38567338121496,817.0308789105648 L 276.2507885412098,824.4022628439477" fill="none" stroke="black" stroke-linecap="round" stroke-linejoin="round" stroke-width="2" /><path d="M 275.29798738397284,824.9547886812699 L 252.93667461567526,833.6773034015532 L 230.42212943179874,841.9888692306606 L 208.235458274074,851.1797494462406 L 185.86448037604396,859.876343578301 L 162.93463820505372,867.0741383053975" fill="none" stroke="black" stroke-linecap="round" stroke-linejoin="round" stroke-width="2" /><path d="M 162.67773934819607,869.37622556081 L 140.59880881456408,859.8963993683736 L 118.17904799772417,851.3306345149452 L 95.34450413953029,843.8772624295813 L 73.32286696472636,834.2437830940212 L 51.25467002074981,824.7351708464242" fill="none" stroke="black" stroke-linecap="round" stroke-linejoin="round" stroke-width="2" /><path d="M 50.817062941309494,826.0035624477003 L 73.63303158422167,818.5003741136364 L 96.02787964560558,809.867796574445 L 118.23819675592361,800.7403316483931 L 140.63831225715947,792.121880679995 L 163.43211395488828,784.5592435569171" fill="none" stroke="black" stroke-linecap="round" stroke-linejoin="round" stroke-width="2" /><path d="M 162.5662431021973,785.8143058559655 L 185.60382399700225,792.5832103640081 L 207.9100664487186,801.3076264519087 L 230.27370118611475,809.8785824280076 L 253.2167297391292,816.9003085961467 L 274.99302131674756,827.0417499763015" fill="none" stroke="black" stroke-linecap="round" stroke-linejoin="round" stroke-width="2" /><path d="M 274.8619518765869,825.1112854554189 L 252.46570517733147,833.5950409436172 L 230.73980848304723,843.8712322181018 L 208.07185229806208,851.6284690189223 L 185.52644012451893,859.71337385864 L 163.54683120376072,869.3111689657823" fill="none" stroke="black" stroke-linecap="round" stroke-linejoin="round" stroke-width="2" /><path d="M 163.69626965193743,866.6843933147952 L 141.1498542856751,858.6021708924969 L 118.1659611278566,851.6897117930532 L 95.53564401135992,843.8318326220964 L 73.65624605709024,833.9660853687911 L 50.84784740440339,826.5843749395021" fill="none" stroke="black" stroke-linecap="round" stroke-linejoin="round" stroke-width="2" /><path d="M 50.98289578453616,826.2802277345919 L 73.88744320491949,819.155607617451 L 95.55946474253088,808.7353606137262 L 118.62117945106289,802.0309870388724 L 140.42984676334385,791.9761145033302 L 162.6673700407976,783.0679515574617" fill="none" stroke="black" stroke-linecap="round" stroke-linejoin="round" stroke-width="2" /><text dominant-baseline="middle" fill="black" font-family="Virgil, Comic Sans MS, cursive" font-size="16px" text-anchor="middle" x="163.19999999999993" y="826.0">Drift Detected?</text><path d="M 308.79999999999995,887.9373812650264 L 329.3633880102587,889.21465903074 L 349.9267760205174,888.605272578921 L 370.4901640307761,887.9815302905796 L 391.05355204103483,886.5748705065572 L 411.61694005129357,889.9264887017782 L 432.1803280615523,889.1093305430607 L 452.74371607181104,889.1507708415082" fill="none" stroke="black" stroke-linecap="round" stroke-linejoin="round" stroke-width="2" /><path d="M 452.86738973095754,888.0 L 452.75092503394535,917.7202244521059 L 452.3377007649464,947.4404489042116" fill="none" stroke="black" stroke-linecap="round" stroke-linejoin="round" stroke-width="2" /><path d="M 452.74371607181104,948.1001685329255 L 432.1803280615523,948.2971861452722 L 411.61694005129357,947.3446498466832 L 391.0535520410349,946.5887682854398 L 370.49016403077616,946.8373517299364 L 349.9267760205174,944.0271232366653 L 329.3633880102587,946.8371275250381 L 308.79999999999995,947.8206401976549" fill="none" stroke="black" stroke-linecap="round" stroke-linejoin="round" stroke-width="2" /><path d="M 308.85998869132607,947.4404489042116 L 309.65953203836034,917.7202244521059 L 307.01257098563,888.0" fill="none" stroke="black" stroke-linecap="round" stroke-linejoin="round" stroke-width="2" /><path d="M 308.61399815892804,887.5142754838902 L 329.1773861691868,887.3490019763134 L 349.7407741794455,888.4725310607047 L 370.30416218970424,886.738530204989 L 390.8675501999629,888.4512989058578 L 411.43093821022165,888.0932129275595 L 431.9943262204804,887.6374978881247 L 452.5577142307391,887.3566973944228" fill="none" stroke="black" stroke-linecap="round" stroke-linejoin="round" stroke-width="2" /><path d="M 452.5899701082242,887.9259850178811 L 452.3323036313882,917.6462094699868 L 453.95484535991744,947.3664339220927" fill="none" stroke="black" stroke-linecap="round" stroke-linejoin="round" stroke-width="2" /><path d="M 452.5577142307391,947.3241176217681 L 431.9943262204804,947.8465890022807 L 411.43093821022165,948.3350969625907 L 390.8675501999629,947.3517870295933 L 370.30416218970424,947.7423076377148 L 349.7407741794455,948.5338420736673 L 329.1773861691868,947.3030391753703 L 308.61399815892804,947.4961203268755" fill="none" stroke="black" stroke-linecap="round" stroke-linejoin="round" stroke-width="2" /><path d="M 308.9625178323347,947.3664339220927 L 309.72163111802905,917.6462094699868 L 307.02244376076646,887.9259850178811" fill="none" stroke="black" stroke-linecap="round" stroke-linejoin="round" stroke-width="2" /><path d="M 308.6678272004422,887.2104527461707 L 329.23121521070095,888.1132487507749 L 349.7946032209597,887.8932300512698 L 370.3579912312184,887.1745267731212 L 390.9213792414771,886.8526578651619 L 411.48476725173583,887.3721107372693 L 432.04815526199457,889.102734240474 L 452.6115432722533,889.6904566469739" fill="none" stroke="black" stroke-linecap="round" stroke-linejoin="round" stroke-width="2" /><path d="M 453.3766771507949,888.2354661501759 L 453.2659015024786,917.9556906022817 L 453.1574277930196,947.6759150543875" fill="none" stroke="black" stroke-linecap="round" stroke-linejoin="round" stroke-width="2" /><path d="M 452.6115432722533,947.8124900835446 L 432.04815526199457,948.898849958095 L 411.48476725173583,947.2637653260502 L 390.9213792414771,947.7430998316331 L 370.3579912312184,948.6370487926711 L 349.7946032209597,950.4969657064288 L 329.23121521070095,946.0386884506081 L 308.6678272004422,948.7388639317378" fill="none" stroke="black" stroke-linecap="round" stroke-linejoin="round" stroke-width="2" /><path d="M 307.55649186481855,947.6759150543875 L 308.10114688358135,917.9556906022817 L 309.66051565531296,888.2354661501759" fill="none" stroke="black" stroke-linecap="round" stroke-linejoin="round" stroke-width="2" /><text dominant-baseline="middle" fill="black" font-family="Virgil, Comic Sans MS, cursive" font-size="16px" text-anchor="middle" x="380.79999999999995" y="918.0">Retrain Model</text></g></svg>