<?xml version="1.0" encoding="utf-8" ?>
<svg baseProfile="full" height="620.0px" version="1.1" viewBox="0 0 528.0 620.0" width="528.0px" xmlns="http://www.w3.org/2000/svg" xmlns:ev="http://www.w3.org/2001/xml-events" xmlns:xlink="http://www.w3.org/1999/xlink"><defs /><rect fill="white" height="620.0" width="528.0" x="0" y="0" /><g><path d="M 261.5550932246569,100.0 L 263.81473013922465,110.0 L 264.63009338853044,120.0" fill="none" stroke="black" stroke-linecap="round" stroke-linejoin="round" stroke-width="2" /><path d="M 260.92623875878155,112.90905782834976 L 261.91865719670557,116.90348137438966 L 264.63009338853044,120.0" fill="none" stroke="black" stroke-linecap="round" stroke-linejoin="round" stroke-width="2" /><path d="M 267.13632357458744,112.40271033496177 L 266.71193920497586,116.47474081508865 L 264.63009338853044,120.0" fill="none" stroke="black" stroke-linecap="round" stroke-linejoin="round" stroke-width="2" /><path d="M 264.8157054328121,180.0 L 263.5521404372778,190.0 L 261.6489445912184,200.0" fill="none" stroke="black" stroke-linecap="round" stroke-linejoin="round" stroke-width="2" /><path d="M 259.96617066684627,192.17898523723085 L 259.7943750932736,196.3074895414598 L 261.6489445912184,200.0" fill="none" stroke="black" stroke-linecap="round" stroke-linejoin="round" stroke-width="2" /><path d="M 266.0869972848814,193.34389841662025 L 262.58928337541676,195.8193656486079 L 261.6489445912184,200.0" fill="none" stroke="black" stroke-linecap="round" stroke-linejoin="round" stroke-width="2" /><path d="M 262.9274327779763,260.0 L 263.03299580579704,270.0 L 263.29612600542197,280.0" fill="none" stroke="black" stroke-linecap="round" stroke-linejoin="round" stroke-width="2" /><path d="M 259.98803711727044,272.716007419822 L 260.77364618622437,276.7524112251433 L 263.29612600542197,280.0" fill="none" stroke="black" stroke-linecap="round" stroke-linejoin="round" stroke-width="2" /><path d="M 266.2165747253876,272.55211578540246 L 265.1660582076362,276.4367116715368 L 263.29612600542197,280.0" fill="none" stroke="black" stroke-linecap="round" stroke-linejoin="round" stroke-width="2" /><path d="M 192.16456391951533,310.03291278390304 L 187.26812948302808,329.8536258966056 L 182.92354878958182,349.78470975791635 L 179.6307161119122,369.92614322238245 L 176.124679584715,390.024935916943" fill="none" stroke="black" stroke-linecap="round" stroke-linejoin="round" stroke-width="2" /><path d="M 173.3655459638358,378.0958478493414 L 173.87818215136295,384.260908252465 L 176.124679584715,390.024935916943" fill="none" stroke="black" stroke-linecap="round" stroke-linejoin="round" stroke-width="2" /><path d="M 182.75977666323396,379.73457891530836 L 178.44184688523956,384.2347237566054 L 176.124679584715,390.024935916943" fill="none" stroke="black" stroke-linecap="round" stroke-linejoin="round" stroke-width="2" /><path d="M 265.1686864461445,340.0 L 264.458913857909,350.0 L 264.9120952795773,360.0" fill="none" stroke="black" stroke-linecap="round" stroke-linejoin="round" stroke-width="2" /><path d="M 261.46635885476,352.780103844882 L 261.45225953413745,357.21902953772815 L 264.9120952795773,360.0" fill="none" stroke="black" stroke-linecap="round" stroke-linejoin="round" stroke-width="2" /><path d="M 267.6906640763011,352.4980298959625 L 267.25837358516446,356.60346496209684 L 264.9120952795773,360.0" fill="none" stroke="black" stroke-linecap="round" stroke-linejoin="round" stroke-width="2" /><path d="M 336.39924635273746,309.92015072945253 L 339.4966669521662,330.10066660956676 L 344.85460322302816,349.82907935539436 L 347.7139434534853,370.05721130930294 L 352.4051207346102,389.91897585307794" fill="none" stroke="black" stroke-linecap="round" stroke-linejoin="round" stroke-width="2" /><path d="M 345.1661827691805,380.0309496355425 L 349.2337006955987,384.6469500107686 L 352.4051207346102,389.91897585307794" fill="none" stroke="black" stroke-linecap="round" stroke-linejoin="round" stroke-width="2" /><path d="M 354.4549399196706,377.8370254039756 L 351.7883081902878,383.59946666608124 L 352.4051207346102,389.91897585307794" fill="none" stroke="black" stroke-linecap="round" stroke-linejoin="round" stroke-width="2" /><path d="M 175.25972721757108,389.9629863608786 L 174.61536711833247,409.9807683559166 L 171.6162062761209,429.880810313806 L 172.5267762490615,449.9763388124531 L 171.08393509011015,469.9541967545055" fill="none" stroke="black" stroke-linecap="round" stroke-linejoin="round" stroke-width="2" /><path d="M 167.20478888565367,458.551104291361 L 169.3818362768789,464.17186564025377 L 171.08393509011015,469.9541967545055" fill="none" stroke="black" stroke-linecap="round" stroke-linejoin="round" stroke-width="2" /><path d="M 176.5613857364539,459.22685657087 L 173.23977118280322,464.29289957735455 L 171.08393509011015,469.9541967545055" fill="none" stroke="black" stroke-linecap="round" stroke-linejoin="round" stroke-width="2" /><path d="M 263.02974673873223,419.6118986954929 L 257.2950996924866,428.9180398769946 L 254.65475484322397,439.4619019372896" fill="none" stroke="black" stroke-linecap="round" stroke-linejoin="round" stroke-width="2" /><path d="M 253.42263499002715,431.5573538371539 L 252.9721640048836,435.67587317964814 L 254.65475484322397,439.4619019372896" fill="none" stroke="black" stroke-linecap="round" stroke-linejoin="round" stroke-width="2" /><path d="M 259.46670440022245,433.07088156015874 L 256.0923220795371,435.5372549335309 L 254.65475484322397,439.4619019372896" fill="none" stroke="black" stroke-linecap="round" stroke-linejoin="round" stroke-width="2" /><path d="M 352.7666300488748,390.11499450733123 L 348.88093875744994,409.9821408136175 L 346.60047035773147,430.0900705536597 L 342.98937073875965,449.99840561081396 L 336.8827123362049,469.53240685043073" fill="none" stroke="black" stroke-linecap="round" stroke-linejoin="round" stroke-width="2" /><path d="M 335.70329174966184,457.4126790304372 L 336.048806400193,463.4963066232881 L 336.8827123362049,469.53240685043073" fill="none" stroke="black" stroke-linecap="round" stroke-linejoin="round" stroke-width="2" /><path d="M 344.75516267213493,460.24244662129075 L 341.9176159807006,465.8184632019279 L 336.8827123362049,469.53240685043073" fill="none" stroke="black" stroke-linecap="round" stroke-linejoin="round" stroke-width="2" /><path d="M 171.9856711683315,469.98509801506475 L 156.13447905260273,488.1931915480402 L 137.04345175125886,503.03185648797586 L 120.71092411659923,520.7393610812632" fill="none" stroke="black" stroke-linecap="round" stroke-linejoin="round" stroke-width="2" /><path d="M 124.38454115624035,510.51792505201837 L 122.80586723401694,515.7214174726577 L 120.71092411659923,520.7393610812632" fill="none" stroke="black" stroke-linecap="round" stroke-linejoin="round" stroke-width="2" /><path d="M 130.60276714900783,516.2533095795443 L 125.58330271051771,518.3341715560651 L 120.71092411659923,520.7393610812632" fill="none" stroke="black" stroke-linecap="round" stroke-linejoin="round" stroke-width="2" /><path d="M 255.6189813357127,500.0 L 255.87898829871932,510.0 L 256.13920977594535,520.0" fill="none" stroke="black" stroke-linecap="round" stroke-linejoin="round" stroke-width="2" /><path d="M 252.8332382889592,512.715046154763 L 254.68767362818858,516.2661036073729 L 256.13920977594535,520.0" fill="none" stroke="black" stroke-linecap="round" stroke-linejoin="round" stroke-width="2" /><path d="M 259.0618232728544,512.5529649962092 L 258.00304459845523,516.4344559709726 L 256.13920977594535,520.0" fill="none" stroke="black" stroke-linecap="round" stroke-linejoin="round" stroke-width="2" /><path d="M 339.7517568889619,470.33761063101184 L 357.6267079663767,481.64767716572766 L 374.0587330710305,494.92012302339856 L 390.9625610643092,507.55091695253947 L 407.88320811569236,520.1588369626585" fill="none" stroke="black" stroke-linecap="round" stroke-linejoin="round" stroke-width="2" /><path d="M 395.57578755372066,517.1421673397641 L 401.3647172912539,520.1387352434347 L 407.88320811569236,520.1588369626585" fill="none" stroke="black" stroke-linecap="round" stroke-linejoin="round" stroke-width="2" /><path d="M 401.47257196362426,509.2282998931118 L 405.5787251741191,514.1652388276758 L 407.88320811569236,520.1588369626585" fill="none" stroke="black" stroke-linecap="round" stroke-linejoin="round" stroke-width="2" /><path d="M 212.0,38.22589847092466 L 232.8192704611547,40.66625670885188 L 253.63854092230943,40.4606158767527 L 274.4578113834641,40.27427150496216 L 295.27708184461886,38.07553878638592 L 316.09635230577356,40.522384904436436" fill="none" stroke="black" stroke-linecap="round" stroke-linejoin="round" stroke-width="2" /><path d="M 314.840984696569,40.0 L 316.8549863140606,60.019988962272734 L 315.9607439042337,80.03997792454547 L 316.17635960339845,100.05996688681822" fill="none" stroke="black" stroke-linecap="round" stroke-linejoin="round" stroke-width="2" /><path d="M 316.09635230577356,98.70386221630014 L 295.27708184461886,102.69949821749084 L 274.4578113834641,100.58195231302894 L 253.63854092230943,100.72873501576187 L 232.8192704611547,99.47259635226646 L 212.0,101.04438829242953" fill="none" stroke="black" stroke-linecap="round" stroke-linejoin="round" stroke-width="2" /><path d="M 210.93807395476952,100.05996688681822 L 211.91641114674096,80.03997792454548 L 211.3024323053011,60.01998896227274 L 211.09593668993352,40.0" fill="none" stroke="black" stroke-linecap="round" stroke-linejoin="round" stroke-width="2" /><path d="M 211.92505477064392,40.27457382729462 L 232.74432523179863,40.658192849837654 L 253.56359569295336,39.75900771338684 L 274.38286615410806,40.35899718449729 L 295.20213661526276,40.99752000340075 L 316.02140707641746,39.57084188764289" fill="none" stroke="black" stroke-linecap="round" stroke-linejoin="round" stroke-width="2" /><path d="M 315.4204667223081,39.700353351441834 L 317.31001535469716,59.72034231371457 L 316.88930667147315,79.7403312759873 L 319.98017476427486,99.76032023826005" fill="none" stroke="black" stroke-linecap="round" stroke-linejoin="round" stroke-width="2" /><path d="M 316.02140707641746,98.09759355230082 L 295.20213661526276,97.91157026051725 L 274.38286615410806,99.44078563725611 L 253.56359569295336,99.36496067880762 L 232.74432523179863,100.249537850259 L 211.92505477064392,99.14909924483368" fill="none" stroke="black" stroke-linecap="round" stroke-linejoin="round" stroke-width="2" /><path d="M 212.06199328886618,99.76032023826005 L 211.75491054944627,79.74033127598732 L 211.93742269412758,59.720342313714575 L 212.5353904912281,39.700353351441834" fill="none" stroke="black" stroke-linecap="round" stroke-linejoin="round" stroke-width="2" /><path d="M 212.12910573634187,39.670231067737376 L 232.9483761974966,40.3507681727868 L 253.7676466586513,38.55793837170087 L 274.586917119806,39.97925750182767 L 295.40618758096076,38.81542603209316 L 316.22545804211546,42.43828492554515" fill="none" stroke="black" stroke-linecap="round" stroke-linejoin="round" stroke-width="2" /><path d="M 316.03158500377583,40.02539502014019 L 317.4684778667345,60.04538398241293 L 314.91480280628605,80.06537294468566 L 316.2895474399849,100.08536190695841" fill="none" stroke="black" stroke-linecap="round" stroke-linejoin="round" stroke-width="2" /><path d="M 316.22545804211546,98.90058932137403 L 295.40618758096076,100.56173985626305 L 274.586917119806,100.62337235711585 L 253.7676466586513,99.24484611075644 L 232.9483761974966,98.81485192199263 L 212.12910573634187,100.21827879312515" fill="none" stroke="black" stroke-linecap="round" stroke-linejoin="round" stroke-width="2" /><path d="M 211.52226215513497,100.08536190695841 L 211.9110412230393,80.06537294468566 L 212.69352588493123,60.04538398241293 L 211.3831712207216,40.02539502014019" fill="none" stroke="black" stroke-linecap="round" stroke-linejoin="round" stroke-width="2" /><text dominant-baseline="middle" fill="black" font-family="Virgil, Comic Sans MS, cursive" font-size="16px" text-anchor="middle" x="264.0" y="70.0">Internet</text><path d="M 212.0,120.76698771477055 L 232.77465130814517,121.0296440506945 L 253.54930261629036,118.90012409345921 L 274.3239539244355,118.12886641707897 L 295.0986052325807,117.66769398024277 L 315.8732565407259,119.91449823455271" fill="none" stroke="black" stroke-linecap="round" stroke-linejoin="round" stroke-width="2" /><path d="M 316.4985068230877,120.0 L 314.99573147494175,140.14629345295316 L 315.0579488036752,160.29258690590632 L 315.93845975255215,180.43888035885948" fill="none" stroke="black" stroke-linecap="round" stroke-linejoin="round" stroke-width="2" /><path d="M 315.8732565407259,180.1951288691822 L 295.0986052325807,182.1652586710798 L 274.3239539244355,181.2825243401156 L 253.54930261629036,181.86141495244988 L 232.77465130814517,180.1937002812369 L 212.0,180.54447097702567" fill="none" stroke="black" stroke-linecap="round" stroke-linejoin="round" stroke-width="2" /><path d="M 212.85419986256895,180.43888035885948 L 213.73554242487387,160.29258690590632 L 211.3968222717079,140.14629345295316 L 212.10913618137164,120.0" fill="none" stroke="black" stroke-linecap="round" stroke-linejoin="round" stroke-width="2" /><path d="M 211.56811617335046,119.76088229362591 L 232.34276748149563,119.93538720612086 L 253.11741878964082,118.72779994008359 L 273.892070097786,118.92080278718956 L 294.6667214059312,120.57489807444385 L 315.44137271407635,119.9901898970129" fill="none" stroke="black" stroke-linecap="round" stroke-linejoin="round" stroke-width="2" /><path d="M 314.1690620318523,119.97076410092787 L 314.5962995387799,140.117057553881 L 316.23888491277586,160.26335100683417 L 314.8809502487648,180.40964445978733" fill="none" stroke="black" stroke-linecap="round" stroke-linejoin="round" stroke-width="2" /><path d="M 315.44137271407635,180.9821922116068 L 294.6667214059312,179.97418799777606 L 273.892070097786,179.8460310752459 L 253.11741878964082,180.5986596557589 L 232.34276748149563,178.97056074487628 L 211.56811617335046,180.05060063499303" fill="none" stroke="black" stroke-linecap="round" stroke-linejoin="round" stroke-width="2" /><path d="M 210.9227572641596,180.40964445978733 L 212.35360300740052,160.26335100683417 L 211.834595497466,140.117057553881 L 213.71195690809583,119.97076410092787" fill="none" stroke="black" stroke-linecap="round" stroke-linejoin="round" stroke-width="2" /><path d="M 211.92216935966397,119.30311109225532 L 232.69682066780916,120.63009471627774 L 253.47147197595433,120.79785294812709 L 274.2461232840995,119.21383365372346 L 295.0207745922447,120.78710691012732 L 315.7954259003899,120.4790048144616" fill="none" stroke="black" stroke-linecap="round" stroke-linejoin="round" stroke-width="2" /><path d="M 314.2081921547079,119.90583247527019 L 315.6246050677508,140.05212592822335 L 314.97585040734987,160.1984193811765 L 314.5872946223818,180.34471283412967" fill="none" stroke="black" stroke-linecap="round" stroke-linejoin="round" stroke-width="2" /><path d="M 315.7954259003899,178.5375817525746 L 295.0207745922447,180.9113828784353 L 274.2461232840995,178.0054181782987 L 253.47147197595433,180.85107631760548 L 232.69682066780916,180.12896005531456 L 211.92216935966397,178.34406564607767" fill="none" stroke="black" stroke-linecap="round" stroke-linejoin="round" stroke-width="2" /><path d="M 210.05100074993985,180.34471283412967 L 212.6836467499286,160.1984193811765 L 211.96746988098292,140.05212592822335 L 213.37086928718736,119.90583247527019" fill="none" stroke="black" stroke-linecap="round" stroke-linejoin="round" stroke-width="2" /><text dominant-baseline="middle" fill="black" font-family="Virgil, Comic Sans MS, cursive" font-size="16px" text-anchor="middle" x="264.0" y="150.0">Firewall</text><path d="M 214.0,200.62765044800508 L 234.0431804921513,199.62230559856513 L 254.08636098430262,201.07838649617224 L 274.12954147645394,200.7895822867749 L 294.17272196860523,200.42433237904302 L 314.2159024607565,198.93717596436537" fill="none" stroke="black" stroke-linecap="round" stroke-linejoin="round" stroke-width="2" /><path d="M 313.70832215612626,200.0 L 313.76704504565004,229.98864638731268 L 311.3878360067665,259.97729277462537" fill="none" stroke="black" stroke-linecap="round" stroke-linejoin="round" stroke-width="2" /><path d="M 314.2159024607565,260.49355636841227 L 294.17272196860523,260.03444369661725 L 274.12954147645394,259.0084273723116 L 254.08636098430262,260.5187761551642 L 234.0431804921513,260.59501446672124 L 214.0,260.0131036427399" fill="none" stroke="black" stroke-linecap="round" stroke-linejoin="round" stroke-width="2" /><path d="M 214.28791925975793,259.97729277462537 L 215.5504447695761,229.98864638731268 L 214.9250308317883,200.0" fill="none" stroke="black" stroke-linecap="round" stroke-linejoin="round" stroke-width="2" /><path d="M 214.07945644329322,200.18060720565578 L 234.12263693544452,201.81825074119806 L 254.16581742759584,197.80069281361534 L 274.20899791974716,199.33430768636134 L 294.25217841189846,200.45423192498436 L 314.29535890404975,199.4811292823548" fill="none" stroke="black" stroke-linecap="round" stroke-linejoin="round" stroke-width="2" /><path d="M 315.0198088519377,200.04944247224984 L 313.45569592437505,230.03808885956252 L 312.12873770350956,260.0267352468752" fill="none" stroke="black" stroke-linecap="round" stroke-linejoin="round" stroke-width="2" /><path d="M 314.29535890404975,260.95069586474597 L 294.25217841189846,259.5851384595663 L 274.20899791974716,259.9035358924822 L 254.16581742759584,261.925833657139 L 234.12263693544452,260.5668208735328 L 214.07945644329322,258.8559811759117" fill="none" stroke="black" stroke-linecap="round" stroke-linejoin="round" stroke-width="2" /><path d="M 213.45474516245665,260.0267352468752 L 211.93155935881973,230.03808885956252 L 214.35482324449464,200.04944247224984" fill="none" stroke="black" stroke-linecap="round" stroke-linejoin="round" stroke-width="2" /><path d="M 214.14094336776046,198.83240173087103 L 234.18412385991178,201.06931103897122 L 254.22730435206307,199.7161516590763 L 274.27048484421437,199.34496942243447 L 294.3136653363657,199.99346784873188 L 314.356845828517,200.5742417548203" fill="none" stroke="black" stroke-linecap="round" stroke-linejoin="round" stroke-width="2" /><path d="M 314.59759977898034,200.16869312818537 L 314.03698345667055,230.15733951549805 L 313.7825840922943,260.1459859028107" fill="none" stroke="black" stroke-linecap="round" stroke-linejoin="round" stroke-width="2" /><path d="M 314.356845828517,260.45228248258604 L 294.3136653363657,260.5613065674758 L 274.27048484421437,259.1419572050777 L 254.22730435206307,260.28311904682755 L 234.18412385991178,260.4113103747188 L 214.14094336776046,260.8389084713115" fill="none" stroke="black" stroke-linecap="round" stroke-linejoin="round" stroke-width="2" /><path d="M 218.04522486905125,260.1459859028107 L 215.43726966941875,230.15733951549805 L 216.46163317749398,200.16869312818537" fill="none" stroke="black" stroke-linecap="round" stroke-linejoin="round" stroke-width="2" /><text dominant-baseline="middle" fill="black" font-family="Virgil, Comic Sans MS, cursive" font-size="16px" text-anchor="middle" x="264.0" y="230.0">DMZ</text><path d="M 192.0,280.9295724132276 L 212.4957158038999,280.137341604387 L 232.99143160779983,280.91744813151934 L 253.4871474116997,278.2111801044278 L 273.98286321559965,280.1721507766778 L 294.47857901949953,280.14512805161553 L 314.9742948233994,281.47245218094463 L 335.47001062729936,279.93378509226824" fill="none" stroke="black" stroke-linecap="round" stroke-linejoin="round" stroke-width="2" /><path d="M 335.332424304192,280.0 L 333.896100709206,300.00905019188895 L 335.5748446584632,320.01810038377795 L 335.0838804875357,340.0271505756669" fill="none" stroke="black" stroke-linecap="round" stroke-linejoin="round" stroke-width="2" /><path d="M 335.47001062729936,340.12064535915135 L 314.9742948233995,338.50766223031354 L 294.47857901949953,341.083471894604 L 273.98286321559965,340.5210876936373 L 253.4871474116997,341.992537064437 L 232.99143160779983,340.7192168440997 L 212.4957158038999,342.042933350591 L 192.0,340.0560286485614" fill="none" stroke="black" stroke-linecap="round" stroke-linejoin="round" stroke-width="2" /><path d="M 191.5800302691821,340.0271505756669 L 192.02918244522513,320.01810038377795 L 193.1250670005865,300.00905019188895 L 190.49897898524313,280.0" fill="none" stroke="black" stroke-linecap="round" stroke-linejoin="round" stroke-width="2" /><path d="M 192.0644082552566,281.67578553059985 L 212.56012405915652,281.07691253007084 L 233.0558398630564,280.43995243195127 L 253.55155566695632,280.43488089943685 L 274.04727147085623,279.24785902402516 L 294.5429872747561,280.1174491122026 L 315.038703078656,280.22072470332853 L 335.53441888255594,279.65623661637784" fill="none" stroke="black" stroke-linecap="round" stroke-linejoin="round" stroke-width="2" /><path d="M 335.3987038028092,279.8721897153482 L 334.7330942743233,299.88123990723716 L 335.6099618039225,319.89029009912616 L 335.2348994980352,339.8993402910151" fill="none" stroke="black" stroke-linecap="round" stroke-linejoin="round" stroke-width="2" /><path d="M 335.53441888255594,339.96111501756496 L 315.03870307865606,340.3059228265695 L 294.5429872747561,339.69282925381776 L 274.04727147085623,337.1908607583954 L 253.55155566695635,339.35576394085575 L 233.0558398630564,338.31719720317125 L 212.56012405915652,339.0279267806667 L 192.0644082552566,339.4192704680924" fill="none" stroke="black" stroke-linecap="round" stroke-linejoin="round" stroke-width="2" /><path d="M 192.7285441366773,339.8993402910151 L 191.18304824336917,319.89029009912616 L 193.13465312387325,299.88123990723716 L 191.95072368481044,279.8721897153482" fill="none" stroke="black" stroke-linecap="round" stroke-linejoin="round" stroke-width="2" /><path d="M 191.98377790880076,279.1118061546717 L 212.47949371270067,278.1812650133619 L 232.97520951660056,279.6550507703074 L 253.47092532050047,279.1181945823394 L 273.9666411244004,280.1184281521575 L 294.46235692830027,279.9051016560634 L 314.9580727322002,279.93493098299655 L 335.4537885361001,280.05572156866435" fill="none" stroke="black" stroke-linecap="round" stroke-linejoin="round" stroke-width="2" /><path d="M 334.29566124737454,279.6826201572695 L 334.3727457026014,299.69167034915847 L 337.03258918114574,319.7007205410475 L 335.53541020712584,339.7097707329364" fill="none" stroke="black" stroke-linecap="round" stroke-linejoin="round" stroke-width="2" /><path d="M 335.4537885361001,339.09065844779894 L 314.9580727322002,340.4572700702416 L 294.46235692830027,338.3235876461296 L 273.9666411244004,339.37502139711034 L 253.4709253205005,339.25400883327745 L 232.97520951660056,340.60803651030403 L 212.47949371270067,338.939563123335 L 191.98377790880076,340.13289767778866" fill="none" stroke="black" stroke-linecap="round" stroke-linejoin="round" stroke-width="2" /><path d="M 192.93573368228522,339.7097707329364 L 192.54539632628968,319.7007205410475 L 192.5579054852946,299.69167034915847 L 192.34471652312567,279.6826201572695" fill="none" stroke="black" stroke-linecap="round" stroke-linejoin="round" stroke-width="2" /><text dominant-baseline="middle" fill="black" font-family="Virgil, Comic Sans MS, cursive" font-size="16px" text-anchor="middle" x="264.0" y="310.0">Reverse Proxy</text><path d="M 40.0,360.1692777926714 L 62.62468070543876,359.17461075026023 L 85.24936141087753,359.21472811991055 L 107.8740421163163,358.06548311443254 L 130.49872282175505,360.5103737626318 L 153.12340352719383,359.1998751826637 L 175.7480842326326,361.95703305622936" fill="none" stroke="black" stroke-linecap="round" stroke-linejoin="round" stroke-width="2" /><path d="M 176.64143128565078,360.0 L 175.0589315377857,380.0801894261551 L 175.88234147919243,400.16037885231015 L 174.49510905800346,420.2405682784652" fill="none" stroke="black" stroke-linecap="round" stroke-linejoin="round" stroke-width="2" /><path d="M 175.7480842326326,421.58958793979536 L 153.12340352719383,420.1265772010148 L 130.49872282175508,419.3436239697465 L 107.8740421163163,420.26443429101346 L 85.24936141087754,421.8702072255686 L 62.62468070543876,420.92279705091335 L 40.0,419.7374333524892" fill="none" stroke="black" stroke-linecap="round" stroke-linejoin="round" stroke-width="2" /><path d="M 38.85980046987295,420.2405682784652 L 40.290492239671714,400.16037885231015 L 41.82008201768261,380.0801894261551 L 39.656903058996505,360.0" fill="none" stroke="black" stroke-linecap="round" stroke-linejoin="round" stroke-width="2" /><path d="M 40.106743987368745,359.0662693493921 L 62.73142469280751,359.3859654677524 L 85.35610539824629,359.45986330614886 L 107.98078610368505,359.3976100658817 L 130.6054668091238,359.0516424128236 L 153.2301475145626,360.69846599722655 L 175.85482822000137,359.0199054866975" fill="none" stroke="black" stroke-linecap="round" stroke-linejoin="round" stroke-width="2" /><path d="M 175.84026008635053,359.97680175903554 L 174.89221742073644,380.0569911851906 L 175.29978597898025,400.1371806113457 L 174.68201170594924,420.21737003750076" fill="none" stroke="black" stroke-linecap="round" stroke-linejoin="round" stroke-width="2" /><path d="M 175.85482822000137,419.71323034493093 L 153.2301475145626,419.55850610049305 L 130.60546680912384,419.8193220718681 L 107.98078610368506,421.7506914897804 L 85.3561053982463,418.50643004848365 L 62.73142469280752,420.13950390893785 L 40.10674398736876,421.8301425477217" fill="none" stroke="black" stroke-linecap="round" stroke-linejoin="round" stroke-width="2" /><path d="M 40.80724024226218,420.21737003750076 L 41.65723404255664,400.1371806113457 L 39.19987631956155,380.0569911851906 L 39.45903416635915,359.97680175903554" fill="none" stroke="black" stroke-linecap="round" stroke-linejoin="round" stroke-width="2" /><path d="M 39.996952790075,357.7526910821561 L 62.62163349551376,359.5526390008168 L 85.24631420095253,359.6958532016814 L 107.8709949063913,361.24194739046385 L 130.49567561183005,358.64768998730943 L 153.12035631726883,358.9853047327681 L 175.7450370227076,360.64661618083437" fill="none" stroke="black" stroke-linecap="round" stroke-linejoin="round" stroke-width="2" /><path d="M 175.82667261786483,359.9532132600019 L 175.207251036599,380.033402686157 L 175.45598955945354,400.11359211231206 L 174.640313114203,420.19378153846714" fill="none" stroke="black" stroke-linecap="round" stroke-linejoin="round" stroke-width="2" /><path d="M 175.7450370227076,419.5031130632285 L 153.12035631726883,420.95545140260566 L 130.49567561183008,421.9711545994339 L 107.8709949063913,418.83383099108534 L 85.24631420095254,420.03308716359277 L 62.62163349551376,419.31774494739864 L 39.996952790075,419.6938370565261" fill="none" stroke="black" stroke-linecap="round" stroke-linejoin="round" stroke-width="2" /><path d="M 42.95935567458829,420.19378153846714 L 39.11085698584827,400.11359211231206 L 41.25872234028196,380.033402686157 L 40.18258611219146,359.9532132600019" fill="none" stroke="black" stroke-linecap="round" stroke-linejoin="round" stroke-width="2" /><text dominant-baseline="middle" fill="black" font-family="Virgil, Comic Sans MS, cursive" font-size="16px" text-anchor="middle" x="108.0" y="390.0">App Server 1</text><path d="M 196.0,357.77681225006205 L 218.6478517887569,360.3439428086292 L 241.29570357751376,361.06233047334626 L 263.94355536627063,360.6314969947524 L 286.5914071550275,358.26611947290934 L 309.2392589437844,360.56377333990804 L 331.8871107325413,361.0168516096448" fill="none" stroke="black" stroke-linecap="round" stroke-linejoin="round" stroke-width="2" /><path d="M 332.47669057815904,360.0 L 330.560530595174,380.12716920114065 L 331.84190122618185,400.2543384022813 L 331.1725752975613,420.38150760342194" fill="none" stroke="black" stroke-linecap="round" stroke-linejoin="round" stroke-width="2" /><path d="M 331.8871107325413,421.0215361319348 L 309.2392589437844,422.1507629065062 L 286.5914071550275,422.0755978546531 L 263.94355536627063,420.4432332607443 L 241.2957035775138,419.94029025541283 L 218.6478517887569,420.72286470569026 L 196.0,420.04449397754036" fill="none" stroke="black" stroke-linecap="round" stroke-linejoin="round" stroke-width="2" /><path d="M 193.68059733062213,420.38150760342194 L 194.49122983030273,400.2543384022813 L 195.14477320661584,380.12716920114065 L 196.6366581827055,360.0" fill="none" stroke="black" stroke-linecap="round" stroke-linejoin="round" stroke-width="2" /><path d="M 195.8915178335781,360.38968123760753 L 218.53936962233496,360.0703699849786 L 241.18722141109185,360.3900604235053 L 263.83507319984875,362.46542501342634 L 286.48292498860565,360.5212897444682 L 309.1307767773625,362.1618779229819 L 331.7786285661194,359.52733795070134" fill="none" stroke="black" stroke-linecap="round" stroke-linejoin="round" stroke-width="2" /><path d="M 332.20190648992684,359.9564687244571 L 332.33082809461746,380.08363792559777 L 332.28348307278577,400.2108071267384 L 333.1800717537087,420.33797632787906" fill="none" stroke="black" stroke-linecap="round" stroke-linejoin="round" stroke-width="2" /><path d="M 331.7786285661194,421.1953466753493 L 309.1307767773625,420.3498957907348 L 286.48292498860565,421.0400558722753 L 263.83507319984875,419.5047726905019 L 241.18722141109185,420.66542372726025 L 218.53936962233496,419.597015948376 L 195.8915178335781,419.74086170907566" fill="none" stroke="black" stroke-linecap="round" stroke-linejoin="round" stroke-width="2" /><path d="M 194.79349163521346,420.33797632787906 L 196.18914673134915,400.2108071267384 L 196.62529298797034,380.08363792559777 L 194.941513916986,359.9564687244571" fill="none" stroke="black" stroke-linecap="round" stroke-linejoin="round" stroke-width="2" /><path d="M 196.12437895382007,359.3221092738357 L 218.77223074257694,358.87046115671615 L 241.42008253133383,358.63474153691584 L 264.0679343200907,359.4160597787337 L 286.7157861088476,360.5148415702459 L 309.36363789760446,361.1424811934048 L 332.01148968636136,356.29032221703926" fill="none" stroke="black" stroke-linecap="round" stroke-linejoin="round" stroke-width="2" /><path d="M 331.75586697162765,359.9538354186821 L 333.18404603026715,380.08100461982275 L 330.4891670610865,400.2081738209634 L 331.81815953193035,420.33534302210404" fill="none" stroke="black" stroke-linecap="round" stroke-linejoin="round" stroke-width="2" /><path d="M 332.01148968636136,418.9466854589122 L 309.36363789760446,421.83355288286015 L 286.7157861088476,418.95838123408095 L 264.0679343200907,422.59122349159816 L 241.42008253133383,420.19171743920447 L 218.77223074257694,422.3233637696785 L 196.12437895382007,418.26925703451656" fill="none" stroke="black" stroke-linecap="round" stroke-linejoin="round" stroke-width="2" /><path d="M 197.44810775998502,420.33534302210404 L 194.76311037921852,400.2081738209634 L 195.3387890016967,380.08100461982275 L 199.04736112058163,359.9538354186821" fill="none" stroke="black" stroke-linecap="round" stroke-linejoin="round" stroke-width="2" /><text dominant-baseline="middle" fill="black" font-family="Virgil, Comic Sans MS, cursive" font-size="16px" text-anchor="middle" x="264.0" y="390.0">App Server 2</text><path d="M 352.0,361.50987255728927 L 374.6319987793954,358.83534103677425 L 397.26399755879083,360.29851145429893 L 419.89599633818625,359.77525292715404 L 442.52799511758167,360.56245481397804 L 465.15999389697714,359.50692932193454 L 487.79199267637256,363.25127617101765" fill="none" stroke="black" stroke-linecap="round" stroke-linejoin="round" stroke-width="2" /><path d="M 487.3679363700926,360.0 L 488.19716548455375,389.9004506946314 L 489.284109928795,419.8009013892628" fill="none" stroke="black" stroke-linecap="round" stroke-linejoin="round" stroke-width="2" /><path d="M 487.79199267637256,420.6696228621431 L 465.15999389697714,419.99179896728606 L 442.5279951175817,418.4633539797328 L 419.89599633818625,419.32767297138514 L 397.26399755879083,419.7340331057089 L 374.6319987793954,419.9630631994459 L 352.0,420.0640528481255" fill="none" stroke="black" stroke-linecap="round" stroke-linejoin="round" stroke-width="2" /><path d="M 352.309298277629,419.8009013892628 L 352.75176922104805,389.9004506946314 L 352.1129829229238,360.0" fill="none" stroke="black" stroke-linecap="round" stroke-linejoin="round" stroke-width="2" /><path d="M 351.9269234859626,360.90238046049853 L 374.55892226535804,359.6044603485031 L 397.19092104475345,358.5960426549625 L 419.8229198241489,359.0906450201516 L 442.45491860354434,361.25595838374164 L 465.08691738293976,357.5672549194999 L 487.7189161623352,360.34637623249057" fill="none" stroke="black" stroke-linecap="round" stroke-linejoin="round" stroke-width="2" /><path d="M 487.2467817906123,360.04629114564443 L 488.70100138670324,389.9467418402758 L 487.61672971853517,419.8471925349072" fill="none" stroke="black" stroke-linecap="round" stroke-linejoin="round" stroke-width="2" /><path d="M 487.7189161623352,419.23747669791214 L 465.08691738293976,420.1852385690426 L 442.45491860354434,421.0067426724685 L 419.8229198241489,421.0773841339264 L 397.1909210447535,420.90458756713406 L 374.55892226535804,419.9770435156561 L 351.9269234859626,419.621189707421" fill="none" stroke="black" stroke-linecap="round" stroke-linejoin="round" stroke-width="2" /><path d="M 352.8604086613094,419.8471925349072 L 352.1921594495166,389.9467418402758 L 351.37450563424255,360.04629114564443" fill="none" stroke="black" stroke-linecap="round" stroke-linejoin="round" stroke-width="2" /><path d="M 351.82652889800977,361.7632576125743 L 374.4585276774052,358.9791848436708 L 397.0905264568006,360.76960656519054 L 419.722525236196,361.41410650912974 L 442.35452401559144,359.35043825443955 L 464.9865227949869,360.4413647867741 L 487.6185215743823,359.84599424731573" fill="none" stroke="black" stroke-linecap="round" stroke-linejoin="round" stroke-width="2" /><path d="M 487.4937671803928,359.7553759716529 L 486.04486053828043,389.65582666628427 L 487.80847956526264,419.55627736091566" fill="none" stroke="black" stroke-linecap="round" stroke-linejoin="round" stroke-width="2" /><path d="M 487.6185215743823,420.8438930900382 L 464.9865227949869,420.9512979085772 L 442.3545240155915,420.394420294252 L 419.722525236196,419.786920507504 L 397.0905264568006,418.6243914933444 L 374.4585276774052,420.30781374442756 L 351.82652889800977,421.2532364530791" fill="none" stroke="black" stroke-linecap="round" stroke-linejoin="round" stroke-width="2" /><path d="M 352.6347413804495,419.55627736091566 L 352.58474546963765,389.65582666628427 L 353.00484590932075,359.7553759716529" fill="none" stroke="black" stroke-linecap="round" stroke-linejoin="round" stroke-width="2" /><text dominant-baseline="middle" fill="black" font-family="Virgil, Comic Sans MS, cursive" font-size="16px" text-anchor="middle" x="420.0" y="390.0">App Server 3</text><path d="M 172.0,440.3038575240368 L 192.95877675954182,440.8990044046132 L 213.91755351908364,440.10645393740003 L 234.87633027862543,440.70850013839265 L 255.83510703816725,439.9733804310993 L 276.7938837977091,439.8923978438104 L 297.75266055725086,440.8952137230207 L 318.7114373167927,438.5488078866995 L 339.6702140763345,440.3348469943497" fill="none" stroke="black" stroke-linecap="round" stroke-linejoin="round" stroke-width="2" /><path d="M 339.985773626672,440.0 L 338.5557076071043,460.09446647998783 L 340.41427535086495,480.1889329599756 L 339.0957085362834,500.28339943996343" fill="none" stroke="black" stroke-linecap="round" stroke-linejoin="round" stroke-width="2" /><path d="M 339.6702140763345,501.8647593882804 L 318.7114373167927,500.67696397426533 L 297.75266055725086,500.07870064594596 L 276.79388379770904,500.45285552959024 L 255.83510703816725,497.9521011871984 L 234.87633027862543,498.0034362200457 L 213.91755351908364,499.61815964590875 L 192.95877675954182,499.9574043526355 L 172.0,499.56142977702456" fill="none" stroke="black" stroke-linecap="round" stroke-linejoin="round" stroke-width="2" /><path d="M 172.1853128859878,500.28339943996343 L 171.34386781127847,480.1889329599756 L 171.29027918066976,460.09446647998783 L 169.57531088443722,440.0" fill="none" stroke="black" stroke-linecap="round" stroke-linejoin="round" stroke-width="2" /><path d="M 172.15477497119738,438.7984822135208 L 193.1135517307392,440.59669731248414 L 214.07232849028102,439.9679497335362 L 235.03110524982282,440.6849137433047 L 255.98988200936463,439.24598556427856 L 276.94865876890645,440.3565627323037 L 297.9074355284483,439.48301364100354 L 318.8662122879901,441.31682821272926 L 339.8249890475319,440.0956130751247" fill="none" stroke="black" stroke-linecap="round" stroke-linejoin="round" stroke-width="2" /><path d="M 339.9505688302853,440.0017554986387 L 341.7725202942401,460.09622197862655 L 339.34008832836093,480.1906884586143 L 340.50366579157014,500.28515493860215" fill="none" stroke="black" stroke-linecap="round" stroke-linejoin="round" stroke-width="2" /><path d="M 339.8249890475319,499.53455732524014 L 318.8662122879901,500.9368577812831 L 297.9074355284483,499.90185265585217 L 276.94865876890645,499.66822074350415 L 255.98988200936463,502.22794050045434 L 235.03110524982282,502.0502645702157 L 214.07232849028102,498.7778833930171 L 193.1135517307392,501.98627219942944 L 172.15477497119738,500.01351423075704" fill="none" stroke="black" stroke-linecap="round" stroke-linejoin="round" stroke-width="2" /><path d="M 173.42561067160614,500.28515493860215 L 172.37079033952247,480.1906884586143 L 171.27894048877624,460.09622197862655 L 173.26643417882187,440.0017554986387" fill="none" stroke="black" stroke-linecap="round" stroke-linejoin="round" stroke-width="2" /><path d="M 171.8701292761801,439.7110233648707 L 192.82890603572193,439.88586225286565 L 213.78768279526372,438.63902177198605 L 234.74645955480554,441.05488797161 L 255.70523631434736,441.4530569427697 L 276.6640130738891,438.0859515660594 L 297.62278983343094,439.40435753395167 L 318.58156659297276,438.91819551724876 L 339.5403433525146,442.35498244554935" fill="none" stroke="black" stroke-linecap="round" stroke-linejoin="round" stroke-width="2" /><path d="M 339.39153964314465,439.8924294444343 L 338.9407643738994,459.98689592442213 L 340.03062169785056,480.0813624044099 L 338.79484712401165,500.17582888439773" fill="none" stroke="black" stroke-linecap="round" stroke-linejoin="round" stroke-width="2" /><path d="M 339.5403433525146,498.1481859176892 L 318.58156659297276,500.73037369890176 L 297.62278983343094,498.99513664795415 L 276.6640130738891,500.62274935698053 L 255.70523631434736,499.10312798983557 L 234.74645955480554,500.00495238628326 L 213.78768279526372,501.4255339317336 L 192.82890603572193,500.2764080624434 L 171.8701292761801,497.92592706355356" fill="none" stroke="black" stroke-linecap="round" stroke-linejoin="round" stroke-width="2" /><path d="M 171.07826649746988,500.17582888439773 L 173.88058053898735,480.0813624044099 L 173.73753183266987,459.98689592442213 L 173.30593196302976,439.8924294444343" fill="none" stroke="black" stroke-linecap="round" stroke-linejoin="round" stroke-width="2" /><text dominant-baseline="middle" fill="black" font-family="Virgil, Comic Sans MS, cursive" font-size="16px" text-anchor="middle" x="256.0" y="470.0">Internal Network</text><text dominant-baseline="middle" fill="black" font-family="Virgil, Comic Sans MS, cursive" font-size="16px" text-anchor="middle" x="120.0" y="550.0">Database</text><text dominant-baseline="middle" fill="black" font-family="Virgil, Comic Sans MS, cursive" font-size="16px" text-anchor="middle" x="256.0" y="550.0">Redis Cache</text><path d="M 340.0,520.8938570862771 L 362.73617906307294,520.4829536259164 L 385.4723581261458,520.6115951523974 L 408.20853718921876,519.7735560587478 L 430.94471625229164,520.5920334177489 L 453.68089531536464,520.8871013767343 L 476.4170743784375,520.3332385307708" fill="none" stroke="black" stroke-linecap="round" stroke-linejoin="round" stroke-width="2" /><path d="M 475.2989198977284,520.0 L 475.67725051107715,540.0413796735817 L 475.14984494113213,560.0827593471635 L 477.3342373473327,580.1241390207451" fill="none" stroke="black" stroke-linecap="round" stroke-linejoin="round" stroke-width="2" /><path d="M 476.4170743784375,581.6279692583346 L 453.6808953153646,580.1984169656904 L 430.9447162522917,579.197395100699 L 408.20853718921876,582.0072519168298 L 385.4723581261459,580.0524841455624 L 362.7361790630729,579.2100604598475 L 340.0,581.605564297303" fill="none" stroke="black" stroke-linecap="round" stroke-linejoin="round" stroke-width="2" /><path d="M 340.5747372092509,580.1241390207451 L 339.38962519100255,560.0827593471635 L 338.99018872255056,540.0413796735817 L 340.7984752422279,520.0" fill="none" stroke="black" stroke-linecap="round" stroke-linejoin="round" stroke-width="2" /><path d="M 339.9451333792074,521.0019376808585 L 362.68131244228033,520.7702261485122 L 385.4174915053532,520.1540946367278 L 408.15367056842615,519.7122438523736 L 430.88984963149903,520.9458822694219 L 453.626028694572,519.7264425147656 L 476.3622077576449,519.6608530659867" fill="none" stroke="black" stroke-linecap="round" stroke-linejoin="round" stroke-width="2" /><path d="M 475.34046346144015,520.2374164805688 L 476.2147389158875,540.2787961541504 L 476.62843520183856,560.3201758277322 L 475.40205868308857,580.3615555013139" fill="none" stroke="black" stroke-linecap="round" stroke-linejoin="round" stroke-width="2" /><path d="M 476.3622077576449,580.5492994633623 L 453.62602869457197,581.4055895103768 L 430.8898496314991,581.4550753272451 L 408.15367056842615,580.9672259745231 L 385.41749150535327,580.4761383544612 L 362.6813124422803,580.1224980069389 L 339.9451333792074,580.1994213251908" fill="none" stroke="black" stroke-linecap="round" stroke-linejoin="round" stroke-width="2" /><path d="M 338.68345577042635,580.3615555013139 L 339.3071577096813,560.3201758277322 L 341.5554949187284,540.2787961541504 L 339.7134767039109,520.2374164805688" fill="none" stroke="black" stroke-linecap="round" stroke-linejoin="round" stroke-width="2" /><path d="M 339.9297862744403,518.1927343358271 L 362.6659653375132,519.3763266230353 L 385.4021444005861,521.8504929004966 L 408.13832346365905,521.2576448788523 L 430.87450252673193,518.3272501530922 L 453.6106815898049,520.5168398488687 L 476.3468606528778,517.9747647623169" fill="none" stroke="black" stroke-linecap="round" stroke-linejoin="round" stroke-width="2" /><path d="M 477.3868217936068,519.9705072744133 L 475.84688222129097,540.011886947995 L 476.38055687651143,560.0532666215768 L 476.88593784802157,580.0946462951584" fill="none" stroke="black" stroke-linecap="round" stroke-linejoin="round" stroke-width="2" /><path d="M 476.3468606528778,579.9281985616096 L 453.61068158980487,579.6617914616221 L 430.874502526732,581.4096803740771 L 408.13832346365905,580.2866290318769 L 385.40214440058617,579.0702603925233 L 362.66596533751317,579.444480750211 L 339.9297862744403,580.0980230825323" fill="none" stroke="black" stroke-linecap="round" stroke-linejoin="round" stroke-width="2" /><path d="M 339.91453129520755,580.0946462951584 L 340.5466511494969,560.0532666215768 L 339.23561145871054,540.011886947995 L 340.40060063016944,519.9705072744133" fill="none" stroke="black" stroke-linecap="round" stroke-linejoin="round" stroke-width="2" /><text dominant-baseline="middle" fill="black" font-family="Virgil, Comic Sans MS, cursive" font-size="16px" text-anchor="middle" x="408.0" y="550.0">File Storage</text></g></svg>