<?xml version="1.0" encoding="utf-8" ?>
<svg baseProfile="full" height="540.0px" version="1.1" viewBox="0 0 808.0 540.0" width="808.0px" xmlns="http://www.w3.org/2000/svg" xmlns:ev="http://www.w3.org/2001/xml-events" xmlns:xlink="http://www.w3.org/1999/xlink"><defs /><rect fill="white" height="540.0" width="808.0" x="0" y="0" /><g><path d="M 411.00968478806294,100.0 L 409.57800527620975,110.0 L 410.8510960350947,120.0" fill="none" stroke="black" stroke-linecap="round" stroke-linejoin="round" stroke-width="2" /><path d="M 406.8301280542757,113.08394501921593 L 408.28908640621466,116.86262741172378 L 410.8510960350947,120.0" fill="none" stroke="black" stroke-linecap="round" stroke-linejoin="round" stroke-width="2" /><path d="M 413.01093483024937,112.29707222032137 L 411.7271788217738,116.09138196920505 L 410.8510960350947,120.0" fill="none" stroke="black" stroke-linecap="round" stroke-linejoin="round" stroke-width="2" /><path d="M 354.1188087444609,150.50850142629275 L 332.4296799730744,154.27103028475838 L 311.1040792913976,159.58945936718195 L 289.9679789287217,165.71894981492898 L 268.89640578033425,172.1246167398306 L 247.0981049259091,175.4198890828909 L 225.9747945098472,181.604120502146 L 204.3241736641807,185.53146328269332 L 182.89725397952068,190.4162470323486 L 161.41516289146563,195.0648971754728 L 139.8407055928671,199.31821993747118" fill="none" stroke="black" stroke-linecap="round" stroke-linejoin="round" stroke-width="2" /><path d="M 156.4075976311526,188.1138418560339 L 147.47735132018917,192.75966629293063 L 139.8407055928671,199.31821993747118" fill="none" stroke="black" stroke-linecap="round" stroke-linejoin="round" stroke-width="2" /><path d="M 159.42049929043088,203.39641546501045 L 149.4362361187377,202.29048838387683 L 139.8407055928671,199.31821993747118" fill="none" stroke="black" stroke-linecap="round" stroke-linejoin="round" stroke-width="2" /><path d="M 353.6042068575906,149.7308606631616 L 342.1752331551325,166.33249187882342 L 332.20120223090635,183.92348418368297 L 320.8189291794679,200.5568718420382" fill="none" stroke="black" stroke-linecap="round" stroke-linejoin="round" stroke-width="2" /><path d="M 322.62381896070957,191.6582369795455 L 322.94892720602763,196.35653620914906 L 320.8189291794679,200.5568718420382" fill="none" stroke="black" stroke-linecap="round" stroke-linejoin="round" stroke-width="2" /><path d="M 328.4598979189911,195.65188190728497 L 323.88901858728576,196.93541536347013 L 320.8189291794679,200.5568718420382" fill="none" stroke="black" stroke-linecap="round" stroke-linejoin="round" stroke-width="2" /><path d="M 464.4298757624712,151.0676844815196 L 476.3019391256192,167.36801472791228 L 489.39764888200483,182.8362654269034 L 500.08179886264054,199.94437677340443" fill="none" stroke="black" stroke-linecap="round" stroke-linejoin="round" stroke-width="2" /><path d="M 492.644132971172,194.71775960779226 L 496.14871951950454,197.63594858872827 L 500.08179886264054,199.94437677340443" fill="none" stroke="black" stroke-linecap="round" stroke-linejoin="round" stroke-width="2" /><path d="M 498.6492727927237,190.9675025976128 L 498.6139782442898,195.5758729507154 L 500.08179886264054,199.94437677340443" fill="none" stroke="black" stroke-linecap="round" stroke-linejoin="round" stroke-width="2" /><path d="M 466.005245547676,149.9775490559468 L 487.1460795609783,156.08677947901265 L 509.1529959184915,158.48917746885638 L 530.0099651530516,165.81334914493954 L 551.4504433032105,170.64010266225924 L 573.2802713044551,173.80043881693186 L 594.3402202547952,180.2558573094762 L 615.5657049368745,186.00278287017727 L 637.708662155287,187.8229259753717 L 658.7781456615648,194.23753656850252 L 679.7545040663435,201.05072259604958" fill="none" stroke="black" stroke-linecap="round" stroke-linejoin="round" stroke-width="2" /><path d="M 659.8283261168276,202.76753135774214 L 669.7598156888581,201.54236782707375 L 679.7545040663435,201.05072259604958" fill="none" stroke="black" stroke-linecap="round" stroke-linejoin="round" stroke-width="2" /><path d="M 664.6402389751604,187.95266965855376 L 672.5691047051226,194.07274123464865 L 679.7545040663435,201.05072259604958" fill="none" stroke="black" stroke-linecap="round" stroke-linejoin="round" stroke-width="2" /><path d="M 139.31007616665272,260.0 L 140.52500295299737,270.0 L 139.4106038825722,280.0" fill="none" stroke="black" stroke-linecap="round" stroke-linejoin="round" stroke-width="2" /><path d="M 137.13051511418678,272.3318062616883 L 137.1671565368667,276.49399300251486 L 139.4106038825722,280.0" fill="none" stroke="black" stroke-linecap="round" stroke-linejoin="round" stroke-width="2" /><path d="M 143.32287622410644,273.02188240815144 L 141.724910565437,276.7117490250373 L 139.4106038825722,280.0" fill="none" stroke="black" stroke-linecap="round" stroke-linejoin="round" stroke-width="2" /><path d="M 318.30940662375724,260.0 L 319.71476668741883,270.0 L 318.55329044448524,280.0" fill="none" stroke="black" stroke-linecap="round" stroke-linejoin="round" stroke-width="2" /><path d="M 316.3088643185516,272.3212923375592 L 318.3012875552311,275.9062905486943 L 318.55329044448524,280.0" fill="none" stroke="black" stroke-linecap="round" stroke-linejoin="round" stroke-width="2" /><path d="M 322.49795141580194,273.04014010044955 L 321.37379444514147,277.0007919339703 L 318.55329044448524,280.0" fill="none" stroke="black" stroke-linecap="round" stroke-linejoin="round" stroke-width="2" /><path d="M 499.63559037356333,260.0 L 498.9999421847635,270.0 L 498.3927847965319,280.0" fill="none" stroke="black" stroke-linecap="round" stroke-linejoin="round" stroke-width="2" /><path d="M 495.7297252852191,272.4562533155463 L 497.3630012004725,276.12160558622486 L 498.3927847965319,280.0" fill="none" stroke="black" stroke-linecap="round" stroke-linejoin="round" stroke-width="2" /><path d="M 501.94896599990545,272.8338591104575 L 499.4884724723881,276.0782886471904 L 498.3927847965319,280.0" fill="none" stroke="black" stroke-linecap="round" stroke-linejoin="round" stroke-width="2" /><path d="M 679.7529085362695,260.0 L 680.5843933541003,270.0 L 679.8796539476981,280.0" fill="none" stroke="black" stroke-linecap="round" stroke-linejoin="round" stroke-width="2" /><path d="M 677.2900164428909,272.4307346727905 L 678.1107777025285,276.37755441924054 L 679.8796539476981,280.0" fill="none" stroke="black" stroke-linecap="round" stroke-linejoin="round" stroke-width="2" /><path d="M 683.5052947094302,272.868749824409 L 679.7699436827039,275.45692982141674 L 679.8796539476981,280.0" fill="none" stroke="black" stroke-linecap="round" stroke-linejoin="round" stroke-width="2" /><path d="M 139.46988843152667,340.0 L 140.01145923612478,350.0 L 140.26996907825583,360.0" fill="none" stroke="black" stroke-linecap="round" stroke-linejoin="round" stroke-width="2" /><path d="M 136.96524371964475,352.7144807800574 L 139.43751225878225,355.9853295344175 L 140.26996907825583,360.0" fill="none" stroke="black" stroke-linecap="round" stroke-linejoin="round" stroke-width="2" /><path d="M 143.19385633615315,352.5534650136385 L 140.38369859945539,355.7473552786474 L 140.26996907825583,360.0" fill="none" stroke="black" stroke-linecap="round" stroke-linejoin="round" stroke-width="2" /><path d="M 140.67919575697675,420.0 L 140.4279903521799,430.0 L 142.56026284989574,440.0" fill="none" stroke="black" stroke-linecap="round" stroke-linejoin="round" stroke-width="2" /><path d="M 137.97679127376614,433.4431876410246 L 139.8625193434879,437.00540929895396 L 142.56026284989574,440.0" fill="none" stroke="black" stroke-linecap="round" stroke-linejoin="round" stroke-width="2" /><path d="M 144.07049673330047,432.14384358497006 L 142.27453328135894,435.8718339143746 L 142.56026284989574,440.0" fill="none" stroke="black" stroke-linecap="round" stroke-linejoin="round" stroke-width="2" /><path d="M 346.0,38.70132744362343 L 367.4218753783582,37.94931845469422 L 388.8437507567165,40.34958430014368 L 410.26562613507474,40.392403726711585 L 431.68750151343295,40.9574582949712 L 453.10937689179116,39.83606899899364 L 474.5312522701494,39.97063344802006" fill="none" stroke="black" stroke-linecap="round" stroke-linejoin="round" stroke-width="2" /><path d="M 475.83776253101354,40.0 L 474.40121051380527,60.02850592525488 L 474.46146396172037,80.05701185050977 L 473.5690490217257,100.08551777576466" fill="none" stroke="black" stroke-linecap="round" stroke-linejoin="round" stroke-width="2" /><path d="M 474.5312522701494,99.44141659715446 L 453.10937689179116,100.30643195264483 L 431.68750151343295,99.85395717362547 L 410.26562613507474,101.17530414578059 L 388.8437507567165,100.26927858309291 L 367.4218753783582,99.49705550109677 L 346.0,99.62102591251052" fill="none" stroke="black" stroke-linecap="round" stroke-linejoin="round" stroke-width="2" /><path d="M 345.2657422575167,100.08551777576466 L 345.4151100285006,80.05701185050978 L 345.4167435113717,60.02850592525489 L 344.8335360322426,40.0" fill="none" stroke="black" stroke-linecap="round" stroke-linejoin="round" stroke-width="2" /><path d="M 346.10747754173946,40.423871277390724 L 367.5293529200977,41.55688304642403 L 388.95122829845593,39.304602257694704 L 410.37310367681414,39.21889122740466 L 431.7949790551724,40.235954660908504 L 453.21685443353067,39.650596780156114 L 474.6387298118889,38.34168959153543" fill="none" stroke="black" stroke-linecap="round" stroke-linejoin="round" stroke-width="2" /><path d="M 474.48464904582335,39.840085443450945 L 473.1848227386742,59.86859136870583 L 475.96545906659406,79.89709729396071 L 475.3530060054108,99.9256032192156" fill="none" stroke="black" stroke-linecap="round" stroke-linejoin="round" stroke-width="2" /><path d="M 474.6387298118889,101.94654833914683 L 453.21685443353067,98.34152214713492 L 431.7949790551724,99.02131259697465 L 410.37310367681414,98.99300995284011 L 388.95122829845593,100.81773133643202 L 367.5293529200977,98.49485305438078 L 346.10747754173946,100.62106771176347" fill="none" stroke="black" stroke-linecap="round" stroke-linejoin="round" stroke-width="2" /><path d="M 346.27399234334194,99.9256032192156 L 345.04864856256137,79.89709729396071 L 346.43257484940074,59.868591368705836 L 343.8782121178472,39.840085443450945" fill="none" stroke="black" stroke-linecap="round" stroke-linejoin="round" stroke-width="2" /><path d="M 345.9328893227942,40.208636675991556 L 367.3547647011525,39.32297080902061 L 388.7766400795107,38.779186219042934 L 410.1985154578689,41.258910831410255 L 431.62039083622716,41.38375415390163 L 453.0422662145854,41.61131147081809 L 474.46414159294363,41.39900228598711" fill="none" stroke="black" stroke-linecap="round" stroke-linejoin="round" stroke-width="2" /><path d="M 474.0955826953623,39.855758244248534 L 475.25561498047085,59.88426416950342 L 474.10143783798935,79.9127700947583 L 473.4349389300507,99.94127602001319" fill="none" stroke="black" stroke-linecap="round" stroke-linejoin="round" stroke-width="2" /><path d="M 474.46414159294363,100.03216527463319 L 453.0422662145854,99.92387223684332 L 431.62039083622716,100.9563675900495 L 410.1985154578689,100.2482553175278 L 388.7766400795107,98.82067205158275 L 367.3547647011525,101.13479011261653 L 345.9328893227942,100.62825522139508" fill="none" stroke="black" stroke-linecap="round" stroke-linejoin="round" stroke-width="2" /><path d="M 344.25248170608165,99.94127602001319 L 346.01960594308713,79.91277009475832 L 346.5756715176223,59.884264169503425 L 346.6558132606917,39.855758244248534" fill="none" stroke="black" stroke-linecap="round" stroke-linejoin="round" stroke-width="2" /><text dominant-baseline="middle" fill="black" font-family="Virgil, Comic Sans MS, cursive" font-size="16px" text-anchor="middle" x="410.0" y="70.0">User Action</text><path d="M 354.0,118.11725891927196 L 376.3761076568507,120.32201203268104 L 398.7522153137014,119.65042453227281 L 421.1283229705521,119.69756496708514 L 443.5044306274028,119.08866532637262 L 465.88053828425353,122.32222427840611" fill="none" stroke="black" stroke-linecap="round" stroke-linejoin="round" stroke-width="2" /><path d="M 465.49976033329943,120.0 L 467.5132312476025,149.90266459221561 L 467.21156480355376,179.80532918443126" fill="none" stroke="black" stroke-linecap="round" stroke-linejoin="round" stroke-width="2" /><path d="M 465.88053828425353,180.4868086231855 L 443.5044306274028,179.9830316097276 L 421.1283229705521,179.45606483082082 L 398.7522153137014,179.73040683235706 L 376.3761076568507,179.26436017735455 L 354.0,181.6127630107681" fill="none" stroke="black" stroke-linecap="round" stroke-linejoin="round" stroke-width="2" /><path d="M 352.8355419948987,179.80532918443126 L 354.4763697851957,149.90266459221561 L 354.83252441607124,120.0" fill="none" stroke="black" stroke-linecap="round" stroke-linejoin="round" stroke-width="2" /><path d="M 353.99541529184387,120.76697247805525 L 376.3715229486946,119.70930598635555 L 398.7476306055453,119.51843329049912 L 421.123738262396,118.2644456974775 L 443.4998459192467,119.58397613154908 L 465.8759535760974,119.48237691762908" fill="none" stroke="black" stroke-linecap="round" stroke-linejoin="round" stroke-width="2" /><path d="M 464.3019333432225,119.97669692222337 L 467.4885579548653,149.87936151443898 L 464.7224200133541,179.78202610665463" fill="none" stroke="black" stroke-linecap="round" stroke-linejoin="round" stroke-width="2" /><path d="M 465.8759535760974,179.40199951566305 L 443.4998459192467,181.49645020022197 L 421.123738262396,182.26540942110952 L 398.7476306055453,180.5909283112226 L 376.3715229486946,179.5930639857061 L 353.99541529184387,178.49656695828241" fill="none" stroke="black" stroke-linecap="round" stroke-linejoin="round" stroke-width="2" /><path d="M 352.40617110298984,179.78202610665463 L 352.0310406160683,149.87936151443898 L 353.92754019272496,119.97669692222337" fill="none" stroke="black" stroke-linecap="round" stroke-linejoin="round" stroke-width="2" /><path d="M 353.97341553587256,119.72561489853375 L 376.34952319272327,122.0388352601338 L 398.725630849574,118.5773853724633 L 421.1017385064247,120.86895827398538 L 443.4778461632754,120.38998084706408 L 465.8539538201261,118.65831142917907" fill="none" stroke="black" stroke-linecap="round" stroke-linejoin="round" stroke-width="2" /><path d="M 466.93712550119596,119.88761900576065 L 464.9240092300774,149.79028359797627 L 464.6780489938078,179.6929481901919" fill="none" stroke="black" stroke-linecap="round" stroke-linejoin="round" stroke-width="2" /><path d="M 465.8539538201261,179.56246568830736 L 443.4778461632754,179.716423752172 L 421.1017385064247,180.8979255366445 L 398.725630849574,180.71492069991186 L 376.34952319272327,180.67828873389226 L 353.97341553587256,178.526123754973" fill="none" stroke="black" stroke-linecap="round" stroke-linejoin="round" stroke-width="2" /><path d="M 353.52783783018464,179.6929481901919 L 354.12823620363264,149.79028359797627 L 353.3542111856697,119.88761900576065" fill="none" stroke="black" stroke-linecap="round" stroke-linejoin="round" stroke-width="2" /><text dominant-baseline="middle" fill="black" font-family="Virgil, Comic Sans MS, cursive" font-size="16px" text-anchor="middle" x="410.0" y="150.0">Event Bus</text><path d="M 68.0,201.37874027661348 L 88.53102114295322,201.33205408266176 L 109.06204228590644,198.96067058560467 L 129.59306342885967,199.34343106440846 L 150.1240845718129,199.45387163069887 L 170.6551057147661,199.47924754932944 L 191.18612685771933,199.03927602526124 L 211.71714800067255,199.6555745033912" fill="none" stroke="black" stroke-linecap="round" stroke-linejoin="round" stroke-width="2" /><path d="M 210.686906716252,200.0 L 211.58963842624593,229.90895016779604 L 213.0403905938651,259.81790033559207" fill="none" stroke="black" stroke-linecap="round" stroke-linejoin="round" stroke-width="2" /><path d="M 211.71714800067255,260.52472840816756 L 191.18612685771933,259.9517056850899 L 170.6551057147661,259.9591862882361 L 150.1240845718129,262.03988411813657 L 129.59306342885967,260.0250842307611 L 109.06204228590644,259.10908085140875 L 88.53102114295322,258.7932927008173 L 68.0,261.4201281572091" fill="none" stroke="black" stroke-linecap="round" stroke-linejoin="round" stroke-width="2" /><path d="M 67.18582340567066,259.81790033559207 L 68.63011024239484,229.90895016779604 L 67.52334574518095,200.0" fill="none" stroke="black" stroke-linecap="round" stroke-linejoin="round" stroke-width="2" /><path d="M 68.12013643425769,198.85410840252496 L 88.65115757721091,199.5083593805455 L 109.18217872016413,199.61784032902747 L 129.71319986311735,201.9184368471935 L 150.24422100607057,198.78590240834725 L 170.7752421490238,199.4344442983498 L 191.30626329197702,201.2085950555356 L 211.83728443493024,199.886393349798" fill="none" stroke="black" stroke-linecap="round" stroke-linejoin="round" stroke-width="2" /><path d="M 209.80746963405295,200.07004939746722 L 211.68480110368182,229.97899956526322 L 211.10588929554936,259.88794973305926" fill="none" stroke="black" stroke-linecap="round" stroke-linejoin="round" stroke-width="2" /><path d="M 211.83728443493024,259.21693207558906 L 191.30626329197702,257.7848088108725 L 170.7752421490238,262.46881517854325 L 150.24422100607057,260.1510533139256 L 129.71319986311735,259.99336863699114 L 109.18217872016413,260.51575466931723 L 88.65115757721091,263.21502613626825 L 68.12013643425769,258.41342599396455" fill="none" stroke="black" stroke-linecap="round" stroke-linejoin="round" stroke-width="2" /><path d="M 67.278432234391,259.88794973305926 L 68.37721344722814,229.97899956526322 L 68.19537235603492,200.07004939746722" fill="none" stroke="black" stroke-linecap="round" stroke-linejoin="round" stroke-width="2" /><path d="M 68.1799390262293,198.35075786422118 L 88.71096016918253,199.4019028005436 L 109.24198131213575,198.14623601075317 L 129.77300245508897,202.2654849860265 L 150.3040235980422,199.3205802363155 L 170.83504474099541,198.2012847189205 L 191.36606588394864,200.83332236496292 L 211.89708702690186,198.95578886191439" fill="none" stroke="black" stroke-linecap="round" stroke-linejoin="round" stroke-width="2" /><path d="M 211.63710495258906,200.0899950914778 L 213.3418494215323,229.99894525927385 L 211.8171115077664,259.9078954270699" fill="none" stroke="black" stroke-linecap="round" stroke-linejoin="round" stroke-width="2" /><path d="M 211.89708702690186,259.16741184855357 L 191.36606588394864,260.4736105217565 L 170.83504474099541,258.77850210437913 L 150.3040235980422,261.59165080686097 L 129.77300245508897,259.7054527872386 L 109.24198131213575,259.2276298934288 L 88.71096016918253,260.4765263062524 L 68.1799390262293,258.68552585288734" fill="none" stroke="black" stroke-linecap="round" stroke-linejoin="round" stroke-width="2" /><path d="M 67.10233553136688,259.9078954270699 L 67.74981569307523,229.99894525927385 L 67.85077858834637,200.0899950914778" fill="none" stroke="black" stroke-linecap="round" stroke-linejoin="round" stroke-width="2" /><text dominant-baseline="middle" fill="black" font-family="Virgil, Comic Sans MS, cursive" font-size="16px" text-anchor="middle" x="140.0" y="230.0">Order Handler</text><path d="M 232.0,201.06141140670113 L 253.98942347592123,200.50838167261256 L 275.97884695184246,199.47610248624946 L 297.9682704277636,199.23826032257168 L 319.95769390368486,199.67260450045092 L 341.9471173796061,198.36914729804292 L 363.93654085552726,201.5507331825113 L 385.9259643314485,201.02223738081406 L 407.9153878073697,200.57844397708115" fill="none" stroke="black" stroke-linecap="round" stroke-linejoin="round" stroke-width="2" /><path d="M 409.0758073275348,200.0 L 406.79923859287726,220.04880199596042 L 407.4516170161713,240.09760399192083 L 407.740508827549,260.1464059878813" fill="none" stroke="black" stroke-linecap="round" stroke-linejoin="round" stroke-width="2" /><path d="M 407.9153878073697,258.5171762481369 L 385.9259643314485,260.3433143885314 L 363.93654085552726,260.58091414653796 L 341.9471173796061,259.79234177313805 L 319.95769390368486,259.3636349149827 L 297.9682704277636,260.90975885658804 L 275.97884695184246,259.4172407415787 L 253.98942347592123,261.10140141352883 L 232.0,258.02626224886876" fill="none" stroke="black" stroke-linecap="round" stroke-linejoin="round" stroke-width="2" /><path d="M 233.06611792232104,260.1464059878813 L 232.83119967819118,240.09760399192086 L 232.52481259399067,220.04880199596045 L 230.4084023817323,200.0" fill="none" stroke="black" stroke-linecap="round" stroke-linejoin="round" stroke-width="2" /><path d="M 232.07642586132354,201.14726405847995 L 254.06584933724474,201.30800129936625 L 276.05527281316597,200.87877351410856 L 298.04469628908714,200.9238097628831 L 320.03411976500837,200.67241259546418 L 342.0235432409296,200.02743057661817 L 364.01296671685077,200.06510808405423 L 386.00239019277205,202.6176143127127 L 407.9918136686932,199.00410905494638" fill="none" stroke="black" stroke-linecap="round" stroke-linejoin="round" stroke-width="2" /><path d="M 408.10872329096867,199.86842357783254 L 407.670480311788,219.917225573793 L 407.2907704168675,239.9660275697534 L 408.69046301376903,260.01482956571385" fill="none" stroke="black" stroke-linecap="round" stroke-linejoin="round" stroke-width="2" /><path d="M 407.9918136686932,260.5308547092286 L 386.002390192772,259.7273857035745 L 364.0129667168508,258.90396594414705 L 342.0235432409296,259.14319516892925 L 320.03411976500837,258.31719534408074 L 298.04469628908714,259.69327330961136 L 276.05527281316597,257.4031463889288 L 254.06584933724474,260.3140726099618 L 232.07642586132354,260.3519771926936" fill="none" stroke="black" stroke-linecap="round" stroke-linejoin="round" stroke-width="2" /><path d="M 233.5169803420307,260.01482956571385 L 232.4235759927936,239.9660275697534 L 231.3993189683066,219.917225573793 L 232.82833418747657,199.86842357783254" fill="none" stroke="black" stroke-linecap="round" stroke-linejoin="round" stroke-width="2" /><path d="M 231.80589511360003,200.367935147432 L 253.79531858952126,198.74312125047993 L 275.78474206544246,200.6531766128664 L 297.7741655413637,200.6927881622401 L 319.7635890172849,200.74266755649847 L 341.75301249320614,200.53725369966222 L 363.7424359691273,200.96305706008076 L 385.73185944504854,199.1979072444409 L 407.72128292096977,200.42924024203788" fill="none" stroke="black" stroke-linecap="round" stroke-linejoin="round" stroke-width="2" /><path d="M 408.2826038258727,199.87212178743493 L 406.0353509269169,219.92092378339535 L 408.3291203229878,239.96972577935577 L 406.6287925909557,260.0185277753162" fill="none" stroke="black" stroke-linecap="round" stroke-linejoin="round" stroke-width="2" /><path d="M 407.72128292096977,259.29718393315466 L 385.73185944504854,260.4063052436522 L 363.7424359691273,260.73199921223045 L 341.75301249320614,261.3834061364473 L 319.7635890172849,260.92959139139805 L 297.7741655413637,260.8153565755556 L 275.78474206544246,260.07682081464924 L 253.79531858952126,260.77369946099645 L 231.80589511360003,260.53844762126585" fill="none" stroke="black" stroke-linecap="round" stroke-linejoin="round" stroke-width="2" /><path d="M 231.9152389604175,260.0185277753162 L 229.41987777984525,239.9697257793558 L 233.1776976542281,219.92092378339538 L 232.30478673955943,199.87212178743493" fill="none" stroke="black" stroke-linecap="round" stroke-linejoin="round" stroke-width="2" /><text dominant-baseline="middle" fill="black" font-family="Virgil, Comic Sans MS, cursive" font-size="16px" text-anchor="middle" x="320.0" y="230.0">Inventory Handler</text><path d="M 428.0,200.74660080170707 L 448.5090150769615,197.92197138720078 L 469.018030153923,200.42543446475136 L 489.5270452308845,199.58944318268223 L 510.036060307846,201.3133827833547 L 530.5450753848075,200.4614147734748 L 551.054090461769,199.39043731890916 L 571.5631055387305,200.7308866329802" fill="none" stroke="black" stroke-linecap="round" stroke-linejoin="round" stroke-width="2" /><path d="M 572.7349792405273,200.0 L 569.962745401148,229.83944996758493 L 570.1943840683613,259.67889993516985" fill="none" stroke="black" stroke-linecap="round" stroke-linejoin="round" stroke-width="2" /><path d="M 571.5631055387305,258.65491228040037 L 551.054090461769,258.5274577312285 L 530.5450753848075,258.5951451223415 L 510.036060307846,259.3843536663749 L 489.5270452308845,259.22117948861535 L 469.018030153923,260.18699513613757 L 448.50901507696153,259.46730359087326 L 428.0,258.82369887493525" fill="none" stroke="black" stroke-linecap="round" stroke-linejoin="round" stroke-width="2" /><path d="M 428.3222995842379,259.67889993516985 L 427.367043687086,229.83944996758493 L 429.0798861516428,200.0" fill="none" stroke="black" stroke-linecap="round" stroke-linejoin="round" stroke-width="2" /><path d="M 427.9096515388224,199.8786626512277 L 448.4186666157839,199.99572769601005 L 468.9276816927454,200.54505276527223 L 489.4366967697069,199.2013357744191 L 509.94571184666836,200.30610389780506 L 530.4547269236299,200.1857064011775 L 550.9637420005913,200.43181603488677 L 571.4727570775528,198.81588375671382" fill="none" stroke="black" stroke-linecap="round" stroke-linejoin="round" stroke-width="2" /><path d="M 571.2259055973458,199.79716289293287 L 570.6992580407403,229.6366128605178 L 569.7916873999659,259.4760628281027" fill="none" stroke="black" stroke-linecap="round" stroke-linejoin="round" stroke-width="2" /><path d="M 571.4727570775528,259.0794504476734 L 550.9637420005913,258.950105391625 L 530.4547269236299,258.63415636570613 L 509.94571184666836,261.59967855463486 L 489.4366967697069,258.98071364274364 L 468.9276816927454,258.43580129303206 L 448.4186666157839,259.78777638230747 L 427.9096515388224,259.45958388127974" fill="none" stroke="black" stroke-linecap="round" stroke-linejoin="round" stroke-width="2" /><path d="M 428.5341633768705,259.4760628281027 L 424.55507618507204,229.6366128605178 L 428.5301645307124,199.79716289293287" fill="none" stroke="black" stroke-linecap="round" stroke-linejoin="round" stroke-width="2" /><path d="M 428.09716476343806,200.75111950655477 L 448.60617984039953,200.2336615142188 L 469.11519491736107,200.16822948478924 L 489.62420999432254,200.46342580932503 L 510.1332250712841,199.40050958947987 L 530.6422401482456,199.24190985838803 L 551.151255225207,201.22149439818506 L 571.6602703021686,200.74968374767624" fill="none" stroke="black" stroke-linecap="round" stroke-linejoin="round" stroke-width="2" /><path d="M 571.9457972627332,200.20401981858822 L 571.3632717873419,230.04346978617315 L 571.6050250577428,259.8829197537581" fill="none" stroke="black" stroke-linecap="round" stroke-linejoin="round" stroke-width="2" /><path d="M 571.6602703021686,259.7417093057767 L 551.151255225207,260.9238843087459 L 530.6422401482456,259.8516873925002 L 510.1332250712841,260.1471487728923 L 489.62420999432254,258.8554312257519 L 469.11519491736107,259.3890389046546 L 448.6061798403996,258.46778530567326 L 428.09716476343806,260.8492949226685" fill="none" stroke="black" stroke-linecap="round" stroke-linejoin="round" stroke-width="2" /><path d="M 428.03112393308277,259.8829197537581 L 428.09250837569107,230.04346978617315 L 428.0309294000034,200.20401981858822" fill="none" stroke="black" stroke-linecap="round" stroke-linejoin="round" stroke-width="2" /><text dominant-baseline="middle" fill="black" font-family="Virgil, Comic Sans MS, cursive" font-size="16px" text-anchor="middle" x="500.0" y="230.0">Email Handler</text><path d="M 592.0,200.89940346196653 L 613.9553974762377,198.62580990157048 L 635.9107949524755,198.0809311943286 L 657.8661924287132,201.40602449305362 L 679.821589904951,198.781184067728 L 701.7769873811889,199.08638527883267 L 723.7323848574266,201.13029874524813 L 745.6877823336644,200.4790757457809 L 767.6431798099021,200.37717062638288" fill="none" stroke="black" stroke-linecap="round" stroke-linejoin="round" stroke-width="2" /><path d="M 769.5816592729159,200.0 L 767.7547445183687,229.88954386048408 L 767.6225533643443,259.77908772096816" fill="none" stroke="black" stroke-linecap="round" stroke-linejoin="round" stroke-width="2" /><path d="M 767.6431798099021,259.42610246167413 L 745.6877823336644,259.09312628566727 L 723.7323848574266,260.3842575759173 L 701.7769873811889,261.73260823121706 L 679.821589904951,258.76886431689763 L 657.8661924287132,260.06763257810786 L 635.9107949524755,261.5462303281948 L 613.9553974762377,259.61996753624203 L 592.0,260.6482331560075" fill="none" stroke="black" stroke-linecap="round" stroke-linejoin="round" stroke-width="2" /><path d="M 592.2676920810602,259.77908772096816 L 590.9142078435024,229.88954386048408 L 592.7931289555818,200.0" fill="none" stroke="black" stroke-linecap="round" stroke-linejoin="round" stroke-width="2" /><path d="M 591.7906608386411,199.87170893740085 L 613.7460583148788,202.7155311232212 L 635.7014557911166,200.29943178920217 L 657.6568532673543,197.95529412002983 L 679.6122507435921,200.86342973213465 L 701.56764821983,201.0186059290616 L 723.5230456960677,199.06526382660226 L 745.4784431723054,199.18427429829197 L 767.4338406485432,202.5644892761661" fill="none" stroke="black" stroke-linecap="round" stroke-linejoin="round" stroke-width="2" /><path d="M 768.999888419017,199.93250172300333 L 766.1983835607019,229.8220455834874 L 766.0249933620514,259.7115894439715" fill="none" stroke="black" stroke-linecap="round" stroke-linejoin="round" stroke-width="2" /><path d="M 767.4338406485432,261.4197766581875 L 745.4784431723054,261.5152821517484 L 723.5230456960677,260.0932482616322 L 701.56764821983,259.7980046649748 L 679.6122507435921,259.93932344161277 L 657.6568532673543,261.65610369840164 L 635.7014557911166,259.016925957534 L 613.7460583148788,259.7104228931919 L 591.7906608386411,259.13945034719353" fill="none" stroke="black" stroke-linecap="round" stroke-linejoin="round" stroke-width="2" /><path d="M 591.6963324862194,259.7115894439715 L 593.3274652035544,229.8220455834874 L 593.4233782908675,199.93250172300333" fill="none" stroke="black" stroke-linecap="round" stroke-linejoin="round" stroke-width="2" /><path d="M 591.9951606292169,199.2794966071599 L 613.9505581054547,199.65169379731915 L 635.9059555816924,199.56455107246833 L 657.8613530579302,200.8301898376172 L 679.816750534168,200.39948988313347 L 701.7721480104058,200.34997551567886 L 723.7275454866435,198.6637247203177 L 745.6829429628813,199.5337195930921 L 767.638340439119,200.67214943027372" fill="none" stroke="black" stroke-linecap="round" stroke-linejoin="round" stroke-width="2" /><path d="M 768.1801472083239,199.8868679171958 L 765.7803001824132,229.77641177767987 L 768.5108403401134,259.66595563816395" fill="none" stroke="black" stroke-linecap="round" stroke-linejoin="round" stroke-width="2" /><path d="M 767.638340439119,261.1398264251118 L 745.6829429628813,260.16343931088954 L 723.7275454866435,260.35708159576194 L 701.7721480104058,260.91270200436975 L 679.816750534168,258.4758107256291 L 657.8613530579302,259.31958917466727 L 635.9059555816924,259.95343108766264 L 613.9505581054547,259.3473181230204 L 591.9951606292169,259.3861228966673" fill="none" stroke="black" stroke-linecap="round" stroke-linejoin="round" stroke-width="2" /><path d="M 594.1001117619703,259.66595563816395 L 591.2418725246049,229.77641177767987 L 591.045073159374,199.8868679171958" fill="none" stroke="black" stroke-linecap="round" stroke-linejoin="round" stroke-width="2" /><text dominant-baseline="middle" fill="black" font-family="Virgil, Comic Sans MS, cursive" font-size="16px" text-anchor="middle" x="680.0" y="230.0">Analytics Handler</text><text dominant-baseline="middle" fill="black" font-family="Virgil, Comic Sans MS, cursive" font-size="16px" text-anchor="middle" x="140.0" y="310.0">Orders DB</text><text dominant-baseline="middle" fill="black" font-family="Virgil, Comic Sans MS, cursive" font-size="16px" text-anchor="middle" x="320.0" y="310.0">Inventory DB</text><path d="M 428.0,279.0001782772707 L 448.5822715848483,280.54432156673994 L 469.16454316969657,279.9016841800153 L 489.7468147545449,281.6732079957016 L 510.3290863393932,280.1892841033763 L 530.9113579242415,282.53331799611635 L 551.4936295090898,280.0113916483028 L 572.0759010939381,281.33459140381865" fill="none" stroke="black" stroke-linecap="round" stroke-linejoin="round" stroke-width="2" /><path d="M 570.3422521508859,280.0 L 572.3884754997026,309.88238144483944 L 573.392023533923,339.7647628896788" fill="none" stroke="black" stroke-linecap="round" stroke-linejoin="round" stroke-width="2" /><path d="M 572.0759010939381,338.7977811080637 L 551.4936295090898,339.8132775264294 L 530.9113579242415,339.3648968437207 L 510.3290863393932,340.49962836486253 L 489.7468147545449,340.7798942261346 L 469.16454316969657,339.622575921925 L 448.5822715848483,338.21073263770364 L 428.0,338.92483652499504" fill="none" stroke="black" stroke-linecap="round" stroke-linejoin="round" stroke-width="2" /><path d="M 427.35973239978836,339.7647628896788 L 427.1247525103142,309.88238144483944 L 427.9150429489066,280.0" fill="none" stroke="black" stroke-linecap="round" stroke-linejoin="round" stroke-width="2" /><path d="M 428.03714142281564,278.6118071875676 L 448.6194130076639,279.1236525836298 L 469.20168459251227,278.5489301835938 L 489.78395617736055,279.01345791899377 L 510.3662277622089,281.0896426479654 L 530.9484993470572,280.5372041533923 L 551.5307709319055,280.3355955389608 L 572.1130425167538,279.22707572260026" fill="none" stroke="black" stroke-linecap="round" stroke-linejoin="round" stroke-width="2" /><path d="M 571.0046339617555,280.00720000810253 L 572.9803468571084,309.8895814529419 L 572.4996426295422,339.77196289778135" fill="none" stroke="black" stroke-linecap="round" stroke-linejoin="round" stroke-width="2" /><path d="M 572.1130425167538,338.5532673775956 L 551.5307709319055,340.53642846291694 L 530.9484993470572,340.2256754633992 L 510.3662277622089,338.72404220981844 L 489.78395617736055,340.6795735115531 L 469.20168459251227,339.998064877111 L 448.619413007664,338.8329681251981 L 428.03714142281564,339.3274938569269" fill="none" stroke="black" stroke-linecap="round" stroke-linejoin="round" stroke-width="2" /><path d="M 429.19215017600817,339.77196289778135 L 427.43620248855797,309.8895814529419 L 428.23970161412257,280.00720000810253" fill="none" stroke="black" stroke-linecap="round" stroke-linejoin="round" stroke-width="2" /><path d="M 427.8478644490337,281.01024548293503 L 448.430136033882,281.04817471618225 L 469.01240761873026,280.63217735572715 L 489.59467920357855,280.4114603087242 L 510.1769507884269,280.8247997975313 L 530.7592223732752,279.98497384287174 L 551.3414939581235,279.01257407646625 L 571.9237655429718,279.64855136251236" fill="none" stroke="black" stroke-linecap="round" stroke-linejoin="round" stroke-width="2" /><path d="M 570.9102919899045,279.79941953817627 L 573.700609748797,309.6818009830157 L 572.8171442205269,339.5641824278551" fill="none" stroke="black" stroke-linecap="round" stroke-linejoin="round" stroke-width="2" /><path d="M 571.9237655429718,339.2815406930362 L 551.3414939581235,339.12904391229114 L 530.7592223732752,339.8289438170363 L 510.1769507884269,340.65625627127605 L 489.5946792035786,341.0343477575812 L 469.01240761873026,340.18164932865767 L 448.430136033882,339.7112320419601 L 427.8478644490337,340.3624350121121" fill="none" stroke="black" stroke-linecap="round" stroke-linejoin="round" stroke-width="2" /><path d="M 427.17851494967357,339.5641824278551 L 428.46270541750084,309.6818009830157 L 426.8265699971071,279.79941953817627" fill="none" stroke="black" stroke-linecap="round" stroke-linejoin="round" stroke-width="2" /><text dominant-baseline="middle" fill="black" font-family="Virgil, Comic Sans MS, cursive" font-size="16px" text-anchor="middle" x="500.0" y="310.0">Email Service</text><text dominant-baseline="middle" fill="black" font-family="Virgil, Comic Sans MS, cursive" font-size="16px" text-anchor="middle" x="680.0" y="310.0">Analytics DB</text><path d="M 40.0,358.14959004317114 L 62.19622942146246,360.9457434405417 L 84.39245884292492,360.0208668643568 L 106.58868826438737,359.99600434268416 L 128.78491768584985,362.53269148200746 L 150.98114710731232,360.4699751840229 L 173.17737652877474,359.7056030847658 L 195.37360595023722,357.8403071712714 L 217.56983537169967,359.994022130805 L 239.76606479316214,360.88980721717087" fill="none" stroke="black" stroke-linecap="round" stroke-linejoin="round" stroke-width="2" /><path d="M 242.36034505971554,360.0 L 241.0246566574702,380.0597955611813 L 238.44112570112878,400.1195911223626 L 240.6137805400884,420.1793866835439" fill="none" stroke="black" stroke-linecap="round" stroke-linejoin="round" stroke-width="2" /><path d="M 239.76606479316214,420.8993116687274 L 217.5698353716997,420.0868080453074 L 195.37360595023722,420.9717250795321 L 173.17737652877477,420.82173454731065 L 150.98114710731232,421.34105645235076 L 128.78491768584985,420.5958486774047 L 106.5886882643874,421.6746761570355 L 84.39245884292492,419.2149968012588 L 62.196229421462476,420.2461974230311 L 40.0,419.83914440389776" fill="none" stroke="black" stroke-linecap="round" stroke-linejoin="round" stroke-width="2" /><path d="M 40.48081307524851,420.1793866835439 L 39.67874177884386,400.1195911223626 L 40.41571470166106,380.0597955611813 L 38.79213119564895,360.0" fill="none" stroke="black" stroke-linecap="round" stroke-linejoin="round" stroke-width="2" /><path d="M 39.91657472048752,358.98787723014306 L 62.11280414194998,361.1034772162864 L 84.30903356341244,359.78328619547307 L 106.50526298487489,360.4905163389723 L 128.70149240633737,359.3290252246337 L 150.89772182779984,357.7783850184074 L 173.09395124926226,361.63354183381193 L 195.29018067072474,359.34612914947525 L 217.48641009218719,360.0091832872725 L 239.68263951364966,359.25869991425446" fill="none" stroke="black" stroke-linecap="round" stroke-linejoin="round" stroke-width="2" /><path d="M 239.22740575569364,359.9084436618041 L 237.79368926507487,379.9682392229854 L 239.2925667254329,400.02803478416666 L 240.13922353664103,420.087830345348" fill="none" stroke="black" stroke-linecap="round" stroke-linejoin="round" stroke-width="2" /><path d="M 239.68263951364966,418.83154179002946 L 217.4864100921872,420.73023610179166 L 195.29018067072474,420.6362053483526 L 173.0939512492623,421.3643937863882 L 150.89772182779984,420.0510967643527 L 128.70149240633737,419.3813522042961 L 106.50526298487492,420.72771041851746 L 84.30903356341244,420.9236924844389 L 62.112804141949994,419.4743406175006 L 39.91657472048752,419.67797523387935" fill="none" stroke="black" stroke-linecap="round" stroke-linejoin="round" stroke-width="2" /><path d="M 39.43655329214647,420.087830345348 L 39.83234907789231,400.02803478416666 L 39.99030014376664,379.9682392229854 L 40.860581495261584,359.9084436618041" fill="none" stroke="black" stroke-linecap="round" stroke-linejoin="round" stroke-width="2" /><path d="M 40.060457811496775,360.0526222239293 L 62.25668723295924,359.1683687473849 L 84.4529166544217,359.2050049682319 L 106.64914607588415,357.3565600130792 L 128.8453754973466,359.5070402329214 L 151.04160491880907,358.50039003357614 L 173.23783434027152,361.2583532478489 L 195.434063761734,358.97872622491514 L 217.63029318319644,359.67701033347015 L 239.82652260465892,359.8668909536852" fill="none" stroke="black" stroke-linecap="round" stroke-linejoin="round" stroke-width="2" /><path d="M 242.1056794758945,360.0330497409844 L 239.3337097478379,380.0928453021657 L 238.8719624675966,400.15264086334696 L 240.54829778184708,420.2124364245283" fill="none" stroke="black" stroke-linecap="round" stroke-linejoin="round" stroke-width="2" /><path d="M 239.82652260465892,420.1674602030771 L 217.63029318319647,421.4547905373591 L 195.434063761734,419.7286114198908 L 173.23783434027155,420.76444976189816 L 151.04160491880907,420.6475491756496 L 128.8453754973466,420.15410157851636 L 106.64914607588418,421.3016353216641 L 84.4529166544217,419.81123644079764 L 62.25668723295925,419.4040833617366 L 40.060457811496775,421.0026585872963" fill="none" stroke="black" stroke-linecap="round" stroke-linejoin="round" stroke-width="2" /><path d="M 40.28273279082617,420.2124364245283 L 40.272792391745014,400.15264086334696 L 41.13235811747732,380.0928453021657 L 39.912854268842025,360.0330497409844" fill="none" stroke="black" stroke-linecap="round" stroke-linejoin="round" stroke-width="2" /><text dominant-baseline="middle" fill="black" font-family="Virgil, Comic Sans MS, cursive" font-size="16px" text-anchor="middle" x="140.0" y="390.0">Order Complete Event</text><path d="M 40.0,437.671154133104 L 60.020259764896856,438.8545441254749 L 80.04051952979371,439.5291942875478 L 100.06077929469056,441.9277564377869 L 120.08103905958743,436.91546627119124 L 140.10129882448427,440.1603899575544 L 160.12155858938112,438.09557884868315 L 180.14181835427797,437.7853389442538 L 200.16207811917485,439.33683658313095 L 220.1823378840717,439.0445700604039 L 240.20259764896855,440.207955807024" fill="none" stroke="black" stroke-linecap="round" stroke-linejoin="round" stroke-width="2" /><path d="M 240.32688598746606,440.0 L 238.31745865081814,460.1208471648997 L 242.38837149753965,480.2416943297995 L 242.178717608505,500.3625414946992" fill="none" stroke="black" stroke-linecap="round" stroke-linejoin="round" stroke-width="2" /><path d="M 240.20259764896855,500.7234928860162 L 220.1823378840717,500.39580593829174 L 200.16207811917485,499.5923557562453 L 180.14181835427797,500.5043019529394 L 160.12155858938112,499.5867369217631 L 140.10129882448427,498.7015720455599 L 120.08103905958743,500.2501479506149 L 100.06077929469058,501.66927204009056 L 80.0405195297937,500.31759334846095 L 60.02025976489685,501.1265530952498 L 40.0,500.2479930821398" fill="none" stroke="black" stroke-linecap="round" stroke-linejoin="round" stroke-width="2" /><path d="M 41.012852281835855,500.3625414946992 L 39.62794341437287,480.2416943297995 L 39.13972553359783,460.1208471648997 L 41.695870660803934,440.0" fill="none" stroke="black" stroke-linecap="round" stroke-linejoin="round" stroke-width="2" /><path d="M 40.18665167292065,441.3089599176509 L 60.2069114378175,439.55382583361865 L 80.22717120271436,439.5428772666916 L 100.24743096761121,439.9812582056577 L 120.26769073250807,440.8062275883491 L 140.28795049740492,440.96383259846044 L 160.30821026230177,437.86177321095454 L 180.32847002719862,441.37708302858323 L 200.3487297920955,441.1254821453558 L 220.36898955699235,441.33442372788215 L 240.3892493218892,439.6845965553714" fill="none" stroke="black" stroke-linecap="round" stroke-linejoin="round" stroke-width="2" /><path d="M 238.6921302967166,440.10825597585415 L 240.49984797493656,460.22910314075386 L 237.99426944669963,480.34995030565364 L 239.30703741077727,500.47079747055335" fill="none" stroke="black" stroke-linecap="round" stroke-linejoin="round" stroke-width="2" /><path d="M 240.3892493218892,499.8341585923218 L 220.36898955699235,502.1622370272426 L 200.34872979209547,500.5680267869483 L 180.32847002719865,498.7994359795293 L 160.30821026230177,502.64990430362695 L 140.28795049740492,500.7903836542975 L 120.26769073250807,499.61846632827996 L 100.24743096761122,499.22848610807915 L 80.22717120271435,498.9812112223864 L 60.206911437817496,499.74069154385535 L 40.18665167292065,499.78425229383294" fill="none" stroke="black" stroke-linecap="round" stroke-linejoin="round" stroke-width="2" /><path d="M 40.64349199964555,500.47079747055335 L 40.20364369720028,480.34995030565364 L 40.82881805834563,460.22910314075386 L 40.44022975785672,440.10825597585415" fill="none" stroke="black" stroke-linecap="round" stroke-linejoin="round" stroke-width="2" /><path d="M 40.05762125065829,441.342283694047 L 60.07788101555515,441.0165999378831 L 80.09814078045201,442.4051226582629 L 100.11840054534886,440.63709675343875 L 120.13866031024571,439.65634201405396 L 140.15892007514256,440.7671471060189 L 160.1791798400394,441.0283282679623 L 180.19943960493626,439.9505954433479 L 200.21969936983314,440.9706389046928 L 220.23995913473,440.1899032628902 L 240.26021889962684,439.2682146649451" fill="none" stroke="black" stroke-linecap="round" stroke-linejoin="round" stroke-width="2" /><path d="M 239.54052989843828,440.1488925826372 L 239.95730169105963,460.2697397475369 L 239.8362338500913,480.3905869124367 L 239.92817539594762,500.5114340773364" fill="none" stroke="black" stroke-linecap="round" stroke-linejoin="round" stroke-width="2" /><path d="M 240.26021889962684,499.9780298878643 L 220.23995913473,499.97885606148066 L 200.2196993698331,501.3327102412012 L 180.1994396049363,500.96617051653726 L 160.1791798400394,501.06320527148307 L 140.15892007514256,501.4104427294313 L 120.13866031024571,500.67650658523837 L 100.11840054534886,499.80967304904067 L 80.09814078045198,497.4153297313267 L 60.077881015555135,500.3698584595254 L 40.057621250658286,499.5213131518762" fill="none" stroke="black" stroke-linecap="round" stroke-linejoin="round" stroke-width="2" /><path d="M 40.80727406858967,500.5114340773364 L 39.20592093931658,480.3905869124367 L 38.902127258783224,460.2697397475369 L 40.33474867230057,440.1488925826372" fill="none" stroke="black" stroke-linecap="round" stroke-linejoin="round" stroke-width="2" /><text dominant-baseline="middle" fill="black" font-family="Virgil, Comic Sans MS, cursive" font-size="16px" text-anchor="middle" x="140.0" y="470.0">Notification Service</text></g></svg>