<?xml version="1.0" encoding="utf-8" ?>
<svg baseProfile="full" height="404.0px" version="1.1" viewBox="0 0 300.0 404.0" width="300.0px" xmlns="http://www.w3.org/2000/svg" xmlns:ev="http://www.w3.org/2001/xml-events" xmlns:xlink="http://www.w3.org/1999/xlink"><defs /><rect fill="white" height="404.0" width="300.0" x="0" y="0" /><g><path d="M 151.48312776611408,100.0 L 149.2660536512685,110.0 L 149.67098351133123,120.0" fill="none" stroke="black" stroke-linecap="round" stroke-linejoin="round" stroke-width="2" /><path d="M 146.26005996279366,112.76359201357248 L 148.86939270785433,115.955751098194 L 149.67098351133123,120.0" fill="none" stroke="black" stroke-linecap="round" stroke-linejoin="round" stroke-width="2" /><path d="M 152.48565153529262,112.51149922114651 L 151.68683949074466,116.48447193753724 L 149.67098351133123,120.0" fill="none" stroke="black" stroke-linecap="round" stroke-linejoin="round" stroke-width="2" /><path d="M 149.6599711216212,202.97991336486356 L 129.71778283227528,209.82001516349249 L 109.85824788278815,216.9080769816978 L 89.61745640835271,222.8523692250581" fill="none" stroke="black" stroke-linecap="round" stroke-linejoin="round" stroke-width="2" /><path d="M 96.96258381128345,216.8437247563742 L 93.9636705874546,220.67153531808748 L 89.61745640835271,222.8523692250581" fill="none" stroke="black" stroke-linecap="round" stroke-linejoin="round" stroke-width="2" /><path d="M 99.0451936586444,223.93517819056967 L 94.05253501223842,225.8211262253487 L 89.61745640835271,222.8523692250581" fill="none" stroke="black" stroke-linecap="round" stroke-linejoin="round" stroke-width="2" /><text fill="black" font-family="Virgil, Comic Sans MS, cursive" font-size="14px" text-anchor="middle" x="129.71778283227528" y="199.82001516349249">Yes</text><path d="M 150.7647703544767,201.7056889365699 L 170.26017113095344,209.88615327380637 L 190.38574979555338,216.1760839466732 L 209.60072752138157,225.19781743585526" fill="none" stroke="black" stroke-linecap="round" stroke-linejoin="round" stroke-width="2" /><path d="M 200.08966429790058,224.82703948353162 L 204.86837904638423,224.4177429399609 L 209.60072752138157,225.19781743585526" fill="none" stroke="black" stroke-linecap="round" stroke-linejoin="round" stroke-width="2" /><path d="M 203.2402857830279,218.11667481449885 L 206.2776477846871,221.78556517652797 L 209.60072752138157,225.19781743585526" fill="none" stroke="black" stroke-linecap="round" stroke-linejoin="round" stroke-width="2" /><text fill="black" font-family="Virgil, Comic Sans MS, cursive" font-size="14px" text-anchor="middle" x="170.26017113095344" y="199.88615327380637">No</text><path d="M 210.05561602119957,223.8331519364013 L 189.87725182031687,217.70157787238273 L 169.67215809834843,211.65019237162136 L 150.06729537126998,203.79811388619004" fill="none" stroke="black" stroke-linecap="round" stroke-linejoin="round" stroke-width="2" /><path d="M 159.56058321092695,203.61726277763742 L 154.80962621495553,203.4812851120123 L 150.06729537126998,203.79811388619004" fill="none" stroke="black" stroke-linecap="round" stroke-linejoin="round" stroke-width="2" /><path d="M 156.811067347189,210.48218155990884 L 153.71085467560724,206.8660477307952 L 150.06729537126998,203.79811388619004" fill="none" stroke="black" stroke-linecap="round" stroke-linejoin="round" stroke-width="2" /><path d="M 89.02462062590716,284.0 L 89.54302861999268,294.0 L 90.41458049342418,304.0" fill="none" stroke="black" stroke-linecap="round" stroke-linejoin="round" stroke-width="2" /><path d="M 86.67122223492765,296.92983246672713 L 88.90098630501353,300.2753252209555 L 90.41458049342418,304.0" fill="none" stroke="black" stroke-linecap="round" stroke-linejoin="round" stroke-width="2" /><path d="M 92.87838542291287,296.3888459962088 L 92.73229902647373,300.5459122703325 L 90.41458049342418,304.0" fill="none" stroke="black" stroke-linecap="round" stroke-linejoin="round" stroke-width="2" /><path d="M 100.0,41.21089691257257 L 124.88703600590324,39.56211370904232 L 149.77407201180648,40.26987006543345 L 174.6611080177097,40.497979609135356 L 199.54814402361293,38.73898361179937" fill="none" stroke="black" stroke-linecap="round" stroke-linejoin="round" stroke-width="2" /><path d="M 197.61850826703045,40.0 L 199.38600685140875,60.01314216672875 L 200.041844996575,80.0262843334575 L 197.99004603369602,100.03942650018625" fill="none" stroke="black" stroke-linecap="round" stroke-linejoin="round" stroke-width="2" /><path d="M 199.54814402361293,100.17943602775797 L 174.6611080177097,101.72565554763338 L 149.77407201180648,99.26588692756967 L 124.88703600590324,99.74115625735185 L 100.0,99.61001479921273" fill="none" stroke="black" stroke-linecap="round" stroke-linejoin="round" stroke-width="2" /><path d="M 100.75780854753269,100.03942650018625 L 100.40459516623434,80.02628433345751 L 100.91855047446376,60.013142166728755 L 100.49758431336407,40.0" fill="none" stroke="black" stroke-linecap="round" stroke-linejoin="round" stroke-width="2" /><path d="M 100.0467265145234,39.06904586905973 L 124.93376252042664,39.51553180338662 L 149.82079852632987,40.139974501230874 L 174.7078345322331,40.1438766123197 L 199.59487053813635,40.28220687290256" fill="none" stroke="black" stroke-linecap="round" stroke-linejoin="round" stroke-width="2" /><path d="M 199.75084721503907,40.12717592619088 L 197.79095469579786,60.14031809291963 L 199.73522999078853,80.15346025964838 L 199.93402986114722,100.16660242637714" fill="none" stroke="black" stroke-linecap="round" stroke-linejoin="round" stroke-width="2" /><path d="M 199.59487053813635,101.56835153378199 L 174.7078345322331,100.40096300711124 L 149.82079852632987,100.80441745751457 L 124.93376252042664,101.43302160671361 L 100.0467265145234,100.67480919533622" fill="none" stroke="black" stroke-linecap="round" stroke-linejoin="round" stroke-width="2" /><path d="M 99.16028063892728,100.16660242637714 L 100.1517708729344,80.15346025964838 L 99.97542233175618,60.140318092919635 L 101.56661289499708,40.12717592619088" fill="none" stroke="black" stroke-linecap="round" stroke-linejoin="round" stroke-width="2" /><path d="M 100.07457793025858,40.443495960570324 L 124.96161393616183,41.09169624718076 L 149.84864994206504,40.40552089245573 L 174.73568594796828,41.73010501728408 L 199.62272195387152,42.42309490019383" fill="none" stroke="black" stroke-linecap="round" stroke-linejoin="round" stroke-width="2" /><path d="M 199.41337229606654,40.33880357085277 L 199.4287916797739,60.35194573758152 L 199.32101936791108,80.36508790431027 L 199.83938319671765,100.37823007103903" fill="none" stroke="black" stroke-linecap="round" stroke-linejoin="round" stroke-width="2" /><path d="M 199.62272195387152,99.15023936385856 L 174.73568594796828,100.33865787856071 L 149.84864994206504,99.75571784649117 L 124.96161393616183,100.85948480298609 L 100.07457793025858,101.54966071956692" fill="none" stroke="black" stroke-linecap="round" stroke-linejoin="round" stroke-width="2" /><path d="M 100.69575880622726,100.37823007103903 L 98.15673333754803,80.36508790431027 L 102.03880504411819,60.351945737581524 L 100.44542864461097,40.33880357085277" fill="none" stroke="black" stroke-linecap="round" stroke-linejoin="round" stroke-width="2" /><text dominant-baseline="middle" fill="black" font-family="Virgil, Comic Sans MS, cursive" font-size="16px" text-anchor="middle" x="150.0" y="70.0">Start</text><path d="M 149.79400428840182,120.5218558027154 L 171.2446638656265,128.4895182070795 L 191.9027242616942,138.4650985370414 L 214.0183697192244,144.7481300446314 L 234.81658655493314,154.36864739416941 L 257.03466396360744,160.3921846255277" fill="none" stroke="black" stroke-linecap="round" stroke-linejoin="round" stroke-width="2" /><path d="M 256.7031135130618,162.76788756642324 L 235.24778011716586,170.72370963015354 L 213.47208323117994,177.86794418565592 L 192.87233127532886,187.99123923083312 L 170.72227069898173,194.18708577075378 L 150.0001755979017,204.00044484801765" fill="none" stroke="black" stroke-linecap="round" stroke-linejoin="round" stroke-width="2" /><path d="M 150.31326361357264,203.20639884561595 L 128.46807482587158,196.23821044112532 L 108.26225228041955,185.11696088960377 L 86.33795482099984,178.34918112013378 L 64.9137227441758,170.31456904808798 L 44.45774448277886,159.82704731029358" fill="none" stroke="black" stroke-linecap="round" stroke-linejoin="round" stroke-width="2" /><path d="M 44.17176760107984,163.44847792273558 L 65.16184405217497,154.31400493217657 L 86.4223326133069,145.8645759537108 L 106.8324408885499,135.26085025099306 L 128.38722786907223,127.55697726831625 L 149.46768277255262,118.65146302379999" fill="none" stroke="black" stroke-linecap="round" stroke-linejoin="round" stroke-width="2" /><path d="M 150.72867320991824,118.67355688218196 L 172.15060874570602,126.73595821654415 L 193.4457830804947,135.12000253719808 L 213.54797311573307,146.53111688939472 L 235.5081731442241,153.22772965845917 L 256.59848098260056,162.13160079660798" fill="none" stroke="black" stroke-linecap="round" stroke-linejoin="round" stroke-width="2" /><path d="M 256.96818869901034,162.69304434413195 L 234.7699019572049,168.78553754929763 L 214.3297065514553,179.33899943451647 L 191.87846030505702,184.7896349590441 L 171.6010562686301,195.7561625280747 L 149.8017643921837,202.86106251857942" fill="none" stroke="black" stroke-linecap="round" stroke-linejoin="round" stroke-width="2" /><path d="M 150.47302074477633,203.2362328454506 L 129.13661344112543,194.95681277207407 L 107.56723876600498,187.2685224803457 L 86.12577703853363,179.2556667684178 L 64.29763110130416,172.22398087026764 L 43.88034834239718,161.61238059494022" fill="none" stroke="black" stroke-linecap="round" stroke-linejoin="round" stroke-width="2" /><path d="M 44.21113139930682,163.1134973865796 L 65.35970300952286,154.35746433626363 L 86.33886162168154,145.1715639276208 L 107.53298816069213,136.53112163553612 L 128.68243941495282,127.77732058787697 L 150.11366500375428,119.73849176916293" fill="none" stroke="black" stroke-linecap="round" stroke-linejoin="round" stroke-width="2" /><path d="M 149.93655301308198,119.53969091174164 L 171.4942300176231,127.24724437434678 L 192.39985641492476,136.59802501483114 L 213.92979303643688,144.3754867802764 L 235.24830472567965,152.68575871555979 L 256.94810970106795,160.03513669018915" fill="none" stroke="black" stroke-linecap="round" stroke-linejoin="round" stroke-width="2" /><path d="M 255.86177298680943,160.93171986217087 L 234.38744235660172,168.84931381237277 L 213.16046276082457,177.39025499627118 L 192.3387886843807,186.9526031650239 L 170.88277981096914,194.9163696183715 L 150.17955447314083,204.77721944377117" fill="none" stroke="black" stroke-linecap="round" stroke-linejoin="round" stroke-width="2" /><path d="M 149.94047829569388,203.9210981766796 L 128.75932080004372,195.2646811087928 L 107.21780102461841,187.51640995080092 L 86.3306455431026,178.1190809128722 L 64.63410446179503,170.7614776265882 L 44.03253610604451,160.64444290707638" fill="none" stroke="black" stroke-linecap="round" stroke-linejoin="round" stroke-width="2" /><path d="M 43.666282822890444,162.1370897627415 L 65.03348122155431,153.94951278891355 L 86.48417190772375,145.97234401722397 L 107.75100762972683,137.53184391733396 L 128.8275773515338,128.61185609198608 L 149.76831219213187,119.3495519402239" fill="none" stroke="black" stroke-linecap="round" stroke-linejoin="round" stroke-width="2" /><text dominant-baseline="middle" fill="black" font-family="Virgil, Comic Sans MS, cursive" font-size="16px" text-anchor="middle" x="150.0" y="162.0">Is it working?</text><path d="M 40.0,224.83821395787274 L 64.91280798499454,225.57587941978588 L 89.82561596998907,223.84267326468475 L 114.7384239549836,222.31669300478768 L 139.65123193997815,223.31865746904563" fill="none" stroke="black" stroke-linecap="round" stroke-linejoin="round" stroke-width="2" /><path d="M 139.07227828209398,224.0 L 139.48349403948492,253.94756579599203 L 138.56066854461017,283.89513159198407" fill="none" stroke="black" stroke-linecap="round" stroke-linejoin="round" stroke-width="2" /><path d="M 139.65123193997815,282.5814107193316 L 114.7384239549836,284.40160294523355 L 89.82561596998907,286.2352890301057 L 64.91280798499454,284.4231818560582 L 40.0,283.4184391015134" fill="none" stroke="black" stroke-linecap="round" stroke-linejoin="round" stroke-width="2" /><path d="M 40.43214814479643,283.89513159198407 L 40.27900671464328,253.94756579599203 L 39.15108041102593,224.0" fill="none" stroke="black" stroke-linecap="round" stroke-linejoin="round" stroke-width="2" /><path d="M 39.94259885438916,225.16270236405177 L 64.8554068393837,224.23367620298333 L 89.76821482437823,222.12438345838873 L 114.68102280937276,225.25767229513735 L 139.5938307943673,224.00998573739543" fill="none" stroke="black" stroke-linecap="round" stroke-linejoin="round" stroke-width="2" /><path d="M 140.21011381000795,224.11102157149807 L 139.46109859140935,254.05858736749008 L 139.35653316629492,284.0061531634821" fill="none" stroke="black" stroke-linecap="round" stroke-linejoin="round" stroke-width="2" /><path d="M 139.5938307943673,283.37913723917785 L 114.68102280937276,283.90962761127764 L 89.76821482437823,285.2543572941064 L 64.8554068393837,283.47340265769077 L 39.94259885438916,283.51700798470625" fill="none" stroke="black" stroke-linecap="round" stroke-linejoin="round" stroke-width="2" /><path d="M 38.79786825085425,284.0061531634821 L 39.09431896667788,254.05858736749008 L 38.60732687608894,224.11102157149807" fill="none" stroke="black" stroke-linecap="round" stroke-linejoin="round" stroke-width="2" /><path d="M 39.88015830101032,225.05864116009525 L 64.79296628600486,223.51622075326026 L 89.7057742709994,222.68200378442324 L 114.61858225599391,223.17253591330336 L 139.53139024098846,224.11730475231812" fill="none" stroke="black" stroke-linecap="round" stroke-linejoin="round" stroke-width="2" /><path d="M 139.59281263883204,224.14296998208323 L 139.3139585592303,254.09053577807526 L 140.67443307910384,284.0381015740673" fill="none" stroke="black" stroke-linecap="round" stroke-linejoin="round" stroke-width="2" /><path d="M 139.53139024098846,283.92734850046975 L 114.61858225599391,284.2643805165031 L 89.70577427099938,283.88276330452175 L 64.79296628600486,285.0976606765688 L 39.88015830101031,282.53241354711895" fill="none" stroke="black" stroke-linecap="round" stroke-linejoin="round" stroke-width="2" /><path d="M 39.936378947566915,284.0381015740673 L 39.62308267871653,254.09053577807526 L 41.07109449815767,224.14296998208323" fill="none" stroke="black" stroke-linecap="round" stroke-linejoin="round" stroke-width="2" /><text dominant-baseline="middle" fill="black" font-family="Virgil, Comic Sans MS, cursive" font-size="16px" text-anchor="middle" x="90.0" y="254.0">Great!</text><path d="M 160.0,223.16053433913788 L 184.91860350352252,225.2697675978125 L 209.83720700704504,225.47214959814676 L 234.75581051056756,224.67508415921526 L 259.6744140140901,223.55217811404205" fill="none" stroke="black" stroke-linecap="round" stroke-linejoin="round" stroke-width="2" /><path d="M 258.961225822556,224.0 L 259.11049043337215,253.9691019065263 L 259.682330712152,283.9382038130526" fill="none" stroke="black" stroke-linecap="round" stroke-linejoin="round" stroke-width="2" /><path d="M 259.6744140140901,283.8464646793414 L 234.75581051056756,283.58732694709704 L 209.83720700704504,284.7808487867115 L 184.91860350352252,283.71525571284906 L 160.0,285.2333759836559" fill="none" stroke="black" stroke-linecap="round" stroke-linejoin="round" stroke-width="2" /><path d="M 158.6776899530362,283.9382038130526 L 161.3023121010063,253.9691019065263 L 157.88686101132245,224.0" fill="none" stroke="black" stroke-linecap="round" stroke-linejoin="round" stroke-width="2" /><path d="M 159.71841034764753,223.85782244969883 L 184.63701385117005,223.93078660133318 L 209.55561735469257,223.80771580685848 L 234.4742208582151,224.10617741259324 L 259.3928243617376,224.8233486958148" fill="none" stroke="black" stroke-linecap="round" stroke-linejoin="round" stroke-width="2" /><path d="M 259.77706014875156,224.0489753731784 L 259.03140597902546,254.0180772797047 L 259.39669591060954,283.987179186231" fill="none" stroke="black" stroke-linecap="round" stroke-linejoin="round" stroke-width="2" /><path d="M 259.3928243617376,283.8244252741933 L 234.4742208582151,284.30308084459364 L 209.55561735469257,283.67867781490867 L 184.63701385117005,284.33869333684015 L 159.71841034764753,283.5950951413719" fill="none" stroke="black" stroke-linecap="round" stroke-linejoin="round" stroke-width="2" /><path d="M 158.43268840179664,283.987179186231 L 159.19693701475023,254.0180772797047 L 161.85531582527133,224.0489753731784" fill="none" stroke="black" stroke-linecap="round" stroke-linejoin="round" stroke-width="2" /><path d="M 160.07875457700706,225.4282672373372 L 184.99735808052958,223.2578082249707 L 209.91596158405207,226.3268924344977 L 234.8345650875746,222.88994822116734 L 259.7531685910971,223.3019334117714" fill="none" stroke="black" stroke-linecap="round" stroke-linejoin="round" stroke-width="2" /><path d="M 259.3696454569839,224.40669489407824 L 259.663526421588,254.37579680060452 L 260.1990038220827,284.3448987071308" fill="none" stroke="black" stroke-linecap="round" stroke-linejoin="round" stroke-width="2" /><path d="M 259.7531685910971,285.5994843764197 L 234.8345650875746,284.61600320591094 L 209.91596158405207,284.5571992862582 L 184.99735808052958,283.6308018091612 L 160.07875457700706,284.18550816286256" fill="none" stroke="black" stroke-linecap="round" stroke-linejoin="round" stroke-width="2" /><path d="M 160.14136958512418,284.3448987071308 L 159.49599493728883,254.37579680060452 L 159.41992776874122,224.40669489407824" fill="none" stroke="black" stroke-linecap="round" stroke-linejoin="round" stroke-width="2" /><text dominant-baseline="middle" fill="black" font-family="Virgil, Comic Sans MS, cursive" font-size="16px" text-anchor="middle" x="210.0" y="254.0">Debug</text><path d="M 40.0,303.9124382129398 L 60.011376576438764,302.8043024831804 L 80.02275315287753,304.776853198822 L 100.0341297293163,304.4244874659982 L 120.04550630575507,303.4968523780329 L 140.05688288219383,303.2200355143271" fill="none" stroke="black" stroke-linecap="round" stroke-linejoin="round" stroke-width="2" /><path d="M 139.6101083041242,304.0 L 139.7592729106946,324.1175439667047 L 139.97252476823002,344.23508793340943 L 139.63495366234568,364.35263190011415" fill="none" stroke="black" stroke-linecap="round" stroke-linejoin="round" stroke-width="2" /><path d="M 140.05688288219383,364.01049537577137 L 120.04550630575507,362.8870171061288 L 100.0341297293163,364.068796870362 L 80.02275315287753,363.14026506745716 L 60.011376576438764,363.60203451138204 L 40.0,366.26175993672814" fill="none" stroke="black" stroke-linecap="round" stroke-linejoin="round" stroke-width="2" /><path d="M 40.68617306084308,364.35263190011415 L 39.79499805010808,344.23508793340943 L 39.975467542579466,324.1175439667047 L 40.41112770563607,304.0" fill="none" stroke="black" stroke-linecap="round" stroke-linejoin="round" stroke-width="2" /><path d="M 40.20340445823056,304.17317513329294 L 60.21478103466933,303.96599364751256 L 80.22615761110809,304.64662096852305 L 100.23753418754686,304.6058286148753 L 120.24891076398563,305.3874910841356 L 140.26028734042438,302.3080550667152" fill="none" stroke="black" stroke-linecap="round" stroke-linejoin="round" stroke-width="2" /><path d="M 140.22932932501604,304.1417954615331 L 141.01341013867352,324.2593394282378 L 140.18464120572614,344.3768833949425 L 139.69233549691722,364.49442736164724" fill="none" stroke="black" stroke-linecap="round" stroke-linejoin="round" stroke-width="2" /><path d="M 140.26028734042438,364.7518481651134 L 120.24891076398562,362.5894952743194 L 100.23753418754686,364.73932339294896 L 80.22615761110808,365.83193019241526 L 60.214781034669315,365.2413202307032 L 40.20340445823055,364.10547245814297" fill="none" stroke="black" stroke-linecap="round" stroke-linejoin="round" stroke-width="2" /><path d="M 40.88411434185681,364.49442736164724 L 40.10949456187686,344.3768833949425 L 41.99647574200864,324.2593394282378 L 40.330403532634264,304.1417954615331" fill="none" stroke="black" stroke-linecap="round" stroke-linejoin="round" stroke-width="2" /><path d="M 39.85463199822467,303.7056381706774 L 59.86600857466344,303.79235209855665 L 79.8773851511022,304.0378039477448 L 99.88876172754097,303.9057357500228 L 119.90013830397973,302.27746206008106 L 139.9115148804185,305.115708469194" fill="none" stroke="black" stroke-linecap="round" stroke-linejoin="round" stroke-width="2" /><path d="M 140.98301753090647,303.8530453610287 L 138.77763416690308,323.9705893277334 L 140.41458369559425,344.08813329443814 L 140.33088898881942,364.20567726114285" fill="none" stroke="black" stroke-linecap="round" stroke-linejoin="round" stroke-width="2" /><path d="M 139.9115148804185,363.8162855083441 L 119.90013830397974,364.6782620377772 L 99.88876172754098,365.75324552948507 L 79.8773851511022,364.72281791597254 L 59.86600857466344,364.36487168987463 L 39.854631998224676,366.0206483563566" fill="none" stroke="black" stroke-linecap="round" stroke-linejoin="round" stroke-width="2" /><path d="M 38.53616250069812,364.20567726114285 L 39.93460774041432,344.08813329443814 L 37.53975340549428,323.9705893277334 L 38.272987817081884,303.8530453610287" fill="none" stroke="black" stroke-linecap="round" stroke-linejoin="round" stroke-width="2" /><text dominant-baseline="middle" fill="black" font-family="Virgil, Comic Sans MS, cursive" font-size="16px" text-anchor="middle" x="90.0" y="334.0">End</text></g></svg>