<?xml version="1.0" encoding="utf-8" ?>
<svg baseProfile="full" height="876.0px" version="1.1" viewBox="0 0 741.2 876.0" width="741.2px" xmlns="http://www.w3.org/2000/svg" xmlns:ev="http://www.w3.org/2001/xml-events" xmlns:xlink="http://www.w3.org/1999/xlink"><defs /><rect fill="white" height="876.0" width="741.2" x="0" y="0" /><g><path d="M 408.57880144631997,100.0 L 406.0326845854331,110.0 L 407.9296728200663,120.0" fill="none" stroke="black" stroke-linecap="round" stroke-linejoin="round" stroke-width="2" /><path d="M 403.49560879565274,113.3412406390228 L 407.1752095370935,115.69669664485008 L 407.9296728200663,120.0" fill="none" stroke="black" stroke-linecap="round" stroke-linejoin="round" stroke-width="2" /><path d="M 409.6171322500137,112.17999484192742 L 410.3556835061906,116.43143388956223 L 407.9296728200663,120.0" fill="none" stroke="black" stroke-linecap="round" stroke-linejoin="round" stroke-width="2" /><path d="M 406.90024954545476,203.7362196000002 L 393.4825894581589,221.5020120565132 L 377.9044641498208,237.36659511850894 L 363.0695050422337,253.88516443716566" fill="none" stroke="black" stroke-linecap="round" stroke-linejoin="round" stroke-width="2" /><path d="M 366.3281273264432,244.42572498947087 L 364.59267993441244,249.1188825099146 L 363.0695050422337,253.88516443716566" fill="none" stroke="black" stroke-linecap="round" stroke-linejoin="round" stroke-width="2" /><path d="M 372.12559555516975,249.63230205081211 L 367.4733997530703,251.49436574832848 L 363.0695050422337,253.88516443716566" fill="none" stroke="black" stroke-linecap="round" stroke-linejoin="round" stroke-width="2" /><text fill="black" font-family="Virgil, Comic Sans MS, cursive" font-size="14px" text-anchor="middle" x="393.4825894581589" y="211.5020120565132">Yes</text><path d="M 514.6637823695172,161.77336810388547 L 518.1066761710339,185.0837950766058 L 522.7038500177448,208.1483102136109 L 527.5167226280905,231.16687213575463 L 531.6950548477847,254.3206187498198" fill="none" stroke="black" stroke-linecap="round" stroke-linejoin="round" stroke-width="2" /><path d="M 523.9748592647956,242.4994449384725 L 528.5082761893906,247.97029925242043 L 531.6950548477847,254.3206187498198" fill="none" stroke="black" stroke-linecap="round" stroke-linejoin="round" stroke-width="2" /><path d="M 534.7963338227958,240.54659831870228 L 533.1852516670937,247.41999961179656 L 531.6950548477847,254.3206187498198" fill="none" stroke="black" stroke-linecap="round" stroke-linejoin="round" stroke-width="2" /><text fill="black" font-family="Virgil, Comic Sans MS, cursive" font-size="14px" text-anchor="middle" x="518.1066761710339" y="175.0837950766058">No</text><path d="M 242.9906954801313,253.80743984172082 L 226.5342206372127,269.4408163195691 L 212.53652143375948,287.33626638572537 L 196.73374914632157,303.57104921461587" fill="none" stroke="black" stroke-linecap="round" stroke-linejoin="round" stroke-width="2" /><path d="M 200.4444652182785,294.05803391523466 L 197.4784259658562,298.3813011557622 L 196.73374914632157,303.57104921461587" fill="none" stroke="black" stroke-linecap="round" stroke-linejoin="round" stroke-width="2" /><path d="M 206.14324939796776,299.6051724052318 L 201.4106249497398,301.5219757643111 L 196.73374914632157,303.57104921461587" fill="none" stroke="black" stroke-linecap="round" stroke-linejoin="round" stroke-width="2" /><path d="M 197.40738413649765,388.0 L 196.2666956325676,398.0 L 196.2069300934608,408.0" fill="none" stroke="black" stroke-linecap="round" stroke-linejoin="round" stroke-width="2" /><path d="M 193.13567637134508,400.61302493747337 L 194.06049784372783,404.5604646355679 L 196.2069300934608,408.0" fill="none" stroke="black" stroke-linecap="round" stroke-linejoin="round" stroke-width="2" /><path d="M 199.3662585735817,400.65026234789997 L 198.68976716650707,404.71336539247454 L 196.2069300934608,408.0" fill="none" stroke="black" stroke-linecap="round" stroke-linejoin="round" stroke-width="2" /><text fill="black" font-family="Virgil, Comic Sans MS, cursive" font-size="14px" text-anchor="middle" x="196.2666956325676" y="388.0">Yes</text><path d="M 303.41855460023874,346.3090424873353 L 321.5479471728162,355.740700729311 L 339.04452682156995,366.25018227379917 L 355.72832532274316,378.1440136438439 L 373.9318738006365,387.44936763418474 L 391.72881915103267,397.4472585642627 L 408.249286511919,409.61927974744117" fill="none" stroke="black" stroke-linecap="round" stroke-linejoin="round" stroke-width="2" /><path d="M 390.3482235648834,405.33354389592677 L 399.3816464607838,407.13018316428423 L 408.249286511919,409.61927974744117" fill="none" stroke="black" stroke-linecap="round" stroke-linejoin="round" stroke-width="2" /><path d="M 398.8518945693437,393.7919422865697 L 403.37258585201994,401.8113002923262 L 408.249286511919,409.61927974744117" fill="none" stroke="black" stroke-linecap="round" stroke-linejoin="round" stroke-width="2" /><text fill="black" font-family="Virgil, Comic Sans MS, cursive" font-size="14px" text-anchor="middle" x="321.5479471728162" y="345.740700729311">No</text><path d="M 409.2134110525203,407.9885357131681 L 395.10843963263545,393.21939837855354 L 382.8252817517193,376.89290430901417 L 369.729627326094,361.26096373737124 L 355.27625730569133,346.7896510128768 L 343.1711808651961,330.3109260345904 L 329.407446510276,315.2500860476673 L 317.8309327332079,298.3195252441933 L 304.0024045552802,283.314073525325" fill="none" stroke="black" stroke-linecap="round" stroke-linejoin="round" stroke-width="2" /><path d="M 322.2133302574723,291.5822163076697 L 313.26968125764375,287.09174323106566 L 304.0024045552802,283.314073525325" fill="none" stroke="black" stroke-linecap="round" stroke-linejoin="round" stroke-width="2" /><path d="M 310.7588760900783,302.1382625490111 L 308.80945326245535,292.21333139150954 L 304.0024045552802,283.314073525325" fill="none" stroke="black" stroke-linecap="round" stroke-linejoin="round" stroke-width="2" /><path d="M 196.51357006109873,467.8715711727217 L 194.48112437232,488.8814146675094 L 188.34860096780034,509.124146847739 L 185.75561036798325,530.0291141978807" fill="none" stroke="black" stroke-linecap="round" stroke-linejoin="round" stroke-width="2" /><path d="M 183.16171841084252,520.8914921351502 L 184.58531917380503,525.4243497396487 L 185.75561036798325,530.0291141978807" fill="none" stroke="black" stroke-linecap="round" stroke-linejoin="round" stroke-width="2" /><path d="M 190.50335728115925,521.8021274047076 L 188.48723795407233,526.1220786584314 L 185.75561036798325,530.0291141978807" fill="none" stroke="black" stroke-linecap="round" stroke-linejoin="round" stroke-width="2" /><path d="M 111.53682422193654,572.0 L 114.89194720342029,588.0 L 113.56758885123277,604.0" fill="none" stroke="black" stroke-linecap="round" stroke-linejoin="round" stroke-width="2" /><path d="M 111.07068839158717,596.3996389497195 L 112.03076075599405,600.294558503696 L 113.56758885123277,604.0" fill="none" stroke="black" stroke-linecap="round" stroke-linejoin="round" stroke-width="2" /><path d="M 117.28014684087991,596.9136107097121 L 115.25852222629676,600.3701808163858 L 113.56758885123277,604.0" fill="none" stroke="black" stroke-linecap="round" stroke-linejoin="round" stroke-width="2" /><text fill="black" font-family="Virgil, Comic Sans MS, cursive" font-size="14px" text-anchor="middle" x="114.89194720342029" y="578.0">Yes</text><path d="M 185.33457946604653,530.0663551334884 L 191.1731787642701,550.7067053089324 L 192.83815937506975,572.3904601562326 L 202.33452430201282,592.1163689244968 L 205.13827450474716,613.5154313738133 L 211.29148269360977,634.0771293265975" fill="none" stroke="black" stroke-linecap="round" stroke-linejoin="round" stroke-width="2" /><path d="M 200.95699339117573,621.5752984683575 L 205.54457077596965,628.3053889264592 L 211.29148269360977,634.0771293265975" fill="none" stroke="black" stroke-linecap="round" stroke-linejoin="round" stroke-width="2" /><path d="M 213.05963917248155,617.9535110411013 L 211.85871644852048,625.9805742218582 L 211.29148269360977,634.0771293265975" fill="none" stroke="black" stroke-linecap="round" stroke-linejoin="round" stroke-width="2" /><text fill="black" font-family="Virgil, Comic Sans MS, cursive" font-size="14px" text-anchor="middle" x="191.1731787642701" y="540.7067053089324">No</text><path d="M 281.87700337390453,591.8114589938908 L 270.17518163948137,573.8553256767217 L 256.7575806883058,557.0670291812776 L 244.85467328843558,539.2477638492999 L 232.8910580190585,521.4698190349542 L 221.52327021453726,503.28632713969057 L 209.3895176806095,485.6241854312165 L 198.10641831358683,467.3830507607522" fill="none" stroke="black" stroke-linecap="round" stroke-linejoin="round" stroke-width="2" /><path d="M 214.42054817153627,478.95237083489496 L 206.13073843254128,473.35489691202577 L 198.10641831358683,467.3830507607522" fill="none" stroke="black" stroke-linecap="round" stroke-linejoin="round" stroke-width="2" /><path d="M 201.1732598200287,487.1465141003181 L 199.4690346781226,477.2912873998162 L 198.10641831358683,467.3830507607522" fill="none" stroke="black" stroke-linecap="round" stroke-linejoin="round" stroke-width="2" /><text fill="black" font-family="Virgil, Comic Sans MS, cursive" font-size="14px" text-anchor="middle" x="256.7575806883058" y="547.0670291812776">Yes</text><path d="M 281.9326512796517,676.0 L 281.88954002592664,686.0 L 282.148676086382,696.0" fill="none" stroke="black" stroke-linecap="round" stroke-linejoin="round" stroke-width="2" /><path d="M 278.84349480710114,688.7146876037406 L 279.48042451383805,692.818126170414 L 282.148676086382,696.0" fill="none" stroke="black" stroke-linecap="round" stroke-linejoin="round" stroke-width="2" /><path d="M 285.0720973350609,688.5532820516167 L 284.4522554704434,692.6071405878745 L 282.148676086382,696.0" fill="none" stroke="black" stroke-linecap="round" stroke-linejoin="round" stroke-width="2" /><text fill="black" font-family="Virgil, Comic Sans MS, cursive" font-size="14px" text-anchor="middle" x="281.88954002592664" y="676.0">No</text><path d="M 112.401181121057,664.0 L 113.17675049006645,680.0 L 113.7011220486915,696.0" fill="none" stroke="black" stroke-linecap="round" stroke-linejoin="round" stroke-width="2" /><path d="M 110.34608752678508,688.7375112146857 L 112.48118790780218,692.1573670310795 L 113.7011220486915,696.0" fill="none" stroke="black" stroke-linecap="round" stroke-linejoin="round" stroke-width="2" /><path d="M 116.57343755242263,688.5334208872453 L 116.54200022804696,692.8070918152463 L 113.7011220486915,696.0" fill="none" stroke="black" stroke-linecap="round" stroke-linejoin="round" stroke-width="2" /><path d="M 365.49054567984257,726.0957725301378 L 380.9861008341829,740.78716177009 L 393.266886640959,758.2914741891609 L 407.2487781445159,774.3073191235486 L 421.3670961660969,790.2037908546653 L 435.83386847019096,805.7953650885829" fill="none" stroke="black" stroke-linecap="round" stroke-linejoin="round" stroke-width="2" /><path d="M 421.2620002049082,799.238945968619 L 428.3562399968045,802.9432028311646 L 435.83386847019096,805.7953650885829" fill="none" stroke="black" stroke-linecap="round" stroke-linejoin="round" stroke-width="2" /><path d="M 430.3848372722416,790.774245442526 L 434.1793866739793,797.8966419520663 L 435.83386847019096,805.7953650885829" fill="none" stroke="black" stroke-linecap="round" stroke-linejoin="round" stroke-width="2" /><path d="M 617.2421508443351,284.01076045944814 L 610.1077643206324,303.15201137941347 L 607.5463959369897,323.46068319041854 L 601.422576111029,342.85991617793746 L 598.0651973068352,362.9653788246718 L 592.6535497078028,382.5464183806911 L 586.0273314112983,401.817396799307 L 583.7221601395925,422.1914717754732 L 577.7016292701421,441.6170728380688 L 571.6804351097397,461.0425045727303 L 567.2788963844431,480.88140932090664 L 561.7015116003461,500.4201387337469 L 556.3407662469481,520.0141728467818 L 552.0229042283585,539.8744389656135 L 546.6635078918944,559.4688174618332 L 542.7652008291582,579.436189479964 L 536.5152104052281,598.803213062798 L 529.4544982571849,617.9632719128098 L 526.2827319677731,638.1161185673827 L 523.0118779836283,658.2436696641133 L 516.052147031116,677.4295074534718 L 512.9306133566812,697.5951777186974 L 507.42972099577804,717.1534344655889 L 502.39523422947144,736.8307573561416 L 496.966212681628,756.4073616114074 L 492.5703253490403,776.2477090728444" fill="none" stroke="black" stroke-linecap="round" stroke-linejoin="round" stroke-width="2" /><path d="M 488.95118746212563,756.5778885104829 L 491.67892850573566,766.243860217779 L 492.5703253490403,776.2477090728444" fill="none" stroke="black" stroke-linecap="round" stroke-linejoin="round" stroke-width="2" /><path d="M 504.15911328848506,759.9474025084088 L 497.4082942070528,767.4175803707931 L 492.5703253490403,776.2477090728444" fill="none" stroke="black" stroke-linecap="round" stroke-linejoin="round" stroke-width="2" /><path d="M 331.2,40.211793172684864 L 352.8767689303063,40.67860688555951 L 374.55353786061266,40.508315614819054 L 396.230306790919,41.15573050659153 L 417.90707572122534,40.70951045332156 L 439.58384465153165,40.167892923716536 L 461.260613581838,40.281403109837846 L 482.9373825121443,39.457823187636684" fill="none" stroke="black" stroke-linecap="round" stroke-linejoin="round" stroke-width="2" /><path d="M 483.2116842794458,40.0 L 482.72152962759105,69.84337185354926 L 483.2411621837309,99.68674370709853" fill="none" stroke="black" stroke-linecap="round" stroke-linejoin="round" stroke-width="2" /><path d="M 482.9373825121443,100.61534979475194 L 461.260613581838,100.90969922383728 L 439.58384465153165,98.96115578488342 L 417.90707572122534,99.17624380251866 L 396.230306790919,100.04207533593794 L 374.55353786061266,99.04071582466354 L 352.8767689303063,99.89009151961525 L 331.2,99.21511332044102" fill="none" stroke="black" stroke-linecap="round" stroke-linejoin="round" stroke-width="2" /><path d="M 330.4664781734573,99.68674370709853 L 332.1607043411613,69.84337185354926 L 329.5099213796509,40.0" fill="none" stroke="black" stroke-linecap="round" stroke-linejoin="round" stroke-width="2" /><path d="M 331.205192431625,38.9930664994746 L 352.8819613619313,40.56987132743938 L 374.55873029223767,41.29210464626983 L 396.235499222544,38.325143899615284 L 417.91226815285034,39.58235402640055 L 439.58903708315665,39.76142156047728 L 461.265806013463,40.62311108749328 L 482.94257494376933,40.12865804310777" fill="none" stroke="black" stroke-linecap="round" stroke-linejoin="round" stroke-width="2" /><path d="M 480.6600757483343,39.83541635298242 L 479.8320556681518,69.67878820653169 L 483.70306060277045,99.52216006008095" fill="none" stroke="black" stroke-linecap="round" stroke-linejoin="round" stroke-width="2" /><path d="M 482.94257494376933,99.7271739356483 L 461.265806013463,100.7402833133476 L 439.58903708315665,100.26561314909954 L 417.91226815285034,98.43551224468933 L 396.235499222544,99.73852707903046 L 374.55873029223767,99.43558352199454 L 352.8819613619313,99.63888295828905 L 331.205192431625,98.92455180482271" fill="none" stroke="black" stroke-linecap="round" stroke-linejoin="round" stroke-width="2" /><path d="M 330.6905317293309,99.52216006008095 L 330.6516689692367,69.67878820653169 L 329.7748860397901,39.83541635298242" fill="none" stroke="black" stroke-linecap="round" stroke-linejoin="round" stroke-width="2" /><path d="M 331.36252259090685,41.51155769780572 L 353.03929152121316,38.92678059080107 L 374.7160604515195,40.295562280698526 L 396.39282938182583,39.445392268575155 L 418.0695983121322,40.08772943375576 L 439.7463672424385,40.1110683846334 L 461.4231361727449,40.464591661392035 L 483.0999051030512,40.63025767374896" fill="none" stroke="black" stroke-linecap="round" stroke-linejoin="round" stroke-width="2" /><path d="M 482.5845120955165,39.98068376505093 L 480.9843938139397,69.8240556186002 L 484.7703186074646,99.66742747214946" fill="none" stroke="black" stroke-linecap="round" stroke-linejoin="round" stroke-width="2" /><path d="M 483.0999051030512,101.30489099208191 L 461.4231361727449,99.85980927310406 L 439.7463672424385,100.64141752669715 L 418.0695983121322,98.09441301110455 L 396.39282938182583,99.62688723712813 L 374.7160604515195,98.99316319941208 L 353.03929152121316,98.56437614090855 L 331.36252259090685,98.92221359502946" fill="none" stroke="black" stroke-linecap="round" stroke-linejoin="round" stroke-width="2" /><path d="M 331.4674803373641,99.66742747214946 L 331.87855888196117,69.8240556186002 L 333.32168315584653,39.98068376505093" fill="none" stroke="black" stroke-linecap="round" stroke-linejoin="round" stroke-width="2" /><text dominant-baseline="middle" fill="black" font-family="Virgil, Comic Sans MS, cursive" font-size="16px" text-anchor="middle" x="407.2" y="70.0">Client Request</text><path d="M 407.59598921825557,118.99682731375255 L 428.0221316997187,129.55993302737923 L 449.8804558758007,136.49484511463828 L 471.81439334678896,143.23820352146805 L 492.48593930959413,153.17962041569493 L 514.0106087422132,160.95979118639315" fill="none" stroke="black" stroke-linecap="round" stroke-linejoin="round" stroke-width="2" /><path d="M 513.8866053757802,162.72606695197638 L 491.87524103571207,169.27327729047065 L 470.17414968258373,176.60651252921213 L 449.7564786076899,187.19107913948116 L 428.76627486439276,196.3252296564616 L 407.8194762252002,205.56933977050724" fill="none" stroke="black" stroke-linecap="round" stroke-linejoin="round" stroke-width="2" /><path d="M 407.1613635598523,204.09787898170742 L 385.4148388050699,196.87974169382292 L 364.65841364159786,187.153352107952 L 343.6884520228797,177.9679215420381 L 321.81497931792273,171.07138572792908 L 300.9941194446454,161.50823074023168" fill="none" stroke="black" stroke-linecap="round" stroke-linejoin="round" stroke-width="2" /><path d="M 301.1993005287438,163.01156133948425 L 321.87299363058423,153.07558386414675 L 343.2642411517589,144.9574109177891 L 363.96375221830857,135.08683895304836 L 386.01654793796416,128.64458810950924 L 407.2888629020666,120.22511935190218" fill="none" stroke="black" stroke-linecap="round" stroke-linejoin="round" stroke-width="2" /><path d="M 406.2081005246345,121.53349203904396 L 427.6128079130342,129.45099219216266 L 449.546123992326,136.03593608405947 L 470.9146520778268,144.04463972557187 L 491.19519921593576,154.79600698294456 L 513.0670963032845,161.535780456121" fill="none" stroke="black" stroke-linecap="round" stroke-linejoin="round" stroke-width="2" /><path d="M 513.3706661795377,162.6866467975375 L 492.2173907537612,171.23797541741754 L 470.5749138537211,178.5560884304395 L 449.14554105679605,186.4114101798877 L 428.3820619752928,195.94536653198725 L 406.6147130503229,202.9486928198972" fill="none" stroke="black" stroke-linecap="round" stroke-linejoin="round" stroke-width="2" /><path d="M 407.08843025362756,203.4443941464821 L 386.4547739361754,193.58317087640296 L 364.45207708907486,187.17312720492427 L 343.3257092878774,178.55396783571072 L 321.8595783583342,170.79130873183587 L 300.7720778104329,162.07416988814768" fill="none" stroke="black" stroke-linecap="round" stroke-linejoin="round" stroke-width="2" /><path d="M 300.7627722253664,161.3595375390156 L 322.4362531234549,154.11958171946043 L 342.96934245171786,144.0048416733137 L 364.4807394784953,136.3562927275386 L 386.0836849594536,128.93852596133382 L 406.9643836019104,119.70006543171641" fill="none" stroke="black" stroke-linecap="round" stroke-linejoin="round" stroke-width="2" /><path d="M 407.2245765317059,120.42096555395786 L 429.19170541681416,127.13488648905535 L 450.51163704972964,135.49291328221454 L 470.8428722537223,146.36257247975908 L 493.0956225217292,152.35091587691076 L 513.542715845561,162.9262552007443" fill="none" stroke="black" stroke-linecap="round" stroke-linejoin="round" stroke-width="2" /><path d="M 513.385654012151,160.58259664564622 L 492.8956333030971,171.0488854979647 L 471.3635095220784,178.867870519007 L 450.0006632690884,187.1168792685605 L 428.41529515571847,194.80060518825346 L 407.9262725252885,205.26942950701104" fill="none" stroke="black" stroke-linecap="round" stroke-linejoin="round" stroke-width="2" /><path d="M 407.8570269088202,202.6932951762997 L 385.8273092982162,196.13837134739737 L 365.6270445132514,184.93600178616245 L 343.014197715408,179.8624286729791 L 321.9972015478711,170.7348405574315 L 300.598195979701,162.57768903024677" fill="none" stroke="black" stroke-linecap="round" stroke-linejoin="round" stroke-width="2" /><path d="M 301.11836298892797,162.65155934696244 L 322.262688348166,153.8474316127265 L 343.4870672088798,145.24666758296985 L 365.10268651941584,137.63979021339898 L 386.36237313202236,129.1287201394264 L 407.453359941956,120.18909396004946" fill="none" stroke="black" stroke-linecap="round" stroke-linejoin="round" stroke-width="2" /><text dominant-baseline="middle" fill="black" font-family="Virgil, Comic Sans MS, cursive" font-size="16px" text-anchor="middle" x="407.2" y="162.0">Valid Request?</text><path d="M 243.2,222.31793137725964 L 267.17254568568563,222.66621689514182 L 291.1450913713712,223.1756413944775 L 315.11763705705687,225.26153979933918 L 339.0901827427425,223.43659294336982 L 363.0627284284281,224.69355661698617" fill="none" stroke="black" stroke-linecap="round" stroke-linejoin="round" stroke-width="2" /><path d="M 360.5612963581068,224.0 L 363.72497642128235,244.02937796772903 L 362.8276163739653,264.05875593545807 L 366.1410645036069,284.0881339031871" fill="none" stroke="black" stroke-linecap="round" stroke-linejoin="round" stroke-width="2" /><path d="M 363.0627284284281,284.0710216798834 L 339.09018274274246,283.8168363707571 L 315.11763705705687,283.87699519100465 L 291.1450913713712,284.6888301282623 L 267.1725456856856,284.0064888607305 L 243.2,284.8740758279144" fill="none" stroke="black" stroke-linecap="round" stroke-linejoin="round" stroke-width="2" /><path d="M 241.62957038031564,284.0881339031871 L 244.1555290181488,264.05875593545807 L 241.05228445545146,244.02937796772903 L 244.10112543082928,224.0" fill="none" stroke="black" stroke-linecap="round" stroke-linejoin="round" stroke-width="2" /><path d="M 243.43546885671307,224.76100474691734 L 267.4080145423987,222.10191671412474 L 291.3805602280843,224.23520711785235 L 315.3531059137699,224.19548446727484 L 339.32565159945557,225.0964175475415 L 363.29819728514116,224.0549696088585" fill="none" stroke="black" stroke-linecap="round" stroke-linejoin="round" stroke-width="2" /><path d="M 365.0199400292737,223.9975476781312 L 362.1762332589001,244.02692564586025 L 363.43452834909033,264.0563036135893 L 364.8416066858986,284.08568158131834" fill="none" stroke="black" stroke-linecap="round" stroke-linejoin="round" stroke-width="2" /><path d="M 363.29819728514116,283.66486351890575 L 339.32565159945557,283.8950084955767 L 315.3531059137699,283.49215441088137 L 291.3805602280843,284.2602153053092 L 267.4080145423987,283.7177580238219 L 243.43546885671307,284.9129867132978" fill="none" stroke="black" stroke-linecap="round" stroke-linejoin="round" stroke-width="2" /><path d="M 243.86978106552507,284.08568158131834 L 243.46522745292833,264.0563036135893 L 243.39519857790344,244.02692564586027 L 245.37160687059736,223.9975476781312" fill="none" stroke="black" stroke-linecap="round" stroke-linejoin="round" stroke-width="2" /><path d="M 243.11933695433845,224.92705427394478 L 267.0918826400241,223.789780891905 L 291.0644283257097,225.22448344143115 L 315.03697401139533,224.31298173104446 L 339.0095196970809,224.28407880250373 L 362.98206538276656,221.03066638913066" fill="none" stroke="black" stroke-linecap="round" stroke-linejoin="round" stroke-width="2" /><path d="M 364.87065287750215,223.90285806213654 L 360.86384074957203,243.93223602986558 L 362.9112763890178,263.9616139975946 L 363.5082710413837,283.99099196532364" fill="none" stroke="black" stroke-linecap="round" stroke-linejoin="round" stroke-width="2" /><path d="M 362.98206538276656,284.73397824385063 L 339.0095196970809,284.6873781253826 L 315.03697401139533,281.4951454587482 L 291.0644283257097,284.18494177524866 L 267.0918826400241,283.4991271800735 L 243.11933695433845,282.43270949198535" fill="none" stroke="black" stroke-linecap="round" stroke-linejoin="round" stroke-width="2" /><path d="M 242.21284178229834,283.99099196532364 L 242.2734788807236,263.9616139975946 L 242.44228391441393,243.93223602986558 L 242.60809326045947,223.90285806213654" fill="none" stroke="black" stroke-linecap="round" stroke-linejoin="round" stroke-width="2" /><text dominant-baseline="middle" fill="black" font-family="Virgil, Comic Sans MS, cursive" font-size="16px" text-anchor="middle" x="303.2" y="254.0">Parse Data</text><path d="M 533.2,223.04153290495873 L 554.204888293853,223.9132110968824 L 575.2097765877058,223.3462636925508 L 596.2146648815587,223.3757828178658 L 617.2195531754116,223.6586052742119 L 638.2244414692645,224.44566741016104 L 659.2293297631174,223.89416803801433 L 680.2342180569703,226.47931142897687 L 701.2391063508232,223.2746828101366" fill="none" stroke="black" stroke-linecap="round" stroke-linejoin="round" stroke-width="2" /><path d="M 700.6685435598583,224.0 L 702.0099350745072,253.93125809069852 L 700.5761669505664,283.86251618139704" fill="none" stroke="black" stroke-linecap="round" stroke-linejoin="round" stroke-width="2" /><path d="M 701.2391063508232,282.2107941042939 L 680.2342180569703,283.70498811001397 L 659.2293297631174,282.07830632165127 L 638.2244414692645,284.0394073737724 L 617.2195531754116,283.42921779106825 L 596.2146648815587,285.44867888044774 L 575.2097765877058,284.9882309996047 L 554.204888293853,283.6182126790837 L 533.2,285.2643568712826" fill="none" stroke="black" stroke-linecap="round" stroke-linejoin="round" stroke-width="2" /><path d="M 533.5387063788986,283.86251618139704 L 534.1982380322676,253.93125809069852 L 533.694158420841,224.0" fill="none" stroke="black" stroke-linecap="round" stroke-linejoin="round" stroke-width="2" /><path d="M 533.4552933601,225.41865126605828 L 554.4601816539529,223.11996537548632 L 575.4650699478058,223.1121374865887 L 596.4699582416587,224.83659497499116 L 617.4748465355116,225.39268524067805 L 638.4797348293645,224.05748300802907 L 659.4846231232174,221.42324616155915 L 680.4895114170703,224.70984645310324 L 701.4943997109232,223.90983385106432" fill="none" stroke="black" stroke-linecap="round" stroke-linejoin="round" stroke-width="2" /><path d="M 700.3581685480469,224.0458321264461 L 699.9684809852808,253.97709021714462 L 701.8069191959408,283.90834830784314" fill="none" stroke="black" stroke-linecap="round" stroke-linejoin="round" stroke-width="2" /><path d="M 701.4943997109232,283.7929797163689 L 680.4895114170703,282.9729216070036 L 659.4846231232174,284.9578741576557 L 638.4797348293645,283.862748528106 L 617.4748465355116,282.95517666159367 L 596.4699582416587,284.79587679512053 L 575.4650699478058,284.0370963499952 L 554.4601816539529,285.10574393521364 L 533.4552933601,283.0820206359134" fill="none" stroke="black" stroke-linecap="round" stroke-linejoin="round" stroke-width="2" /><path d="M 533.1053128422689,283.90834830784314 L 532.2782704189974,253.97709021714462 L 532.2765521827289,224.0458321264461" fill="none" stroke="black" stroke-linecap="round" stroke-linejoin="round" stroke-width="2" /><path d="M 533.1141486704316,222.96497463565265 L 554.1190369642845,222.71298797822948 L 575.1239252581374,224.74730372316742 L 596.1288135519903,223.69675252423218 L 617.1337018458432,222.08296259969748 L 638.1385901396961,224.8787212323173 L 659.143478433549,224.1784916656901 L 680.1483667274019,225.04058633565515 L 701.1532550212548,224.73978347613826" fill="none" stroke="black" stroke-linecap="round" stroke-linejoin="round" stroke-width="2" /><path d="M 702.5426700690113,224.18938343738967 L 700.1251159276677,254.12064152808819 L 700.416078497124,284.0518996187867" fill="none" stroke="black" stroke-linecap="round" stroke-linejoin="round" stroke-width="2" /><path d="M 701.1532550212548,284.30134483900525 L 680.1483667274019,284.51186053252883 L 659.143478433549,284.4674444164486 L 638.1385901396961,283.64135188480356 L 617.1337018458432,283.9000411773684 L 596.1288135519903,284.9411893659368 L 575.1239252581374,285.0209730940182 L 554.1190369642845,284.96211623775037 L 533.1141486704316,283.64270773808266" fill="none" stroke="black" stroke-linecap="round" stroke-linejoin="round" stroke-width="2" /><path d="M 532.65775665936,284.0518996187867 L 532.5192227603018,254.12064152808819 L 531.872427255117,224.18938343738967" fill="none" stroke="black" stroke-linecap="round" stroke-linejoin="round" stroke-width="2" /><text dominant-baseline="middle" fill="black" font-family="Virgil, Comic Sans MS, cursive" font-size="16px" text-anchor="middle" x="617.2" y="254.0">Return 400 Error</text><path d="M 197.06593151981792,304.3396401497946 L 218.68256079609984,311.88684598321373 L 239.56249729508312,321.3003401857894 L 260.9438368192315,329.44361339128017 L 282.4142973322242,337.361113425032 L 304.48518648244266,343.75752757781186" fill="none" stroke="black" stroke-linecap="round" stroke-linejoin="round" stroke-width="2" /><path d="M 303.93071514702484,346.8378117057963 L 282.076477170798,353.78307549935494 L 261.047571955289,362.81918228673226 L 239.94981125313467,371.68085517460787 L 217.61078323375045,377.39798419216794 L 197.01027156253852,387.51935462509766" fill="none" stroke="black" stroke-linecap="round" stroke-linejoin="round" stroke-width="2" /><path d="M 197.20779450299923,387.9802539257352 L 175.81336030206845,379.8701539014266 L 155.13267596162342,369.9518875638873 L 133.42343497967596,362.63929805148763 L 111.88469484752362,354.8947730529401 L 90.44572041550778,346.8975082807136" fill="none" stroke="black" stroke-linecap="round" stroke-linejoin="round" stroke-width="2" /><path d="M 91.20520847631569,347.02652813999975 L 111.79914934712988,336.8885116793957 L 132.7350211754707,327.61672031119235 L 154.86052186719317,321.35865539688945 L 175.600184384435,311.58980044056864 L 197.25097346094432,304.1291327677257" fill="none" stroke="black" stroke-linecap="round" stroke-linejoin="round" stroke-width="2" /><path d="M 197.18191711930749,304.0231700002492 L 217.66564057194944,314.32369576568703 L 239.13306264655316,322.1243724615244 L 260.62879570559966,329.85310315018154 L 281.87649291687404,338.21216122716424 L 302.8208991119122,347.34196529060006" fill="none" stroke="black" stroke-linecap="round" stroke-linejoin="round" stroke-width="2" /><path d="M 303.0192927708678,345.52663873623607 L 281.7657377290198,353.8708104527194 L 261.11353073020393,363.74317313370966 L 239.86649826846525,372.1039205223081 L 218.3843605807328,379.8672007930949 L 197.28409444599603,388.60092183217256" fill="none" stroke="black" stroke-linecap="round" stroke-linejoin="round" stroke-width="2" /><path d="M 196.879612307005,388.39912603430383 L 176.39527207056025,378.10016768634637 L 154.82995583247873,370.5482670160374 L 133.44380776320992,362.54105069303876 L 112.08997933742131,354.45170125642164 L 91.13045354687179,345.3603202485112" fill="none" stroke="black" stroke-linecap="round" stroke-linejoin="round" stroke-width="2" /><path d="M 91.75728873421535,348.5970716775931 L 111.53697144101847,336.50738451235964 L 133.32943622749175,329.5327308511252 L 154.00076127159548,319.7089523875552 L 175.77917285044444,312.69858565605693 L 197.52178041214856,305.59723105800157" fill="none" stroke="black" stroke-linecap="round" stroke-linejoin="round" stroke-width="2" /><path d="M 197.20425790640274,303.53587436046723 L 218.44178241734596,312.083847844867 L 240.07917288266714,319.6237342940133 L 260.65483042847404,329.84031571892785 L 281.8742146589428,338.4340219829304 L 302.9511866646605,347.3867583565516" fill="none" stroke="black" stroke-linecap="round" stroke-linejoin="round" stroke-width="2" /><path d="M 303.03343120958175,345.235950490338 L 282.3641308289895,355.21645248248785 L 260.9606542582299,363.3460504634398 L 239.70404576440276,371.84591203554584 L 218.40470619919984,380.2380459089449 L 196.79400556646704,387.845219092335" fill="none" stroke="black" stroke-linecap="round" stroke-linejoin="round" stroke-width="2" /><path d="M 196.79458491418634,388.9775491564931 L 176.177519686274,378.8653590833137 L 154.81952387248967,370.6211012745911 L 133.34046917259323,362.6820404756558 L 112.09558225119719,354.1526280876546 L 89.7998467482763,348.27247057982396" fill="none" stroke="black" stroke-linecap="round" stroke-linejoin="round" stroke-width="2" /><path d="M 90.22261982530921,345.20873195625643 L 111.65823564132835,337.1601590191079 L 132.95873077895735,328.7709384159392 L 154.10672737932134,319.99725947959956 L 175.1508852774335,310.9617966920677 L 196.51394975114414,302.7303172914639" fill="none" stroke="black" stroke-linecap="round" stroke-linejoin="round" stroke-width="2" /><text dominant-baseline="middle" fill="black" font-family="Virgil, Comic Sans MS, cursive" font-size="16px" text-anchor="middle" x="197.2" y="346.0">Data Complete?</text><path d="M 117.19999999999999,408.7122810551581 L 140.0217829372574,406.6190035427386 L 162.84356587451484,407.40114468060955 L 185.66534881177228,408.31003765327773 L 208.4871317490297,409.18351411298045 L 231.30891468628712,407.4507100122373 L 254.13069762354453,407.9958859499856 L 276.952480560802,408.32916383950004" fill="none" stroke="black" stroke-linecap="round" stroke-linejoin="round" stroke-width="2" /><path d="M 277.9517693993392,408.0 L 277.5396684554175,437.98400274352696 L 277.750569814199,467.96800548705386" fill="none" stroke="black" stroke-linecap="round" stroke-linejoin="round" stroke-width="2" /><path d="M 276.952480560802,466.7736001884605 L 254.13069762354456,467.7015099496337 L 231.30891468628712,468.2377040199407 L 208.4871317490297,468.1775136363431 L 185.66534881177228,470.1368744328112 L 162.84356587451484,467.9053440669693 L 140.02178293725743,468.2393206125556 L 117.19999999999999,469.17804764362194" fill="none" stroke="black" stroke-linecap="round" stroke-linejoin="round" stroke-width="2" /><path d="M 114.15677715486044,467.96800548705386 L 117.74641159525255,437.98400274352696 L 117.4898461171186,408.0" fill="none" stroke="black" stroke-linecap="round" stroke-linejoin="round" stroke-width="2" /><path d="M 116.99186179773365,406.7734428207627 L 139.81364473499107,407.8961968884257 L 162.6354276722485,409.94529282535785 L 185.45721060950592,406.57319873322564 L 208.27899354676333,406.94691338420125 L 231.1007764840208,406.22823556407906 L 253.9225594212782,408.6949051466311 L 276.7443423585356,409.71627468044045" fill="none" stroke="black" stroke-linecap="round" stroke-linejoin="round" stroke-width="2" /><path d="M 275.5547883776497,407.83800831484535 L 276.24037480461715,437.82201105837225 L 275.6117297336062,467.8060138018992" fill="none" stroke="black" stroke-linecap="round" stroke-linejoin="round" stroke-width="2" /><path d="M 276.7443423585356,466.9741427883007 L 253.9225594212782,468.9411765507761 L 231.10077648402077,465.7263072076862 L 208.27899354676333,468.160519825802 L 185.45721060950592,467.1341741032097 L 162.63542767224848,466.43483378783077 L 139.81364473499107,467.1366934479844 L 116.99186179773363,468.7497364428383" fill="none" stroke="black" stroke-linecap="round" stroke-linejoin="round" stroke-width="2" /><path d="M 118.46920782372173,467.8060138018992 L 116.72111864920292,437.82201105837225 L 117.94383294683075,407.83800831484535" fill="none" stroke="black" stroke-linecap="round" stroke-linejoin="round" stroke-width="2" /><path d="M 117.35125680324587,407.62827176739194 L 140.1730397405033,408.97287270758284 L 162.99482267776074,408.39705180190316 L 185.81660561501815,408.1218733801133 L 208.63838855227556,407.24313460215944 L 231.46017148953302,407.9659198992307 L 254.28195442679043,407.8221889681063 L 277.10373736404784,408.9261616530448" fill="none" stroke="black" stroke-linecap="round" stroke-linejoin="round" stroke-width="2" /><path d="M 278.72844081648515,408.1119602307225 L 278.20381875362835,438.09596297424946 L 277.84240722195966,468.07996571777636" fill="none" stroke="black" stroke-linecap="round" stroke-linejoin="round" stroke-width="2" /><path d="M 277.10373736404784,468.1308759099635 L 254.28195442679043,467.5286794873436 L 231.460171489533,467.83341846480636 L 208.63838855227556,465.8313409248768 L 185.81660561501815,467.34227155267195 L 162.9948226777607,468.04501100222865 L 140.1730397405033,466.3907202859553 L 117.35125680324586,467.55029263347546" fill="none" stroke="black" stroke-linecap="round" stroke-linejoin="round" stroke-width="2" /><path d="M 114.82436458784731,468.07996571777636 L 117.51249860433201,438.09596297424946 L 115.45483621272969,408.1119602307225" fill="none" stroke="black" stroke-linecap="round" stroke-linejoin="round" stroke-width="2" /><text dominant-baseline="middle" fill="black" font-family="Virgil, Comic Sans MS, cursive" font-size="16px" text-anchor="middle" x="197.2" y="438.0">Process Request</text><path d="M 297.2,406.4299226934339 L 317.5665551726666,407.7723989393539 L 337.93311034533315,409.2863748484263 L 358.29966551799976,404.7413575843911 L 378.66622069066636,408.4328628002156 L 399.032775863333,407.84132367315766 L 419.3993310359995,408.525488015162 L 439.76588620866613,409.31755337001323 L 460.13244138133274,408.96026892433457 L 480.4989965539993,407.81027121581144 L 500.8655517266659,407.47796289146584 L 521.2321068993325,409.0638198891747" fill="none" stroke="black" stroke-linecap="round" stroke-linejoin="round" stroke-width="2" /><path d="M 522.2904126668692,408.0 L 521.294973271806,437.7881399426385 L 522.6903580986904,467.57627988527696" fill="none" stroke="black" stroke-linecap="round" stroke-linejoin="round" stroke-width="2" /><path d="M 521.2321068993325,468.07635312766683 L 500.8655517266659,466.87737818389536 L 480.4989965539993,467.9818224244788 L 460.13244138133274,467.79516295229746 L 439.76588620866613,466.8813903972827 L 419.3993310359996,468.1920660610804 L 399.032775863333,468.94656306665655 L 378.66622069066636,468.5845902939074 L 358.29966551799976,468.1181639468581 L 337.93311034533315,468.4518573452409 L 317.5665551726666,466.9838264935927 L 297.2,468.2278488158414" fill="none" stroke="black" stroke-linecap="round" stroke-linejoin="round" stroke-width="2" /><path d="M 296.69256030129594,467.57627988527696 L 295.7250426127669,437.7881399426385 L 298.7399998482862,408.0" fill="none" stroke="black" stroke-linecap="round" stroke-linejoin="round" stroke-width="2" /><path d="M 297.4430766569126,408.16940181666894 L 317.8096318295792,407.76820293520456 L 338.17618700224574,407.38625113894807 L 358.54274217491235,408.1163061863035 L 378.9092973475789,408.96316863918054 L 399.2758525202455,408.9934422768189 L 419.6424076929121,406.00209053070535 L 440.0089628655787,407.9948226845007 L 460.3755180382453,406.0280934746021 L 480.7420732109119,409.2593536328916 L 501.10862838357843,408.50366032588124 L 521.475183556245,405.84946794544175" fill="none" stroke="black" stroke-linecap="round" stroke-linejoin="round" stroke-width="2" /><path d="M 520.3013813477154,407.7460858214419 L 521.2286087558364,437.53422576408036 L 521.4228856621245,467.32236570671887" fill="none" stroke="black" stroke-linecap="round" stroke-linejoin="round" stroke-width="2" /><path d="M 521.475183556245,468.5369042139694 L 501.10862838357843,467.26180519927743 L 480.7420732109119,468.7883598506659 L 460.3755180382453,467.6856163644686 L 440.0089628655787,468.31562491296415 L 419.6424076929121,469.38528397913734 L 399.2758525202455,467.4284208705058 L 378.9092973475789,466.5608893813055 L 358.54274217491235,467.39969038844373 L 338.17618700224574,466.08398553234343 L 317.8096318295792,467.4134421075212 L 297.4430766569126,467.4122867721107" fill="none" stroke="black" stroke-linecap="round" stroke-linejoin="round" stroke-width="2" /><path d="M 299.2548263403907,467.32236570671887 L 297.979071804553,437.53422576408036 L 299.1389241911357,407.7460858214419" fill="none" stroke="black" stroke-linecap="round" stroke-linejoin="round" stroke-width="2" /><path d="M 297.3941672749196,407.78479226657623 L 317.7607224475862,406.9272949560036 L 338.12727762025276,408.4523367981417 L 358.49383279291936,408.6927105671326 L 378.8603879655859,407.9973734243804 L 399.2269431382525,408.78960197300324 L 419.59349831091913,407.4372011070026 L 439.96005348358574,407.78655375506787 L 460.3266086562523,408.9970189462301 L 480.6931638289189,408.6078029723208 L 501.05971900158545,409.6230526237892 L 521.4262741742521,408.2888398017958" fill="none" stroke="black" stroke-linecap="round" stroke-linejoin="round" stroke-width="2" /><path d="M 521.418991896368,408.0161927737115 L 520.3223766463157,437.80433271635 L 520.0574025167501,467.59247265898847" fill="none" stroke="black" stroke-linecap="round" stroke-linejoin="round" stroke-width="2" /><path d="M 521.4262741742521,467.96187460949557 L 501.05971900158545,468.4884236717781 L 480.6931638289189,467.0775703061113 L 460.3266086562523,468.8221757159139 L 439.96005348358574,468.4884723755544 L 419.59349831091913,467.57165102040506 L 399.2269431382525,468.1887915247518 L 378.8603879655859,467.49367707548026 L 358.49383279291936,467.6608034129591 L 338.12727762025276,466.3775488395987 L 317.7607224475862,469.6961398970526 L 297.3941672749196,466.665679978325" fill="none" stroke="black" stroke-linecap="round" stroke-linejoin="round" stroke-width="2" /><path d="M 297.45006769885686,467.59247265898847 L 297.9185127617408,437.80433271635 L 297.79694401858575,408.0161927737115" fill="none" stroke="black" stroke-linecap="round" stroke-linejoin="round" stroke-width="2" /><text dominant-baseline="middle" fill="black" font-family="Virgil, Comic Sans MS, cursive" font-size="16px" text-anchor="middle" x="409.2" y="438.0">Request Additional Info</text><path d="M 113.6933460756405,486.45153346888975 L 131.21281438099436,498.13112173960974 L 149.37471234066686,508.69716527617743 L 167.25236602759523,519.7558988855016 L 185.88619275104304,529.5039325648587" fill="none" stroke="black" stroke-linecap="round" stroke-linejoin="round" stroke-width="2" /><path d="M 186.00468036721256,530.7014459698352 L 167.35870578778307,540.4284233654906 L 149.09092177544636,550.8109310774404 L 131.52583095010763,562.4114403135198 L 112.64217810791479,571.726442053719" fill="none" stroke="black" stroke-linecap="round" stroke-linejoin="round" stroke-width="2" /><path d="M 112.40387726844224,572.6866127347001 L 93.91325166351193,562.690363783246 L 76.6009229646309,550.6517335279731 L 58.69961541330495,539.6339999502715 L 39.250812441136226,531.2985917686972" fill="none" stroke="black" stroke-linecap="round" stroke-linejoin="round" stroke-width="2" /><path d="M 40.630362596676655,531.0926285009062 L 58.7923792320619,520.5267906689073 L 77.04109758071954,510.1112358065805 L 94.31879855015319,498.0125841535989 L 112.78245176778769,487.9695830641653" fill="none" stroke="black" stroke-linecap="round" stroke-linejoin="round" stroke-width="2" /><path d="M 112.69991513440655,488.3553725890857 L 130.67919143380163,499.44826199483276 L 149.10593409168666,509.75770570572143 L 168.9801451563073,517.5328518762822 L 186.4595315452324,529.5009726616183" fill="none" stroke="black" stroke-linecap="round" stroke-linejoin="round" stroke-width="2" /><path d="M 186.88940272499295,531.8720798956249 L 168.2797272799483,541.8612360545458 L 148.61196918656725,549.9978500504291 L 130.33614004655016,560.571520431382 L 113.24418584494572,573.2179761874862" fill="none" stroke="black" stroke-linecap="round" stroke-linejoin="round" stroke-width="2" /><path d="M 113.07306020890216,571.4746598743616 L 94.37551964846742,561.6393421997748 L 75.67215517726062,551.8142213092256 L 57.43773254665412,541.1680544133472 L 39.67138117304096,529.7023657719328" fill="none" stroke="black" stroke-linecap="round" stroke-linejoin="round" stroke-width="2" /><path d="M 39.03477502931381,529.8034468198966 L 58.12007499361593,520.6470370225991 L 76.20247576841642,509.734702925107 L 93.95681381164125,498.2479807650937 L 112.29531421922778,487.784038263873" fill="none" stroke="black" stroke-linecap="round" stroke-linejoin="round" stroke-width="2" /><path d="M 112.73243852394299,487.95925003937884 L 131.5536769236986,497.2242402641371 L 148.91921349615905,508.98023722283085 L 167.29214708592443,519.0123696463568 L 184.48343595126588,531.066540450592" fill="none" stroke="black" stroke-linecap="round" stroke-linejoin="round" stroke-width="2" /><path d="M 185.98054857415036,531.4075177280878 L 167.0039955249093,540.4067324825589 L 149.2829210781246,551.5543306452186 L 131.23023228336967,562.1344681106569 L 113.2255866767068,572.7968174019054" fill="none" stroke="black" stroke-linecap="round" stroke-linejoin="round" stroke-width="2" /><path d="M 112.73937579368082,572.4068663276302 L 94.68519905735009,561.8292750377997 L 76.29743826306455,551.8225150261322 L 59.247666678468,539.5261789015726 L 39.4807253049575,531.8794819507217" fill="none" stroke="black" stroke-linecap="round" stroke-linejoin="round" stroke-width="2" /><path d="M 40.403095117982176,529.6110724754747 L 58.851270781089895,519.7076947926906 L 76.18728532840362,507.901179546487 L 94.88339058892174,498.42206065428167 L 112.83445227899146,487.6680182054364" fill="none" stroke="black" stroke-linecap="round" stroke-linejoin="round" stroke-width="2" /><text dominant-baseline="middle" fill="black" font-family="Virgil, Comic Sans MS, cursive" font-size="16px" text-anchor="middle" x="112.8" y="530.0">Success?</text><path d="M 40.80000000000001,603.4731929910654 L 61.42862605637569,604.8631326466992 L 82.05725211275137,604.1811865986695 L 102.68587816912705,603.7364285701163 L 123.31450422550274,603.3969603435046 L 143.94313028187844,605.4458564318608 L 164.5717563382541,602.95466561512 L 185.2003823946298,602.6153880723393" fill="none" stroke="black" stroke-linecap="round" stroke-linejoin="round" stroke-width="2" /><path d="M 184.79700913066392,604.0 L 185.53231594100535,624.0368169807192 L 184.82200089735815,644.0736339614384 L 184.4932712098451,664.1104509421576" fill="none" stroke="black" stroke-linecap="round" stroke-linejoin="round" stroke-width="2" /><path d="M 185.2003823946298,663.8783812166612 L 164.57175633825412,663.0150173657039 L 143.94313028187844,664.6122751462091 L 123.31450422550276,665.0286090110562 L 102.68587816912707,663.3285585284485 L 82.05725211275137,665.1707148141152 L 61.428626056375705,662.6678922639275 L 40.80000000000001,664.1795592457247" fill="none" stroke="black" stroke-linecap="round" stroke-linejoin="round" stroke-width="2" /><path d="M 39.69368528613006,664.1104509421576 L 40.88510881168201,644.0736339614384 L 41.62161782497655,624.0368169807192 L 40.78120441590199,604.0" fill="none" stroke="black" stroke-linecap="round" stroke-linejoin="round" stroke-width="2" /><path d="M 40.56348655444945,603.2026525739352 L 61.192112610825134,603.7353975520115 L 81.82073866720081,604.698926467446 L 102.4493647235765,605.0894896017783 L 123.07799077995219,605.2775711636555 L 143.70661683632787,603.9547303565222 L 164.33524289270355,604.195615081476 L 184.96386894907923,603.726379856312" fill="none" stroke="black" stroke-linecap="round" stroke-linejoin="round" stroke-width="2" /><path d="M 186.07929710448113,604.002332124521 L 184.3172360575503,624.0391491052402 L 184.71614005447242,644.0759660859594 L 185.6889756353356,664.1127830666786" fill="none" stroke="black" stroke-linecap="round" stroke-linejoin="round" stroke-width="2" /><path d="M 184.96386894907923,664.6028690934277 L 164.33524289270355,663.901369440287 L 143.70661683632787,663.4430658739872 L 123.07799077995219,665.2534122164056 L 102.4493647235765,663.5721720873709 L 81.8207386672008,664.4395607118097 L 61.192112610825134,665.6920914285713 L 40.56348655444944,664.1068831352887" fill="none" stroke="black" stroke-linecap="round" stroke-linejoin="round" stroke-width="2" /><path d="M 41.13528770461987,664.1127830666786 L 41.1056549952209,644.0759660859594 L 40.861079013977914,624.0391491052402 L 40.02722435295772,604.002332124521" fill="none" stroke="black" stroke-linecap="round" stroke-linejoin="round" stroke-width="2" /><path d="M 40.81479230675329,602.7968219700081 L 61.44341836312897,604.2548916529963 L 82.07204441950466,604.442839555961 L 102.70067047588034,604.1485591096703 L 123.32929653225602,602.404883779502 L 143.95792258863173,603.689721854611 L 164.58654864500738,603.3041995757135 L 185.2151747013831,601.669801456611" fill="none" stroke="black" stroke-linecap="round" stroke-linejoin="round" stroke-width="2" /><path d="M 184.47106439468502,604.0806262390051 L 183.10794827133643,624.1174432197244 L 185.43322397444064,644.1542602004436 L 187.11536936692738,664.1910771811628" fill="none" stroke="black" stroke-linecap="round" stroke-linejoin="round" stroke-width="2" /><path d="M 185.21517470138306,665.2037653052296 L 164.58654864500738,664.0016115914262 L 143.9579225886317,664.2937289243293 L 123.32929653225602,664.6556930774553 L 102.70067047588033,663.634545242777 L 82.07204441950464,663.9101377074143 L 61.44341836312897,665.3644975025425 L 40.814792306753276,664.5872553736219" fill="none" stroke="black" stroke-linecap="round" stroke-linejoin="round" stroke-width="2" /><path d="M 40.829820344767306,664.1910771811628 L 40.22284968887574,644.1542602004436 L 41.547852595957615,624.1174432197244 L 41.3990799349355,604.0806262390051" fill="none" stroke="black" stroke-linecap="round" stroke-linejoin="round" stroke-width="2" /><text dominant-baseline="middle" fill="black" font-family="Virgil, Comic Sans MS, cursive" font-size="16px" text-anchor="middle" x="112.80000000000001" y="634.0">Return 200 OK</text><path d="M 281.6548998866416,591.9085001889307 L 298.5837122631553,603.3604795614079 L 316.0807646576837,613.8653922371939 L 334.5282472339944,622.7862546100093 L 351.89087909656973,633.5152015057172" fill="none" stroke="black" stroke-linecap="round" stroke-linejoin="round" stroke-width="2" /><path d="M 351.2291647313713,633.3819412189522 L 333.77257838155344,643.954297302589 L 316.4118350369782,654.6863917282969 L 299.53850506060104,666.2308417676684 L 282.0371911969576,676.7286519949294" fill="none" stroke="black" stroke-linecap="round" stroke-linejoin="round" stroke-width="2" /><path d="M 281.2059210345709,676.6567982757151 L 263.3212448916984,666.7979251805026 L 246.9990013383579,654.3349977694036 L 229.48281203909545,643.861979934841 L 212.40175009072163,632.6637498487974" fill="none" stroke="black" stroke-linecap="round" stroke-linejoin="round" stroke-width="2" /><path d="M 212.6581841261459,635.7636402102431 L 229.07647401479596,623.4607900246599 L 245.8565792520433,611.7609654200721 L 264.8420990298399,603.7368317163998 L 281.2756640012295,591.4594400020491" fill="none" stroke="black" stroke-linecap="round" stroke-linejoin="round" stroke-width="2" /><path d="M 281.77535367126995,592.6822503705711 L 299.42894074122427,602.9003412395218 L 316.8425291674404,613.5242664664585 L 334.4869121901015,623.7579212509628 L 351.44750157384345,635.1478615382651" fill="none" stroke="black" stroke-linecap="round" stroke-linejoin="round" stroke-width="2" /><path d="M 352.44152252005534,634.715615786971 L 334.58552307473406,644.59143015333 L 316.8578093371583,654.6841738615834 L 299.0322828484671,664.6115175724307 L 282.4246491698932,676.5983010325663" fill="none" stroke="black" stroke-linecap="round" stroke-linejoin="round" stroke-width="2" /><path d="M 281.8585164409179,675.6005635057319 L 263.97723066168237,665.7675079772151 L 246.3909900682679,655.4355351560856 L 229.34906854572165,644.1831263807164 L 211.61724112453322,634.0973388540561" fill="none" stroke="black" stroke-linecap="round" stroke-linejoin="round" stroke-width="2" /><path d="M 211.40633625391573,633.7286257266198 L 228.23793279958318,622.120560349903 L 246.57801403452862,613.0633215356589 L 264.27141810419243,602.9125606576713 L 282.9129454140299,594.3650629501508" fill="none" stroke="black" stroke-linecap="round" stroke-linejoin="round" stroke-width="2" /><path d="M 281.0432681942715,592.313089122063 L 298.2387350623566,603.4449968389548 L 316.32743953566563,613.0825300473421 L 334.32303920014834,622.8758263495753 L 351.76711818680786,633.5918093334171" fill="none" stroke="black" stroke-linecap="round" stroke-linejoin="round" stroke-width="2" /><path d="M 350.8496619796203,632.5629468187044 L 333.56312931082545,643.542502674925 L 316.8724911794167,655.5189820834223 L 298.6710676511777,664.967937827846 L 281.6977936998541,676.4715713082264" fill="none" stroke="black" stroke-linecap="round" stroke-linejoin="round" stroke-width="2" /><path d="M 280.8539287728092,676.653880305491 L 263.29738630632085,666.1260472119034 L 246.13259948787135,654.9428121843085 L 227.70237608377226,645.8766355571486 L 210.81197055137685,634.2343643256455" fill="none" stroke="black" stroke-linecap="round" stroke-linejoin="round" stroke-width="2" /><path d="M 210.68537158474905,633.2434853608804 L 229.17407680376192,624.2751480240806 L 246.42099777478714,613.2293223298692 L 264.26398173935024,603.180702012812 L 281.3070282453414,591.7937970786535" fill="none" stroke="black" stroke-linecap="round" stroke-linejoin="round" stroke-width="2" /><text dominant-baseline="middle" fill="black" font-family="Virgil, Comic Sans MS, cursive" font-size="16px" text-anchor="middle" x="281.6" y="634.0">Retry?</text><path d="M 197.6,695.9178189917147 L 218.65145193665546,696.5479842395179 L 239.70290387331093,696.618422283654 L 260.7543558099664,695.703211133225 L 281.8058077466219,697.6396436804857 L 302.85725968327733,697.2129330880421 L 323.90871161993283,696.8849335898149 L 344.9601635565883,695.9497339150008 L 366.01161549324377,696.2429605247245" fill="none" stroke="black" stroke-linecap="round" stroke-linejoin="round" stroke-width="2" /><path d="M 366.39274437967237,696.0 L 366.68531814250696,725.8541896390352 L 364.53076866028715,755.7083792780703" fill="none" stroke="black" stroke-linecap="round" stroke-linejoin="round" stroke-width="2" /><path d="M 366.01161549324377,756.106485580099 L 344.96016355658827,757.0786213155919 L 323.90871161993283,756.7778857816904 L 302.85725968327733,755.7128191559135 L 281.8058077466219,755.3290364098152 L 260.7543558099664,754.7572265686429 L 239.70290387331093,756.6147080970925 L 218.65145193665546,754.150408630387 L 197.6,755.981450411675" fill="none" stroke="black" stroke-linecap="round" stroke-linejoin="round" stroke-width="2" /><path d="M 197.2423325492463,755.7083792780703 L 198.56643252448646,725.8541896390352 L 197.7107131952039,696.0" fill="none" stroke="black" stroke-linecap="round" stroke-linejoin="round" stroke-width="2" /><path d="M 197.50249161759604,697.7102502846556 L 218.5539435542515,694.7206881622425 L 239.60539549090697,696.6944750170467 L 260.6568474275624,695.893490248412 L 281.7082993642179,695.5882742585464 L 302.7597513008734,695.7404381677991 L 323.81120323752884,694.2986121959032 L 344.8626551741843,694.090032947538 L 365.9141071108398,696.1381659028235" fill="none" stroke="black" stroke-linecap="round" stroke-linejoin="round" stroke-width="2" /><path d="M 365.91784089300666,695.918294781342 L 365.0267142971068,725.7724844203772 L 366.42241602653604,755.6266740594123" fill="none" stroke="black" stroke-linecap="round" stroke-linejoin="round" stroke-width="2" /><path d="M 365.9141071108398,756.7880463290811 L 344.8626551741843,755.2763396927895 L 323.81120323752884,754.8803696245553 L 302.7597513008734,756.5702150223816 L 281.7082993642179,754.8983529745575 L 260.6568474275624,757.5564879380569 L 239.60539549090697,755.961692581944 L 218.5539435542515,754.844190286791 L 197.50249161759604,756.7798493039312" fill="none" stroke="black" stroke-linecap="round" stroke-linejoin="round" stroke-width="2" /><path d="M 197.08214952834544,755.6266740594123 L 198.6986045856553,725.7724844203772 L 197.302942836603,695.918294781342" fill="none" stroke="black" stroke-linecap="round" stroke-linejoin="round" stroke-width="2" /><path d="M 197.46384826190078,696.3163084307342 L 218.51530019855625,696.8231012062331 L 239.56675213521171,695.6403272810685 L 260.6182040718672,695.9846883078917 L 281.6696560085227,696.248526805191 L 302.7211079451781,697.8976406992748 L 323.7725598818336,696.0542271426765 L 344.8240118184891,696.7929072183399 L 365.87546375514455,695.3680605725192" fill="none" stroke="black" stroke-linecap="round" stroke-linejoin="round" stroke-width="2" /><path d="M 367.95299412363926,696.0173382462887 L 367.31579526360747,725.8715278853238 L 365.7669271226894,755.725717524359" fill="none" stroke="black" stroke-linecap="round" stroke-linejoin="round" stroke-width="2" /><path d="M 365.87546375514455,755.3178164478403 L 344.82401181848905,755.0529693435462 L 323.7725598818336,756.3999717099069 L 302.7211079451781,754.5991580935213 L 281.6696560085227,756.4750046794608 L 260.6182040718672,756.6074620841538 L 239.56675213521171,756.1496743801565 L 218.51530019855625,756.1653860231297 L 197.46384826190078,754.5946497122304" fill="none" stroke="black" stroke-linecap="round" stroke-linejoin="round" stroke-width="2" /><path d="M 197.72350861264565,755.725717524359 L 198.83503138433437,725.8715278853238 L 197.3937796532843,696.0173382462887" fill="none" stroke="black" stroke-linecap="round" stroke-linejoin="round" stroke-width="2" /><text dominant-baseline="middle" fill="black" font-family="Virgil, Comic Sans MS, cursive" font-size="16px" text-anchor="middle" x="281.6" y="726.0">Return 500 Error</text><path d="M 48.80000000000001,695.7052126677884 L 70.16687204840575,695.1103618352523 L 91.53374409681149,697.8306094494054 L 112.90061614521724,695.1737455209195 L 134.26748819362297,695.7098990262677 L 155.63436024202872,696.213496330157 L 177.00123229043447,695.367005221492" fill="none" stroke="black" stroke-linecap="round" stroke-linejoin="round" stroke-width="2" /><path d="M 176.0455324903641,696.0 L 177.56354976173714,716.0083396194549 L 177.16890610016304,736.0166792389098 L 175.75432620709378,756.0250188583647" fill="none" stroke="black" stroke-linecap="round" stroke-linejoin="round" stroke-width="2" /><path d="M 177.00123229043447,754.7576285720485 L 155.63436024202872,755.0307880295983 L 134.267488193623,756.539508465217 L 112.90061614521724,753.2993627203965 L 91.5337440968115,756.7960436344757 L 70.16687204840575,757.0251660494883 L 48.80000000000001,755.2901174708057" fill="none" stroke="black" stroke-linecap="round" stroke-linejoin="round" stroke-width="2" /><path d="M 47.259223421529754,756.0250188583647 L 48.774319183874866,736.0166792389098 L 48.704554686005345,716.0083396194549 L 50.20286403504297,696.0" fill="none" stroke="black" stroke-linecap="round" stroke-linejoin="round" stroke-width="2" /><path d="M 48.94084972605047,695.0577421639157 L 70.30772177445621,695.3687559895418 L 91.67459382286197,696.1122232050495 L 113.0414658712677,696.0708385968005 L 134.40833791967344,697.5426829422861 L 155.7752099680792,695.2557070125666 L 177.14208201648495,694.8196600527442" fill="none" stroke="black" stroke-linecap="round" stroke-linejoin="round" stroke-width="2" /><path d="M 175.9868121801071,695.778961051389 L 178.062130756371,715.7873006708439 L 177.34986042969538,735.7956402902988 L 175.72311955368042,755.8039799097537" fill="none" stroke="black" stroke-linecap="round" stroke-linejoin="round" stroke-width="2" /><path d="M 177.14208201648492,756.3703957629349 L 155.77520996807917,756.1848655168167 L 134.40833791967344,756.3125438609839 L 113.04146587126769,755.8200327723265 L 91.67459382286195,753.9559172537956 L 70.3077217744562,755.0401172081541 L 48.94084972605046,756.1020835404162" fill="none" stroke="black" stroke-linecap="round" stroke-linejoin="round" stroke-width="2" /><path d="M 49.18958826009768,755.8039799097537 L 48.22492927745835,735.7956402902988 L 47.21270604361631,715.7873006708439 L 48.943053425763566,695.778961051389" fill="none" stroke="black" stroke-linecap="round" stroke-linejoin="round" stroke-width="2" /><path d="M 48.868117951228875,696.4096590286765 L 70.23498999963462,695.0397227354526 L 91.60186204804036,695.9450488465574 L 112.9687340964461,695.7085938601633 L 134.33560614485185,695.741393742014 L 155.7024781932576,696.0811638953503 L 177.06935024166333,697.4336124450554" fill="none" stroke="black" stroke-linecap="round" stroke-linejoin="round" stroke-width="2" /><path d="M 177.83348512171176,695.9517348117926 L 176.47155018573608,715.9600744312474 L 176.33553888059896,735.9684140507023 L 175.16564152759932,755.9767536701572" fill="none" stroke="black" stroke-linecap="round" stroke-linejoin="round" stroke-width="2" /><path d="M 177.06935024166333,756.0888650383667 L 155.70247819325758,756.564526207338 L 134.33560614485185,754.0627861469878 L 112.9687340964461,755.7043488193492 L 91.60186204804036,756.8540535422235 L 70.2349899996346,755.9654811383558 L 48.86811795122887,755.8169401560517" fill="none" stroke="black" stroke-linecap="round" stroke-linejoin="round" stroke-width="2" /><path d="M 49.81152044790989,755.9767536701572 L 48.037063362837685,735.9684140507023 L 49.367134273742025,715.9600744312474 L 49.25335965263391,695.9517348117926" fill="none" stroke="black" stroke-linecap="round" stroke-linejoin="round" stroke-width="2" /><text dominant-baseline="middle" fill="black" font-family="Virgil, Comic Sans MS, cursive" font-size="16px" text-anchor="middle" x="112.80000000000001" y="726.0">Log Success</text><path d="M 435.6,774.7455511345756 L 457.92662012030945,774.6353055009521 L 480.2532402406189,775.3632968495078 L 502.57986036092836,775.0503442382413 L 524.9064804812378,776.9894224369064 L 547.2331006015472,775.475730555118" fill="none" stroke="black" stroke-linecap="round" stroke-linejoin="round" stroke-width="2" /><path d="M 547.7539123631141,776.0 L 547.6513241203844,796.1401389351134 L 547.0267893579281,816.2802778702269 L 545.9272159596911,836.4204168053403" fill="none" stroke="black" stroke-linecap="round" stroke-linejoin="round" stroke-width="2" /><path d="M 547.2331006015472,836.6282169299658 L 524.9064804812377,837.3656034618286 L 502.57986036092836,835.6716228478684 L 480.2532402406189,834.9482134202292 L 457.92662012030945,835.3507531448514 L 435.6,836.3230181597448" fill="none" stroke="black" stroke-linecap="round" stroke-linejoin="round" stroke-width="2" /><path d="M 434.86933550892456,836.4204168053403 L 434.2584655776048,816.2802778702269 L 434.92726299625997,796.1401389351134 L 436.01725332258036,776.0" fill="none" stroke="black" stroke-linecap="round" stroke-linejoin="round" stroke-width="2" /><path d="M 435.65890469751395,775.784754621188 L 457.9855248178234,775.2437479573788 L 480.3121449381328,776.3250046734377 L 502.63876505844223,776.8401330593871 L 524.9653851787516,776.3056534206595 L 547.2920052990611,776.8393135959416" fill="none" stroke="black" stroke-linecap="round" stroke-linejoin="round" stroke-width="2" /><path d="M 547.9258071535513,776.1308778314406 L 547.1212131470975,796.271016766554 L 548.8784246037746,816.4111557016674 L 548.3621642931251,836.5512946367809" fill="none" stroke="black" stroke-linecap="round" stroke-linejoin="round" stroke-width="2" /><path d="M 547.2920052990611,837.2376710058182 L 524.9653851787516,835.7222298884816 L 502.63876505844223,837.6957017332858 L 480.3121449381328,835.7138504450526 L 457.9855248178234,836.7052972270816 L 435.65890469751395,835.0578121494434" fill="none" stroke="black" stroke-linecap="round" stroke-linejoin="round" stroke-width="2" /><path d="M 436.6209994815494,836.5512946367809 L 434.60834413780606,816.4111557016674 L 437.08156909891875,796.271016766554 L 436.0996338865905,776.1308778314406" fill="none" stroke="black" stroke-linecap="round" stroke-linejoin="round" stroke-width="2" /><path d="M 435.7319663882592,775.386136851315 L 458.0585865085686,776.4697960528025 L 480.3852066288781,776.953775725064 L 502.71182674918754,779.4016268599231 L 525.038446869497,775.8055416856464 L 547.3650669898065,776.4927199318666" fill="none" stroke="black" stroke-linecap="round" stroke-linejoin="round" stroke-width="2" /><path d="M 548.2893965490541,775.9426733940791 L 546.722145693272,796.0828123291925 L 547.461107210771,816.222951264306 L 547.2551859284368,836.3630901994194" fill="none" stroke="black" stroke-linecap="round" stroke-linejoin="round" stroke-width="2" /><path d="M 547.3650669898065,833.7326716863814 L 525.038446869497,835.8932328010936 L 502.71182674918754,835.9801716405467 L 480.3852066288781,837.2217510447458 L 458.0585865085686,837.3127470273745 L 435.7319663882592,837.0892308988595" fill="none" stroke="black" stroke-linecap="round" stroke-linejoin="round" stroke-width="2" /><path d="M 434.31990156814254,836.3630901994194 L 437.0871161174015,816.222951264306 L 434.3903186686596,796.0828123291925 L 436.7872447638057,775.9426733940791" fill="none" stroke="black" stroke-linecap="round" stroke-linejoin="round" stroke-width="2" /><text dominant-baseline="middle" fill="black" font-family="Virgil, Comic Sans MS, cursive" font-size="16px" text-anchor="middle" x="491.6" y="806.0">Log Error</text></g></svg>