<?xml version="1.0" encoding="utf-8" ?>
<svg baseProfile="full" height="508.0px" version="1.1" viewBox="0 0 532.0 508.0" width="532.0px" xmlns="http://www.w3.org/2000/svg" xmlns:ev="http://www.w3.org/2001/xml-events" xmlns:xlink="http://www.w3.org/1999/xlink"><defs /><rect fill="white" height="508.0" width="532.0" x="0" y="0" /><g><path d="M 245.98751261898704,69.98851160946808 L 229.69583816655262,85.77350444656174 L 215.41237193985205,103.40604885133055 L 199.8257652825769,119.83970405997073" fill="none" stroke="black" stroke-linecap="round" stroke-linejoin="round" stroke-width="2" /><path d="M 203.41031806348045,110.28613175904823 L 201.3106366858676,114.94757787052893 L 199.8257652825769,119.83970405997073" fill="none" stroke="black" stroke-linecap="round" stroke-linejoin="round" stroke-width="2" /><path d="M 209.17646053495716,115.75506691021675 L 203.66856777716208,115.8914938418276 L 199.8257652825769,119.83970405997073" fill="none" stroke="black" stroke-linecap="round" stroke-linejoin="round" stroke-width="2" /><path d="M 200.31848552829626,204.0 L 200.05173438644908,214.0 L 199.89361965984375,224.0" fill="none" stroke="black" stroke-linecap="round" stroke-linejoin="round" stroke-width="2" /><path d="M 196.89515435591684,216.58318088253822 L 199.29264818323196,219.92844217979737 L 199.89361965984375,224.0" fill="none" stroke="black" stroke-linecap="round" stroke-linejoin="round" stroke-width="2" /><path d="M 203.1250691338644,216.6816850097272 L 202.90185358189805,220.95571397180103 L 199.89361965984375,224.0" fill="none" stroke="black" stroke-linecap="round" stroke-linejoin="round" stroke-width="2" /><text fill="black" font-family="Virgil, Comic Sans MS, cursive" font-size="14px" text-anchor="middle" x="200.05173438644908" y="204.0">Yes</text><path d="M 306.2478158344746,162.21717091729033 L 325.23306015327364,172.57372316866176 L 341.93707940162267,186.18564525029694 L 359.13484691183623,199.09297521770395 L 376.85430196819146,211.25584295710328 L 393.9978138424655,224.2405971833645 L 411.4673262149332,236.76013988787903" fill="none" stroke="black" stroke-linecap="round" stroke-linejoin="round" stroke-width="2" /><path d="M 392.5669295570151,232.4976315457629 L 402.3195966858231,233.28770821405706 L 411.4673262149332,236.76013988787903" fill="none" stroke="black" stroke-linecap="round" stroke-linejoin="round" stroke-width="2" /><path d="M 401.35702937576593,220.2321070643039 L 406.75234360815045,228.2880420075547 L 411.4673262149332,236.76013988787903" fill="none" stroke="black" stroke-linecap="round" stroke-linejoin="round" stroke-width="2" /><text fill="black" font-family="Virgil, Comic Sans MS, cursive" font-size="14px" text-anchor="middle" x="325.23306015327364" y="162.57372316866176">No</text><path d="M 412.7039087658575,235.45136522661107 L 398.72854981039274,219.01671853013508 L 384.84026979486976,202.51420148341032 L 372.6054970178727,184.7229214419521 L 359.08667712498226,167.93244282905795 L 345.16557561969773,151.4555072375885 L 333.0587218197665,133.56452564047612 L 318.7263571063733,117.40813343179725 L 306.101950241437,99.92053878240938" fill="none" stroke="black" stroke-linecap="round" stroke-linejoin="round" stroke-width="2" /><path d="M 323.1991140010232,110.29777306606576 L 314.6944489229492,105.03680015676956 L 306.101950241437,99.92053878240938" fill="none" stroke="black" stroke-linecap="round" stroke-linejoin="round" stroke-width="2" /><path d="M 310.5694867234757,119.41518209234593 L 308.07177798257175,109.72834699225199 L 306.101950241437,99.92053878240938" fill="none" stroke="black" stroke-linecap="round" stroke-linejoin="round" stroke-width="2" /><path d="M 199.60215420931007,306.3290476791023 L 179.2421683923078,314.0171072476928 L 157.7698866311945,317.033523851017 L 137.01060967119045,323.0445606189999 L 115.89091541211488,327.5418447308825" fill="none" stroke="black" stroke-linecap="round" stroke-linejoin="round" stroke-width="2" /><path d="M 126.54590224596144,320.09790385586655 L 120.87613758353743,323.32995965331406 L 115.89091541211488,327.5418447308825" fill="none" stroke="black" stroke-linecap="round" stroke-linejoin="round" stroke-width="2" /><path d="M 128.65427255425007,329.9990208829893 L 122.3316098728545,328.4638854410504 L 115.89091541211488,327.5418447308825" fill="none" stroke="black" stroke-linecap="round" stroke-linejoin="round" stroke-width="2" /><text fill="black" font-family="Virgil, Comic Sans MS, cursive" font-size="14px" text-anchor="middle" x="179.2421683923078" y="304.0171072476928">Yes</text><path d="M 199.82481556112543,308.73577464327315 L 220.58637975588468,314.73720502528437 L 242.33794675855685,316.58062361406127 L 263.04056589586355,322.82962323737314 L 283.74371680014406,329.0763894393949" fill="none" stroke="black" stroke-linecap="round" stroke-linejoin="round" stroke-width="2" /><path d="M 270.81432568571665,330.464570763717 L 277.2224624118259,329.24369643467367 L 283.74371680014406,329.0763894393949" fill="none" stroke="black" stroke-linecap="round" stroke-linejoin="round" stroke-width="2" /><path d="M 273.7399029346734,320.7685672142839 L 278.7379544527254,324.927120801103 L 283.74371680014406,329.0763894393949" fill="none" stroke="black" stroke-linecap="round" stroke-linejoin="round" stroke-width="2" /><text fill="black" font-family="Virgil, Comic Sans MS, cursive" font-size="14px" text-anchor="middle" x="220.58637975588468" y="304.73720502528437">No</text><path d="M 116.13959336965527,387.9050765086344 L 126.78736130304482,405.03792764726285 L 138.78289247380752,421.25429978447755 L 150.71981378851956,437.5105266238067" fill="none" stroke="black" stroke-linecap="round" stroke-linejoin="round" stroke-width="2" /><path d="M 142.92267608954802,432.86399176246385 L 147.23311741750666,434.49611481890764 L 150.71981378851956,437.5105266238067" fill="none" stroke="black" stroke-linecap="round" stroke-linejoin="round" stroke-width="2" /><path d="M 148.62071572430364,428.6799303907541 L 150.26527289954882,432.9537906690541 L 150.71981378851956,437.5105266238067" fill="none" stroke="black" stroke-linecap="round" stroke-linejoin="round" stroke-width="2" /><path d="M 284.86899336900757,388.59091549092517 L 273.2153129346606,405.03974612890255 L 260.2764731896726,420.61466843564403 L 249.04962021754298,437.35374174792923" fill="none" stroke="black" stroke-linecap="round" stroke-linejoin="round" stroke-width="2" /><path d="M 250.7723079517735,428.4342313140995 L 250.1884451398718,432.94757839727697 L 249.04962021754298,437.35374174792923" fill="none" stroke="black" stroke-linecap="round" stroke-linejoin="round" stroke-width="2" /><path d="M 256.64829345764105,432.3752395234562 L 252.90561863307317,434.95097336677236 L 249.04962021754298,437.35374174792923" fill="none" stroke="black" stroke-linecap="round" stroke-linejoin="round" stroke-width="2" /><path d="M 246.0,40.720877589822976 L 266.0085020953598,39.64110205314874 L 286.01700419071955,39.48977267575604 L 306.02550628607935,42.34760909378675 L 326.0340083814391,39.67256477992582 L 346.04251047679895,40.46004903132598 L 366.0510125721587,41.294250549125664" fill="none" stroke="black" stroke-linecap="round" stroke-linejoin="round" stroke-width="2" /><path d="M 365.8680675371572,40.0 L 365.90195707432986,60.00316887562984 L 366.7548245009465,80.00633775125968 L 366.32697548744414,100.00950662688953" fill="none" stroke="black" stroke-linecap="round" stroke-linejoin="round" stroke-width="2" /><path d="M 366.0510125721587,101.2212130329881 L 346.0425104767989,99.70456435153257 L 326.03400838143915,99.4562770579809 L 306.02550628607935,101.24093797062909 L 286.0170041907196,99.95604246325655 L 266.00850209535974,98.33655558440422 L 246.0,99.51172666799768" fill="none" stroke="black" stroke-linecap="round" stroke-linejoin="round" stroke-width="2" /><path d="M 248.07501179336091,100.00950662688953 L 244.65435381052774,80.0063377512597 L 247.06050743608085,60.00316887562985 L 245.76440983854607,40.0" fill="none" stroke="black" stroke-linecap="round" stroke-linejoin="round" stroke-width="2" /><path d="M 245.9060403357718,39.91377324383164 L 265.91454243113157,38.598047791347426 L 285.92304452649137,39.171679932586116 L 305.9315466218511,41.414907694490935 L 325.9400487172109,37.77408558288289 L 345.9485508125707,39.15251235153241 L 365.95705290793046,38.89039556231365" fill="none" stroke="black" stroke-linecap="round" stroke-linejoin="round" stroke-width="2" /><path d="M 364.53634935337743,40.03206901669155 L 365.0575826150172,60.03523789232139 L 366.7696596019647,80.03840676795124 L 365.24045556982526,100.04157564358108" fill="none" stroke="black" stroke-linecap="round" stroke-linejoin="round" stroke-width="2" /><path d="M 365.95705290793046,101.00918085177838 L 345.94855081257066,101.90413438655655 L 325.9400487172109,99.99895451953098 L 305.9315466218511,101.45360268488014 L 285.92304452649137,100.54798659673854 L 265.91454243113157,99.51554900990831 L 245.9060403357718,101.45025398654228" fill="none" stroke="black" stroke-linecap="round" stroke-linejoin="round" stroke-width="2" /><path d="M 245.7107115845395,100.04157564358108 L 245.0408376451347,80.03840676795124 L 246.42110965251948,60.0352378923214 L 244.26202221292777,40.03206901669155" fill="none" stroke="black" stroke-linecap="round" stroke-linejoin="round" stroke-width="2" /><path d="M 246.27566460904475,40.06397812320529 L 266.2841667044045,39.22353975782934 L 286.29266879976433,40.83371901291664 L 306.30117089512413,39.44724095245017 L 326.30967299048393,39.85073381662028 L 346.3181750858437,40.49775245654509 L 366.3266771812035,41.04543041637938" fill="none" stroke="black" stroke-linecap="round" stroke-linejoin="round" stroke-width="2" /><path d="M 366.41961629531636,39.65948592681989 L 366.79154210865477,59.66265480244973 L 365.8034435688322,79.66582367807956 L 366.90467296649683,99.66899255370942" fill="none" stroke="black" stroke-linecap="round" stroke-linejoin="round" stroke-width="2" /><path d="M 366.3266771812035,98.57172885831143 L 346.3181750858437,101.15822018707028 L 326.30967299048393,97.76742471810755 L 306.30117089512413,99.89559526666939 L 286.29266879976433,98.44835614015443 L 266.2841667044045,100.39987842856087 L 246.27566460904475,100.24371911728541" fill="none" stroke="black" stroke-linecap="round" stroke-linejoin="round" stroke-width="2" /><path d="M 245.73412650668413,99.66899255370942 L 246.38988192807673,79.66582367807958 L 246.7684062371827,59.66265480244974 L 247.16214925265888,39.65948592681989" fill="none" stroke="black" stroke-linecap="round" stroke-linejoin="round" stroke-width="2" /><text dominant-baseline="middle" fill="black" font-family="Virgil, Comic Sans MS, cursive" font-size="16px" text-anchor="middle" x="306.0" y="70.0">User Login</text><path d="M 200.32338559151387,119.18075650149818 L 221.39189117610525,128.11654235386675 L 243.00848936050895,135.66382695337737 L 263.2057140375122,146.80685777163558 L 285.1596329367514,153.4995965602298 L 305.7717225460337,163.59163621671468" fill="none" stroke="black" stroke-linecap="round" stroke-linejoin="round" stroke-width="2" /><path d="M 306.3971456702604,161.99276903132633 L 285.3918384650904,171.08865744489574 L 264.02091731415703,179.25832386253123 L 242.88500392106735,188.02334326670396 L 221.54371322984045,196.2680735155959 L 199.98410390350378,203.95972988887624" fill="none" stroke="black" stroke-linecap="round" stroke-linejoin="round" stroke-width="2" /><path d="M 199.46655822972664,205.35138581802582 L 178.6506617224675,195.77565696974898 L 156.93581370095131,188.47727195758995 L 136.5461314039093,177.82180044342985 L 114.46044278404278,171.46287828042495 L 93.29158608442539,162.78131525278903" fill="none" stroke="black" stroke-linecap="round" stroke-linejoin="round" stroke-width="2" /><path d="M 93.73988790284152,162.3543826871985 L 114.31508584586754,152.1688841428644 L 136.39152117113906,145.78652030021888 L 157.14391204569768,136.0499105157675 L 179.09932752614023,129.3609630662218 L 199.8565543789642,119.63660442670933" fill="none" stroke="black" stroke-linecap="round" stroke-linejoin="round" stroke-width="2" /><path d="M 200.06634150539867,119.70114166674274 L 221.63913796287227,127.66728593724929 L 243.70879224337367,134.38375895867318 L 264.0164812790994,145.531836367165 L 285.61301499915464,153.43827789534689 L 306.3680231540633,163.46128125548967" fill="none" stroke="black" stroke-linecap="round" stroke-linejoin="round" stroke-width="2" /><path d="M 306.9159591085335,162.04195455901828 L 285.49009421893936,170.3776535541393 L 264.3720924002438,179.48767391550493 L 243.1785588629398,188.40772078191088 L 221.43978327119785,195.95640286820782 L 200.2905638453777,204.98790630927834" fill="none" stroke="black" stroke-linecap="round" stroke-linejoin="round" stroke-width="2" /><path d="M 200.26941270505702,204.12782559892102 L 178.01363141340593,197.8794896656767 L 157.25366293435243,187.8689622577736 L 135.7882277347587,179.6327884717404 L 114.40575634260072,171.18794838307136 L 94.02231676966771,160.230394830828" fill="none" stroke="black" stroke-linecap="round" stroke-linejoin="round" stroke-width="2" /><path d="M 92.91022308246488,161.09761978421864 L 115.13685088977641,154.77595850617502 L 135.74447097229222,144.38225224473828 L 157.32188818954054,136.42772987162735 L 178.51896596477573,127.51659729022862 L 200.19040805034163,119.79856143134661" fill="none" stroke="black" stroke-linecap="round" stroke-linejoin="round" stroke-width="2" /><path d="M 199.84841261422162,120.46598431227926 L 221.20434612628273,128.7364684171984 L 243.141696715107,135.54318397203207 L 264.13298238481315,144.73170104300573 L 285.4523866173184,153.0941508171633 L 306.4141396157279,162.3570189816493" fill="none" stroke="black" stroke-linecap="round" stroke-linejoin="round" stroke-width="2" /><path d="M 306.7293536721283,162.8488594281145 L 285.08577991379997,170.39518395284261 L 264.5117071207883,180.63407108001746 L 242.30846868624673,186.77139063331353 L 221.21117121961254,195.69301369569502 L 200.27292567272133,205.01506393377392" fill="none" stroke="black" stroke-linecap="round" stroke-linejoin="round" stroke-width="2" /><path d="M 200.47857524622881,203.41727328916448 L 178.8958911424084,195.71765371195804 L 157.5763307735669,187.35559702473887 L 135.96288504493978,179.73342253943153 L 115.48260020599163,169.25841600155863 L 93.44630621363234,162.70079915421263" fill="none" stroke="black" stroke-linecap="round" stroke-linejoin="round" stroke-width="2" /><path d="M 93.8758581033483,162.7929347919314 L 114.84211719529607,153.54141111364754 L 136.38223592043806,145.73462945757893 L 158.14232778204172,138.4816494903235 L 178.8003836969016,128.4541972476961 L 199.8311040912318,119.36496055907256" fill="none" stroke="black" stroke-linecap="round" stroke-linejoin="round" stroke-width="2" /><text dominant-baseline="middle" fill="black" font-family="Virgil, Comic Sans MS, cursive" font-size="16px" text-anchor="middle" x="200.0" y="162.0">Authenticated?</text><path d="M 199.987610353304,224.033039057856 L 222.41355479426656,232.3638538819559 L 244.44367877207455,241.7501899411346 L 267.4353729224381,248.57233887349844 L 289.57688285834394,257.66164571108294 L 311.7745068747883,266.60131500056445" fill="none" stroke="black" stroke-linecap="round" stroke-linejoin="round" stroke-width="2" /><path d="M 311.7157021790001,265.24187247733363 L 289.30437315334444,273.61166174225184 L 267.3208018870946,283.12213836558556 L 245.31684451484804,292.5782520395947 L 222.2589962060561,299.2239898828164 L 200.4021771282699,309.072472342053" fill="none" stroke="black" stroke-linecap="round" stroke-linejoin="round" stroke-width="2" /><path d="M 199.9244588471655,308.20144307422527 L 177.23205298804146,300.5811920318895 L 155.26726629063145,291.0206232249827 L 133.4128956327542,281.1656116459888 L 109.95252876196558,275.5932566347584 L 88.67431628375269,264.20182324332615" fill="none" stroke="black" stroke-linecap="round" stroke-linejoin="round" stroke-width="2" /><path d="M 88.1093985246723,266.29172939912615 L 109.90482871179951,256.27954323146537 L 132.76175637995672,249.09801701321788 L 155.36321146549665,241.2352305746578 L 177.17397467658282,231.26393247088748 L 200.1506477306565,224.40172728175065" fill="none" stroke="black" stroke-linecap="round" stroke-linejoin="round" stroke-width="2" /><path d="M 200.69009124396547,222.94972134250105 L 222.09866412119322,233.60345432300463 L 244.7911202738154,240.8695080333412 L 267.59800704126746,247.83362290767838 L 289.5277131375328,257.1122836857757 L 311.8143308456227,265.44919057406685" fill="none" stroke="black" stroke-linecap="round" stroke-linejoin="round" stroke-width="2" /><path d="M 311.2958351763163,265.1171753453624 L 289.2281225838592,274.0316895104014 L 267.274712012741,283.2478032021645 L 245.51259437338135,292.9686661276528 L 222.15704638651331,298.4850728847633 L 200.08157884024484,307.3791246785172" fill="none" stroke="black" stroke-linecap="round" stroke-linejoin="round" stroke-width="2" /><path d="M 200.06280918510095,308.9306470009018 L 178.33060270447916,299.1308599128008 L 155.5090670017593,292.20539800270717 L 133.59930499432863,282.8741123656351 L 111.17265146690605,274.90670670173563 L 88.81355297473937,266.76104901374816" fill="none" stroke="black" stroke-linecap="round" stroke-linejoin="round" stroke-width="2" /><path d="M 89.13043681135446,266.0095654453804 L 110.72289987783334,255.84104867888337 L 133.7895855741908,249.56244428881826 L 155.7729921503118,240.42547863666542 L 178.01674099748863,231.97545714190323 L 199.9079270201769,222.59515655180488" fill="none" stroke="black" stroke-linecap="round" stroke-linejoin="round" stroke-width="2" /><path d="M 200.53353974964554,222.0364593317042 L 222.21017743737997,232.49028175927188 L 243.99282833779355,242.6640052641633 L 267.41783768392537,248.4984316223263 L 289.47766448842276,257.9398249754971 L 312.4750894585894,264.9039777143102" fill="none" stroke="black" stroke-linecap="round" stroke-linejoin="round" stroke-width="2" /><path d="M 312.1469395752547,266.18507154322435 L 289.1970201460748,273.2747393052623 L 268.2917934919052,285.7667171097086 L 244.66130525158778,291.0582449419275 L 222.1452087125111,299.29412194599666 L 199.95524711471106,308.39168442671644" fill="none" stroke="black" stroke-linecap="round" stroke-linejoin="round" stroke-width="2" /><path d="M 199.39999360641517,309.8929230990689 L 177.4839356501728,300.0716761550772 L 155.42458451525255,290.6290260289748 L 132.1674638708724,284.35101869348097 L 110.59162650286594,273.6308703972058 L 87.67858051550364,266.4437788229141" fill="none" stroke="black" stroke-linecap="round" stroke-linejoin="round" stroke-width="2" /><path d="M 87.58839618609733,265.27400239741047 L 109.78959085559774,256.20611896519887 L 132.82458009815267,249.3412152913011 L 154.979369898289,240.15072493503425 L 177.0155015346072,230.64672626209355 L 199.79371134766168,223.10338223391457" fill="none" stroke="black" stroke-linecap="round" stroke-linejoin="round" stroke-width="2" /><text dominant-baseline="middle" fill="black" font-family="Virgil, Comic Sans MS, cursive" font-size="16px" text-anchor="middle" x="200.0" y="266.0">Has Permission?</text><path d="M 332.0,237.39100041784576 L 354.82466272214964,236.73934193355913 L 377.6493254442993,237.407869679123 L 400.47398816644886,236.11269354191944 L 423.2986508885985,235.10437307308254 L 446.12331361074814,234.08730576539534 L 468.9479763328978,233.48479270623108 L 491.7726390550474,235.67618289034093" fill="none" stroke="black" stroke-linecap="round" stroke-linejoin="round" stroke-width="2" /><path d="M 493.73170389842835,236.0 L 492.1129971352887,256.08636589357167 L 493.74516398147597,276.1727317871433 L 490.87494334555305,296.25909768071494" fill="none" stroke="black" stroke-linecap="round" stroke-linejoin="round" stroke-width="2" /><path d="M 491.7726390550474,295.71619979092617 L 468.9479763328978,296.6586260028721 L 446.12331361074814,298.5301631636057 L 423.29865088859856,295.8001445815869 L 400.4739881664489,296.4791084043761 L 377.6493254442993,295.60386026267344 L 354.82466272214964,297.45724943655597 L 332.0,296.27258681890197" fill="none" stroke="black" stroke-linecap="round" stroke-linejoin="round" stroke-width="2" /><path d="M 332.6196031154464,296.25909768071494 L 333.0180821246311,276.1727317871433 L 332.4993320151978,256.08636589357167 L 332.4542307522432,236.0" fill="none" stroke="black" stroke-linecap="round" stroke-linejoin="round" stroke-width="2" /><path d="M 332.21084718007495,236.17418575788554 L 355.0355099022246,235.80359809697867 L 377.86017262437423,235.54281807334192 L 400.68483534652387,237.68371236603653 L 423.50949806867345,236.05299587767007 L 446.3341607908231,235.87505169272924 L 469.15882351297273,236.5419873192225 L 491.98348623512237,233.93482994708475" fill="none" stroke="black" stroke-linecap="round" stroke-linejoin="round" stroke-width="2" /><path d="M 492.461705052738,236.20800828075716 L 491.8845101737162,256.2943741743288 L 492.3367887590905,276.38074006790043 L 491.4612501025746,296.4671059614721" fill="none" stroke="black" stroke-linecap="round" stroke-linejoin="round" stroke-width="2" /><path d="M 491.98348623512237,294.840390734594 L 469.15882351297273,296.6268024194704 L 446.3341607908231,296.22043640331475 L 423.50949806867345,296.5016537855193 L 400.68483534652387,296.1886947837874 L 377.86017262437423,293.4028724399085 L 355.0355099022246,296.94885883493896 L 332.21084718007495,298.0553030323345" fill="none" stroke="black" stroke-linecap="round" stroke-linejoin="round" stroke-width="2" /><path d="M 332.49973302333086,296.4671059614721 L 332.15039520209876,276.38074006790043 L 331.5362076097707,256.2943741743288 L 332.2165726692157,236.20800828075716" fill="none" stroke="black" stroke-linecap="round" stroke-linejoin="round" stroke-width="2" /><path d="M 331.98669371166733,234.72683484025225 L 354.81135643381697,236.2558135004809 L 377.6360191559666,233.7615828773989 L 400.46068187811625,236.170763988067 L 423.28534460026583,237.27693982509436 L 446.11000732241547,237.51332248086436 L 468.9346700445651,238.65239924555019 L 491.75933276671475,235.88729121745757" fill="none" stroke="black" stroke-linecap="round" stroke-linejoin="round" stroke-width="2" /><path d="M 492.6766955953429,236.03649606115775 L 493.5735994383673,256.1228619547294 L 491.27889053454817,276.209227848301 L 491.1295117522127,296.29559374187266" fill="none" stroke="black" stroke-linecap="round" stroke-linejoin="round" stroke-width="2" /><path d="M 491.75933276671475,296.4190596284443 L 468.9346700445651,296.6723001878939 L 446.11000732241547,294.3669227276148 L 423.28534460026583,295.276614223283 L 400.46068187811625,294.8175580969639 L 377.6360191559666,296.84710634178333 L 354.81135643381697,296.13928286854764 L 331.98669371166733,297.4903628362452" fill="none" stroke="black" stroke-linecap="round" stroke-linejoin="round" stroke-width="2" /><path d="M 332.4469543828154,296.29559374187266 L 331.0802183600946,276.209227848301 L 331.97548625501304,256.1228619547294 L 332.78685049520857,236.03649606115775" fill="none" stroke="black" stroke-linecap="round" stroke-linejoin="round" stroke-width="2" /><text dominant-baseline="middle" fill="black" font-family="Virgil, Comic Sans MS, cursive" font-size="16px" text-anchor="middle" x="412.0" y="266.0">Show Login Page</text><path d="M 40.0,326.6468652745556 L 61.74130590500031,327.7064989181416 L 83.48261181000062,329.2359985638309 L 105.22391771500092,326.97350990225044 L 126.96522362000124,329.1964981427608 L 148.70652952500154,330.05624082092555 L 170.44783543000185,324.76921088583686 L 192.18914133500218,326.8411962864781" fill="none" stroke="black" stroke-linecap="round" stroke-linejoin="round" stroke-width="2" /><path d="M 192.99409905846403,328.0 L 193.25744348418306,357.95399172516466 L 192.13504674271323,387.90798345032925" fill="none" stroke="black" stroke-linecap="round" stroke-linejoin="round" stroke-width="2" /><path d="M 192.18914133500218,388.07590655164756 L 170.44783543000187,386.7750134631955 L 148.70652952500154,388.81368787000133 L 126.96522362000125,388.6577796453733 L 105.22391771500094,387.1507280340703 L 83.48261181000062,386.8759633664056 L 61.74130590500033,386.74217642056186 L 40.0,387.3027960723953" fill="none" stroke="black" stroke-linecap="round" stroke-linejoin="round" stroke-width="2" /><path d="M 41.322978548870886,387.90798345032925 L 41.106590592622055,357.95399172516466 L 40.907615873229695,328.0" fill="none" stroke="black" stroke-linecap="round" stroke-linejoin="round" stroke-width="2" /><path d="M 40.09236728806513,327.04437576057285 L 61.83367319306544,328.151655358843 L 83.57497909806574,327.40414031845006 L 105.31628500306604,328.11301652948254 L 127.05759090806637,329.2412263407519 L 148.79889681306668,328.41264485971305 L 170.54020271806698,328.9064015028322 L 192.2815086230673,328.67248877809664" fill="none" stroke="black" stroke-linecap="round" stroke-linejoin="round" stroke-width="2" /><path d="M 193.04118520946014,328.0105270968883 L 192.91833829736927,357.9645188220529 L 193.9518230499721,387.9185105472176" fill="none" stroke="black" stroke-linecap="round" stroke-linejoin="round" stroke-width="2" /><path d="M 192.2815086230673,388.65860330999226 L 170.540202718067,387.5278669009297 L 148.79889681306668,388.61097827923794 L 127.05759090806639,388.1399763798073 L 105.31628500306607,386.88759442676917 L 83.57497909806575,387.73846239049016 L 61.833673193065465,386.407371951397 L 40.092367288065134,387.1042304359802" fill="none" stroke="black" stroke-linecap="round" stroke-linejoin="round" stroke-width="2" /><path d="M 38.36910454431451,387.9185105472176 L 40.27302977497299,357.9645188220529 L 39.901845544365145,328.0105270968883" fill="none" stroke="black" stroke-linecap="round" stroke-linejoin="round" stroke-width="2" /><path d="M 39.81118449801076,326.6108253858161 L 61.55249040301107,328.5620289636699 L 83.29379630801138,328.2716394526809 L 105.03510221301168,327.1597474036065 L 126.776408118012,329.8045252180437 L 148.51771402301233,328.4188957839289 L 170.2590199280126,329.25525234371065 L 192.00032583301294,327.3822761717468" fill="none" stroke="black" stroke-linecap="round" stroke-linejoin="round" stroke-width="2" /><path d="M 192.5179690638219,327.7868546364126 L 190.0752124875446,357.74084636157727 L 192.02997530231363,387.69483808674187" fill="none" stroke="black" stroke-linecap="round" stroke-linejoin="round" stroke-width="2" /><path d="M 192.00032583301294,388.05642393701254 L 170.25901992801263,387.7180625929872 L 148.51771402301233,388.0285420218879 L 126.77640811801201,387.4839642242458 L 105.0351022130117,387.9624964804167 L 83.29379630801138,389.2193268887477 L 61.55249040301109,386.65330554957694 L 39.81118449801076,387.0979920563624" fill="none" stroke="black" stroke-linecap="round" stroke-linejoin="round" stroke-width="2" /><path d="M 38.83663345515561,387.69483808674187 L 41.854249521892555,357.74084636157727 L 39.0187239370537,327.7868546364126" fill="none" stroke="black" stroke-linecap="round" stroke-linejoin="round" stroke-width="2" /><text dominant-baseline="middle" fill="black" font-family="Virgil, Comic Sans MS, cursive" font-size="16px" text-anchor="middle" x="116.0" y="358.0">Show Dashboard</text><path d="M 212.0,327.52489417715435 L 232.57896841411088,327.03057263049584 L 253.15793682822172,328.1808238294912 L 273.73690524233257,327.4639957617271 L 294.31587365644344,327.59588253372823 L 314.8948420705543,328.4708117277328 L 335.4738104846652,327.74265025883534 L 356.05277889877607,327.98658604334116" fill="none" stroke="black" stroke-linecap="round" stroke-linejoin="round" stroke-width="2" /><path d="M 356.4273425392521,328.0 L 354.1243058277973,348.0397506077751 L 355.9387312342933,368.0795012155501 L 354.5178398631308,388.1192518233252" fill="none" stroke="black" stroke-linecap="round" stroke-linejoin="round" stroke-width="2" /><path d="M 356.05277889877607,388.99987443165617 L 335.4738104846652,389.1469315874668 L 314.8948420705543,388.40161301966145 L 294.3158736564435,388.676292174698 L 273.7369052423326,386.9604325771379 L 253.15793682822175,388.7183332663834 L 232.57896841411088,389.29940713687415 L 212.0,386.56349971724023" fill="none" stroke="black" stroke-linecap="round" stroke-linejoin="round" stroke-width="2" /><path d="M 211.16864755324582,388.1192518233252 L 210.61669718820414,368.0795012155501 L 212.03576972739583,348.0397506077751 L 211.22605657821603,328.0" fill="none" stroke="black" stroke-linecap="round" stroke-linejoin="round" stroke-width="2" /><path d="M 212.03892628368115,328.65917178467987 L 232.617894697792,328.59326659577323 L 253.19686311190287,327.2643050947157 L 273.77583152601375,327.9577903931434 L 294.3547999401246,326.1496683276246 L 314.93376835423544,329.3541451393124 L 335.5127367683463,327.43569329492186 L 356.0917051824572,328.875031130825" fill="none" stroke="black" stroke-linecap="round" stroke-linejoin="round" stroke-width="2" /><path d="M 356.50409630574643,327.83049511270934 L 355.66877340234646,347.87024572048443 L 355.6056340689725,367.90999632825947 L 354.13592073181997,387.94974693603456" fill="none" stroke="black" stroke-linecap="round" stroke-linejoin="round" stroke-width="2" /><path d="M 356.0917051824572,389.9143214309956 L 335.5127367683463,386.5179928691901 L 314.93376835423544,387.5647663586201 L 294.3547999401246,388.1244352960756 L 273.77583152601375,388.39272390768787 L 253.19686311190287,386.3453611675507 L 232.61789469779202,386.66545836669553 L 212.03892628368115,387.1432225774148" fill="none" stroke="black" stroke-linecap="round" stroke-linejoin="round" stroke-width="2" /><path d="M 211.91259035724963,387.94974693603456 L 212.76222950720378,367.90999632825947 L 211.98393564324078,347.87024572048443 L 213.1288532967285,327.83049511270934" fill="none" stroke="black" stroke-linecap="round" stroke-linejoin="round" stroke-width="2" /><path d="M 211.9086783565537,328.2009184714432 L 232.48764677066458,328.239765911549 L 253.06661518477543,330.15806380581165 L 273.64558359888633,327.86550498945263 L 294.22455201299715,328.6145854216833 L 314.803520427108,329.4872240390734 L 335.3824888412189,329.39979715333266 L 355.9614572553298,327.7774639993969" fill="none" stroke="black" stroke-linecap="round" stroke-linejoin="round" stroke-width="2" /><path d="M 355.01900637687953,328.06372636541084 L 355.88643479846104,348.10347697318593 L 357.05961573392796,368.14322758096097 L 357.6502785469852,388.18297818873606" fill="none" stroke="black" stroke-linecap="round" stroke-linejoin="round" stroke-width="2" /><path d="M 355.9614572553298,387.7373204152992 L 335.3824888412189,386.871123921387 L 314.803520427108,387.3638891799091 L 294.22455201299715,389.31805653790843 L 273.64558359888633,388.01866895685407 L 253.06661518477546,388.13191188401635 L 232.48764677066458,387.2289070355279 L 211.9086783565537,386.44642924016966" fill="none" stroke="black" stroke-linecap="round" stroke-linejoin="round" stroke-width="2" /><path d="M 209.8294502679909,388.18297818873606 L 211.06880085480182,368.14322758096097 L 212.21656319624915,348.10347697318593 L 211.54109555319434,328.06372636541084" fill="none" stroke="black" stroke-linecap="round" stroke-linejoin="round" stroke-width="2" /><text dominant-baseline="middle" fill="black" font-family="Virgil, Comic Sans MS, cursive" font-size="16px" text-anchor="middle" x="284.0" y="358.0">Access Denied</text><path d="M 150.0,407.8428727354233 L 170.02673980372904,407.4129606211556 L 190.05347960745806,406.5797744767845 L 210.0802194111871,408.5364615268817 L 230.10695921491612,408.4476569456593 L 250.13369901864516,408.1170231930825" fill="none" stroke="black" stroke-linecap="round" stroke-linejoin="round" stroke-width="2" /><path d="M 251.13366616310427,408.0 L 250.1957730493305,437.91813453977704 L 250.2172941283635,467.8362690795541" fill="none" stroke="black" stroke-linecap="round" stroke-linejoin="round" stroke-width="2" /><path d="M 250.13369901864516,468.30412392023317 L 230.10695921491612,468.5891180647406 L 210.0802194111871,466.96435342613006 L 190.05347960745806,467.2398211343488 L 170.02673980372901,467.43045229645963 L 150.0,465.8845818094616" fill="none" stroke="black" stroke-linecap="round" stroke-linejoin="round" stroke-width="2" /><path d="M 151.12019887543065,467.8362690795541 L 150.09763587966128,437.91813453977704 L 150.94324314133746,408.0" fill="none" stroke="black" stroke-linecap="round" stroke-linejoin="round" stroke-width="2" /><path d="M 149.87977686770938,407.2225353956488 L 169.90651667143842,408.9797223736167 L 189.93325647516744,409.8772103589729 L 209.95999627889648,408.07542178591905 L 229.9867360826255,408.4280129417628 L 250.01347588635454,408.9938259900541" fill="none" stroke="black" stroke-linecap="round" stroke-linejoin="round" stroke-width="2" /><path d="M 249.94383808716896,408.1458742150001 L 250.7138714026938,438.06400875477715 L 251.28724374835124,467.9821432945542" fill="none" stroke="black" stroke-linecap="round" stroke-linejoin="round" stroke-width="2" /><path d="M 250.01347588635454,469.10104565214294 L 229.9867360826255,467.7098333587629 L 209.95999627889648,466.90663431192684 L 189.93325647516744,469.16228019388416 L 169.9065166714384,468.24602669055383 L 149.87977686770938,465.78255200599943" fill="none" stroke="black" stroke-linecap="round" stroke-linejoin="round" stroke-width="2" /><path d="M 150.97892213164388,467.9821432945542 L 153.12820959343884,438.06400875477715 L 150.5026002785808,408.1458742150001" fill="none" stroke="black" stroke-linecap="round" stroke-linejoin="round" stroke-width="2" /><path d="M 149.84670641528083,407.49440122129505 L 169.87344621900988,408.8872302719981 L 189.9001860227389,409.58673681029745 L 209.92692582646794,407.7371303978322 L 229.95366563019695,407.4783401823331 L 249.980405433926,407.4522563562823" fill="none" stroke="black" stroke-linecap="round" stroke-linejoin="round" stroke-width="2" /><path d="M 250.4227522167671,408.01829474395487 L 248.79359694433862,437.9364292837319 L 251.10602375863644,467.85456382350895" fill="none" stroke="black" stroke-linecap="round" stroke-linejoin="round" stroke-width="2" /><path d="M 249.980405433926,468.1731507459992 L 229.95366563019695,468.45931123984786 L 209.92692582646794,468.24876103916216 L 189.9001860227389,466.65591915454763 L 169.87344621900985,468.47724465322307 L 149.84670641528083,468.1513663048502" fill="none" stroke="black" stroke-linecap="round" stroke-linejoin="round" stroke-width="2" /><path d="M 149.88075267961295,467.85456382350895 L 149.3223771632556,437.9364292837319 L 150.21493424413873,408.01829474395487" fill="none" stroke="black" stroke-linecap="round" stroke-linejoin="round" stroke-width="2" /><text dominant-baseline="middle" fill="black" font-family="Virgil, Comic Sans MS, cursive" font-size="16px" text-anchor="middle" x="200.0" y="438.0">Done</text></g></svg>