<?xml version="1.0" encoding="utf-8" ?>
<svg baseProfile="full" height="404.0px" version="1.1" viewBox="0 0 300.0 404.0" width="300.0px" xmlns="http://www.w3.org/2000/svg" xmlns:ev="http://www.w3.org/2001/xml-events" xmlns:xlink="http://www.w3.org/1999/xlink"><defs /><rect fill="white" height="404.0" width="300.0" x="0" y="0" /><g><path d="M 149.82985433008,100.0 L 149.9513628499239,110.0 L 149.6509109257975,120.0" fill="none" stroke="black" stroke-linecap="round" stroke-linejoin="round" stroke-width="2" /><path d="M 146.75825715005305,112.54127664183264 L 147.87443247193238,116.39867821837296 L 149.6509109257975,120.0" fill="none" stroke="black" stroke-linecap="round" stroke-linejoin="round" stroke-width="2" /><path d="M 152.98614026373383,112.7283945883066 L 150.85781747639467,116.1528867037649 L 149.6509109257975,120.0" fill="none" stroke="black" stroke-linecap="round" stroke-linejoin="round" stroke-width="2" /><path d="M 150.14826359848053,204.44479079544158 L 130.05960600848942,210.84548469213493 L 109.85937717592142,216.91146486109764 L 89.29549995666423,221.8864998699927" fill="none" stroke="black" stroke-linecap="round" stroke-linejoin="round" stroke-width="2" /><path d="M 96.93016861480233,216.233305787028 L 92.3302592868373,218.00303113278747 L 89.29549995666423,221.8864998699927" fill="none" stroke="black" stroke-linecap="round" stroke-linejoin="round" stroke-width="2" /><path d="M 98.66997804288343,223.42465768706455 L 93.97516885933784,222.7017158620184 L 89.29549995666423,221.8864998699927" fill="none" stroke="black" stroke-linecap="round" stroke-linejoin="round" stroke-width="2" /><text fill="black" font-family="Virgil, Comic Sans MS, cursive" font-size="14px" text-anchor="middle" x="130.05960600848942" y="200.84548469213493">Yes</text><path d="M 150.13421373147895,203.59735880556312 L 170.05340539432112,210.50645048370328 L 190.2902994582858,216.46243495847597 L 210.09443710535425,223.7166886839373" fill="none" stroke="black" stroke-linecap="round" stroke-linejoin="round" stroke-width="2" /><path d="M 200.61534612062187,224.1803821536829 L 205.3504905447076,223.8585662271296 L 210.09443710535425,223.7166886839373" fill="none" stroke="black" stroke-linecap="round" stroke-linejoin="round" stroke-width="2" /><path d="M 203.15765748294663,217.23986338130098 L 205.620903102072,221.55480093847896 L 210.09443710535425,223.7166886839373" fill="none" stroke="black" stroke-linecap="round" stroke-linejoin="round" stroke-width="2" /><text fill="black" font-family="Virgil, Comic Sans MS, cursive" font-size="14px" text-anchor="middle" x="170.05340539432112" y="200.50645048370328">No</text><path d="M 210.45451326838312,222.63646019485063 L 190.19387529305328,216.7517074541735 L 169.95407711627044,210.80443531785534 L 149.97760506129484,204.06718481611549" fill="none" stroke="black" stroke-linecap="round" stroke-linejoin="round" stroke-width="2" /><path d="M 159.44243535165492,203.35865105511525 L 154.80497997555662,204.98142220209039 L 149.97760506129484,204.06718481611549" fill="none" stroke="black" stroke-linecap="round" stroke-linejoin="round" stroke-width="2" /><path d="M 157.08008683648245,210.36319824914773 L 153.77946542691282,206.9324697287303 L 149.97760506129484,204.06718481611549" fill="none" stroke="black" stroke-linecap="round" stroke-linejoin="round" stroke-width="2" /><path d="M 90.67319308718537,284.0 L 90.9918026232678,294.0 L 90.03497771661289,304.0" fill="none" stroke="black" stroke-linecap="round" stroke-linejoin="round" stroke-width="2" /><path d="M 87.63562444045473,296.36828303353764 L 89.31230438569935,300.0341753357881 L 90.03497771661289,304.0" fill="none" stroke="black" stroke-linecap="round" stroke-linejoin="round" stroke-width="2" /><path d="M 93.83799084093239,296.9617408987553 L 92.08229354410709,300.55965620331733 L 90.03497771661289,304.0" fill="none" stroke="black" stroke-linecap="round" stroke-linejoin="round" stroke-width="2" /><path d="M 100.0,41.12029133394886 L 120.08971284298956,40.725865699537806 L 140.1794256859791,39.98198807108637 L 160.26913852896868,39.48773418221238 L 180.35885137195822,40.44406671440569 L 200.4485642149478,39.24450836078611" fill="none" stroke="black" stroke-linecap="round" stroke-linejoin="round" stroke-width="2" /><path d="M 199.75789101383643,40.0 L 199.08706303749085,60.01902756352061 L 200.00933862987344,80.03805512704122 L 200.59727104986035,100.05708269056183" fill="none" stroke="black" stroke-linecap="round" stroke-linejoin="round" stroke-width="2" /><path d="M 200.4485642149478,101.44695169095665 L 180.35885137195822,99.22865077076179 L 160.26913852896868,100.69703086191393 L 140.1794256859791,102.51824814239602 L 120.08971284298956,101.39093824461142 L 100.0,99.51542812514579" fill="none" stroke="black" stroke-linecap="round" stroke-linejoin="round" stroke-width="2" /><path d="M 99.19904503449824,100.05708269056183 L 99.56963489224076,80.03805512704122 L 100.9036938263959,60.01902756352061 L 99.60463154947657,40.0" fill="none" stroke="black" stroke-linecap="round" stroke-linejoin="round" stroke-width="2" /><path d="M 100.11094959365008,39.410607944562166 L 120.20066243663963,40.34270019909159 L 140.2903752796292,41.411223396444235 L 160.38008812261876,40.405770171634984 L 180.46980096560833,41.75585806748226 L 200.55951380859787,38.82657574703827" fill="none" stroke="black" stroke-linecap="round" stroke-linejoin="round" stroke-width="2" /><path d="M 201.06383964252242,40.09230620263492 L 199.17851171909993,60.11133376615553 L 201.25943032439895,80.13036132967613 L 200.688066313566,100.14938889319676" fill="none" stroke="black" stroke-linecap="round" stroke-linejoin="round" stroke-width="2" /><path d="M 200.55951380859787,101.10177869770337 L 180.4698009656083,99.17390595345314 L 160.38008812261876,101.15658634148637 L 140.2903752796292,99.34165647478665 L 120.20066243663963,100.7627522513883 L 100.11094959365008,99.77732004989487" fill="none" stroke="black" stroke-linecap="round" stroke-linejoin="round" stroke-width="2" /><path d="M 100.97533516423697,100.14938889319676 L 100.73165755648962,80.13036132967615 L 100.23311608290847,60.11133376615554 L 100.43293832931258,40.09230620263492" fill="none" stroke="black" stroke-linecap="round" stroke-linejoin="round" stroke-width="2" /><path d="M 100.29115358786648,39.9203954891803 L 120.38086643085603,39.346995315871325 L 140.4705792738456,39.20841903502687 L 160.56029211683517,40.222854921927684 L 180.65000495982474,39.377385878559814 L 200.73971780281428,38.74287223748074" fill="none" stroke="black" stroke-linecap="round" stroke-linejoin="round" stroke-width="2" /><path d="M 200.9026028966751,39.80484769764088 L 200.88481188707644,59.82387526116149 L 201.56939455486892,79.8429028246821 L 200.34805105048005,99.86193038820271" fill="none" stroke="black" stroke-linecap="round" stroke-linejoin="round" stroke-width="2" /><path d="M 200.73971780281428,100.04939166557253 L 180.6500049598247,100.49211918803552 L 160.56029211683517,99.38314338259865 L 140.4705792738456,99.14421410818227 L 120.38086643085603,100.37054844459152 L 100.29115358786648,99.73901858367691" fill="none" stroke="black" stroke-linecap="round" stroke-linejoin="round" stroke-width="2" /><path d="M 99.45748162371228,99.86193038820271 L 100.87840792665779,79.8429028246821 L 100.85052781475581,59.82387526116149 L 100.15051614475831,39.80484769764088" fill="none" stroke="black" stroke-linecap="round" stroke-linejoin="round" stroke-width="2" /><text dominant-baseline="middle" fill="black" font-family="Virgil, Comic Sans MS, cursive" font-size="16px" text-anchor="middle" x="150.0" y="70.0">Start</text><path d="M 150.23980179750197,119.39250211299498 L 171.3680222151265,128.1770103883462 L 192.61579428169802,136.65865448636504 L 214.06597767760695,144.62752321672895 L 234.17424588664218,155.99591042050648 L 256.52741599774765,161.67721280570595" fill="none" stroke="black" stroke-linecap="round" stroke-linejoin="round" stroke-width="2" /><path d="M 256.9625271332426,163.42506873754792 L 235.23744700487427,170.69753241234824 L 213.46628204848662,177.8532478561662 L 192.75420981721783,187.69199820361848 L 171.81058626150852,196.94415186248835 L 150.6488874166018,205.6438481220579" fill="none" stroke="black" stroke-linecap="round" stroke-linejoin="round" stroke-width="2" /><path d="M 150.76326398065544,202.06639791567287 L 128.19986408836547,196.9176776428075 L 107.73348635359523,186.45650123755874 L 85.38074206297705,180.77412010712484 L 65.74785545672866,168.20143284295406 L 43.72256360792316,161.68950552659467" fill="none" stroke="black" stroke-linecap="round" stroke-linejoin="round" stroke-width="2" /><path d="M 43.629126400131646,162.0737868803335 L 65.23447207334362,154.49799591913717 L 86.40575796315838,145.82258684000118 L 107.73866531270471,137.55661879218528 L 129.12204204199764,129.41850650639398 L 149.81401432120595,119.52883628038843" fill="none" stroke="black" stroke-linecap="round" stroke-linejoin="round" stroke-width="2" /><path d="M 149.76432176102134,121.0977105203275 L 170.90680002118157,129.62818070823232 L 192.97730040303568,135.79398388747003 L 213.8566699548989,144.99487395832685 L 235.08650786383527,153.30274548772925 L 255.68515131392002,163.21894582525923" fill="none" stroke="black" stroke-linecap="round" stroke-linejoin="round" stroke-width="2" /><path d="M 255.72525824364317,160.7972950577704 L 234.21715903285548,168.39613680771492 L 213.33442205044526,177.5884464237181 L 192.11839182992318,185.93150093474986 L 171.9212104484881,196.87065545276255 L 150.6707146786303,205.1258892690666" fill="none" stroke="black" stroke-linecap="round" stroke-linejoin="round" stroke-width="2" /><path d="M 149.71871917678303,204.4993380472311 L 128.5680359002897,195.98977483015693 L 106.66015042816089,189.40961718333077 L 86.59522249088032,178.1334713923042 L 64.98397956711902,170.7974472299134 L 43.59574715992503,162.89317625660615" fill="none" stroke="black" stroke-linecap="round" stroke-linejoin="round" stroke-width="2" /><path d="M 44.38087560452953,163.02143294739793 L 65.22929053711215,153.7416682837187 L 86.26729848889536,144.94500024790747 L 108.3772221989053,138.87965053985627 L 128.648335172414,128.12887902758015 L 149.82704480152816,119.69072896959625" fill="none" stroke="black" stroke-linecap="round" stroke-linejoin="round" stroke-width="2" /><path d="M 149.3734706886153,121.4794590887974 L 171.15569509623862,128.66865765191739 L 192.1147594302205,137.9371148965966 L 213.64803270748087,145.75515080942097 L 234.97588894702022,154.09205926319854 L 256.3834671735672,162.22759420664116" fill="none" stroke="black" stroke-linecap="round" stroke-linejoin="round" stroke-width="2" /><path d="M 256.3264336885821,161.46526294000654 L 234.97955851526223,169.7541305759124 L 213.6809324526793,178.16487290616953 L 192.1076653669919,185.88188658037564 L 171.54748166000317,196.15789513024907 L 149.8563881365821,203.57728547283367" fill="none" stroke="black" stroke-linecap="round" stroke-linejoin="round" stroke-width="2" /><path d="M 149.88571046361415,204.4762227272879 L 128.38511866563948,196.5756351313742 L 106.81258089092668,188.85677925633263 L 86.58319646436186,177.74518927132925 L 65.26782275736429,169.37675060248597 L 43.38193565770412,162.44939850067203" fill="none" stroke="black" stroke-linecap="round" stroke-linejoin="round" stroke-width="2" /><path d="M 43.413817001921764,161.468052788062 L 64.3124983215155,152.04707125205047 L 86.24768041577913,145.24423569175588 L 107.46094497507765,136.61787473219627 L 128.97377637947034,128.74820373284558 L 150.07948770973107,119.85016902188879" fill="none" stroke="black" stroke-linecap="round" stroke-linejoin="round" stroke-width="2" /><text dominant-baseline="middle" fill="black" font-family="Virgil, Comic Sans MS, cursive" font-size="16px" text-anchor="middle" x="150.0" y="162.0">Is it working?</text><path d="M 40.0,225.2199255798106 L 64.98375818002995,225.05741234250712 L 89.9675163600599,225.0278699592213 L 114.95127454008986,224.40976073278225 L 139.9350327201198,223.92101973864803" fill="none" stroke="black" stroke-linecap="round" stroke-linejoin="round" stroke-width="2" /><path d="M 138.7438309716633,224.0 L 139.98248497114358,244.01820386945084 L 141.05872300174556,264.0364077389017 L 140.55151994492405,284.05461160835256" fill="none" stroke="black" stroke-linecap="round" stroke-linejoin="round" stroke-width="2" /><path d="M 139.9350327201198,283.3766265560542 L 114.95127454008986,284.73907202383845 L 89.9675163600599,284.6549333183387 L 64.98375818002995,284.4067414869593 L 40.0,284.7363677923382" fill="none" stroke="black" stroke-linecap="round" stroke-linejoin="round" stroke-width="2" /><path d="M 38.65772334688389,284.05461160835256 L 41.70215586899158,264.0364077389017 L 37.96321468424202,244.01820386945087 L 40.21837083992995,224.0" fill="none" stroke="black" stroke-linecap="round" stroke-linejoin="round" stroke-width="2" /><path d="M 39.67948215582905,223.5195473650656 L 64.663240335859,222.57316219655053 L 89.64699851588895,222.72138040748712 L 114.6307566959189,224.34401016411368 L 139.61451487594886,225.56200110973577" fill="none" stroke="black" stroke-linecap="round" stroke-linejoin="round" stroke-width="2" /><path d="M 140.04328238705682,224.10222065044474 L 140.3462229391291,244.12042451989558 L 138.2509289200094,264.1386283893464 L 139.3732073207285,284.1568322587973" fill="none" stroke="black" stroke-linecap="round" stroke-linejoin="round" stroke-width="2" /><path d="M 139.61451487594886,284.1568387190893 L 114.6307566959189,283.53472020534673 L 89.64699851588895,284.5699654113082 L 64.663240335859,284.76866911586455 L 39.67948215582905,283.42060906404623" fill="none" stroke="black" stroke-linecap="round" stroke-linejoin="round" stroke-width="2" /><path d="M 40.10800765577919,284.1568322587973 L 38.972073079211384,264.1386283893464 L 39.898065980073554,244.1204245198956 L 39.09518230910541,224.10222065044474" fill="none" stroke="black" stroke-linecap="round" stroke-linejoin="round" stroke-width="2" /><path d="M 40.24714086519897,223.84248196280146 L 65.23089904522892,222.3263663319988 L 90.21465722525886,222.96586383918137 L 115.19841540528881,224.3235240332075 L 140.18217358531876,224.19544310389324" fill="none" stroke="black" stroke-linecap="round" stroke-linejoin="round" stroke-width="2" /><path d="M 140.3727248940129,224.03048383834167 L 140.56007637196174,244.04868770779254 L 141.40371472888822,264.0668915772434 L 140.6658860558641,284.08509544669425" fill="none" stroke="black" stroke-linecap="round" stroke-linejoin="round" stroke-width="2" /><path d="M 140.18217358531876,282.71792289959376 L 115.19841540528881,283.9740433085138 L 90.21465722525886,282.7456849222578 L 65.23089904522892,284.60311133456975 L 40.24714086519897,285.01292393711566" fill="none" stroke="black" stroke-linecap="round" stroke-linejoin="round" stroke-width="2" /><path d="M 40.146757605305226,284.08509544669425 L 38.77250505945663,264.0668915772434 L 40.04209795697737,244.04868770779254 L 41.13379541148227,224.03048383834167" fill="none" stroke="black" stroke-linecap="round" stroke-linejoin="round" stroke-width="2" /><text dominant-baseline="middle" fill="black" font-family="Virgil, Comic Sans MS, cursive" font-size="16px" text-anchor="middle" x="90.0" y="254.0">Great!</text><path d="M 160.0,223.48344667689034 L 184.98655539151272,221.04712563092832 L 209.97311078302545,222.5160988145019 L 234.95966617453817,224.19798091620254 L 259.9462215660509,224.956034775936" fill="none" stroke="black" stroke-linecap="round" stroke-linejoin="round" stroke-width="2" /><path d="M 259.83539654022593,224.0 L 259.9719906984742,253.98727662475818 L 260.2360890551933,283.97455324951636" fill="none" stroke="black" stroke-linecap="round" stroke-linejoin="round" stroke-width="2" /><path d="M 259.9462215660509,284.3644253701867 L 234.95966617453817,284.0963549018475 L 209.97311078302545,284.4146287624852 L 184.98655539151272,283.14109276041785 L 160.0,284.0943088048733" fill="none" stroke="black" stroke-linecap="round" stroke-linejoin="round" stroke-width="2" /><path d="M 160.12677707255793,283.97455324951636 L 161.03271947216393,253.98727662475818 L 159.55061763361502,224.0" fill="none" stroke="black" stroke-linecap="round" stroke-linejoin="round" stroke-width="2" /><path d="M 159.75700638278838,224.09241437745072 L 184.7435617743011,224.11862972092314 L 209.73011716581385,225.01308870975427 L 234.71667255732658,224.1358724054176 L 259.7032279488393,226.49911795530573" fill="none" stroke="black" stroke-linecap="round" stroke-linejoin="round" stroke-width="2" /><path d="M 259.70726242807666,224.15903747823273 L 259.81334492606015,254.1463141029909 L 258.7044476728194,284.1335907277491" fill="none" stroke="black" stroke-linecap="round" stroke-linejoin="round" stroke-width="2" /><path d="M 259.7032279488393,284.31380511055863 L 234.71667255732658,286.3035059446808 L 209.73011716581385,284.10216917662615 L 184.7435617743011,285.0433682181729 L 159.75700638278838,284.57665223941274" fill="none" stroke="black" stroke-linecap="round" stroke-linejoin="round" stroke-width="2" /><path d="M 160.2499915079852,284.1335907277491 L 161.3939162006942,254.1463141029909 L 159.1108609586619,224.15903747823273" fill="none" stroke="black" stroke-linecap="round" stroke-linejoin="round" stroke-width="2" /><path d="M 159.94118929526482,225.6575962703878 L 184.92774468677754,224.2054489930795 L 209.9143000782903,222.85116424772605 L 234.90085546980302,222.93890827729882 L 259.88741086131574,223.01945457249195" fill="none" stroke="black" stroke-linecap="round" stroke-linejoin="round" stroke-width="2" /><path d="M 259.6819666065485,224.07153409930444 L 259.41411685000196,254.05881072406265 L 259.82567123255086,284.04608734882083" fill="none" stroke="black" stroke-linecap="round" stroke-linejoin="round" stroke-width="2" /><path d="M 259.88741086131574,286.63316672388453 L 234.90085546980302,286.0090955278267 L 209.9143000782903,284.7164853231574 L 184.92774468677754,284.3896459284094 L 159.94118929526482,286.24304816454287" fill="none" stroke="black" stroke-linecap="round" stroke-linejoin="round" stroke-width="2" /><path d="M 160.85917182362348,284.04608734882083 L 161.14011909932069,254.05881072406265 L 161.07767786367663,224.07153409930444" fill="none" stroke="black" stroke-linecap="round" stroke-linejoin="round" stroke-width="2" /><text dominant-baseline="middle" fill="black" font-family="Virgil, Comic Sans MS, cursive" font-size="16px" text-anchor="middle" x="210.0" y="254.0">Debug</text><path d="M 40.0,305.3457190075159 L 64.99364824730065,304.52267937407163 L 89.98729649460131,303.2060282286256 L 114.98094474190196,301.65819182723004 L 139.97459298920262,304.90594027767946" fill="none" stroke="black" stroke-linecap="round" stroke-linejoin="round" stroke-width="2" /><path d="M 140.20699696878268,304.0 L 139.72752436785086,324.06087763039733 L 139.982844225166,344.1217552607947 L 140.26424331409032,364.18263289119204" fill="none" stroke="black" stroke-linecap="round" stroke-linejoin="round" stroke-width="2" /><path d="M 139.97459298920262,365.9949771630924 L 114.98094474190196,364.25609912272864 L 89.98729649460131,364.8331173950194 L 64.99364824730065,364.93380060966615 L 40.0,363.80962543619137" fill="none" stroke="black" stroke-linecap="round" stroke-linejoin="round" stroke-width="2" /><path d="M 40.17792026695904,364.18263289119204 L 38.55422333902686,344.1217552607947 L 38.38041110483117,324.06087763039733 L 39.87680545532314,304.0" fill="none" stroke="black" stroke-linecap="round" stroke-linejoin="round" stroke-width="2" /><path d="M 39.91270665059861,305.33304755284155 L 64.90635489789926,305.9753463055621 L 89.90000314519992,304.3922687052084 L 114.89365139250057,303.0690925533927 L 139.88729963980123,304.47195383193423" fill="none" stroke="black" stroke-linecap="round" stroke-linejoin="round" stroke-width="2" /><path d="M 141.4547804105119,304.00916471186673 L 140.01202284066042,324.07004234226406 L 140.11459132799493,344.13091997266145 L 140.6359639380096,364.1917976030588" fill="none" stroke="black" stroke-linecap="round" stroke-linejoin="round" stroke-width="2" /><path d="M 139.88729963980123,365.21955514478253 L 114.89365139250057,364.77642092037183 L 89.90000314519992,362.920367120714 L 64.90635489789926,364.5283561001967 L 39.91270665059861,364.9550819851987" fill="none" stroke="black" stroke-linecap="round" stroke-linejoin="round" stroke-width="2" /><path d="M 40.451963996621174,364.1917976030588 L 40.04028151036015,344.13091997266145 L 41.7301936485726,324.07004234226406 L 39.56434427853812,304.00916471186673" fill="none" stroke="black" stroke-linecap="round" stroke-linejoin="round" stroke-width="2" /><path d="M 39.9217557478742,303.29268543852095 L 64.91540399517486,303.3105842974837 L 89.90905224247552,304.83816151918757 L 114.90270048977618,303.95159227568547 L 139.89634873707683,304.9209030858213" fill="none" stroke="black" stroke-linecap="round" stroke-linejoin="round" stroke-width="2" /><path d="M 139.86960530765586,304.03262849743373 L 139.67025942389094,324.09350612783106 L 141.14833429887773,344.15438375822845 L 139.5019413016084,364.2152613886258" fill="none" stroke="black" stroke-linecap="round" stroke-linejoin="round" stroke-width="2" /><path d="M 139.89634873707683,363.0600260549826 L 114.90270048977618,362.5563947133434 L 89.90905224247552,364.2340657323114 L 64.91540399517486,364.5705034217265 L 39.9217557478742,362.87979502213784" fill="none" stroke="black" stroke-linecap="round" stroke-linejoin="round" stroke-width="2" /><path d="M 39.39269074531704,364.2152613886258 L 40.85040408135454,344.15438375822845 L 41.276163157384936,324.09350612783106 L 38.65315963240508,304.03262849743373" fill="none" stroke="black" stroke-linecap="round" stroke-linejoin="round" stroke-width="2" /><text dominant-baseline="middle" fill="black" font-family="Virgil, Comic Sans MS, cursive" font-size="16px" text-anchor="middle" x="90.0" y="334.0">End</text></g></svg>