<?xml version="1.0" encoding="utf-8" ?>
<svg baseProfile="full" height="876.0px" version="1.1" viewBox="0 0 741.2 876.0" width="741.2px" xmlns="http://www.w3.org/2000/svg" xmlns:ev="http://www.w3.org/2001/xml-events" xmlns:xlink="http://www.w3.org/1999/xlink"><defs /><rect fill="white" height="876.0" width="741.2" x="0" y="0" /><g><path d="M 407.7491827464902,100.0 L 406.9622914552157,110.0 L 406.73433127873744,120.0" fill="none" stroke="black" stroke-linecap="round" stroke-linejoin="round" stroke-width="2" /><path d="M 403.7877222373219,112.56242679652509 L 406.70389784316495,115.70957842153781 L 406.73433127873744,120.0" fill="none" stroke="black" stroke-linecap="round" stroke-linejoin="round" stroke-width="2" /><path d="M 410.016797428784,112.70442490451929 L 408.5524045902803,116.43177740536403 L 406.73433127873744,120.0" fill="none" stroke="black" stroke-linecap="round" stroke-linejoin="round" stroke-width="2" /><path d="M 407.50901722845055,204.27193516103648 L 392.1683406163735,220.34547307574204 L 377.71470791623466,237.19960963295313 L 364.228867358193,254.90540327520986" fill="none" stroke="black" stroke-linecap="round" stroke-linejoin="round" stroke-width="2" /><path d="M 366.71230974649177,245.21678820487443 L 366.69310731513025,250.37445888781482 L 364.228867358193,254.90540327520986" fill="none" stroke="black" stroke-linecap="round" stroke-linejoin="round" stroke-width="2" /><path d="M 372.9092853654839,249.93679267506928 L 367.9870359129816,251.404243405557 L 364.228867358193,254.90540327520986" fill="none" stroke="black" stroke-linecap="round" stroke-linejoin="round" stroke-width="2" /><text fill="black" font-family="Virgil, Comic Sans MS, cursive" font-size="14px" text-anchor="middle" x="392.1683406163735" y="210.34547307574204">Yes</text><path d="M 513.9930055541212,161.9162727297742 L 519.0375779935218,184.8854725144236 L 521.5474105386505,208.39468210263536 L 527.6960343474678,231.12867094336556 L 533.3705363787905,253.96366833669248" fill="none" stroke="black" stroke-linecap="round" stroke-linejoin="round" stroke-width="2" /><path d="M 524.8882208309838,242.65545758345726 L 528.6484227382801,248.6703290895849 L 533.3705363787905,253.96366833669248" fill="none" stroke="black" stroke-linecap="round" stroke-linejoin="round" stroke-width="2" /><path d="M 535.5728640868425,240.00032131105087 L 533.4927969730543,246.82760019566987 L 533.3705363787905,253.96366833669248" fill="none" stroke="black" stroke-linecap="round" stroke-linejoin="round" stroke-width="2" /><text fill="black" font-family="Virgil, Comic Sans MS, cursive" font-size="14px" text-anchor="middle" x="519.0375779935218" y="174.8854725144236">No</text><path d="M 243.69324434452477,254.4537847969628 L 226.35176695926404,269.2729589358563 L 210.9140845380121,285.8436244416378 L 196.0411285331935,302.93383825053803" fill="none" stroke="black" stroke-linecap="round" stroke-linejoin="round" stroke-width="2" /><path d="M 199.21762782720532,293.2230670422181 L 197.9676267107735,298.1890974340597 L 196.0411285331935,302.93383825053803" fill="none" stroke="black" stroke-linecap="round" stroke-linejoin="round" stroke-width="2" /><path d="M 205.2202977771881,298.44695991306367 L 200.6890839116782,300.8098128506617 L 196.0411285331935,302.93383825053803" fill="none" stroke="black" stroke-linecap="round" stroke-linejoin="round" stroke-width="2" /><path d="M 197.499315815639,388.0 L 198.79527529215835,398.0 L 197.23399799819123,408.0" fill="none" stroke="black" stroke-linecap="round" stroke-linejoin="round" stroke-width="2" /><path d="M 195.29259577242968,400.2391393906469 L 194.8226061440365,404.47996274353414 L 197.23399799819123,408.0" fill="none" stroke="black" stroke-linecap="round" stroke-linejoin="round" stroke-width="2" /><path d="M 201.44871067070324,401.20027963161965 L 199.3727095382666,404.6195749054499 L 197.23399799819123,408.0" fill="none" stroke="black" stroke-linecap="round" stroke-linejoin="round" stroke-width="2" /><text fill="black" font-family="Virgil, Comic Sans MS, cursive" font-size="14px" text-anchor="middle" x="198.79527529215835" y="388.0">Yes</text><path d="M 303.1573192471599,346.7539852822568 L 322.00045424387037,354.9699790082896 L 338.37050749376317,367.3981893869669 L 357.0300745152063,375.9268408257131 L 373.2779703629573,388.5631128441673 L 392.05806146876205,396.88648455213007 L 409.7376862947321,407.08419882703686" fill="none" stroke="black" stroke-linecap="round" stroke-linejoin="round" stroke-width="2" /><path d="M 391.4035366842392,404.8141105376335 L 400.34757146670665,407.75051596235534 L 409.7376862947321,407.08419882703686" fill="none" stroke="black" stroke-linecap="round" stroke-linejoin="round" stroke-width="2" /><path d="M 398.5926229122101,392.3504991904489 L 403.08687562608606,400.53299530555995 L 409.7376862947321,407.08419882703686" fill="none" stroke="black" stroke-linecap="round" stroke-linejoin="round" stroke-width="2" /><text fill="black" font-family="Virgil, Comic Sans MS, cursive" font-size="14px" text-anchor="middle" x="322.00045424387037" y="344.9699790082896">No</text><path d="M 409.5886151905464,407.6677966919523 L 396.4292889042867,392.09028529149685 L 383.23048550204373,376.54652045793034 L 369.80743984219447,361.19444658651116 L 356.22852687622276,345.9756141219386 L 342.6514887843186,330.7551789424373 L 330.00939484799386,314.73551730736006 L 315.94559872462287,299.931181735403 L 302.7529580078783,284.3821487997169" fill="none" stroke="black" stroke-linecap="round" stroke-linejoin="round" stroke-width="2" /><path d="M 320.6096116601299,293.3899187980867 L 312.6560674838307,286.9536625053043 L 302.7529580078783,284.3821487997169" fill="none" stroke="black" stroke-linecap="round" stroke-linejoin="round" stroke-width="2" /><path d="M 308.732029740138,303.4675018543631 L 305.4035448788226,294.03101148718014 L 302.7529580078783,284.3821487997169" fill="none" stroke="black" stroke-linecap="round" stroke-linejoin="round" stroke-width="2" /><path d="M 197.11384516938497,467.98388070911074 L 193.73509077426803,488.74183418787385 L 190.33319169227372,509.4954573703824 L 187.37233771293756,530.3315986688722" fill="none" stroke="black" stroke-linecap="round" stroke-linejoin="round" stroke-width="2" /><path d="M 184.94937686522917,521.1808666872208 L 186.59126654460735,525.6422675027231 L 187.37233771293756,530.3315986688722" fill="none" stroke="black" stroke-linecap="round" stroke-linejoin="round" stroke-width="2" /><path d="M 192.24857795708027,522.2180965797033 L 191.8919921599129,527.5258562926914 L 187.37233771293756,530.3315986688722" fill="none" stroke="black" stroke-linecap="round" stroke-linejoin="round" stroke-width="2" /><path d="M 113.68158301736482,572.0 L 114.17233951305671,588.0 L 113.08227210980715,604.0" fill="none" stroke="black" stroke-linecap="round" stroke-linejoin="round" stroke-width="2" /><path d="M 110.47497864216572,596.4367982458754 L 110.74537187108957,600.5745968287923 L 113.08227210980715,604.0" fill="none" stroke="black" stroke-linecap="round" stroke-linejoin="round" stroke-width="2" /><path d="M 116.69126210268762,596.86030874398 L 114.56256242490983,600.2662745334038 L 113.08227210980715,604.0" fill="none" stroke="black" stroke-linecap="round" stroke-linejoin="round" stroke-width="2" /><text fill="black" font-family="Virgil, Comic Sans MS, cursive" font-size="14px" text-anchor="middle" x="114.17233951305671" y="578.0">Yes</text><path d="M 185.06639149083162,530.1334021272921 L 191.87096413179424,550.5322589670513 L 196.2365533741399,571.540861656465 L 200.83279501948968,592.4918012451276 L 206.08945767434162,613.2776355814146 L 213.4354496869644,633.5411375782589" fill="none" stroke="black" stroke-linecap="round" stroke-linejoin="round" stroke-width="2" /><path d="M 202.4798845100601,621.7288568714712 L 207.53159480200583,628.0301675505895 L 213.4354496869644,633.5411375782589" fill="none" stroke="black" stroke-linecap="round" stroke-linejoin="round" stroke-width="2" /><path d="M 214.2762454359541,617.4524009482489 L 212.97886865918605,625.4509384345231 L 213.4354496869644,633.5411375782589" fill="none" stroke="black" stroke-linecap="round" stroke-linejoin="round" stroke-width="2" /><text fill="black" font-family="Virgil, Comic Sans MS, cursive" font-size="14px" text-anchor="middle" x="191.87096413179424" y="540.5322589670513">No</text><path d="M 282.3020721181477,591.5221380099059 L 269.99971394590153,573.9747569133195 L 257.79055638752664,556.3639392698725 L 244.8612774763144,539.2432687407759 L 233.5372156701032,521.0300149563399 L 222.13666453944114,502.8688232604818 L 209.26540955721902,485.70865902487907 L 198.9314883304763,466.82147084603065" fill="none" stroke="black" stroke-linecap="round" stroke-linejoin="round" stroke-width="2" /><path d="M 214.60603177695782,479.2435756493385 L 206.92426130265738,472.8363076206962 L 198.9314883304763,466.82147084603065" fill="none" stroke="black" stroke-linecap="round" stroke-linejoin="round" stroke-width="2" /><path d="M 200.94097537314852,486.7202638201116 L 198.87947132345695,476.8775846898326 L 198.9314883304763,466.82147084603065" fill="none" stroke="black" stroke-linecap="round" stroke-linejoin="round" stroke-width="2" /><text fill="black" font-family="Virgil, Comic Sans MS, cursive" font-size="14px" text-anchor="middle" x="257.79055638752664" y="546.3639392698725">Yes</text><path d="M 283.29626593411393,676.0 L 280.8113562667536,686.0 L 282.57901049303547,696.0" fill="none" stroke="black" stroke-linecap="round" stroke-linejoin="round" stroke-width="2" /><path d="M 278.22861337081184,689.2862793565007 L 281.36301543719395,692.0215892160643 L 282.57901049303547,696.0" fill="none" stroke="black" stroke-linecap="round" stroke-linejoin="round" stroke-width="2" /><path d="M 284.36418802586974,688.2017219095326 L 283.57271718239605,692.1240088140901 L 282.57901049303547,696.0" fill="none" stroke="black" stroke-linecap="round" stroke-linejoin="round" stroke-width="2" /><text fill="black" font-family="Virgil, Comic Sans MS, cursive" font-size="14px" text-anchor="middle" x="280.8113562667536" y="676.0">No</text><path d="M 112.56474660649857,664.0 L 112.71659680045983,680.0 L 112.84012146476188,696.0" fill="none" stroke="black" stroke-linecap="round" stroke-linejoin="round" stroke-width="2" /><path d="M 109.66798238418713,688.6557822980599 L 110.10396962758594,692.8246385424077 L 112.84012146476188,696.0" fill="none" stroke="black" stroke-linecap="round" stroke-linejoin="round" stroke-width="2" /><path d="M 115.89849018572194,688.6076809615214 L 115.65754068443371,692.8368122286107 L 112.84012146476188,696.0" fill="none" stroke="black" stroke-linecap="round" stroke-linejoin="round" stroke-width="2" /><path d="M 365.931984628823,725.7095134497799 L 377.61091943592646,743.7404454935644 L 393.4754930177222,758.108943609493 L 407.15976914208744,774.3852020006735 L 420.3649210595276,791.0806940729134 L 436.20130359253585,805.4738593565312" fill="none" stroke="black" stroke-linecap="round" stroke-linejoin="round" stroke-width="2" /><path d="M 421.0807356385537,800.164382388296 L 428.89204461575355,802.1042405562332 L 436.20130359253585,805.4738593565312" fill="none" stroke="black" stroke-linecap="round" stroke-linejoin="round" stroke-width="2" /><path d="M 429.475488092511,790.9278796099882 L 432.5569671770762,798.3309973476729 L 436.20130359253585,805.4738593565312" fill="none" stroke="black" stroke-linecap="round" stroke-linejoin="round" stroke-width="2" /><path d="M 617.4511956458432,284.0641263681258 L 613.1599711309227,303.93119263017053 L 607.7525406167819,323.51330874282075 L 602.4952350775959,343.1337494425733 L 598.2863805581026,363.02184349206846 L 591.9345677504389,382.3628733932014 L 584.3999050965318,401.4019400002528 L 581.3195815752554,421.5781305810001 L 576.4126914561616,441.2880269245811 L 571.5691697088711,461.0141002346224 L 567.6575671485245,480.9780781175908 L 562.491596610787,500.6218352323473 L 556.8264499234389,520.1381603869592 L 551.8498448830405,539.8302595880283 L 545.1980362254786,559.0947051827644 L 541.0011015560904,578.9858421858638 L 536.6666415747846,598.8418711012051 L 532.5051578532947,618.7420581836866 L 526.997721891061,638.2986444502384 L 522.1013261260192,658.0112198403009 L 515.4703901826815,677.2809939165545 L 510.9611685917477,697.0924088925274 L 506.70817280645275,716.9692343587204 L 500.67180427318795,736.3907923103911 L 496.92387915264885,756.3965545153916 L 491.0248759631716,775.8531797174276" fill="none" stroke="black" stroke-linecap="round" stroke-linejoin="round" stroke-width="2" /><path d="M 488.91636992994745,755.964635217946 L 488.7960484139023,766.0334312853369 L 491.0248759631716,775.8531797174276" fill="none" stroke="black" stroke-linecap="round" stroke-linejoin="round" stroke-width="2" /><path d="M 503.82303419895464,760.4841476798574 L 497.7483024462739,768.438755458044 L 491.0248759631716,775.8531797174276" fill="none" stroke="black" stroke-linecap="round" stroke-linejoin="round" stroke-width="2" /><path d="M 331.2,41.60360580676773 L 352.91069247454215,40.117141444096085 L 374.62138494908436,40.20101791313443 L 396.3320774236265,39.598234076739175 L 418.0427698981687,39.24846541440132 L 439.7534623727108,42.089247919749944 L 461.464154847253,40.64200500243513 L 483.1748473217952,38.81455640172098" fill="none" stroke="black" stroke-linecap="round" stroke-linejoin="round" stroke-width="2" /><path d="M 482.05085052336625,40.0 L 483.22539585593876,60.01486885073297 L 483.21164975299325,80.02973770146593 L 484.6170230915066,100.04460655219891" fill="none" stroke="black" stroke-linecap="round" stroke-linejoin="round" stroke-width="2" /><path d="M 483.1748473217952,99.70590296981783 L 461.46415484725304,99.52297301053878 L 439.7534623727108,101.17896609842514 L 418.0427698981687,97.91116205118321 L 396.3320774236265,97.69906518868946 L 374.62138494908436,99.69579953895835 L 352.9106924745422,99.33254812908672 L 331.2,100.91567593043295" fill="none" stroke="black" stroke-linecap="round" stroke-linejoin="round" stroke-width="2" /><path d="M 332.28332672537806,100.04460655219891 L 330.2942562212716,80.02973770146595 L 331.8157779361165,60.014868850732974 L 331.85025616837765,40.0" fill="none" stroke="black" stroke-linecap="round" stroke-linejoin="round" stroke-width="2" /><path d="M 331.0213523979453,40.04402116479817 L 352.73204487248745,39.485855183585194 L 374.4427373470296,40.2179614678971 L 396.1534298215718,41.673835832769306 L 417.864122296114,39.46909245601952 L 439.5748147706562,40.3407210989896 L 461.28550724519835,39.69560367960401 L 482.9961997197405,39.92757173457435" fill="none" stroke="black" stroke-linecap="round" stroke-linejoin="round" stroke-width="2" /><path d="M 481.41961663996904,39.77865731617576 L 482.96216253967475,59.79352616690873 L 481.8133589129038,79.80839501764169 L 483.5278189309752,99.82326386837467" fill="none" stroke="black" stroke-linecap="round" stroke-linejoin="round" stroke-width="2" /><path d="M 482.9961997197405,98.36249517764179 L 461.28550724519835,99.66904510026743 L 439.5748147706562,101.04730722084143 L 417.864122296114,99.60312521967018 L 396.1534298215718,96.71040080645487 L 374.4427373470296,99.97603471397505 L 352.73204487248745,101.67096935717065 L 331.0213523979453,100.2533436547392" fill="none" stroke="black" stroke-linecap="round" stroke-linejoin="round" stroke-width="2" /><path d="M 332.3615405630018,99.82326386837467 L 330.83674760302927,79.8083950176417 L 329.7363706505509,59.793526166908734 L 330.0441569072342,39.77865731617576" fill="none" stroke="black" stroke-linecap="round" stroke-linejoin="round" stroke-width="2" /><path d="M 330.98888323508805,41.52214073029141 L 352.6995757096302,38.24507087066626 L 374.4102681841724,40.520762262131804 L 396.1209606587146,40.646337949793946 L 417.83165313325674,38.918053926799665 L 439.5423456077989,41.293885317656546 L 461.25303808234105,40.513821112609094 L 482.96373055688326,40.82548816432312" fill="none" stroke="black" stroke-linecap="round" stroke-linejoin="round" stroke-width="2" /><path d="M 484.2437043854212,40.1593504742825 L 482.8158784037206,60.17421932501547 L 482.52496732662496,80.18908817574845 L 482.14013175439084,100.20395702648142" fill="none" stroke="black" stroke-linecap="round" stroke-linejoin="round" stroke-width="2" /><path d="M 482.96373055688326,99.6397926269735 L 461.2530380823411,99.47464822755427 L 439.5423456077989,98.27390241397612 L 417.83165313325674,99.95844328947318 L 396.1209606587146,99.36216608561502 L 374.4102681841724,99.56735738703355 L 352.69957570963027,99.17336446103364 L 330.98888323508805,99.32030414891813" fill="none" stroke="black" stroke-linecap="round" stroke-linejoin="round" stroke-width="2" /><path d="M 329.927431109922,100.20395702648142 L 329.1324917609544,80.18908817574845 L 329.4142889062145,60.17421932501547 L 332.9087618004417,40.1593504742825" fill="none" stroke="black" stroke-linecap="round" stroke-linejoin="round" stroke-width="2" /><text dominant-baseline="middle" fill="black" font-family="Virgil, Comic Sans MS, cursive" font-size="16px" text-anchor="middle" x="407.2" y="70.0">Client Request</text><path d="M 407.4668465271662,119.32398879784559 L 428.42575591036274,128.53741836041448 L 449.7651369370609,136.78698642611235 L 471.3965653193701,144.29670119092918 L 492.09985907271664,154.1576903491179 L 513.5495170023847,162.12789026062543" fill="none" stroke="black" stroke-linecap="round" stroke-linejoin="round" stroke-width="2" /><path d="M 513.8346489062458,162.59444389582256 L 492.010707306327,169.61645850936168 L 470.82813289947813,178.26327001201116 L 449.9462857639945,187.67192393545278 L 428.65390819839314,196.0405674359292 L 407.84870996843273,205.64339858669632" fill="none" stroke="black" stroke-linecap="round" stroke-linejoin="round" stroke-width="2" /><path d="M 407.12636742998995,204.18653584402546 L 385.57791373412414,196.4666185402189 L 364.3041873069052,188.05072548917346 L 343.46846575175687,178.52522009554932 L 322.21349477540065,170.06181323565167 L 300.97596725429406,161.5542162891218" fill="none" stroke="black" stroke-linecap="round" stroke-linejoin="round" stroke-width="2" /><path d="M 301.0639515246909,162.66867719588348 L 321.50891496961566,152.15325125635977 L 343.7596246982972,146.21238256901955 L 364.74453689368,137.06482679732264 L 385.9328576980175,128.43257283497763 L 407.05930458121725,119.64357160575037" fill="none" stroke="black" stroke-linecap="round" stroke-linejoin="round" stroke-width="2" /><path d="M 407.282606996738,119.44278941100904 L 428.7262394864665,127.39758899199052 L 449.8950013518294,136.04903786947565 L 470.5113790758262,146.10048365230713 L 492.53890385972966,152.57543009543622 L 513.3438393075934,162.14898339344717" fill="none" stroke="black" stroke-linecap="round" stroke-linejoin="round" stroke-width="2" /><path d="M 513.2516328670753,161.5153110266592 L 492.48689660130856,171.19074764520533 L 471.19490245677946,179.52986892935155 L 449.3916458958686,186.57321477906135 L 428.34129617242957,195.52477479268245 L 407.1282744646913,204.06404875833286" fill="none" stroke="black" stroke-linecap="round" stroke-linejoin="round" stroke-width="2" /><path d="M 406.58656788692906,205.13343213913654 L 386.21958667695014,194.44990023781932 L 364.4263656947594,187.38111958993295 L 343.49214884014305,178.1352251724336 L 322.2148089692816,169.75896318085495 L 300.7551603643783,161.84475584356986" fill="none" stroke="black" stroke-linecap="round" stroke-linejoin="round" stroke-width="2" /><path d="M 301.28884003020414,163.40582345758656 L 321.3213581539839,151.87460739851383 L 343.4809062378244,145.73426906141822 L 364.9470674346687,137.83656764434414 L 385.81347310737067,128.41880832754998 L 407.20341750303555,120.32793828415961" fill="none" stroke="black" stroke-linecap="round" stroke-linejoin="round" stroke-width="2" /><path d="M 407.25373488227797,119.37545061407404 L 427.96096323977326,129.24159252988238 L 450.0264966612457,135.67369009660825 L 471.54214311232886,143.4960027875936 L 492.5929929792432,152.4934064987541 L 513.8021798842935,161.0905051345074" fill="none" stroke="black" stroke-linecap="round" stroke-linejoin="round" stroke-width="2" /><path d="M 513.9650731452431,162.539330052516 L 492.1550358159685,169.61736860473417 L 470.59786248844097,177.33469373499346 L 449.6156191480446,186.50554732935564 L 427.9525598326767,193.95517326019845 L 406.39866931621,201.6807979389697" fill="none" stroke="black" stroke-linecap="round" stroke-linejoin="round" stroke-width="2" /><path d="M 406.9642598090521,204.2797025165428 L 385.4939402449298,196.3427951412283 L 364.50974902131344,187.17686615293687 L 343.1385542257674,178.98935318068297 L 322.8359847805234,168.10015931006993 L 300.3669975544217,162.68806696503313" fill="none" stroke="black" stroke-linecap="round" stroke-linejoin="round" stroke-width="2" /><path d="M 300.89264808760515,161.8588851450148 L 322.6046834268384,154.5330795859397 L 343.452069982244,145.0212833029908 L 365.6462876000241,138.91452298845257 L 386.3040802637871,128.92339857113794 L 407.3080428976338,119.80745533448345" fill="none" stroke="black" stroke-linecap="round" stroke-linejoin="round" stroke-width="2" /><text dominant-baseline="middle" fill="black" font-family="Virgil, Comic Sans MS, cursive" font-size="16px" text-anchor="middle" x="407.2" y="162.0">Valid Request?</text><path d="M 243.2,225.34007324404607 L 263.2026538398058,223.10671309497326 L 283.2053076796116,222.42162208296136 L 303.20796151941744,225.6759050799902 L 323.21061535922325,224.25726282402871 L 343.21326919902907,223.0915765702551 L 363.2159230388349,225.23157159529342" fill="none" stroke="black" stroke-linecap="round" stroke-linejoin="round" stroke-width="2" /><path d="M 362.03820661522496,224.0 L 363.2427612524373,253.99881308966488 L 364.9095375860663,283.99762617932976" fill="none" stroke="black" stroke-linecap="round" stroke-linejoin="round" stroke-width="2" /><path d="M 363.2159230388349,283.00813085302184 L 343.21326919902907,283.4825946579932 L 323.21061535922325,282.91478440710205 L 303.20796151941744,283.14117627073153 L 283.2053076796116,282.2198987036046 L 263.2026538398058,283.66924069927063 L 243.2,283.1240533288591" fill="none" stroke="black" stroke-linecap="round" stroke-linejoin="round" stroke-width="2" /><path d="M 242.59264044246126,283.99762617932976 L 243.46467509103934,253.99881308966488 L 242.54476802780349,224.0" fill="none" stroke="black" stroke-linecap="round" stroke-linejoin="round" stroke-width="2" /><path d="M 243.31681239342416,222.50478705814672 L 263.31946623322995,225.7160283084423 L 283.32212007303576,224.2401669297399 L 303.3247739128416,224.4149360369222 L 323.3274277526474,224.49483601448387 L 343.3300815924532,225.22728596629437 L 363.332735432259,223.61671359380878" fill="none" stroke="black" stroke-linecap="round" stroke-linejoin="round" stroke-width="2" /><path d="M 363.8652332124262,224.0749029659979 L 364.2910024892881,254.07371605566277 L 362.98202257963624,284.0725291453277" fill="none" stroke="black" stroke-linecap="round" stroke-linejoin="round" stroke-width="2" /><path d="M 363.332735432259,283.61919508314094 L 343.3300815924532,284.8737563626204 L 323.3274277526474,284.60018955413136 L 303.3247739128416,283.70135140095425 L 283.32212007303576,284.6323689919596 L 263.31946623322995,285.15120984430104 L 243.31681239342416,282.6701059819311" fill="none" stroke="black" stroke-linecap="round" stroke-linejoin="round" stroke-width="2" /><path d="M 242.32188524014367,284.0725291453277 L 244.0527441009728,254.07371605566277 L 243.34950674895646,224.0749029659979" fill="none" stroke="black" stroke-linecap="round" stroke-linejoin="round" stroke-width="2" /><path d="M 243.51134081444303,222.65493508092038 L 263.51399465424885,223.16556651072304 L 283.51664849405466,225.1523140994643 L 303.5193023338605,223.3059430250791 L 323.5219561736663,225.014113566718 L 343.5246100134721,224.14517784282452 L 363.52726385327793,223.8018188995412" fill="none" stroke="black" stroke-linecap="round" stroke-linejoin="round" stroke-width="2" /><path d="M 363.08447839203365,224.01077571732978 L 364.25934260945814,254.00958880699466 L 363.5444387836527,284.0084018966595" fill="none" stroke="black" stroke-linecap="round" stroke-linejoin="round" stroke-width="2" /><path d="M 363.52726385327793,283.6463653484829 L 343.5246100134721,283.7782950438701 L 323.5219561736663,283.2501018648941 L 303.5193023338605,281.96865446409333 L 283.51664849405466,282.64691679481166 L 263.51399465424885,284.78559437892204 L 243.51134081444303,284.5944110689312" fill="none" stroke="black" stroke-linecap="round" stroke-linejoin="round" stroke-width="2" /><path d="M 244.27442156053607,284.0084018966595 L 244.13640326724342,254.00958880699466 L 242.52345536773004,224.01077571732978" fill="none" stroke="black" stroke-linecap="round" stroke-linejoin="round" stroke-width="2" /><text dominant-baseline="middle" fill="black" font-family="Virgil, Comic Sans MS, cursive" font-size="16px" text-anchor="middle" x="303.2" y="254.0">Parse Data</text><path d="M 533.2,223.23729228054358 L 554.1801098510367,224.81465236362038 L 575.1602197020735,223.32765498800424 L 596.1403295531102,222.61642791340182 L 617.120439404147,223.46617884529047 L 638.1005492551836,225.23780873312103 L 659.0806591062203,224.0049726263952 L 680.0607689572571,223.12370612857816 L 701.0408788082938,224.50643909104258" fill="none" stroke="black" stroke-linecap="round" stroke-linejoin="round" stroke-width="2" /><path d="M 700.5775456576207,224.0 L 700.4216566409967,244.04635213549014 L 701.3317839517428,264.0927042709803 L 702.0064521897735,284.1390564064704" fill="none" stroke="black" stroke-linecap="round" stroke-linejoin="round" stroke-width="2" /><path d="M 701.0408788082938,284.16737589574467 L 680.0607689572571,282.5076545340342 L 659.0806591062203,281.1847493270317 L 638.1005492551836,283.22341491404296 L 617.120439404147,282.8530191447226 L 596.1403295531102,283.778822302935 L 575.1602197020735,283.689695110966 L 554.1801098510368,283.2269585204738 L 533.2,285.64964230629676" fill="none" stroke="black" stroke-linecap="round" stroke-linejoin="round" stroke-width="2" /><path d="M 533.2304792644098,284.1390564064704 L 532.1765328708838,264.0927042709803 L 532.993770689403,244.04635213549014 L 532.3158293483493,224.0" fill="none" stroke="black" stroke-linecap="round" stroke-linejoin="round" stroke-width="2" /><path d="M 533.4544293681162,223.22874682751498 L 554.4345392191528,222.42361683345086 L 575.4146490701896,222.5137828678483 L 596.3947589212263,224.07621529574826 L 617.374868772263,224.82440259524336 L 638.3549786232998,225.24620973589384 L 659.3350884743364,224.27749846636553 L 680.3151983253731,223.38392818010632 L 701.2953081764099,221.57191573909378" fill="none" stroke="black" stroke-linecap="round" stroke-linejoin="round" stroke-width="2" /><path d="M 699.564396189511,224.0604603476352 L 701.3155457912525,244.1068124831253 L 702.0254010733715,264.15316461861545 L 701.4119263580018,284.19951675410556" fill="none" stroke="black" stroke-linecap="round" stroke-linejoin="round" stroke-width="2" /><path d="M 701.2953081764099,284.4788391489539 L 680.3151983253732,282.32427646743355 L 659.3350884743364,283.2549262410467 L 638.3549786232998,283.85060212159334 L 617.374868772263,285.13603117000986 L 596.3947589212263,284.81669945000425 L 575.4146490701896,284.90379694879203 L 554.4345392191528,285.16154495892664 L 533.4544293681162,283.00309114443377" fill="none" stroke="black" stroke-linecap="round" stroke-linejoin="round" stroke-width="2" /><path d="M 531.7524704609098,284.19951675410556 L 533.8134961541567,264.15316461861545 L 533.9339931152192,244.10681248312534 L 533.413811743372,224.0604603476352" fill="none" stroke="black" stroke-linecap="round" stroke-linejoin="round" stroke-width="2" /><path d="M 533.338021253065,225.43639973560067 L 554.3181311041017,223.63723051014816 L 575.2982409551385,222.78029189008598 L 596.2783508061751,221.52599201380932 L 617.2584606572118,224.79672038582913 L 638.2385705082486,223.67858267706026 L 659.2186803592853,225.0298672832952 L 680.1987902103219,224.1052038395976 L 701.1789000613587,224.62978637868244" fill="none" stroke="black" stroke-linecap="round" stroke-linejoin="round" stroke-width="2" /><path d="M 701.543167868585,223.79702956074473 L 700.8751802038581,243.84338169623487 L 701.8748825818241,263.88973383172504 L 700.0295162664203,283.93608596721515" fill="none" stroke="black" stroke-linecap="round" stroke-linejoin="round" stroke-width="2" /><path d="M 701.1789000613587,283.4290902368993 L 680.198790210322,283.30439490286676 L 659.2186803592853,284.68743303458155 L 638.2385705082486,282.7887374998278 L 617.2584606572118,284.052527314763 L 596.2783508061751,284.928976340399 L 575.2982409551385,283.68977155920226 L 554.3181311041017,284.02514700416555 L 533.338021253065,283.3536749126093" fill="none" stroke="black" stroke-linecap="round" stroke-linejoin="round" stroke-width="2" /><path d="M 533.387478785423,283.93608596721515 L 532.0324457374771,263.88973383172504 L 533.2734374414266,243.84338169623487 L 532.9897664793331,223.79702956074473" fill="none" stroke="black" stroke-linecap="round" stroke-linejoin="round" stroke-width="2" /><text dominant-baseline="middle" fill="black" font-family="Virgil, Comic Sans MS, cursive" font-size="16px" text-anchor="middle" x="617.2" y="254.0">Return 400 Error</text><path d="M 197.4084768701175,303.4718585957023 L 218.3546470143785,312.71756089690774 L 240.22985475899748,319.6097012772064 L 260.9676637659072,329.38325179303496 L 282.20754140388385,337.88489511016087 L 303.56008438819094,346.1011195499162" fill="none" stroke="black" stroke-linecap="round" stroke-linejoin="round" stroke-width="2" /><path d="M 303.868630624181,346.6805309145919 L 282.7957358417543,355.6051974657777 L 260.8684686378652,362.3654538825919 L 239.32088593963485,370.08757771374167 L 218.30968755258826,379.1685417998904 L 196.9549939400218,387.37931798138857" fill="none" stroke="black" stroke-linecap="round" stroke-linejoin="round" stroke-width="2" /><path d="M 197.3080939210556,387.7261620666592 L 175.46453438877754,380.75384621509687 L 154.30320503276343,372.05321391699925 L 133.41068118385925,362.6716076675566 L 111.70572242799909,355.3481698490689 L 91.69539615320276,343.73166307855297" fill="none" stroke="black" stroke-linecap="round" stroke-linejoin="round" stroke-width="2" /><path d="M 90.73024072781446,345.8232765104633 L 112.36988645103433,338.33437900928703 L 133.70610525176113,330.0767999711282 L 154.9029104383245,321.4660397770888 L 176.0799357414994,312.80517054513183 L 197.26446797821635,304.1633188781481" fill="none" stroke="black" stroke-linecap="round" stroke-linejoin="round" stroke-width="2" /><path d="M 197.27612907593564,303.6988857638874 L 218.12827691373897,313.3424769994506 L 240.2582557676637,319.7389612723629 L 260.4274707467327,331.117958843069 L 282.77825081990096,336.95336331174906 L 303.75115042146234,346.2901112418169" fill="none" stroke="black" stroke-linecap="round" stroke-linejoin="round" stroke-width="2" /><path d="M 303.9214532511032,345.6733503955138 L 282.91561958849576,354.92640931069485 L 261.1554956839481,362.26273505414724 L 239.77131383628483,370.5543702673664 L 218.65030805227488,379.514764352385 L 197.52624840569942,388.46739824198323" fill="none" stroke="black" stroke-linecap="round" stroke-linejoin="round" stroke-width="2" /><path d="M 196.877657666407,388.69859030873187 L 175.6603714701099,379.9828551756093 L 154.28509848288778,371.66858158344746 L 132.83541096153724,363.5434033793629 L 111.61201130716135,354.84320320512217 L 90.71238419615399,345.3202619433485" fill="none" stroke="black" stroke-linecap="round" stroke-linejoin="round" stroke-width="2" /><path d="M 90.4035967633433,345.42577946601926 L 111.75953249839468,337.0623678224484 L 133.4682294353433,329.5953605863322 L 154.6877157692134,320.8852162409914 L 175.67994211005197,311.5975796479318 L 196.9004643352976,302.8900676147321" fill="none" stroke="black" stroke-linecap="round" stroke-linejoin="round" stroke-width="2" /><path d="M 196.9774549624371,305.0853764639874 L 218.41442038596603,312.8163346804262 L 240.1148396006185,319.87317524630134 L 261.00852219952696,328.99426924238844 L 282.7673674660259,335.9016109810329 L 303.22705146652373,346.1332075599859" fill="none" stroke="black" stroke-linecap="round" stroke-linejoin="round" stroke-width="2" /><path d="M 303.56383463635734,346.7715546072558 L 281.8809974944412,353.87338365294954 L 260.3977370742868,361.4858836220238 L 240.29022703571064,372.61861236076834 L 218.51041705318244,379.47231021349967 L 196.76273417740342,386.4082139423689" fill="none" stroke="black" stroke-linecap="round" stroke-linejoin="round" stroke-width="2" /><path d="M 196.5384651223901,389.1299472530704 L 176.65942054101401,377.41262796208576 L 154.88151308707438,370.55406197632516 L 133.32271700831353,363.13484038254535 L 112.1063258369391,354.83948339240453 L 91.6127250794505,344.6946719928935" fill="none" stroke="black" stroke-linecap="round" stroke-linejoin="round" stroke-width="2" /><path d="M 91.51273960535939,347.09249968219103 L 112.49614410900881,338.20098340206755 L 134.2307490437005,331.23161623020735 L 155.26553833057105,322.4715817905691 L 175.67051156484126,312.0999929456758 L 198.14305030331352,307.0188286345704" fill="none" stroke="black" stroke-linecap="round" stroke-linejoin="round" stroke-width="2" /><text dominant-baseline="middle" fill="black" font-family="Virgil, Comic Sans MS, cursive" font-size="16px" text-anchor="middle" x="197.2" y="346.0">Data Complete?</text><path d="M 117.19999999999999,409.36518796650057 L 140.00400478003957,408.78600745718666 L 162.80800956007917,406.8197361236816 L 185.61201434011878,406.8807638147368 L 208.41601912015835,407.6906864684672 L 231.22002390019796,408.6731433715403 L 254.02402868023754,407.06869997932813 L 276.82803346027714,408.7809640930658" fill="none" stroke="black" stroke-linecap="round" stroke-linejoin="round" stroke-width="2" /><path d="M 275.9622804724656,408.0 L 277.9713485883733,428.0281361341597 L 277.2886816045774,448.0562722683194 L 277.6222644987714,468.0844084024791" fill="none" stroke="black" stroke-linecap="round" stroke-linejoin="round" stroke-width="2" /><path d="M 276.82803346027714,468.27597956265157 L 254.02402868023756,467.927669159862 L 231.22002390019796,469.50520685733153 L 208.41601912015835,467.94642033400396 L 185.61201434011878,467.7750469700268 L 162.80800956007917,468.5070503564295 L 140.0040047800396,467.0355198417074 L 117.19999999999999,468.4663901413121" fill="none" stroke="black" stroke-linecap="round" stroke-linejoin="round" stroke-width="2" /><path d="M 117.38887754448639,468.0844084024791 L 116.6745547520791,448.0562722683194 L 116.45370955226466,428.0281361341597 L 117.47496625132992,408.0" fill="none" stroke="black" stroke-linecap="round" stroke-linejoin="round" stroke-width="2" /><path d="M 117.23430341470437,409.4651658141875 L 140.03830819474396,406.74284952840264 L 162.84231297478357,407.1209375429205 L 185.64631775482314,409.12577017256046 L 208.45032253486272,408.98033355567554 L 231.25432731490235,407.1429161132271 L 254.05833209494193,409.3063296988925 L 276.8623368749815,408.8983206206143" fill="none" stroke="black" stroke-linecap="round" stroke-linejoin="round" stroke-width="2" /><path d="M 276.90403875303844,407.80535919146575 L 274.49295268853444,427.83349532562545 L 277.0064486077311,447.86163145978514 L 276.5765278007379,467.88976759394484" fill="none" stroke="black" stroke-linecap="round" stroke-linejoin="round" stroke-width="2" /><path d="M 276.8623368749815,468.2778181496611 L 254.05833209494193,466.6834431747888 L 231.25432731490233,468.2702795388576 L 208.45032253486272,466.8638314245129 L 185.64631775482314,468.00831366042274 L 162.84231297478354,469.95714910806663 L 140.03830819474396,468.0572936102428 L 117.23430341470436,468.60663412164615" fill="none" stroke="black" stroke-linecap="round" stroke-linejoin="round" stroke-width="2" /><path d="M 116.51209956367762,467.88976759394484 L 116.00678710659494,447.86163145978514 L 117.9147492585828,427.83349532562545 L 116.85152958614631,407.80535919146575" fill="none" stroke="black" stroke-linecap="round" stroke-linejoin="round" stroke-width="2" /><path d="M 117.16393248137848,407.7860832468391 L 139.96793726141806,408.72620751444515 L 162.77194204145766,407.36454793845394 L 185.57594682149727,408.92564557500924 L 208.37995160153685,408.717356407431 L 231.18395638157645,408.564436848445 L 253.98796116161603,408.54279907227414 L 276.79196594165563,407.5441469953263" fill="none" stroke="black" stroke-linecap="round" stroke-linejoin="round" stroke-width="2" /><path d="M 277.70123373086795,408.07639679898534 L 275.31229857029234,428.10453293314504 L 277.195667043258,448.13266906730473 L 277.3513179616416,468.1608052014644" fill="none" stroke="black" stroke-linecap="round" stroke-linejoin="round" stroke-width="2" /><path d="M 276.79196594165563,468.85944343096907 L 253.98796116161606,468.45176168250805 L 231.18395638157645,467.9647557408931 L 208.37995160153685,469.7722272864777 L 185.57594682149727,469.3471849856097 L 162.77194204145766,467.5868002377353 L 139.9679372614181,469.1053009293871 L 117.16393248137848,468.73301225534914" fill="none" stroke="black" stroke-linecap="round" stroke-linejoin="round" stroke-width="2" /><path d="M 117.77075592565008,468.1608052014644 L 117.8626045414129,448.13266906730473 L 117.39842720949214,428.10453293314504 L 118.1024350191102,408.07639679898534" fill="none" stroke="black" stroke-linecap="round" stroke-linejoin="round" stroke-width="2" /><text dominant-baseline="middle" fill="black" font-family="Virgil, Comic Sans MS, cursive" font-size="16px" text-anchor="middle" x="197.2" y="438.0">Process Request</text><path d="M 297.2,409.23860364866846 L 317.58714489010447,407.1748209443237 L 337.974289780209,407.6428240774492 L 358.3614346703135,407.5731654125176 L 378.74857956041797,408.4587132437345 L 399.1357244505225,409.30263973962985 L 419.522869340627,407.7015982112163 L 439.91001423073146,408.1444094240625 L 460.297159120836,408.2837799576672 L 480.68430401094054,409.29189889775415 L 501.07144890104496,407.6441378064729 L 521.4585937911495,407.9609075872892" fill="none" stroke="black" stroke-linecap="round" stroke-linejoin="round" stroke-width="2" /><path d="M 520.6682268771192,408.0 L 520.0291925634776,428.1343206849644 L 520.7081338589403,448.26864136992884 L 522.2945289373619,468.40296205489324" fill="none" stroke="black" stroke-linecap="round" stroke-linejoin="round" stroke-width="2" /><path d="M 521.4585937911495,469.1355325810563 L 501.071448901045,467.3522925615947 L 480.6843040109405,468.750890713787 L 460.297159120836,469.0210267312858 L 439.91001423073146,469.9355685287128 L 419.522869340627,470.1434844894845 L 399.1357244505225,467.80522677462545 L 378.74857956041797,468.5885663385199 L 358.3614346703135,468.7437930767746 L 337.974289780209,468.28225371864204 L 317.58714489010447,468.61525474867705 L 297.2,468.1718226991855" fill="none" stroke="black" stroke-linecap="round" stroke-linejoin="round" stroke-width="2" /><path d="M 298.0560700355248,468.40296205489324 L 296.4108996440146,448.26864136992884 L 297.982568272379,428.1343206849644 L 295.15922926336737,408.0" fill="none" stroke="black" stroke-linecap="round" stroke-linejoin="round" stroke-width="2" /><path d="M 297.04936660285415,407.1203183049923 L 317.43651149295863,407.0163391544176 L 337.82365638306317,409.55614284382233 L 358.21080127316765,407.0753112144349 L 378.5979461632721,408.4584016718034 L 398.98509105337666,408.4104301178647 L 419.37223594348114,406.64206332836943 L 439.7593808335856,408.13075207305803 L 460.14652572369016,406.91634791117394 L 480.5336706137947,409.45763557733477 L 500.9208155038991,406.5420372443198 L 521.3079603940037,408.89650993194795" fill="none" stroke="black" stroke-linecap="round" stroke-linejoin="round" stroke-width="2" /><path d="M 521.095829496567,407.94229299800725 L 521.3789694431059,428.07661368297164 L 521.1841278262835,448.2109343679361 L 520.7233167285049,468.3452550529005" fill="none" stroke="black" stroke-linecap="round" stroke-linejoin="round" stroke-width="2" /><path d="M 521.3079603940037,468.20459174324264 L 500.9208155038992,468.3320477544344 L 480.53367061379464,467.4220959121994 L 460.14652572369016,468.2485335848621 L 439.7593808335856,467.86755698481244 L 419.37223594348114,468.10459125051165 L 398.98509105337666,468.7860666643388 L 378.5979461632721,467.7677292120698 L 358.21080127316765,468.9915403589769 L 337.82365638306317,470.3405240775511 L 317.43651149295863,467.8324140442828 L 297.04936660285415,470.58369247069066" fill="none" stroke="black" stroke-linecap="round" stroke-linejoin="round" stroke-width="2" /><path d="M 296.4051872359097,468.3452550529005 L 296.70812329837065,448.2109343679361 L 297.67936451659756,428.07661368297164 L 297.8461700330646,407.94229299800725" fill="none" stroke="black" stroke-linecap="round" stroke-linejoin="round" stroke-width="2" /><path d="M 297.07503910937027,407.9432425272795 L 317.46218399947475,408.80791563934037 L 337.8493288895793,408.8276103266583 L 358.23647377968376,407.6596733127535 L 378.62361866978824,408.26525632732296 L 399.0107635598928,407.5997938840516 L 419.39790844999726,408.7834471774699 L 439.78505334010174,408.60182186673217 L 460.1721982302063,407.55297838029566 L 480.5593431203108,407.97922641242207 L 500.94648801041524,409.0382954054245 L 521.3336329005198,409.4959036222016" fill="none" stroke="black" stroke-linecap="round" stroke-linejoin="round" stroke-width="2" /><path d="M 522.7880195212097,408.0185863817566 L 521.8201761683799,428.152907066721 L 521.321325961221,448.28722775168546 L 522.5803434880585,468.42154843664986" fill="none" stroke="black" stroke-linecap="round" stroke-linejoin="round" stroke-width="2" /><path d="M 521.3336329005198,468.6238803830962 L 500.9464880104153,467.2224803896534 L 480.55934312031076,468.3512150281559 L 460.1721982302063,470.0596674381562 L 439.78505334010174,468.8387258125758 L 419.39790844999726,468.7361213669909 L 399.0107635598928,468.7027087970513 L 378.62361866978824,467.31446968131576 L 358.23647377968376,468.6041948405425 L 337.8493288895793,467.98593270320504 L 317.46218399947475,469.85448069468544 L 297.07503910937027,468.1999367831152" fill="none" stroke="black" stroke-linecap="round" stroke-linejoin="round" stroke-width="2" /><path d="M 297.0786903706815,468.42154843664986 L 299.1097868606072,448.28722775168546 L 299.35690618003133,428.152907066721 L 298.8083504981407,408.0185863817566" fill="none" stroke="black" stroke-linecap="round" stroke-linejoin="round" stroke-width="2" /><text dominant-baseline="middle" fill="black" font-family="Virgil, Comic Sans MS, cursive" font-size="16px" text-anchor="middle" x="409.2" y="438.0">Request Additional Info</text><path d="M 112.7898694244238,488.01755966433205 L 131.65575533892343,497.3633574125327 L 149.00210837060547,509.3430121576171 L 167.46256707711743,519.3915503996631 L 185.61976857396468,529.9657344717946" fill="none" stroke="black" stroke-linecap="round" stroke-linejoin="round" stroke-width="2" /><path d="M 184.99725277371223,528.9552381411012 L 167.6559481797233,540.9436435115203 L 148.90185108605675,550.483208549165 L 131.59084087146132,562.5241241771996 L 112.26549705598711,571.0735282303776" fill="none" stroke="black" stroke-linecap="round" stroke-linejoin="round" stroke-width="2" /><path d="M 113.07365019800156,571.5256729901306 L 94.44587214721159,561.7671549448332 L 76.45169804523856,550.9103900549198 L 58.31331086231878,540.3035945053141 L 40.12413540458982,529.7848319653776" fill="none" stroke="black" stroke-linecap="round" stroke-linejoin="round" stroke-width="2" /><path d="M 40.263789829593605,530.4572357046289 L 57.86937368142344,518.926914381134 L 76.06479906291793,508.41898504239106 L 95.17353096640328,499.4941203417657 L 112.58623349273965,487.6294713874154" fill="none" stroke="black" stroke-linecap="round" stroke-linejoin="round" stroke-width="2" /><path d="M 112.95544975844983,487.973804867685 L 131.29718333887124,498.36849941203053 L 148.85511083728926,510.12498737540767 L 168.66118063091005,517.9755278691905 L 185.82090660998094,530.4238555885304" fill="none" stroke="black" stroke-linecap="round" stroke-linejoin="round" stroke-width="2" /><path d="M 186.10623054213377,530.2378364740625 L 168.33204270413353,541.6185913141551 L 149.7658444973898,551.623298516032 L 131.3630780712415,561.9119539142622 L 113.45104508443696,573.053215057129" fill="none" stroke="black" stroke-linecap="round" stroke-linejoin="round" stroke-width="2" /><path d="M 112.4122830105372,573.0499995332823 L 94.39387982067663,562.0935471662451 L 75.76054737128742,552.2054797454637 L 58.3575727988281,540.1797748422398 L 39.872195529141756,530.0346484439162" fill="none" stroke="black" stroke-linecap="round" stroke-linejoin="round" stroke-width="2" /><path d="M 40.09736154055027,530.5225245769733 L 57.61645632595924,518.69856822539 L 74.52686219867589,505.8170689756664 L 94.16311958405176,497.6714945119676 L 113.84476241865332,489.6047732333796" fill="none" stroke="black" stroke-linecap="round" stroke-linejoin="round" stroke-width="2" /><path d="M 113.16033271722415,487.23338409467664 L 130.05738994580696,499.92633005871824 L 149.57564589109202,508.03859518713523 L 166.56940461253453,520.562550272196 L 185.18496669824793,530.2523197831034" fill="none" stroke="black" stroke-linecap="round" stroke-linejoin="round" stroke-width="2" /><path d="M 184.45777273023972,528.0146592663656 L 167.1232287131391,539.9430743555699 L 149.02932847239035,550.5444750223602 L 131.04506564285222,561.337472757011 L 113.05735306094378,572.1244418703026" fill="none" stroke="black" stroke-linecap="round" stroke-linejoin="round" stroke-width="2" /><path d="M 112.34781225565072,571.9726537586946 L 94.43717859863555,561.0509852226392 L 76.19051285812937,550.7165501974176 L 58.4464964999737,539.5037092817537 L 40.31957827104505,528.9600092634196" fill="none" stroke="black" stroke-linecap="round" stroke-linejoin="round" stroke-width="2" /><path d="M 39.7213790147724,529.5323947415015 L 57.68765828729599,518.7079698073607 L 76.50558570150133,509.3718442136853 L 93.34463346481935,496.5775236975618 L 111.72826106045859,486.48243662448976" fill="none" stroke="black" stroke-linecap="round" stroke-linejoin="round" stroke-width="2" /><text dominant-baseline="middle" fill="black" font-family="Virgil, Comic Sans MS, cursive" font-size="16px" text-anchor="middle" x="112.8" y="530.0">Success?</text><path d="M 40.80000000000001,603.2353317640292 L 61.36671668115626,606.2981056854518 L 81.93343336231251,603.1220045074001 L 102.50015004346876,605.1582890579466 L 123.06686672462502,603.840650180224 L 143.63358340578128,604.6272264707277 L 164.20030008693752,604.4321503873515 L 184.76701676809378,604.0212466437526" fill="none" stroke="black" stroke-linecap="round" stroke-linejoin="round" stroke-width="2" /><path d="M 186.76895032437963,604.0 L 186.20285321005855,624.0253457274013 L 185.15846869899454,644.0506914548024 L 184.6403410631691,664.0760371822037" fill="none" stroke="black" stroke-linecap="round" stroke-linejoin="round" stroke-width="2" /><path d="M 184.76701676809378,663.701938700411 L 164.20030008693755,664.4683489066838 L 143.63358340578128,663.6606713636418 L 123.06686672462503,664.135366958187 L 102.50015004346878,664.0797211944124 L 81.93343336231251,663.3387157994565 L 61.36671668115628,662.2363808319092 L 40.80000000000001,664.5405098090117" fill="none" stroke="black" stroke-linecap="round" stroke-linejoin="round" stroke-width="2" /><path d="M 39.59951657455815,664.0760371822037 L 40.16539784444433,644.0506914548024 L 41.262932643264854,624.0253457274013 L 41.6615393461245,604.0" fill="none" stroke="black" stroke-linecap="round" stroke-linejoin="round" stroke-width="2" /><path d="M 40.961596341339316,604.4601863045581 L 61.52831302249557,602.5831329976644 L 82.09502970365182,604.1628879230063 L 102.66174638480807,604.6304529007867 L 123.22846306596432,603.8079652195727 L 143.79517974712059,605.3881590599067 L 164.36189642827682,603.7070736949195 L 184.9286131094331,602.5946730792483" fill="none" stroke="black" stroke-linecap="round" stroke-linejoin="round" stroke-width="2" /><path d="M 185.42967017338157,604.0988795349316 L 184.9992671547548,624.1242252623329 L 184.53200832075197,644.149570989734 L 186.0724144186008,664.1749167171353" fill="none" stroke="black" stroke-linecap="round" stroke-linejoin="round" stroke-width="2" /><path d="M 184.9286131094331,665.4338929322562 L 164.36189642827685,664.0881524527265 L 143.79517974712059,664.3082515789134 L 123.22846306596433,664.1503797171459 L 102.66174638480808,663.0843563727949 L 82.09502970365182,664.0092819857437 L 61.52831302249558,663.6435511981584 L 40.961596341339316,664.2095108122419" fill="none" stroke="black" stroke-linecap="round" stroke-linejoin="round" stroke-width="2" /><path d="M 41.15960997704548,664.1749167171353 L 38.54297066562143,644.149570989734 L 41.023734314898306,624.1242252623329 L 41.07637020468584,604.0988795349316" fill="none" stroke="black" stroke-linecap="round" stroke-linejoin="round" stroke-width="2" /><path d="M 40.527799523471884,604.4663163466109 L 61.094516204628135,604.2230438346226 L 81.66123288578439,604.2327358006016 L 102.22794956694064,602.7841361204836 L 122.79466624809689,604.8864868124703 L 143.36138292925315,604.4278224421814 L 163.9280996104094,603.101719044467 L 184.49481629156566,602.2435193978472" fill="none" stroke="black" stroke-linecap="round" stroke-linejoin="round" stroke-width="2" /><path d="M 186.19016230881317,603.8268303191699 L 185.1647110790673,623.8521760465711 L 184.5879911478072,643.8775217739723 L 185.29129324278694,663.9028675013735" fill="none" stroke="black" stroke-linecap="round" stroke-linejoin="round" stroke-width="2" /><path d="M 184.49481629156566,663.4566556115009 L 163.9280996104094,663.8238902929926 L 143.36138292925315,663.5950551717498 L 122.7946662480969,662.3469973593844 L 102.22794956694065,662.5320774998648 L 81.66123288578439,665.2708813995788 L 61.09451620462815,664.1791679273078 L 40.527799523471884,663.6804110778054" fill="none" stroke="black" stroke-linecap="round" stroke-linejoin="round" stroke-width="2" /><path d="M 40.06021254157962,663.9028675013735 L 40.894953067626766,643.8775217739723 L 40.63668608190814,623.8521760465711 L 40.25892516575343,603.8268303191699" fill="none" stroke="black" stroke-linecap="round" stroke-linejoin="round" stroke-width="2" /><text dominant-baseline="middle" fill="black" font-family="Virgil, Comic Sans MS, cursive" font-size="16px" text-anchor="middle" x="112.80000000000001" y="634.0">Return 200 OK</text><path d="M 280.9444324213493,593.0926126310846 L 298.3605609052139,603.7323984913102 L 315.5013037104286,614.831160482619 L 333.4084607618308,624.6525653969487 L 351.5099962449153,634.1500062584745" fill="none" stroke="black" stroke-linecap="round" stroke-linejoin="round" stroke-width="2" /><path d="M 351.6290867390689,634.0484778984481 L 333.8941978706909,644.1569964511515 L 316.74400840232215,655.2400140038702 L 298.91825158735713,665.1970859789285 L 281.8434989300102,676.405831550017" fill="none" stroke="black" stroke-linecap="round" stroke-linejoin="round" stroke-width="2" /><path d="M 281.82331242572656,675.627812623789 L 265.0236307845214,663.960615359131 L 246.6025692136717,654.9957179772139 L 229.52198978532746,643.796683691121 L 212.30515500448547,632.8247416591909" fill="none" stroke="black" stroke-linecap="round" stroke-linejoin="round" stroke-width="2" /><path d="M 211.36319216131653,633.6053202688609 L 229.93149993315868,624.8858332219311 L 246.65353980747673,613.0892330124612 L 264.304334346125,602.8405572435416 L 282.1583983283526,592.9306638805875" fill="none" stroke="black" stroke-linecap="round" stroke-linejoin="round" stroke-width="2" /><path d="M 280.98928070045514,592.9349275441158 L 298.7430873249715,603.1035323759693 L 316.18598807130473,613.7910208255723 L 334.16946085392993,623.5763263525348 L 352.7128461237886,632.4271708821797" fill="none" stroke="black" stroke-linecap="round" stroke-linejoin="round" stroke-width="2" /><path d="M 351.342605401545,633.3184465899188 L 334.52477135742885,645.0491345881333 L 316.75620543434434,655.1931070190774 L 298.1667230148977,663.9670181183028 L 282.44865811638954,677.5331561128222" fill="none" stroke="black" stroke-linecap="round" stroke-linejoin="round" stroke-width="2" /><path d="M 281.93480203178615,675.4675133427011 L 264.85157969740885,664.1797427861376 L 246.2397038950426,655.4432049254332 L 229.37034471769826,643.7985093429645 L 210.9760847509506,634.6987834565938" fill="none" stroke="black" stroke-linecap="round" stroke-linejoin="round" stroke-width="2" /><path d="M 211.40076666529325,634.042454287129 L 228.72459958449954,623.1562486397095 L 246.34894269895418,612.7715768268778 L 262.9742456489438,600.7195657606229 L 281.3995013269942,591.671569892705" fill="none" stroke="black" stroke-linecap="round" stroke-linejoin="round" stroke-width="2" /><path d="M 281.06196516005156,592.6269669126693 L 298.90728692074237,602.8639958491666 L 316.262527989846,613.9228969852401 L 335.03209563309747,622.6099526020598 L 351.76551552643963,634.7116565790511" fill="none" stroke="black" stroke-linecap="round" stroke-linejoin="round" stroke-width="2" /><path d="M 352.0763127212276,634.0815270116053 L 335.29579934672677,646.1042545595922 L 316.9674005612683,655.5311565440876 L 299.0771871767242,665.6929015971915 L 281.8033326661752,676.8882891344709" fill="none" stroke="black" stroke-linecap="round" stroke-linejoin="round" stroke-width="2" /><path d="M 281.5090586368455,676.1582382858461 L 264.88007329171944,663.8813961054375 L 245.64095496580416,655.9817835750281 L 227.90622696842678,645.5592873449315 L 211.36884029441345,633.1288329071987" fill="none" stroke="black" stroke-linecap="round" stroke-linejoin="round" stroke-width="2" /><path d="M 211.67590452030166,635.6580904422092 L 228.05082344603923,622.9551753098851 L 245.7322224404155,612.4432455931197 L 263.4129705248304,601.930224291212 L 281.78579118855555,592.5778184201669" fill="none" stroke="black" stroke-linecap="round" stroke-linejoin="round" stroke-width="2" /><text dominant-baseline="middle" fill="black" font-family="Virgil, Comic Sans MS, cursive" font-size="16px" text-anchor="middle" x="281.6" y="634.0">Retry?</text><path d="M 197.6,696.3965317463984 L 218.64033063265052,697.8366664906267 L 239.680661265301,695.2455426211486 L 260.72099189795154,695.7764977427215 L 281.76132253060206,696.6842609242947 L 302.8016531632526,696.9706869885453 L 323.84198379590305,696.8749093082379 L 344.88231442855357,694.8176781658162 L 365.9226450612041,696.3749934679134" fill="none" stroke="black" stroke-linecap="round" stroke-linejoin="round" stroke-width="2" /><path d="M 365.99532261441624,696.0 L 368.2506301004289,716.1247197669951 L 365.9440725336323,736.2494395339903 L 364.9424653912269,756.3741593009854" fill="none" stroke="black" stroke-linecap="round" stroke-linejoin="round" stroke-width="2" /><path d="M 365.9226450612041,755.2764057316226 L 344.88231442855357,756.2456445261901 L 323.84198379590305,756.4126635717637 L 302.8016531632526,756.26562155274 L 281.76132253060206,756.1056640877631 L 260.72099189795154,756.0022958864919 L 239.680661265301,757.6631276373013 L 218.64033063265052,758.074659968895 L 197.6,757.2009833127388" fill="none" stroke="black" stroke-linecap="round" stroke-linejoin="round" stroke-width="2" /><path d="M 197.5659698794136,756.3741593009854 L 198.32369153796824,736.2494395339903 L 197.32824484641515,716.1247197669951 L 198.7883685558135,696.0" fill="none" stroke="black" stroke-linecap="round" stroke-linejoin="round" stroke-width="2" /><path d="M 197.39870993654318,694.5498401198008 L 218.4390405691937,696.2117669820575 L 239.47937120184423,696.72031606682 L 260.51970183449475,695.358563991962 L 281.5600324671452,695.2347915364139 L 302.6003630997958,697.4078497133486 L 323.64069373244627,696.1123597730559 L 344.6810243650968,695.7161458562803 L 365.7213549977473,696.5184665226027" fill="none" stroke="black" stroke-linecap="round" stroke-linejoin="round" stroke-width="2" /><path d="M 366.72210903150705,695.9697872987091 L 365.6505115332403,716.0945070657042 L 364.10419507922603,736.2192268326994 L 364.6350722216423,756.3439465996945" fill="none" stroke="black" stroke-linecap="round" stroke-linejoin="round" stroke-width="2" /><path d="M 365.7213549977473,754.9700076893554 L 344.6810243650968,756.3855518017442 L 323.64069373244627,756.8614063419266 L 302.60036309979574,757.6348761780102 L 281.5600324671452,757.9943595779351 L 260.51970183449475,755.9453044916896 L 239.47937120184423,755.7911908296065 L 218.4390405691937,757.0415157447311 L 197.39870993654318,755.6322257740127" fill="none" stroke="black" stroke-linecap="round" stroke-linejoin="round" stroke-width="2" /><path d="M 196.52451835880925,756.3439465996945 L 195.52404875723798,736.2192268326994 L 197.23476559998454,716.0945070657042 L 196.88131814387538,695.9697872987091" fill="none" stroke="black" stroke-linecap="round" stroke-linejoin="round" stroke-width="2" /><path d="M 197.52438843612285,696.2598798031468 L 218.56471906877337,695.3268064402412 L 239.60504970142387,694.14805372596 L 260.6453803340744,695.7510808204964 L 281.6857109667249,695.9795562474892 L 302.72604159937543,695.8876675112267 L 323.7663722320259,697.9398817222482 L 344.8067028646764,695.1087834623744 L 365.84703349732695,694.2252294763633" fill="none" stroke="black" stroke-linecap="round" stroke-linejoin="round" stroke-width="2" /><path d="M 364.8839444933204,695.7370326716416 L 366.4079035506027,715.8617524386367 L 366.35774212391124,735.9864722056319 L 367.2386035863782,756.111191972627" fill="none" stroke="black" stroke-linecap="round" stroke-linejoin="round" stroke-width="2" /><path d="M 365.84703349732695,755.1321796055649 L 344.8067028646764,757.3693285808732 L 323.7663722320259,757.0536036580365 L 302.72604159937543,757.4237987830809 L 281.6857109667249,758.6399556719342 L 260.6453803340744,755.6723552650047 L 239.60504970142387,755.7144873216922 L 218.56471906877337,756.3273665320066 L 197.52438843612285,756.2583615218388" fill="none" stroke="black" stroke-linecap="round" stroke-linejoin="round" stroke-width="2" /><path d="M 197.60199834163308,756.111191972627 L 197.18984729158356,735.9864722056319 L 199.08122903608358,715.8617524386367 L 197.43464879761987,695.7370326716416" fill="none" stroke="black" stroke-linecap="round" stroke-linejoin="round" stroke-width="2" /><text dominant-baseline="middle" fill="black" font-family="Virgil, Comic Sans MS, cursive" font-size="16px" text-anchor="middle" x="281.6" y="726.0">Return 500 Error</text><path d="M 48.80000000000001,695.3125252799232 L 70.15964191776197,695.9739239501943 L 91.51928383552392,695.7709607477337 L 112.87892575328588,696.3004824009688 L 134.23856767104783,697.1193022896654 L 155.59820958880982,697.6624615873757 L 176.95785150657176,696.5566853029966" fill="none" stroke="black" stroke-linecap="round" stroke-linejoin="round" stroke-width="2" /><path d="M 175.76792826257162,696.0 L 177.9436721142686,725.9805621124947 L 175.49043798484246,755.9611242249895" fill="none" stroke="black" stroke-linecap="round" stroke-linejoin="round" stroke-width="2" /><path d="M 176.95785150657176,755.4152908631651 L 155.5982095888098,757.4965203971117 L 134.23856767104786,756.6419258596487 L 112.87892575328588,755.9904501218874 L 91.51928383552394,755.9800439937393 L 70.15964191776196,757.1315072922654 L 48.80000000000001,757.0384602941486" fill="none" stroke="black" stroke-linecap="round" stroke-linejoin="round" stroke-width="2" /><path d="M 47.67792245298326,755.9611242249895 L 47.206113802184,725.9805621124947 L 50.398312415809706,696.0" fill="none" stroke="black" stroke-linecap="round" stroke-linejoin="round" stroke-width="2" /><path d="M 48.824500524936276,695.3207230647055 L 70.18414244269823,697.0175238145199 L 91.5437843604602,693.7734511513256 L 112.90342627822216,695.7165791607787 L 134.2630681959841,695.2289181878434 L 155.62271011374608,695.7168202778852 L 176.98235203150801,694.7802132026811" fill="none" stroke="black" stroke-linecap="round" stroke-linejoin="round" stroke-width="2" /><path d="M 176.7839577269433,696.0393864243091 L 178.4915630848601,726.0199485368039 L 174.59652117177995,756.0005106492986" fill="none" stroke="black" stroke-linecap="round" stroke-linejoin="round" stroke-width="2" /><path d="M 176.98235203150801,757.0291032085972 L 155.62271011374605,755.3764476488991 L 134.2630681959841,756.4103314162118 L 112.90342627822214,755.7837588934221 L 91.5437843604602,755.3876450931596 L 70.18414244269822,757.4379894914987 L 48.82450052493627,756.2419633144237" fill="none" stroke="black" stroke-linecap="round" stroke-linejoin="round" stroke-width="2" /><path d="M 50.2586363618174,756.0005106492986 L 50.14419914658256,726.0199485368039 L 47.84508345094083,696.0393864243091" fill="none" stroke="black" stroke-linecap="round" stroke-linejoin="round" stroke-width="2" /><path d="M 48.81999485806703,695.6934866581372 L 70.17963677582898,696.241696234414 L 91.53927869359094,695.8925207950113 L 112.8989206113529,697.4851390095287 L 134.25856252911484,697.2586564934871 L 155.61820444687683,695.298583577276 L 176.97784636463876,696.8476215743435" fill="none" stroke="black" stroke-linecap="round" stroke-linejoin="round" stroke-width="2" /><path d="M 175.8588665000647,696.0076176983374 L 177.79596748152773,725.9881798108322 L 177.8449426451183,755.9687419233269" fill="none" stroke="black" stroke-linecap="round" stroke-linejoin="round" stroke-width="2" /><path d="M 176.97784636463876,756.0591886238996 L 155.6182044468768,755.1820286066365 L 134.25856252911484,754.8959319962521 L 112.89892061135289,756.5377847881743 L 91.53927869359094,757.1745200352137 L 70.17963677582897,755.2241677535802 L 48.81999485806702,756.3168390021295" fill="none" stroke="black" stroke-linecap="round" stroke-linejoin="round" stroke-width="2" /><path d="M 48.52020648736611,755.9687419233269 L 49.44747334004655,725.9881798108322 L 49.091897515081705,696.0076176983374" fill="none" stroke="black" stroke-linecap="round" stroke-linejoin="round" stroke-width="2" /><text dominant-baseline="middle" fill="black" font-family="Virgil, Comic Sans MS, cursive" font-size="16px" text-anchor="middle" x="112.80000000000001" y="726.0">Log Success</text><path d="M 435.6,775.5917202560283 L 458.0394149787761,776.6122970098295 L 480.47882995755225,776.3593028178027 L 502.91824493632834,778.398700669255 L 525.3576599151045,776.1220270580068 L 547.7970748938806,776.1136313675169" fill="none" stroke="black" stroke-linecap="round" stroke-linejoin="round" stroke-width="2" /><path d="M 547.4096319790648,776.0 L 547.2168155148477,796.0690675221316 L 548.639151428736,816.1381350442631 L 548.1422620407711,836.2072025663947" fill="none" stroke="black" stroke-linecap="round" stroke-linejoin="round" stroke-width="2" /><path d="M 547.7970748938806,836.5236065992464 L 525.3576599151045,836.2884887236215 L 502.91824493632834,837.0603967110429 L 480.47882995755225,836.9319384064114 L 458.0394149787761,837.4023550321837 L 435.6,836.7551991312612" fill="none" stroke="black" stroke-linecap="round" stroke-linejoin="round" stroke-width="2" /><path d="M 436.0357179890685,836.2072025663947 L 436.1051562350972,816.1381350442631 L 434.7935905821847,796.0690675221316 L 435.70146656787716,776.0" fill="none" stroke="black" stroke-linecap="round" stroke-linejoin="round" stroke-width="2" /><path d="M 435.42625253979776,776.0969887950913 L 457.8656675185739,777.5499997847201 L 480.30508249735,776.2965209485309 L 502.7444974761261,775.1403098149073 L 525.1839124549023,777.03498022428 L 547.6233274336784,775.8560314001784" fill="none" stroke="black" stroke-linecap="round" stroke-linejoin="round" stroke-width="2" /><path d="M 547.5910275550478,776.0030425887985 L 546.6792106716455,796.0721101109301 L 548.4120538850241,816.1411776330616 L 547.3260100272382,836.2102451551932" fill="none" stroke="black" stroke-linecap="round" stroke-linejoin="round" stroke-width="2" /><path d="M 547.6233274336784,835.8474936114076 L 525.1839124549023,835.4364692687229 L 502.7444974761261,838.7884839689942 L 480.30508249735,837.045955072946 L 457.8656675185739,836.8892987620384 L 435.42625253979776,834.9759733191695" fill="none" stroke="black" stroke-linecap="round" stroke-linejoin="round" stroke-width="2" /><path d="M 433.757430739794,836.2102451551932 L 434.91732759529566,816.1411776330616 L 437.45794419802326,796.0721101109301 L 434.04262774144553,776.0030425887985" fill="none" stroke="black" stroke-linecap="round" stroke-linejoin="round" stroke-width="2" /><path d="M 435.4765829222802,776.7537501016433 L 457.9159979010563,775.7527460486009 L 480.35541287983244,776.1484897948754 L 502.7948278586085,777.2114976961972 L 525.2342428373846,775.1940107057528 L 547.6736578161607,775.2834117006852" fill="none" stroke="black" stroke-linecap="round" stroke-linejoin="round" stroke-width="2" /><path d="M 546.9564847210472,776.1013576206353 L 547.6417917307859,796.1704251427669 L 548.2020880557588,816.2394926648984 L 548.0850338444474,836.30856018703" fill="none" stroke="black" stroke-linecap="round" stroke-linejoin="round" stroke-width="2" /><path d="M 547.6736578161607,837.9801506507814 L 525.2342428373846,836.1857395685503 L 502.7948278586085,834.6700567625787 L 480.35541287983244,835.8026341827104 L 457.9159979010563,834.7352182371587 L 435.4765829222802,836.2202146091022" fill="none" stroke="black" stroke-linecap="round" stroke-linejoin="round" stroke-width="2" /><path d="M 436.254418310361,836.30856018703 L 436.23428835565784,816.2394926648984 L 436.8225377873987,796.1704251427669 L 435.47958200434306,776.1013576206353" fill="none" stroke="black" stroke-linecap="round" stroke-linejoin="round" stroke-width="2" /><text dominant-baseline="middle" fill="black" font-family="Virgil, Comic Sans MS, cursive" font-size="16px" text-anchor="middle" x="491.6" y="806.0">Log Error</text></g></svg>