<?xml version="1.0" encoding="utf-8" ?>
<svg baseProfile="full" height="508.0px" version="1.1" viewBox="0 0 532.0 508.0" width="532.0px" xmlns="http://www.w3.org/2000/svg" xmlns:ev="http://www.w3.org/2001/xml-events" xmlns:xlink="http://www.w3.org/1999/xlink"><defs /><rect fill="white" height="508.0" width="532.0" x="0" y="0" /><g><path d="M 246.2643368391761,70.24318989204204 L 230.1639953526374,86.20420905775971 L 214.15960983340983,102.25350771340369 L 199.87387230174272,119.88396251760331" fill="none" stroke="black" stroke-linecap="round" stroke-linejoin="round" stroke-width="2" /><path d="M 202.70350041004363,110.07991226303177 L 201.76939174965707,115.12067775360484 L 199.87387230174272,119.88396251760331" fill="none" stroke="black" stroke-linecap="round" stroke-linejoin="round" stroke-width="2" /><path d="M 208.8782883553552,115.0832658849367 L 204.56078652974537,117.83005798027025 L 199.87387230174272,119.88396251760331" fill="none" stroke="black" stroke-linecap="round" stroke-linejoin="round" stroke-width="2" /><path d="M 201.76212158612964,204.0 L 200.24328395154942,214.0 L 198.9930424518904,224.0" fill="none" stroke="black" stroke-linecap="round" stroke-linejoin="round" stroke-width="2" /><path d="M 196.8158842988493,216.30194944309622 L 198.8331306453075,219.88832958778838 L 198.9930424518904,224.0" fill="none" stroke="black" stroke-linecap="round" stroke-linejoin="round" stroke-width="2" /><path d="M 202.9984452144042,217.07491886617586 L 200.19742681552424,220.07572026701067 L 198.9930424518904,224.0" fill="none" stroke="black" stroke-linecap="round" stroke-linejoin="round" stroke-width="2" /><text fill="black" font-family="Virgil, Comic Sans MS, cursive" font-size="14px" text-anchor="middle" x="200.24328395154942" y="204.0">Yes</text><path d="M 306.55705251015814,161.77588182334185 L 323.72513047623517,174.72557957265178 L 342.0133731359911,186.07677202936034 L 358.1892000275595,200.4424388795908 L 376.8719634574644,211.23063953457319 L 394.029861934124,224.1948636904032 L 411.2501642313189,237.0700359077396" fill="none" stroke="black" stroke-linecap="round" stroke-linejoin="round" stroke-width="2" /><path d="M 392.4286461731249,232.4239634249638 L 401.7333663994653,235.17656921102645 L 411.2501642313189,237.0700359077396" fill="none" stroke="black" stroke-linecap="round" stroke-linejoin="round" stroke-width="2" /><path d="M 401.46997471435617,220.33135541785563 L 407.14023653073144,228.24485437436957 L 411.2501642313189,237.0700359077396" fill="none" stroke="black" stroke-linecap="round" stroke-linejoin="round" stroke-width="2" /><text fill="black" font-family="Virgil, Comic Sans MS, cursive" font-size="14px" text-anchor="middle" x="323.72513047623517" y="164.72557957265178">No</text><path d="M 411.9724533278567,236.02147020034698 L 398.0340382410809,219.55802901798106 L 386.0760296050895,201.55103574897436 L 372.52303026954974,184.7871969957921 L 357.2730890686397,169.3459746965014 L 345.9382804587234,150.85325199540677 L 331.0813204522202,135.1057355298872 L 319.2365611017436,117.01047443540573 L 307.208884375101,99.05778129587716" fill="none" stroke="black" stroke-linecap="round" stroke-linejoin="round" stroke-width="2" /><path d="M 323.9325046494147,110.02685258384696 L 315.4673119867967,104.69993557989297 L 307.208884375101,99.05778129587716" fill="none" stroke="black" stroke-linecap="round" stroke-linejoin="round" stroke-width="2" /><path d="M 310.99161272485344,118.69679772318275 L 308.78575228383926,108.93786555447674 L 307.208884375101,99.05778129587716" fill="none" stroke="black" stroke-linecap="round" stroke-linejoin="round" stroke-width="2" /><path d="M 199.9746461470451,307.89351381758934 L 179.1014165985182,313.4259497137764 L 157.2958553789971,315.0425925917878 L 137.283992578467,324.1927688295614 L 115.88840034220945,327.5312814372797" fill="none" stroke="black" stroke-linecap="round" stroke-linejoin="round" stroke-width="2" /><path d="M 126.99614960747431,320.6476523281981 L 121.80071484490142,324.66786239769226 L 115.88840034220945,327.5312814372797" fill="none" stroke="black" stroke-linecap="round" stroke-linejoin="round" stroke-width="2" /><path d="M 128.56525704995846,330.7036224439475 L 121.91556622632848,330.3612746315843 L 115.88840034220945,327.5312814372797" fill="none" stroke="black" stroke-linecap="round" stroke-linejoin="round" stroke-width="2" /><text fill="black" font-family="Virgil, Comic Sans MS, cursive" font-size="14px" text-anchor="middle" x="179.1014165985182" y="303.4259497137764">Yes</text><path d="M 199.95420615519637,308.19233414817523 L 221.15992546094287,312.3283130640399 L 242.38750354876774,316.3724850951754 L 263.12261223798146,322.4850286004778 L 284.06730191416,327.717331960528" fill="none" stroke="black" stroke-linecap="round" stroke-linejoin="round" stroke-width="2" /><path d="M 271.26004909597117,329.7210691230452 L 277.4155141105213,327.13303156758326 L 284.06730191416,327.717331960528" fill="none" stroke="black" stroke-linecap="round" stroke-linejoin="round" stroke-width="2" /><path d="M 273.707009889329,319.92598826860416 L 279.4580872050743,323.06248233182424 L 284.06730191416,327.717331960528" fill="none" stroke="black" stroke-linecap="round" stroke-linejoin="round" stroke-width="2" /><text fill="black" font-family="Virgil, Comic Sans MS, cursive" font-size="14px" text-anchor="middle" x="221.15992546094287" y="302.3283130640399">No</text><path d="M 116.88414276661918,387.39878291869894 L 127.39193632968504,404.6268166291475 L 137.47665243144007,422.1425430132874 L 151.1323861746249,437.22997740125504" fill="none" stroke="black" stroke-linecap="round" stroke-linejoin="round" stroke-width="2" /><path d="M 142.87042793516474,433.3890763861846 L 146.78307662535846,435.7791658883608 L 151.1323861746249,437.22997740125504" fill="none" stroke="black" stroke-linecap="round" stroke-linejoin="round" stroke-width="2" /><path d="M 148.13151817454985,428.6272298282829 L 149.38856601151372,433.01350320553735 L 151.1323861746249,437.22997740125504" fill="none" stroke="black" stroke-linecap="round" stroke-linejoin="round" stroke-width="2" /><path d="M 283.2505695178529,387.49038727213997 L 272.2565663944027,404.38779848152717 L 261.04178925150757,421.1350833576918 L 250.90627412102302,438.61626640229565" fill="none" stroke="black" stroke-linecap="round" stroke-linejoin="round" stroke-width="2" /><path d="M 252.041981488424,429.6093557255705 L 251.25792027736665,434.0855488326842 L 250.90627412102302,438.61626640229565" fill="none" stroke="black" stroke-linecap="round" stroke-linejoin="round" stroke-width="2" /><path d="M 258.158691297883,433.1557979008152 L 254.68344435560272,436.08653451417985 L 250.90627412102302,438.61626640229565" fill="none" stroke="black" stroke-linecap="round" stroke-linejoin="round" stroke-width="2" /><path d="M 246.0,41.53154208046757 L 269.91572285697015,39.011667315080494 L 293.8314457139403,39.591452039759325 L 317.74716857091045,42.11943139656316 L 341.6628914278806,39.76077884868288 L 365.57861428485074,39.11250079930254" fill="none" stroke="black" stroke-linecap="round" stroke-linejoin="round" stroke-width="2" /><path d="M 364.95070427358314,40.0 L 364.9786194780819,69.84376563673665 L 365.5759461921802,99.6875312734733" fill="none" stroke="black" stroke-linecap="round" stroke-linejoin="round" stroke-width="2" /><path d="M 365.57861428485074,97.26563655488687 L 341.6628914278806,99.91705715094426 L 317.74716857091045,99.85519536930688 L 293.8314457139403,99.07865064775467 L 269.91572285697015,101.02793448478857 L 246.0,98.82543286368063" fill="none" stroke="black" stroke-linecap="round" stroke-linejoin="round" stroke-width="2" /><path d="M 245.77164921061333,99.6875312734733 L 246.09760412258228,69.84376563673665 L 245.47628841823985,40.0" fill="none" stroke="black" stroke-linecap="round" stroke-linejoin="round" stroke-width="2" /><path d="M 246.09394033068,41.40047639374337 L 270.0096631876502,41.30231898024809 L 293.9253860446203,40.99190763343675 L 317.8411089015905,39.82839569053841 L 341.7568317585606,41.1084596262273 L 365.67255461553077,39.70296829425417" fill="none" stroke="black" stroke-linecap="round" stroke-linejoin="round" stroke-width="2" /><path d="M 367.08964099536166,39.89683180553383 L 366.77411495662636,69.74059744227047 L 366.63996367644216,99.58436307900712" fill="none" stroke="black" stroke-linecap="round" stroke-linejoin="round" stroke-width="2" /><path d="M 365.67255461553077,99.7792250030487 L 341.7568317585606,100.81352111241998 L 317.8411089015905,98.4864197630097 L 293.9253860446203,100.52268801118117 L 270.0096631876502,97.32748189288604 L 246.09394033068,99.17803290437104" fill="none" stroke="black" stroke-linecap="round" stroke-linejoin="round" stroke-width="2" /><path d="M 244.44187232568387,99.58436307900712 L 244.63900784526862,69.74059744227047 L 246.46448581353656,39.89683180553383" fill="none" stroke="black" stroke-linecap="round" stroke-linejoin="round" stroke-width="2" /><path d="M 245.85512915958523,38.811721827691215 L 269.77085201655535,40.457560132057225 L 293.6865748735255,37.966794304965454 L 317.60229773049565,37.887623405646735 L 341.5180205874658,40.70029928583922 L 365.43374344443595,40.926545167431115" fill="none" stroke="black" stroke-linecap="round" stroke-linejoin="round" stroke-width="2" /><path d="M 365.0375493915297,40.035890874599744 L 366.2131222694582,69.87965651133639 L 362.87053633260507,99.72342214807304" fill="none" stroke="black" stroke-linecap="round" stroke-linejoin="round" stroke-width="2" /><path d="M 365.43374344443595,98.19835703413125 L 341.5180205874658,100.00052972103181 L 317.60229773049565,100.24347731676325 L 293.6865748735255,100.1531570342439 L 269.77085201655535,98.94473141571915 L 245.85512915958523,100.4760164897916" fill="none" stroke="black" stroke-linecap="round" stroke-linejoin="round" stroke-width="2" /><path d="M 245.82246018635004,99.72342214807304 L 245.05218897097328,69.87965651133639 L 246.82440218477254,40.035890874599744" fill="none" stroke="black" stroke-linecap="round" stroke-linejoin="round" stroke-width="2" /><text dominant-baseline="middle" fill="black" font-family="Virgil, Comic Sans MS, cursive" font-size="16px" text-anchor="middle" x="306.0" y="70.0">User Login</text><path d="M 200.09075024130405,119.77009938869644 L 221.38288253866853,128.1393642353731 L 242.41036022425493,137.1790874318875 L 263.6592495635947,145.65790110556 L 284.2757049270193,155.73888085155102 L 306.71465710157094,161.20286867602022" fill="none" stroke="black" stroke-linecap="round" stroke-linejoin="round" stroke-width="2" /><path d="M 306.3871979116449,161.9675680428337 L 284.7835074847928,169.5475522948083 L 264.157326766368,179.60389447479898 L 242.40001429592718,186.79470288301547 L 221.85992753261107,197.06914974928142 L 199.74524290737145,203.35461536534098" fill="none" stroke="black" stroke-linecap="round" stroke-linejoin="round" stroke-width="2" /><path d="M 199.3551505113547,205.63361870456808 L 178.87452748072806,195.20853038215557 L 158.19662598666864,185.2832141671061 L 136.2838948067349,178.48613315627162 L 115.00990218110368,170.07091447453735 L 93.85039650918999,161.36566217671873" fill="none" stroke="black" stroke-linecap="round" stroke-linejoin="round" stroke-width="2" /><path d="M 93.804120708777,162.5171057955684 L 115.00225724998202,153.9097183666211 L 136.31474042481946,145.59200907620925 L 157.44480338344732,136.81216857139992 L 178.66719291144224,128.2662220423203 L 200.0571208321769,120.14470610818147" fill="none" stroke="black" stroke-linecap="round" stroke-linejoin="round" stroke-width="2" /><path d="M 200.60911646799465,117.91980141125353 L 221.10050638271804,128.37261272946708 L 242.00084435261437,137.78625483969364 L 263.57009853227294,145.50012819172366 L 285.0791545683336,153.3669697665232 L 306.0719835839219,162.54558484707738" fill="none" stroke="black" stroke-linecap="round" stroke-linejoin="round" stroke-width="2" /><path d="M 306.5355820053894,162.5254967762389 L 284.7402157277442,169.664801483648 L 263.87628194481067,179.17094949934338 L 242.39938694641958,187.11951480316043 L 220.2643775195139,193.3957595254427 L 200.2473519669921,205.05396803855862" fill="none" stroke="black" stroke-linecap="round" stroke-linejoin="round" stroke-width="2" /><path d="M 199.67194426874548,204.1450893888402 L 178.8109630293253,194.63143872759952 L 156.52919893546056,188.72810916924374 L 136.18953958071003,177.88973855116325 L 113.97837037304946,171.80702182845553 L 93.4718516145962,161.39265409337597" fill="none" stroke="black" stroke-linecap="round" stroke-linejoin="round" stroke-width="2" /><path d="M 93.53064917515049,162.64979666910935 L 114.37562579649777,153.09547701317226 L 135.38808526014446,143.96674444679857 L 157.2065201212849,136.88605882642733 L 178.48367831668716,128.42994657931953 L 199.1844758622051,118.50925653931372" fill="none" stroke="black" stroke-linecap="round" stroke-linejoin="round" stroke-width="2" /><path d="M 199.34510832014084,121.4093462962787 L 220.95332675987123,128.75497833040546 L 242.11637556821194,137.2346521286087 L 263.54704265491046,145.03258511816648 L 284.59151823670555,153.8143167871731 L 306.01405901675247,161.63295103414112" fill="none" stroke="black" stroke-linecap="round" stroke-linejoin="round" stroke-width="2" /><path d="M 305.54207586548415,161.02026818493945 L 284.5230850592351,169.86692072405828 L 263.43322065237726,178.5330272029935 L 242.00500190772257,186.33719719061824 L 220.84781493966003,194.83180365992257 L 199.77095385675256,203.53103529248847" fill="none" stroke="black" stroke-linecap="round" stroke-linejoin="round" stroke-width="2" /><path d="M 200.24615249381702,202.41960493936637 L 178.6751373170832,194.97919992203694 L 157.05983426219336,187.65161550146385 L 135.51000959821522,180.15722897961862 L 114.49537232026722,171.29948609972544 L 93.8652437625866,161.46223132888522" fill="none" stroke="black" stroke-linecap="round" stroke-linejoin="round" stroke-width="2" /><path d="M 93.54487773607832,161.57722302283523 L 115.01181213507293,153.87167874067006 L 136.80765405406507,147.0040057729331 L 157.46054349885392,137.22473293695126 L 178.13053815802272,127.4890345636517 L 200.45432259453042,121.96626210502008" fill="none" stroke="black" stroke-linecap="round" stroke-linejoin="round" stroke-width="2" /><text dominant-baseline="middle" fill="black" font-family="Virgil, Comic Sans MS, cursive" font-size="16px" text-anchor="middle" x="200.0" y="162.0">Authenticated?</text><path d="M 200.37893865320657,222.9894969247825 L 222.9644592073979,230.89477544693892 L 244.93388007943508,240.4429864548398 L 267.17463203739004,249.26764790029316 L 289.9592086986814,256.64211013684974 L 311.9631582553198,266.09824465248056" fill="none" stroke="black" stroke-linecap="round" stroke-linejoin="round" stroke-width="2" /><path d="M 312.566316403598,267.5101770762613 L 289.82372963748156,274.99661236661746 L 267.4519454147093,283.47185443922496 L 244.94119486921497,291.57651965123983 L 222.67149106869232,300.32397618317964 L 199.59864109987691,306.9297095996718" fill="none" stroke="black" stroke-linecap="round" stroke-linejoin="round" stroke-width="2" /><path d="M 200.167755237742,307.55265269935467 L 177.61190899586074,299.5682426777047 L 155.27913270570562,290.9889794514516 L 133.09263527972365,282.01963925407034 L 110.47297989737594,274.2053869403308 L 88.34763197780768,265.0729813925129" fill="none" stroke="black" stroke-linecap="round" stroke-linejoin="round" stroke-width="2" /><path d="M 87.7629751364806,265.3679336972816 L 110.52878174766813,257.9434179937817 L 132.9129950555437,249.5013201481165 L 155.34766459295216,241.19377224787246 L 177.71907240531417,232.71752641417106 L 199.7703642189801,223.38763791728027" fill="none" stroke="black" stroke-linecap="round" stroke-linejoin="round" stroke-width="2" /><path d="M 200.23650321032437,222.66396276891842 L 222.42825903498823,231.57624658916666 L 244.37692287091753,241.13418865029527 L 267.0682685495069,248.7195496545083 L 289.12872938660297,257.9805561585058 L 311.60479431858835,266.13770806735255" fill="none" stroke="black" stroke-linecap="round" stroke-linejoin="round" stroke-width="2" /><path d="M 311.75343851601974,266.2017884176901 L 289.4471503825166,274.8098716370296 L 267.6289955504495,284.71444879004815 L 244.28853479263785,290.57574433919933 L 222.1455869252981,299.617663282476 L 200.56766427896855,310.16030296998446" fill="none" stroke="black" stroke-linecap="round" stroke-linejoin="round" stroke-width="2" /><path d="M 199.95830793798083,307.646967712964 L 177.75157036427603,298.7744757829441 L 155.43768138202185,290.18658060295263 L 132.06699127260856,284.4055749476795 L 110.63882541422038,273.4651775851219 L 87.91493367636899,265.96625970673983" fill="none" stroke="black" stroke-linecap="round" stroke-linejoin="round" stroke-width="2" /><path d="M 87.83046762990539,265.75409029475185 L 110.66016300668954,258.5361894574811 L 133.00547080192655,250.03174340975704 L 155.1653473933074,241.034787569714 L 177.57228582692213,232.69403399810324 L 199.72302012780816,223.6727960119095" fill="none" stroke="black" stroke-linecap="round" stroke-linejoin="round" stroke-width="2" /><path d="M 199.48252441178343,225.0842800969745 L 221.7099311481575,233.8645187052168 L 243.7682879508085,243.09877130126313 L 267.48046919632986,247.89138104126678 L 290.16846907564013,255.43461396146043 L 312.11743773707684,264.9626480758867" fill="none" stroke="black" stroke-linecap="round" stroke-linejoin="round" stroke-width="2" /><path d="M 311.8103842544956,266.3033007650935 L 289.19776493692075,274.0489817352959 L 267.2191703413209,283.4974500775532 L 244.03807401286952,289.71638383763354 L 222.43352328713158,300.1694142357854 L 200.03434092384288,308.4883185171486" fill="none" stroke="black" stroke-linecap="round" stroke-linejoin="round" stroke-width="2" /><path d="M 199.34776537625442,308.8225182778346 L 177.6424861087964,298.64001248684974 L 155.23873586649086,290.33337606577226 L 133.2859449828356,280.81560721625027 L 109.98783596733062,274.9109320630966 L 88.02615711049276,265.4170334633834" fill="none" stroke="black" stroke-linecap="round" stroke-linejoin="round" stroke-width="2" /><path d="M 88.18212933120641,267.0924541438 L 110.51324627301172,258.5907479366467 L 132.87796812172573,250.17929374828697 L 154.99738234934486,241.10902184353293 L 177.3352998854728,232.62557985500345 L 199.84386350298473,224.60043859576746" fill="none" stroke="black" stroke-linecap="round" stroke-linejoin="round" stroke-width="2" /><text dominant-baseline="middle" fill="black" font-family="Virgil, Comic Sans MS, cursive" font-size="16px" text-anchor="middle" x="200.0" y="266.0">Has Permission?</text><path d="M 332.0,235.58561572522834 L 354.8417636630522,235.97643935011837 L 377.68352732610435,235.41827831718675 L 400.52529098915653,236.7802002899892 L 423.3670546522087,234.93689345364461 L 446.20881831526094,234.54205925481787 L 469.05058197831306,236.03332864681363 L 491.8923456413653,235.94499908600793" fill="none" stroke="black" stroke-linecap="round" stroke-linejoin="round" stroke-width="2" /><path d="M 490.509763366848,236.0 L 493.71707136075884,256.02619345452376 L 492.7079904739818,276.05238690904747 L 491.48544916096245,296.07858036357123" fill="none" stroke="black" stroke-linecap="round" stroke-linejoin="round" stroke-width="2" /><path d="M 491.8923456413653,296.29842770031064 L 469.0505819783131,294.61342518412266 L 446.20881831526094,297.44403816292623 L 423.36705465220876,295.92620443891155 L 400.5252909891566,296.37499415474696 L 377.68352732610435,296.0699034133077 L 354.84176366305223,297.63274794536596 L 332.0,296.5821277075605" fill="none" stroke="black" stroke-linecap="round" stroke-linejoin="round" stroke-width="2" /><path d="M 333.5529948749593,296.07858036357123 L 331.55497889054107,276.05238690904747 L 333.12112051533546,256.02619345452376 L 331.32062254985834,236.0" fill="none" stroke="black" stroke-linecap="round" stroke-linejoin="round" stroke-width="2" /><path d="M 332.06890790045384,236.60939808447247 L 354.910671563506,236.0431962876573 L 377.7524352265582,237.99429931516934 L 400.59419888961037,235.7685393122491 L 423.43596255266255,234.17403578417492 L 446.2777262157148,236.25892460196954 L 469.1194898787669,235.61802868346473 L 491.96125354181913,236.25298329089648" fill="none" stroke="black" stroke-linecap="round" stroke-linejoin="round" stroke-width="2" /><path d="M 490.13893229368625,235.99648586650338 L 492.2985017325568,256.0226793210271 L 490.4539055036781,276.0488727755509 L 490.76831199637473,296.07506623007464" fill="none" stroke="black" stroke-linecap="round" stroke-linejoin="round" stroke-width="2" /><path d="M 491.96125354181913,294.54189289949585 L 469.11948987876696,296.93334478391836 L 446.2777262157148,296.83596308496755 L 423.4359625526626,295.4335699532444 L 400.5941988896104,294.9061992388191 L 377.7524352265582,294.1496459520594 L 354.91067156350607,295.7726552795026 L 332.06890790045384,295.131540449987" fill="none" stroke="black" stroke-linecap="round" stroke-linejoin="round" stroke-width="2" /><path d="M 331.56337993859887,296.07506623007464 L 330.63811708938397,276.0488727755509 L 331.31859801482324,256.0226793210271 L 331.064134796043,235.99648586650338" fill="none" stroke="black" stroke-linecap="round" stroke-linejoin="round" stroke-width="2" /><path d="M 332.0573761436691,235.95154411249916 L 354.8991398067213,236.35960771807623 L 377.74090346977346,235.74351214191958 L 400.58266713282563,235.91950364506826 L 423.4244307958778,237.1046999662968 L 446.26619445893004,235.00698316788504 L 469.10795812198216,236.12647447316942 L 491.9497217850344,237.5068873682043" fill="none" stroke="black" stroke-linecap="round" stroke-linejoin="round" stroke-width="2" /><path d="M 491.76214456954926,235.97998162770728 L 492.999654473622,256.00617508223104 L 492.00293205944297,276.03236853675475 L 492.36781983692987,296.0585619912785" fill="none" stroke="black" stroke-linecap="round" stroke-linejoin="round" stroke-width="2" /><path d="M 491.9497217850344,296.6332391687492 L 469.1079581219822,297.94303951786395 L 446.26619445893004,298.9391091068518 L 423.42443079587787,295.13583486279146 L 400.5826671328257,296.69667794499816 L 377.74090346977346,295.8284331489732 L 354.89913980672134,295.17524530472684 L 332.0573761436691,295.10954601296334" fill="none" stroke="black" stroke-linecap="round" stroke-linejoin="round" stroke-width="2" /><path d="M 331.28014535768915,296.0585619912785 L 332.04418979361907,276.03236853675475 L 331.8991390453424,256.00617508223104 L 332.9662660531114,235.97998162770728" fill="none" stroke="black" stroke-linecap="round" stroke-linejoin="round" stroke-width="2" /><text dominant-baseline="middle" fill="black" font-family="Virgil, Comic Sans MS, cursive" font-size="16px" text-anchor="middle" x="412.0" y="266.0">Show Login Page</text><path d="M 40.0,329.84047019703445 L 61.716890438486814,327.4506565318945 L 83.43378087697363,329.0913207519015 L 105.15067131546043,328.52407387554524 L 126.86756175394724,327.9238149929193 L 148.58445219243407,327.7988762911988 L 170.30134263092086,330.13536665982963 L 192.01823306940767,327.028379624247" fill="none" stroke="black" stroke-linecap="round" stroke-linejoin="round" stroke-width="2" /><path d="M 190.5759135786097,328.0 L 192.87798955347236,357.8578321334639 L 192.46268765222976,387.7156642669278" fill="none" stroke="black" stroke-linecap="round" stroke-linejoin="round" stroke-width="2" /><path d="M 192.01823306940767,387.6580829750869 L 170.30134263092086,389.26887726993016 L 148.58445219243404,388.98988651428584 L 126.86756175394724,387.4664532151951 L 105.15067131546043,388.7231398815633 L 83.43378087697361,386.962024124439 L 61.716890438486814,388.6026197403028 L 40.0,386.4786165183355" fill="none" stroke="black" stroke-linecap="round" stroke-linejoin="round" stroke-width="2" /><path d="M 40.38942137781848,387.7156642669278 L 40.013696538353855,357.8578321334639 L 42.32147511456854,328.0" fill="none" stroke="black" stroke-linecap="round" stroke-linejoin="round" stroke-width="2" /><path d="M 39.838716212275216,329.0272072484384 L 61.55560665076203,329.46555512111877 L 83.27249708924884,328.32110283792633 L 104.98938752773564,327.0559346598114 L 126.70627796622246,326.50972174408923 L 148.42316840470926,327.2269959899535 L 170.14005884319607,329.1058221476454 L 191.8569492816829,326.845152564723" fill="none" stroke="black" stroke-linecap="round" stroke-linejoin="round" stroke-width="2" /><path d="M 193.40243893161494,327.9181630000461 L 191.69538545950087,357.77599513351 L 192.41835400565503,387.63382726697387" fill="none" stroke="black" stroke-linecap="round" stroke-linejoin="round" stroke-width="2" /><path d="M 191.8569492816829,387.91427002694024 L 170.14005884319607,388.6003878119072 L 148.42316840470926,389.43437100599203 L 126.70627796622246,388.9291136747317 L 104.98938752773564,385.06869061577646 L 83.27249708924883,389.0906628025751 L 61.55560665076203,387.7442803619802 L 39.838716212275216,387.89214983189794" fill="none" stroke="black" stroke-linecap="round" stroke-linejoin="round" stroke-width="2" /><path d="M 38.26692865649962,387.63382726697387 L 40.85032901604824,357.77599513351 L 39.062136549025574,327.9181630000461" fill="none" stroke="black" stroke-linecap="round" stroke-linejoin="round" stroke-width="2" /><path d="M 40.20699189599,328.4331547874298 L 61.923882334476815,328.79273644127943 L 83.64077277296363,326.2041806437423 L 105.35766321145043,324.76200702440866 L 127.07455364993724,328.53167955507155 L 148.79144408842404,327.8457293732586 L 170.50833452691086,327.26050133855756 L 192.22522496539767,327.92004082309484" fill="none" stroke="black" stroke-linecap="round" stroke-linejoin="round" stroke-width="2" /><path d="M 193.3316218373767,327.6621961352377 L 192.7127418263477,357.5200282687016 L 190.07343340221158,387.3778604021655" fill="none" stroke="black" stroke-linecap="round" stroke-linejoin="round" stroke-width="2" /><path d="M 192.22522496539767,386.99426372174264 L 170.50833452691086,387.6666116720786 L 148.79144408842404,386.8945930635727 L 127.07455364993724,388.1846685349231 L 105.35766321145043,387.75768292891314 L 83.64077277296362,390.23108759248953 L 61.923882334476815,386.46622002361715 L 40.20699189599,386.23446827667436" fill="none" stroke="black" stroke-linecap="round" stroke-linejoin="round" stroke-width="2" /><path d="M 41.988935517232626,387.3778604021655 L 40.768427100722775,357.5200282687016 L 40.41786474968332,327.6621961352377" fill="none" stroke="black" stroke-linecap="round" stroke-linejoin="round" stroke-width="2" /><text dominant-baseline="middle" fill="black" font-family="Virgil, Comic Sans MS, cursive" font-size="16px" text-anchor="middle" x="116.0" y="358.0">Show Dashboard</text><path d="M 212.0,328.3820425304985 L 232.61254950431223,329.31062994528463 L 253.22509900862448,329.3485395138487 L 273.8376485129367,327.9627849020466 L 294.45019801724897,328.12001737474816 L 315.06274752156116,329.593822883363 L 335.6752970258734,327.3245441504589 L 356.2878465301857,329.30552450223047" fill="none" stroke="black" stroke-linecap="round" stroke-linejoin="round" stroke-width="2" /><path d="M 355.4436295173416,328.0 L 356.9193958136108,348.0346569656684 L 356.31463099072585,368.0693139313367 L 356.52874607967317,388.10397089700507" fill="none" stroke="black" stroke-linecap="round" stroke-linejoin="round" stroke-width="2" /><path d="M 356.2878465301857,388.8258314464088 L 335.6752970258734,388.78270280159063 L 315.0627475215612,387.9453769938422 L 294.45019801724897,389.03678406498886 L 273.8376485129367,387.02511245488876 L 253.22509900862448,389.2677518315786 L 232.61254950431226,388.296866406515 L 212.0,389.03882392505477" fill="none" stroke="black" stroke-linecap="round" stroke-linejoin="round" stroke-width="2" /><path d="M 211.4814120543517,388.10397089700507 L 212.36278845710845,368.0693139313367 L 212.68384601407973,348.0346569656684 L 212.2208020667181,328.0" fill="none" stroke="black" stroke-linecap="round" stroke-linejoin="round" stroke-width="2" /><path d="M 211.7363358477448,328.20373686174247 L 232.34888535205704,328.07049731611716 L 252.9614348563693,327.81388518245495 L 273.57398436068155,330.31378271894056 L 294.18653386499375,327.77478895041077 L 314.799083369306,329.28333236826046 L 335.41163287361826,328.2562692878429 L 356.0241823779305,329.4022957634982" fill="none" stroke="black" stroke-linecap="round" stroke-linejoin="round" stroke-width="2" /><path d="M 356.06186088696614,328.3731429809148 L 357.78797954663327,348.40779994658317 L 356.1897039338518,368.4424569122515 L 358.3495277855479,388.47711387791986" fill="none" stroke="black" stroke-linecap="round" stroke-linejoin="round" stroke-width="2" /><path d="M 356.0241823779305,388.8275973915558 L 335.41163287361826,388.4725957556326 L 314.799083369306,388.6389423829617 L 294.1865338649938,388.30346108224717 L 273.57398436068155,390.7948973705173 L 252.9614348563693,389.7909552572204 L 232.34888535205707,388.7189598091918 L 211.7363358477448,388.43276218986966" fill="none" stroke="black" stroke-linecap="round" stroke-linejoin="round" stroke-width="2" /><path d="M 211.27491245590875,388.47711387791986 L 212.96368408079135,368.4424569122515 L 212.98170733099636,348.40779994658317 L 212.41663897678424,328.3731429809148" fill="none" stroke="black" stroke-linecap="round" stroke-linejoin="round" stroke-width="2" /><path d="M 212.0009197827492,329.0570482876045 L 232.61346928706143,328.4059266397348 L 253.2260187913737,328.73501872142316 L 273.83856829568595,328.5832466615727 L 294.4511177999982,327.663140014812 L 315.06366730431046,330.0840853110166 L 335.67621680862266,327.87675541926683 L 356.2887663129349,328.34462470129836" fill="none" stroke="black" stroke-linecap="round" stroke-linejoin="round" stroke-width="2" /><path d="M 355.7855923357693,328.2063095529657 L 356.21668974506514,348.2409665186341 L 357.31345005385293,368.2756234843024 L 356.4042193796415,388.3102804499708" fill="none" stroke="black" stroke-linecap="round" stroke-linejoin="round" stroke-width="2" /><path d="M 356.2887663129349,387.58324116390384 L 335.67621680862266,387.44371563968207 L 315.06366730431046,387.26774822292936 L 294.4511177999982,389.96260785950335 L 273.83856829568595,386.66744039017965 L 253.2260187913737,388.26934616746024 L 232.61346928706146,388.3029363990036 L 212.0009197827492,387.18304941931586" fill="none" stroke="black" stroke-linecap="round" stroke-linejoin="round" stroke-width="2" /><path d="M 211.2440620032934,388.3102804499708 L 212.27340549327013,368.2756234843024 L 212.88684797399995,348.2409665186341 L 210.35793545103735,328.2063095529657" fill="none" stroke="black" stroke-linecap="round" stroke-linejoin="round" stroke-width="2" /><text dominant-baseline="middle" fill="black" font-family="Virgil, Comic Sans MS, cursive" font-size="16px" text-anchor="middle" x="284.0" y="358.0">Access Denied</text><path d="M 150.0,406.96570916169713 L 170.01128830941923,408.83161672472005 L 190.02257661883849,407.4315741810623 L 210.0338649282577,407.4675002988489 L 230.04515323767697,407.71609568688785 L 250.0564415470962,407.89194537321777" fill="none" stroke="black" stroke-linecap="round" stroke-linejoin="round" stroke-width="2" /><path d="M 250.61425318490052,408.0 L 249.15743709410367,428.04284433494075 L 249.38762734221015,448.08568866988145 L 249.3965673899147,468.1285330048222" fill="none" stroke="black" stroke-linecap="round" stroke-linejoin="round" stroke-width="2" /><path d="M 250.0564415470962,466.46339661845496 L 230.04515323767697,467.7275628846928 L 210.0338649282577,468.1971134810512 L 190.02257661883849,468.0975023804481 L 170.01128830941923,468.83948547930186 L 150.0,468.3807630321772" fill="none" stroke="black" stroke-linecap="round" stroke-linejoin="round" stroke-width="2" /><path d="M 150.0261614046366,468.1285330048222 L 149.65872691354372,448.08568866988145 L 151.2216815291508,428.04284433494075 L 150.00751954276802,408.0" fill="none" stroke="black" stroke-linecap="round" stroke-linejoin="round" stroke-width="2" /><path d="M 150.08890099878522,407.4235177686587 L 170.10018930820445,409.2759223752013 L 190.1114776176237,407.1560088681307 L 210.12276592704293,407.48073999672476 L 230.1340542364622,407.4369765570048 L 250.14534254588142,407.63484868819444" fill="none" stroke="black" stroke-linecap="round" stroke-linejoin="round" stroke-width="2" /><path d="M 247.5769256877165,407.9758720739618 L 249.27304588192322,428.01871640890255 L 251.55557544933754,448.06156074384324 L 249.26172395058754,468.104405078784" fill="none" stroke="black" stroke-linecap="round" stroke-linejoin="round" stroke-width="2" /><path d="M 250.14534254588142,469.58242843107263 L 230.1340542364622,468.45544582311254 L 210.12276592704293,467.485572376802 L 190.1114776176237,466.90032700156814 L 170.10018930820445,467.7207724195128 L 150.08890099878522,469.9652566718614" fill="none" stroke="black" stroke-linecap="round" stroke-linejoin="round" stroke-width="2" /><path d="M 151.65764277076946,468.104405078784 L 149.82330154983936,448.06156074384324 L 150.37553762981716,428.01871640890255 L 151.12088478940115,407.9758720739618" fill="none" stroke="black" stroke-linecap="round" stroke-linejoin="round" stroke-width="2" /><path d="M 149.83243722408406,407.6227031546201 L 169.8437255335033,408.81211930315897 L 189.85501384292255,408.4826806745556 L 209.86630215234177,406.7502657044677 L 229.87759046176103,407.40317430684144 L 249.88887877118026,407.4299753767178" fill="none" stroke="black" stroke-linecap="round" stroke-linejoin="round" stroke-width="2" /><path d="M 250.47350777255016,407.65264229767615 L 251.19966390961415,427.6954866326169 L 249.68367379396346,447.7383309675576 L 250.68809564562787,467.78117530249835" fill="none" stroke="black" stroke-linecap="round" stroke-linejoin="round" stroke-width="2" /><path d="M 249.88887877118026,469.0127815171032 L 229.87759046176103,468.14873858256465 L 209.86630215234177,467.60687000621 L 189.85501384292255,467.96433877178686 L 169.8437255335033,466.77094860646025 L 149.83243722408406,469.5146337081798" fill="none" stroke="black" stroke-linecap="round" stroke-linejoin="round" stroke-width="2" /><path d="M 150.80164676110965,467.78117530249835 L 149.78285702041165,447.7383309675576 L 149.34633156599898,427.6954866326169 L 148.58857528628954,407.65264229767615" fill="none" stroke="black" stroke-linecap="round" stroke-linejoin="round" stroke-width="2" /><text dominant-baseline="middle" fill="black" font-family="Virgil, Comic Sans MS, cursive" font-size="16px" text-anchor="middle" x="200.0" y="438.0">Done</text></g></svg>